<?xml version="1.0" encoding="iso-8859-1"?>
<!-- Generator: Adobe Illustrator 18.0.0, SVG Export Plug-In . SVG Version: 6.00 Build 0)  -->
<!DOCTYPE svg PUBLIC "-//W3C//DTD SVG 1.1//EN" "http://www.w3.org/Graphics/SVG/1.1/DTD/svg11.dtd">
<svg version="1.1" xmlns="http://www.w3.org/2000/svg" xmlns:xlink="http://www.w3.org/1999/xlink" x="0px" y="0px"
	 viewBox="0 0 48 48" style="enable-background:new 0 0 48 48;" xml:space="preserve">
<g id="Layer_640">
	<g>
		<g>
			<path style="fill:#F16529;" d="M31.649,2c2.805,0,6.247,1.979,7.649,4.4l7.649,13.199c1.402,2.421,1.402,6.381,0,8.802
				L39.299,41.6c-1.402,2.421-4.845,4.4-7.649,4.4H16.351c-2.805,0-6.247-1.979-7.649-4.4L1.052,28.401
				c-1.402-2.421-1.402-6.381,0-8.802L8.701,6.4C10.104,3.979,13.546,2,16.351,2H31.649z"/>
			<path style="fill:#F16529;" d="M31.649,2c2.805,0,6.247,1.979,7.649,4.4l7.649,13.199c1.402,2.421,1.402,6.381,0,8.802
				L39.299,41.6c-1.402,2.421-4.845,4.4-7.649,4.4H16.351c-2.805,0-6.247-1.979-7.649-4.4L1.052,28.401
				c-1.402-2.421-1.402-6.381,0-8.802L8.701,6.4C10.104,3.979,13.546,2,16.351,2H31.649z"/>
		</g>
		<g>
			<polygon style="fill:#FFFFFF;enable-background:new    ;" points="16.42,11.698 17.701,11.698 17.701,13.057 19.101,13.057 
				19.101,9 17.701,9 17.701,10.34 16.42,10.34 16.42,9 15.02,9 15.02,13.057 16.42,13.057 			"/>
			<polygon style="fill:#FFFFFF;enable-background:new    ;" points="20.943,13.057 22.344,13.057 22.344,10.347 23.576,10.347 
				23.576,9 19.711,9 19.711,10.347 20.943,10.347 			"/>
			<polygon style="fill:#FFFFFF;enable-background:new    ;" points="25.56,11.047 26.524,12.489 26.548,12.489 27.511,11.047 
				27.511,13.057 28.907,13.057 28.907,9 27.446,9 26.548,10.428 25.65,9 24.19,9 24.19,13.057 25.56,13.057 			"/>
			<polygon style="fill:#FFFFFF;enable-background:new    ;" points="32.972,11.717 31.003,11.717 31.003,9 29.603,9 29.603,13.057 
				32.972,13.057 			"/>
			<path style="fill:#FFFFFF;enable-background:new    ;" d="M13,14.837l2.004,21.747L23.996,39l8.999-2.414L35,14.837H13z
				 M30.654,21.948H24h-3.89l0.252,2.731H24h6.404l-0.755,8.191L24,34.386l-0.004,0.001l-5.645-1.516l-0.393-4.284h2.766
				l0.204,2.222l3.069,0.804L24,31.611l0,0l3.073-0.804l0.321-3.459H24l0,0h-6.158L17.1,19.282H24h6.902L30.654,21.948z"/>
		</g>
	</g>
</g>
<g id="Layer_1">
</g>
</svg>
