<?xml version="1.0" encoding="iso-8859-1"?>
<!-- Generator: Adobe Illustrator 18.0.0, SVG Export Plug-In . SVG Version: 6.00 Build 0)  -->
<!DOCTYPE svg PUBLIC "-//W3C//DTD SVG 1.1//EN" "http://www.w3.org/Graphics/SVG/1.1/DTD/svg11.dtd">
<svg version="1.1" xmlns="http://www.w3.org/2000/svg" xmlns:xlink="http://www.w3.org/1999/xlink" x="0px" y="0px"
	 viewBox="0 0 48 48" style="enable-background:new 0 0 48 48;" xml:space="preserve">
<g id="Layer_629">
	<g>
		<g>
			<path style="fill:#54675A;" d="M31.649,2c2.805,0,6.246,1.979,7.648,4.4l7.65,13.199c1.402,2.421,1.402,6.381,0,8.802
				L39.298,41.6c-1.402,2.421-4.844,4.4-7.648,4.4H16.351c-2.805,0-6.248-1.979-7.65-4.4L1.052,28.401
				c-1.402-2.421-1.402-6.381,0-8.802L8.7,6.4c1.402-2.421,4.846-4.4,7.65-4.4H31.649z"/>
			<path style="fill:#54675A;" d="M31.649,2c2.805,0,6.246,1.979,7.648,4.4l7.65,13.199c1.402,2.421,1.402,6.381,0,8.802
				L39.298,41.6c-1.402,2.421-4.844,4.4-7.648,4.4H16.351c-2.805,0-6.248-1.979-7.65-4.4L1.052,28.401
				c-1.402-2.421-1.402-6.381,0-8.802L8.7,6.4c1.402-2.421,4.846-4.4,7.65-4.4H31.649z"/>
		</g>
		<g>
			<path style="fill:#FFFFFF;" d="M23.653,28.435l-3.783-7.882c6.791-2.002,12.463,2.092,12.463,2.092l-4.675,1.294l-1.346-2.565
				c-1.268-0.238-2.711-0.315-4.245-0.05l3.183,6.634L39,23.897c0,0-4.986-8.034-19.86-5.44c-0.088,0.016-0.165,0.038-0.251,0.052
				L17.444,15.5l-4.28,0.501l1.746,3.66C5.884,23.484,9.883,32.5,9.883,32.5L23.653,28.435z M16.144,22.248l2.054,4.314
				l-4.588,1.268C13.609,27.83,12.282,24.824,16.144,22.248z"/>
		</g>
	</g>
</g>
<g id="Layer_1">
</g>
</svg>
