<?xml version="1.0" encoding="iso-8859-1"?>
<!-- Generator: Adobe Illustrator 18.0.0, SVG Export Plug-In . SVG Version: 6.00 Build 0)  -->
<!DOCTYPE svg PUBLIC "-//W3C//DTD SVG 1.1//EN" "http://www.w3.org/Graphics/SVG/1.1/DTD/svg11.dtd">
<svg version="1.1" xmlns="http://www.w3.org/2000/svg" xmlns:xlink="http://www.w3.org/1999/xlink" x="0px" y="0px"
	 viewBox="0 0 48 48" style="enable-background:new 0 0 48 48;" xml:space="preserve">
<g id="Layer_582">
	<g>
		<g>
			<path style="fill:#F08421;" d="M31.649,2c2.805,0,6.246,1.979,7.648,4.4l7.65,13.199c1.402,2.421,1.402,6.381,0,8.802
				L39.298,41.6c-1.402,2.421-4.844,4.4-7.648,4.4H16.351c-2.805,0-6.248-1.979-7.65-4.4L1.052,28.401
				c-1.402-2.421-1.402-6.381,0-8.802L8.7,6.4c1.402-2.421,4.846-4.4,7.65-4.4H31.649z"/>
			<path style="fill:#F08421;" d="M31.649,2c2.805,0,6.246,1.979,7.648,4.4l7.65,13.199c1.402,2.421,1.402,6.381,0,8.802
				L39.298,41.6c-1.402,2.421-4.844,4.4-7.648,4.4H16.351c-2.805,0-6.248-1.979-7.65-4.4L1.052,28.401
				c-1.402-2.421-1.402-6.381,0-8.802L8.7,6.4c1.402-2.421,4.846-4.4,7.65-4.4H31.649z"/>
		</g>
		<g>
			<ellipse style="fill:#FFFFFF;" cx="12.998" cy="34.666" rx="4" ry="3.982"/>
			<path style="fill:#FFFFFF;" d="M23.03,38.676h5.773c0-10.918-8.881-19.799-19.797-19.799v5.75c3.745,0,7.267,1.457,9.914,4.109
				C21.57,31.387,23.03,34.918,23.03,38.676z"/>
			<path style="fill:#FFFFFF;" d="M33.229,38.684H39c0-16.543-13.452-30-29.984-30v5.75C22.366,14.434,33.229,25.312,33.229,38.684z
				"/>
		</g>
	</g>
</g>
<g id="Layer_1">
</g>
</svg>
