<?xml version="1.0" encoding="iso-8859-1"?>
<!-- Generator: Adobe Illustrator 18.0.0, SVG Export Plug-In . SVG Version: 6.00 Build 0)  -->
<!DOCTYPE svg PUBLIC "-//W3C//DTD SVG 1.1//EN" "http://www.w3.org/Graphics/SVG/1.1/DTD/svg11.dtd">
<svg version="1.1" xmlns="http://www.w3.org/2000/svg" xmlns:xlink="http://www.w3.org/1999/xlink" x="0px" y="0px"
	 viewBox="0 0 48 48" style="enable-background:new 0 0 48 48;" xml:space="preserve">
<g id="Layer_90">
</g>
<g id="Layer_89">
</g>
<g id="Layer_88">
</g>
<g id="Layer_87">
</g>
<g id="Layer_86">
</g>
<g id="Layer_85">
</g>
<g id="Layer_84">
</g>
<g id="Layer_83">
</g>
<g id="Layer_82">
</g>
<g id="Layer_81">
</g>
<g id="Layer_80">
</g>
<g id="Layer_79">
</g>
<g id="Layer_78">
</g>
<g id="Layer_77">
</g>
<g id="Layer_76">
</g>
<g id="Layer_75">
</g>
<g id="Layer_74">
</g>
<g id="Layer_73">
</g>
<g id="Layer_72">
</g>
<g id="Layer_71">
</g>
<g id="Layer_70">
</g>
<g id="Layer_69">
</g>
<g id="Layer_68">
</g>
<g id="Layer_67">
</g>
<g id="Layer_66">
</g>
<g id="Layer_65">
</g>
<g id="Layer_64">
</g>
<g id="Layer_63">
</g>
<g id="Layer_62">
</g>
<g id="Layer_61">
</g>
<g id="Layer_60">
</g>
<g id="Layer_59">
</g>
<g id="Layer_58">
</g>
<g id="Layer_57">
</g>
<g id="Layer_56">
</g>
<g id="Layer_55">
</g>
<g id="Layer_54">
</g>
<g id="Layer_53">
</g>
<g id="Layer_52">
</g>
<g id="Layer_51">
</g>
<g id="Layer_50">
</g>
<g id="Layer_49">
</g>
<g id="Layer_48">
</g>
<g id="Layer_47">
</g>
<g id="Layer_46">
</g>
<g id="Layer_45">
</g>
<g id="Layer_44">
</g>
<g id="Layer_43">
</g>
<g id="Layer_42">
</g>
<g id="Layer_41">
</g>
<g id="Layer_40">
</g>
<g id="Layer_39">
</g>
<g id="Layer_38">
</g>
<g id="Layer_37">
</g>
<g id="Layer_36">
</g>
<g id="Layer_35">
</g>
<g id="Layer_34">
</g>
<g id="Layer_33">
</g>
<g id="Layer_32">
</g>
<g id="Layer_31">
</g>
<g id="Layer_30">
</g>
<g id="Layer_29">
</g>
<g id="Layer_28">
</g>
<g id="Layer_27">
</g>
<g id="Layer_26">
</g>
<g id="Layer_25">
</g>
<g id="Layer_24">
</g>
<g id="Layer_23">
</g>
<g id="Layer_22">
</g>
<g id="Layer_21">
</g>
<g id="Layer_20">
</g>
<g id="Layer_19">
</g>
<g id="Layer_18">
</g>
<g id="Layer_17">
</g>
<g id="Layer_16">
</g>
<g id="Layer_15">
</g>
<g id="Layer_14">
</g>
<g id="Layer_13">
</g>
<g id="Layer_12">
</g>
<g id="Layer_11">
</g>
<g id="Layer_10">
</g>
<g id="Layer_9">
</g>
<g id="Layer_8">
</g>
<g id="Layer_7">
</g>
<g id="Layer_6">
</g>
<g id="Layer_5">
	<g>
		<g>
			<path style="fill:#2E2E2E;" d="M31.649,2c2.805,0,6.246,1.979,7.648,4.4l7.65,13.199c1.402,2.421,1.402,6.381,0,8.802l-7.65,13.2
				c-1.402,2.421-4.844,4.4-7.648,4.4H16.35c-2.805,0-6.248-1.979-7.65-4.4l-7.648-13.2c-1.402-2.421-1.402-6.381,0-8.802L8.7,6.4
				C10.102,3.979,13.546,2,16.35,2H31.649z"/>
			<path style="fill:#2E2E2E;" d="M31.649,2c2.805,0,6.246,1.979,7.648,4.4l7.65,13.199c1.402,2.421,1.402,6.381,0,8.802l-7.65,13.2
				c-1.402,2.421-4.844,4.4-7.648,4.4H16.35c-2.805,0-6.248-1.979-7.65-4.4l-7.648-13.2c-1.402-2.421-1.402-6.381,0-8.802L8.7,6.4
				C10.102,3.979,13.546,2,16.35,2H31.649z"/>
		</g>
		<g id="g24732_3_" transform="matrix(2.3244229,0,0,2.3244229,-1572.0456,-1430.0838)">
			<path id="path24730_3_" style="fill:#FFFFFF;" d="M691.538,620.145c0,0.807-0.653,1.46-1.458,1.46s-1.458-0.654-1.458-1.46
				c0-0.807,0.653-1.46,1.458-1.46S691.538,619.338,691.538,620.145z"/>
			<path id="path24702_3_" style="fill:#FFFFFF;" d="M680.744,631.581c-0.008-0.021-0.013-0.527-0.012-1.104l0.003-1.072h0.578
				h0.573c-0.011-1.535,0.011-3.093,0-4.628l-0.626-0.004l-0.599-0.004l-0.021-1.102l-0.021-1.102h0.629h0.638v-0.656
				c0-1.537,0.916-2.466,2.501-2.864c0.972-0.199,1.498-0.139,2.488-0.117l0.021,1.181l0.021,1.181h-0.657
				c-1.014,0-1.31,0.246-1.312,0.956v0.319c2.221,0,4.387,0,6.608,0c0,2.275,0,4.566,0,6.841h1.104c0,0-0.003-0.007,0,0.153
				c0.017,0.85-0.008,1.006,0,2.023c-0.024,0.024-1.224-0.004-2.643,0h-2.579v-1.081v-1.095c0.374,0,0.749,0,1.123,0
				c0-1.546,0-3.09,0-4.635c-1.044,0.012-2.682,0.006-3.613,0c-0.071,1.753-0.041,2.543,0,4.635c0.418,0.016,0.836-0.014,1.254,0
				l0.021,1.109l0.021,1.067H683.5C681.992,631.581,680.752,631.601,680.744,631.581z"/>
		</g>
	</g>
</g>
<g id="Layer_4">
</g>
<g id="Layer_3">
</g>
<g id="Layer_2">
</g>
<g id="Layer_1">
</g>
<g id="nyt_x5F_exporter_x5F_info" style="display:none;">
</g>
</svg>
