<?xml version="1.0" encoding="iso-8859-1"?>
<!-- Generator: Adobe Illustrator 18.0.0, SVG Export Plug-In . SVG Version: 6.00 Build 0)  -->
<!DOCTYPE svg PUBLIC "-//W3C//DTD SVG 1.1//EN" "http://www.w3.org/Graphics/SVG/1.1/DTD/svg11.dtd">
<svg version="1.1" xmlns="http://www.w3.org/2000/svg" xmlns:xlink="http://www.w3.org/1999/xlink" x="0px" y="0px"
	 viewBox="0 0 48 48" style="enable-background:new 0 0 48 48;" xml:space="preserve">
<g id="Layer_608">
	<g>
		<g>
			<path style="fill:#343434;" d="M31.649,2c2.805,0,6.247,1.979,7.649,4.4l7.649,13.199c1.402,2.421,1.402,6.38,0,8.801
				L39.299,41.6c-1.402,2.421-4.845,4.4-7.649,4.4H16.351c-2.805,0-6.247-1.979-7.649-4.4L1.052,28.4
				c-1.402-2.421-1.402-6.38,0-8.801L8.701,6.4C10.104,3.979,13.546,2,16.351,2H31.649z"/>
			<path style="fill:#343434;" d="M31.649,2c2.805,0,6.247,1.979,7.649,4.4l7.649,13.199c1.402,2.421,1.402,6.38,0,8.801
				L39.299,41.6c-1.402,2.421-4.845,4.4-7.649,4.4H16.351c-2.805,0-6.247-1.979-7.649-4.4L1.052,28.4
				c-1.402-2.421-1.402-6.38,0-8.801L8.701,6.4C10.104,3.979,13.546,2,16.351,2H31.649z"/>
		</g>
		<g>
			<path style="fill:#FFFFFF;" d="M9.408,16.888c0.711,0.042,1.187,0.16,1.41,0.36c0.223,0.199,0.465,0.707,0.777,1.495
				c1.697,4.289,5.303,11.941,7.057,16.299c0.504,1.188,1.141,1.374,1.912-0.037c0.793-1.549,2.391-4.986,3.557-7.524
				c1.094,2.532,2.578,5.955,3.297,7.507c0.57,1.241,1.221,1.364,1.883,0.037c1.725-4.041,6.773-16.206,6.773-16.206
				c0.217-0.598,0.521-1.057,0.914-1.392c0.389-0.33,0.969-0.516,1.783-0.554c0.164,0,0.229-0.079,0.229-0.232v-0.571L38.978,16
				c0,0-4.656,0-6.201,0l-0.443,0.073v0.571c0,0.067,0.211,0.123,0.269,0.164c0.055,0.047,0.207,0.071,0.271,0.071l0.563,0.026
				c0.635,0.028,0.83,0.161,1.078,0.385c0.244,0.231,0.283,0.625,0.094,1.177l-5.48,13.713l-0.211-0.061l-3.482-7.505
				c0.051-0.113,0.08-0.176,0.08-0.176l2.852-5.615c0.332-0.592,0.652-1.122,0.816-1.368c0.297-0.451,0.443-0.535,1.254-0.575
				c0.164,0,0.228-0.078,0.228-0.236v-0.568l-0.041-0.061c0,0-3.408-0.012-4.961,0l0.002,0.06v0.568
				c0,0.068-0.039,0.124,0.016,0.166c0.059,0.047,0.082,0.069,0.147,0.069l0.232,0.028c0.635,0.028,0.918,0.202,1.004,0.313
				c0.152,0.196,0.223,0.406-0.142,1.248l-2.197,4.607l-1.982-4.273c-0.65-1.366-0.812-1.788,0.168-1.867l0.264-0.059
				c0.191,0,0.158-0.071,0.158-0.207v-0.596l-0.018-0.05c0,0-3.635,0-5.293,0.002L18,16.083v0.598c0,0.134,0.139,0.169,0.394,0.205
				c0.918,0.127,0.904,0.228,1.811,2.123c0.137,0.285,0.535,1.142,0.535,1.142l2.068,4.276c0,0,0.234,0.549,0.602,1.402
				l-3.004,6.314l-0.17-0.047c0,0-4.664-10.355-6.016-13.82c-0.143-0.356-0.203-0.624-0.203-0.789c0-0.352,0.301-0.543,0.904-0.568
				l0.916-0.032c0.189,0,0.496-0.075,0.496-0.232v-0.569l-0.275-0.058c0,0-5.715-0.006-6.869,0L9,16.087v0.6
				C9,16.793,9.15,16.86,9.408,16.888z"/>
		</g>
	</g>
</g>
<g id="Layer_1">
</g>
</svg>
