<?xml version="1.0" encoding="iso-8859-1"?>
<!-- Generator: Adobe Illustrator 18.0.0, SVG Export Plug-In . SVG Version: 6.00 Build 0)  -->
<!DOCTYPE svg PUBLIC "-//W3C//DTD SVG 1.1//EN" "http://www.w3.org/Graphics/SVG/1.1/DTD/svg11.dtd">
<svg version="1.1" xmlns="http://www.w3.org/2000/svg" xmlns:xlink="http://www.w3.org/1999/xlink" x="0px" y="0px"
	 viewBox="0 0 48 48" style="enable-background:new 0 0 48 48;" xml:space="preserve">
<g id="Layer_638">
	<g>
		<g>
			<path style="fill:#DA001C;" d="M31.649,2c2.805,0,6.247,1.979,7.649,4.4l7.649,13.199c1.402,2.421,1.402,6.381,0,8.802
				L39.299,41.6c-1.402,2.421-4.845,4.4-7.649,4.4H16.351c-2.805,0-6.247-1.979-7.649-4.4L1.052,28.401
				c-1.402-2.421-1.402-6.381,0-8.802L8.701,6.4C10.104,3.979,13.546,2,16.351,2H31.649z"/>
			<path style="fill:#DA001C;" d="M31.649,2c2.805,0,6.247,1.979,7.649,4.4l7.649,13.199c1.402,2.421,1.402,6.381,0,8.802
				L39.299,41.6c-1.402,2.421-4.845,4.4-7.649,4.4H16.351c-2.805,0-6.247-1.979-7.649-4.4L1.052,28.401
				c-1.402-2.421-1.402-6.381,0-8.802L8.701,6.4C10.104,3.979,13.546,2,16.351,2H31.649z"/>
		</g>
		<g>
			<path style="fill:#FFFFFF;" d="M32.75,30.176c-2.08-0.07-2.713-1.171-3.506-2.973c-1.342-3.053-2.869-6.619-2.883-6.653
				C24.828,17.022,21.789,15,18.023,15C13.047,15,9,19.038,9,24.001C9,28.962,13.047,33,18.023,33c2.713,0,5.256-1.2,6.977-3.293
				c0.051-0.061,0.063-0.143,0.031-0.215l-1.137-2.618c-0.033-0.073-0.105-0.122-0.185-0.125c-0.082-0.004-0.156,0.041-0.193,0.111
				c-1.072,2.047-3.178,3.318-5.492,3.318c-3.414,0-6.191-2.771-6.191-6.178s2.777-6.177,6.191-6.177
				c2.484,0,4.762,1.471,5.668,3.666l2.812,6.4l0.324,0.719c1.273,2.955,3.141,4.279,6.068,4.29c3.48,0,6.103-2.3,6.103-5.349
				c0-3.063-1.697-4.211-4.627-5.165c-0.264-0.086-0.518-0.166-0.762-0.243c-1.869-0.585-2.994-0.939-2.994-2.389
				c0-1.175,0.908-2.028,2.162-2.028c0.961,0,1.676,0.398,2.318,1.294c0.061,0.083,0.172,0.113,0.266,0.064l1.887-0.959
				c0.049-0.025,0.088-0.071,0.103-0.126c0.018-0.055,0.01-0.113-0.018-0.164c-1.01-1.788-2.465-2.658-4.451-2.658
				c-3.021,0-4.975,1.822-4.975,4.643c0,2.885,1.889,4.052,5.373,5.195c2.019,0.672,2.912,1.027,2.912,2.46
				C36.195,29.086,34.738,30.244,32.75,30.176z"/>
		</g>
	</g>
</g>
<g id="Layer_1">
</g>
</svg>
