<?xml version="1.0" encoding="iso-8859-1"?>
<!-- Generator: Adobe Illustrator 18.0.0, SVG Export Plug-In . SVG Version: 6.00 Build 0)  -->
<!DOCTYPE svg PUBLIC "-//W3C//DTD SVG 1.1//EN" "http://www.w3.org/Graphics/SVG/1.1/DTD/svg11.dtd">
<svg version="1.1" xmlns="http://www.w3.org/2000/svg" xmlns:xlink="http://www.w3.org/1999/xlink" x="0px" y="0px"
	 viewBox="0 0 48 48" style="enable-background:new 0 0 48 48;" xml:space="preserve">
<g id="Layer_611">
	<g>
		<g>
			<path style="fill:#0072C4;" d="M31.649,2c2.805,0,6.246,1.979,7.648,4.4l7.65,13.199c1.402,2.421,1.402,6.381,0,8.802
				L39.298,41.6c-1.402,2.421-4.844,4.4-7.648,4.4H16.351c-2.805,0-6.248-1.979-7.65-4.4L1.052,28.401
				c-1.402-2.421-1.402-6.381,0-8.802L8.7,6.4c1.402-2.421,4.846-4.4,7.65-4.4H31.649z"/>
			<path style="fill:#0072C4;" d="M31.649,2c2.805,0,6.246,1.979,7.648,4.4l7.65,13.199c1.402,2.421,1.402,6.381,0,8.802
				L39.298,41.6c-1.402,2.421-4.844,4.4-7.648,4.4H16.351c-2.805,0-6.248-1.979-7.65-4.4L1.052,28.401
				c-1.402-2.421-1.402-6.381,0-8.802L8.7,6.4c1.402-2.421,4.846-4.4,7.65-4.4H31.649z"/>
		</g>
		<g>
			<path style="fill:#FFFFFF;" d="M10,33.031C10,36.318,16.29,39,24,39c7.713,0,14-2.682,14-5.969c0-1.697-1.685-3.226-4.365-4.314
				c0.083-0.449,0.142-0.896,0.144-1.348c0.024-5.639-3.043-7.84-6.289-9.717c0.94,4.937-2.099,7.988-5.876,6.92
				c5.52-9.029-2.513-9.051-0.059-15.572c-3.775,2.68-7.562,10.187-7.551,15.664c0.002,1.447,0.149,2.793,0.418,4.023
				C11.705,29.777,10,31.32,10,33.031z M18.642,21.549c-1.045,4.707,1.755,8.215,4.45,8.25c3.043,0.021,4.846-2.818,5.704-6.543
				c1.615,1.23,2.449,2.951,2.558,4.705c-0.004-0.002-0.008-0.002-0.012-0.004c0.123,1.986-0.689,4.016-2.376,5.434
				c-0.007,0.008-0.017,0.016-0.026,0.023c-0.361,0.303-0.765,0.576-1.207,0.814c-0.039,0.021-0.082,0.041-0.121,0.063
				c-0.177,0.092-0.359,0.178-0.55,0.258c-0.055,0.023-0.107,0.047-0.164,0.07c-0.463,0.186-0.961,0.336-1.495,0.449
				c-0.074,0.014-0.151,0.027-0.226,0.041c-0.201,0.037-0.407,0.068-0.618,0.094c-0.083,0.012-0.165,0.021-0.248,0.029
				c-0.287,0.029-0.579,0.051-0.882,0.055c-0.213,0.004-0.422-0.004-0.63-0.018c-0.055-0.002-0.108-0.008-0.163-0.014
				c-0.176-0.016-0.351-0.037-0.522-0.066c-0.034-0.006-0.066-0.01-0.099-0.016c-0.208-0.037-0.413-0.082-0.615-0.139
				c-0.024-0.008-0.05-0.016-0.073-0.021c-0.188-0.053-0.375-0.115-0.558-0.186c-0.02-0.006-0.038-0.014-0.058-0.02
				c-2.501-0.984-4.319-3.42-4.223-6.807c-0.005,0-0.008,0.002-0.014,0.004C16.531,26.119,17.177,23.939,18.642,21.549z"/>
		</g>
	</g>
</g>
<g id="Layer_1">
</g>
</svg>
