<?xml version="1.0" encoding="iso-8859-1"?>
<!-- Generator: Adobe Illustrator 18.0.0, SVG Export Plug-In . SVG Version: 6.00 Build 0)  -->
<!DOCTYPE svg PUBLIC "-//W3C//DTD SVG 1.1//EN" "http://www.w3.org/Graphics/SVG/1.1/DTD/svg11.dtd">
<svg version="1.1" xmlns="http://www.w3.org/2000/svg" xmlns:xlink="http://www.w3.org/1999/xlink" x="0px" y="0px"
	 viewBox="0 0 48 48" style="enable-background:new 0 0 48 48;" xml:space="preserve">
<g id="Layer_636">
	<g>
		<g>
			<path style="fill:#7C0097;" d="M31.649,2c2.805,0,6.247,1.979,7.649,4.4l7.649,13.199c1.402,2.421,1.402,6.381,0,8.802
				L39.299,41.6c-1.402,2.421-4.845,4.4-7.649,4.4H16.351c-2.805,0-6.247-1.979-7.649-4.4L1.052,28.401
				c-1.402-2.421-1.402-6.381,0-8.802L8.701,6.4C10.104,3.979,13.546,2,16.351,2H31.649z"/>
			<path style="fill:#7C0097;" d="M31.649,2c2.805,0,6.247,1.979,7.649,4.4l7.649,13.199c1.402,2.421,1.402,6.381,0,8.802
				L39.299,41.6c-1.402,2.421-4.845,4.4-7.649,4.4H16.351c-2.805,0-6.247-1.979-7.649-4.4L1.052,28.401
				c-1.402-2.421-1.402-6.381,0-8.802L8.701,6.4C10.104,3.979,13.546,2,16.351,2H31.649z"/>
		</g>
		<g>
			<path style="fill:#FFFFFF;" d="M20.633,26.172c0.1,0.689,0.188,4.755-0.1,5.064c-0.578,0.614-3.217,0.451-3.855,0.496
				l-0.219,1.26c1.162,0.035,4.945-0.094,6.121-0.094c2.318,0,6.379-0.011,6.953,0.032l0.07-1.321
				c-0.586-0.099-3.783-0.012-4.225-0.113c-0.098-0.64-0.205-4.921-0.108-5.364c0.441-1.278,7.158-6.485,7.895-6.685
				c0.166-0.032,0.412-0.088,0.691-0.149h2.164l0.338-0.499c0.006-0.004,0.02-0.005,0.025-0.005l0.838-1.214
				c-0.012,0-0.031-0.003-0.041-0.003l0.088-0.131H25.543l0.451,1.852h3.201l-5.385,4.879c-1.1-1.523-3.676-4.697-5.473-7.323h4.031
				v-1.41l0.047-0.311c-0.012-0.003-0.035-0.006-0.047-0.006V15H9v1.853h3.965C14.504,18.06,20.389,25.437,20.633,26.172z"/>
			<path style="fill:#FFFFFF;" d="M35.062,21.202l0.049,8.363l1.797,0.144L39,21.596C38.65,21.584,35.475,21.282,35.062,21.202z"/>
			<polygon style="fill:#FFFFFF;" points="36.703,33 36.99,31.06 35.955,31.009 34.801,30.866 34.811,32.847 35.721,32.926 			"/>
		</g>
	</g>
</g>
<g id="Layer_1">
</g>
</svg>
