<?xml version="1.0" encoding="iso-8859-1"?>
<!-- Generator: Adobe Illustrator 18.0.0, SVG Export Plug-In . SVG Version: 6.00 Build 0)  -->
<!DOCTYPE svg PUBLIC "-//W3C//DTD SVG 1.1//EN" "http://www.w3.org/Graphics/SVG/1.1/DTD/svg11.dtd">
<svg version="1.1" xmlns="http://www.w3.org/2000/svg" xmlns:xlink="http://www.w3.org/1999/xlink" x="0px" y="0px"
	 viewBox="0 0 48 48" style="enable-background:new 0 0 48 48;" xml:space="preserve">
<g id="Layer_90">
</g>
<g id="Layer_89">
</g>
<g id="Layer_88">
</g>
<g id="Layer_87">
</g>
<g id="Layer_86">
</g>
<g id="Layer_85">
</g>
<g id="Layer_84">
</g>
<g id="Layer_83">
</g>
<g id="Layer_82">
</g>
<g id="Layer_81">
</g>
<g id="Layer_80">
</g>
<g id="Layer_79">
</g>
<g id="Layer_78">
</g>
<g id="Layer_77">
</g>
<g id="Layer_76">
</g>
<g id="Layer_75">
</g>
<g id="Layer_74">
</g>
<g id="Layer_73">
</g>
<g id="Layer_72">
</g>
<g id="Layer_71">
</g>
<g id="Layer_70">
</g>
<g id="Layer_69">
</g>
<g id="Layer_68">
</g>
<g id="Layer_67">
</g>
<g id="Layer_66">
</g>
<g id="Layer_65">
</g>
<g id="Layer_64">
</g>
<g id="Layer_63">
</g>
<g id="Layer_62">
</g>
<g id="Layer_61">
</g>
<g id="Layer_60">
</g>
<g id="Layer_59">
</g>
<g id="Layer_58">
</g>
<g id="Layer_57">
</g>
<g id="Layer_56">
</g>
<g id="Layer_55">
</g>
<g id="Layer_54">
</g>
<g id="Layer_53">
</g>
<g id="Layer_52">
</g>
<g id="Layer_51">
</g>
<g id="Layer_50">
</g>
<g id="Layer_49">
</g>
<g id="Layer_48">
</g>
<g id="Layer_47">
</g>
<g id="Layer_46">
</g>
<g id="Layer_45">
</g>
<g id="Layer_44">
</g>
<g id="Layer_43">
</g>
<g id="Layer_42">
</g>
<g id="Layer_41">
</g>
<g id="Layer_40">
</g>
<g id="Layer_39">
</g>
<g id="Layer_38">
</g>
<g id="Layer_37">
</g>
<g id="Layer_36">
</g>
<g id="Layer_35">
</g>
<g id="Layer_34">
</g>
<g id="Layer_33">
</g>
<g id="Layer_32">
</g>
<g id="Layer_31">
</g>
<g id="Layer_30">
</g>
<g id="Layer_29">
</g>
<g id="Layer_28">
</g>
<g id="Layer_27">
</g>
<g id="Layer_26">
</g>
<g id="Layer_25">
</g>
<g id="Layer_24">
</g>
<g id="Layer_23">
</g>
<g id="Layer_22">
</g>
<g id="Layer_21">
</g>
<g id="Layer_20">
</g>
<g id="Layer_19">
</g>
<g id="Layer_18">
</g>
<g id="Layer_17">
</g>
<g id="Layer_16">
</g>
<g id="Layer_15">
</g>
<g id="Layer_14">
</g>
<g id="Layer_13">
</g>
<g id="Layer_12">
</g>
<g id="Layer_11">
</g>
<g id="Layer_10">
</g>
<g id="Layer_9">
</g>
<g id="Layer_8">
</g>
<g id="Layer_7">
	<g>
		<g>
			<path style="fill:#3E5EA1;" d="M31.649,2c2.805,0,6.246,1.979,7.648,4.4l7.65,13.2c1.402,2.421,1.402,6.381,0,8.801l-7.65,13.2
				c-1.402,2.421-4.844,4.4-7.648,4.4H16.35c-2.805,0-6.248-1.979-7.65-4.4l-7.648-13.2c-1.402-2.421-1.402-6.381,0-8.801L8.7,6.4
				C10.102,3.979,13.546,2,16.35,2H31.649z"/>
			<path style="fill:#3E5EA1;" d="M31.649,2c2.805,0,6.246,1.979,7.648,4.4l7.65,13.2c1.402,2.421,1.402,6.381,0,8.801l-7.65,13.2
				c-1.402,2.421-4.844,4.4-7.648,4.4H16.35c-2.805,0-6.248-1.979-7.65-4.4l-7.648-13.2c-1.402-2.421-1.402-6.381,0-8.801L8.7,6.4
				C10.102,3.979,13.546,2,16.35,2H31.649z"/>
		</g>
		<path id="Photobucket_3_" style="fill:#FFFFFF;" d="M37.636,14.375h-8.361C27.713,13.5,25.915,13,24,13
			c-1.915,0-3.713,0.5-5.276,1.375h-2.906c0-0.756-0.614-1.375-1.364-1.375h-2.728c-0.749,0-1.363,0.618-1.363,1.375l0,0
			C9.614,14.375,9,14.994,9,15.75V32.25c0,0.755,0.614,1.375,1.364,1.375h8.36C20.287,34.499,22.085,35,24,35
			c1.915,0,3.713-0.501,5.276-1.375h8.361c0.75,0,1.364-0.619,1.364-1.375v-16.5C39,14.994,38.386,14.375,37.636,14.375
			L37.636,14.375z M10.364,32.25V15.75h1.363h2.728h2.347c-2.269,2.016-3.71,4.96-3.71,8.25s1.441,6.235,3.71,8.25H10.364z
			 M28.898,32.25c-0.703,0.425-1.465,0.763-2.269,0.996c-0.048,0.014-0.096,0.024-0.143,0.038c-0.326,0.09-0.661,0.159-1.001,0.212
			c-0.093,0.016-0.186,0.032-0.281,0.044c-0.394,0.051-0.795,0.085-1.203,0.085c-0.409,0-0.81-0.034-1.204-0.085
			c-0.094-0.012-0.188-0.028-0.281-0.044c-0.34-0.054-0.675-0.122-1.001-0.212c-0.047-0.014-0.095-0.024-0.143-0.038
			c-0.804-0.233-1.566-0.571-2.269-0.996c-2.78-1.682-4.647-4.743-4.647-8.25s1.867-6.569,4.648-8.25
			c0.703-0.425,1.465-0.763,2.269-0.996c0.048-0.014,0.096-0.024,0.143-0.038c0.326-0.089,0.66-0.159,1-0.212
			c0.094-0.016,0.189-0.032,0.284-0.044c0.394-0.051,0.795-0.085,1.202-0.085c0.407,0,0.809,0.034,1.202,0.085
			c0.095,0.012,0.189,0.028,0.284,0.044c0.34,0.053,0.674,0.123,1,0.212c0.047,0.013,0.094,0.024,0.143,0.038
			c0.804,0.233,1.566,0.571,2.269,0.996c2.78,1.682,4.648,4.743,4.648,8.25S31.678,30.569,28.898,32.25L28.898,32.25z M37.636,32.25
			h-6.437c2.269-2.016,3.71-4.961,3.71-8.25s-1.441-6.235-3.71-8.25h6.438L37.636,32.25L37.636,32.25z M31.501,24h-1.154
			c0-3.529-2.847-6.4-6.347-6.4v-1.164C28.136,16.436,31.501,19.83,31.501,24z"/>
	</g>
</g>
<g id="Layer_6">
</g>
<g id="Layer_5">
</g>
<g id="Layer_4">
</g>
<g id="Layer_3">
</g>
<g id="Layer_2">
</g>
<g id="Layer_1">
</g>
<g id="nyt_x5F_exporter_x5F_info" style="display:none;">
</g>
</svg>
