<?xml version="1.0" encoding="iso-8859-1"?>
<!-- Generator: Adobe Illustrator 18.0.0, SVG Export Plug-In . SVG Version: 6.00 Build 0)  -->
<!DOCTYPE svg PUBLIC "-//W3C//DTD SVG 1.1//EN" "http://www.w3.org/Graphics/SVG/1.1/DTD/svg11.dtd">
<svg version="1.1" xmlns="http://www.w3.org/2000/svg" xmlns:xlink="http://www.w3.org/1999/xlink" x="0px" y="0px"
	 viewBox="0 0 48 48" style="enable-background:new 0 0 48 48;" xml:space="preserve">
<g id="Layer_593">
	<g>
		<g>
			<path style="fill:#D20C0C;" d="M31.649,2c2.805,0,6.247,1.979,7.649,4.4l7.649,13.199c1.402,2.421,1.402,6.381,0,8.802
				L39.299,41.6c-1.402,2.421-4.845,4.4-7.649,4.4H16.351c-2.805,0-6.247-1.979-7.649-4.4L1.052,28.401
				c-1.402-2.421-1.402-6.381,0-8.802L8.701,6.4C10.104,3.979,13.546,2,16.351,2H31.649z"/>
			<path style="fill:#D20C0C;" d="M31.649,2c2.805,0,6.247,1.979,7.649,4.4l7.649,13.199c1.402,2.421,1.402,6.381,0,8.802
				L39.299,41.6c-1.402,2.421-4.845,4.4-7.649,4.4H16.351c-2.805,0-6.247-1.979-7.649-4.4L1.052,28.401
				c-1.402-2.421-1.402-6.381,0-8.802L8.701,6.4C10.104,3.979,13.546,2,16.351,2H31.649z"/>
		</g>
		<g>
			<path style="fill:#FFFFFF;" d="M26.003,22.252c0.558,0,0.836,0.036,1.046,0.107l0.313,0.071l0.244-0.249l0.767-0.818L29,20.686
				l-0.906-0.249c-0.453-0.143-0.871-0.285-1.985-0.214c-1.952,0.071-3.728,1.281-4.042,2.707c-0.244,1.14,0.069,1.922,1.289,3.312
				c1.289,1.387,1.602,1.994,1.429,2.812c-0.104,0.534-0.976,1.211-1.986,1.353c-0.523,0.071-0.872,0.071-1.186,0l-0.348-0.108
				l-0.209,0.285l-0.836,1.033l-0.593,0.712l0.906,0.215c0.558,0.142,1.393,0.142,2.3-0.036c2.019-0.32,4.425-1.816,4.843-3.668
				c0.384-1.71-0.313-2.777-1.777-4.272c-1.149-1.176-1.08-1.461-1.011-1.675C24.923,22.644,25.376,22.288,26.003,22.252z"/>
			<polygon style="fill:#FFFFFF;" points="37.361,19.546 35.726,19.831 35.551,19.831 35.41,19.973 33.391,22.217 35.69,11.142 
				32.764,11 28.616,30.585 28.442,31.404 29.244,31.297 31.02,31.012 31.404,30.976 31.51,30.585 32.137,27.737 32.832,30.264 
				32.972,30.763 33.459,30.692 35.307,30.407 35.969,30.335 34.227,24.532 39,19.261 			"/>
			<path style="fill:#FFFFFF;" d="M18.721,15.166l-1.916,0.32L9,35l1.011-0.213l1.637-0.285l0.314-0.072l0.104-0.284l1.254-3.275
				l2.438-0.356v2.564l-0.034,0.676l0.661-0.107l1.917-0.32l0.488-0.071l-0.035-0.499L18.721,15.166z M15.69,27.914l-1.604,0.214
				l1.986-5.983L15.69,27.914z"/>
		</g>
	</g>
</g>
<g id="Layer_1">
</g>
</svg>
