<?xml version="1.0" encoding="iso-8859-1"?>
<!-- Generator: Adobe Illustrator 18.0.0, SVG Export Plug-In . SVG Version: 6.00 Build 0)  -->
<!DOCTYPE svg PUBLIC "-//W3C//DTD SVG 1.1//EN" "http://www.w3.org/Graphics/SVG/1.1/DTD/svg11.dtd">
<svg version="1.1" xmlns="http://www.w3.org/2000/svg" xmlns:xlink="http://www.w3.org/1999/xlink" x="0px" y="0px"
	 viewBox="0 0 48 48" style="enable-background:new 0 0 48 48;" xml:space="preserve">
<g id="Layer_90">
</g>
<g id="Layer_89">
</g>
<g id="Layer_88">
</g>
<g id="Layer_87">
</g>
<g id="Layer_86">
</g>
<g id="Layer_85">
</g>
<g id="Layer_84">
</g>
<g id="Layer_83">
</g>
<g id="Layer_82">
</g>
<g id="Layer_81">
</g>
<g id="Layer_80">
</g>
<g id="Layer_79">
</g>
<g id="Layer_78">
</g>
<g id="Layer_77">
</g>
<g id="Layer_76">
</g>
<g id="Layer_75">
</g>
<g id="Layer_74">
</g>
<g id="Layer_73">
</g>
<g id="Layer_72">
</g>
<g id="Layer_71">
</g>
<g id="Layer_70">
</g>
<g id="Layer_69">
</g>
<g id="Layer_68">
</g>
<g id="Layer_67">
</g>
<g id="Layer_66">
</g>
<g id="Layer_65">
</g>
<g id="Layer_64">
</g>
<g id="Layer_63">
</g>
<g id="Layer_62">
</g>
<g id="Layer_61">
</g>
<g id="Layer_60">
</g>
<g id="Layer_59">
</g>
<g id="Layer_58">
</g>
<g id="Layer_57">
</g>
<g id="Layer_56">
</g>
<g id="Layer_55">
</g>
<g id="Layer_54">
</g>
<g id="Layer_53">
</g>
<g id="Layer_52">
</g>
<g id="Layer_51">
</g>
<g id="Layer_50">
</g>
<g id="Layer_49">
</g>
<g id="Layer_48">
</g>
<g id="Layer_47">
</g>
<g id="Layer_46">
</g>
<g id="Layer_45">
</g>
<g id="Layer_44">
</g>
<g id="Layer_43">
</g>
<g id="Layer_42">
</g>
<g id="Layer_41">
</g>
<g id="Layer_40">
</g>
<g id="Layer_39">
</g>
<g id="Layer_38">
</g>
<g id="Layer_37">
</g>
<g id="Layer_36">
</g>
<g id="Layer_35">
</g>
<g id="Layer_34">
</g>
<g id="Layer_33">
</g>
<g id="Layer_32">
</g>
<g id="Layer_31">
</g>
<g id="Layer_30">
</g>
<g id="Layer_29">
</g>
<g id="Layer_28">
</g>
<g id="Layer_27">
</g>
<g id="Layer_26">
</g>
<g id="Layer_25">
</g>
<g id="Layer_24">
</g>
<g id="Layer_23">
</g>
<g id="Layer_22">
</g>
<g id="Layer_21">
</g>
<g id="Layer_20">
</g>
<g id="Layer_19">
</g>
<g id="Layer_18">
</g>
<g id="Layer_17">
</g>
<g id="Layer_16">
</g>
<g id="Layer_15">
</g>
<g id="Layer_14">
</g>
<g id="Layer_13">
</g>
<g id="Layer_12">
</g>
<g id="Layer_11">
</g>
<g id="Layer_10">
</g>
<g id="Layer_9">
	<g>
		<g>
			<path style="fill:#EB4755;" d="M31.649,2c2.805,0,6.246,1.979,7.648,4.4l7.65,13.199c1.402,2.421,1.402,6.381,0,8.802l-7.65,13.2
				c-1.402,2.421-4.844,4.4-7.648,4.4H16.351c-2.805,0-6.248-1.979-7.65-4.4l-7.648-13.2c-1.402-2.421-1.402-6.381,0-8.802L8.7,6.4
				c1.402-2.421,4.846-4.4,7.65-4.4H31.649z"/>
			<path style="fill:#EB4755;" d="M31.649,2c2.805,0,6.246,1.979,7.648,4.4l7.65,13.199c1.402,2.421,1.402,6.381,0,8.802l-7.65,13.2
				c-1.402,2.421-4.844,4.4-7.648,4.4H16.351c-2.805,0-6.248-1.979-7.65-4.4l-7.648-13.2c-1.402-2.421-1.402-6.381,0-8.802L8.7,6.4
				c1.402-2.421,4.846-4.4,7.65-4.4H31.649z"/>
		</g>
		<path id="path9-6_3_" style="fill:#FFFFFF;" d="M35.063,11H12.937C10.763,11,9,12.786,9,14.988v11.048
			c0,0.205,0.015,0.406,0.045,0.603C9.015,26.934,9,27.231,9,27.531C9,33.864,15.715,39,24,39c8.284,0,15-5.136,15-11.469
			c0-0.3-0.016-0.598-0.046-0.892C38.984,26.443,39,26.241,39,26.036V14.988C39,12.785,37.235,11,35.063,11L35.063,11z
			 M33.199,22.107l-7.748,7.787c-0.393,0.396-0.911,0.59-1.427,0.586c-0.532,0.018-1.069-0.177-1.477-0.586l-7.746-7.787
			c-0.778-0.782-0.776-2.05,0-2.831c0.777-0.782,2.037-0.783,2.816,0L24,25.691l6.382-6.415c0.776-0.782,2.04-0.78,2.816,0
			C33.977,20.058,33.977,21.323,33.199,22.107L33.199,22.107z"/>
	</g>
</g>
<g id="Layer_8">
</g>
<g id="Layer_7">
</g>
<g id="Layer_6">
</g>
<g id="Layer_5">
</g>
<g id="Layer_4">
</g>
<g id="Layer_3">
</g>
<g id="Layer_2">
</g>
<g id="Layer_1">
</g>
<g id="nyt_x5F_exporter_x5F_info" style="display:none;">
</g>
</svg>
