<?xml version="1.0" encoding="iso-8859-1"?>
<!-- Generator: Adobe Illustrator 18.0.0, SVG Export Plug-In . SVG Version: 6.00 Build 0)  -->
<!DOCTYPE svg PUBLIC "-//W3C//DTD SVG 1.1//EN" "http://www.w3.org/Graphics/SVG/1.1/DTD/svg11.dtd">
<svg version="1.1" xmlns="http://www.w3.org/2000/svg" xmlns:xlink="http://www.w3.org/1999/xlink" x="0px" y="0px"
	 viewBox="0 0 48 48" style="enable-background:new 0 0 48 48;" xml:space="preserve">
<g id="Layer_596">
	<g>
		<g>
			<path style="fill:#F2D040;" d="M31.649,2c2.805,0,6.247,1.979,7.649,4.4l7.649,13.199c1.402,2.421,1.402,6.381,0,8.802
				L39.299,41.6c-1.402,2.421-4.845,4.4-7.649,4.4H16.351c-2.805,0-6.247-1.979-7.649-4.4L1.052,28.401
				c-1.402-2.421-1.402-6.381,0-8.802L8.701,6.4C10.104,3.979,13.546,2,16.351,2H31.649z"/>
			<path style="fill:#F2D040;" d="M31.649,2c2.805,0,6.247,1.979,7.649,4.4l7.649,13.199c1.402,2.421,1.402,6.381,0,8.802
				L39.299,41.6c-1.402,2.421-4.845,4.4-7.649,4.4H16.351c-2.805,0-6.247-1.979-7.649-4.4L1.052,28.401
				c-1.402-2.421-1.402-6.381,0-8.802L8.701,6.4C10.104,3.979,13.546,2,16.351,2H31.649z"/>
		</g>
		<g>
			<path style="fill:#FFFFFF;" d="M34.617,24.081c0,0-0.977-1.838-2.215-3.74c-2.018,1.831-4.107,1.523-4.996,1.328
				c-1.172-0.258-1.49-0.758-1.395-1.199c-0.682-0.217-3.082-1.646-4.531-2.123c-2.789,1.713-3.908,5.99-3.775,10.342
				c-1.871,3.585-3.264,4.793-7.086,5.682c0.717,1.7,1.008,2.338,2.074,4.592c4.781-1.304,7.836-4.133,9.715-6.551
				c3.199,0.82,5.537,2.871,7.469,6.589c2.006-1.686,2.226-1.858,3.934-3.241c-1.33-3.211-4.598-5.988-7.707-7.502
				c0.029-0.759,0.051-0.949,0.084-1.545C30.756,27.915,34.617,24.081,34.617,24.081z"/>
			<path style="fill:#FFFFFF;" d="M22.357,13.267c0,2.355,1.953,4.268,4.289,4.268c2.334,0,4.316-1.912,4.316-4.268
				C30.963,10.91,28.98,9,26.646,9C24.311,9,22.357,10.91,22.357,13.267z"/>
		</g>
	</g>
</g>
<g id="Layer_1">
</g>
</svg>
