<?xml version="1.0" encoding="iso-8859-1"?>
<!-- Generator: Adobe Illustrator 18.0.0, SVG Export Plug-In . SVG Version: 6.00 Build 0)  -->
<!DOCTYPE svg PUBLIC "-//W3C//DTD SVG 1.1//EN" "http://www.w3.org/Graphics/SVG/1.1/DTD/svg11.dtd">
<svg version="1.1" xmlns="http://www.w3.org/2000/svg" xmlns:xlink="http://www.w3.org/1999/xlink" x="0px" y="0px"
	 viewBox="0 0 48 48" style="enable-background:new 0 0 48 48;" xml:space="preserve">
<g id="Layer_637">
	<g>
		<g>
			<path style="fill:#41B2DC;" d="M31.649,2c2.805,0,6.247,1.979,7.649,4.4l7.649,13.199c1.402,2.421,1.402,6.381,0,8.801
				L39.299,41.6c-1.402,2.421-4.845,4.4-7.649,4.4H16.351c-2.805,0-6.247-1.979-7.649-4.4L1.052,28.401
				c-1.402-2.421-1.402-6.381,0-8.801L8.701,6.4C10.104,3.979,13.546,2,16.351,2H31.649z"/>
			<path style="fill:#41B2DC;" d="M31.649,2c2.805,0,6.247,1.979,7.649,4.4l7.649,13.199c1.402,2.421,1.402,6.381,0,8.801
				L39.299,41.6c-1.402,2.421-4.845,4.4-7.649,4.4H16.351c-2.805,0-6.247-1.979-7.649-4.4L1.052,28.401
				c-1.402-2.421-1.402-6.381,0-8.801L8.701,6.4C10.104,3.979,13.546,2,16.351,2H31.649z"/>
		</g>
		<g>
			<path style="fill:#FFFFFF;" d="M24.523,28.453c-0.836,0-1.48-2.175-2.437-5.977c-0.99-3.932-0.984-11.013-5.102-10.211
				C13.102,13.023,8,19.074,8,19.074l1.217,1.588c0,0,2.514-1.967,3.352-0.985c0.838,0.985,4.035,12.86,5.102,15.051
				c0.933,1.923,3.502,4.464,6.32,2.648c2.818-1.815,12.184-9.757,13.859-19.136c1.676-9.377-11.271-7.413-12.641,0.757
				c3.426-2.045,5.256,0.831,3.502,4.085C26.961,26.334,25.361,28.453,24.523,28.453z"/>
		</g>
	</g>
</g>
<g id="Layer_1">
</g>
</svg>
