<?xml version="1.0" encoding="iso-8859-1"?>
<!-- Generator: Adobe Illustrator 18.0.0, SVG Export Plug-In . SVG Version: 6.00 Build 0)  -->
<!DOCTYPE svg PUBLIC "-//W3C//DTD SVG 1.1//EN" "http://www.w3.org/Graphics/SVG/1.1/DTD/svg11.dtd">
<svg version="1.1" xmlns="http://www.w3.org/2000/svg" xmlns:xlink="http://www.w3.org/1999/xlink" x="0px" y="0px"
	 viewBox="0 0 48 48" style="enable-background:new 0 0 48 48;" xml:space="preserve">
<g id="Layer_626">
	<g>
		<g>
			<path style="fill:#FF6600;" d="M31.649,2c2.805,0,6.246,1.979,7.648,4.4l7.65,13.199c1.402,2.421,1.402,6.38,0,8.801L39.298,41.6
				c-1.402,2.421-4.844,4.4-7.648,4.4H16.351c-2.805,0-6.248-1.979-7.65-4.4L1.052,28.4c-1.402-2.421-1.402-6.38,0-8.801L8.7,6.4
				c1.402-2.421,4.846-4.4,7.65-4.4H31.649z"/>
			<path style="fill:#FF6600;" d="M31.649,2c2.805,0,6.246,1.979,7.648,4.4l7.65,13.199c1.402,2.421,1.402,6.38,0,8.801L39.298,41.6
				c-1.402,2.421-4.844,4.4-7.648,4.4H16.351c-2.805,0-6.248-1.979-7.65-4.4L1.052,28.4c-1.402-2.421-1.402-6.38,0-8.801L8.7,6.4
				c1.402-2.421,4.846-4.4,7.65-4.4H31.649z"/>
		</g>
		<g>
			<path style="fill:#FFFFFF;" d="M18.507,39h10.926c5.231,0,9.481-4.262,9.51-9.463L39,21.879l-0.086-0.418l-0.255-0.521
				l-0.421-0.33c-0.553-0.432-3.351,0.027-4.103-0.654c-0.535-0.49-0.618-1.373-0.778-2.564c-0.3-2.318-0.492-2.437-0.853-3.219
				C31.185,11.385,27.611,9.291,25.157,9h-6.65C13.276,9,9,13.27,9,18.48v11.057C9,34.738,13.276,39,18.507,39z M18.628,16.746H23.9
				c1.006,0,1.821,0.814,1.821,1.809c0,0.99-0.816,1.812-1.821,1.812h-5.272c-1.006,0-1.821-0.822-1.821-1.812
				C16.807,17.561,17.622,16.746,18.628,16.746z M18.628,27.594H29.34c1.002,0,1.812,0.811,1.812,1.805
				c0,0.98-0.81,1.805-1.812,1.805H18.628c-1.006,0-1.821-0.824-1.821-1.805C16.807,28.404,17.622,27.594,18.628,27.594z"/>
		</g>
	</g>
</g>
<g id="Layer_1">
</g>
</svg>
