<?xml version="1.0" encoding="iso-8859-1"?>
<!-- Generator: Adobe Illustrator 18.0.0, SVG Export Plug-In . SVG Version: 6.00 Build 0)  -->
<!DOCTYPE svg PUBLIC "-//W3C//DTD SVG 1.1//EN" "http://www.w3.org/Graphics/SVG/1.1/DTD/svg11.dtd">
<svg version="1.1" xmlns="http://www.w3.org/2000/svg" xmlns:xlink="http://www.w3.org/1999/xlink" x="0px" y="0px"
	 viewBox="0 0 48 48" style="enable-background:new 0 0 48 48;" xml:space="preserve">
<g id="Layer_90">
</g>
<g id="Layer_89">
</g>
<g id="Layer_88">
</g>
<g id="Layer_87">
</g>
<g id="Layer_86">
</g>
<g id="Layer_85">
</g>
<g id="Layer_84">
</g>
<g id="Layer_83">
</g>
<g id="Layer_82">
</g>
<g id="Layer_81">
</g>
<g id="Layer_80">
</g>
<g id="Layer_79">
</g>
<g id="Layer_78">
</g>
<g id="Layer_77">
</g>
<g id="Layer_76">
</g>
<g id="Layer_75">
</g>
<g id="Layer_74">
</g>
<g id="Layer_73">
</g>
<g id="Layer_72">
</g>
<g id="Layer_71">
</g>
<g id="Layer_70">
</g>
<g id="Layer_69">
</g>
<g id="Layer_68">
</g>
<g id="Layer_67">
</g>
<g id="Layer_66">
</g>
<g id="Layer_65">
</g>
<g id="Layer_64">
</g>
<g id="Layer_63">
</g>
<g id="Layer_62">
</g>
<g id="Layer_61">
</g>
<g id="Layer_60">
</g>
<g id="Layer_59">
</g>
<g id="Layer_58">
</g>
<g id="Layer_57">
</g>
<g id="Layer_56">
</g>
<g id="Layer_55">
</g>
<g id="Layer_54">
</g>
<g id="Layer_53">
</g>
<g id="Layer_52">
</g>
<g id="Layer_51">
</g>
<g id="Layer_50">
</g>
<g id="Layer_49">
</g>
<g id="Layer_48">
</g>
<g id="Layer_47">
</g>
<g id="Layer_46">
</g>
<g id="Layer_45">
</g>
<g id="Layer_44">
</g>
<g id="Layer_43">
</g>
<g id="Layer_42">
</g>
<g id="Layer_41">
</g>
<g id="Layer_40">
</g>
<g id="Layer_39">
</g>
<g id="Layer_38">
</g>
<g id="Layer_37">
</g>
<g id="Layer_36">
</g>
<g id="Layer_35">
</g>
<g id="Layer_34">
</g>
<g id="Layer_33">
</g>
<g id="Layer_32">
</g>
<g id="Layer_31">
</g>
<g id="Layer_30">
</g>
<g id="Layer_29">
</g>
<g id="Layer_28">
</g>
<g id="Layer_27">
</g>
<g id="Layer_26">
</g>
<g id="Layer_25">
</g>
<g id="Layer_24">
</g>
<g id="Layer_23">
</g>
<g id="Layer_22">
</g>
<g id="Layer_21">
</g>
<g id="Layer_20">
</g>
<g id="Layer_19">
</g>
<g id="Layer_18">
</g>
<g id="Layer_17">
</g>
<g id="Layer_16">
</g>
<g id="Layer_15">
</g>
<g id="Layer_14">
	<g>
		<g>
			<path style="fill:#0A93CF;" d="M31.649,2c2.805,0,6.247,1.979,7.649,4.4l7.65,13.199c1.402,2.421,1.402,6.381,0,8.801
				L39.299,41.6c-1.402,2.421-4.845,4.4-7.649,4.4H16.35c-2.805,0-6.247-1.979-7.649-4.4L1.052,28.4
				c-1.402-2.421-1.402-6.38,0-8.801L8.701,6.4C10.103,3.979,13.546,2,16.35,2H31.649z"/>
			<path style="fill:#0A93CF;" d="M31.649,2c2.805,0,6.247,1.979,7.649,4.4l7.65,13.199c1.402,2.421,1.402,6.381,0,8.801
				L39.299,41.6c-1.402,2.421-4.845,4.4-7.649,4.4H16.35c-2.805,0-6.247-1.979-7.649-4.4L1.052,28.4
				c-1.402-2.421-1.402-6.38,0-8.801L8.701,6.4C10.103,3.979,13.546,2,16.35,2H31.649z"/>
		</g>
		<path id="Drupal_4_" style="fill:#FFFFFF;" d="M30.425,14.549c-1.521-0.949-2.957-1.318-4.391-2.267
			C25.144,11.679,23.908,10.238,22.87,9c-0.191,1.996-0.789,2.809-1.475,3.391c-1.453,1.16-2.369,1.51-3.627,2.21
			C16.711,15.155,10.97,18.646,11,26.106C11.03,33.563,17.267,39.029,24.165,39C31.067,38.971,37.031,33.888,37,26.228
			C36.969,18.568,31.343,15.123,30.425,14.549L30.425,14.549z M30.628,36.057c-0.144,0.144-1.457,1.075-3.002,1.227
			c-1.546,0.15-3.636,0.245-4.9-0.906c-0.201-0.202-0.146-0.489-0.002-0.605c0.142-0.118,0.256-0.206,0.429-0.207
			c0.173-0.001,0.142-0.001,0.229,0.057c0.575,0.461,1.434,0.832,3.265,0.824c1.834-0.008,3.122-0.531,3.691-0.969
			c0.257-0.203,0.372-0.03,0.402,0.086C30.769,35.68,30.828,35.855,30.628,36.057L30.628,36.057z M25.656,33.645
			c0.314-0.292,0.83-0.757,1.315-0.96c0.486-0.205,0.741-0.177,1.201-0.179c0.457-0.002,0.947,0.025,1.289,0.257
			c0.343,0.23,0.547,0.748,0.661,1.035c0.117,0.291,0.002,0.464-0.225,0.582c-0.199,0.115-0.229,0.058-0.431-0.316
			c-0.2-0.375-0.374-0.751-1.377-0.747c-1.001,0.004-1.316,0.354-1.801,0.76c-0.485,0.406-0.657,0.552-0.83,0.321
			C25.287,34.167,25.343,33.934,25.656,33.645L25.656,33.645z M35.968,28.091c0.003,0.896-0.276,2.515-0.96,3.53
			c-0.68,1.016-1.108,1.394-1.913,1.339c-1.032-0.084-3.105-3.312-4.422-3.366c-1.659-0.05-5.254,3.523-8.089,3.534
			c-1.719,0.007-2.233-0.251-2.807-0.626c-0.863-0.604-1.296-1.526-1.273-2.799c0.021-2.256,2.1-4.372,4.736-4.411
			c3.348-0.044,5.684,3.327,7.371,3.293c1.433-0.033,4.171-2.88,5.517-2.885C35.558,25.693,35.964,27.193,35.968,28.091
			L35.968,28.091z"/>
	</g>
</g>
<g id="Layer_13">
</g>
<g id="Layer_12">
</g>
<g id="Layer_11">
</g>
<g id="Layer_10">
</g>
<g id="Layer_9">
</g>
<g id="Layer_8">
</g>
<g id="Layer_7">
</g>
<g id="Layer_6">
</g>
<g id="Layer_5">
</g>
<g id="Layer_4">
</g>
<g id="Layer_3">
</g>
<g id="Layer_2">
</g>
<g id="Layer_1">
</g>
<g id="nyt_x5F_exporter_x5F_info" style="display:none;">
</g>
</svg>
