<?xml version="1.0" encoding="iso-8859-1"?>
<!-- Generator: Adobe Illustrator 18.0.0, SVG Export Plug-In . SVG Version: 6.00 Build 0)  -->
<!DOCTYPE svg PUBLIC "-//W3C//DTD SVG 1.1//EN" "http://www.w3.org/Graphics/SVG/1.1/DTD/svg11.dtd">
<svg version="1.1" xmlns="http://www.w3.org/2000/svg" xmlns:xlink="http://www.w3.org/1999/xlink" x="0px" y="0px"
	 viewBox="0 0 48 48" style="enable-background:new 0 0 48 48;" xml:space="preserve">
<g id="Layer_90">
</g>
<g id="Layer_89">
</g>
<g id="Layer_88">
</g>
<g id="Layer_87">
</g>
<g id="Layer_86">
</g>
<g id="Layer_85">
</g>
<g id="Layer_84">
</g>
<g id="Layer_83">
</g>
<g id="Layer_82">
</g>
<g id="Layer_81">
</g>
<g id="Layer_80">
</g>
<g id="Layer_79">
</g>
<g id="Layer_78">
</g>
<g id="Layer_77">
</g>
<g id="Layer_76">
</g>
<g id="Layer_75">
</g>
<g id="Layer_74">
</g>
<g id="Layer_73">
</g>
<g id="Layer_72">
</g>
<g id="Layer_71">
</g>
<g id="Layer_70">
</g>
<g id="Layer_69">
</g>
<g id="Layer_68">
</g>
<g id="Layer_67">
</g>
<g id="Layer_66">
</g>
<g id="Layer_65">
</g>
<g id="Layer_64">
</g>
<g id="Layer_63">
</g>
<g id="Layer_62">
</g>
<g id="Layer_61">
</g>
<g id="Layer_60">
</g>
<g id="Layer_59">
</g>
<g id="Layer_58">
</g>
<g id="Layer_57">
</g>
<g id="Layer_56">
</g>
<g id="Layer_55">
</g>
<g id="Layer_54">
</g>
<g id="Layer_53">
</g>
<g id="Layer_52">
</g>
<g id="Layer_51">
</g>
<g id="Layer_50">
</g>
<g id="Layer_49">
</g>
<g id="Layer_48">
</g>
<g id="Layer_47">
</g>
<g id="Layer_46">
</g>
<g id="Layer_45">
</g>
<g id="Layer_44">
</g>
<g id="Layer_43">
</g>
<g id="Layer_42">
</g>
<g id="Layer_41">
</g>
<g id="Layer_40">
</g>
<g id="Layer_39">
</g>
<g id="Layer_38">
</g>
<g id="Layer_37">
</g>
<g id="Layer_36">
</g>
<g id="Layer_35">
</g>
<g id="Layer_34">
</g>
<g id="Layer_33">
</g>
<g id="Layer_32">
</g>
<g id="Layer_31">
</g>
<g id="Layer_30">
</g>
<g id="Layer_29">
</g>
<g id="Layer_28">
</g>
<g id="Layer_27">
</g>
<g id="Layer_26">
</g>
<g id="Layer_25">
</g>
<g id="Layer_24">
</g>
<g id="Layer_23">
</g>
<g id="Layer_22">
</g>
<g id="Layer_21">
</g>
<g id="Layer_20">
</g>
<g id="Layer_19">
</g>
<g id="Layer_18">
</g>
<g id="Layer_17">
</g>
<g id="Layer_16">
</g>
<g id="Layer_15">
</g>
<g id="Layer_14">
</g>
<g id="Layer_13">
	<g>
		<g>
			<path style="fill:#62A14A;" d="M31.649,2c2.805,0,6.247,1.979,7.649,4.4l7.649,13.2c1.402,2.421,1.402,6.381,0,8.802L39.299,41.6
				c-1.402,2.421-4.845,4.4-7.649,4.4H16.35c-2.805,0-6.247-1.979-7.649-4.4L1.052,28.401c-1.402-2.421-1.402-6.381,0-8.802
				L8.701,6.4C10.103,3.979,13.546,2,16.35,2H31.649z"/>
			<path style="fill:#62A14A;" d="M31.649,2c2.805,0,6.247,1.979,7.649,4.4l7.649,13.2c1.402,2.421,1.402,6.381,0,8.802L39.299,41.6
				c-1.402,2.421-4.845,4.4-7.649,4.4H16.35c-2.805,0-6.247-1.979-7.649-4.4L1.052,28.401c-1.402-2.421-1.402-6.381,0-8.802
				L8.701,6.4C10.103,3.979,13.546,2,16.35,2H31.649z"/>
		</g>
		<path id="Bird_4_" style="fill:#FFFFFF;" d="M24,14.999c-4,0-7.001,1.002-10.001,4.002H9c0,0,0.001,1.501,2.001,2.001
			C10.105,22.233,9,24.362,9,26.001c0,4.125,2.875,7,7,7c2.34,0,4.63-1.315,5.999-3.001L24,33.001l2.001-3.001
			c1.369,1.686,3.659,3.001,5.999,3.001c4.124,0,7-2.875,7-7c0-1.639-1.105-3.767-2.001-4.999c2-0.5,2.001-2.001,2.001-2.001h-4.999
			C31.001,16.001,28,14.999,24,14.999z M24,16c5,0,8,3.001,8,3.001c-4,0-8,5.001-8,10.001c0-5-4-10.001-8-10.001
			C16,19.001,19,16,24,16L24,16z M16,21.002c2.761,0,4.999,2.238,4.999,4.999C20.999,28.763,18.761,31,16,31
			s-4.999-2.237-4.999-4.999C11.001,23.24,13.239,21.002,16,21.002z M32,21.002c2.762,0,4.999,2.238,4.999,4.999
			C36.999,28.763,34.762,31,32,31s-4.999-2.237-4.999-4.999C27.001,23.24,29.238,21.002,32,21.002z M16,23
			c-1.657,0-3.001,1.344-3.001,3.001c0,1.658,1.344,3.001,3.001,3.001s3.001-1.343,3.001-3.001C19.001,24.344,17.657,23,16,23z
			 M32,23c-1.656,0-3.001,1.345-3.001,3.001c0,1.658,1.345,3.001,3.001,3.001c1.656,0,3.001-1.343,3.001-3.001
			C35.001,24.345,33.656,23,32,23L32,23z M16,24c1.104,0,2.001,0.897,2.001,2.001c0,1.105-0.897,2.001-2.001,2.001
			c-1.104,0-2.001-0.896-2.001-2.001C13.999,24.897,14.896,24,16,24z M32,24c1.104,0,2.001,0.897,2.001,2.001
			c0,1.105-0.897,2.001-2.001,2.001c-1.104,0-2.001-0.896-2.001-2.001C29.999,24.897,30.896,24,32,24z M16,25c-0.552,0-1,0.448-1,1
			c0,0.552,0.448,1.001,1,1.001c0.552,0,1-0.448,1-1.001C17,25.448,16.552,25,16,25z M32,25c-0.552,0-1,0.448-1,1
			c0,0.552,0.448,1.001,1,1.001c0.552,0,1-0.448,1-1.001C33.001,25.448,32.552,25,32,25z"/>
	</g>
</g>
<g id="Layer_12">
</g>
<g id="Layer_11">
</g>
<g id="Layer_10">
</g>
<g id="Layer_9">
</g>
<g id="Layer_8">
</g>
<g id="Layer_7">
</g>
<g id="Layer_6">
</g>
<g id="Layer_5">
</g>
<g id="Layer_4">
</g>
<g id="Layer_3">
</g>
<g id="Layer_2">
</g>
<g id="Layer_1">
</g>
<g id="nyt_x5F_exporter_x5F_info" style="display:none;">
</g>
</svg>
