<?xml version="1.0" encoding="iso-8859-1"?>
<!-- Generator: Adobe Illustrator 18.0.0, SVG Export Plug-In . SVG Version: 6.00 Build 0)  -->
<!DOCTYPE svg PUBLIC "-//W3C//DTD SVG 1.1//EN" "http://www.w3.org/Graphics/SVG/1.1/DTD/svg11.dtd">
<svg version="1.1" xmlns="http://www.w3.org/2000/svg" xmlns:xlink="http://www.w3.org/1999/xlink" x="0px" y="0px"
	 viewBox="0 0 48 48" style="enable-background:new 0 0 48 48;" xml:space="preserve">
<g id="Layer_588">
	<g>
		<g>
			<path style="fill:#4F6EAA;" d="M31.649,2c2.805,0,6.248,1.979,7.65,4.4l7.648,13.199c1.402,2.421,1.402,6.381,0,8.802L39.3,41.6
				c-1.402,2.421-4.846,4.4-7.65,4.4H16.351c-2.805,0-6.246-1.979-7.648-4.4l-7.65-13.199c-1.402-2.421-1.402-6.381,0-8.802
				L8.702,6.4C10.104,3.979,13.546,2,16.351,2H31.649z"/>
			<path style="fill:#4F6EAA;" d="M31.649,2c2.805,0,6.248,1.979,7.65,4.4l7.648,13.199c1.402,2.421,1.402,6.381,0,8.802L39.3,41.6
				c-1.402,2.421-4.846,4.4-7.65,4.4H16.351c-2.805,0-6.246-1.979-7.648-4.4l-7.65-13.199c-1.402-2.421-1.402-6.381,0-8.802
				L8.702,6.4C10.104,3.979,13.546,2,16.351,2H31.649z"/>
		</g>
		<g>
			<ellipse style="fill:#FFFFFF;" cx="18.435" cy="11.495" rx="2.353" ry="2.495"/>
			<path style="fill:#FFFFFF;" d="M29.649,9c-1.304,0-2.353,1.117-2.353,2.496c0,1.377,1.05,2.494,2.353,2.494
				c1.298,0,2.351-1.117,2.351-2.494C32,10.117,30.947,9,29.649,9z"/>
			<path style="fill:#FFFFFF;" d="M27.71,38.803c0.922,0.439,4.29,0,4.29,0c-0.041-5.678,0-22.414,0-22.414
				c-8.03,9.103-15.918,0-15.918,0c-0.184,6.949,0,22.414,0,22.414c1.291,0.344,4.104-0.049,4.104-0.049
				c0.188-4.846,0-16.004,0-16.004c4.154,2.105,7.614,0,7.614,0C27.572,30.287,27.71,38.803,27.71,38.803z"/>
		</g>
	</g>
</g>
<g id="Layer_1">
</g>
</svg>
