<?xml version="1.0" encoding="iso-8859-1"?>
<!-- Generator: Adobe Illustrator 18.0.0, SVG Export Plug-In . SVG Version: 6.00 Build 0)  -->
<!DOCTYPE svg PUBLIC "-//W3C//DTD SVG 1.1//EN" "http://www.w3.org/Graphics/SVG/1.1/DTD/svg11.dtd">
<svg version="1.1" xmlns="http://www.w3.org/2000/svg" xmlns:xlink="http://www.w3.org/1999/xlink" x="0px" y="0px"
	 viewBox="0 0 48 48" style="enable-background:new 0 0 48 48;" xml:space="preserve">
<g id="Layer_603">
	<g>
		<path style="fill:#FFA616;" d="M31.649,2c2.805,0,6.247,1.979,7.649,4.4l7.649,13.199c1.402,2.421,1.402,6.381,0,8.802
			L39.299,41.6c-1.402,2.421-4.845,4.4-7.649,4.4H16.351c-2.805,0-6.247-1.979-7.649-4.4L1.052,28.401
			c-1.402-2.421-1.402-6.381,0-8.802L8.701,6.4C10.104,3.979,13.546,2,16.351,2H31.649z"/>
		<g>
			<path style="fill:#FFFFFF;" d="M24,36c8.283,0,15-4.368,15-9.753s-6.717-9.751-15-9.751c-4.176,0-7.955,1.11-10.674,2.901V12H9
				v14.239v0.008v0.01v0.038h0.002C9.039,31.658,15.74,36,24,36z M24,18.89c5.789,0,10.482,3.294,10.482,7.357
				S29.789,33.605,24,33.605c-5.789,0-10.482-3.295-10.482-7.359S18.211,18.89,24,18.89z"/>
		</g>
	</g>
</g>
<g id="Layer_1">
</g>
</svg>
