<?xml version="1.0" encoding="iso-8859-1"?>
<!-- Generator: Adobe Illustrator 18.0.0, SVG Export Plug-In . SVG Version: 6.00 Build 0)  -->
<!DOCTYPE svg PUBLIC "-//W3C//DTD SVG 1.1//EN" "http://www.w3.org/Graphics/SVG/1.1/DTD/svg11.dtd">
<svg version="1.1" xmlns="http://www.w3.org/2000/svg" xmlns:xlink="http://www.w3.org/1999/xlink" x="0px" y="0px"
	 viewBox="0 0 48 48" style="enable-background:new 0 0 48 48;" xml:space="preserve">
<g id="Layer_621">
	<g>
		<g>
			<path style="fill:#83D1ED;" d="M31.649,2c2.805,0,6.248,1.979,7.65,4.4l7.648,13.199c1.402,2.421,1.402,6.381,0,8.802L39.3,41.6
				c-1.402,2.421-4.846,4.4-7.65,4.4H16.351c-2.805,0-6.246-1.979-7.648-4.4l-7.65-13.199c-1.402-2.421-1.402-6.381,0-8.802
				L8.702,6.4C10.105,3.979,13.546,2,16.351,2H31.649z"/>
			<path style="fill:#83D1ED;" d="M31.649,2c2.805,0,6.248,1.979,7.65,4.4l7.648,13.199c1.402,2.421,1.402,6.381,0,8.802L39.3,41.6
				c-1.402,2.421-4.846,4.4-7.65,4.4H16.351c-2.805,0-6.246-1.979-7.648-4.4l-7.65-13.199c-1.402-2.421-1.402-6.381,0-8.802
				L8.702,6.4C10.105,3.979,13.546,2,16.351,2H31.649z"/>
		</g>
		<g>
			<polygon style="fill:#FFFFFF;" points="9,25.588 17.824,31.37 24,26.198 15.102,20.684 			"/>
			<polygon style="fill:#FFFFFF;" points="17.824,10 9,15.779 15.102,20.684 24,15.171 			"/>
			<polygon style="fill:#FFFFFF;" points="30.174,10 24,15.171 32.898,20.684 39,15.779 			"/>
			<polygon style="fill:#FFFFFF;" points="30.174,31.37 39,25.588 32.898,20.684 24,26.198 			"/>
			<polygon style="fill:#FFFFFF;" points="32.861,32.68 32.861,30.73 30.211,32.468 24.02,27.31 17.824,32.468 15.174,30.73 
				15.174,32.68 24.02,38 			"/>
		</g>
	</g>
</g>
<g id="Layer_1">
</g>
</svg>
