<?xml version="1.0" encoding="iso-8859-1"?>
<!-- Generator: Adobe Illustrator 18.0.0, SVG Export Plug-In . SVG Version: 6.00 Build 0)  -->
<!DOCTYPE svg PUBLIC "-//W3C//DTD SVG 1.1//EN" "http://www.w3.org/Graphics/SVG/1.1/DTD/svg11.dtd">
<svg version="1.1" xmlns="http://www.w3.org/2000/svg" xmlns:xlink="http://www.w3.org/1999/xlink" x="0px" y="0px"
	 viewBox="0 0 48 48" style="enable-background:new 0 0 48 48;" xml:space="preserve">
<g id="Layer_607">
	<g>
		<g>
			<path style="fill:#709931;" d="M31.649,2c2.805,0,6.246,1.979,7.648,4.4l7.65,13.199c1.402,2.421,1.402,6.381,0,8.802
				L39.298,41.6c-1.402,2.421-4.844,4.4-7.648,4.4H16.351c-2.805,0-6.248-1.979-7.65-4.4L1.052,28.401
				c-1.402-2.421-1.402-6.381,0-8.802L8.7,6.4c1.402-2.421,4.846-4.4,7.65-4.4H31.649z"/>
			<path style="fill:#709931;" d="M31.649,2c2.805,0,6.246,1.979,7.648,4.4l7.65,13.199c1.402,2.421,1.402,6.381,0,8.802
				L39.298,41.6c-1.402,2.421-4.844,4.4-7.648,4.4H16.351c-2.805,0-6.248-1.979-7.65-4.4L1.052,28.401
				c-1.402-2.421-1.402-6.381,0-8.802L8.7,6.4c1.402-2.421,4.846-4.4,7.65-4.4H31.649z"/>
		</g>
		<g>
			<path style="fill:#FFFFFF;" d="M13.262,28.654c-0.22,0.258-0.256,0.678-0.256,0.678c0,0.818,0,1.639,0,2.453
				c0,0.031-0.002,0.211-0.006,0.406c0.079,0.41,0.266,0.494,0.373,0.508c0.311,0,0.623,0,0.936,0c2.324,0,4.305,0.063,6.454,1.152
				c1.648,0.834,3.012,2.172,4.618,3.104c1.525,0.885,3.264,1.808,5.048,2.016c3.593,0.42,5.037-3.857,4.44-6.635
				c-1.602,1.271-3.833,1.238-5.879,0.688c-1.925-0.633-4.989-2.598-4.989-2.598c-1.374-0.844-2.988-1.545-4.608-1.473
				c0-0.721,0.02-0.748,0.466-1.258c0.613-0.697,1.225-1.396,1.836-2.096c1.925-2.199,3.851-4.396,5.778-6.596
				c1.638-1.871,3.276-3.74,4.914-5.611c0.159-0.182,0.738-0.639,0.765-0.887c0.097-0.85,0.198-1.701,0.299-2.549
				c0.067-0.59-0.551-0.449-0.551-0.449l-0.002-0.002c-2.659,0.533-5.39,0.811-8.096,0.687c-1.509-0.068-3.093-0.209-4.509-0.766
				c-0.05-0.018-0.349-0.168-0.631-0.318c-0.408-0.209-0.682-0.074-0.827,0.045c-0.113,0.139-0.234,0.273-0.341,0.42
				c-0.714,0.957-1.376,2.082-1.497,3.283c-0.026,0.269-0.059,0.834,0.089,1.174c0,0,0.016,0.043,0.062,0.109
				c0.008,0.01,0.014,0.019,0.022,0.029c0.339,0.463,1.9,1.85,7.997,0.646c-3.97,4.613-7.938,9.225-11.901,13.838
				C13.262,28.654,13.262,28.654,13.262,28.654z"/>
		</g>
	</g>
</g>
<g id="Layer_1">
</g>
</svg>
