<?xml version="1.0" encoding="iso-8859-1"?>
<!-- Generator: Adobe Illustrator 18.0.0, SVG Export Plug-In . SVG Version: 6.00 Build 0)  -->
<!DOCTYPE svg PUBLIC "-//W3C//DTD SVG 1.1//EN" "http://www.w3.org/Graphics/SVG/1.1/DTD/svg11.dtd">
<svg version="1.1" xmlns="http://www.w3.org/2000/svg" xmlns:xlink="http://www.w3.org/1999/xlink" x="0px" y="0px"
	 viewBox="0 0 48 48" style="enable-background:new 0 0 48 48;" xml:space="preserve">
<g id="Layer_592">
	<g>
		<g>
			<path style="fill:#1A9711;" d="M31.649,2c2.805,0,6.247,1.979,7.649,4.4l7.649,13.2c1.402,2.421,1.402,6.381,0,8.801L39.299,41.6
				c-1.402,2.421-4.845,4.4-7.649,4.4H16.351c-2.805,0-6.247-1.979-7.649-4.4L1.052,28.401c-1.402-2.421-1.402-6.381,0-8.801
				L8.701,6.4C10.104,3.979,13.546,2,16.351,2H31.649z"/>
			<path style="fill:#1A9711;" d="M31.649,2c2.805,0,6.247,1.979,7.649,4.4l7.649,13.2c1.402,2.421,1.402,6.381,0,8.801L39.299,41.6
				c-1.402,2.421-4.845,4.4-7.649,4.4H16.351c-2.805,0-6.247-1.979-7.649-4.4L1.052,28.401c-1.402-2.421-1.402-6.381,0-8.801
				L8.701,6.4C10.104,3.979,13.546,2,16.351,2H31.649z"/>
		</g>
		<g>
			<rect x="28.999" y="16" style="fill:#FFFFFF;" width="10" height="5"/>
			<polygon style="fill:#FFFFFF;" points="9,16 9,21 14,21 14,32 19,32 19,21 24,21 24,16 			"/>
			<polygon style="fill:#FFFFFF;" points="24.001,32 28.999,32 39,32 39,27 28.999,27 28.999,21 24.001,21 			"/>
		</g>
	</g>
</g>
<g id="Layer_1">
</g>
</svg>
