<?xml version="1.0" encoding="iso-8859-1"?>
<!-- Generator: Adobe Illustrator 18.0.0, SVG Export Plug-In . SVG Version: 6.00 Build 0)  -->
<!DOCTYPE svg PUBLIC "-//W3C//DTD SVG 1.1//EN" "http://www.w3.org/Graphics/SVG/1.1/DTD/svg11.dtd">
<svg version="1.1" xmlns="http://www.w3.org/2000/svg" xmlns:xlink="http://www.w3.org/1999/xlink" x="0px" y="0px"
	 viewBox="0 0 48 48" style="enable-background:new 0 0 48 48;" xml:space="preserve">
<g id="Layer_90">
</g>
<g id="Layer_89">
</g>
<g id="Layer_88">
</g>
<g id="Layer_87">
</g>
<g id="Layer_86">
</g>
<g id="Layer_85">
</g>
<g id="Layer_84">
</g>
<g id="Layer_83">
</g>
<g id="Layer_82">
</g>
<g id="Layer_81">
</g>
<g id="Layer_80">
</g>
<g id="Layer_79">
</g>
<g id="Layer_78">
</g>
<g id="Layer_77">
</g>
<g id="Layer_76">
</g>
<g id="Layer_75">
</g>
<g id="Layer_74">
</g>
<g id="Layer_73">
</g>
<g id="Layer_72">
</g>
<g id="Layer_71">
</g>
<g id="Layer_70">
</g>
<g id="Layer_69">
</g>
<g id="Layer_68">
</g>
<g id="Layer_67">
</g>
<g id="Layer_66">
</g>
<g id="Layer_65">
</g>
<g id="Layer_64">
</g>
<g id="Layer_63">
</g>
<g id="Layer_62">
</g>
<g id="Layer_61">
</g>
<g id="Layer_60">
</g>
<g id="Layer_59">
</g>
<g id="Layer_58">
</g>
<g id="Layer_57">
</g>
<g id="Layer_56">
</g>
<g id="Layer_55">
</g>
<g id="Layer_54">
</g>
<g id="Layer_53">
</g>
<g id="Layer_52">
</g>
<g id="Layer_51">
</g>
<g id="Layer_50">
</g>
<g id="Layer_49">
</g>
<g id="Layer_48">
</g>
<g id="Layer_47">
</g>
<g id="Layer_46">
</g>
<g id="Layer_45">
</g>
<g id="Layer_44">
</g>
<g id="Layer_43">
</g>
<g id="Layer_42">
</g>
<g id="Layer_41">
</g>
<g id="Layer_40">
</g>
<g id="Layer_39">
</g>
<g id="Layer_38">
</g>
<g id="Layer_37">
</g>
<g id="Layer_36">
</g>
<g id="Layer_35">
</g>
<g id="Layer_34">
</g>
<g id="Layer_33">
</g>
<g id="Layer_32">
</g>
<g id="Layer_31">
</g>
<g id="Layer_30">
</g>
<g id="Layer_29">
</g>
<g id="Layer_28">
</g>
<g id="Layer_27">
</g>
<g id="Layer_26">
</g>
<g id="Layer_25">
</g>
<g id="Layer_24">
</g>
<g id="Layer_23">
</g>
<g id="Layer_22">
</g>
<g id="Layer_21">
</g>
<g id="Layer_20">
</g>
<g id="Layer_19">
</g>
<g id="Layer_18">
</g>
<g id="Layer_17">
</g>
<g id="Layer_16">
</g>
<g id="Layer_15">
</g>
<g id="Layer_14">
</g>
<g id="Layer_13">
</g>
<g id="Layer_12">
</g>
<g id="Layer_11">
</g>
<g id="Layer_10">
	<g>
		<g>
			<path style="fill:#602E7A;" d="M31.649,2c2.805,0,6.247,1.979,7.649,4.4l7.649,13.199c1.402,2.421,1.402,6.381,0,8.802
				l-7.649,13.2c-1.402,2.421-4.845,4.4-7.649,4.4H16.35c-2.805,0-6.247-1.979-7.649-4.4l-7.649-13.2
				c-1.402-2.421-1.402-6.381,0-8.802L8.701,6.4C10.103,3.979,13.546,2,16.35,2H31.649z"/>
			<path style="fill:#602E7A;" d="M31.649,2c2.805,0,6.247,1.979,7.649,4.4l7.649,13.199c1.402,2.421,1.402,6.381,0,8.802
				l-7.649,13.2c-1.402,2.421-4.845,4.4-7.649,4.4H16.35c-2.805,0-6.247-1.979-7.649-4.4l-7.649-13.2
				c-1.402-2.421-1.402-6.381,0-8.802L8.701,6.4C10.103,3.979,13.546,2,16.35,2H31.649z"/>
		</g>
		<path id="Yahoo_x21__Messenger_3_" style="fill:#FFFFFF;" d="M24,39c8.285,0,15-6.716,15-15c0-8.285-6.715-15-15-15
			C15.715,9,9,15.715,9,24C9,32.284,15.715,39,24,39z M27.829,15.797c1.079,0,1.954,0.874,1.954,1.953
			c0,1.078-0.875,1.952-1.954,1.952c-1.078,0-1.953-0.874-1.953-1.952C25.876,16.671,26.751,15.797,27.829,15.797z M20.407,15.797
			c1.079,0,1.954,0.874,1.954,1.953c0,1.078-0.875,1.952-1.954,1.952c-1.079,0-1.953-0.874-1.953-1.952
			C18.454,16.671,19.328,15.797,20.407,15.797L20.407,15.797z M13.453,22.046h21.093v3.908h-0.043
			c-0.438,5.421-4.968,9.686-10.504,9.686c-5.535,0-10.064-4.264-10.501-9.686h-0.045V22.046L13.453,22.046z M33.115,25.538H14.633
			v-2.405h18.481L33.115,25.538L33.115,25.538z"/>
	</g>
</g>
<g id="Layer_9">
</g>
<g id="Layer_8">
</g>
<g id="Layer_7">
</g>
<g id="Layer_6">
</g>
<g id="Layer_5">
</g>
<g id="Layer_4">
</g>
<g id="Layer_3">
</g>
<g id="Layer_2">
</g>
<g id="Layer_1">
</g>
<g id="nyt_x5F_exporter_x5F_info" style="display:none;">
</g>
</svg>
