<?xml version="1.0" encoding="iso-8859-1"?>
<!-- Generator: Adobe Illustrator 18.0.0, SVG Export Plug-In . SVG Version: 6.00 Build 0)  -->
<!DOCTYPE svg PUBLIC "-//W3C//DTD SVG 1.1//EN" "http://www.w3.org/Graphics/SVG/1.1/DTD/svg11.dtd">
<svg version="1.1" xmlns="http://www.w3.org/2000/svg" xmlns:xlink="http://www.w3.org/1999/xlink" x="0px" y="0px"
	 viewBox="0 0 48 48" style="enable-background:new 0 0 48 48;" xml:space="preserve">
<g id="Layer_647">
	<g>
		<g>
			<path style="fill:#31723E;" d="M31.649,2c2.805,0,6.247,1.979,7.649,4.4l7.649,13.199c1.402,2.421,1.402,6.381,0,8.802
				L39.299,41.6c-1.402,2.421-4.845,4.4-7.649,4.4H16.351c-2.805,0-6.247-1.979-7.649-4.4L1.052,28.401
				c-1.402-2.421-1.402-6.381,0-8.802L8.701,6.4C10.104,3.979,13.546,2,16.351,2H31.649z"/>
			<path style="fill:#31723E;" d="M31.649,2c2.805,0,6.247,1.979,7.649,4.4l7.649,13.199c1.402,2.421,1.402,6.381,0,8.802
				L39.299,41.6c-1.402,2.421-4.845,4.4-7.649,4.4H16.351c-2.805,0-6.247-1.979-7.649-4.4L1.052,28.401
				c-1.402-2.421-1.402-6.381,0-8.802L8.701,6.4C10.104,3.979,13.546,2,16.351,2H31.649z"/>
		</g>
		<g>
			<path style="fill:#FFFFFF;" d="M11.552,39h11.06v-6.08l-2.963-2.055l0.489-0.705l2.474,1.715v-4.873h2.816v3.201l2.578-1.299
				l0.388,0.768l-2.966,1.494v2.36l4.733-2.386l0.386,0.767l-5.119,2.581V39h11.019c0.232,0,0.447-0.115,0.576-0.31
				c0.126-0.192,0.148-0.439,0.055-0.652L24.653,9.414C24.544,9.162,24.296,9,24.021,9c-0.274,0-0.523,0.162-0.631,0.413
				L10.922,38.036c-0.093,0.214-0.072,0.46,0.055,0.653C11.105,38.883,11.32,39,11.552,39z"/>
		</g>
	</g>
</g>
<g id="Layer_1">
</g>
</svg>
