<?xml version="1.0" encoding="iso-8859-1"?>
<!-- Generator: Adobe Illustrator 18.0.0, SVG Export Plug-In . SVG Version: 6.00 Build 0)  -->
<!DOCTYPE svg PUBLIC "-//W3C//DTD SVG 1.1//EN" "http://www.w3.org/Graphics/SVG/1.1/DTD/svg11.dtd">
<svg version="1.1" xmlns="http://www.w3.org/2000/svg" xmlns:xlink="http://www.w3.org/1999/xlink" x="0px" y="0px"
	 viewBox="0 0 48 48" style="enable-background:new 0 0 48 48;" xml:space="preserve">
<g id="Layer_90">
</g>
<g id="Layer_89">
</g>
<g id="Layer_88">
</g>
<g id="Layer_87">
</g>
<g id="Layer_86">
</g>
<g id="Layer_85">
</g>
<g id="Layer_84">
</g>
<g id="Layer_83">
</g>
<g id="Layer_82">
</g>
<g id="Layer_81">
</g>
<g id="Layer_80">
</g>
<g id="Layer_79">
</g>
<g id="Layer_78">
</g>
<g id="Layer_77">
</g>
<g id="Layer_76">
</g>
<g id="Layer_75">
</g>
<g id="Layer_74">
</g>
<g id="Layer_73">
</g>
<g id="Layer_72">
</g>
<g id="Layer_71">
</g>
<g id="Layer_70">
</g>
<g id="Layer_69">
</g>
<g id="Layer_68">
</g>
<g id="Layer_67">
</g>
<g id="Layer_66">
</g>
<g id="Layer_65">
</g>
<g id="Layer_64">
</g>
<g id="Layer_63">
</g>
<g id="Layer_62">
</g>
<g id="Layer_61">
</g>
<g id="Layer_60">
</g>
<g id="Layer_59">
</g>
<g id="Layer_58">
</g>
<g id="Layer_57">
</g>
<g id="Layer_56">
</g>
<g id="Layer_55">
</g>
<g id="Layer_54">
</g>
<g id="Layer_53">
</g>
<g id="Layer_52">
</g>
<g id="Layer_51">
</g>
<g id="Layer_50">
</g>
<g id="Layer_49">
</g>
<g id="Layer_48">
</g>
<g id="Layer_47">
</g>
<g id="Layer_46">
</g>
<g id="Layer_45">
</g>
<g id="Layer_44">
</g>
<g id="Layer_43">
</g>
<g id="Layer_42">
</g>
<g id="Layer_41">
</g>
<g id="Layer_40">
</g>
<g id="Layer_39">
</g>
<g id="Layer_38">
</g>
<g id="Layer_37">
</g>
<g id="Layer_36">
</g>
<g id="Layer_35">
</g>
<g id="Layer_34">
</g>
<g id="Layer_33">
</g>
<g id="Layer_32">
</g>
<g id="Layer_31">
</g>
<g id="Layer_30">
</g>
<g id="Layer_29">
</g>
<g id="Layer_28">
</g>
<g id="Layer_27">
</g>
<g id="Layer_26">
</g>
<g id="Layer_25">
</g>
<g id="Layer_24">
</g>
<g id="Layer_23">
</g>
<g id="Layer_22">
</g>
<g id="Layer_21">
</g>
<g id="Layer_20">
</g>
<g id="Layer_19">
</g>
<g id="Layer_18">
</g>
<g id="Layer_17">
	<g>
		<g>
			<path style="fill:#8256A6;" d="M31.649,2c2.805,0,6.247,1.979,7.649,4.4l7.649,13.199c1.402,2.421,1.402,6.381,0,8.802
				L39.299,41.6c-1.402,2.421-4.845,4.4-7.649,4.4H16.35c-2.805,0-6.247-1.979-7.649-4.4L1.052,28.401
				c-1.402-2.421-1.402-6.381,0-8.802L8.701,6.4C10.103,3.979,13.546,2,16.35,2H31.649z"/>
			<path style="fill:#8256A6;" d="M31.649,2c2.805,0,6.247,1.979,7.649,4.4l7.649,13.199c1.402,2.421,1.402,6.381,0,8.802
				L39.299,41.6c-1.402,2.421-4.845,4.4-7.649,4.4H16.35c-2.805,0-6.247-1.979-7.649-4.4L1.052,28.401
				c-1.402-2.421-1.402-6.381,0-8.802L8.701,6.4C10.103,3.979,13.546,2,16.35,2H31.649z"/>
		</g>
		<g id="g15_3_" transform="matrix(1.452588,0,0,1.452588,-115.17955,-97.147891)">
			<path id="path17-6_3_" style="fill:#FFFFFF;" d="M104.553,88.02c-0.642-0.507-1.329-0.962-2.005-1.427
				c-1.348-0.928-2.58-1-3.586,0.493c-0.565,0.838-1.355,0.875-2.182,0.507c-2.279-1.013-4.039-2.574-5.069-4.845
				c-0.456-1.005-0.45-1.905,0.617-2.616c0.565-0.376,1.134-0.82,1.088-1.642c-0.059-1.071-2.711-4.649-3.758-5.026
				c-0.433-0.156-0.865-0.146-1.306-0.001c-2.455,0.809-3.472,2.789-2.498,5.133c2.905,6.993,8.019,11.862,15.057,14.833
				c0.401,0.169,0.847,0.237,1.073,0.298c1.602,0.016,3.48-1.498,4.022-3C106.529,89.283,105.425,88.709,104.553,88.02
				L104.553,88.02z"/>
			<path id="path19-1_3_" style="fill:#FFFFFF;" d="M96.661,74.182c5.146,0.776,7.519,3.175,8.174,8.256
				c0.061,0.469-0.118,1.176,0.565,1.189c0.714,0.013,0.542-0.682,0.548-1.152c0.06-4.785-4.196-9.222-9.139-9.385
				c-0.373,0.053-1.145-0.252-1.193,0.567C95.585,74.209,96.234,74.118,96.661,74.182L96.661,74.182z"/>
			<path id="path21-2_3_" style="fill:#FFFFFF;" d="M97.667,75.575c-0.495-0.058-1.148-0.287-1.264,0.386
				c-0.121,0.707,0.607,0.635,1.075,0.738c3.178,0.696,4.285,1.83,4.808,4.921c0.076,0.451-0.075,1.152,0.706,1.036
				c0.579-0.086,0.37-0.688,0.418-1.039C103.436,78.65,100.843,75.949,97.667,75.575L97.667,75.575z"/>
			<path id="path23_3_" style="fill:#FFFFFF;" d="M97.959,78.002c-0.33,0.008-0.655,0.043-0.776,0.389
				c-0.182,0.517,0.201,0.641,0.592,0.702c1.304,0.205,1.99,0.959,2.12,2.233c0.035,0.346,0.259,0.626,0.6,0.587
				c0.472-0.055,0.515-0.467,0.501-0.859C101.019,79.622,99.368,77.967,97.959,78.002L97.959,78.002z"/>
		</g>
	</g>
</g>
<g id="Layer_16">
</g>
<g id="Layer_15">
</g>
<g id="Layer_14">
</g>
<g id="Layer_13">
</g>
<g id="Layer_12">
</g>
<g id="Layer_11">
</g>
<g id="Layer_10">
</g>
<g id="Layer_9">
</g>
<g id="Layer_8">
</g>
<g id="Layer_7">
</g>
<g id="Layer_6">
</g>
<g id="Layer_5">
</g>
<g id="Layer_4">
</g>
<g id="Layer_3">
</g>
<g id="Layer_2">
</g>
<g id="Layer_1">
</g>
<g id="nyt_x5F_exporter_x5F_info" style="display:none;">
</g>
</svg>
