<?xml version="1.0" encoding="iso-8859-1"?>
<!-- Generator: Adobe Illustrator 18.0.0, SVG Export Plug-In . SVG Version: 6.00 Build 0)  -->
<!DOCTYPE svg PUBLIC "-//W3C//DTD SVG 1.1//EN" "http://www.w3.org/Graphics/SVG/1.1/DTD/svg11.dtd">
<svg version="1.1" xmlns="http://www.w3.org/2000/svg" xmlns:xlink="http://www.w3.org/1999/xlink" x="0px" y="0px"
	 viewBox="0 0 48 48" style="enable-background:new 0 0 48 48;" xml:space="preserve">
<g id="Layer_585">
	<g>
		<g>
			<path style="fill:#E6501B;" d="M31.649,2c2.805,0,6.246,1.979,7.648,4.4l7.65,13.199c1.402,2.421,1.402,6.381,0,8.802
				L39.298,41.6c-1.402,2.421-4.844,4.4-7.648,4.4H16.351c-2.805,0-6.248-1.979-7.65-4.4L1.052,28.401
				c-1.402-2.421-1.402-6.381,0-8.802L8.7,6.4c1.402-2.421,4.846-4.4,7.65-4.4H31.649z"/>
			<path style="fill:#E6501B;" d="M31.649,2c2.805,0,6.246,1.979,7.648,4.4l7.65,13.199c1.402,2.421,1.402,6.381,0,8.802
				L39.298,41.6c-1.402,2.421-4.844,4.4-7.648,4.4H16.351c-2.805,0-6.248-1.979-7.65-4.4L1.052,28.401
				c-1.402-2.421-1.402-6.381,0-8.802L8.7,6.4c1.402-2.421,4.846-4.4,7.65-4.4H31.649z"/>
		</g>
		<g>
			<path style="fill:#FFFFFF;" d="M24,15.002c-3.313,0-6.313,1.344-8.484,3.516c-0.18,0.182-0.355,0.369-0.525,0.561v-8.584
				C14.99,9.67,14.322,9,13.496,9c-0.824,0-1.494,0.67-1.494,1.494v15.699c0,0.07,0.006,0.141,0.014,0.207
				c-0.01,0.199-0.014,0.398-0.014,0.602c0,3.31,1.344,6.31,3.514,8.482C17.688,37.656,20.688,39,24,39
				c3.312,0,6.312-1.344,8.484-3.516c2.172-2.172,3.514-5.172,3.514-8.482c0-3.314-1.342-6.314-3.514-8.484
				C30.313,16.346,27.313,15.002,24,15.002z M30.371,33.371c-1.631,1.631-3.883,2.641-6.371,2.641c-2.488,0-4.74-1.01-6.371-2.641
				c-1.631-1.629-2.639-3.883-2.639-6.369c0-2.488,1.008-4.742,2.639-6.373C19.26,18.998,21.514,17.99,24,17.99
				c2.488,0,4.74,1.008,6.371,2.639c1.631,1.631,2.639,3.885,2.639,6.373C33.01,29.488,32.002,31.742,30.371,33.371z"/>
			<circle style="fill:#FFFFFF;" cx="19.568" cy="27.463" r="2.656"/>
		</g>
	</g>
</g>
<g id="Layer_1">
</g>
</svg>
