<?xml version="1.0" encoding="iso-8859-1"?>
<!-- Generator: Adobe Illustrator 18.0.0, SVG Export Plug-In . SVG Version: 6.00 Build 0)  -->
<!DOCTYPE svg PUBLIC "-//W3C//DTD SVG 1.1//EN" "http://www.w3.org/Graphics/SVG/1.1/DTD/svg11.dtd">
<svg version="1.1" xmlns="http://www.w3.org/2000/svg" xmlns:xlink="http://www.w3.org/1999/xlink" x="0px" y="0px"
	 viewBox="0 0 48 48" style="enable-background:new 0 0 48 48;" xml:space="preserve">
<g id="Layer_90">
</g>
<g id="Layer_89">
</g>
<g id="Layer_88">
</g>
<g id="Layer_87">
</g>
<g id="Layer_86">
</g>
<g id="Layer_85">
</g>
<g id="Layer_84">
</g>
<g id="Layer_83">
</g>
<g id="Layer_82">
</g>
<g id="Layer_81">
</g>
<g id="Layer_80">
</g>
<g id="Layer_79">
</g>
<g id="Layer_78">
</g>
<g id="Layer_77">
</g>
<g id="Layer_76">
</g>
<g id="Layer_75">
</g>
<g id="Layer_74">
</g>
<g id="Layer_73">
</g>
<g id="Layer_72">
</g>
<g id="Layer_71">
</g>
<g id="Layer_70">
</g>
<g id="Layer_69">
</g>
<g id="Layer_68">
</g>
<g id="Layer_67">
</g>
<g id="Layer_66">
</g>
<g id="Layer_65">
</g>
<g id="Layer_64">
</g>
<g id="Layer_63">
</g>
<g id="Layer_62">
</g>
<g id="Layer_61">
</g>
<g id="Layer_60">
</g>
<g id="Layer_59">
</g>
<g id="Layer_58">
</g>
<g id="Layer_57">
</g>
<g id="Layer_56">
</g>
<g id="Layer_55">
</g>
<g id="Layer_54">
</g>
<g id="Layer_53">
</g>
<g id="Layer_52">
</g>
<g id="Layer_51">
</g>
<g id="Layer_50">
</g>
<g id="Layer_49">
</g>
<g id="Layer_48">
</g>
<g id="Layer_47">
</g>
<g id="Layer_46">
</g>
<g id="Layer_45">
</g>
<g id="Layer_44">
</g>
<g id="Layer_43">
</g>
<g id="Layer_42">
</g>
<g id="Layer_41">
</g>
<g id="Layer_40">
</g>
<g id="Layer_39">
</g>
<g id="Layer_38">
</g>
<g id="Layer_37">
</g>
<g id="Layer_36">
</g>
<g id="Layer_35">
</g>
<g id="Layer_34">
</g>
<g id="Layer_33">
</g>
<g id="Layer_32">
</g>
<g id="Layer_31">
</g>
<g id="Layer_30">
</g>
<g id="Layer_29">
</g>
<g id="Layer_28">
</g>
<g id="Layer_27">
</g>
<g id="Layer_26">
</g>
<g id="Layer_25">
</g>
<g id="Layer_24">
</g>
<g id="Layer_23">
</g>
<g id="Layer_22">
</g>
<g id="Layer_21">
</g>
<g id="Layer_20">
</g>
<g id="Layer_19">
</g>
<g id="Layer_18">
</g>
<g id="Layer_17">
</g>
<g id="Layer_16">
</g>
<g id="Layer_15">
</g>
<g id="Layer_14">
</g>
<g id="Layer_13">
</g>
<g id="Layer_12">
</g>
<g id="Layer_11">
</g>
<g id="Layer_10">
</g>
<g id="Layer_9">
</g>
<g id="Layer_8">
</g>
<g id="Layer_7">
</g>
<g id="Layer_6">
</g>
<g id="Layer_5">
</g>
<g id="Layer_4">
	<g>
		<g>
			<path style="fill:#00A2F2;" d="M31.649,2c2.805,0,6.246,1.979,7.648,4.4l7.65,13.2c1.402,2.421,1.402,6.381,0,8.801l-7.65,13.2
				c-1.402,2.421-4.844,4.4-7.648,4.4H16.351c-2.805,0-6.248-1.979-7.65-4.4l-7.648-13.2c-1.402-2.421-1.402-6.381,0-8.801L8.7,6.4
				c1.402-2.421,4.846-4.4,7.65-4.4H31.649z"/>
			<path style="fill:#00A2F2;" d="M31.649,2c2.805,0,6.246,1.979,7.648,4.4l7.65,13.2c1.402,2.421,1.402,6.381,0,8.801l-7.65,13.2
				c-1.402,2.421-4.844,4.4-7.648,4.4H16.351c-2.805,0-6.248-1.979-7.65-4.4l-7.648-13.2c-1.402-2.421-1.402-6.381,0-8.801L8.7,6.4
				c1.402-2.421,4.846-4.4,7.65-4.4H31.649z"/>
		</g>
		<g id="g18086_3_" transform="matrix(4.6798804,0,0,4.6798804,-14628.123,-100339.87)">
			<g id="bag_4_" transform="translate(2886.7719,21269.267)">
				<g id="handles_4_">
					<path id="path205_3_" style="fill:#FFFFFF;" d="M244,173.934c-0.281,0.097-0.486,0.18-0.486,0.708v0.254l0.168-0.033v-0.22
						c-0.004-0.358,0.09-0.433,0.336-0.538C244.017,174.038,244.011,173.981,244,173.934L244,173.934z"/>
					<path id="path207_3_" style="fill:#FFFFFF;" d="M244.49,173.821c0.011,0.051,0.02,0.107,0.026,0.167
						c0.44-0.062,0.431,0.116,0.431,0.489v0.138l0.166-0.034v-0.104C245.113,173.898,245.021,173.743,244.49,173.821z"/>
					<path id="path209_3_" style="fill:#FFFFFF;" d="M242.756,175.046v-0.762c-0.005-0.472,0.242-0.616,0.699-0.722
						c0.688-0.159,0.732,0.278,0.732,0.556v0.646l0.169-0.034v-0.598c-0.002-0.526-0.168-0.92-0.934-0.749
						c-0.413,0.092-0.834,0.196-0.834,0.885v0.81L242.756,175.046L242.756,175.046z"/>
				</g>
				<path id="path211_3_" style="fill:#FFFFFF;" d="M245.956,174.616l-4.63,0.911v3.315l4.63,0.911l0.925-0.331v-4.475
					L245.956,174.616L245.956,174.616z M243.348,178.157l-1.027-0.143v-0.84h1.027V178.157z M243.348,177.047h-1.027v-0.772
					l1.027-0.143V177.047z M244.772,178.351l-1.295-0.186v-0.99h1.295V178.351z M244.772,177.047h-1.295v-0.923l1.295-0.187V177.047
					z"/>
			</g>
		</g>
	</g>
</g>
<g id="Layer_3">
</g>
<g id="Layer_2">
</g>
<g id="Layer_1">
</g>
<g id="nyt_x5F_exporter_x5F_info" style="display:none;">
</g>
</svg>
