<?xml version="1.0" encoding="iso-8859-1"?>
<!-- Generator: Adobe Illustrator 18.0.0, SVG Export Plug-In . SVG Version: 6.00 Build 0)  -->
<!DOCTYPE svg PUBLIC "-//W3C//DTD SVG 1.1//EN" "http://www.w3.org/Graphics/SVG/1.1/DTD/svg11.dtd">
<svg version="1.1" xmlns="http://www.w3.org/2000/svg" xmlns:xlink="http://www.w3.org/1999/xlink" x="0px" y="0px"
	 viewBox="0 0 48 48" style="enable-background:new 0 0 48 48;" xml:space="preserve">
<g id="Layer_620">
	<g>
		<g>
			<path style="fill:#A8C46A;" d="M31.649,2c2.805,0,6.248,1.979,7.65,4.4l7.648,13.199c1.402,2.421,1.402,6.381,0,8.802L39.3,41.6
				c-1.402,2.421-4.846,4.4-7.65,4.4H16.351c-2.805,0-6.246-1.979-7.648-4.4l-7.65-13.199c-1.402-2.421-1.402-6.381,0-8.802
				L8.702,6.4C10.105,3.979,13.546,2,16.351,2H31.649z"/>
			<path style="fill:#A8C46A;" d="M31.649,2c2.805,0,6.248,1.979,7.65,4.4l7.648,13.199c1.402,2.421,1.402,6.381,0,8.802L39.3,41.6
				c-1.402,2.421-4.846,4.4-7.65,4.4H16.351c-2.805,0-6.246-1.979-7.648-4.4l-7.65-13.199c-1.402-2.421-1.402-6.381,0-8.802
				L8.702,6.4C10.105,3.979,13.546,2,16.351,2H31.649z"/>
		</g>
		<g>
			<polygon style="fill:#FFFFFF;" points="8,34.656 20.106,36.408 20.106,24.828 8,24.828 			"/>
			<polygon style="fill:#FFFFFF;" points="21.76,36.648 38,39 38,24.828 21.76,24.828 			"/>
			<polygon style="fill:#FFFFFF;" points="21.76,23.174 38,23.174 38,9 21.76,11.352 			"/>
			<polygon style="fill:#FFFFFF;" points="20.106,11.592 8,13.346 8,23.174 20.106,23.174 			"/>
		</g>
	</g>
</g>
<g id="Layer_1">
</g>
</svg>
