<?xml version="1.0" encoding="iso-8859-1"?>
<!-- Generator: Adobe Illustrator 18.0.0, SVG Export Plug-In . SVG Version: 6.00 Build 0)  -->
<!DOCTYPE svg PUBLIC "-//W3C//DTD SVG 1.1//EN" "http://www.w3.org/Graphics/SVG/1.1/DTD/svg11.dtd">
<svg version="1.1" xmlns="http://www.w3.org/2000/svg" xmlns:xlink="http://www.w3.org/1999/xlink" x="0px" y="0px"
	 viewBox="0 0 48 48" style="enable-background:new 0 0 48 48;" xml:space="preserve">
<g id="Layer_590">
	<g>
		<g>
			<path style="fill:#2BB673;" d="M31.649,2c2.805,0,6.247,1.979,7.649,4.4l7.649,13.199c1.402,2.421,1.402,6.38,0,8.801
				L39.299,41.6c-1.402,2.421-4.845,4.4-7.649,4.4H16.351c-2.805,0-6.247-1.979-7.649-4.4L1.052,28.4
				c-1.402-2.421-1.402-6.38,0-8.801L8.701,6.4C10.104,3.979,13.546,2,16.351,2H31.649z"/>
			<path style="fill:none;" d="M31.649,2c2.805,0,6.247,1.979,7.649,4.4l7.649,13.199c1.402,2.421,1.402,6.38,0,8.801L39.299,41.6
				c-1.402,2.421-4.845,4.4-7.649,4.4H16.351c-2.805,0-6.247-1.979-7.649-4.4L1.052,28.4c-1.402-2.421-1.402-6.38,0-8.801L8.701,6.4
				C10.104,3.979,13.546,2,16.351,2H31.649z"/>
		</g>
		<g>
			
				<rect x="15.772" y="31.46" transform="matrix(-1 4.805644e-004 -4.805644e-004 -1 43.6315 65.4386)" style="fill:#FFFFFF;" width="12.072" height="2.529"/>
			<polygon style="fill:#FFFFFF;" points="31.397,8.433 33.459,20.099 36,19.665 33.937,8 			"/>
			<polygon style="fill:#FFFFFF;" points="28.133,28.215 16.115,27.129 15.881,29.647 27.898,30.733 			"/>
			<polygon style="fill:#FFFFFF;" points="28.928,24.915 17.272,21.841 16.603,24.283 28.257,27.357 			"/>
			<polygon style="fill:#FFFFFF;" points="30.449,22.022 20.054,16.008 18.742,18.185 29.141,24.2 			"/>
			<polygon style="fill:#FFFFFF;" points="24.068,11.894 30.869,21.676 32.999,20.251 26.198,10.468 			"/>
			<path style="fill:#FFFFFF;" d="M29.893,36.007H14.063v-10.34H12v12.322h0.022C12.022,38,12.623,38,12.623,38h19.313v-0.011
				c0.02,0,0.02-0.59,0.02-0.59V25.667h-2.063V36.007z"/>
		</g>
	</g>
</g>
<g id="Layer_1">
</g>
</svg>
