<?xml version="1.0" encoding="iso-8859-1"?>
<!-- Generator: Adobe Illustrator 18.0.0, SVG Export Plug-In . SVG Version: 6.00 Build 0)  -->
<!DOCTYPE svg PUBLIC "-//W3C//DTD SVG 1.1//EN" "http://www.w3.org/Graphics/SVG/1.1/DTD/svg11.dtd">
<svg version="1.1" xmlns="http://www.w3.org/2000/svg" xmlns:xlink="http://www.w3.org/1999/xlink" x="0px" y="0px"
	 viewBox="0 0 48 48" style="enable-background:new 0 0 48 48;" xml:space="preserve">
<g id="Layer_609">
	<g>
		<g>
			<path style="fill:#FF001A;" d="M31.649,2c2.805,0,6.247,1.979,7.649,4.4l7.649,13.199c1.402,2.421,1.402,6.381,0,8.802
				L39.299,41.6c-1.402,2.421-4.845,4.4-7.649,4.4H16.351c-2.805,0-6.247-1.979-7.649-4.4L1.052,28.401
				c-1.402-2.421-1.402-6.381,0-8.802L8.701,6.4C10.104,3.979,13.546,2,16.351,2H31.649z"/>
			<path style="fill:#FF001A;" d="M31.649,2c2.805,0,6.247,1.979,7.649,4.4l7.649,13.199c1.402,2.421,1.402,6.381,0,8.802
				L39.299,41.6c-1.402,2.421-4.845,4.4-7.649,4.4H16.351c-2.805,0-6.247-1.979-7.649-4.4L1.052,28.401
				c-1.402-2.421-1.402-6.381,0-8.802L8.701,6.4C10.104,3.979,13.546,2,16.351,2H31.649z"/>
		</g>
		<g>
			<path style="fill:#FFFFFF;" d="M13.113,9C11.392,9,10,10.342,10,12v14.999C10,33.614,15.582,39,22.444,39h3.113
				C32.418,39,38,33.951,38,27.751c0-6.205-4.185-11.25-9.331-11.25h-6.224c-1.72,0-3.111,1.341-3.111,3c0,1.655,1.391,3,3.111,3
				h6.224c1.436,0,3.109,2.291,3.109,5.25c0,2.893-2.791,5.249-6.22,5.249h-3.113c-3.429,0-6.22-2.693-6.22-6.001V12
				C16.224,10.342,14.829,9,13.113,9z"/>
		</g>
	</g>
</g>
<g id="Layer_1">
</g>
</svg>
