<?xml version="1.0" encoding="iso-8859-1"?>
<!-- Generator: Adobe Illustrator 18.0.0, SVG Export Plug-In . SVG Version: 6.00 Build 0)  -->
<!DOCTYPE svg PUBLIC "-//W3C//DTD SVG 1.1//EN" "http://www.w3.org/Graphics/SVG/1.1/DTD/svg11.dtd">
<svg version="1.1" xmlns="http://www.w3.org/2000/svg" xmlns:xlink="http://www.w3.org/1999/xlink" x="0px" y="0px"
	 viewBox="0 0 48 48" style="enable-background:new 0 0 48 48;" xml:space="preserve">
<g id="Layer_91">
</g>
<g id="Layer_90">
</g>
<g id="Layer_89">
</g>
<g id="Layer_88">
</g>
<g id="Layer_87">
</g>
<g id="Layer_86">
</g>
<g id="Layer_85">
</g>
<g id="Layer_84">
</g>
<g id="Layer_83">
</g>
<g id="Layer_82">
</g>
<g id="Layer_81">
</g>
<g id="Layer_80">
</g>
<g id="Layer_79">
</g>
<g id="Layer_78">
</g>
<g id="Layer_77">
</g>
<g id="Layer_76">
</g>
<g id="Layer_75">
</g>
<g id="Layer_74">
</g>
<g id="Layer_73">
</g>
<g id="Layer_72">
</g>
<g id="Layer_71">
</g>
<g id="Layer_70">
</g>
<g id="Layer_69">
</g>
<g id="Layer_68">
</g>
<g id="Layer_67">
</g>
<g id="Layer_66">
</g>
<g id="Layer_65">
</g>
<g id="Layer_64">
</g>
<g id="Layer_63">
</g>
<g id="Layer_62">
</g>
<g id="Layer_61">
</g>
<g id="Layer_60">
</g>
<g id="Layer_59">
</g>
<g id="Layer_58">
</g>
<g id="Layer_57">
</g>
<g id="Layer_56">
</g>
<g id="Layer_55">
</g>
<g id="Layer_54">
</g>
<g id="Layer_53">
</g>
<g id="Layer_52">
</g>
<g id="Layer_51">
</g>
<g id="Layer_50">
</g>
<g id="Layer_49">
</g>
<g id="Layer_48">
</g>
<g id="Layer_47">
</g>
<g id="Layer_46">
</g>
<g id="Layer_45">
</g>
<g id="Layer_44">
</g>
<g id="Layer_43">
</g>
<g id="Layer_42">
</g>
<g id="Layer_41">
</g>
<g id="Layer_40">
</g>
<g id="Layer_39">
</g>
<g id="Layer_38">
</g>
<g id="Layer_37">
</g>
<g id="Layer_36">
</g>
<g id="Layer_35">
</g>
<g id="Layer_34">
</g>
<g id="Layer_33">
</g>
<g id="Layer_32">
</g>
<g id="Layer_31">
</g>
<g id="Layer_30">
</g>
<g id="Layer_29">
</g>
<g id="Layer_28">
</g>
<g id="Layer_27">
</g>
<g id="Layer_26">
</g>
<g id="Layer_25">
</g>
<g id="Layer_24">
</g>
<g id="Layer_23">
</g>
<g id="Layer_22">
</g>
<g id="Layer_21">
</g>
<g id="Layer_20">
</g>
<g id="Layer_19">
	<g>
		<path style="fill:#F0E200;" d="M46.744,0H23.746C10.491,0,0,10.336,0,23.59v23C0,47.143,0.192,48,0.745,48h23.001
			C37,48,48,36.846,48,23.59v-23C48,0.037,47.297,0,46.744,0z"/>
		<path id="path12604_7_" style="fill:#FFFFFF;" d="M23.558,9.915c-1.816,0.012-3.694,0.489-5.166,1.641
			c-1.103,0.861-1.97,2.002-2.516,3.277c-0.001,0.003-0.002,0.006-0.002,0.009c-0.521,1.313-0.472,2.711-0.402,4.006
			c0,0.001,0,0.002,0,0.002c0.043,0.91,0.144,1.792,0.059,2.628c-0.007,0.033-0.007,0.041-0.012,0.06
			c-0.409,0.073-0.855,0.047-1.297-0.037c-0.002,0-0.005,0-0.007,0c-0.303-0.052-0.626-0.175-0.991-0.276
			c-0.006-0.002-0.012-0.003-0.019-0.005c-0.355-0.08-0.703,0.022-0.97,0.218c-0.003,0.002-0.008,0.005-0.012,0.007
			c-0.005,0.004-0.011,0.008-0.016,0.012c-0.217,0.142-0.515,0.382-0.531,0.797c-0.001,0.027,0.002,0.055,0.007,0.081
			c0.047,0.244,0.199,0.423,0.334,0.539c0.135,0.117,0.262,0.193,0.341,0.253c0.006,0.005,0.012,0.01,0.019,0.014
			c0.661,0.441,1.393,0.635,2.03,0.881c0.001,0,0.002,0,0.002,0c0.441,0.193,0.824,0.493,0.911,0.871
			c0.11,0.478-0.094,1.027-0.359,1.559c0,0,0,0.002,0,0.002c-0.717,1.412-1.781,2.64-3.089,3.539
			c-0.686,0.468-1.46,0.818-2.267,1.034c-0.011,0.003-0.022,0.007-0.033,0.012c-0.166,0.062-0.558,0.102-0.806,0.474
			c-0.018,0.026-0.032,0.054-0.042,0.084c-0.083,0.239,0.012,0.496,0.129,0.637c0.112,0.134,0.237,0.212,0.345,0.27
			c0.006,0.003,0.011,0.006,0.017,0.009c0.68,0.389,1.422,0.557,2.1,0.73c0.003,0.001,0.006,0.002,0.009,0.002
			c0.488,0.11,0.939,0.169,1.306,0.325c0.018,0.03,0.055,0.153,0.141,0.358c0.12,0.372,0.175,0.811,0.315,1.271
			c0.038,0.127,0.151,0.23,0.282,0.258c0.309,0.065,0.478-0.04,0.505-0.042c0.013-0.001,0.025-0.002,0.038-0.005
			c1.135-0.197,2.268-0.371,3.308-0.112c0.001,0,0.001,0,0.002,0c1.091,0.284,2.04,1.035,3.108,1.68
			c0.002,0.001,0.003,0.003,0.005,0.005v-0.002c0.709,0.445,1.529,0.881,2.476,0.913v0.002c0.003,0,0.006,0,0.009,0
			c0.715,0.04,1.417-0.005,2.103-0.051c0.004,0,0.008,0,0.012,0c0.587-0.057,1.156-0.251,1.654-0.567
			c0.007-0.004,0.014-0.008,0.021-0.012c1.124-0.637,2.122-1.404,3.216-1.885c0.002-0.001,0.003-0.002,0.005-0.002
			c0.355-0.127,0.798-0.12,1.292-0.153c0.005,0,0.009,0,0.014,0c0.906-0.028,1.814,0.02,2.713,0.139
			c0.031,0.004,0.063,0.004,0.094,0c0.118-0.014,0.247-0.092,0.31-0.172c0.063-0.08,0.081-0.144,0.094-0.191
			c0.026-0.092,0.05-0.136,0.007-0.06c0.014-0.023,0.025-0.049,0.033-0.074c0.165-0.541,0.255-1.031,0.521-1.336
			c0.12-0.116,0.326-0.174,0.559-0.17c0.017,0,0.035,0,0.052-0.002c0.782-0.092,1.489-0.371,2.159-0.609
			c0.008-0.003,0.016-0.006,0.023-0.009c0.249-0.107,0.62-0.23,0.874-0.583c0.001-0.002,0.003-0.003,0.005-0.005l-0.002-0.002
			c0.214-0.295,0.115-0.701-0.188-0.885l0.005-0.005c-0.009-0.007-0.019-0.01-0.028-0.016c-0.003-0.001-0.005-0.003-0.007-0.005
			v0.002c-0.363-0.231-0.726-0.263-0.956-0.346c-0.005-0.002-0.009-0.003-0.014-0.005c-1.555-0.493-2.9-1.556-3.905-2.849
			c-0.558-0.721-1.029-1.504-1.341-2.34c-0.001-0.003-0.001-0.006-0.002-0.009c-0.122-0.363-0.128-0.759,0.052-0.999
			c0.002-0.002,0.005-0.005,0.007-0.007c0.281-0.399,0.796-0.656,1.346-0.858c0.002-0.001,0.005-0.002,0.007-0.002
			c0.608-0.209,1.272-0.453,1.821-0.934c0.002-0.002,0.005-0.005,0.007-0.007c0.085-0.079,0.187-0.183,0.263-0.337
			c0.076-0.154,0.113-0.395,0.012-0.604c0-0.001,0-0.002,0-0.002c-0.158-0.322-0.434-0.488-0.639-0.609c0,0-0.002,0-0.002,0
			c-0.343-0.198-0.743-0.211-1.09-0.1c-0.001,0-0.002,0-0.002,0c-0.002,0.001-0.005,0.002-0.007,0.002
			c-0.375,0.113-0.681,0.248-0.965,0.283c-0.006,0.001-0.013,0.003-0.019,0.005c-0.404,0.071-0.795,0.088-1.099-0.023
			c-0.003-0.045-0.004-0.133-0.016-0.242h0.002c-0.022-0.663,0.034-1.346,0.045-2.054c0-0.001,0-0.003,0-0.005
			c0.031-1.076,0.075-2.183-0.085-3.298c-0.001-0.005-0.001-0.011-0.002-0.016c-0.347-1.88-1.555-3.5-3.087-4.578
			c-1.113-0.782-2.435-1.218-3.778-1.341c-0.001,0-0.002,0-0.002,0C24.456,9.926,24.006,9.91,23.558,9.915L23.558,9.915z"/>
	</g>
</g>
<g id="Layer_18">
</g>
<g id="Layer_17">
</g>
<g id="Layer_16">
</g>
<g id="Layer_15">
</g>
<g id="Layer_14">
</g>
<g id="Layer_13">
</g>
<g id="Layer_12">
</g>
<g id="Layer_11">
</g>
<g id="Layer_10">
</g>
<g id="Layer_9">
</g>
<g id="Layer_8">
</g>
<g id="Layer_7">
</g>
<g id="Layer_6">
</g>
<g id="Layer_5">
</g>
<g id="Layer_4">
</g>
<g id="Layer_3">
</g>
<g id="Layer_2">
</g>
<g id="Layer_1" style="display:none;">
</g>
<g id="nyt_x5F_exporter_x5F_info" style="display:none;">
</g>
</svg>
