<?xml version="1.0" encoding="iso-8859-1"?>
<!-- Generator: Adobe Illustrator 18.0.0, SVG Export Plug-In . SVG Version: 6.00 Build 0)  -->
<!DOCTYPE svg PUBLIC "-//W3C//DTD SVG 1.1//EN" "http://www.w3.org/Graphics/SVG/1.1/DTD/svg11.dtd">
<svg version="1.1" xmlns="http://www.w3.org/2000/svg" xmlns:xlink="http://www.w3.org/1999/xlink" x="0px" y="0px"
	 viewBox="0 0 48 48" style="enable-background:new 0 0 48 48;" xml:space="preserve">
<g id="Layer_332">
	<g>
		<path style="fill:#83D1ED;" d="M46.522,0H23.524C10.27,0,0,11.236,0,24.49v23C0,48.042-0.029,48,0.524,48h23
			C36.777,48,48,37.746,48,24.49v-23C48,0.937,47.074,0,46.522,0z"/>
		<g>
			<polygon style="fill:#FFFFFF;" points="9.024,25.617 17.848,31.398 24.024,26.227 15.125,20.712 			"/>
			<polygon style="fill:#FFFFFF;" points="17.848,10.029 9.024,15.808 15.125,20.712 24.024,15.2 			"/>
			<polygon style="fill:#FFFFFF;" points="30.198,10.029 24.024,15.2 32.922,20.712 39.024,15.808 			"/>
			<polygon style="fill:#FFFFFF;" points="30.198,31.398 39.024,25.617 32.922,20.712 24.024,26.227 			"/>
			<polygon style="fill:#FFFFFF;" points="32.885,32.708 32.885,30.759 30.235,32.496 24.043,27.339 17.848,32.496 15.198,30.759 
				15.198,32.708 24.043,38.028 			"/>
		</g>
	</g>
</g>
<g id="Layer_1">
</g>
</svg>
