<?xml version="1.0" encoding="iso-8859-1"?>
<!-- Generator: Adobe Illustrator 18.0.0, SVG Export Plug-In . SVG Version: 6.00 Build 0)  -->
<!DOCTYPE svg PUBLIC "-//W3C//DTD SVG 1.1//EN" "http://www.w3.org/Graphics/SVG/1.1/DTD/svg11.dtd">
<svg version="1.1" xmlns="http://www.w3.org/2000/svg" xmlns:xlink="http://www.w3.org/1999/xlink" x="0px" y="0px"
	 viewBox="0 0 48 48" style="enable-background:new 0 0 48 48;" xml:space="preserve">
<g id="Layer_327">
	<g>
		<path style="fill:#517FA4;" d="M47.436,0H24.438C11.184,0,0,11.236,0,24.49v23C0,48.042,0.885,48,1.438,48h23
			C37.692,48,48,37.746,48,24.49v-23C48,0.937,47.989,0,47.436,0z"/>
		<g>
			<path style="fill:#FFFFFF;" d="M33.219,9.029H14.815c-3.197,0-5.797,2.6-5.797,5.797v6.125v12.281c0,3.197,2.6,5.797,5.797,5.797
				h18.404c3.197,0,5.799-2.6,5.799-5.797V20.95v-6.125C39.018,11.628,36.417,9.029,33.219,9.029z M34.883,12.488l0.662-0.004v0.662
				v4.422l-5.066,0.017l-0.018-5.084L34.883,12.488z M19.737,20.95c0.961-1.33,2.519-2.201,4.281-2.201s3.32,0.871,4.281,2.201
				c0.625,0.867,1,1.93,1,3.078c0,2.91-2.371,5.279-5.281,5.279c-2.912,0-5.281-2.369-5.281-5.279
				C18.737,22.88,19.112,21.818,19.737,20.95z M36.096,33.232c0,1.586-1.291,2.875-2.877,2.875H14.815
				c-1.586,0-2.875-1.289-2.875-2.875V20.95h4.478c-0.387,0.951-0.603,1.99-0.603,3.078c0,4.523,3.68,8.203,8.203,8.203
				c4.523,0,8.203-3.68,8.203-8.203c0-1.088-0.219-2.127-0.605-3.078h4.48V33.232z"/>
		</g>
	</g>
</g>
<g id="Layer_1">
</g>
</svg>
