<?xml version="1.0" encoding="iso-8859-1"?>
<!-- Generator: Adobe Illustrator 18.0.0, SVG Export Plug-In . SVG Version: 6.00 Build 0)  -->
<!DOCTYPE svg PUBLIC "-//W3C//DTD SVG 1.1//EN" "http://www.w3.org/Graphics/SVG/1.1/DTD/svg11.dtd">
<svg version="1.1" xmlns="http://www.w3.org/2000/svg" xmlns:xlink="http://www.w3.org/1999/xlink" x="0px" y="0px"
	 viewBox="0 0 48 48" style="enable-background:new 0 0 48 48;" xml:space="preserve">
<g id="Layer_334">
	<g>
		<path style="fill:#2D9AD2;" d="M47.137,0H24.139C10.885,0,0,11.236,0,24.49v23C0,48.042,0.587,48,1.139,48h23
			C37.393,48,48,37.746,48,24.49v-23C48,0.939,47.69,0,47.137,0z"/>
		<g>
			<path style="fill:#FFFFFF;" d="M13.167,34.028h5.416c0,0,5.91-0.219,5.91-6.195c0,0,0.258-4.864-3.484-4.864
				c0,0,2.838-0.222,2.838-3.725c0-3.505-2.322-5.216-5.264-5.216h-5.416h-0.16H9.135v20h3.871H13.167z M13.167,17.511h4.719h0.697
				c0,0,1.314,0,1.314,2.035c0,2.037-0.773,2.333-1.65,2.333h-5.08V17.511z M13.167,24.899h5.416c0,0,1.959-0.029,1.959,2.689
				c0,2.29-1.463,2.527-2.232,2.545c-0.144,0.002-0.266,0-0.348,0h-4.795V24.899z"/>
			<path style="fill:#FFFFFF;" d="M32.376,19.012c-7.154,0-7.148,7.524-7.148,7.524s-0.492,7.487,7.148,7.487
				c0,0,6.367,0.382,6.367-5.209h-3.275c0,0,0.109,2.107-2.982,2.107c0,0-3.275,0.23-3.275-3.408h9.641
				C38.85,27.512,39.905,19.012,32.376,19.012z M29.173,24.899c0,0,0.4-3.02,3.275-3.02s2.836,3.02,2.836,3.02H29.173z"/>
			<rect x="28.372" y="15.182" style="fill:#FFFFFF;" width="7.676" height="1.847"/>
		</g>
	</g>
</g>
<g id="Layer_1">
</g>
</svg>
