<?xml version="1.0" encoding="iso-8859-1"?>
<!-- Generator: Adobe Illustrator 18.0.0, SVG Export Plug-In . SVG Version: 6.00 Build 0)  -->
<!DOCTYPE svg PUBLIC "-//W3C//DTD SVG 1.1//EN" "http://www.w3.org/Graphics/SVG/1.1/DTD/svg11.dtd">
<svg version="1.1" xmlns="http://www.w3.org/2000/svg" xmlns:xlink="http://www.w3.org/1999/xlink" x="0px" y="0px"
	 viewBox="0 0 48 48" style="enable-background:new 0 0 48 48;" xml:space="preserve">
<g id="Layer_339">
	<g>
		<path style="fill:#B685BF;" d="M47.072,0H24.074C10.819,0,0,11.236,0,24.49v23C0,48.042,0.52,48,1.073,48h23.001
			C37.328,48,48,37.746,48,24.49v-23C48,0.939,47.624,0,47.072,0z"/>
		<g>
			<path style="fill:#FFFFFF;" d="M18.779,10.011c0.398,0.36,10.912,9.924,11.424,10.39c0-0.691,0-9.811,0-10.024
				c-1.959-0.89-4.038-1.348-6.186-1.348C22.228,9.029,20.471,9.375,18.779,10.011z"/>
			<path style="fill:#FFFFFF;" d="M16.296,36.899c0-0.587,0-12.232,0-12.924c-0.501,0.456-6.025,5.486-6.198,5.644
				C11.301,32.641,13.495,35.2,16.296,36.899z"/>
			<path style="fill:#FFFFFF;" d="M22.859,15.859c-0.253-0.229-5.505-5.006-5.678-5.163c-5.035,2.589-8.163,7.697-8.163,13.367
				c0,1.288,0.193,2.601,0.546,3.904C9.968,27.595,22.599,16.097,22.859,15.859z"/>
			<path style="fill:#FFFFFF;" d="M17.873,37.766c1.523,0.687,3.121,1.11,4.762,1.262h2.751c5.183-0.483,9.808-3.685,12.107-8.435
				c-0.542,0-19.298,0-19.62,0C17.873,30.907,17.873,37.551,17.873,37.766z"/>
			<path style="fill:#FFFFFF;" d="M39.018,24.063c0-5.225-2.771-10.102-7.234-12.823c0,0.595,0,17.451,0,17.77
				c0.308,0,6.145,0,6.384,0C38.724,27.407,39.018,25.744,39.018,24.063z"/>
		</g>
	</g>
</g>
<g id="Layer_1">
</g>
</svg>
