<?xml version="1.0" encoding="iso-8859-1"?>
<!-- Generator: Adobe Illustrator 18.0.0, SVG Export Plug-In . SVG Version: 6.00 Build 0)  -->
<!DOCTYPE svg PUBLIC "-//W3C//DTD SVG 1.1//EN" "http://www.w3.org/Graphics/SVG/1.1/DTD/svg11.dtd">
<svg version="1.1" xmlns="http://www.w3.org/2000/svg" xmlns:xlink="http://www.w3.org/1999/xlink" x="0px" y="0px"
	 viewBox="0 0 48 48" style="enable-background:new 0 0 48 48;" xml:space="preserve">
<g id="Layer_91">
</g>
<g id="Layer_90">
</g>
<g id="Layer_89">
</g>
<g id="Layer_88">
</g>
<g id="Layer_87">
</g>
<g id="Layer_86">
</g>
<g id="Layer_85">
</g>
<g id="Layer_84">
</g>
<g id="Layer_83">
</g>
<g id="Layer_82">
</g>
<g id="Layer_81">
</g>
<g id="Layer_80">
</g>
<g id="Layer_79">
</g>
<g id="Layer_78">
</g>
<g id="Layer_77">
</g>
<g id="Layer_76">
</g>
<g id="Layer_75">
</g>
<g id="Layer_74">
</g>
<g id="Layer_73">
</g>
<g id="Layer_72">
</g>
<g id="Layer_71">
</g>
<g id="Layer_70">
</g>
<g id="Layer_69">
</g>
<g id="Layer_68">
</g>
<g id="Layer_67">
</g>
<g id="Layer_66">
</g>
<g id="Layer_65">
</g>
<g id="Layer_64">
</g>
<g id="Layer_63">
</g>
<g id="Layer_62">
</g>
<g id="Layer_61">
</g>
<g id="Layer_60">
</g>
<g id="Layer_59">
</g>
<g id="Layer_58">
</g>
<g id="Layer_57">
</g>
<g id="Layer_56">
</g>
<g id="Layer_55">
</g>
<g id="Layer_54">
</g>
<g id="Layer_53">
</g>
<g id="Layer_52">
</g>
<g id="Layer_51">
</g>
<g id="Layer_50">
</g>
<g id="Layer_49">
</g>
<g id="Layer_48">
</g>
<g id="Layer_47">
</g>
<g id="Layer_46">
</g>
<g id="Layer_45">
</g>
<g id="Layer_44">
</g>
<g id="Layer_43">
</g>
<g id="Layer_42">
</g>
<g id="Layer_41">
</g>
<g id="Layer_40">
</g>
<g id="Layer_39">
</g>
<g id="Layer_38">
</g>
<g id="Layer_37">
</g>
<g id="Layer_36">
</g>
<g id="Layer_35">
</g>
<g id="Layer_34">
</g>
<g id="Layer_33">
</g>
<g id="Layer_32">
</g>
<g id="Layer_31">
</g>
<g id="Layer_30">
</g>
<g id="Layer_29">
</g>
<g id="Layer_28">
</g>
<g id="Layer_27">
</g>
<g id="Layer_26">
</g>
<g id="Layer_25">
</g>
<g id="Layer_24">
</g>
<g id="Layer_23">
</g>
<g id="Layer_22">
</g>
<g id="Layer_21">
</g>
<g id="Layer_20">
</g>
<g id="Layer_19">
</g>
<g id="Layer_18">
</g>
<g id="Layer_17">
</g>
<g id="Layer_16">
</g>
<g id="Layer_15">
</g>
<g id="Layer_14">
</g>
<g id="Layer_13">
</g>
<g id="Layer_12">
</g>
<g id="Layer_11">
</g>
<g id="Layer_10">
</g>
<g id="Layer_9">
</g>
<g id="Layer_8">
</g>
<g id="Layer_7">
	<g>
		<path style="fill:#00AAF0;" d="M46.381,0H23.383C10.129,0,0,10.336,0,23.59v23C0,47.143-0.17,48,0.383,48h23
			C36.637,48,48,36.846,48,23.59v-23C48,0.039,46.934,0,46.381,0z"/>
		<path id="MSN_Messenger_7_" style="fill:#FFFFFF;" d="M8.729,26.518c0.497-4.516,4.347-6.113,4.91-6.323
			c-0.957-0.738-1.569-1.868-1.569-3.134c0-2.224,1.886-4.026,4.214-4.026c2.327,0,4.214,1.802,4.214,4.026
			c0,1.254-0.601,2.375-1.543,3.114c0.788,0.271,1.562,0.676,2.255,1.205c-1.832,0.893-5.864,3.466-6.476,9.02
			c0,0.047,0,0.092,0,0.137c-3.543-0.217-3.905-1.153-3.905-1.153v-0.001c-0.225-0.213-0.4-0.475-0.507-0.802
			c-0.516-0.116-0.841-0.419-0.841-0.419S8.69,27.876,8.729,26.518L8.729,26.518z M23.501,21.522
			c-0.836,0.312-6.538,2.678-7.276,9.37c-0.06,2.012,1.113,2.437,1.113,2.437s0,0,0,0.001c0,0,0.482,0.448,1.248,0.62
			c0.158,0.484,0.416,0.872,0.751,1.188v0.001c0,0,0.562,1.462,6.209,1.732c0.084,0.014,0.166,0.027,0.248,0.042
			c0.468,0,0.936,0,1.404,0c0.176,0,0.356,0.001,0.54,0c0.539,0,1.076,0,1.614,0c0.139-0.025,0.28-0.047,0.422-0.07
			c5.803-0.376,6.414-2.144,6.414-2.144v-0.002c0.154-0.221,0.282-0.468,0.374-0.749c2.641-0.509,2.432-3.573,1.642-5.927
			c-1.099-3.268-3.894-5.52-6.825-6.53c1.395-1.094,2.286-2.754,2.286-4.613c0-3.295-2.796-5.965-6.244-5.965
			c-3.448,0-6.244,2.671-6.244,5.965C21.177,18.756,22.084,20.429,23.501,21.522L23.501,21.522z"/>
	</g>
</g>
<g id="Layer_6">
</g>
<g id="Layer_5">
</g>
<g id="Layer_4">
</g>
<g id="Layer_3">
</g>
<g id="Layer_2">
</g>
<g id="Layer_1" style="display:none;">
</g>
<g id="nyt_x5F_exporter_x5F_info" style="display:none;">
</g>
</svg>
