<?xml version="1.0" encoding="iso-8859-1"?>
<!-- Generator: Adobe Illustrator 18.0.0, SVG Export Plug-In . SVG Version: 6.00 Build 0)  -->
<!DOCTYPE svg PUBLIC "-//W3C//DTD SVG 1.1//EN" "http://www.w3.org/Graphics/SVG/1.1/DTD/svg11.dtd">
<svg version="1.1" xmlns="http://www.w3.org/2000/svg" xmlns:xlink="http://www.w3.org/1999/xlink" x="0px" y="0px"
	 viewBox="0 0 48 48" style="enable-background:new 0 0 48 48;" xml:space="preserve">
<g id="Layer_331">
	<g>
		<path style="fill:#A8C46A;" d="M46.905,0H23.907C10.653,0,0,11.236,0,24.49v23C0,48.042,0.354,48,0.907,48h23
			C37.161,48,48,37.746,48,24.49v-23C48,0.937,47.458,0,46.905,0z"/>
		<g>
			<polygon style="fill:#FFFFFF;" points="9.018,34.685 21.124,36.437 21.124,24.857 9.018,24.857 			"/>
			<polygon style="fill:#FFFFFF;" points="22.778,36.677 39.018,39.028 39.018,24.857 22.778,24.857 			"/>
			<polygon style="fill:#FFFFFF;" points="22.778,23.202 39.018,23.202 39.018,9.029 22.778,11.38 			"/>
			<polygon style="fill:#FFFFFF;" points="21.124,11.62 9.018,13.374 9.018,23.202 21.124,23.202 			"/>
		</g>
	</g>
</g>
<g id="Layer_1">
</g>
</svg>
