<?xml version="1.0" encoding="iso-8859-1"?>
<!-- Generator: Adobe Illustrator 18.0.0, SVG Export Plug-In . SVG Version: 6.00 Build 0)  -->
<!DOCTYPE svg PUBLIC "-//W3C//DTD SVG 1.1//EN" "http://www.w3.org/Graphics/SVG/1.1/DTD/svg11.dtd">
<svg version="1.1" xmlns="http://www.w3.org/2000/svg" xmlns:xlink="http://www.w3.org/1999/xlink" x="0px" y="0px"
	 viewBox="0 0 48 48" style="enable-background:new 0 0 48 48;" xml:space="preserve">
<g id="Layer_311">
	<g>
		<path style="fill:#7197BF;" d="M47.436,0H24.438C11.184,0,0,10.847,0,24.101v23C0,47.654,0.885,48,1.438,48h23
			C37.692,48,48,37.357,48,24.101v-23C48,0.549,47.989,0,47.436,0z"/>
		<g>
			<path style="fill:#FFFFFF;" d="M14.288,39.035h5.267v-13.64h2.637h2.635h2.633v13.64h5.27v-13.64H38v-5.452h-5.271v-2.725
				c0-1.609,0.963-2.791,1.826-2.791h4.463V9.035h-4.463c-3.912,0-7.096,3.67-7.096,8.183v2.725h-2.633h-2.635h-2.637v-2.725
				c0-1.609,0.963-2.791,1.828-2.791h4.461V9.035h-4.461c-3.914,0-7.096,3.67-7.096,8.183v2.725h-5.27v5.452h5.27V39.035z"/>
		</g>
	</g>
</g>
<g id="Layer_1">
</g>
</svg>
