<?xml version="1.0" encoding="iso-8859-1"?>
<!-- Generator: Adobe Illustrator 18.0.0, SVG Export Plug-In . SVG Version: 6.00 Build 0)  -->
<!DOCTYPE svg PUBLIC "-//W3C//DTD SVG 1.1//EN" "http://www.w3.org/Graphics/SVG/1.1/DTD/svg11.dtd">
<svg version="1.1" xmlns="http://www.w3.org/2000/svg" xmlns:xlink="http://www.w3.org/1999/xlink" x="0px" y="0px"
	 viewBox="0 0 48 48" style="enable-background:new 0 0 48 48;" xml:space="preserve">
<g id="Layer_302">
	<g>
		<path style="fill:#3777E3;" d="M47.436,0H24.438C11.184,0,0,10.457,0,23.711v23C0,47.263,0.885,48,1.438,48h23
			C37.692,48,48,36.966,48,23.711v-23C48,0.16,47.989,0,47.436,0z"/>
		<g>
			<polygon style="fill:#FFFFFF;" points="19.403,30.035 15.256,36.668 15.01,37.035 15.504,37.035 34.457,37.035 34.625,37.035 
				34.707,36.913 39.018,30.035 			"/>
			<polygon style="fill:#FFFFFF;" points="29.295,11.177 29.211,11.035 29.045,11.037 20.86,11.068 20.366,11.071 20.612,11.493 
				30.09,27.687 30.174,27.83 30.34,27.83 38.524,27.795 39.018,27.793 38.77,27.371 			"/>
			<polygon style="fill:#FFFFFF;" points="23.282,19.454 23.196,19.311 19.075,12.336 18.825,11.915 18.579,12.337 9.102,28.531 
				9.018,28.674 9.104,28.815 13.225,35.792 13.473,36.214 13.721,35.792 23.198,19.596 			"/>
		</g>
	</g>
</g>
<g id="Layer_1">
</g>
</svg>
