<?xml version="1.0" encoding="iso-8859-1"?>
<!-- Generator: Adobe Illustrator 18.0.0, SVG Export Plug-In . SVG Version: 6.00 Build 0)  -->
<!DOCTYPE svg PUBLIC "-//W3C//DTD SVG 1.1//EN" "http://www.w3.org/Graphics/SVG/1.1/DTD/svg11.dtd">
<svg version="1.1" xmlns="http://www.w3.org/2000/svg" xmlns:xlink="http://www.w3.org/1999/xlink" x="0px" y="0px"
	 viewBox="0 0 48 48" style="enable-background:new 0 0 48 48;" xml:space="preserve">
<g id="Layer_328">
	<g>
		<path style="fill:#98BF24;" d="M47.053,0H24.055C10.801,0,0,11.236,0,24.49v23C0,48.042,0.503,48,1.055,48h23
			C37.309,48,48,37.746,48,24.49v-23C48,0.937,47.606,0,47.053,0z"/>
		<g>
			<path style="fill:#FFFFFF;" d="M28.087,11.542l0.332-0.492l0.328-0.482l0.737-1.086c0.089-0.135,0.054-0.314-0.082-0.404
				c-0.137-0.088-0.32-0.053-0.409,0.082l-0.791,1.164l-0.332,0.49l-0.338,0.496c-1.065-0.408-2.258-0.635-3.514-0.635
				s-2.447,0.226-3.514,0.635l-0.338-0.496l-0.33-0.49l-0.791-1.164c-0.091-0.133-0.274-0.17-0.411-0.082
				c-0.133,0.09-0.171,0.269-0.079,0.404l0.735,1.086l0.328,0.482l0.334,0.492c-2.509,1.146-4.206,3.32-4.206,5.81h16.546
				C32.291,14.862,30.594,12.688,28.087,11.542z M20.474,15.03c-0.491,0-0.887-0.391-0.887-0.871c0-0.482,0.396-0.871,0.887-0.871
				c0.489,0,0.885,0.389,0.885,0.871C21.358,14.64,20.963,15.03,20.474,15.03z M27.564,15.03c-0.491,0-0.887-0.391-0.887-0.871
				c0-0.482,0.396-0.871,0.887-0.871c0.489,0,0.887,0.389,0.887,0.871C28.451,14.64,28.053,15.03,27.564,15.03z"/>
			<path style="fill:#FFFFFF;" d="M32.291,31.288V21.143v-1.182v-1.449h-0.127h-16.29h-0.129v1.449v1.182v10.145
				c0,1.014,0.839,1.84,1.872,1.84h1.35c-0.044,0.152-0.072,0.314-0.072,0.482v0.096v0.582v3c0,0.961,0.795,1.74,1.775,1.74
				c0.978,0,1.773-0.779,1.773-1.74v-3v-0.582V33.61c0-0.168-0.026-0.33-0.072-0.482h3.292c-0.044,0.152-0.07,0.314-0.07,0.482
				v0.096v0.582v3c0,0.961,0.795,1.74,1.773,1.74c0.978,0,1.773-0.779,1.773-1.74v-3v-0.582V33.61c0-0.168-0.026-0.33-0.072-0.482
				h1.352C31.452,33.128,32.291,32.302,32.291,31.288z"/>
			<path style="fill:#FFFFFF;" d="M11.018,20.255v7.453c0,0.961,0.793,1.74,1.773,1.74c0.978,0,1.773-0.779,1.773-1.74v-7.453
				c0-0.963-0.795-1.742-1.773-1.742C11.811,18.513,11.018,19.292,11.018,20.255z"/>
			<path style="fill:#FFFFFF;" d="M33.474,20.255v7.453c0,0.961,0.793,1.74,1.771,1.74c0.98,0,1.773-0.779,1.773-1.74v-7.453
				c0-0.963-0.793-1.742-1.773-1.742C34.267,18.513,33.474,19.292,33.474,20.255z"/>
		</g>
	</g>
</g>
<g id="Layer_1">
</g>
</svg>
