<?xml version="1.0" encoding="iso-8859-1"?>
<!-- Generator: Adobe Illustrator 18.0.0, SVG Export Plug-In . SVG Version: 6.00 Build 0)  -->
<!DOCTYPE svg PUBLIC "-//W3C//DTD SVG 1.1//EN" "http://www.w3.org/Graphics/SVG/1.1/DTD/svg11.dtd">
<svg version="1.1" xmlns="http://www.w3.org/2000/svg" xmlns:xlink="http://www.w3.org/1999/xlink" x="0px" y="0px"
	 viewBox="0 0 48 48" style="enable-background:new 0 0 48 48;" xml:space="preserve">
<g id="Layer_91">
</g>
<g id="Layer_90">
</g>
<g id="Layer_89">
</g>
<g id="Layer_88">
</g>
<g id="Layer_87">
</g>
<g id="Layer_86">
</g>
<g id="Layer_85">
</g>
<g id="Layer_84">
</g>
<g id="Layer_83">
</g>
<g id="Layer_82">
</g>
<g id="Layer_81">
</g>
<g id="Layer_80">
</g>
<g id="Layer_79">
</g>
<g id="Layer_78">
</g>
<g id="Layer_77">
</g>
<g id="Layer_76">
</g>
<g id="Layer_75">
</g>
<g id="Layer_74">
</g>
<g id="Layer_73">
</g>
<g id="Layer_72">
</g>
<g id="Layer_71">
</g>
<g id="Layer_70">
</g>
<g id="Layer_69">
</g>
<g id="Layer_68">
</g>
<g id="Layer_67">
</g>
<g id="Layer_66">
</g>
<g id="Layer_65">
</g>
<g id="Layer_64">
</g>
<g id="Layer_63">
</g>
<g id="Layer_62">
</g>
<g id="Layer_61">
</g>
<g id="Layer_60">
</g>
<g id="Layer_59">
</g>
<g id="Layer_58">
</g>
<g id="Layer_57">
</g>
<g id="Layer_56">
</g>
<g id="Layer_55">
</g>
<g id="Layer_54">
</g>
<g id="Layer_53">
</g>
<g id="Layer_52">
</g>
<g id="Layer_51">
</g>
<g id="Layer_50">
</g>
<g id="Layer_49">
</g>
<g id="Layer_48">
</g>
<g id="Layer_47">
</g>
<g id="Layer_46">
</g>
<g id="Layer_45">
</g>
<g id="Layer_44">
</g>
<g id="Layer_43">
</g>
<g id="Layer_42">
</g>
<g id="Layer_41">
</g>
<g id="Layer_40">
</g>
<g id="Layer_39">
</g>
<g id="Layer_38">
</g>
<g id="Layer_37">
</g>
<g id="Layer_36">
</g>
<g id="Layer_35">
</g>
<g id="Layer_34">
</g>
<g id="Layer_33">
</g>
<g id="Layer_32">
</g>
<g id="Layer_31">
</g>
<g id="Layer_30">
</g>
<g id="Layer_29">
</g>
<g id="Layer_28">
</g>
<g id="Layer_27">
</g>
<g id="Layer_26">
</g>
<g id="Layer_25">
</g>
<g id="Layer_24">
</g>
<g id="Layer_23">
</g>
<g id="Layer_22">
</g>
<g id="Layer_21">
</g>
<g id="Layer_20">
</g>
<g id="Layer_19">
</g>
<g id="Layer_18">
</g>
<g id="Layer_17">
</g>
<g id="Layer_16">
</g>
<g id="Layer_15">
</g>
<g id="Layer_14">
</g>
<g id="Layer_13">
</g>
<g id="Layer_12">
</g>
<g id="Layer_11">
</g>
<g id="Layer_10">
</g>
<g id="Layer_9">
</g>
<g id="Layer_8">
</g>
<g id="Layer_7">
</g>
<g id="Layer_6">
</g>
<g id="Layer_5">
</g>
<g id="Layer_4">
	<g>
		<path style="fill:#82BF00;" d="M46.493,0H23.495C10.241,0,0,10.336,0,23.59v23C0,47.143-0.058,48,0.495,48h23
			C36.749,48,48,36.846,48,23.59v-23C48,0.039,47.046,0,46.493,0z"/>
		<path id="path3797_7_" style="fill:#FFFFFF;" d="M23.996,8.916c-1.666-0.026-3.354,0.216-4.914,0.728
			c-1.363,0.447-2.546,0.931-2.633,1.075c-0.087,0.143,0.825,0.529,2.029,0.862c1.205,0.333,2.818,0.991,3.587,1.455
			c1.753,1.059,1.684,1.055,3.06,0.19c1.568-0.985,5.474-2.204,6.373-1.981c0.404,0.1-0.268-0.314-1.492-0.929
			C28.238,9.426,26.138,8.949,23.996,8.916z M33.451,12.352l-1.283,0.705c-0.71,0.388-2.086,1.449-3.049,2.351l-1.744,1.634
			l1.952,2.485c4.041,5.128,6.268,9.526,6.307,12.436l0.022,1.388l1.02-1.556c1.574-2.399,2.136-4.856,1.996-8.664
			c-0.104-2.839-0.273-3.621-1.239-5.619c-0.617-1.275-1.759-2.957-2.545-3.739L33.451,12.352z M14.278,12.576
			c-0.274-0.01-0.513,0.115-0.91,0.38c-1.101,0.736-3.124,3.875-3.982,6.179c-1.385,3.72-0.633,9.448,1.689,12.929
			c0.915,1.372,1.119,1.514,0.823,0.56c-0.588-1.891,2.447-8.119,6.395-13.108l1.974-2.474l-1.843-1.679
			c-1.009-0.922-2.366-1.971-3.016-2.328C14.861,12.734,14.552,12.586,14.278,12.576z M23.689,20.378l-2.479,2.194
			c-4.418,3.89-8.457,9.156-8.457,11.037c0,1.405,3.974,4.007,7.535,4.936c3.794,0.99,9.119-0.073,12.372-2.463
			c2.698-1.981,2.779-2.676,0.746-5.809c-1.253-1.931-6.848-7.856-8.599-9.1L23.689,20.378z"/>
	</g>
</g>
<g id="Layer_3">
</g>
<g id="Layer_2">
</g>
<g id="Layer_1" style="display:none;">
</g>
<g id="nyt_x5F_exporter_x5F_info" style="display:none;">
</g>
</svg>
