<?xml version="1.0" encoding="iso-8859-1"?>
<!-- Generator: Adobe Illustrator 18.0.0, SVG Export Plug-In . SVG Version: 6.00 Build 0)  -->
<!DOCTYPE svg PUBLIC "-//W3C//DTD SVG 1.1//EN" "http://www.w3.org/Graphics/SVG/1.1/DTD/svg11.dtd">
<svg version="1.1" xmlns="http://www.w3.org/2000/svg" xmlns:xlink="http://www.w3.org/1999/xlink" x="0px" y="0px"
	 viewBox="0 0 48 48" style="enable-background:new 0 0 48 48;" xml:space="preserve">
<g id="Layer_91">
</g>
<g id="Layer_90">
</g>
<g id="Layer_89">
</g>
<g id="Layer_88">
</g>
<g id="Layer_87">
</g>
<g id="Layer_86">
</g>
<g id="Layer_85">
</g>
<g id="Layer_84">
</g>
<g id="Layer_83">
</g>
<g id="Layer_82">
</g>
<g id="Layer_81">
</g>
<g id="Layer_80">
</g>
<g id="Layer_79">
</g>
<g id="Layer_78">
</g>
<g id="Layer_77">
</g>
<g id="Layer_76">
</g>
<g id="Layer_75">
</g>
<g id="Layer_74">
</g>
<g id="Layer_73">
</g>
<g id="Layer_72">
</g>
<g id="Layer_71">
</g>
<g id="Layer_70">
</g>
<g id="Layer_69">
</g>
<g id="Layer_68">
</g>
<g id="Layer_67">
</g>
<g id="Layer_66">
</g>
<g id="Layer_65">
</g>
<g id="Layer_64">
</g>
<g id="Layer_63">
</g>
<g id="Layer_62">
</g>
<g id="Layer_61">
</g>
<g id="Layer_60">
</g>
<g id="Layer_59">
</g>
<g id="Layer_58">
</g>
<g id="Layer_57">
</g>
<g id="Layer_56">
</g>
<g id="Layer_55">
</g>
<g id="Layer_54">
</g>
<g id="Layer_53">
</g>
<g id="Layer_52">
</g>
<g id="Layer_51">
</g>
<g id="Layer_50">
</g>
<g id="Layer_49">
</g>
<g id="Layer_48">
</g>
<g id="Layer_47">
</g>
<g id="Layer_46">
</g>
<g id="Layer_45">
</g>
<g id="Layer_44">
</g>
<g id="Layer_43">
</g>
<g id="Layer_42">
</g>
<g id="Layer_41">
</g>
<g id="Layer_40">
</g>
<g id="Layer_39">
</g>
<g id="Layer_38">
</g>
<g id="Layer_37">
</g>
<g id="Layer_36">
</g>
<g id="Layer_35">
</g>
<g id="Layer_34">
</g>
<g id="Layer_33">
</g>
<g id="Layer_32">
</g>
<g id="Layer_31">
</g>
<g id="Layer_30">
</g>
<g id="Layer_29">
</g>
<g id="Layer_28">
</g>
<g id="Layer_27">
</g>
<g id="Layer_26">
</g>
<g id="Layer_25">
</g>
<g id="Layer_24">
</g>
<g id="Layer_23">
</g>
<g id="Layer_22">
</g>
<g id="Layer_21">
</g>
<g id="Layer_20">
</g>
<g id="Layer_19">
</g>
<g id="Layer_18">
</g>
<g id="Layer_17">
</g>
<g id="Layer_16">
</g>
<g id="Layer_15">
</g>
<g id="Layer_14">
</g>
<g id="Layer_13">
	<g>
		<path style="fill:#303030;" d="M47.044,0H24.046C10.792,0,0,10.336,0,23.59v23C0,47.143,0.493,48,1.046,48h23
			C37.3,48,48,36.846,48,23.59v-23C48,0.037,47.597,0,47.044,0z"/>
		<path id="Steam_7_" style="fill:#FFFFFF;" d="M36.445,20.022c0,1.556-1.243,2.818-2.776,2.818c-1.535,0-2.777-1.262-2.777-2.818
			c0-1.556,1.242-2.818,2.777-2.818C35.203,17.204,36.445,18.466,36.445,20.022z M35.327,24.783l-3.362,2.919
			c0.036,0.233,0.061,0.47,0.061,0.713c0,2.485-1.985,4.499-4.432,4.499c-2.111,0-3.874-1.499-4.321-3.505l-8.31-2.862
			c-0.657,0.506-1.473,0.81-2.361,0.81c-2.16,0-3.911-1.778-3.911-3.97c0-2.192,1.751-3.97,3.911-3.97
			c1.857,0,3.409,1.314,3.809,3.075l8.028,2.765c0.782-0.805,1.86-1.309,3.055-1.336l1.202-3.71
			c-0.003-0.074-0.011-0.146-0.011-0.221c0-2.803,2.24-5.076,5.002-5.076c2.763,0,5.003,2.273,5.003,5.076
			C38.69,22.212,37.283,24.094,35.327,24.783L35.327,24.783z M15.061,22.028c-0.467-0.854-1.364-1.432-2.395-1.432
			c-1.513,0-2.739,1.245-2.739,2.78c0,1.535,1.226,2.779,2.739,2.779c0.28,0,0.549-0.043,0.803-0.122l-1.301-0.448
			c-1.049-0.57-1.443-1.895-0.882-2.959c0.562-1.064,1.867-1.464,2.915-0.894L15.061,22.028z M29.786,20.003
			c0,2.178,1.739,3.943,3.885,3.943c2.146,0,3.886-1.765,3.886-3.943c0-2.179-1.741-3.944-3.886-3.944
			C31.526,16.059,29.786,17.824,29.786,20.003z M29.863,28.801c0-1.658-1.324-3.002-2.958-3.002c-0.229,0-0.45,0.029-0.664,0.079
			l1.653,0.569c1.048,0.57,1.442,1.895,0.88,2.958c-0.562,1.065-1.867,1.465-2.915,0.895l-1.781-0.614
			c0.372,1.226,1.497,2.117,2.827,2.117C28.539,31.803,29.863,30.458,29.863,28.801L29.863,28.801z"/>
	</g>
</g>
<g id="Layer_12">
</g>
<g id="Layer_11">
</g>
<g id="Layer_10">
</g>
<g id="Layer_9">
</g>
<g id="Layer_8">
</g>
<g id="Layer_7">
</g>
<g id="Layer_6">
</g>
<g id="Layer_5">
</g>
<g id="Layer_4">
</g>
<g id="Layer_3">
</g>
<g id="Layer_2">
</g>
<g id="Layer_1" style="display:none;">
</g>
<g id="nyt_x5F_exporter_x5F_info" style="display:none;">
</g>
</svg>
