<?xml version="1.0" encoding="iso-8859-1"?>
<!-- Generator: Adobe Illustrator 18.0.0, SVG Export Plug-In . SVG Version: 6.00 Build 0)  -->
<!DOCTYPE svg PUBLIC "-//W3C//DTD SVG 1.1//EN" "http://www.w3.org/Graphics/SVG/1.1/DTD/svg11.dtd">
<svg version="1.1" xmlns="http://www.w3.org/2000/svg" xmlns:xlink="http://www.w3.org/1999/xlink" x="0px" y="0px"
	 viewBox="0 0 48 48" style="enable-background:new 0 0 48 48;" xml:space="preserve">
<g id="Layer_330">
	<g>
		<path style="fill:#F75E0E;" d="M47.288,0H24.29C11.036,0,0,11.236,0,24.49v23C0,48.042,0.737,48,1.29,48h23
			C37.543,48,48,37.746,48,24.49v-23C48,0.937,47.84,0,47.288,0z"/>
		<g>
			<path style="fill:#FFFFFF;" d="M35.329,23.099c-0.506,0-0.99,0.109-1.428,0.306c-0.295-3.575-3.082-6.377-6.482-6.377
				c-0.834,0-1.646,0.176-2.361,0.474c-0.279,0.116-0.352,0.235-0.355,0.466v12.585c0.004,0.243,0.178,0.447,0.398,0.47
				c0.01,0.002,10.162,0.004,10.228,0.004c2.037,0,3.689-1.774,3.689-3.963C39.018,24.874,37.366,23.099,35.329,23.099z"/>
			<path style="fill:#FFFFFF;" d="M15.731,27.322l-0.266-5.327c-0.006-0.136-0.106-0.241-0.227-0.241s-0.221,0.105-0.226,0.241
				l-0.234,5.327l0.234,3.444c0.006,0.134,0.105,0.241,0.226,0.241s0.221-0.107,0.227-0.243v0.002L15.731,27.322z"/>
			<path style="fill:#FFFFFF;" d="M14.516,27.322l-0.283-3.276c-0.008-0.122-0.094-0.214-0.201-0.214
				c-0.107,0-0.195,0.094-0.201,0.216l-0.25,3.274l0.25,3.442c0.006,0.122,0.094,0.212,0.201,0.212c0.107,0,0.193-0.09,0.201-0.212
				l0,0L14.516,27.322z"/>
			<path style="fill:#FFFFFF;" d="M16.958,27.324l-0.248-6.547c-0.008-0.151-0.119-0.269-0.254-0.269
				c-0.135,0-0.246,0.118-0.252,0.269l-0.219,6.547l0.219,3.421c0.006,0.149,0.117,0.267,0.252,0.267
				c0.135,0,0.246-0.118,0.254-0.269v0.002L16.958,27.324z"/>
			<path style="fill:#FFFFFF;" d="M10.467,30.281c0.062,0,0.115-0.052,0.123-0.13l0.336-2.831l-0.334-2.897
				c-0.01-0.076-0.063-0.13-0.125-0.13c-0.064,0-0.117,0.055-0.125,0.13l-0.297,2.897l0.297,2.831
				C10.35,30.227,10.403,30.281,10.467,30.281z"/>
			<path style="fill:#FFFFFF;" d="M11.645,30.789c0.078,0,0.141-0.067,0.15-0.157l0.318-3.312l-0.318-3.436
				c-0.01-0.09-0.072-0.157-0.15-0.157c-0.078,0-0.143,0.067-0.15,0.157c0,0.002-0.279,3.436-0.279,3.436l0.279,3.312
				C11.503,30.722,11.567,30.789,11.645,30.789z"/>
			<path style="fill:#FFFFFF;" d="M19.223,19.994c-0.006-0.183-0.137-0.325-0.303-0.325c-0.166,0-0.299,0.143-0.305,0.325
				l-0.189,7.329l0.189,3.365c0.006,0.181,0.139,0.323,0.305,0.323c0.166,0,0.297-0.143,0.303-0.323l0,0l0.215-3.365L19.223,19.994z
				"/>
			<path style="fill:#FFFFFF;" d="M12.835,30.921c0.092,0,0.166-0.08,0.176-0.187l0.299-3.413l-0.299-3.53
				c-0.01-0.107-0.084-0.187-0.176-0.187c-0.094,0-0.17,0.08-0.176,0.187l-0.266,3.53l0.266,3.413
				C12.665,30.842,12.741,30.921,12.835,30.921z"/>
			<path style="fill:#FFFFFF;" d="M18.192,27.324l-0.23-7.092c-0.006-0.166-0.129-0.298-0.277-0.298
				c-0.152,0-0.273,0.132-0.279,0.298c0,0.002-0.205,7.092-0.205,7.092l0.205,3.386c0.006,0.166,0.127,0.296,0.279,0.296
				c0.148,0,0.271-0.13,0.277-0.298v0.004L18.192,27.324z"/>
			<path style="fill:#FFFFFF;" d="M20.69,27.324l-0.195-7.145c-0.004-0.195-0.148-0.351-0.33-0.351c-0.18,0-0.324,0.155-0.328,0.351
				l-0.174,7.145l0.174,3.333c0.004,0.195,0.148,0.353,0.328,0.353c0.182,0,0.326-0.157,0.33-0.353l0,0L20.69,27.324z"/>
			<path style="fill:#FFFFFF;" d="M9.358,25.403c-0.063,0-0.111,0.052-0.121,0.126l-0.219,1.79l0.219,1.761
				c0.01,0.073,0.059,0.126,0.121,0.126c0.061,0,0.109-0.052,0.119-0.126l0.26-1.761l-0.26-1.79
				C9.467,25.456,9.419,25.403,9.358,25.403z"/>
			<path style="fill:#FFFFFF;" d="M23.229,27.326l-0.16-8.192c-0.004-0.222-0.176-0.405-0.381-0.405
				c-0.209,0-0.379,0.183-0.381,0.405l-0.144,8.19c0,0.006,0.144,3.291,0.144,3.291c0.002,0.222,0.172,0.407,0.381,0.407
				c0.205,0,0.377-0.185,0.381-0.409v0.004L23.229,27.326z"/>
			<path style="fill:#FFFFFF;" d="M23.948,17.958c-0.221,0-0.404,0.195-0.408,0.434l-0.166,8.933l0.166,3.243
				c0.004,0.237,0.188,0.432,0.408,0.432c0.219,0,0.402-0.195,0.406-0.434v0.002l0.182-3.243l-0.182-8.933
				C24.35,18.154,24.167,17.958,23.948,17.958z"/>
			<path style="fill:#FFFFFF;" d="M21.956,27.324l-0.18-6.882c-0.004-0.212-0.16-0.38-0.353-0.38c-0.197,0-0.351,0.168-0.355,0.38
				l-0.158,6.882l0.158,3.314c0.004,0.208,0.158,0.376,0.355,0.376c0.193,0,0.35-0.168,0.353-0.378v0.002L21.956,27.324z"/>
		</g>
	</g>
</g>
<g id="Layer_1">
</g>
</svg>
