<?xml version="1.0" encoding="iso-8859-1"?>
<!-- Generator: Adobe Illustrator 18.0.0, SVG Export Plug-In . SVG Version: 6.00 Build 0)  -->
<!DOCTYPE svg PUBLIC "-//W3C//DTD SVG 1.1//EN" "http://www.w3.org/Graphics/SVG/1.1/DTD/svg11.dtd">
<svg version="1.1" xmlns="http://www.w3.org/2000/svg" xmlns:xlink="http://www.w3.org/1999/xlink" x="0px" y="0px"
	 viewBox="0 0 48 48" style="enable-background:new 0 0 48 48;" xml:space="preserve">
<g id="Layer_91">
</g>
<g id="Layer_90">
</g>
<g id="Layer_89">
</g>
<g id="Layer_88">
</g>
<g id="Layer_87">
</g>
<g id="Layer_86">
</g>
<g id="Layer_85">
</g>
<g id="Layer_84">
</g>
<g id="Layer_83">
</g>
<g id="Layer_82">
</g>
<g id="Layer_81">
</g>
<g id="Layer_80">
</g>
<g id="Layer_79">
</g>
<g id="Layer_78">
</g>
<g id="Layer_77">
</g>
<g id="Layer_76">
</g>
<g id="Layer_75">
</g>
<g id="Layer_74">
</g>
<g id="Layer_73">
</g>
<g id="Layer_72">
</g>
<g id="Layer_71">
</g>
<g id="Layer_70">
</g>
<g id="Layer_69">
</g>
<g id="Layer_68">
</g>
<g id="Layer_67">
</g>
<g id="Layer_66">
</g>
<g id="Layer_65">
</g>
<g id="Layer_64">
</g>
<g id="Layer_63">
</g>
<g id="Layer_62">
</g>
<g id="Layer_61">
</g>
<g id="Layer_60">
</g>
<g id="Layer_59">
</g>
<g id="Layer_58">
</g>
<g id="Layer_57">
</g>
<g id="Layer_56">
</g>
<g id="Layer_55">
</g>
<g id="Layer_54">
</g>
<g id="Layer_53">
</g>
<g id="Layer_52">
</g>
<g id="Layer_51">
</g>
<g id="Layer_50">
</g>
<g id="Layer_49">
</g>
<g id="Layer_48">
</g>
<g id="Layer_47">
</g>
<g id="Layer_46">
</g>
<g id="Layer_45">
</g>
<g id="Layer_44">
</g>
<g id="Layer_43">
</g>
<g id="Layer_42">
</g>
<g id="Layer_41">
</g>
<g id="Layer_40">
</g>
<g id="Layer_39">
</g>
<g id="Layer_38">
</g>
<g id="Layer_37">
</g>
<g id="Layer_36">
</g>
<g id="Layer_35">
</g>
<g id="Layer_34">
</g>
<g id="Layer_33">
</g>
<g id="Layer_32">
</g>
<g id="Layer_31">
</g>
<g id="Layer_30">
</g>
<g id="Layer_29">
</g>
<g id="Layer_28">
</g>
<g id="Layer_27">
</g>
<g id="Layer_26">
</g>
<g id="Layer_25">
</g>
<g id="Layer_24">
</g>
<g id="Layer_23">
</g>
<g id="Layer_22">
</g>
<g id="Layer_21">
</g>
<g id="Layer_20">
</g>
<g id="Layer_19">
</g>
<g id="Layer_18">
</g>
<g id="Layer_17">
	<g>
		<path style="fill:#6BC45A;" d="M46.511,0H23.513C10.259,0,0,10.336,0,23.59v23C0,47.143-0.04,48,0.512,48h23.001
			C36.767,48,48,36.846,48,23.59v-23C48,0.037,47.064,0,46.511,0z"/>
		<path id="WhatsApp_8_" style="fill:#FFFFFF;" d="M38.691,23.528c0,8.071-6.593,14.613-14.727,14.613
			c-2.582,0-5.008-0.66-7.119-1.818l-8.154,2.591l2.658-7.841c-1.341-2.203-2.113-4.785-2.113-7.545
			c0-8.071,6.594-14.614,14.728-14.614C32.098,8.914,38.691,15.457,38.691,23.528z M23.964,11.241
			c-6.828,0-12.382,5.512-12.382,12.286c0,2.688,0.876,5.178,2.358,7.203l-1.547,4.562l4.758-1.512
			c1.955,1.284,4.297,2.032,6.812,2.032c6.827,0,12.382-5.511,12.382-12.286C36.346,16.753,30.791,11.241,23.964,11.241z
			 M31.4,26.893c-0.091-0.149-0.331-0.239-0.692-0.418c-0.361-0.179-2.137-1.046-2.467-1.165c-0.331-0.119-0.572-0.179-0.813,0.179
			c-0.24,0.359-0.932,1.165-1.143,1.404c-0.211,0.239-0.421,0.269-0.782,0.09c-0.36-0.179-1.524-0.557-2.903-1.778
			c-1.073-0.949-1.798-2.121-2.008-2.48c-0.211-0.358-0.022-0.552,0.158-0.73c0.162-0.161,0.361-0.419,0.542-0.627
			c0.181-0.21,0.241-0.359,0.361-0.598c0.121-0.239,0.06-0.448-0.03-0.628c-0.09-0.179-0.813-1.942-1.113-2.659
			c-0.301-0.717-0.601-0.597-0.812-0.597c-0.211,0-0.451-0.03-0.692-0.03c-0.241,0-0.632,0.09-0.963,0.448
			c-0.331,0.359-1.263,1.225-1.263,2.987c0,1.763,1.293,3.466,1.474,3.705c0.18,0.238,2.497,3.973,6.166,5.408
			c3.671,1.434,3.671,0.956,4.333,0.895c0.661-0.059,2.135-0.866,2.437-1.703C31.49,27.76,31.49,27.042,31.4,26.893L31.4,26.893z"/>
	</g>
</g>
<g id="Layer_16">
</g>
<g id="Layer_15">
</g>
<g id="Layer_14">
</g>
<g id="Layer_13">
</g>
<g id="Layer_12">
</g>
<g id="Layer_11">
</g>
<g id="Layer_10">
</g>
<g id="Layer_9">
</g>
<g id="Layer_8">
</g>
<g id="Layer_7">
</g>
<g id="Layer_6">
</g>
<g id="Layer_5">
</g>
<g id="Layer_4">
</g>
<g id="Layer_3">
</g>
<g id="Layer_2">
</g>
<g id="Layer_1" style="display:none;">
</g>
<g id="nyt_x5F_exporter_x5F_info" style="display:none;">
</g>
</svg>
