<?xml version="1.0" encoding="iso-8859-1"?>
<!-- Generator: Adobe Illustrator 18.0.0, SVG Export Plug-In . SVG Version: 6.00 Build 0)  -->
<!DOCTYPE svg PUBLIC "-//W3C//DTD SVG 1.1//EN" "http://www.w3.org/Graphics/SVG/1.1/DTD/svg11.dtd">
<svg version="1.1" xmlns="http://www.w3.org/2000/svg" xmlns:xlink="http://www.w3.org/1999/xlink" x="0px" y="0px"
	 viewBox="0 0 48 48" style="enable-background:new 0 0 48 48;" xml:space="preserve">
<g id="Layer_290">
	<g>
		<path style="fill:#E04D2B;" d="M47.288,0H24.29C11.036,0,0,10.457,0,23.711v23C0,47.263,0.737,48,1.29,48h23
			C37.543,48,48,36.966,48,23.711v-23C48,0.16,47.84,0,47.288,0z"/>
		<path style="fill-rule:evenodd;clip-rule:evenodd;fill:#FFFFFF;" d="M24.018,39.035c-0.34,0-0.68-0.012-1.016-0.033l6.275-10.871
			c0.881-1.133,1.406-2.557,1.406-4.103c0-2.502-1.375-4.684-3.412-5.832H37.84c0.758,1.795,1.178,3.77,1.178,5.84
			C39.018,32.32,32.303,39.035,24.018,39.035z M23.989,17.334c-3.674,0-6.656,2.961-6.691,6.627l-5.207-9.018
			c2.74-3.592,7.064-5.908,11.928-5.908c5.869,0,10.947,3.369,13.412,8.279H23.989V17.334z M24.055,29.666
			c-3.102,0-5.615-2.514-5.615-5.615s2.514-5.615,5.615-5.615s5.617,2.514,5.617,5.615S27.157,29.666,24.055,29.666z M23.989,30.722
			c1.187,0,2.301-0.309,3.268-0.852l-5.217,9.035c-7.348-0.969-13.021-7.258-13.021-14.871c0-3.07,0.926-5.928,2.51-8.305
			l6.289,10.893C18.831,29.031,21.213,30.722,23.989,30.722z"/>
	</g>
</g>
<g id="Layer_1">
</g>
</svg>
