<?xml version="1.0" encoding="iso-8859-1"?>
<!-- Generator: Adobe Illustrator 18.0.0, SVG Export Plug-In . SVG Version: 6.00 Build 0)  -->
<!DOCTYPE svg PUBLIC "-//W3C//DTD SVG 1.1//EN" "http://www.w3.org/Graphics/SVG/1.1/DTD/svg11.dtd">
<svg version="1.1" xmlns="http://www.w3.org/2000/svg" xmlns:xlink="http://www.w3.org/1999/xlink" x="0px" y="0px"
	 viewBox="0 0 48 48" style="enable-background:new 0 0 48 48;" xml:space="preserve">
<g id="Layer_314">
	<g>
		<path style="fill:#4CB249;" d="M46.819,0H23.821C10.567,0,0,10.847,0,24.101v23C0,47.654,0.268,48,0.821,48h23
			C37.075,48,48,37.357,48,24.101v-23C48,0.549,47.372,0,46.819,0z"/>
		<g>
			<path style="fill:#FFFFFF;" d="M13.311,29.326c1.301,0,2.477-0.486,3.398-1.265l10.75,5.375
				c-0.008,0.101-0.031,0.196-0.031,0.302c0,2.927,2.367,5.297,5.295,5.297c2.924,0,5.295-2.37,5.295-5.297
				c0-2.925-2.371-5.294-5.295-5.294c-1.301,0-2.478,0.486-3.398,1.266l-10.748-5.375c0.004-0.102,0.027-0.197,0.027-0.3
				c0-0.105-0.023-0.202-0.027-0.305l10.748-5.378c0.92,0.779,2.096,1.269,3.398,1.269c2.924,0,5.295-2.369,5.295-5.296
				c0-2.923-2.371-5.291-5.295-5.291c-2.928,0-5.295,2.368-5.295,5.291c0,0.105,0.023,0.202,0.031,0.304l-10.75,5.374
				c-0.922-0.778-2.098-1.267-3.398-1.267c-2.924,0-5.293,2.371-5.293,5.298C8.018,26.958,10.387,29.326,13.311,29.326z"/>
		</g>
	</g>
</g>
<g id="Layer_1">
</g>
</svg>
