<?xml version="1.0" encoding="iso-8859-1"?>
<!-- Generator: Adobe Illustrator 18.0.0, SVG Export Plug-In . SVG Version: 6.00 Build 0)  -->
<!DOCTYPE svg PUBLIC "-//W3C//DTD SVG 1.1//EN" "http://www.w3.org/Graphics/SVG/1.1/DTD/svg11.dtd">
<svg version="1.1" xmlns="http://www.w3.org/2000/svg" xmlns:xlink="http://www.w3.org/1999/xlink" x="0px" y="0px"
	 viewBox="0 0 48 48" style="enable-background:new 0 0 48 48;" xml:space="preserve">
<g id="Layer_297">
	<g>
		<path style="fill:#1A9711;" d="M46.838,0H23.84C10.586,0,0,10.457,0,23.711v23C0,47.263,0.287,48,0.839,48H23.84
			C37.094,48,48,36.966,48,23.711v-23C48,0.158,47.391,0,46.838,0z"/>
		<g>
			<rect x="29.018" y="16.035" style="fill:#FFFFFF;" width="10" height="5"/>
			<polygon style="fill:#FFFFFF;" points="9.018,16.035 9.018,21.035 14.018,21.035 14.018,32.035 19.018,32.035 19.018,21.035 
				24.018,21.035 24.018,16.035 			"/>
			<polygon style="fill:#FFFFFF;" points="24.02,32.035 29.018,32.035 39.018,32.035 39.018,27.035 29.018,27.035 29.018,21.035 
				24.02,21.035 			"/>
		</g>
	</g>
</g>
<g id="Layer_1">
</g>
</svg>
