<?xml version="1.0" encoding="iso-8859-1"?>
<!-- Generator: Adobe Illustrator 18.0.0, SVG Export Plug-In . SVG Version: 6.00 Build 0)  -->
<!DOCTYPE svg PUBLIC "-//W3C//DTD SVG 1.1//EN" "http://www.w3.org/Graphics/SVG/1.1/DTD/svg11.dtd">
<svg version="1.1" xmlns="http://www.w3.org/2000/svg" xmlns:xlink="http://www.w3.org/1999/xlink" x="0px" y="0px"
	 viewBox="0 0 48 48" style="enable-background:new 0 0 48 48;" xml:space="preserve">
<g id="Layer_294">
	<g>
		<path style="fill:#2BB673;" d="M46.604,0H23.606C10.352,0,0,10.457,0,23.711v23C0,47.263,0.053,48,0.606,48h23
			C36.86,48,48,36.966,48,23.711v-23C48,0.158,47.157,0,46.604,0z"/>
		<g>
			
				<rect x="15.79" y="32.495" transform="matrix(-1 4.805644e-004 -4.805644e-004 -1 43.6682 67.5081)" style="fill:#FFFFFF;" width="12.072" height="2.529"/>
			<polygon style="fill:#FFFFFF;" points="31.415,9.467 33.478,21.133 36.018,20.7 33.955,9.035 			"/>
			<polygon style="fill:#FFFFFF;" points="28.152,29.25 16.134,28.164 15.899,30.682 27.917,31.768 			"/>
			<polygon style="fill:#FFFFFF;" points="28.946,25.95 17.29,22.876 16.621,25.318 28.275,28.392 			"/>
			<polygon style="fill:#FFFFFF;" points="30.467,23.057 20.072,17.043 18.76,19.219 29.159,25.235 			"/>
			<polygon style="fill:#FFFFFF;" points="24.086,12.928 30.887,22.71 33.018,21.286 26.216,11.502 			"/>
			<path style="fill:#FFFFFF;" d="M29.912,37.042H14.081v-10.34h-2.063v12.322h0.022c0,0.011,0.601,0.011,0.601,0.011h19.313v-0.011
				c0.02,0,0.02-0.59,0.02-0.59V26.702h-2.063V37.042z"/>
		</g>
	</g>
</g>
<g id="Layer_1">
</g>
</svg>
