<?xml version="1.0" encoding="iso-8859-1"?>
<!-- Generator: Adobe Illustrator 18.0.0, SVG Export Plug-In . SVG Version: 6.00 Build 0)  -->
<!DOCTYPE svg PUBLIC "-//W3C//DTD SVG 1.1//EN" "http://www.w3.org/Graphics/SVG/1.1/DTD/svg11.dtd">
<svg version="1.1" xmlns="http://www.w3.org/2000/svg" xmlns:xlink="http://www.w3.org/1999/xlink" x="0px" y="0px"
	 viewBox="0 0 48 48" style="enable-background:new 0 0 48 48;" xml:space="preserve">
<g id="Layer_344">
	<g>
		<path style="fill:#394B8D;" d="M46.584,0H23.587C10.333,0,0,10.623,0,23.879v23C0,47.431,0.034,48,0.587,48h23
			C36.84,48,48,37.132,48,23.879v-23C48,0.326,47.137,0,46.584,0z"/>
		<g>
			<path style="fill:#FFFFFF;" d="M38.389,9.035H9.645c-0.348,0-0.627,0.281-0.627,0.627v28.746c0,0.347,0.279,0.627,0.627,0.627
				h28.744c0.348,0,0.629-0.28,0.629-0.627V9.662C39.018,9.316,38.737,9.035,38.389,9.035z M38.018,38.035h-14v-14h-14v-14h14v14h14
				V38.035z"/>
		</g>
	</g>
</g>
<g id="Layer_1">
</g>
</svg>
