<?xml version="1.0" encoding="iso-8859-1"?>
<!-- Generator: Adobe Illustrator 18.0.0, SVG Export Plug-In . SVG Version: 6.00 Build 0)  -->
<!DOCTYPE svg PUBLIC "-//W3C//DTD SVG 1.1//EN" "http://www.w3.org/Graphics/SVG/1.1/DTD/svg11.dtd">
<svg version="1.1" xmlns="http://www.w3.org/2000/svg" xmlns:xlink="http://www.w3.org/1999/xlink" x="0px" y="0px"
	 viewBox="0 0 48 48" style="enable-background:new 0 0 48 48;" xml:space="preserve">
<g id="Layer_342">
	<g>
		<path style="fill:#69BC1B;" d="M46.838,0H23.84C10.586,0,0,11.236,0,24.49v23C0,48.042,0.287,48,0.839,48H23.84
			C37.094,48,48,37.746,48,24.49v-23C48,0.939,47.391,0,46.838,0z"/>
		<g>
			<path style="fill:#FFFFFF;" d="M13.645,30.015l-0.875,9.013l8.107-5.012c1.629,0.451,3.363,0.702,5.166,0.702
				c5.211,0,9.853-2.061,12.977-5.281V15.373c0-3.498-2.762-6.344-6.154-6.344H14.412c-3.306,2.713-5.395,6.543-5.395,10.816
				C9.017,23.786,10.782,27.355,13.645,30.015z M26.043,11.206c5.949,0,10.977,3.957,10.977,8.639c0,4.686-5.027,8.639-10.977,8.639
				s-10.977-3.953-10.977-8.639C15.066,15.163,20.094,11.206,26.043,11.206z"/>
		</g>
	</g>
</g>
<g id="Layer_1">
</g>
</svg>
