<?xml version="1.0" encoding="iso-8859-1"?>
<!-- Generator: Adobe Illustrator 18.0.0, SVG Export Plug-In . SVG Version: 6.00 Build 0)  -->
<!DOCTYPE svg PUBLIC "-//W3C//DTD SVG 1.1//EN" "http://www.w3.org/Graphics/SVG/1.1/DTD/svg11.dtd">
<svg version="1.1" xmlns="http://www.w3.org/2000/svg" xmlns:xlink="http://www.w3.org/1999/xlink" x="0px" y="0px"
	 viewBox="0 0 48 48" style="enable-background:new 0 0 48 48;" xml:space="preserve">
<g id="Layer_320">
	<g>
		<path style="fill:#FF001A;" d="M47.221,0H24.223C10.969,0,0,10.847,0,24.101v23C0,47.654,0.67,48,1.223,48h23
			C37.477,48,48,37.357,48,24.101v-23C48,0.549,47.774,0,47.221,0z"/>
		<g>
			<path style="fill:#FFFFFF;" d="M13.131,9.035c-1.722,0-3.113,1.342-3.113,3v14.999c0,6.615,5.582,12.001,12.444,12.001h3.113
				c6.86,0,12.442-5.049,12.442-11.249c0-6.205-4.185-11.25-9.331-11.25h-6.224c-1.72,0-3.111,1.341-3.111,3
				c0,1.655,1.391,3,3.111,3h6.224c1.436,0,3.109,2.291,3.109,5.25c0,2.893-2.791,5.249-6.22,5.249h-3.113
				c-3.429,0-6.22-2.693-6.22-6.001V12.035C16.242,10.377,14.847,9.035,13.131,9.035z"/>
		</g>
	</g>
</g>
<g id="Layer_1">
</g>
</svg>
