<?xml version="1.0" encoding="iso-8859-1"?>
<!-- Generator: Adobe Illustrator 18.0.0, SVG Export Plug-In . SVG Version: 6.00 Build 0)  -->
<!DOCTYPE svg PUBLIC "-//W3C//DTD SVG 1.1//EN" "http://www.w3.org/Graphics/SVG/1.1/DTD/svg11.dtd">
<svg version="1.1" xmlns="http://www.w3.org/2000/svg" xmlns:xlink="http://www.w3.org/1999/xlink" x="0px" y="0px"
	 viewBox="0 0 48 48" style="enable-background:new 0 0 48 48;" xml:space="preserve">
<g id="Layer_91">
</g>
<g id="Layer_90">
</g>
<g id="Layer_89">
</g>
<g id="Layer_88">
</g>
<g id="Layer_87">
</g>
<g id="Layer_86">
</g>
<g id="Layer_85">
</g>
<g id="Layer_84">
</g>
<g id="Layer_83">
</g>
<g id="Layer_82">
</g>
<g id="Layer_81">
</g>
<g id="Layer_80">
</g>
<g id="Layer_79">
</g>
<g id="Layer_78">
</g>
<g id="Layer_77">
</g>
<g id="Layer_76">
</g>
<g id="Layer_75">
</g>
<g id="Layer_74">
</g>
<g id="Layer_73">
</g>
<g id="Layer_72">
</g>
<g id="Layer_71">
</g>
<g id="Layer_70">
</g>
<g id="Layer_69">
</g>
<g id="Layer_68">
</g>
<g id="Layer_67">
</g>
<g id="Layer_66">
</g>
<g id="Layer_65">
</g>
<g id="Layer_64">
</g>
<g id="Layer_63">
</g>
<g id="Layer_62">
</g>
<g id="Layer_61">
</g>
<g id="Layer_60">
</g>
<g id="Layer_59">
</g>
<g id="Layer_58">
</g>
<g id="Layer_57">
</g>
<g id="Layer_56">
</g>
<g id="Layer_55">
</g>
<g id="Layer_54">
</g>
<g id="Layer_53">
</g>
<g id="Layer_52">
</g>
<g id="Layer_51">
</g>
<g id="Layer_50">
</g>
<g id="Layer_49">
</g>
<g id="Layer_48">
</g>
<g id="Layer_47">
</g>
<g id="Layer_46">
</g>
<g id="Layer_45">
</g>
<g id="Layer_44">
</g>
<g id="Layer_43">
</g>
<g id="Layer_42">
</g>
<g id="Layer_41">
</g>
<g id="Layer_40">
</g>
<g id="Layer_39">
</g>
<g id="Layer_38">
</g>
<g id="Layer_37">
</g>
<g id="Layer_36">
</g>
<g id="Layer_35">
</g>
<g id="Layer_34">
</g>
<g id="Layer_33">
</g>
<g id="Layer_32">
</g>
<g id="Layer_31">
</g>
<g id="Layer_30">
</g>
<g id="Layer_29">
</g>
<g id="Layer_28">
</g>
<g id="Layer_27">
</g>
<g id="Layer_26">
</g>
<g id="Layer_25">
</g>
<g id="Layer_24">
</g>
<g id="Layer_23">
</g>
<g id="Layer_22">
</g>
<g id="Layer_21">
</g>
<g id="Layer_20">
</g>
<g id="Layer_19">
</g>
<g id="Layer_18">
</g>
<g id="Layer_17">
</g>
<g id="Layer_16">
</g>
<g id="Layer_15">
</g>
<g id="Layer_14">
	<g>
		<path style="fill:#62A14A;" d="M46.661,0H23.665C10.409,0,0,10.336,0,23.59v23C0,47.143,0.11,48,0.663,48h23.002
			C36.917,48,48,36.846,48,23.59v-23C48,0.037,47.214,0,46.661,0z"/>
		<path id="Bird_8_" style="fill:#FFFFFF;" d="M23.69,14.913c-4,0-7.001,1.002-10.001,4.002H8.69c0,0,0.001,1.501,2.001,2.001
			c-0.896,1.231-2.001,3.36-2.001,4.999c0,4.125,2.875,7,7,7c2.34,0,4.63-1.315,5.999-3.001l2.001,3.001l2.001-3.001
			c1.369,1.686,3.659,3.001,5.999,3.001c4.124,0,7-2.875,7-7c0-1.639-1.105-3.767-2.001-4.999c2-0.5,2.001-2.001,2.001-2.001h-4.999
			C30.691,15.915,27.691,14.913,23.69,14.913z M23.69,15.914c5,0,8,3.001,8,3.001c-4,0-8,5.001-8,10.001c0-5-4-10.001-8-10.001
			C15.69,18.915,18.69,15.914,23.69,15.914L23.69,15.914z M15.69,20.916c2.761,0,4.999,2.238,4.999,4.999
			c0,2.762-2.238,4.999-4.999,4.999s-4.999-2.237-4.999-4.999C10.691,23.154,12.929,20.916,15.69,20.916z M31.691,20.916
			c2.762,0,4.999,2.238,4.999,4.999c0,2.762-2.237,4.999-4.999,4.999s-4.999-2.237-4.999-4.999
			C26.692,23.154,28.929,20.916,31.691,20.916z M15.69,22.914c-1.657,0-3.001,1.344-3.001,3.001c0,1.658,1.344,3.001,3.001,3.001
			s3.001-1.343,3.001-3.001C18.691,24.258,17.347,22.914,15.69,22.914z M31.691,22.914c-1.656,0-3.001,1.345-3.001,3.001
			c0,1.658,1.345,3.001,3.001,3.001s3.001-1.343,3.001-3.001C34.692,24.259,33.347,22.914,31.691,22.914L31.691,22.914z
			 M15.69,23.914c1.104,0,2.001,0.897,2.001,2.001c0,1.105-0.897,2.001-2.001,2.001c-1.104,0-2.001-0.896-2.001-2.001
			C13.689,24.811,14.586,23.914,15.69,23.914z M31.691,23.914c1.104,0,2.001,0.897,2.001,2.001c0,1.105-0.897,2.001-2.001,2.001
			c-1.104,0-2.001-0.896-2.001-2.001C29.69,24.811,30.587,23.914,31.691,23.914z M15.69,24.914c-0.552,0-1,0.448-1,1
			c0,0.552,0.448,1.001,1,1.001s1-0.448,1-1.001C16.691,25.363,16.243,24.914,15.69,24.914z M31.691,24.914c-0.552,0-1,0.448-1,1
			c0,0.552,0.448,1.001,1,1.001s1-0.448,1-1.001C32.691,25.363,32.243,24.914,31.691,24.914z"/>
	</g>
</g>
<g id="Layer_13">
</g>
<g id="Layer_12">
</g>
<g id="Layer_11">
</g>
<g id="Layer_10">
</g>
<g id="Layer_9">
</g>
<g id="Layer_8">
</g>
<g id="Layer_7">
</g>
<g id="Layer_6">
</g>
<g id="Layer_5">
</g>
<g id="Layer_4">
</g>
<g id="Layer_3">
</g>
<g id="Layer_2">
</g>
<g id="Layer_1" style="display:none;">
</g>
<g id="nyt_x5F_exporter_x5F_info" style="display:none;">
</g>
</svg>
