<?xml version="1.0" encoding="iso-8859-1"?>
<!-- Generator: Adobe Illustrator 18.0.0, SVG Export Plug-In . SVG Version: 6.00 Build 0)  -->
<!DOCTYPE svg PUBLIC "-//W3C//DTD SVG 1.1//EN" "http://www.w3.org/Graphics/SVG/1.1/DTD/svg11.dtd">
<svg version="1.1" xmlns="http://www.w3.org/2000/svg" xmlns:xlink="http://www.w3.org/1999/xlink" x="0px" y="0px"
	 viewBox="0 0 48 48" style="enable-background:new 0 0 48 48;" xml:space="preserve">
<g id="Layer_306">
	<g>
		<path style="fill:#F08421;" d="M46.67,0H23.672C10.419,0,0,10.457,0,23.711v23C0,47.263,0.12,48,0.672,48h23
			C36.926,48,48,36.966,48,23.711v-23C48,0.16,47.223,0,46.67,0z"/>
		<g>
			<ellipse style="fill:#FFFFFF;" cx="13.017" cy="35.017" rx="4" ry="3.982"/>
			<path style="fill:#FFFFFF;" d="M23.048,39.027h5.773c0-10.918-8.881-19.799-19.797-19.799v5.75c3.745,0,7.267,1.457,9.914,4.109
				C21.588,31.738,23.048,35.269,23.048,39.027z"/>
			<path style="fill:#FFFFFF;" d="M33.247,39.035h5.771c0-16.543-13.452-30-29.984-30v5.75
				C22.384,14.785,33.247,25.664,33.247,39.035z"/>
		</g>
	</g>
</g>
<g id="Layer_1">
</g>
</svg>
