<?xml version="1.0" encoding="iso-8859-1"?>
<!-- Generator: Adobe Illustrator 18.0.0, SVG Export Plug-In . SVG Version: 6.00 Build 0)  -->
<!DOCTYPE svg PUBLIC "-//W3C//DTD SVG 1.1//EN" "http://www.w3.org/Graphics/SVG/1.1/DTD/svg11.dtd">
<svg version="1.1" xmlns="http://www.w3.org/2000/svg" xmlns:xlink="http://www.w3.org/1999/xlink" x="0px" y="0px"
	 viewBox="0 0 48 48" style="enable-background:new 0 0 48 48;" xml:space="preserve">
<g id="Layer_360">
	<g>
		<path style="fill:#F872A3;" d="M47.072,0H24.074C10.819,0,0,10.623,0,23.879v23C0,47.431,0.52,48,1.073,48h23.001
			C37.328,48,48,37.132,48,23.879v-23C48,0.326,47.624,0,47.072,0z"/>
		<g>
			<path style="fill:#FFFFFF;" d="M37.838,18.196c-0.376-0.89-0.842-1.747-1.384-2.548c-0.535-0.794-1.151-1.541-1.829-2.219
				c-0.679-0.679-1.426-1.295-2.219-1.831c-0.802-0.543-1.66-1.007-2.549-1.384c-0.906-0.382-1.855-0.678-2.819-0.874
				c-0.987-0.202-2.003-0.306-3.019-0.306c-1.016,0-2.033,0.104-3.021,0.306c-0.964,0.196-1.912,0.492-2.817,0.874
				c-0.89,0.377-1.747,0.841-2.549,1.384c-0.795,0.536-1.541,1.152-2.22,1.831c-0.677,0.678-1.293,1.425-1.83,2.219
				c-0.542,0.801-1.008,1.658-1.382,2.548c-0.384,0.906-0.679,1.855-0.877,2.819c-0.201,0.986-0.304,2.003-0.304,3.018
				c0,1.018,0.103,2.034,0.304,3.022c0.198,0.964,0.493,1.912,0.877,2.817c0.374,0.89,0.84,1.748,1.382,2.55
				c0.537,0.793,1.153,1.539,1.83,2.219c0.679,0.678,1.425,1.293,2.22,1.83c0.802,0.541,1.659,1.007,2.549,1.383
				c0.905,0.384,1.854,0.677,2.817,0.875c0.988,0.203,2.006,0.305,3.021,0.305c1.017,0,2.032-0.102,3.019-0.305
				c0.964-0.198,1.913-0.491,2.819-0.875c0.889-0.376,1.747-0.842,2.549-1.383c0.793-0.537,1.54-1.152,2.219-1.83
				c0.678-0.68,1.294-1.426,1.829-2.219c0.542-0.802,1.008-1.66,1.384-2.55c0.384-0.905,0.678-1.853,0.875-2.817
				c0.202-0.988,0.305-2.005,0.305-3.022c0-1.016-0.103-2.032-0.305-3.018C38.516,20.051,38.222,19.102,37.838,18.196z
				 M24.019,11.225c3.243,0,6.203,1.209,8.461,3.196c-0.032,0.05-1.856,2.827-6.692,4.639c-2.189-4.023-4.595-7.22-4.788-7.474
				C21.968,11.352,22.978,11.225,24.019,11.225z M20.951,11.597c-0.001,0.001-0.003,0.002-0.003,0.002s-0.015,0.004-0.039,0.009
				C20.923,11.604,20.938,11.602,20.951,11.597z M18.553,12.449c0.17,0.229,2.54,3.44,4.757,7.381
				c-6.15,1.635-11.488,1.571-11.827,1.565C12.316,17.426,14.98,14.136,18.553,12.449z M14.491,32.595
				c-2.04-2.27-3.282-5.27-3.282-8.562c0-0.136,0.005-0.271,0.011-0.404c0.226,0.005,6.555,0.148,13.15-1.825
				c0.367,0.719,0.719,1.448,1.039,2.177c-0.169,0.048-0.337,0.099-0.505,0.153c-6.912,2.234-10.418,8.454-10.418,8.454
				S14.49,32.593,14.491,32.595z M24.019,36.845c-2.97,0-5.697-1.02-7.871-2.716l-0.001,0.004c0,0-0.119-0.088-0.288-0.224
				c0.094,0.077,0.193,0.145,0.289,0.22c0.024-0.05,2.489-5.364,10.051-7.998c0.028-0.011,0.057-0.019,0.085-0.027
				c1.803,4.683,2.547,8.606,2.736,9.726C27.484,36.483,25.792,36.845,24.019,36.845z M31.177,34.66
				c-0.131-0.774-0.813-4.533-2.494-9.15c4.136-0.661,7.72,0.473,7.983,0.559C36.096,29.638,34.052,32.717,31.177,34.66z
				 M27.902,23.488c-0.091-0.22-0.182-0.439-0.276-0.662c-0.267-0.626-0.554-1.248-0.851-1.857c5.059-2.064,7.112-5.035,7.138-5.07
				c1.795,2.182,2.882,4.97,2.911,8.009C36.639,23.867,32.304,22.934,27.902,23.488z"/>
		</g>
	</g>
</g>
<g id="Layer_1">
</g>
</svg>
