<?xml version="1.0" encoding="iso-8859-1"?>
<!-- Generator: Adobe Illustrator 18.0.0, SVG Export Plug-In . SVG Version: 6.00 Build 0)  -->
<!DOCTYPE svg PUBLIC "-//W3C//DTD SVG 1.1//EN" "http://www.w3.org/Graphics/SVG/1.1/DTD/svg11.dtd">
<svg version="1.1" xmlns="http://www.w3.org/2000/svg" xmlns:xlink="http://www.w3.org/1999/xlink" x="0px" y="0px"
	 viewBox="0 0 48 48" style="enable-background:new 0 0 48 48;" xml:space="preserve">
<g id="Layer_299">
	<g>
		<path style="fill:#68C1EC;" d="M46.905,0H23.907C10.653,0,0,10.457,0,23.711v23C0,47.263,0.354,48,0.907,48h23
			C37.161,48,48,36.966,48,23.711v-23C48,0.158,47.458,0,46.905,0z"/>
		<g>
			<path style="fill:#FFFFFF;" d="M31.484,13.187c-2.859-0.106-5.41,1.401-6.861,3.738h-0.021c-0.047,0.138-0.15,0.236-0.273,0.238
				c-0.125,0.001-0.232-0.093-0.281-0.229h-0.002c-1.229-2.928-4.051-4.954-7.307-4.899c-4.326,0.073-7.965,3.8-7.707,8.307
				c0.482,8.4,9.086,7.258,7.732,17.037c0.016,0.486,0.051,0.843,1,0.547c21.998-6.846,21.189-15.106,21.246-16.358
				C39.213,17.057,35.812,13.346,31.484,13.187z"/>
		</g>
	</g>
</g>
<g id="Layer_1">
</g>
</svg>
