<?xml version="1.0" encoding="iso-8859-1"?>
<!-- Generator: Adobe Illustrator 18.0.0, SVG Export Plug-In . SVG Version: 6.00 Build 0)  -->
<!DOCTYPE svg PUBLIC "-//W3C//DTD SVG 1.1//EN" "http://www.w3.org/Graphics/SVG/1.1/DTD/svg11.dtd">
<svg version="1.1" xmlns="http://www.w3.org/2000/svg" xmlns:xlink="http://www.w3.org/1999/xlink" x="0px" y="0px"
	 viewBox="0 0 48 48" style="enable-background:new 0 0 48 48;" xml:space="preserve">
<g id="Layer_346">
	<g>
		<path style="fill:#A7A9AC;" d="M47.436,0H24.438C11.184,0,0,10.625,0,23.879v23C0,47.431,0.885,48,1.438,48h23
			C37.692,48,48,37.134,48,23.879v-23C48,0.328,47.989,0,47.436,0z"/>
		<g>
			<path style="fill:#FFFFFF;" d="M19.771,39.033c1.869-0.076,2.573-1.229,4.83-1.229c2.258,0,2.892,1.229,4.866,1.191
				c2.007-0.038,3.281-1.856,4.509-3.685c1.422-2.115,2.007-4.163,2.042-4.267c-0.044-0.021-3.914-1.53-3.955-6.068
				c-0.036-3.8,3.045-5.622,3.183-5.714c-1.733-2.577-4.431-2.932-5.392-2.972c-2.295-0.237-4.477,1.376-5.641,1.376
				c-1.163,0-2.961-1.342-4.864-1.307c-2.502,0.038-4.809,1.481-6.098,3.762c-2.598,4.59-0.664,11.392,1.869,15.117
				C16.358,37.059,17.833,39.107,19.771,39.033z"/>
			<path style="fill:#FFFFFF;" d="M25.543,11.305c-0.952,1.126-1.786,2.918-1.564,4.643c1.656,0.132,3.343-0.856,4.373-2.123
				c1.027-1.27,1.723-3.034,1.533-4.79C28.404,9.095,26.608,10.038,25.543,11.305z"/>
		</g>
	</g>
</g>
<g id="Layer_1">
</g>
</svg>
