<?xml version="1.0" encoding="iso-8859-1"?>
<!-- Generator: Adobe Illustrator 18.0.0, SVG Export Plug-In . SVG Version: 6.00 Build 0)  -->
<!DOCTYPE svg PUBLIC "-//W3C//DTD SVG 1.1//EN" "http://www.w3.org/Graphics/SVG/1.1/DTD/svg11.dtd">
<svg version="1.1" xmlns="http://www.w3.org/2000/svg" xmlns:xlink="http://www.w3.org/1999/xlink" x="0px" y="0px"
	 viewBox="0 0 48 48" style="enable-background:new 0 0 48 48;" xml:space="preserve">
<g id="Layer_309">
	<g>
		<path style="fill:#FFA616;" d="M46.522,0H23.524C10.27,0,0,10.847,0,24.101v23C0,47.654-0.029,48,0.524,48h23
			C36.777,48,48,37.357,48,24.101v-23C48,0.549,47.074,0,46.522,0z"/>
		<g>
			<path style="fill:#FFFFFF;" d="M24.024,37.035c8.283,0,15-4.368,15-9.753s-6.717-9.751-15-9.751
				c-4.176,0-7.955,1.11-10.674,2.901v-7.397H9.024v14.239v0.008v0.01v0.038h0.002C9.063,32.693,15.764,37.035,24.024,37.035z
				 M24.024,19.925c5.789,0,10.482,3.294,10.482,7.357s-4.693,7.359-10.482,7.359c-5.789,0-10.482-3.295-10.482-7.359
				S18.235,19.925,24.024,19.925z"/>
		</g>
	</g>
</g>
<g id="Layer_1">
</g>
</svg>
