<?xml version="1.0" encoding="iso-8859-1"?>
<!-- Generator: Adobe Illustrator 18.0.0, SVG Export Plug-In . SVG Version: 6.00 Build 0)  -->
<!DOCTYPE svg PUBLIC "-//W3C//DTD SVG 1.1//EN" "http://www.w3.org/Graphics/SVG/1.1/DTD/svg11.dtd">
<svg version="1.1" xmlns="http://www.w3.org/2000/svg" xmlns:xlink="http://www.w3.org/1999/xlink" x="0px" y="0px"
	 viewBox="0 0 48 48" style="enable-background:new 0 0 48 48;" xml:space="preserve">
<g id="Layer_355">
	<g>
		<path style="fill:#3C5B9B;" d="M46.989,0H23.993C10.737,0,0,10.623,0,23.879v23C0,47.431,0.438,48,0.991,48h23.002
			C37.245,48,48,37.132,48,23.879v-23C48,0.326,47.541,0,46.989,0z"/>
		<g>
			<path style="fill:#FFFFFF;" d="M20.018,39.035h6c0,0,0-8.282,0-15h4.453l0.547-6H26.25v-2.399c0-1.169,0.779-1.441,1.326-1.441
				c0.547,0,3.366,0,3.366,0V9.053l-4.635-0.019c-5.145,0-6.314,3.834-6.314,6.288v2.712h-2.975v6h3
				C20.018,30.834,20.018,39.035,20.018,39.035z"/>
		</g>
	</g>
</g>
<g id="Layer_1">
</g>
</svg>
