<?xml version="1.0" encoding="iso-8859-1"?>
<!-- Generator: Adobe Illustrator 18.0.0, SVG Export Plug-In . SVG Version: 6.00 Build 0)  -->
<!DOCTYPE svg PUBLIC "-//W3C//DTD SVG 1.1//EN" "http://www.w3.org/Graphics/SVG/1.1/DTD/svg11.dtd">
<svg version="1.1" xmlns="http://www.w3.org/2000/svg" xmlns:xlink="http://www.w3.org/1999/xlink" x="0px" y="0px"
	 viewBox="0 0 48 48" style="enable-background:new 0 0 48 48;" xml:space="preserve">
<g id="Layer_91">
</g>
<g id="Layer_90">
</g>
<g id="Layer_89">
</g>
<g id="Layer_88">
</g>
<g id="Layer_87">
</g>
<g id="Layer_86">
</g>
<g id="Layer_85">
</g>
<g id="Layer_84">
</g>
<g id="Layer_83">
</g>
<g id="Layer_82">
</g>
<g id="Layer_81">
</g>
<g id="Layer_80">
</g>
<g id="Layer_79">
</g>
<g id="Layer_78">
</g>
<g id="Layer_77">
</g>
<g id="Layer_76">
</g>
<g id="Layer_75">
</g>
<g id="Layer_74">
</g>
<g id="Layer_73">
</g>
<g id="Layer_72">
</g>
<g id="Layer_71">
</g>
<g id="Layer_70">
</g>
<g id="Layer_69">
</g>
<g id="Layer_68">
</g>
<g id="Layer_67">
</g>
<g id="Layer_66">
</g>
<g id="Layer_65">
</g>
<g id="Layer_64">
</g>
<g id="Layer_63">
</g>
<g id="Layer_62">
</g>
<g id="Layer_61">
</g>
<g id="Layer_60">
</g>
<g id="Layer_59">
</g>
<g id="Layer_58">
</g>
<g id="Layer_57">
</g>
<g id="Layer_56">
</g>
<g id="Layer_55">
</g>
<g id="Layer_54">
</g>
<g id="Layer_53">
</g>
<g id="Layer_52">
</g>
<g id="Layer_51">
</g>
<g id="Layer_50">
</g>
<g id="Layer_49">
</g>
<g id="Layer_48">
</g>
<g id="Layer_47">
</g>
<g id="Layer_46">
</g>
<g id="Layer_45">
</g>
<g id="Layer_44">
</g>
<g id="Layer_43">
</g>
<g id="Layer_42">
</g>
<g id="Layer_41">
</g>
<g id="Layer_40">
</g>
<g id="Layer_39">
</g>
<g id="Layer_38">
</g>
<g id="Layer_37">
</g>
<g id="Layer_36">
</g>
<g id="Layer_35">
</g>
<g id="Layer_34">
</g>
<g id="Layer_33">
</g>
<g id="Layer_32">
</g>
<g id="Layer_31">
</g>
<g id="Layer_30">
</g>
<g id="Layer_29">
</g>
<g id="Layer_28">
</g>
<g id="Layer_27">
</g>
<g id="Layer_26">
</g>
<g id="Layer_25">
</g>
<g id="Layer_24">
</g>
<g id="Layer_23">
</g>
<g id="Layer_22">
</g>
<g id="Layer_21">
</g>
<g id="Layer_20">
</g>
<g id="Layer_19">
</g>
<g id="Layer_18">
</g>
<g id="Layer_17">
</g>
<g id="Layer_16">
	<g>
		<path style="fill:#E61110;" d="M46.894,0H23.896C10.642,0,0,10.336,0,23.59v23C0,47.143,0.343,48,0.896,48h23
			C37.149,48,48,36.846,48,23.59v-23C48,0.037,47.446,0,46.894,0z"/>
		<path id="Zynga_7_" style="fill:#FFFFFF;" d="M29.053,9.031c0,0,2.066-0.196,3.684,0.868c0.587-0.028,1.061,0.225,1.368,0.785
			c0.308,0.56,0.865,1.904,0.419,2.717c-0.139,0.168-0.447-0.505-0.447-0.505s-0.223,0.813-0.642,1.12
			c0.056,1.68-0.614,2.856-0.809,3.249c-0.084,0.224-0.028,0.421,0.055,0.645c0.084,0.224,1.201,4.173,1.145,5.489
			c-0.056,1.316-0.726,2.885-1.256,3.417c0.111,1.092-0.391,2.017-0.642,2.465c-0.251,0.448-0.809,2.128-0.949,2.912
			c-0.14,0.785-0.195,1.625-0.028,1.877c0.168,0.252,0.921,1.036,0.865,1.428c-0.056,0.392-0.865,0.84-1.256,0.84
			c-0.391,0-1.201-0.252-1.396-0.785c-0.195-0.532-0.223-1.456-0.083-1.988c0.139-0.533,1.089-4.425,0.531-6.722
			c-1.368,0.616-3.657,0.589-3.657,0.589s-0.391,2.044-0.865,3.22c-0.167,0.28-0.14,2.185-0.14,3.389
			c0,1.204,0.419,3.081,0.419,3.081s0.586,0.421,0.503,0.952c-0.083,0.532-0.754,0.84-1.34,0.84c-0.586,0-1.367-0.448-1.367-1.176
			c0-0.728,0.111-2.38,0.055-3.585c-0.055-1.204-0.027-1.988-0.223-2.745c-0.196-0.756-0.754-2.745-0.81-4.285
			c-0.195,0-0.391-0.14-0.391-0.14s-0.921,1.064-1.563,1.68c0.084,0.42,0.307,1.176,0.307,1.344s0.168,0.308,0.447,0.42
			c0.279,0.113,1.144,0.589,1.116,1.064c-0.028,0.476-1.117,0.56-2.066,0.14c-0.223-0.112-1.033-2.828-1.144-3.193
			c-0.112-0.364-0.196-0.56-0.056-0.868c0.139-0.307,0.53-1.316,0.475-1.904c-0.056-0.588-1.145-1.512-1.87-1.512
			c-0.558,0-1.411,0.856-2.038,1.344c-0.754,0.589-1.619,1.484-1.842,1.624c-0.224,0.141-1.982,3.333-2.317,4.257
			c-0.139,0.364-0.418,2.185-1.897,2.128c-0.67-0.056-1.284-0.784,0.614-2.1c0.482-1.113,1.152-2.269,1.193-2.5
			c0.042-0.231,0.544-3.109,1.382-5.839c0.837-2.73,2.073-4.033,2.302-4.222c0.189-0.146,0.293-0.231,0.105-0.336
			c-0.188-0.105-2.177-1.807-1.8-5.419c0.063-0.42,0.251-0.315,0.377,0.651c0.126,0.966,0.9,3.235,2.617,3.949
			c0.167,0.063,1.403-0.882,7.704-1.344c0.042-1.113,0.21-2.29,0.21-2.29s-0.44-0.336-0.503-1.008
			c-0.209,0.337-0.335,0.421-0.607,0.378c-0.272-0.042-0.251-1.344-0.188-2.268c0.063-0.924,1.131-1.324,1.529-1.365
			c0.523-0.273,1.088-0.231,1.088-0.231S26.331,8.583,29.053,9.031L29.053,9.031z"/>
	</g>
</g>
<g id="Layer_15">
</g>
<g id="Layer_14">
</g>
<g id="Layer_13">
</g>
<g id="Layer_12">
</g>
<g id="Layer_11">
</g>
<g id="Layer_10">
</g>
<g id="Layer_9">
</g>
<g id="Layer_8">
</g>
<g id="Layer_7">
</g>
<g id="Layer_6">
</g>
<g id="Layer_5">
</g>
<g id="Layer_4">
</g>
<g id="Layer_3">
</g>
<g id="Layer_2">
</g>
<g id="Layer_1" style="display:none;">
</g>
<g id="nyt_x5F_exporter_x5F_info" style="display:none;">
</g>
</svg>
