<?xml version="1.0" encoding="iso-8859-1"?>
<!-- Generator: Adobe Illustrator 18.0.0, SVG Export Plug-In . SVG Version: 6.00 Build 0)  -->
<!DOCTYPE svg PUBLIC "-//W3C//DTD SVG 1.1//EN" "http://www.w3.org/Graphics/SVG/1.1/DTD/svg11.dtd">
<svg version="1.1" xmlns="http://www.w3.org/2000/svg" xmlns:xlink="http://www.w3.org/1999/xlink" x="0px" y="0px"
	 viewBox="0 0 48 48" style="enable-background:new 0 0 48 48;" xml:space="preserve">
<g id="Layer_316">
	<g>
		<path style="fill:#0072C4;" d="M47.456,0H24.458C11.203,0,0,10.847,0,24.101v23C0,47.654,0.904,48,1.457,48h23.001
			C37.711,48,48,37.357,48,24.101v-23C48,0.549,48.008,0,47.456,0z"/>
		<g>
			<path style="fill:#FFFFFF;" d="M10.018,33.066c0,3.287,6.29,5.969,14.001,5.969c7.713,0,14-2.682,14-5.969
				c0-1.697-1.685-3.226-4.365-4.314c0.083-0.449,0.142-0.896,0.144-1.348c0.024-5.639-3.043-7.84-6.289-9.717
				c0.94,4.937-2.099,7.988-5.876,6.92c5.52-9.029-2.513-9.051-0.059-15.572c-3.775,2.68-7.562,10.187-7.551,15.664
				c0.002,1.447,0.149,2.793,0.418,4.023C11.723,29.812,10.018,31.355,10.018,33.066z M18.66,21.584
				c-1.045,4.707,1.755,8.215,4.45,8.25c3.043,0.021,4.846-2.818,5.704-6.543c1.615,1.23,2.449,2.951,2.558,4.705
				c-0.004-0.002-0.008-0.002-0.012-0.004c0.123,1.986-0.689,4.016-2.376,5.434c-0.007,0.008-0.017,0.016-0.026,0.023
				c-0.361,0.303-0.765,0.576-1.207,0.814c-0.039,0.021-0.082,0.041-0.121,0.063c-0.177,0.092-0.359,0.178-0.55,0.258
				c-0.055,0.023-0.107,0.047-0.164,0.07c-0.463,0.186-0.961,0.336-1.495,0.449c-0.074,0.014-0.151,0.027-0.226,0.041
				c-0.201,0.037-0.407,0.068-0.618,0.094c-0.083,0.012-0.165,0.021-0.248,0.029c-0.287,0.029-0.579,0.051-0.882,0.055
				c-0.213,0.004-0.422-0.004-0.63-0.018c-0.055-0.002-0.108-0.008-0.163-0.014c-0.176-0.016-0.351-0.037-0.522-0.066
				c-0.034-0.006-0.066-0.01-0.099-0.016c-0.208-0.037-0.413-0.082-0.615-0.139c-0.024-0.008-0.05-0.016-0.073-0.021
				c-0.188-0.053-0.375-0.115-0.558-0.186c-0.02-0.006-0.038-0.014-0.058-0.019c-2.501-0.984-4.319-3.42-4.223-6.807
				c-0.005,0-0.008,0.002-0.014,0.004C16.549,26.154,17.195,23.974,18.66,21.584z"/>
		</g>
	</g>
</g>
<g id="Layer_1">
</g>
</svg>
