<?xml version="1.0" encoding="iso-8859-1"?>
<!-- Generator: Adobe Illustrator 18.0.0, SVG Export Plug-In . SVG Version: 6.00 Build 0)  -->
<!DOCTYPE svg PUBLIC "-//W3C//DTD SVG 1.1//EN" "http://www.w3.org/Graphics/SVG/1.1/DTD/svg11.dtd">
<svg version="1.1" xmlns="http://www.w3.org/2000/svg" xmlns:xlink="http://www.w3.org/1999/xlink" x="0px" y="0px"
	 viewBox="0 0 48 48" style="enable-background:new 0 0 48 48;" xml:space="preserve">
<g id="Layer_300">
	<g>
		<path style="fill:#E6501B;" d="M46.522,0H23.524C10.27,0,0,10.457,0,23.711v23C0,47.263-0.029,48,0.524,48h23
			C36.777,48,48,36.966,48,23.711v-23C48,0.16,47.074,0,46.522,0z"/>
		<g>
			<path style="fill:#FFFFFF;" d="M24.024,15.037c-3.313,0-6.313,1.344-8.484,3.516c-0.18,0.182-0.355,0.369-0.525,0.561v-8.584
				c0-0.824-0.668-1.494-1.494-1.494c-0.824,0-1.494,0.67-1.494,1.494v15.699c0,0.07,0.006,0.141,0.014,0.207
				c-0.01,0.199-0.014,0.398-0.014,0.602c0,3.31,1.344,6.31,3.514,8.482c2.172,2.172,5.172,3.516,8.484,3.516
				c3.312,0,6.312-1.344,8.484-3.516c2.172-2.172,3.514-5.172,3.514-8.482c0-3.314-1.342-6.314-3.514-8.484
				C30.336,16.38,27.336,15.037,24.024,15.037z M30.395,33.406c-1.631,1.631-3.883,2.641-6.371,2.641
				c-2.488,0-4.74-1.01-6.371-2.641c-1.631-1.629-2.639-3.883-2.639-6.369c0-2.488,1.008-4.742,2.639-6.373
				c1.631-1.631,3.885-2.639,6.371-2.639c2.488,0,4.74,1.008,6.371,2.639c1.631,1.631,2.639,3.885,2.639,6.373
				C33.034,29.523,32.026,31.777,30.395,33.406z"/>
			<circle style="fill:#FFFFFF;" cx="19.592" cy="27.498" r="2.656"/>
		</g>
	</g>
</g>
<g id="Layer_1">
</g>
</svg>
