<?xml version="1.0" encoding="iso-8859-1"?>
<!-- Generator: Adobe Illustrator 18.0.0, SVG Export Plug-In . SVG Version: 6.00 Build 0)  -->
<!DOCTYPE svg PUBLIC "-//W3C//DTD SVG 1.1//EN" "http://www.w3.org/Graphics/SVG/1.1/DTD/svg11.dtd">
<svg version="1.1" xmlns="http://www.w3.org/2000/svg" xmlns:xlink="http://www.w3.org/1999/xlink" x="0px" y="0px"
	 viewBox="0 0 48 48" style="enable-background:new 0 0 48 48;" xml:space="preserve">
<g id="Layer_356">
	<g>
		<path style="fill:#2DAAE1;" d="M46.604,0H23.606C10.352,0,0,10.623,0,23.879v23C0,47.431,0.053,48,0.606,48h23
			C36.86,48,48,37.132,48,23.879v-23C48,0.326,47.157,0,46.604,0z"/>
		<g>
			<path style="fill:#FFFFFF;" d="M13.052,19.115c0.006,1.41,0.034,2.829,0.041,4.246c0.002,1.525,0.006,3.051,0.006,4.575
				c0,8.54,7.84,10.961,9.343,10.961c1.505,0,7.396,0.138,8.459,0.138c1.065,0,4.117-0.279,4.117-3.337s-2.166-4.155-3.628-4.155
				h-5.849c-4.16,0-4.825-1.823-4.825-3.513c0-0.803,0.051-2.125,0.101-3.745h9.773c1.464,0,4.251-0.594,4.251-3.243
				c0-2.646-1.286-4.382-3.012-4.382H20.939c-0.012-3.819-0.262-7.625-4.03-7.625c-1.558,0-2.823,0.634-3.356,2.208
				c-0.7,2.067-0.515,4.488-0.507,6.642C13.05,18.294,13.052,18.705,13.052,19.115z"/>
		</g>
	</g>
</g>
<g id="Layer_1">
</g>
</svg>
