<?xml version="1.0" encoding="iso-8859-1"?>
<!-- Generator: Adobe Illustrator 18.0.0, SVG Export Plug-In . SVG Version: 6.00 Build 0)  -->
<!DOCTYPE svg PUBLIC "-//W3C//DTD SVG 1.1//EN" "http://www.w3.org/Graphics/SVG/1.1/DTD/svg11.dtd">
<svg version="1.1" xmlns="http://www.w3.org/2000/svg" xmlns:xlink="http://www.w3.org/1999/xlink" x="0px" y="0px"
	 viewBox="0 0 48 48" style="enable-background:new 0 0 48 48;" xml:space="preserve">
<g id="Layer_298">
	<g>
		<path style="fill:#82B641;" d="M47.221,0H24.223C10.969,0,0,10.457,0,23.711v23C0,47.263,0.67,48,1.223,48h23
			C37.477,48,48,36.966,48,23.711v-23C48,0.158,47.774,0,47.221,0z"/>
		<g>
			<path style="fill:#FFFFFF;" d="M12.916,33.397l9.012-20.261C11.53,17.465,8.656,24.262,12.916,33.397z"/>
			<path style="fill:#FFFFFF;" d="M31.797,11.234c-6.804,7.491-12.659,15.536-16.807,24.576c0.416,0.514,0.917,0.97,1.478,1.366
				c3.69,2.592,10.129,2.598,14.256-0.781c4.553-3.953,5.995-12.743,6.252-23.375c0.019-0.852,0.034-1.716,0.042-2.592
				C36.915,8.193,33.592,8.782,31.797,11.234z"/>
		</g>
	</g>
</g>
<g id="Layer_1">
</g>
</svg>
