<?xml version="1.0" encoding="iso-8859-1"?>
<!-- Generator: Adobe Illustrator 18.0.0, SVG Export Plug-In . SVG Version: 6.00 Build 0)  -->
<!DOCTYPE svg PUBLIC "-//W3C//DTD SVG 1.1//EN" "http://www.w3.org/Graphics/SVG/1.1/DTD/svg11.dtd">
<svg version="1.1" xmlns="http://www.w3.org/2000/svg" xmlns:xlink="http://www.w3.org/1999/xlink" x="0px" y="0px"
	 viewBox="0 0 48 48" style="enable-background:new 0 0 48 48;" xml:space="preserve">
<g id="Layer_368">
	<g>
		<path style="fill:#FCA82E;" d="M48,0.615C48,0.063,47.55,0,47.001,0c0,0-22.732,0-23,0C10.745,0,0,10.616,0,23.951
			C0,37.288,10.745,48,24.001,48C37.254,48,48,37.092,48,23.756C48,23.486,48,0.615,48,0.615z"/>
		<g>
			<path style="fill:#FFFFFF;" d="M18.682,24.722c0.445-2.625,0.645-4.746-1.893-3.133s-3.562,2.857-3.562,2.857
				s-0.867,0.374-0.645-0.573c0.223-0.947,1.514-8.365,1.625-9.586c0.111-1.221,0.236-1.221-0.193-1.314
				c-0.43-0.092-0.719,0-0.719,0s-1.402,0.115-1.647,2.512c-0.245,2.395-2.493,15.962-2.493,15.962s-0.579,1.795,0.512,1.843
				c1.091,0.046,1.736,0.461,2.738-3.34c1.002-3.801,2.27-5.897,3.429-5.897c1.157,0,0.867,1.291,0.557,3.179
				c-0.313,1.889-1.403,5.598-1.069,6.289c0.334,0.691,0.267,0.737,1.536,0.737c1.269,0,2.493-0.23,2.093-1.382
				C18.548,31.724,18.237,27.348,18.682,24.722z"/>
			<path style="fill:#FFFFFF;" d="M24.327,20.877c-0.544-0.172-1.089,0.004-1.089,0.004s-0.476-0.141-0.986,1.126
				c-0.51,1.267-1.667,6.372-1.633,8.554c0.033,2.182,0.033,2.992,0.681,2.782c0.646-0.212,2.585-0.141,2.347-2.358
				c-0.237-2.218,0.137-5.316,0.477-7.111C24.463,22.078,24.87,21.048,24.327,20.877z"/>
			<path style="fill:#FFFFFF;" d="M35.487,20.211c-1.497-0.035-3.846,1.056-4.491,1.373c-0.646,0.317-2.28,0.863-1.701-0.784
				c0.578-1.644,1.531-3.475,1.531-3.475s0.203-0.634,1.667-0.704c1.463-0.071,4.898,0.986,5.613,0.141
				c0.715-0.845,0.511-1.62,0.545-2.639c0.033-1.023,0-1.181-0.512-1.19c-0.51-0.008-3.742,0.626-5.034,0.626
				c-1.294,0-2.688-0.107-3.232,1.267c-0.544,1.372-2.96,8.095-2.96,8.095s-0.238,2.182,1.634,1.198
				c1.87-0.987,6.565-2.395,6.769,1.019s-1.19,8.202-4.899,8.061c-3.708-0.14-2.994-1.514-2.382-2.746
				c0.612-1.232,0.409-2.111-0.68-2.145c-1.089-0.036-3.198,1.336-2.042,3.624c1.157,2.289,2.144,3.098,5.478,3.133
				c3.334,0.034,8.028-4.224,8.199-9.68C39.16,19.931,36.984,20.248,35.487,20.211z"/>
			<path style="fill:#FFFFFF;" d="M26.368,17.082c-0.205-0.529-1.028-0.188-1.4-0.484c0.005,0.005-0.489-1.413-0.933-1.352
				c-0.301,0.042-0.357,0.703-0.561,0.967c-0.382,0.495-1.577,0.191-1.68,0.869c-0.032,0.214,0.579,0.732,0.653,0.868
				c0.305,0.561-0.367,1.249,0,1.739c0.242,0.322,1.028-0.308,1.493-0.29c0.098,0.003,0.184,0.017,0.261,0.035
				c0.396,0.212,1.006,0.703,1.211,0.492c0.263-0.268,0.011-0.947-0.033-1.334C25.699,17.882,26.545,17.545,26.368,17.082z"/>
		</g>
	</g>
</g>
<g id="Layer_1">
</g>
</svg>
