<?xml version="1.0" encoding="iso-8859-1"?>
<!-- Generator: Adobe Illustrator 18.0.0, SVG Export Plug-In . SVG Version: 6.00 Build 0)  -->
<!DOCTYPE svg PUBLIC "-//W3C//DTD SVG 1.1//EN" "http://www.w3.org/Graphics/SVG/1.1/DTD/svg11.dtd">
<svg version="1.1" xmlns="http://www.w3.org/2000/svg" xmlns:xlink="http://www.w3.org/1999/xlink" x="0px" y="0px"
	 viewBox="0 0 48 48" style="enable-background:new 0 0 48 48;" xml:space="preserve">
<g id="Layer_417">
	<g>
		<path style="fill:#0CB3EE;" d="M48,1c0-0.549-0.451-1-1-1c0,0-22.731,0-22.999,0C10.746,0,0,10.746,0,24
			c0,13.256,10.746,24,24.001,24C37.254,48,48,37.256,48,24C48,23.732,48,1,48,1z"/>
		<g>
			<path style="fill:#FFFFFF;" d="M9,33.312c2.098-0.828,3.793-1.16,5.219-1.16c2.35,0,3.978,0.889,5.516,1.891
				c0.568-1.893,2.506-8.368,2.873-9.602c-0.416-0.253-0.834-0.506-1.277-0.739c-1.033-0.52-2.475-1.06-4.053-1.06
				c-0.18,0-0.357,0.006-0.537,0.02c-1.584,0.129-3.025,0.526-4.039,0.875c-0.299,0.106-0.607,0.22-0.924,0.347L9,33.312z"/>
			<path style="fill:#FFFFFF;" d="M35.512,26.566c-2.023,0.71-3.768,0.978-5.242,0.978c-3.209,0-5.16-1.253-6.002-1.912l-2.77,9.415
				C21.494,35.043,24.734,37,27.166,37c1.539,0,3.379-0.369,5.678-1.299L35.512,26.566z"/>
			<path style="fill:#FFFFFF;" d="M25.953,12.763c0,0-1.988-1.167-3.373-1.513C21.92,11.097,21.172,11,20.346,11
				c-0.012,0-0.021,0-0.031,0c-1.408,0.027-3.094,0.361-5.168,1.189l-2.734,9.407c2.131-0.851,3.857-1.228,5.309-1.228
				c0.027,0,0.051,0,0.074,0c2.252,0.023,3.848,0.904,5.332,1.868c0.568-1.887,2.256-7.555,2.826-9.467V12.763z"/>
			<path style="fill:#FFFFFF;" d="M27.703,13.983l-2.805,9.508c0.008,0.009,0.02,0.014,0.029,0.02
				c1.543,1.01,3.549,1.828,5.969,1.828c1.6,0,3.377-0.357,5.32-1.254c0-0.003,0-0.01,0-0.012c0.004,0,0.01-0.004,0.018-0.006
				L39,14.732c-2.043,0.873-3.832,1.195-5.361,1.195C30.598,15.927,28.59,14.659,27.703,13.983z"/>
		</g>
	</g>
</g>
<g id="Layer_1">
</g>
</svg>
