<?xml version="1.0" encoding="iso-8859-1"?>
<!-- Generator: Adobe Illustrator 18.0.0, SVG Export Plug-In . SVG Version: 6.00 Build 0)  -->
<!DOCTYPE svg PUBLIC "-//W3C//DTD SVG 1.1//EN" "http://www.w3.org/Graphics/SVG/1.1/DTD/svg11.dtd">
<svg version="1.1" xmlns="http://www.w3.org/2000/svg" xmlns:xlink="http://www.w3.org/1999/xlink" x="0px" y="0px"
	 viewBox="0 0 48 48" style="enable-background:new 0 0 48 48;" xml:space="preserve">
<g id="Layer_382">
	<g>
		<path style="fill:#00605E;" d="M48,1.291C48,0.745,47.585,0,47.035,0c0,0-22.749,0-23.016,0C10.754,0,0,10.844,0,24.037
			C0,37.231,10.736,48,24.001,48C37.264,48,48,37.379,48,24.185C48,23.918,48,1.291,48,1.291z"/>
		<g>
			<polygon style="fill:#FFFFFF;" points="31.074,9 20.784,27.24 27.415,39 34.342,39 27.71,27.24 38,9 			"/>
			<polygon style="fill:#FFFFFF;" points="16.528,29.929 21.674,21.36 17.814,14 11.286,14 15.144,21.36 10,29.929 			"/>
		</g>
	</g>
</g>
<g id="Layer_1">
</g>
</svg>
