<?xml version="1.0" encoding="iso-8859-1"?>
<!-- Generator: Adobe Illustrator 18.0.0, SVG Export Plug-In . SVG Version: 6.00 Build 0)  -->
<!DOCTYPE svg PUBLIC "-//W3C//DTD SVG 1.1//EN" "http://www.w3.org/Graphics/SVG/1.1/DTD/svg11.dtd">
<svg version="1.1" xmlns="http://www.w3.org/2000/svg" xmlns:xlink="http://www.w3.org/1999/xlink" x="0px" y="0px"
	 viewBox="0 0 48 48" style="enable-background:new 0 0 48 48;" xml:space="preserve">
<g id="Layer_367">
	<g>
		<path style="fill:#2BB673;" d="M48,0.876C48,0.324,47.028,0,46.485,0c0,0-22.483,0-22.748,0C10.628,0,0,10.702,0,23.982
			C0,37.264,10.891,48,24,48C37.109,48,48,37.201,48,23.919C48,23.651,48,0.876,48,0.876z"/>
		<g>
			
				<rect x="15.772" y="32.46" transform="matrix(-1 4.805644e-004 -4.805644e-004 -1 43.6319 67.4386)" style="fill:#FFFFFF;" width="12.072" height="2.529"/>
			<polygon style="fill:#FFFFFF;" points="31.397,9.433 33.459,21.099 36,20.665 33.937,9 			"/>
			<polygon style="fill:#FFFFFF;" points="28.133,29.215 16.115,28.129 15.881,30.647 27.898,31.733 			"/>
			<polygon style="fill:#FFFFFF;" points="28.928,25.915 17.272,22.841 16.603,25.283 28.257,28.357 			"/>
			<polygon style="fill:#FFFFFF;" points="30.449,23.022 20.054,17.008 18.742,19.185 29.141,25.2 			"/>
			<polygon style="fill:#FFFFFF;" points="24.068,12.894 30.869,22.676 32.999,21.251 26.198,11.468 			"/>
			<path style="fill:#FFFFFF;" d="M29.893,37.007H14.063v-10.34H12v12.322h0.022C12.022,39,12.623,39,12.623,39h19.313v-0.011
				c0.02,0,0.02-0.59,0.02-0.59V26.667h-2.063V37.007z"/>
		</g>
	</g>
</g>
<g id="Layer_1">
</g>
</svg>
