<?xml version="1.0" encoding="iso-8859-1"?>
<!-- Generator: Adobe Illustrator 18.0.0, SVG Export Plug-In . SVG Version: 6.00 Build 0)  -->
<!DOCTYPE svg PUBLIC "-//W3C//DTD SVG 1.1//EN" "http://www.w3.org/Graphics/SVG/1.1/DTD/svg11.dtd">
<svg version="1.1" xmlns="http://www.w3.org/2000/svg" xmlns:xlink="http://www.w3.org/1999/xlink" x="0px" y="0px"
	 viewBox="0 0 48 48" style="enable-background:new 0 0 48 48;" xml:space="preserve">
<g id="Layer_374">
	<g>
		<path style="fill:#3777E3;" d="M48,0.902C48,0.352,48.221,0,47.664,0c0,0-23.044,0-23.316,0C10.911,0,0.017,10.717,0.017,23.998
			c0,13.282,10.555,24.022,23.992,24.022C37.445,48.02,48,37.23,48,23.948C48,23.68,48,0.902,48,0.902z"/>
		<g>
			<polygon style="fill:#FFFFFF;" points="19.403,29.973 15.2,36.62 14.951,36.987 15.451,36.987 34.665,36.987 34.835,36.987 
				34.918,36.864 39.288,29.973 			"/>
			<polygon style="fill:#FFFFFF;" points="29.432,11.078 29.347,10.935 29.178,10.937 20.88,10.968 20.379,10.972 20.629,11.395 
				30.237,27.621 30.323,27.764 30.491,27.764 38.787,27.729 39.288,27.727 39.036,27.304 			"/>
			<polygon style="fill:#FFFFFF;" points="23.335,19.371 23.248,19.228 19.071,12.239 18.817,11.818 18.568,12.241 8.961,28.466 
				8.876,28.609 8.963,28.75 13.141,35.741 13.392,36.164 13.644,35.741 23.25,19.514 			"/>
		</g>
	</g>
</g>
<g id="Layer_1">
</g>
</svg>
