<?xml version="1.0" encoding="iso-8859-1"?>
<!-- Generator: Adobe Illustrator 18.0.0, SVG Export Plug-In . SVG Version: 6.00 Build 0)  -->
<!DOCTYPE svg PUBLIC "-//W3C//DTD SVG 1.1//EN" "http://www.w3.org/Graphics/SVG/1.1/DTD/svg11.dtd">
<svg version="1.1" xmlns="http://www.w3.org/2000/svg" xmlns:xlink="http://www.w3.org/1999/xlink" x="0px" y="0px"
	 viewBox="0 0 48 48" style="enable-background:new 0 0 48 48;" xml:space="preserve">
<g id="Layer_375">
	<g>
		<path style="fill:#FF5C06;" d="M48,0.868c0-0.552-0.502-0.863-1.05-0.863c0,0-22.707,0-22.975,0C10.734,0.005,0,10.701,0,23.981
			c0,13.282,10.76,24.014,24.001,24.014C37.24,47.995,48,37.193,48,23.911C48,23.643,48,0.868,48,0.868z"/>
		<g>
			<ellipse style="fill:#FFFFFF;" cx="20.864" cy="18.412" rx="1.545" ry="1.514"/>
			<ellipse style="fill:#FFFFFF;" cx="27.313" cy="18.412" rx="1.545" ry="1.514"/>
			<path style="fill:#FFFFFF;" d="M29.541,9.963c0,1.108,0.92,2.009,2.052,2.009c1.132,0,2.052-0.903,2.052-2.014
				c0-1.11-0.92-2.013-2.052-2.013c-0.86,0-1.595,0.522-1.902,1.257l-4.232-0.992l-1.756,4.897c-2.503,0.046-4.769,0.709-6.463,1.77
				c-0.459-0.387-1.028-0.61-1.639-0.61c-1.385,0-2.513,1.106-2.513,2.465c0,0.842,0.443,1.618,1.16,2.07
				c-0.044,0.246-0.072,0.494-0.072,0.748c0,2.419,2.036,4.528,5.038,5.633c-1.625,0.983-2.669,2.457-2.669,4.109
				c0,1.814,1.241,3.489,3.323,4.482l0.03-0.058c0.092,0.388,0.194,0.76,0.313,1.105h-0.834c-0.727,0-1.315,0.226-1.746,0.672
				c-0.794,0.823-0.739,2.089-0.737,2.144l0.02,0.367h14.052l0.012-0.375c0.002-0.055,0.038-1.359-0.766-2.176
				c-0.413-0.419-0.962-0.632-1.633-0.632h-0.846c0.138-0.386,0.252-0.807,0.355-1.245l0.058,0.107
				c1.964-0.999,3.14-2.641,3.14-4.391c0-1.611-0.99-3.052-2.547-4.034c0-0.024,0.002-0.048,0.002-0.071
				c3.006-1.104,5.046-3.215,5.046-5.636c0-0.247-0.026-0.488-0.066-0.727c0.735-0.448,1.192-1.236,1.192-2.091
				c0-1.359-1.13-2.465-2.515-2.465c-0.617,0-1.194,0.226-1.653,0.622c-1.635-1.028-3.806-1.684-6.21-1.774l1.433-3.991
				L29.541,9.963z M31.593,8.72c0.697,0,1.263,0.556,1.263,1.239c0,0.683-0.567,1.239-1.263,1.239c-0.699,0-1.264-0.556-1.264-1.239
				C30.329,9.275,30.894,8.72,31.593,8.72z M13.876,16.733c0-0.932,0.774-1.69,1.725-1.69c0.353,0,0.687,0.104,0.97,0.295
				C15.577,16.093,14.852,17,14.475,18C14.104,17.681,13.876,17.226,13.876,16.733z M27.647,25.531
				c0.102,0.05,0.202,0.1,0.299,0.153c-0.046,7.119-0.768,11.504-3.944,11.504c-3.521,0-3.922-5.411-3.946-11.602
				c0.054-0.028,0.116-0.05,0.174-0.075c1.156,0.316,2.421,0.493,3.751,0.493C25.278,26.004,26.511,25.833,27.647,25.531z
				 M17.333,29.293c0-1.261,0.745-2.401,1.934-3.231c0.018,2.515,0.112,4.831,0.445,6.744
				C18.218,31.937,17.333,30.656,17.333,29.293z M18.204,36.027c0.281-0.29,0.667-0.431,1.174-0.431h1.148
				c0.325,0.685,0.737,1.236,1.248,1.635h-4.07C17.744,36.888,17.862,36.38,18.204,36.027z M28.579,35.596
				c0.453,0,0.8,0.128,1.064,0.394c0.353,0.356,0.477,0.886,0.521,1.241h-3.996c0.505-0.403,0.918-0.953,1.245-1.635H28.579z
				 M30.495,29.293c0,1.309-0.826,2.558-2.228,3.424c0.343-1.912,0.447-4.179,0.467-6.524
				C29.822,27.009,30.495,28.096,30.495,29.293z M23.98,25.229c-4.972,0-9.014-2.547-9.014-5.677c0-3.131,4.042-5.678,9.014-5.678
				c4.972,0,9.016,2.547,9.016,5.678C32.996,22.682,28.952,25.229,23.98,25.229z M32.397,15.043c0.952,0,1.725,0.758,1.725,1.69
				c0,0.506-0.24,0.97-0.627,1.288c-0.371-1.001-1.094-1.911-2.086-2.669C31.697,15.153,32.038,15.043,32.397,15.043z"/>
			<path style="fill:#FFFFFF;" d="M27.054,21.97c-0.01,0.009-0.95,0.917-3.092,0.917c-2.106,0-2.948-0.876-2.97-0.9
				c-0.142-0.161-0.389-0.179-0.553-0.04c-0.168,0.138-0.186,0.384-0.044,0.546c0.042,0.047,1.05,1.168,3.567,1.168
				c2.505,0,3.615-1.106,3.661-1.153c0.15-0.155,0.144-0.395-0.012-0.544C27.455,21.816,27.206,21.819,27.054,21.97z"/>
		</g>
	</g>
</g>
<g id="Layer_1">
</g>
</svg>
