<?xml version="1.0" encoding="iso-8859-1"?>
<!-- Generator: Adobe Illustrator 18.0.0, SVG Export Plug-In . SVG Version: 6.00 Build 0)  -->
<!DOCTYPE svg PUBLIC "-//W3C//DTD SVG 1.1//EN" "http://www.w3.org/Graphics/SVG/1.1/DTD/svg11.dtd">
<svg version="1.1" xmlns="http://www.w3.org/2000/svg" xmlns:xlink="http://www.w3.org/1999/xlink" x="0px" y="0px"
	 viewBox="0 0 48 48" style="enable-background:new 0 0 48 48;" xml:space="preserve">
<g id="Layer_372">
	<g>
		<path style="fill:#E6501B;" d="M48,0.91C48,0.36,47.061,0,46.518,0c0,0-22.498,0-22.763,0C10.636,0,0,10.716,0,23.989
			C0,37.263,10.882,48,24.001,48C37.118,48,48,37.217,48,23.943C48,23.675,48,0.91,48,0.91z"/>
		<g>
			<path style="fill:#FFFFFF;" d="M24,17.002c-3.313,0-6.313,1.344-8.484,3.516c-0.18,0.182-0.355,0.369-0.525,0.561v-8.584
				c0-0.824-0.668-1.494-1.494-1.494c-0.824,0-1.494,0.67-1.494,1.494v15.699c0,0.07,0.006,0.141,0.014,0.207
				c-0.01,0.199-0.014,0.398-0.014,0.602c0,3.31,1.344,6.31,3.514,8.482C17.688,39.656,20.688,41,24,41
				c3.312,0,6.312-1.344,8.484-3.516c2.172-2.172,3.514-5.172,3.514-8.482c0-3.314-1.342-6.314-3.514-8.484
				C30.313,18.346,27.313,17.002,24,17.002z M30.371,35.371c-1.631,1.631-3.883,2.641-6.371,2.641c-2.488,0-4.74-1.01-6.371-2.641
				c-1.631-1.629-2.639-3.883-2.639-6.369c0-2.488,1.008-4.742,2.639-6.373C19.26,20.998,21.514,19.99,24,19.99
				c2.488,0,4.74,1.008,6.371,2.639c1.631,1.631,2.639,3.885,2.639,6.373C33.01,31.488,32.002,33.742,30.371,35.371z"/>
			<circle style="fill:#FFFFFF;" cx="19.568" cy="29.463" r="2.656"/>
		</g>
	</g>
</g>
<g id="Layer_1">
</g>
</svg>
