<?xml version="1.0" encoding="iso-8859-1"?>
<!-- Generator: Adobe Illustrator 18.0.0, SVG Export Plug-In . SVG Version: 6.00 Build 0)  -->
<!DOCTYPE svg PUBLIC "-//W3C//DTD SVG 1.1//EN" "http://www.w3.org/Graphics/SVG/1.1/DTD/svg11.dtd">
<svg version="1.1" xmlns="http://www.w3.org/2000/svg" xmlns:xlink="http://www.w3.org/1999/xlink" x="0px" y="0px"
	 viewBox="0 0 48 48" style="enable-background:new 0 0 48 48;" xml:space="preserve">
<g id="Layer_366">
	<g>
		<path style="fill:#FF6C4C;" d="M48,0.91C48,0.36,47.732,0,47.181,0c0,0-22.819,0-23.088,0C10.787,0,0,10.716,0,23.989
			C0,37.263,10.695,48,24.001,48C37.305,48,48,37.217,48,23.943C48,23.675,48,0.91,48,0.91z"/>
		<polygon style="fill:#FFFFFF;" points="39,21 27,21 27,9 21,9 21,21 9,21 9,27 21,27 21,39 27,39 27,27 39,27 		"/>
	</g>
</g>
<g id="Layer_1">
</g>
</svg>
