<?xml version="1.0" encoding="iso-8859-1"?>
<!-- Generator: Adobe Illustrator 18.0.0, SVG Export Plug-In . SVG Version: 6.00 Build 0)  -->
<!DOCTYPE svg PUBLIC "-//W3C//DTD SVG 1.1//EN" "http://www.w3.org/Graphics/SVG/1.1/DTD/svg11.dtd">
<svg version="1.1" xmlns="http://www.w3.org/2000/svg" xmlns:xlink="http://www.w3.org/1999/xlink" x="0px" y="0px"
	 viewBox="0 0 48 48" style="enable-background:new 0 0 48 48;" xml:space="preserve">
<g id="Layer_370">
	<g>
		<path style="fill:#82B641;" d="M48,0.91C48,0.36,47.752,0,47.201,0c0,0-22.829,0-23.098,0C10.791,0,0,10.716,0,23.989
			C0,37.263,10.688,48,24.001,48C37.311,48,48,37.217,48,23.943C48,23.675,48,0.91,48,0.91z"/>
		<g>
			<path style="fill:#FFFFFF;" d="M12.851,33.375l9.05-20.29C11.458,17.421,8.572,24.227,12.851,33.375z"/>
			<path style="fill:#FFFFFF;" d="M31.812,11.181c-6.833,7.502-12.713,15.558-16.879,24.611c0.418,0.514,0.921,0.971,1.484,1.368
				c3.705,2.595,10.172,2.601,14.316-0.782c4.572-3.959,6.02-12.761,6.279-23.409c0.019-0.854,0.035-1.718,0.042-2.596
				C36.952,8.135,33.615,8.726,31.812,11.181z"/>
		</g>
	</g>
</g>
<g id="Layer_1">
</g>
</svg>
