<?xml version="1.0" encoding="iso-8859-1"?>
<!-- Generator: Adobe Illustrator 18.0.0, SVG Export Plug-In . SVG Version: 6.00 Build 0)  -->
<!DOCTYPE svg PUBLIC "-//W3C//DTD SVG 1.1//EN" "http://www.w3.org/Graphics/SVG/1.1/DTD/svg11.dtd">
<svg version="1.1" xmlns="http://www.w3.org/2000/svg" xmlns:xlink="http://www.w3.org/1999/xlink" x="0px" y="0px"
	 viewBox="0 0 48 48" style="enable-background:new 0 0 48 48;" xml:space="preserve">
<g id="Layer_392">
	<g>
		<path style="fill:#FF001A;" d="M48,1.291C48,0.745,47.752,0,47.201,0c0,0-22.829,0-23.098,0C10.791,0,0,10.844,0,24.037
			C0,37.231,10.688,48,24.001,48C37.311,48,48,37.379,48,24.185C48,23.918,48,1.291,48,1.291z"/>
		<g>
			<path style="fill:#FFFFFF;" d="M13.001,9.146c-1.722,0-3.001,1.342-3.001,3v14.999C10,33.76,15.701,40,22.563,40h3.113
				c6.86,0,12.442-4.799,12.442-11c0-6.205-4.185-11-9.331-11h-6.224c-1.72,0-3.111,1.341-3.111,3c0,1.655,1.391,3,3.111,3h6.224
				c1.436,0,3.109,2.042,3.109,5c0,2.893-2.791,5-6.22,5h-3.113C19.134,34,16,30.453,16,27.145V12.146
				C16,10.488,14.717,9.146,13.001,9.146z"/>
		</g>
	</g>
</g>
<g id="Layer_1">
</g>
</svg>
