<?xml version="1.0" encoding="iso-8859-1"?>
<!-- Generator: Adobe Illustrator 18.0.0, SVG Export Plug-In . SVG Version: 6.00 Build 0)  -->
<!DOCTYPE svg PUBLIC "-//W3C//DTD SVG 1.1//EN" "http://www.w3.org/Graphics/SVG/1.1/DTD/svg11.dtd">
<svg version="1.1" xmlns="http://www.w3.org/2000/svg" xmlns:xlink="http://www.w3.org/1999/xlink" x="0px" y="0px"
	 viewBox="0 0 48 48" style="enable-background:new 0 0 48 48;" xml:space="preserve">
<g>
</g>
<g>
</g>
<g>
</g>
<g>
</g>
<g>
</g>
<g>
</g>
<g>
</g>
<g>
</g>
<g>
</g>
<g>
</g>
<g>
</g>
<g>
</g>
<g>
</g>
<g>
</g>
<g>
</g>
<g>
</g>
<g>
</g>
<g>
</g>
<g>
</g>
<g>
</g>
<g>
</g>
<g>
</g>
<g>
</g>
<g>
</g>
<g>
</g>
<g>
</g>
<g>
</g>
<g>
</g>
<g>
</g>
<g>
</g>
<g>
</g>
<g>
</g>
<g>
</g>
<g>
</g>
<g>
</g>
<g>
</g>
<g>
</g>
<g>
</g>
<g>
</g>
<g>
</g>
<g>
</g>
<g>
</g>
<g>
</g>
<g>
</g>
<g>
</g>
<g>
</g>
<g>
</g>
<g>
</g>
<g>
</g>
<g>
</g>
<g>
</g>
<g>
</g>
<g>
</g>
<g>
</g>
<g>
</g>
<g>
</g>
<g>
</g>
<g>
</g>
<g>
</g>
<g>
</g>
<g>
</g>
<g>
</g>
<g>
</g>
<g>
</g>
<g>
</g>
<g>
</g>
<g>
</g>
<g>
</g>
<g>
</g>
<g>
</g>
<g>
</g>
<g>
</g>
<g>
</g>
<g>
</g>
<g>
</g>
<g>
</g>
<g>
</g>
<g>
</g>
<g>
</g>
<g>
</g>
<g>
</g>
<g>
</g>
<g>
</g>
<g>
</g>
<g>
</g>
<g>
</g>
<g>
	<g>
		<path style="fill:#00A2F2;" d="M48,0.777C48,0.227,48.094,0,47.538,0c0,0-23.044,0-23.316,0C10.784,0-0.109,10.655-0.109,23.935
			c0,13.282,10.618,23.991,24.056,23.991C37.382,47.926,48,37.104,48,23.822C48,23.554,48,0.777,48,0.777z"/>
		<g id="g18086_6_" transform="matrix(4.6798804,0,0,4.6798804,-14628.123,-100339.87)">
			<g id="bag_7_" transform="translate(2886.7719,21269.267)">
				<g id="handles_7_">
					<path id="path205_6_" style="fill:#FFFFFF;" d="M243.976,173.923c-0.281,0.097-0.486,0.18-0.486,0.708v0.254l0.168-0.033v-0.22
						c-0.004-0.358,0.09-0.433,0.336-0.538C243.992,174.027,243.986,173.97,243.976,173.923L243.976,173.923z"/>
					<path id="path207_6_" style="fill:#FFFFFF;" d="M244.465,173.81c0.011,0.051,0.02,0.107,0.026,0.167
						c0.44-0.062,0.431,0.116,0.431,0.489v0.138l0.166-0.034v-0.104C245.089,173.886,244.997,173.731,244.465,173.81z"/>
					<path id="path209_6_" style="fill:#FFFFFF;" d="M242.732,175.034v-0.762c-0.005-0.472,0.242-0.616,0.699-0.722
						c0.688-0.159,0.732,0.278,0.732,0.556v0.646l0.169-0.034v-0.598c-0.002-0.526-0.168-0.92-0.934-0.749
						c-0.413,0.092-0.834,0.196-0.834,0.885v0.81L242.732,175.034L242.732,175.034z"/>
				</g>
				<path id="path211_6_" style="fill:#FFFFFF;" d="M245.931,174.604l-4.63,0.911v3.315l4.63,0.911l0.925-0.331v-4.475
					L245.931,174.604L245.931,174.604z M243.324,178.145l-1.027-0.143v-0.84h1.027V178.145z M243.324,177.036h-1.027v-0.772
					l1.027-0.143V177.036z M244.748,178.34l-1.295-0.186v-0.99h1.295V178.34z M244.748,177.036h-1.295v-0.923l1.295-0.187V177.036z"
					/>
			</g>
		</g>
	</g>
</g>
<g>
</g>
<g>
</g>
<g>
</g>
<g id="nyt_x5F_exporter_x5F_info" style="display:none;">
</g>
</svg>
