<?xml version="1.0" encoding="iso-8859-1"?>
<!-- Generator: Adobe Illustrator 18.0.0, SVG Export Plug-In . SVG Version: 6.00 Build 0)  -->
<!DOCTYPE svg PUBLIC "-//W3C//DTD SVG 1.1//EN" "http://www.w3.org/Graphics/SVG/1.1/DTD/svg11.dtd">
<svg version="1.1" xmlns="http://www.w3.org/2000/svg" xmlns:xlink="http://www.w3.org/1999/xlink" x="0px" y="0px"
	 viewBox="0 0 48 48" style="enable-background:new 0 0 48 48;" xml:space="preserve">
<g id="Layer_385">
	<g>
		<path style="fill:#F2D040;" d="M48,1.453C48,0.908,47.909,0,47.356,0c0,0-22.904,0-23.173,0C10.827,0,0,10.899,0,24.058
			C0,37.218,10.645,48,24.001,48C37.355,48,48,37.448,48,24.288C48,24.022,48,1.453,48,1.453z"/>
		<g>
			<path style="fill:#FFFFFF;" d="M36.178,24.184c0,0-0.984-1.825-2.231-3.713c-2.033,1.818-4.138,1.513-5.034,1.319
				c-1.181-0.256-1.502-0.752-1.405-1.191c-0.687-0.215-3.105-1.635-4.565-2.108c-2.81,1.701-3.938,5.947-3.804,10.267
				c-1.885,3.559-3.288,4.758-7.139,5.641c0.722,1.688,1.015,2.321,2.09,4.559c4.817-1.294,7.895-4.103,9.788-6.504
				c3.223,0.814,5.579,2.85,7.525,6.541c2.021-1.674,2.243-1.845,3.963-3.218c-1.34-3.188-4.632-5.945-7.765-7.448
				c0.03-0.753,0.051-0.942,0.085-1.534C32.288,27.99,36.178,24.184,36.178,24.184z"/>
			<path style="fill:#FFFFFF;" d="M23.826,13.447c0,2.339,1.968,4.237,4.321,4.237c2.352,0,4.349-1.898,4.349-4.237
				c0-2.339-1.997-4.236-4.349-4.236C25.794,9.212,23.826,11.108,23.826,13.447z"/>
		</g>
	</g>
</g>
<g id="Layer_1">
</g>
</svg>
