<?xml version="1.0" encoding="iso-8859-1"?>
<!-- Generator: Adobe Illustrator 18.0.0, SVG Export Plug-In . SVG Version: 6.00 Build 0)  -->
<!DOCTYPE svg PUBLIC "-//W3C//DTD SVG 1.1//EN" "http://www.w3.org/Graphics/SVG/1.1/DTD/svg11.dtd">
<svg version="1.1" xmlns="http://www.w3.org/2000/svg" xmlns:xlink="http://www.w3.org/1999/xlink" x="0px" y="0px"
	 viewBox="0 0 48 48" style="enable-background:new 0 0 48 48;" xml:space="preserve">
<g id="Layer_365">
	<g>
		<path style="fill:#FFC500;" d="M48,0.876C48,0.326,47.008,0,46.465,0c0,0-22.473,0-22.737,0C10.623,0,0,10.704,0,23.984
			C0,37.266,10.897,48,24.001,48C37.103,48,48,37.203,48,23.921C48,23.653,48,0.876,48,0.876z"/>
		<polygon style="fill:#FFFFFF;" points="24,10 27.937,20.159 39,20.695 30.369,27.51 33.269,38 24,32.052 14.729,38 17.629,27.51 
			9,20.695 20.063,20.159 		"/>
	</g>
</g>
<g id="Layer_1">
</g>
</svg>
