<?xml version="1.0" encoding="iso-8859-1"?>
<!-- Generator: Adobe Illustrator 18.0.0, SVG Export Plug-In . SVG Version: 6.00 Build 0)  -->
<!DOCTYPE svg PUBLIC "-//W3C//DTD SVG 1.1//EN" "http://www.w3.org/Graphics/SVG/1.1/DTD/svg11.dtd">
<svg version="1.1" xmlns="http://www.w3.org/2000/svg" xmlns:xlink="http://www.w3.org/1999/xlink" x="0px" y="0px"
	 viewBox="0 0 48 48" style="enable-background:new 0 0 48 48;" xml:space="preserve">
<g id="Layer_363">
	<g>
		<path style="fill:#E04D2B;" d="M48,0.902C48,0.352,47.968,0,47.415,0c0,0-22.924,0-23.194,0C10.854,0,0.017,10.717,0.017,23.998
			c0,13.282,10.625,24.022,23.992,24.022C37.375,48.02,48,37.23,48,23.948C48,23.68,48,0.902,48,0.902z"/>
		<path style="fill-rule:evenodd;clip-rule:evenodd;fill:#FFFFFF;" d="M24.092,38.991c-0.343,0-0.685-0.012-1.024-0.033
			l6.328-10.893c0.888-1.135,1.418-2.562,1.418-4.112c0-2.507-1.387-4.693-3.441-5.844H38.03c0.764,1.799,1.188,3.777,1.188,5.851
			C39.218,32.262,32.447,38.991,24.092,38.991z M24.062,17.247c-3.705,0-6.712,2.967-6.748,6.64l-5.251-9.035
			c2.763-3.599,7.124-5.92,12.028-5.92c5.918,0,11.039,3.376,13.525,8.296H24.062V17.247z M24.129,29.603
			c-3.128,0-5.662-2.519-5.662-5.626s2.535-5.626,5.662-5.626s5.664,2.519,5.664,5.626S27.257,29.603,24.129,29.603z M24.062,30.662
			c1.197,0,2.32-0.309,3.295-0.853l-5.261,9.053c-7.41-0.971-13.131-7.272-13.131-14.9c0-3.076,0.934-5.939,2.531-8.321
			l6.342,10.914C18.861,28.967,21.264,30.662,24.062,30.662z"/>
	</g>
</g>
<g id="Layer_1">
</g>
</svg>
