<?xml version="1.0" encoding="iso-8859-1"?>
<!-- Generator: Adobe Illustrator 18.0.0, SVG Export Plug-In . SVG Version: 6.00 Build 0)  -->
<!DOCTYPE svg PUBLIC "-//W3C//DTD SVG 1.1//EN" "http://www.w3.org/Graphics/SVG/1.1/DTD/svg11.dtd">
<svg version="1.1" xmlns="http://www.w3.org/2000/svg" xmlns:xlink="http://www.w3.org/1999/xlink" x="0px" y="0px"
	 viewBox="0 0 48 48" style="enable-background:new 0 0 48 48;" xml:space="preserve">
<g id="Layer_362">
	<g>
		<path style="fill:#95A2AD;" d="M48,0.902C48,0.35,47.223,0,46.678,0c0,0-22.567,0-22.833,0C10.685,0,0.017,10.715,0.017,23.996
			c0,13.282,10.833,24.024,23.992,24.024C37.167,48.02,48,37.228,48,23.946C48,23.678,48,0.902,48,0.902z"/>
		<path style="fill-rule:evenodd;clip-rule:evenodd;fill:#FFFFFF;" d="M20,28.108c-1.09-0.715-1.512-1.716-1.47-2.956
			c0.038-1.171,0.192-2.283,1.36-2.943c-0.203-0.103-0.38-0.182-0.549-0.279c-1.126-0.655-1.84-1.69-2.378-2.852
			c-2.043-4.428,0.693-9.488,5.433-10.082c1.574-0.197,3.071,0.058,4.495,0.791c0.234,0.118,0.526,0.177,0.784,0.163
			c1.333-0.068,2.606-0.431,3.859-0.888c0.082-0.03,0.163-0.065,0.247-0.093c0.019-0.008,0.044,0.001,0.087,0.005
			c0.006,0.096,0.017,0.197,0.017,0.296c0,1.274-0.006,2.548,0.006,3.821c0.002,0.247-0.065,0.369-0.304,0.427
			c-0.45,0.11-0.893,0.248-1.345,0.374c-0.002,0.035-0.013,0.068-0.006,0.097c1.134,3.354-0.929,8.417-5.601,9.079
			c-1.071,0.152-1.616,0.821-1.591,1.827c0.013,0.576,0.361,0.96,0.737,1.318c0.604,0.574,1.362,0.757,2.146,0.889
			c1.168,0.194,2.306,0.505,3.358,1.087c1.789,0.991,2.568,2.542,2.416,4.613c-0.068,0.946-0.226,1.868-0.63,2.734
			c-0.712,1.525-1.916,2.457-3.454,2.903c-2.701,0.784-5.407,0.759-8.064-0.226c-1.371-0.508-2.537-1.35-3.08-2.804
			c-0.742-1.983-0.668-3.907,0.758-5.59c0.668-0.789,1.565-1.242,2.507-1.598C19.798,28.195,19.857,28.169,20,28.108z
			 M26.122,16.193c-0.038-0.353-0.051-0.649-0.099-0.938c-0.236-1.392-1.064-2.205-2.347-2.315
			c-1.354-0.117-2.338,0.605-2.653,1.968c-0.175,0.76-0.182,1.534-0.021,2.299c0.198,0.932,0.718,1.596,1.645,1.799
			c0.456,0.099,0.948,0.126,1.409,0.069c1.062-0.13,1.679-0.745,1.916-1.825C26.052,16.887,26.079,16.512,26.122,16.193z
			 M23.921,35.119c0.875,0.001,1.654-0.045,2.374-0.425c0.775-0.409,1.081-1.095,1.065-1.96c-0.015-0.841-0.416-1.451-1.164-1.729
			c-0.562-0.208-1.168-0.331-1.762-0.39c-0.913-0.092-1.831-0.043-2.702,0.31c-0.856,0.349-1.295,1.016-1.303,1.936
			c-0.006,0.883,0.441,1.525,1.312,1.887C22.468,35.05,23.236,35.102,23.921,35.119z"/>
	</g>
</g>
<g id="Layer_1">
</g>
</svg>
