<?xml version="1.0" encoding="iso-8859-1"?>
<!-- Generator: Adobe Illustrator 18.0.0, SVG Export Plug-In . SVG Version: 6.00 Build 0)  -->
<!DOCTYPE svg PUBLIC "-//W3C//DTD SVG 1.1//EN" "http://www.w3.org/Graphics/SVG/1.1/DTD/svg11.dtd">
<svg version="1.1" xmlns="http://www.w3.org/2000/svg" xmlns:xlink="http://www.w3.org/1999/xlink" x="0px" y="0px"
	 viewBox="0 0 48 48" style="enable-background:new 0 0 48 48;" xml:space="preserve">
<g id="Layer_406">
	<g>
		<path style="fill:#2D9AD2;" d="M48,1c0-0.551-0.451-1-1-1c0,0-22.731,0-22.999,0C10.746,0,0,10.744,0,23.998
			C0,37.254,10.746,48,24.001,48C37.254,48,48,37.254,48,23.998C48,23.731,48,1,48,1z"/>
		<g>
			<path style="fill:#FFFFFF;" d="M13.149,34h5.416c0,0,5.91-0.219,5.91-6.195c0,0,0.258-4.864-3.484-4.864
				c0,0,2.838-0.222,2.838-3.725c0-3.505-2.322-5.216-5.264-5.216h-5.416h-0.16H9.117v20h3.871H13.149z M13.149,17.483h4.719h0.697
				c0,0,1.314,0,1.314,2.035c0,2.037-0.773,2.333-1.65,2.333h-5.08V17.483z M13.149,24.871h5.416c0,0,1.959-0.029,1.959,2.689
				c0,2.29-1.463,2.527-2.232,2.545c-0.144,0.002-0.266,0-0.348,0h-4.795V24.871z"/>
			<path style="fill:#FFFFFF;" d="M32.358,18.983c-7.154,0-7.148,7.524-7.148,7.524s-0.492,7.487,7.148,7.487
				c0,0,6.367,0.382,6.367-5.209h-3.275c0,0,0.109,2.107-2.982,2.107c0,0-3.275,0.23-3.275-3.408h9.641
				C38.832,27.484,39.887,18.983,32.358,18.983z M29.155,24.871c0,0,0.4-3.02,3.275-3.02s2.836,3.02,2.836,3.02H29.155z"/>
			<rect x="28.354" y="15.153" style="fill:#FFFFFF;" width="7.676" height="1.847"/>
		</g>
	</g>
</g>
<g id="Layer_1">
</g>
</svg>
