<?xml version="1.0" encoding="iso-8859-1"?>
<!-- Generator: Adobe Illustrator 18.0.0, SVG Export Plug-In . SVG Version: 6.00 Build 0)  -->
<!DOCTYPE svg PUBLIC "-//W3C//DTD SVG 1.1//EN" "http://www.w3.org/Graphics/SVG/1.1/DTD/svg11.dtd">
<svg version="1.1" xmlns="http://www.w3.org/2000/svg" xmlns:xlink="http://www.w3.org/1999/xlink" x="0px" y="0px"
	 viewBox="0 0 48 48" style="enable-background:new 0 0 48 48;" xml:space="preserve">
<g id="Layer_371">
	<g>
		<path style="fill:#68C1EC;" d="M48,0.91C48,0.36,47.437,0,46.889,0c0,0-22.678,0-22.945,0C10.72,0,0,10.716,0,23.989
			C0,37.263,10.777,48,24.001,48C37.223,48,48,37.217,48,23.943C48,23.675,48,0.91,48,0.91z"/>
		<g>
			<path style="fill:#FFFFFF;" d="M31.466,14.152c-2.859-0.106-5.41,1.401-6.861,3.738h-0.021c-0.047,0.138-0.15,0.236-0.273,0.238
				c-0.125,0.001-0.232-0.093-0.281-0.229h-0.002c-1.229-2.928-4.051-4.954-7.307-4.899c-4.326,0.073-7.965,3.8-7.707,8.307
				c0.482,8.4,9.086,7.258,7.732,17.037c0.016,0.486,0.051,0.843,1,0.547c21.998-6.846,21.189-15.106,21.246-16.358
				C39.194,18.022,35.794,14.311,31.466,14.152z"/>
		</g>
	</g>
</g>
<g id="Layer_1">
</g>
</svg>
