<?xml version="1.0" encoding="iso-8859-1"?>
<!-- Generator: Adobe Illustrator 18.0.0, SVG Export Plug-In . SVG Version: 6.00 Build 0)  -->
<!DOCTYPE svg PUBLIC "-//W3C//DTD SVG 1.1//EN" "http://www.w3.org/Graphics/SVG/1.1/DTD/svg11.dtd">
<svg version="1.1" xmlns="http://www.w3.org/2000/svg" xmlns:xlink="http://www.w3.org/1999/xlink" x="0px" y="0px"
	 viewBox="0 0 48 48" style="enable-background:new 0 0 48 48;" xml:space="preserve">
<g id="Layer_364">
	<g>
		<path style="fill:#FE7A15;" d="M48,0.91C48,0.358,47.52,0,46.971,0c0,0-22.716,0-22.983,0C10.739,0,0,10.714,0,23.987
			C0,37.261,10.754,48,24.003,48C37.246,48,48,37.215,48,23.941C48,23.673,48,0.91,48,0.91z"/>
		<g>
			<path style="fill:#FFFFFF;" d="M29.679,11.787c1.214,0.119,2.366,0.446,3.384,0.964c0.363,0.186,0.788,0.199,1.165,0.04
				c0.374-0.159,0.659-0.477,0.774-0.865c0.2-0.662-0.127-1.355-0.741-1.636C32.583,9.446,30.64,9,28.64,9
				c-2.741,0-5.331,0.829-7.294,2.333c-0.806,0.618-1.47,1.32-1.982,2.084c2.11-1.244,4.66-1.919,7.333-1.919
				C27.711,11.498,28.71,11.596,29.679,11.787z"/>
			<path style="fill:#FFFFFF;" d="M26.714,14.767c1.865,0,3.661,0.414,5.192,1.196c0.021,0.011,0.043,0.021,0.065,0.03
				c1.049,0.551,1.784,1.312,2.104,2.142c1.118,0.99,1.9,2.185,2.268,3.48C36.774,20.813,37,19.948,37,19.061
				c0-2.236-1.435-4.305-3.839-5.533c-0.025-0.013-0.051-0.024-0.075-0.036c-1.902-0.955-4.104-1.459-6.372-1.459
				c-3.106,0-6.043,0.938-8.264,2.642c-0.988,0.756-1.786,1.625-2.378,2.57c2.359-1.426,5.225-2.211,8.237-2.242
				C25.083,14.848,25.891,14.767,26.714,14.767z"/>
			<path style="fill:#FFFFFF;" d="M35.935,29.44c-0.62-0.435-1.476-0.287-1.914,0.33c-0.586,0.828-1.208,1.457-1.904,1.924
				c-0.839,0.563-2.166,1.432-2.18,1.44c-0.386,0.252-0.62,0.682-0.62,1.143l0.002,1.285l-3.376-1.436
				c-0.196-0.082-0.406-0.119-0.616-0.107c-0.271,0.015-0.543,0.022-0.814,0.022c-3.996,0-7.639-1.636-9.503-4.268
				c-0.043-0.06-0.092-0.11-0.141-0.161c-0.743-1.095-1.125-2.271-1.125-3.501c0-4.353,4.806-7.895,10.713-7.895
				c2.153,0,4.231,0.473,6.007,1.369c0.02,0.01,0.039,0.019,0.059,0.027c1.763,0.901,2.812,2.299,2.812,3.75
				c0,1.174-0.672,2.308-1.894,3.191c-1.355,0.979-3.178,1.52-5.135,1.52c-0.496,0-0.992-0.035-1.472-0.105
				c-0.004-0.002-0.008-0.002-0.014-0.002c-1.376-0.209-2.692-0.662-3.806-1.309c0-0.001-0.002-0.001-0.002-0.002
				c-2.18-1.286-3.431-3.179-3.431-5.205c0-0.296,0.029-0.59,0.082-0.88c-1.121,0.727-2.02,1.632-2.614,2.652
				c0.561,2.316,2.202,4.416,4.627,5.826c0.02,0.012,0.041,0.016,0.061,0.025c1.392,0.792,3.01,1.346,4.692,1.6
				c0.01,0.001,0.018,0.002,0.027,0.004c0.606,0.087,1.227,0.131,1.849,0.131c2.531,0,4.927-0.725,6.747-2.041
				c1.953-1.412,3.027-3.331,3.027-5.404c0-2.521-1.637-4.847-4.378-6.221c-0.02-0.01-0.041-0.02-0.061-0.029
				c-2.145-1.067-4.629-1.631-7.184-1.631c-3.529,0-6.862,1.064-9.384,2.996C12.447,20.492,11,23.203,11,26.111
				c0,1.826,0.592,3.625,1.71,5.203c0.057,0.079,0.122,0.145,0.19,0.209c2.404,3.244,6.827,5.253,11.615,5.253
				c0.212,0,0.425-0.004,0.639-0.012l4.996,2.126C30.322,38.964,30.506,39,30.689,39c0.265,0,0.527-0.076,0.755-0.226
				c0.386-0.253,0.618-0.682,0.618-1.141l0.002-2.619c0.467-0.306,1.106-0.728,1.588-1.052c0.965-0.647,1.843-1.527,2.616-2.617
				C36.704,30.729,36.555,29.876,35.935,29.44z"/>
			<path style="fill:#FFFFFF;" d="M26.683,25.586l0.01,0.002c0.533,0.077,1.082,0.115,1.631,0.115c1.449,0,2.845-0.272,4.08-0.772
				c0.323-0.502,0.496-1.038,0.496-1.58c0-0.517-0.159-1.028-0.453-1.51c-1.102,0.712-2.578,1.128-4.123,1.128
				c-0.418,0-0.835-0.029-1.235-0.087c-2.806-0.418-5.011-1.921-5.845-3.825c-0.925,0.225-1.79,0.543-2.576,0.937
				C19.84,22.82,22.856,25.016,26.683,25.586z"/>
		</g>
	</g>
</g>
<g id="Layer_1">
</g>
</svg>
