<?xml version="1.0" encoding="iso-8859-1"?>
<!-- Generator: Adobe Illustrator 18.0.0, SVG Export Plug-In . SVG Version: 6.00 Build 0)  -->
<!DOCTYPE svg PUBLIC "-//W3C//DTD SVG 1.1//EN" "http://www.w3.org/Graphics/SVG/1.1/DTD/svg11.dtd">
<svg version="1.1" xmlns="http://www.w3.org/2000/svg" xmlns:xlink="http://www.w3.org/1999/xlink" x="0px" y="0px"
	 viewBox="0 0 48 48" style="enable-background:new 0 0 48 48;" xml:space="preserve">
<g id="Layer_394">
	<g>
		<path style="fill:#EB4721;" d="M48,1.291C48,0.745,47.901,0,47.349,0c0,0-22.9,0-23.17,0C10.825,0,0,10.844,0,24.037
			C0,37.231,10.647,48,24.001,48C37.353,48,48,37.379,48,24.185C48,23.918,48,1.291,48,1.291z"/>
		<g>
			<path style="fill:#FFFFFF;" d="M22.158,28.538v-9.074c0-0.838,0.291-1.833,1.842-1.833c1.549,0,1.93,0.995,1.93,1.833v1.73
				l1.807,0.978l2.846-0.978v-1.73C30.582,15.901,27.703,13,24,13c-3.701,0-6.562,2.901-6.562,6.464v9.074
				c0,0.836-0.543,1.885-1.885,1.885c-1.342,0-1.893-1.048-1.893-1.885v-3.565H9v3.565C9,32.099,12.01,35,15.711,35
				C19.414,35,22.158,32.101,22.158,28.538z"/>
			<path style="fill:#FFFFFF;" d="M34.381,28.538c0,0.836-0.517,1.866-1.912,1.866c-1.398,0-1.914-1.029-1.914-1.866v-3.611
				l-2.787,0.974l-1.832-0.974v3.735c0,3.563,2.65,6.338,6.352,6.338C35.99,35,39,32.101,39,28.538v-3.611h-4.619V28.538z"/>
		</g>
	</g>
</g>
<g id="Layer_1">
</g>
</svg>
