<?xml version="1.0" encoding="iso-8859-1"?>
<!-- Generator: Adobe Illustrator 18.0.0, SVG Export Plug-In . SVG Version: 6.00 Build 0)  -->
<!DOCTYPE svg PUBLIC "-//W3C//DTD SVG 1.1//EN" "http://www.w3.org/Graphics/SVG/1.1/DTD/svg11.dtd">
<svg version="1.1" xmlns="http://www.w3.org/2000/svg" xmlns:xlink="http://www.w3.org/1999/xlink" x="0px" y="0px"
	 viewBox="0 0 48 48" style="enable-background:new 0 0 48 48;" xml:space="preserve">
<g>
</g>
<g>
</g>
<g>
</g>
<g>
</g>
<g>
</g>
<g>
</g>
<g>
</g>
<g>
</g>
<g>
</g>
<g>
</g>
<g>
</g>
<g>
</g>
<g>
</g>
<g>
</g>
<g>
</g>
<g>
</g>
<g>
</g>
<g>
</g>
<g>
</g>
<g>
</g>
<g>
</g>
<g>
</g>
<g>
</g>
<g>
</g>
<g>
</g>
<g>
</g>
<g>
</g>
<g>
</g>
<g>
</g>
<g>
</g>
<g>
</g>
<g>
</g>
<g>
</g>
<g>
</g>
<g>
</g>
<g>
</g>
<g>
</g>
<g>
</g>
<g>
</g>
<g>
</g>
<g>
</g>
<g>
</g>
<g>
</g>
<g>
</g>
<g>
</g>
<g>
</g>
<g>
</g>
<g>
</g>
<g>
</g>
<g>
</g>
<g>
</g>
<g>
</g>
<g>
</g>
<g>
</g>
<g>
</g>
<g>
</g>
<g>
</g>
<g>
</g>
<g>
</g>
<g>
</g>
<g>
</g>
<g>
</g>
<g>
</g>
<g>
</g>
<g>
</g>
<g>
</g>
<g>
</g>
<g>
</g>
<g>
</g>
<g>
</g>
<g>
</g>
<g>
</g>
<g>
</g>
<g>
</g>
<g>
</g>
<g>
</g>
<g>
</g>
<g>
</g>
<g>
</g>
<g>
</g>
<g>
</g>
<g>
</g>
<g>
</g>
<g>
</g>
<g>
</g>
<g>
	<g>
		<path style="fill:#2E2E2E;" d="M48,0.91C48,0.36,47.585,0,47.035,0c0,0-22.749,0-23.016,0C10.754,0,0,10.716,0,23.989
			C0,37.263,10.736,48,24.001,48C37.264,48,48,37.217,48,23.942C48,23.675,48,0.91,48,0.91z"/>
		<g id="g24732_6_" transform="matrix(2.3244229,0,0,2.3244229,-1572.0456,-1430.0838)">
			<path id="path24730_6_" style="fill:#FFFFFF;" d="M691.538,620.145c0,0.807-0.653,1.46-1.458,1.46s-1.458-0.654-1.458-1.46
				c0-0.807,0.653-1.46,1.458-1.46S691.538,619.338,691.538,620.145z"/>
			<path id="path24702_6_" style="fill:#FFFFFF;" d="M680.744,631.581c-0.008-0.021-0.013-0.527-0.012-1.104l0.003-1.072h0.578
				h0.573c-0.011-1.535,0.011-3.093,0-4.628l-0.626-0.004l-0.599-0.004l-0.021-1.102l-0.021-1.102h0.629h0.638v-0.656
				c0-1.537,0.916-2.466,2.501-2.864c0.972-0.199,1.498-0.139,2.488-0.117l0.021,1.181l0.021,1.181h-0.657
				c-1.014,0-1.31,0.246-1.312,0.956v0.319c2.221,0,4.387,0,6.608,0c0,2.275,0,4.566,0,6.841h1.104c0,0-0.003-0.007,0,0.153
				c0.017,0.85-0.008,1.006,0,2.023c-0.024,0.024-1.224-0.004-2.643,0h-2.579v-1.081v-1.095c0.374,0,0.749,0,1.123,0
				c0-1.546,0-3.09,0-4.635c-1.044,0.012-2.682,0.006-3.613,0c-0.071,1.753-0.041,2.543,0,4.635c0.418,0.016,0.836-0.014,1.254,0
				l0.021,1.109l0.021,1.067H683.5C681.992,631.581,680.752,631.601,680.744,631.581z"/>
		</g>
	</g>
</g>
<g>
</g>
<g>
</g>
<g>
</g>
<g>
</g>
<g id="nyt_x5F_exporter_x5F_info" style="display:none;">
</g>
</svg>
