<?xml version="1.0" encoding="iso-8859-1"?>
<!-- Generator: Adobe Illustrator 18.0.0, SVG Export Plug-In . SVG Version: 6.00 Build 0)  -->
<!DOCTYPE svg PUBLIC "-//W3C//DTD SVG 1.1//EN" "http://www.w3.org/Graphics/SVG/1.1/DTD/svg11.dtd">
<svg version="1.1" xmlns="http://www.w3.org/2000/svg" xmlns:xlink="http://www.w3.org/1999/xlink" x="0px" y="0px"
	 viewBox="0 0 48 48" style="enable-background:new 0 0 48 48;" xml:space="preserve">
<g>
</g>
<g>
</g>
<g>
</g>
<g>
</g>
<g>
</g>
<g>
</g>
<g>
</g>
<g>
</g>
<g>
</g>
<g>
</g>
<g>
</g>
<g>
</g>
<g>
</g>
<g>
</g>
<g>
</g>
<g>
</g>
<g>
</g>
<g>
</g>
<g>
</g>
<g>
</g>
<g>
</g>
<g>
</g>
<g>
</g>
<g>
</g>
<g>
</g>
<g>
</g>
<g>
</g>
<g>
</g>
<g>
</g>
<g>
</g>
<g>
</g>
<g>
</g>
<g>
</g>
<g>
</g>
<g>
</g>
<g>
</g>
<g>
</g>
<g>
</g>
<g>
</g>
<g>
</g>
<g>
</g>
<g>
</g>
<g>
</g>
<g>
</g>
<g>
</g>
<g>
</g>
<g>
</g>
<g>
</g>
<g>
</g>
<g>
</g>
<g>
</g>
<g>
</g>
<g>
</g>
<g>
</g>
<g>
</g>
<g>
</g>
<g>
</g>
<g>
</g>
<g>
</g>
<g>
</g>
<g>
</g>
<g>
</g>
<g>
</g>
<g>
</g>
<g>
</g>
<g>
</g>
<g>
</g>
<g>
</g>
<g>
</g>
<g>
</g>
<g>
</g>
<g>
</g>
<g>
</g>
<g>
</g>
<g>
</g>
<g>
</g>
<g>
</g>
<g>
</g>
<g>
</g>
<g>
</g>
<g>
</g>
<g>
</g>
<g>
</g>
<g>
</g>
<g>
</g>
<g>
</g>
<g>
</g>
<g>
</g>
<g>
</g>
<g>
	<g>
		<path style="fill:#6EE06E;" d="M48,0.876C48,0.326,47.008,0,46.465,0c0,0-22.473,0-22.737,0C10.623,0,0,10.704,0,23.984
			C0,37.266,10.896,48,24.001,48C37.104,48,48,37.203,48,23.921C48,23.653,48,0.876,48,0.876z"/>
		<path id="path9-16_6_" style="fill:#FFFFFF;" d="M38.413,25.467l-0.215-0.338c-0.345-0.508-0.689-1.015-1.207-1.353
			c-0.431-0.296-0.948-0.508-1.422-0.719c1.336-0.635,2.284-1.523,2.715-2.665c0.302-0.931,0.215-1.692-0.215-2.453v-0.085
			c-0.517-0.846-1.207-1.396-2.284-1.692c-0.647-0.127-1.379-0.127-2.026-0.085l-1.422,0.296l0.474-1.057
			c0.431-1.353,0.302-2.665-0.431-3.891l-0.129-0.212c-0.646-1.058-1.595-1.692-2.887-2.03c-1.336-0.339-2.586-0.212-3.793,0.423
			c-1.206,0.634-2.068,1.607-2.456,2.876v0.085l-0.043,0.296l-0.172-0.296l-0.431-0.762c-0.69-1.056-1.552-1.69-2.629-1.987
			c-0.948-0.212-1.724-0.127-2.542,0.296c-0.905,0.55-1.423,1.396-1.638,2.58c-0.215,1.226,0,2.411,0.647,3.595l0.302,0.423
			l-1.035-0.338c-1.293-0.296-2.5-0.127-3.706,0.508c-1.25,0.635-2.026,1.522-2.543,2.749c-0.474,1.185-0.431,2.326,0.172,3.384
			c0.259,0.465,0.647,0.846,0.991,1.1c0.517,0.508,1.164,0.804,1.939,0.93l0.302,0.085l-0.647,0.55
			c-0.604,0.507-0.948,1.142-1.164,1.776c-0.215,0.762-0.129,1.523,0.302,2.242c0.216,0.338,0.431,0.634,0.776,0.845
			c0.345,0.296,0.776,0.508,1.293,0.55c0.948,0.212,1.939,0.212,3.017-0.128l-0.776,1.269l-0.215,0.55
			c-0.431,1.354-0.302,2.538,0.345,3.764c0.302,0.465,0.647,0.889,0.992,1.269c0.517,0.465,1.163,0.761,1.939,0.973
			c1.293,0.338,2.586,0.296,3.836-0.338c1.207-0.635,1.983-1.65,2.37-2.919l0.043-0.254c0.818,0.889,1.595,1.481,2.457,1.692
			c0.862,0.254,1.724,0.211,2.5-0.296c0.733-0.423,1.25-1.142,1.508-2.03c0.216-0.931,0.216-1.861,0-2.918
			c0.431,0.296,0.862,0.507,1.379,0.634c1.379,0.423,2.586,0.38,3.793-0.254c1.164-0.634,1.939-1.65,2.327-2.961
			C39.146,27.878,39.059,26.651,38.413,25.467L38.413,25.467z M32.164,18.404l0.517-0.211c0.776-0.338,1.508-0.423,2.284-0.338
			c0.733,0.085,1.25,0.423,1.508,0.93l0.173,0.55l-0.086,0.423c-0.302,0.761-0.948,1.353-2.026,1.819
			c-0.431,0.212-0.905,0.296-1.422,0.381l-5.301,0.635l-0.086-0.296l-0.086-0.126l0.172-0.212L32.164,18.404L32.164,18.404z
			 M24.838,13.076c0.216-0.846,0.819-1.48,1.595-1.903c0.776-0.423,1.638-0.508,2.456-0.212c0.905,0.211,1.552,0.676,1.94,1.395
			c0.215,0.422,0.345,0.93,0.345,1.48l-0.129,0.93c-0.172,0.465-0.388,0.888-0.646,1.269l-3.879,4.653
			c-0.388-0.296-0.819-0.508-1.25-0.719l-0.431-4.779l-0.043-1.692L24.838,13.076L24.838,13.076z M17.467,13.202
			c0.043-0.762,0.345-1.269,0.862-1.565c0.258-0.211,0.647-0.211,0.991-0.042c0.776,0.212,1.422,0.761,1.94,1.819
			c0.216,0.423,0.431,0.846,0.517,1.353l0.862,4.991l-0.647,0.212l-3.836-4.103l-0.215-0.422
			C17.597,14.683,17.381,13.964,17.467,13.202L17.467,13.202z M11.132,22.17c-0.345-0.635-0.345-1.269-0.086-1.903
			c0.302-0.804,0.862-1.438,1.681-1.776c0.776-0.424,1.551-0.55,2.413-0.339l1.164,0.465l3.793,2.707
			c-0.345,0.423-0.56,0.846-0.689,1.269l-6.206,0.761l-0.431-0.085C11.994,23.142,11.477,22.804,11.132,22.17z M23.113,34.647
			L23.07,35.07c-0.302,0.76-0.819,1.395-1.595,1.734c-0.776,0.423-1.595,0.507-2.37,0.296c-0.862-0.21-1.508-0.718-1.853-1.395
			c-0.216-0.423-0.388-0.931-0.388-1.439l0.216-0.972c0.086-0.423,0.302-0.847,0.647-1.185l3.62-4.23
			c0.431,0.211,0.862,0.423,1.336,0.465c0.086,1.438,0.216,2.961,0.431,4.611L23.113,34.647L23.113,34.647z M21.691,26.187
			c-0.56-0.508-0.862-1.227-0.862-1.988c0-0.761,0.301-1.396,0.862-1.988c0.517-0.465,1.207-0.761,2.026-0.761
			c0.776,0,1.508,0.296,1.983,0.761c0.604,0.592,0.862,1.227,0.862,1.988c0,0.761-0.259,1.48-0.862,1.988
			c-0.56,0.55-1.207,0.846-1.983,0.846C22.898,27.033,22.208,26.737,21.691,26.187L21.691,26.187z M29.664,33.59
			c-0.086,0.762-0.345,1.311-0.862,1.523c-0.302,0.211-0.647,0.211-0.991,0.169c-0.819-0.21-1.466-0.845-1.939-1.861l-0.517-1.395
			l-0.647-3.68l0.733-0.254l0.56-0.296l1.81,1.819l1.121,1.353l0.215,0.423C29.535,32.109,29.751,32.786,29.664,33.59L29.664,33.59z
			 M37.078,28.64c-0.215,0.847-0.733,1.481-1.466,1.819c-0.776,0.423-1.551,0.508-2.414,0.212c-0.517-0.127-0.862-0.338-1.164-0.676
			l-4.525-3.68l0.302-0.634l0.13-0.508l4.87-0.423l1.724-0.042l0.431,0.042c0.646,0.212,1.25,0.592,1.594,1.227
			c0.431,0.465,0.646,1.1,0.646,1.819L37.078,28.64L37.078,28.64z"/>
	</g>
</g>
<g id="nyt_x5F_exporter_x5F_info" style="display:none;">
</g>
</svg>
