<?xml version="1.0" encoding="iso-8859-1"?>
<!-- Generator: Adobe Illustrator 18.0.0, SVG Export Plug-In . SVG Version: 6.00 Build 0)  -->
<!DOCTYPE svg PUBLIC "-//W3C//DTD SVG 1.1//EN" "http://www.w3.org/Graphics/SVG/1.1/DTD/svg11.dtd">
<svg version="1.1" xmlns="http://www.w3.org/2000/svg" xmlns:xlink="http://www.w3.org/1999/xlink" x="0px" y="0px"
	 viewBox="0 0 48 48" style="enable-background:new 0 0 48 48;" xml:space="preserve">
<g id="Layer_383">
	<g>
		<path style="fill:#7197BF;" d="M48,1.291C48,0.745,47.967,0,47.414,0c0,0-22.932,0-23.201,0C10.84,0,0,10.844,0,24.037
			C0,37.231,10.629,48,24.001,48C37.371,48,48,37.379,48,24.185C48,23.918,48,1.291,48,1.291z"/>
		<g>
			<path style="fill:#FFFFFF;" d="M14.896,39h5V26h2.382h2.635h2.983v13h4.919V26h5.08v-5h-5.08v-3.706
				c0-1.609,0.963-2.791,1.826-2.791h4.254V9.111h-4.254c-3.912,0-6.746,3.67-6.746,8.183V21h-2.983h-2.635h-2.637v-3.706
				c0-1.609,0.963-2.791,1.828-2.791h4.461V9.111H21.47c-3.914,0-6.574,3.67-6.574,8.183V21H9.104v5h5.791V39z"/>
		</g>
	</g>
</g>
<g id="Layer_1">
</g>
</svg>
