<?xml version="1.0" encoding="iso-8859-1"?>
<!-- Generator: Adobe Illustrator 18.0.0, SVG Export Plug-In . SVG Version: 6.00 Build 0)  -->
<!DOCTYPE svg PUBLIC "-//W3C//DTD SVG 1.1//EN" "http://www.w3.org/Graphics/SVG/1.1/DTD/svg11.dtd">
<svg version="1.1" xmlns="http://www.w3.org/2000/svg" xmlns:xlink="http://www.w3.org/1999/xlink" x="0px" y="0px"
	 viewBox="0 0 48 48" style="enable-background:new 0 0 48 48;" xml:space="preserve">
<g id="Layer_379">
	<g>
		<path style="fill:#C96F00;" d="M48,1.291C48,0.745,47.437,0,46.889,0c0,0-22.678,0-22.945,0C10.72,0,0,10.844,0,24.037
			C0,37.231,10.777,48,24.001,48C37.223,48,48,37.379,48,24.185C48,23.918,48,1.291,48,1.291z"/>
		<g>
			<polygon style="fill:#FFFFFF;" points="33.561,30.769 31.879,25.612 30.199,30.769 24.758,30.769 29.158,33.955 27.478,39.111 
				31.879,35.925 36.279,39.111 34.599,33.955 39,30.769 			"/>
			<path style="fill:#FFFFFF;" d="M27.896,34.364c-0.925-0.67-6.441-4.664-6.441-4.664s6.817,0,7.964,0
				c0.353-1.086,2.46-7.549,2.46-7.549s2.107,6.463,2.462,7.549c0.557,0,2.45,0,4.252,0L31.879,9.111l-5.4,16.565H9l17.565,12.771
				C27.127,36.724,27.723,34.897,27.896,34.364z"/>
		</g>
	</g>
</g>
<g id="Layer_1">
</g>
</svg>
