<?xml version="1.0" encoding="iso-8859-1"?>
<!-- Generator: Adobe Illustrator 18.0.0, SVG Export Plug-In . SVG Version: 6.00 Build 0)  -->
<!DOCTYPE svg PUBLIC "-//W3C//DTD SVG 1.1//EN" "http://www.w3.org/Graphics/SVG/1.1/DTD/svg11.dtd">
<svg version="1.1" xmlns="http://www.w3.org/2000/svg" xmlns:xlink="http://www.w3.org/1999/xlink" x="0px" y="0px"
	 viewBox="0 0 48 48" style="enable-background:new 0 0 48 48;" xml:space="preserve">
<g id="Layer_373">
	<g>
		<path style="fill:#D20C0C;" d="M48,0.615C48,0.061,47.932,0,47.379,0c0,0-22.915,0-23.185,0C10.832,0,0,10.614,0,23.949
			C0,37.286,10.638,48,24.001,48C37.361,48,48,37.09,48,23.754C48,23.484,48,0.615,48,0.615z"/>
		<g>
			<path style="fill:#FFFFFF;" d="M26.019,23.248c0.562,0,0.843,0.036,1.054,0.107l0.316,0.071l0.246-0.251l0.773-0.823l0.632-0.681
				l-0.913-0.251c-0.457-0.144-0.878-0.287-2.001-0.215c-1.968,0.071-3.758,1.289-4.074,2.723c-0.246,1.147,0.07,1.934,1.299,3.333
				c1.299,1.396,1.615,2.006,1.44,2.83c-0.105,0.537-0.983,1.218-2.002,1.362c-0.528,0.071-0.879,0.071-1.195,0l-0.35-0.108
				l-0.211,0.287l-0.843,1.039l-0.597,0.716l0.913,0.216c0.562,0.143,1.404,0.143,2.318-0.036c2.036-0.322,4.46-1.828,4.882-3.69
				c0.387-1.72-0.316-2.794-1.792-4.299c-1.159-1.183-1.089-1.47-1.019-1.685C24.93,23.642,25.387,23.284,26.019,23.248z"/>
			<polygon style="fill:#FFFFFF;" points="37.469,20.683 35.82,21.128 35.644,21.128 35.502,21.113 33.466,23.291 35.784,12.109 
				32.834,11.946 28.653,31.641 28.478,32.461 29.286,32.351 31.077,32.062 31.464,32.025 31.57,31.631 32.202,28.766 
				32.903,31.309 33.044,31.81 33.535,31.739 35.397,31.452 36.065,31.38 34.309,25.541 39.121,20.318 			"/>
			<path style="fill:#FFFFFF;" d="M18.678,16.118l-1.931,0.322L8.879,36.073l1.019-0.215l1.65-0.286l0.317-0.072l0.105-0.286
				l1.289-3.295l2.483-0.358v2.58l-0.06,0.68l0.654-0.107l1.926-0.322l0.489-0.071l-0.037-0.502L18.678,16.118z M15.623,28.944
				l-1.616,0.215l2.002-6.02L15.623,28.944z"/>
		</g>
	</g>
</g>
<g id="Layer_1">
</g>
</svg>
