<?xml version="1.0" encoding="iso-8859-1"?>
<!-- Generator: Adobe Illustrator 18.0.0, SVG Export Plug-In . SVG Version: 6.00 Build 0)  -->
<!DOCTYPE svg PUBLIC "-//W3C//DTD SVG 1.1//EN" "http://www.w3.org/Graphics/SVG/1.1/DTD/svg11.dtd">
<svg version="1.1" xmlns="http://www.w3.org/2000/svg" xmlns:xlink="http://www.w3.org/1999/xlink" x="0px" y="0px"
	 viewBox="0 0 48 48" style="enable-background:new 0 0 48 48;" xml:space="preserve">
<g id="Layer_416">
	<g>
		<path style="fill:#394B8D;" d="M48,1c0-0.551-0.451-1-1-1c0,0-22.731,0-22.999,0C10.746,0,0,10.744,0,24
			c0,13.254,10.746,24,24.001,24C37.254,48,48,37.254,48,24C48,23.73,48,1,48,1z"/>
		<g>
			<path style="fill:#FFFFFF;" d="M38.371,9H9.627C9.279,9,9,9.281,9,9.627v28.746C9,38.72,9.279,39,9.627,39h28.744
				C38.719,39,39,38.72,39,38.373V9.627C39,9.281,38.719,9,38.371,9z M38,38H24V24H10V10h14v14h14V38z"/>
		</g>
	</g>
</g>
<g id="Layer_1">
</g>
</svg>
