<?xml version="1.0" encoding="iso-8859-1"?>
<!-- Generator: Adobe Illustrator 18.0.0, SVG Export Plug-In . SVG Version: 6.00 Build 0)  -->
<!DOCTYPE svg PUBLIC "-//W3C//DTD SVG 1.1//EN" "http://www.w3.org/Graphics/SVG/1.1/DTD/svg11.dtd">
<svg version="1.1" xmlns="http://www.w3.org/2000/svg" xmlns:xlink="http://www.w3.org/1999/xlink" x="0px" y="0px"
	 viewBox="0 0 48 48" style="enable-background:new 0 0 48 48;" xml:space="preserve">
<g id="Layer_396">
	<g>
		<path style="fill:#546B9F;" d="M48,1.22C48,0.671,47.568,0,47.019,0c0,0-22.732,0-23,0C10.763,0,0.017,10.856,0.017,24.11
			c0,13.256,10.737,24.055,23.992,24.055C37.263,48.165,48,37.476,48,24.22C48,23.953,48,1.22,48,1.22z"/>
		<g>
			<path style="fill:#FFFFFF;" d="M16.605,14.7h-2.934v4.187H9.158v9.587h7.447V14.7z M13.671,25.897h-1.529V21.54h1.529V25.897z"/>
			<path style="fill:#FFFFFF;" d="M30.163,32.7V18.926h-7.447v9.585h4.518v1.499h-4.568v2.69h6.203H30.163z M27.234,25.86h-1.531
				v-4.358h1.531V25.86z"/>
			<path style="fill:#FFFFFF;" d="M31.712,28.511h4.512v1.499H31.66v2.69h6.203h1.295V18.926h-7.445V28.511z M34.699,21.501h1.525
				v4.358h-1.525V21.501z"/>
			<rect x="18.117" y="18.868" style="fill:#FFFFFF;" width="3.037" height="9.643"/>
			<rect x="18.117" y="14.869" style="fill:#FFFFFF;" width="3.037" height="2.615"/>
		</g>
	</g>
</g>
<g id="Layer_1">
</g>
</svg>
