<?xml version="1.0" encoding="iso-8859-1"?>
<!-- Generator: Adobe Illustrator 18.0.0, SVG Export Plug-In . SVG Version: 6.00 Build 0)  -->
<!DOCTYPE svg PUBLIC "-//W3C//DTD SVG 1.1//EN" "http://www.w3.org/Graphics/SVG/1.1/DTD/svg11.dtd">
<svg version="1.1" xmlns="http://www.w3.org/2000/svg" xmlns:xlink="http://www.w3.org/1999/xlink" x="0px" y="0px"
	 viewBox="0 0 48 48" style="enable-background:new 0 0 48 48;" xml:space="preserve">
<g id="Layer_403">
	<g>
		<path style="fill:#A8C46A;" d="M48,1c0-0.551-0.451-1-1-1c0,0-22.731,0-22.999,0C10.746,0,0,10.744,0,23.998
			C0,37.254,10.746,48,24.001,48C37.254,48,48,37.254,48,23.998C48,23.731,48,1,48,1z"/>
		<g>
			<polygon style="fill:#FFFFFF;" points="9,34.656 21.106,36.408 21.106,24.828 9,24.828 			"/>
			<polygon style="fill:#FFFFFF;" points="22.76,36.648 39,39 39,24.828 22.76,24.828 			"/>
			<polygon style="fill:#FFFFFF;" points="22.76,23.174 39,23.174 39,9 22.76,11.352 			"/>
			<polygon style="fill:#FFFFFF;" points="21.106,11.592 9,13.346 9,23.174 21.106,23.174 			"/>
		</g>
	</g>
</g>
<g id="Layer_1">
</g>
</svg>
