<?xml version="1.0" encoding="iso-8859-1"?>
<!-- Generator: Adobe Illustrator 18.0.0, SVG Export Plug-In . SVG Version: 6.00 Build 0)  -->
<!DOCTYPE svg PUBLIC "-//W3C//DTD SVG 1.1//EN" "http://www.w3.org/Graphics/SVG/1.1/DTD/svg11.dtd">
<svg version="1.1" xmlns="http://www.w3.org/2000/svg" xmlns:xlink="http://www.w3.org/1999/xlink" x="0px" y="0px"
	 viewBox="0 0 48 48" style="enable-background:new 0 0 48 48;" xml:space="preserve">
<g id="Layer_384">
	<g>
		<path style="fill:#003399;" d="M48,1.291C48,0.745,47.817,0,47.265,0c0,0-22.86,0-23.129,0C10.806,0,0,10.844,0,24.037
			C0,37.231,10.671,48,24.001,48C37.329,48,48,37.379,48,24.185C48,23.918,48,1.291,48,1.291z"/>
		<g>
			<ellipse style="fill:#FFFFFF;" cx="33.806" cy="19.672" rx="4.801" ry="4.673"/>
			<ellipse style="fill:#FFFFFF;" cx="22.992" cy="21.005" rx="4.323" ry="4.205"/>
			<ellipse style="fill:#FFFFFF;" cx="13.188" cy="22.204" rx="3.889" ry="3.783"/>
			<path style="fill:#FFFFFF;" d="M17.071,33c0.216,0,0.391-0.171,0.391-0.378V31.15c0-2.183-1.809-4.298-4.274-4.298
				s-4.272,2.115-4.272,4.298v1.472C8.916,32.829,9.089,33,9.303,33h0.139h7.493H17.071z"/>
			<path style="fill:#FFFFFF;" d="M27.309,33c0.238,0,0.432-0.19,0.432-0.422v-1.633c0-2.427-2.007-4.776-4.749-4.776
				c-2.738,0-4.747,2.349-4.747,4.776v1.633c0,0.232,0.192,0.422,0.432,0.422h0.153h8.328H27.309z"/>
			<path style="fill:#FFFFFF;" d="M33.807,25.409c-3.044,0-5.275,2.609-5.275,5.308v1.814c0,0.257,0.214,0.468,0.479,0.468h0.169
				h9.253h0.169c0.265,0,0.483-0.211,0.483-0.468v-1.814C39.084,28.019,36.851,25.409,33.807,25.409z"/>
		</g>
	</g>
</g>
<g id="Layer_1">
</g>
</svg>
