<?xml version="1.0" encoding="iso-8859-1"?>
<!-- Generator: Adobe Illustrator 18.0.0, SVG Export Plug-In . SVG Version: 6.00 Build 0)  -->
<!DOCTYPE svg PUBLIC "-//W3C//DTD SVG 1.1//EN" "http://www.w3.org/Graphics/SVG/1.1/DTD/svg11.dtd">
<svg version="1.1" xmlns="http://www.w3.org/2000/svg" xmlns:xlink="http://www.w3.org/1999/xlink" x="0px" y="0px"
	 viewBox="0 0 48 48" style="enable-background:new 0 0 48 48;" xml:space="preserve">
<g id="Layer_388">
	<g>
		<path style="fill:#0072C4;" d="M48,1.035C48,0.486,48.129,0,47.574,0c0,0-23.001,0-23.272,0C10.889,0,0.017,10.763,0.017,24.017
			c0,13.256,10.579,24.009,23.992,24.009C37.42,48.026,48,37.291,48,24.035C48,23.767,48,1.035,48,1.035z"/>
		<g>
			<path style="fill:#FFFFFF;" d="M9.931,33.01c0,3.287,6.364,5.969,14.167,5.969c7.804,0,14.166-2.682,14.166-5.969
				c0-1.697-1.705-3.226-4.417-4.314c0.084-0.449,0.143-0.896,0.145-1.348c0.025-5.639-3.079-7.84-6.363-9.717
				c0.952,4.937-2.123,7.988-5.945,6.92c5.586-9.029-2.542-9.051-0.059-15.572c-3.82,2.68-7.652,10.187-7.64,15.664
				c0.002,1.447,0.151,2.793,0.423,4.023C11.656,29.756,9.931,31.299,9.931,33.01z M18.676,21.527
				c-1.057,4.707,1.776,8.215,4.503,8.25c3.079,0.021,4.903-2.818,5.772-6.543c1.634,1.23,2.478,2.951,2.588,4.705
				c-0.004-0.002-0.008-0.002-0.012-0.004c0.124,1.986-0.698,4.016-2.404,5.434c-0.007,0.008-0.017,0.016-0.027,0.023
				c-0.366,0.303-0.774,0.576-1.221,0.814c-0.04,0.021-0.083,0.041-0.123,0.063c-0.179,0.092-0.364,0.178-0.556,0.258
				c-0.055,0.023-0.109,0.047-0.166,0.07c-0.468,0.186-0.972,0.336-1.513,0.449c-0.075,0.014-0.153,0.027-0.229,0.041
				c-0.204,0.037-0.412,0.068-0.626,0.094c-0.084,0.012-0.167,0.021-0.251,0.029c-0.29,0.029-0.586,0.051-0.892,0.055
				c-0.215,0.004-0.427-0.004-0.637-0.018c-0.055-0.002-0.11-0.008-0.165-0.014c-0.178-0.016-0.356-0.037-0.529-0.066
				c-0.035-0.006-0.067-0.01-0.1-0.016c-0.21-0.037-0.418-0.082-0.622-0.139c-0.025-0.008-0.05-0.016-0.074-0.021
				c-0.191-0.053-0.379-0.115-0.564-0.186c-0.02-0.006-0.039-0.014-0.058-0.02c-2.53-0.984-4.37-3.42-4.273-6.807
				c-0.005,0-0.008,0.002-0.014,0.004C16.54,26.098,17.194,23.918,18.676,21.527z"/>
		</g>
	</g>
</g>
<g id="Layer_1">
</g>
</svg>
