<?xml version="1.0" encoding="iso-8859-1"?>
<!-- Generator: Adobe Illustrator 18.0.0, SVG Export Plug-In . SVG Version: 6.00 Build 0)  -->
<!DOCTYPE svg PUBLIC "-//W3C//DTD SVG 1.1//EN" "http://www.w3.org/Graphics/SVG/1.1/DTD/svg11.dtd">
<svg version="1.1" xmlns="http://www.w3.org/2000/svg" xmlns:xlink="http://www.w3.org/1999/xlink" x="0px" y="0px"
	 viewBox="0 0 48 48" style="enable-background:new 0 0 48 48;" xml:space="preserve">
<g id="Layer_361">
	<g>
		<path style="fill:#1A9711;" d="M48,1.055C48,0.504,47.531,0,46.982,0c0,0-22.723,0-22.99,0C10.741,0,0,10.763,0,24.005
			C0,37.249,10.75,48,24.001,48C37.249,48,48,37.277,48,24.033C48,23.765,48,1.055,48,1.055z"/>
		<g>
			<rect x="29" y="16" style="fill:#FFFFFF;" width="10" height="5"/>
			<polygon style="fill:#FFFFFF;" points="9,16 9,21 14,21 14,32 19,32 19,21 24,21 24,16 			"/>
			<polygon style="fill:#FFFFFF;" points="24.002,32 29,32 39,32 39,27 29,27 29,21 24.002,21 			"/>
		</g>
		<g>
			<rect x="29" y="16" style="fill:#FFFFFF;" width="10" height="5"/>
			<polygon style="fill:#FFFFFF;" points="9,16 9,21 14,21 14,32 19,32 19,21 24,21 24,16 			"/>
			<polygon style="fill:#FFFFFF;" points="24.002,32 29,32 39,32 39,27 29,27 29,21 24.002,21 			"/>
		</g>
		<g>
			<rect x="29" y="16" style="fill:#FFFFFF;" width="10" height="5"/>
			<polygon style="fill:#FFFFFF;" points="9,16 9,21 14,21 14,32 19,32 19,21 24,21 24,16 			"/>
			<polygon style="fill:#FFFFFF;" points="24.002,32 29,32 39,32 39,27 29,27 29,21 24.002,21 			"/>
		</g>
	</g>
</g>
<g id="Layer_1">
</g>
</svg>
