<?xml version="1.0" encoding="iso-8859-1"?>
<!-- Generator: Adobe Illustrator 18.0.0, SVG Export Plug-In . SVG Version: 6.00 Build 0)  -->
<!DOCTYPE svg PUBLIC "-//W3C//DTD SVG 1.1//EN" "http://www.w3.org/Graphics/SVG/1.1/DTD/svg11.dtd">
<svg version="1.1" xmlns="http://www.w3.org/2000/svg" xmlns:xlink="http://www.w3.org/1999/xlink" x="0px" y="0px"
	 viewBox="0 0 48 48" style="enable-background:new 0 0 48 48;" xml:space="preserve">
<g id="Layer_418">
	<g>
		<path style="fill:#A7A9AC;" d="M48,1c0-0.549-0.451-1-1-1c0,0-22.731,0-22.999,0C10.746,0,0,10.746,0,24
			c0,13.256,10.746,24,24.001,24C37.254,48,48,37.256,48,24C48,23.732,48,1,48,1z"/>
		<g>
			<path style="fill:#FFFFFF;" d="M19.663,38.998c1.909-0.076,2.628-1.229,4.932-1.229c2.306,0,2.953,1.229,4.97,1.191
				c2.05-0.038,3.351-1.856,4.605-3.685c1.452-2.115,2.05-4.163,2.085-4.267c-0.045-0.021-3.998-1.53-4.039-6.068
				c-0.037-3.8,3.11-5.622,3.251-5.714c-1.77-2.577-4.525-2.932-5.507-2.972c-2.344-0.237-4.572,1.376-5.761,1.376
				c-1.188,0-3.024-1.342-4.968-1.307c-2.555,0.038-4.911,1.481-6.228,3.762c-2.653,4.59-0.678,11.392,1.909,15.117
				C16.177,37.024,17.684,39.072,19.663,38.998z"/>
			<path style="fill:#FFFFFF;" d="M25.558,11.271c-0.972,1.126-1.824,2.918-1.597,4.643c1.691,0.132,3.414-0.856,4.466-2.123
				c1.048-1.27,1.76-3.034,1.566-4.79C28.479,9.061,26.645,10.003,25.558,11.271z"/>
		</g>
	</g>
</g>
<g id="Layer_1">
</g>
</svg>
