<?xml version="1.0" encoding="iso-8859-1"?>
<!-- Generator: Adobe Illustrator 18.0.0, SVG Export Plug-In . SVG Version: 6.00 Build 0)  -->
<!DOCTYPE svg PUBLIC "-//W3C//DTD SVG 1.1//EN" "http://www.w3.org/Graphics/SVG/1.1/DTD/svg11.dtd">
<svg version="1.1" xmlns="http://www.w3.org/2000/svg" xmlns:xlink="http://www.w3.org/1999/xlink" x="0px" y="0px"
	 viewBox="0 0 48 48" style="enable-background:new 0 0 48 48;" xml:space="preserve">
<g id="Layer_381">
	<g>
		<path style="fill:#FFA616;" d="M48,1.291C48,0.745,47.061,0,46.518,0c0,0-22.498,0-22.763,0C10.636,0,0,10.844,0,24.037
			C0,37.231,10.882,48,24.001,48C37.118,48,48,37.379,48,24.185C48,23.918,48,1.291,48,1.291z"/>
		<g>
			<path style="fill:#FFFFFF;" d="M24,37c8.283,0,15-4.368,15-9.753s-6.717-9.751-15-9.751c-4.176,0-7.955,1.11-10.674,2.901V13H9
				v14.239v0.008v0.01v0.038h0.002C9.039,32.658,15.74,37,24,37z M24,19.89c5.789,0,10.482,3.294,10.482,7.357
				S29.789,34.605,24,34.605c-5.789,0-10.482-3.295-10.482-7.359S18.211,19.89,24,19.89z"/>
		</g>
	</g>
</g>
<g id="Layer_1">
</g>
</svg>
