<?xml version="1.0" encoding="iso-8859-1"?>
<!-- Generator: Adobe Illustrator 18.0.0, SVG Export Plug-In . SVG Version: 6.00 Build 0)  -->
<!DOCTYPE svg PUBLIC "-//W3C//DTD SVG 1.1//EN" "http://www.w3.org/Graphics/SVG/1.1/DTD/svg11.dtd">
<svg version="1.1" xmlns="http://www.w3.org/2000/svg" xmlns:xlink="http://www.w3.org/1999/xlink" x="0px" y="0px"
	 viewBox="0 0 48 48" style="enable-background:new 0 0 48 48;" xml:space="preserve">
<g id="Layer_414">
	<g>
		<path style="fill:#69BC1B;" d="M48,1c0-0.549-0.451-1-1-1c0,0-22.731,0-22.999,0C10.745,0,0,10.746,0,24
			c0,13.256,10.745,24,24.001,24C37.254,48,48,37.256,48,24C48,23.733,48,1,48,1z"/>
		<g>
			<path style="fill:#FFFFFF;" d="M13.644,30.022l-0.875,9.013l8.107-5.012c1.629,0.451,3.854,0.702,5.657,0.702
				c5.211,0,9.467-2.061,13.467-5.281V15.379C40,11.881,36.257,10,32.864,10H14.411c-3.306,2-5.395,6.061-5.395,10.334
				C9.016,24.275,10.781,27.361,13.644,30.022z M26.042,11.213c5.949,0,10.977,3.957,10.977,8.639c0,4.686-5.027,8.639-10.977,8.639
				s-10.977-3.953-10.977-8.639C15.066,15.17,20.093,11.213,26.042,11.213z"/>
		</g>
	</g>
</g>
<g id="Layer_1">
</g>
</svg>
