<?xml version="1.0" encoding="iso-8859-1"?>
<!-- Generator: Adobe Illustrator 18.0.0, SVG Export Plug-In . SVG Version: 6.00 Build 0)  -->
<!DOCTYPE svg PUBLIC "-//W3C//DTD SVG 1.1//EN" "http://www.w3.org/Graphics/SVG/1.1/DTD/svg11.dtd">
<svg version="1.1" xmlns="http://www.w3.org/2000/svg" xmlns:xlink="http://www.w3.org/1999/xlink" x="0px" y="0px"
	 viewBox="0 0 48 48" style="enable-background:new 0 0 48 48;" xml:space="preserve">
<g>
</g>
<g>
</g>
<g>
</g>
<g>
</g>
<g>
</g>
<g>
</g>
<g>
</g>
<g>
</g>
<g>
</g>
<g>
</g>
<g>
</g>
<g>
</g>
<g>
</g>
<g>
</g>
<g>
</g>
<g>
</g>
<g>
</g>
<g>
</g>
<g>
</g>
<g>
</g>
<g>
</g>
<g>
</g>
<g>
</g>
<g>
</g>
<g>
</g>
<g>
</g>
<g>
</g>
<g>
</g>
<g>
</g>
<g>
</g>
<g>
</g>
<g>
</g>
<g>
</g>
<g>
</g>
<g>
</g>
<g>
</g>
<g>
</g>
<g>
</g>
<g>
</g>
<g>
</g>
<g>
</g>
<g>
</g>
<g>
</g>
<g>
</g>
<g>
</g>
<g>
</g>
<g>
</g>
<g>
</g>
<g>
</g>
<g>
</g>
<g>
</g>
<g>
</g>
<g>
</g>
<g>
</g>
<g>
</g>
<g>
</g>
<g>
</g>
<g>
</g>
<g>
</g>
<g>
</g>
<g>
</g>
<g>
</g>
<g>
</g>
<g>
</g>
<g>
</g>
<g>
</g>
<g>
</g>
<g>
</g>
<g>
</g>
<g>
</g>
<g>
</g>
<g>
</g>
<g>
</g>
<g>
</g>
<g>
</g>
<g>
</g>
<g>
</g>
<g>
</g>
<g>
</g>
<g>
</g>
<g>
</g>
<g>
	<g>
		<path style="fill:#EB4755;" d="M48,35.998C48,42.627,42.627,48,36,48H12C5.371,48,0,42.627,0,35.998V12C0,5.371,5.371,0,12,0h24
			c6.627,0,12,5.371,12,12V35.998z"/>
		<path id="path9-6_5_" style="fill:#FFFFFF;" d="M35.063,11H12.937C10.763,11,9,12.786,9,14.988v11.048
			c0,0.205,0.015,0.406,0.045,0.603C9.015,26.934,9,27.231,9,27.531C9,33.864,15.715,39,24,39c8.284,0,15-5.136,15-11.469
			c0-0.3-0.016-0.598-0.046-0.892C38.984,26.443,39,26.241,39,26.036V14.988C39,12.785,37.235,11,35.063,11L35.063,11z
			 M33.198,22.107l-7.747,7.787c-0.394,0.396-0.911,0.59-1.427,0.586c-0.532,0.018-1.069-0.177-1.477-0.586l-7.746-7.787
			c-0.778-0.782-0.776-2.05,0-2.831c0.777-0.782,2.037-0.783,2.816,0L24,25.691l6.382-6.415c0.776-0.782,2.04-0.78,2.816,0
			C33.977,20.058,33.977,21.323,33.198,22.107L33.198,22.107z"/>
	</g>
</g>
<g>
</g>
<g>
</g>
<g>
</g>
<g>
</g>
<g>
</g>
<g>
</g>
<g>
</g>
<g>
</g>
<g id="nyt_x5F_exporter_x5F_info" style="display:none;">
</g>
</svg>
