<?xml version="1.0" encoding="iso-8859-1"?>
<!-- Generator: Adobe Illustrator 18.0.0, SVG Export Plug-In . SVG Version: 6.00 Build 0)  -->
<!DOCTYPE svg PUBLIC "-//W3C//DTD SVG 1.1//EN" "http://www.w3.org/Graphics/SVG/1.1/DTD/svg11.dtd">
<svg version="1.1" xmlns="http://www.w3.org/2000/svg" xmlns:xlink="http://www.w3.org/1999/xlink" x="0px" y="0px"
	 viewBox="0 0 48 48" style="enable-background:new 0 0 48 48;" xml:space="preserve">
<g id="Layer_497">
	<g>
		<path style="fill:#2BB673;" d="M48,36c0,6.627-5.373,12-12,12H12C5.371,48,0,42.627,0,36V12C0,5.371,5.371,0,12,0h24
			c6.627,0,12,5.371,12,12V36z"/>
		<g>
			<path style="fill:#FFFFFF;" d="M26.955,29.977l6.322-0.184v5.365c0,0.761,0.01,0.884-1.273,1.289
				c-1.802,0.464-3.839,0.555-5.701,0.4c-6.312-0.513-11.123-5.396-12.264-11.485c-1.08-5.778,1.704-11.244,6.41-13.5
				c2.299-1.1,5.057-1.618,8.046-0.68c1.876,0.585,3.576,1.642,5.059,3.102l-1.032,1.837l1.942-0.538l2.995-2.991
				c-5.085-4.121-13.809-4.662-19.588-1.801c-5.027,2.487-8.682,7.429-8.862,12.947C8.82,29.548,12.27,34.14,15.766,36.45
				c5.779,3.814,15.797,2.964,21.831-0.016l-0.002-0.554h0.002v-6.087L39,28.183h-8.79L26.955,29.977z"/>
		</g>
	</g>
</g>
<g id="Layer_1">
</g>
</svg>
