<?xml version="1.0" encoding="iso-8859-1"?>
<!-- Generator: Adobe Illustrator 18.0.0, SVG Export Plug-In . SVG Version: 6.00 Build 0)  -->
<!DOCTYPE svg PUBLIC "-//W3C//DTD SVG 1.1//EN" "http://www.w3.org/Graphics/SVG/1.1/DTD/svg11.dtd">
<svg version="1.1" xmlns="http://www.w3.org/2000/svg" xmlns:xlink="http://www.w3.org/1999/xlink" x="0px" y="0px"
	 viewBox="0 0 48 48" style="enable-background:new 0 0 48 48;" xml:space="preserve">
<g id="Layer_482">
	<g>
		<path style="fill:#FDC133;" d="M48,35.998C48,42.627,42.627,48,35.998,48h-24C5.371,48,0,42.627,0,35.998V12
			C0,5.371,5.371,0,11.998,0h24C42.627,0,48,5.371,48,12V35.998z"/>
		<g>
			<path style="fill:#FFFFFF;" d="M9.314,32.626c3.803,3.302,7.969,6.372,13.572,6.374c0.109,0,0.219-0.002,0.332-0.004
				c3.564-0.082,7.596-1.286,10.725-3.251l0.018-0.012c0.41-0.246,0.82-0.524,1.205-0.834c0.242-0.178,0.406-0.455,0.406-0.744
				c-0.01-0.516-0.447-0.864-0.918-0.864c-0.148-0.002-0.301,0.033-0.445,0.102c-0.16,0.064-0.326,0.137-0.479,0.203l-0.23,0.096
				l-0.295,0.119v0.002c-3.219,1.305-6.6,2.071-9.728,2.14c-0.115,0.004-0.23,0.004-0.344,0.004
				c-4.92,0.002-8.936-2.282-12.984-4.531c-0.143-0.074-0.287-0.113-0.428-0.113c-0.184,0-0.369,0.068-0.506,0.195
				C9.078,31.635,8.998,31.821,9,32.01C9,32.257,9.131,32.481,9.314,32.626z"/>
			<path style="fill:#FFFFFF;" d="M38.994,31.465c-0.012-0.313-0.078-0.551-0.209-0.748l-0.012-0.02l-0.016-0.02
				c-0.133-0.145-0.26-0.199-0.398-0.26c-0.41-0.158-1.008-0.242-1.726-0.244c-0.518,0-1.09,0.049-1.662,0.174l-0.002-0.037
				l-0.576,0.191l-0.01,0.006l-0.326,0.106v0.014c-0.383,0.158-0.73,0.358-1.053,0.59c-0.201,0.152-0.369,0.35-0.379,0.655
				c-0.004,0.166,0.08,0.358,0.221,0.471c0.139,0.113,0.301,0.15,0.443,0.15c0.035,0,0.066-0.002,0.096-0.006l0.025-0.002
				l0.023-0.004c0.281-0.061,0.693-0.1,1.174-0.168c0.412-0.045,0.85-0.08,1.228-0.08c0.269,0,0.51,0.018,0.676,0.055
				c0.084,0.018,0.145,0.039,0.18,0.057c0.012,0.004,0.021,0.008,0.025,0.012c0.008,0.023,0.017,0.082,0.016,0.166
				c0.006,0.317-0.131,0.907-0.314,1.481c-0.18,0.576-0.4,1.153-0.545,1.536c-0.035,0.088-0.055,0.186-0.055,0.291
				c-0.004,0.154,0.059,0.34,0.193,0.465c0.129,0.123,0.297,0.174,0.439,0.174h0.006c0.213-0.004,0.393-0.088,0.549-0.209
				c1.465-1.319,1.973-3.421,1.994-4.604l-0.006-0.19V31.465z"/>
			<path style="fill:#FFFFFF;" d="M25.605,17.346c-0.861,0.065-1.855,0.131-2.848,0.262c-1.523,0.201-3.045,0.465-4.303,1.063
				c-2.449,0.993-4.105,3.111-4.105,6.224c0,3.908,2.516,5.895,5.695,5.895c1.059,0,1.92-0.135,2.713-0.33
				c1.26-0.399,2.316-1.126,3.576-2.452c0.727,0.993,0.926,1.458,2.184,2.517c0.33,0.131,0.662,0.131,0.926-0.064
				c0.797-0.664,2.186-1.856,2.912-2.519c0.334-0.264,0.266-0.662,0.066-0.991c-0.726-0.928-1.455-1.723-1.455-3.513v-5.96
				c0-2.517,0.199-4.836-1.654-6.556C27.791,9.532,25.406,9,23.553,9h-0.795c-3.375,0.197-6.951,1.655-7.746,5.829
				c-0.133,0.53,0.266,0.727,0.531,0.793l3.705,0.463c0.399-0.066,0.598-0.399,0.662-0.727c0.332-1.458,1.523-2.187,2.848-2.319
				h0.266c0.795,0,1.654,0.332,2.117,0.995c0.529,0.795,0.465,1.854,0.465,2.782V17.346z M24.877,25.226
				c-0.463,0.924-1.258,1.52-2.119,1.723c-0.133,0-0.33,0.064-0.531,0.064c-1.455,0-2.316-1.127-2.316-2.781
				c0-2.122,1.26-3.115,2.848-3.578c0.861-0.197,1.853-0.266,2.848-0.266v0.795C25.605,22.709,25.67,23.901,24.877,25.226z"/>
		</g>
	</g>
</g>
<g id="Layer_1">
</g>
</svg>
