<?xml version="1.0" encoding="iso-8859-1"?>
<!-- Generator: Adobe Illustrator 18.0.0, SVG Export Plug-In . SVG Version: 6.00 Build 0)  -->
<!DOCTYPE svg PUBLIC "-//W3C//DTD SVG 1.1//EN" "http://www.w3.org/Graphics/SVG/1.1/DTD/svg11.dtd">
<svg version="1.1" xmlns="http://www.w3.org/2000/svg" xmlns:xlink="http://www.w3.org/1999/xlink" x="0px" y="0px"
	 viewBox="0 0 48 48" style="enable-background:new 0 0 48 48;" xml:space="preserve">
<g id="Layer_449">
	<g>
		<path style="fill:#4F6EAA;" d="M48,36c0,6.629-5.373,12-12.002,12h-24C5.371,48,0,42.629,0,36V12C0,5.373,5.371,0,11.998,0h24
			C42.627,0,48,5.373,48,12V36z"/>
		<g>
			<ellipse style="fill:#FFFFFF;" cx="18.435" cy="11.496" rx="2.353" ry="2.495"/>
			<path style="fill:#FFFFFF;" d="M29.649,9.001c-1.304,0-2.353,1.117-2.353,2.496c0,1.377,1.05,2.494,2.353,2.494
				c1.298,0,2.351-1.117,2.351-2.494C32,10.118,30.947,9.001,29.649,9.001z"/>
			<path style="fill:#FFFFFF;" d="M27.71,38.804c0.922,0.439,4.29,0,4.29,0c-0.041-5.678,0-22.414,0-22.414
				c-8.03,9.103-15.918,0-15.918,0c-0.184,6.949,0,22.414,0,22.414c1.291,0.344,4.104-0.049,4.104-0.049
				c0.188-4.846,0-16.004,0-16.004c4.154,2.105,7.614,0,7.614,0C27.572,30.288,27.71,38.804,27.71,38.804z"/>
		</g>
	</g>
</g>
<g id="Layer_1">
</g>
</svg>
