<?xml version="1.0" encoding="iso-8859-1"?>
<!-- Generator: Adobe Illustrator 18.0.0, SVG Export Plug-In . SVG Version: 6.00 Build 0)  -->
<!DOCTYPE svg PUBLIC "-//W3C//DTD SVG 1.1//EN" "http://www.w3.org/Graphics/SVG/1.1/DTD/svg11.dtd">
<svg version="1.1" xmlns="http://www.w3.org/2000/svg" xmlns:xlink="http://www.w3.org/1999/xlink" x="0px" y="0px"
	 viewBox="0 0 48 48" style="enable-background:new 0 0 48 48;" xml:space="preserve">
<g>
</g>
<g>
</g>
<g>
</g>
<g>
</g>
<g>
</g>
<g>
</g>
<g>
</g>
<g>
</g>
<g>
</g>
<g>
</g>
<g>
</g>
<g>
</g>
<g>
</g>
<g>
</g>
<g>
</g>
<g>
</g>
<g>
</g>
<g>
</g>
<g>
</g>
<g>
</g>
<g>
</g>
<g>
</g>
<g>
</g>
<g>
</g>
<g>
</g>
<g>
</g>
<g>
</g>
<g>
</g>
<g>
</g>
<g>
</g>
<g>
</g>
<g>
</g>
<g>
</g>
<g>
</g>
<g>
</g>
<g>
</g>
<g>
</g>
<g>
</g>
<g>
</g>
<g>
</g>
<g>
</g>
<g>
</g>
<g>
</g>
<g>
</g>
<g>
</g>
<g>
</g>
<g>
</g>
<g>
</g>
<g>
</g>
<g>
</g>
<g>
</g>
<g>
</g>
<g>
</g>
<g>
</g>
<g>
</g>
<g>
</g>
<g>
</g>
<g>
</g>
<g>
</g>
<g>
</g>
<g>
</g>
<g>
</g>
<g>
</g>
<g>
</g>
<g>
</g>
<g>
</g>
<g>
</g>
<g>
</g>
<g>
</g>
<g>
</g>
<g>
</g>
<g>
</g>
<g>
</g>
<g>
</g>
<g>
</g>
<g>
</g>
<g>
</g>
<g>
</g>
<g>
</g>
<g>
</g>
<g>
</g>
<g>
</g>
<g>
</g>
<g>
</g>
<g>
</g>
<g>
</g>
<g>
	<g>
		<path style="fill:#00A2F2;" d="M48,35.998C48,42.627,42.627,48,36,48H12C5.371,48,0,42.627,0,35.998V12C0,5.371,5.371,0,12,0h24
			c6.627,0,12,5.371,12,12V35.998z"/>
		<g id="g18086_5_" transform="matrix(4.6798804,0,0,4.6798804,-14628.123,-100339.87)">
			<g id="bag_6_" transform="translate(2886.7719,21269.267)">
				<g id="handles_6_">
					<path id="path205_5_" style="fill:#FFFFFF;" d="M244,173.934c-0.281,0.097-0.486,0.18-0.486,0.708v0.254l0.168-0.033v-0.22
						c-0.004-0.358,0.09-0.433,0.336-0.538C244.017,174.038,244.011,173.981,244,173.934L244,173.934z"/>
					<path id="path207_5_" style="fill:#FFFFFF;" d="M244.49,173.821c0.011,0.051,0.02,0.107,0.026,0.167
						c0.44-0.062,0.431,0.116,0.431,0.489v0.138l0.166-0.034v-0.104C245.113,173.898,245.021,173.743,244.49,173.821z"/>
					<path id="path209_5_" style="fill:#FFFFFF;" d="M242.756,175.046v-0.762c-0.005-0.472,0.242-0.616,0.699-0.722
						c0.688-0.159,0.732,0.278,0.732,0.556v0.646l0.169-0.034v-0.598c-0.002-0.526-0.168-0.92-0.934-0.749
						c-0.413,0.092-0.834,0.196-0.834,0.885v0.81L242.756,175.046L242.756,175.046z"/>
				</g>
				<path id="path211_5_" style="fill:#FFFFFF;" d="M245.956,174.616l-4.63,0.911v3.315l4.63,0.911l0.925-0.331v-4.475
					L245.956,174.616L245.956,174.616z M243.348,178.157l-1.027-0.143v-0.84h1.027V178.157z M243.348,177.047h-1.027v-0.772
					l1.027-0.143V177.047z M244.772,178.351l-1.295-0.186v-0.99h1.295V178.351z M244.772,177.047h-1.295v-0.923l1.295-0.187V177.047
					z"/>
			</g>
		</g>
	</g>
</g>
<g>
</g>
<g>
</g>
<g>
</g>
<g id="nyt_x5F_exporter_x5F_info" style="display:none;">
</g>
</svg>
