<?xml version="1.0" encoding="iso-8859-1"?>
<!-- Generator: Adobe Illustrator 18.0.0, SVG Export Plug-In . SVG Version: 6.00 Build 0)  -->
<!DOCTYPE svg PUBLIC "-//W3C//DTD SVG 1.1//EN" "http://www.w3.org/Graphics/SVG/1.1/DTD/svg11.dtd">
<svg version="1.1" xmlns="http://www.w3.org/2000/svg" xmlns:xlink="http://www.w3.org/1999/xlink" x="0px" y="0px"
	 viewBox="0 0 48 48" style="enable-background:new 0 0 48 48;" xml:space="preserve">
<g id="Layer_472">
	<g>
		<path style="fill:#98BF24;" d="M48,35.998C48,42.627,42.627,48,35.998,48h-24C5.371,48,0,42.627,0,35.998V12
			C0,5.371,5.371,0,11.998,0h24C42.627,0,48,5.371,48,12V35.998z"/>
		<g>
			<path style="fill:#FFFFFF;" d="M28.069,11.513l0.332-0.492l0.328-0.482l0.737-1.086c0.089-0.135,0.054-0.314-0.082-0.404
				c-0.137-0.088-0.32-0.053-0.409,0.082l-0.791,1.164l-0.332,0.49l-0.338,0.496c-1.065-0.408-2.258-0.635-3.514-0.635
				s-2.447,0.226-3.514,0.635l-0.338-0.496l-0.33-0.49l-0.791-1.164c-0.091-0.133-0.274-0.17-0.411-0.082
				c-0.133,0.09-0.171,0.269-0.079,0.404l0.735,1.086l0.328,0.482l0.334,0.492c-2.509,1.146-4.206,3.32-4.206,5.81h16.546
				C32.273,14.834,30.575,12.66,28.069,11.513z M20.456,15.002c-0.491,0-0.887-0.391-0.887-0.871c0-0.482,0.396-0.871,0.887-0.871
				c0.489,0,0.885,0.389,0.885,0.871C21.34,14.611,20.945,15.002,20.456,15.002z M27.546,15.002c-0.491,0-0.887-0.391-0.887-0.871
				c0-0.482,0.396-0.871,0.887-0.871c0.489,0,0.887,0.389,0.887,0.871C28.433,14.611,28.035,15.002,27.546,15.002z"/>
			<path style="fill:#FFFFFF;" d="M32.273,31.259V21.115v-1.182v-1.449h-0.127h-16.29h-0.129v1.449v1.182v10.145
				c0,1.014,0.839,1.84,1.872,1.84h1.35c-0.044,0.152-0.072,0.314-0.072,0.482v0.096v0.582v3c0,0.961,0.795,1.74,1.775,1.74
				c0.978,0,1.773-0.779,1.773-1.74v-3v-0.582v-0.096c0-0.168-0.026-0.33-0.072-0.482h3.292c-0.044,0.152-0.07,0.314-0.07,0.482
				v0.096v0.582v3c0,0.961,0.795,1.74,1.773,1.74c0.978,0,1.773-0.779,1.773-1.74v-3v-0.582v-0.096c0-0.168-0.026-0.33-0.072-0.482
				h1.352C31.434,33.099,32.273,32.273,32.273,31.259z"/>
			<path style="fill:#FFFFFF;" d="M11,20.226v7.453c0,0.961,0.793,1.74,1.773,1.74c0.978,0,1.773-0.779,1.773-1.74v-7.453
				c0-0.963-0.795-1.742-1.773-1.742C11.793,18.484,11,19.263,11,20.226z"/>
			<path style="fill:#FFFFFF;" d="M33.456,20.226v7.453c0,0.961,0.793,1.74,1.771,1.74c0.98,0,1.773-0.779,1.773-1.74v-7.453
				c0-0.963-0.793-1.742-1.773-1.742C34.249,18.484,33.456,19.263,33.456,20.226z"/>
		</g>
	</g>
</g>
<g id="Layer_1">
</g>
</svg>
