<?xml version="1.0" encoding="iso-8859-1"?>
<!-- Generator: Adobe Illustrator 18.0.0, SVG Export Plug-In . SVG Version: 6.00 Build 0)  -->
<!DOCTYPE svg PUBLIC "-//W3C//DTD SVG 1.1//EN" "http://www.w3.org/Graphics/SVG/1.1/DTD/svg11.dtd">
<svg version="1.1" xmlns="http://www.w3.org/2000/svg" xmlns:xlink="http://www.w3.org/1999/xlink" x="0px" y="0px"
	 viewBox="0 0 48 48" style="enable-background:new 0 0 48 48;" xml:space="preserve">
<g id="Layer_441">
	<g>
		<path style="fill:#1A9711;" d="M48,35.998C48,42.627,42.627,48,36,48H12.001C5.371,48,0,42.627,0,35.998V12
			C0,5.371,5.371,0,12.001,0H36c6.627,0,12,5.371,12,12V35.998z"/>
		<g>
			<rect x="29" y="16" style="fill:#FFFFFF;" width="10" height="5"/>
			<polygon style="fill:#FFFFFF;" points="9,16 9,21 14,21 14,32 19,32 19,21 24,21 24,16 			"/>
			<polygon style="fill:#FFFFFF;" points="24.002,32 29,32 39,32 39,27 29,27 29,21 24.002,21 			"/>
		</g>
	</g>
</g>
<g id="Layer_1">
</g>
</svg>
