<?xml version="1.0" encoding="iso-8859-1"?>
<!-- Generator: Adobe Illustrator 18.0.0, SVG Export Plug-In . SVG Version: 6.00 Build 0)  -->
<!DOCTYPE svg PUBLIC "-//W3C//DTD SVG 1.1//EN" "http://www.w3.org/Graphics/SVG/1.1/DTD/svg11.dtd">
<svg version="1.1" xmlns="http://www.w3.org/2000/svg" xmlns:xlink="http://www.w3.org/1999/xlink" x="0px" y="0px"
	 viewBox="0 0 48 48" style="enable-background:new 0 0 48 48;" xml:space="preserve">
<g id="Layer_475">
	<g>
		<path style="fill:#A8C46A;" d="M48,35.998C48,42.627,42.627,48,36,48H12C5.371,48,0,42.627,0,35.998V12C0,5.371,5.371,0,12,0h24
			c6.627,0,12,5.371,12,12V35.998z"/>
		<g>
			<polygon style="fill:#FFFFFF;" points="9,34.656 21.106,36.408 21.106,24.828 9,24.828 			"/>
			<polygon style="fill:#FFFFFF;" points="22.76,36.648 39,39 39,24.828 22.76,24.828 			"/>
			<polygon style="fill:#FFFFFF;" points="22.76,23.174 39,23.174 39,9 22.76,11.352 			"/>
			<polygon style="fill:#FFFFFF;" points="21.106,11.592 9,13.346 9,23.174 21.106,23.174 			"/>
		</g>
	</g>
</g>
<g id="Layer_1">
</g>
</svg>
