<?xml version="1.0" encoding="iso-8859-1"?>
<!-- Generator: Adobe Illustrator 18.0.0, SVG Export Plug-In . SVG Version: 6.00 Build 0)  -->
<!DOCTYPE svg PUBLIC "-//W3C//DTD SVG 1.1//EN" "http://www.w3.org/Graphics/SVG/1.1/DTD/svg11.dtd">
<svg version="1.1" xmlns="http://www.w3.org/2000/svg" xmlns:xlink="http://www.w3.org/1999/xlink" x="0px" y="0px"
	 viewBox="0 0 48 48" style="enable-background:new 0 0 48 48;" xml:space="preserve">
<g>
</g>
<g>
</g>
<g>
</g>
<g>
</g>
<g>
</g>
<g>
</g>
<g>
</g>
<g>
</g>
<g>
</g>
<g>
</g>
<g>
</g>
<g>
</g>
<g>
</g>
<g>
</g>
<g>
</g>
<g>
</g>
<g>
</g>
<g>
</g>
<g>
</g>
<g>
</g>
<g>
</g>
<g>
</g>
<g>
</g>
<g>
</g>
<g>
</g>
<g>
</g>
<g>
</g>
<g>
</g>
<g>
</g>
<g>
</g>
<g>
</g>
<g>
</g>
<g>
</g>
<g>
</g>
<g>
</g>
<g>
</g>
<g>
</g>
<g>
</g>
<g>
</g>
<g>
</g>
<g>
</g>
<g>
</g>
<g>
</g>
<g>
</g>
<g>
</g>
<g>
</g>
<g>
</g>
<g>
</g>
<g>
</g>
<g>
</g>
<g>
</g>
<g>
</g>
<g>
</g>
<g>
</g>
<g>
</g>
<g>
</g>
<g>
</g>
<g>
</g>
<g>
</g>
<g>
</g>
<g>
</g>
<g>
</g>
<g>
</g>
<g>
</g>
<g>
</g>
<g>
</g>
<g>
</g>
<g>
</g>
<g>
</g>
<g>
</g>
<g>
</g>
<g>
</g>
<g>
</g>
<g>
</g>
<g>
</g>
<g>
</g>
<g>
</g>
<g>
</g>
<g>
</g>
<g>
	<g>
		<path style="fill:#356CA1;" d="M48,35.998C48,42.627,42.627,48,36,48H12C5.371,48,0,42.627,0,35.998V12C0,5.371,5.371,0,12,0h24
			c6.627,0,12,5.371,12,12V35.998z"/>
		<path id="path9-3_5_" style="fill:#FFFFFF;" d="M35.496,12.232c-2.359-1.771-5.761-1.662-8.492-1.036
			c-2.151,0.493-4.199,1.445-6.091,2.703L17.999,9.96C17.595,9.332,16.95,9,16.131,9c-1.748,0-4.052,1.539-5.135,3.431
			c-0.689,1.206-0.775,2.404-0.212,3.416l3.401,4.616c-1.935,2.651-3.391,5.549-4.186,8.289c1.484-2.78,2.934-5.363,4.64-7.671
			l0.844,1.144c-3.853,6.277-4.274,12.822-0.644,15.549c4.208,3.158,12.241,0.001,17.938-7.051
			C38.482,23.671,39.704,15.391,35.496,12.232z M15.412,14.776l5.452,7.472c0.001,0.017-0.004,0.033,0.002,0.05
			c0.169,0.484,0.255,0.991,0.255,1.506c0,1.104-0.391,2.141-1.102,2.958l-0.324-0.138l-6.286-8.529
			C13.531,16.852,14.447,15.628,15.412,14.776L15.412,14.776z M21.374,22.654c1.368,0.719,3.075,0.693,4.434-0.051l0.732,4.791
			c-0.701,0.254-1.27,0.791-1.575,1.477l-4.571-1.949c0.719-0.874,1.114-1.962,1.114-3.119
			C21.508,23.414,21.463,23.029,21.374,22.654L21.374,22.654z M26.411,21.407c-0.01-0.064-0.035-0.125-0.073-0.177l-3.5-4.731
			c0.984-0.52,1.991-0.937,2.996-1.222c0.666-0.196,1.326-0.325,1.968-0.384c1.114-0.114,2.155-0.026,3.048,0.291
			c0.612,0.217,1.114,0.528,1.507,0.914c1.298,1.117,1.857,2.907,1.512,4.9c-0.841,3.796-2.921,6.263-6.128,9.116L26.411,21.407
			L26.411,21.407z M25.66,21.628l0.084,0.553c-1.371,0.804-3.14,0.79-4.487-0.058l-5.546-7.599c1.298-1.038,2.716-1.537,3.707-1.333
			L25.66,21.628z M11.667,12.83c0.925-1.618,3.012-3.039,4.465-3.039c0.552,0,0.962,0.203,1.234,0.625l0.139,0.187
			c-1.05-0.013-2.336,0.511-3.545,1.487c-1.048,0.845-2.119,2.149-2.377,3.526l-0.149-0.202
			C10.927,14.499,11.281,13.504,11.667,12.83z M32.415,30.331c-5.248,6.482-12.84,8.94-16.595,6.125
			c-3.368-2.526-3.125-7.971,0.174-13.539l3.144,4.268c0.041,0.056,0.096,0.101,0.16,0.128l7.933,3.383
			c0.048,0.02,0.099,0.031,0.15,0.031c0.085,0,0.17-0.029,0.239-0.084c0.111-0.088,0.166-0.231,0.144-0.372l-0.001-0.003
			c5.462-2.911,10.15-13.038,3.847-15.839c-2.439-0.865-5.891-0.145-9.093,1.639l-1.009-1.363c0.504-0.304,1.021-0.6,1.573-0.874
			c3.268-1.663,6.678-2.144,9.248-1.495c0.865,0.165,1.647,0.495,2.32,1.002c0.99,0.739,1.646,1.785,2.004,3.04
			c0.208,0.719,0.308,1.503,0.308,2.336C36.959,22.153,35.557,26.446,32.415,30.331L32.415,30.331z"/>
	</g>
</g>
<g>
</g>
<g>
</g>
<g>
</g>
<g>
</g>
<g>
</g>
<g>
</g>
<g>
</g>
<g>
</g>
<g>
</g>
<g>
</g>
<g id="nyt_x5F_exporter_x5F_info" style="display:none;">
</g>
</svg>
