<?xml version="1.0" encoding="iso-8859-1"?>
<!-- Generator: Adobe Illustrator 18.0.0, SVG Export Plug-In . SVG Version: 6.00 Build 0)  -->
<!DOCTYPE svg PUBLIC "-//W3C//DTD SVG 1.1//EN" "http://www.w3.org/Graphics/SVG/1.1/DTD/svg11.dtd">
<svg version="1.1" xmlns="http://www.w3.org/2000/svg" xmlns:xlink="http://www.w3.org/1999/xlink" x="0px" y="0px"
	 viewBox="0 0 48 48" style="enable-background:new 0 0 48 48;" xml:space="preserve">
<g id="Layer_458">
	<g>
		<path style="fill:#4CB249;" d="M48,36c0,6.629-5.373,12-12,12H12C5.371,48,0,42.629,0,36V12C0,5.373,5.371,0,12,0h24
			c6.627,0,12,5.373,12,12V36z"/>
		<g>
			<path style="fill:#FFFFFF;" d="M13.293,29.291c1.301,0,2.477-0.486,3.398-1.265l10.75,5.375
				c-0.008,0.102-0.031,0.196-0.031,0.302c0,2.927,2.367,5.297,5.295,5.297C35.629,39,38,36.63,38,33.703
				c0-2.925-2.371-5.294-5.295-5.294c-1.301,0-2.478,0.486-3.398,1.266L18.559,24.3c0.004-0.102,0.027-0.197,0.027-0.3
				c0-0.105-0.023-0.202-0.027-0.305l10.748-5.378c0.92,0.779,2.096,1.269,3.398,1.269c2.924,0,5.295-2.369,5.295-5.296
				C38,11.368,35.629,9,32.705,9c-2.928,0-5.295,2.368-5.295,5.291c0,0.105,0.023,0.202,0.031,0.304l-10.75,5.374
				c-0.922-0.778-2.098-1.267-3.398-1.267C10.369,18.702,8,21.073,8,24C8,26.923,10.369,29.291,13.293,29.291z"/>
		</g>
	</g>
</g>
<g id="Layer_1">
</g>
</svg>
