<?xml version="1.0" encoding="iso-8859-1"?>
<!-- Generator: Adobe Illustrator 18.0.0, SVG Export Plug-In . SVG Version: 6.00 Build 0)  -->
<!DOCTYPE svg PUBLIC "-//W3C//DTD SVG 1.1//EN" "http://www.w3.org/Graphics/SVG/1.1/DTD/svg11.dtd">
<svg version="1.1" xmlns="http://www.w3.org/2000/svg" xmlns:xlink="http://www.w3.org/1999/xlink" x="0px" y="0px"
	 viewBox="0 0 48 48" style="enable-background:new 0 0 48 48;" xml:space="preserve">
<g id="Layer_451">
	<g>
		<path style="fill:#C96F00;" d="M48,36c0,6.629-5.373,12-12,12H12C5.371,48,0,42.629,0,36V12C0,5.373,5.371,0,12,0h24
			c6.627,0,12,5.373,12,12V36z"/>
		<g>
			<polygon style="fill:#FFFFFF;" points="33.561,30.657 31.879,25.501 30.199,30.657 24.758,30.657 29.158,33.844 27.478,39 
				31.879,35.813 36.279,39 34.599,33.844 39,30.657 			"/>
			<path style="fill:#FFFFFF;" d="M27.896,34.253c-0.925-0.67-6.441-4.664-6.441-4.664s6.817,0,7.964,0
				c0.353-1.086,2.46-7.549,2.46-7.549s2.107,6.463,2.462,7.549c0.557,0,2.45,0,4.252,0L31.879,9l-5.4,16.565H9l17.565,12.771
				C27.127,36.612,27.723,34.786,27.896,34.253z"/>
		</g>
	</g>
</g>
<g id="Layer_1">
</g>
</svg>
