<?xml version="1.0" encoding="iso-8859-1"?>
<!-- Generator: Adobe Illustrator 18.0.0, SVG Export Plug-In . SVG Version: 6.00 Build 0)  -->
<!DOCTYPE svg PUBLIC "-//W3C//DTD SVG 1.1//EN" "http://www.w3.org/Graphics/SVG/1.1/DTD/svg11.dtd">
<svg version="1.1" xmlns="http://www.w3.org/2000/svg" xmlns:xlink="http://www.w3.org/1999/xlink" x="0px" y="0px"
	 viewBox="0 0 48 48" style="enable-background:new 0 0 48 48;" xml:space="preserve">
<g id="Layer_488">
	<g>
		<path style="fill:#394B8D;" d="M48,36c0,6.627-5.373,12-12.002,12h-24C5.371,48,0,42.627,0,36V12C0,5.371,5.371,0,11.998,0h24
			C42.627,0,48,5.371,48,12V36z"/>
		<g>
			<path style="fill:#FFFFFF;" d="M38.371,9H9.627C9.279,9,9,9.281,9,9.627v28.746C9,38.72,9.279,39,9.627,39h28.744
				C38.719,39,39,38.72,39,38.373V9.627C39,9.281,38.719,9,38.371,9z M38,38H24V24H10V10h14v14h14V38z"/>
		</g>
	</g>
</g>
<g id="Layer_1">
</g>
</svg>
