<?xml version="1.0" encoding="iso-8859-1"?>
<!-- Generator: Adobe Illustrator 18.0.0, SVG Export Plug-In . SVG Version: 6.00 Build 0)  -->
<!DOCTYPE svg PUBLIC "-//W3C//DTD SVG 1.1//EN" "http://www.w3.org/Graphics/SVG/1.1/DTD/svg11.dtd">
<svg version="1.1" xmlns="http://www.w3.org/2000/svg" xmlns:xlink="http://www.w3.org/1999/xlink" x="0px" y="0px"
	 viewBox="0 0 48 48" style="enable-background:new 0 0 48 48;" xml:space="preserve">
<g id="Layer_485">
	<g>
		<path style="fill:#54675A;" d="M48,36c0,6.629-5.373,12-12.001,12h-24C5.371,48,0,42.629,0,36V12C0,5.373,5.371,0,11.999,0h24
			C42.627,0,48,5.373,48,12V36z"/>
		<g>
			<path style="fill:#FFFFFF;" d="M23.653,28.935l-3.783-7.882c6.791-2.002,12.463,2.092,12.463,2.092l-4.675,1.294l-1.346-2.565
				c-1.268-0.238-2.711-0.315-4.245-0.05l3.183,6.634L39,24.397c0,0-4.986-8.034-19.86-5.44c-0.088,0.016-0.165,0.038-0.251,0.052
				L17.444,16l-4.28,0.501l1.746,3.66C5.884,23.984,9.883,33,9.883,33L23.653,28.935z M16.144,22.748l2.054,4.314l-4.588,1.268
				C13.609,28.33,12.282,25.324,16.144,22.748z"/>
		</g>
	</g>
</g>
<g id="Layer_1">
</g>
</svg>
