<?xml version="1.0" encoding="iso-8859-1"?>
<!-- Generator: Adobe Illustrator 18.0.0, SVG Export Plug-In . SVG Version: 6.00 Build 0)  -->
<!DOCTYPE svg PUBLIC "-//W3C//DTD SVG 1.1//EN" "http://www.w3.org/Graphics/SVG/1.1/DTD/svg11.dtd">
<svg version="1.1" xmlns="http://www.w3.org/2000/svg" xmlns:xlink="http://www.w3.org/1999/xlink" x="0px" y="0px"
	 viewBox="0 0 48 48" style="enable-background:new 0 0 48 48;" xml:space="preserve">
<g id="Layer_461">
	<g>
		<path style="fill:#343434;" d="M47.998,35.522c0.106,6.576-5.139,11.989-11.713,12.095l-23.809,0.382
			C5.903,48.104,0.489,42.861,0.384,36.286L0.002,12.478C-0.104,5.905,5.139,0.489,11.712,0.384l23.809-0.382
			c6.574-0.106,11.989,5.139,12.095,11.713L47.998,35.522z"/>
		<g>
			<path style="fill:#FFFFFF;" d="M9.534,16.423c0.706,0.031,1.181,0.14,1.405,0.335c0.224,0.194,0.472,0.693,0.795,1.471
				c1.752,4.227,5.45,11.76,7.259,16.056c0.519,1.171,1.153,1.345,1.896-0.067c0.762-1.549,2.292-4.984,3.408-7.52
				c1.125,2.494,2.652,5.866,3.39,7.394c0.585,1.222,1.233,1.334,1.868,0.007c1.646-4.036,6.461-16.183,6.461-16.183
				c0.206-0.597,0.5-1.057,0.885-1.395c0.38-0.334,0.953-0.527,1.76-0.578c0.163-0.003,0.225-0.082,0.223-0.234l-0.009-0.566
				l-0.022-0.072c0,0-4.619,0.074-6.151,0.099l-0.439,0.079l0.009,0.566c0.001,0.066,0.211,0.118,0.27,0.158
				c0.055,0.046,0.206,0.067,0.27,0.066l0.558,0.017c0.63,0.018,0.826,0.146,1.076,0.364c0.246,0.225,0.291,0.616,0.112,1.166
				l-5.218,13.69l-0.21-0.057l-3.574-7.389c0.049-0.113,0.077-0.176,0.077-0.176l2.739-5.615c0.32-0.593,0.629-1.123,0.788-1.37
				c0.287-0.452,0.431-0.538,1.235-0.59c0.163-0.003,0.225-0.081,0.223-0.238l-0.009-0.563l-0.042-0.06c0,0-3.381,0.042-4.921,0.079
				l0.003,0.059l0.009,0.563c0.001,0.068-0.037,0.123,0.018,0.164c0.059,0.045,0.083,0.067,0.146,0.066l0.231,0.024
				c0.63,0.018,0.914,0.186,1.001,0.294c0.154,0.192,0.227,0.399-0.121,1.241l-2.106,4.605l-2.035-4.207
				c-0.667-1.345-0.834-1.761,0.137-1.855l0.261-0.063c0.19-0.003,0.156-0.073,0.154-0.208l-0.009-0.591l-0.018-0.049
				c0,0-3.606,0.058-5.25,0.086l-0.02,0.058l0.01,0.593c0.002,0.133,0.14,0.166,0.395,0.197c0.913,0.112,0.901,0.212,1.83,2.077
				c0.14,0.281,0.549,1.124,0.549,1.124l2.12,4.209c0,0,0.241,0.541,0.619,1.381l-2.879,6.311l-0.169-0.044
				c0,0-4.791-10.198-6.187-13.613c-0.147-0.351-0.211-0.616-0.214-0.779c-0.006-0.349,0.29-0.543,0.888-0.578l0.908-0.046
				c0.188-0.003,0.491-0.082,0.488-0.238l-0.009-0.564l-0.274-0.053c0,0-5.669,0.085-6.814,0.109l-0.187,0.061l0.01,0.595
				C9.127,16.335,9.277,16.399,9.534,16.423z"/>
		</g>
	</g>
</g>
<g id="Layer_1">
</g>
</svg>
