<?xml version="1.0" encoding="iso-8859-1"?>
<!-- Generator: Adobe Illustrator 18.0.0, SVG Export Plug-In . SVG Version: 6.00 Build 0)  -->
<!DOCTYPE svg PUBLIC "-//W3C//DTD SVG 1.1//EN" "http://www.w3.org/Graphics/SVG/1.1/DTD/svg11.dtd">
<svg version="1.1" xmlns="http://www.w3.org/2000/svg" xmlns:xlink="http://www.w3.org/1999/xlink" x="0px" y="0px"
	 viewBox="0 0 48 48" style="enable-background:new 0 0 48 48;" xml:space="preserve">
<g id="Layer_456">
	<g>
		<path style="fill:#003399;" d="M48,36c0,6.629-5.373,12-12,12H12C5.371,48,0,42.629,0,36V12C0,5.373,5.371,0,12,0h24
			c6.627,0,12,5.373,12,12V36z"/>
		<g>
			<ellipse style="fill:#FFFFFF;" cx="33.751" cy="19.672" rx="4.774" ry="4.673"/>
			<ellipse style="fill:#FFFFFF;" cx="22.998" cy="21.005" rx="4.299" ry="4.205"/>
			<ellipse style="fill:#FFFFFF;" cx="13.248" cy="22.204" rx="3.867" ry="3.783"/>
			<path style="fill:#FFFFFF;" d="M17.109,33c0.215,0,0.389-0.171,0.389-0.378V31.15c0-2.183-1.799-4.298-4.25-4.298
				S9,28.968,9,31.15v1.472C9,32.829,9.172,33,9.385,33h0.139h7.451H17.109z"/>
			<path style="fill:#FFFFFF;" d="M27.291,33c0.236,0,0.43-0.19,0.43-0.422v-1.633c0-2.427-1.996-4.776-4.723-4.776
				c-2.723,0-4.721,2.349-4.721,4.776v1.633c0,0.232,0.191,0.422,0.43,0.422h0.152h8.281H27.291z"/>
			<path style="fill:#FFFFFF;" d="M33.752,25.409c-3.027,0-5.246,2.609-5.246,5.308v1.814c0,0.257,0.213,0.468,0.477,0.468h0.168
				h9.201h0.168c0.264,0,0.48-0.211,0.48-0.468v-1.814C39,28.019,36.779,25.409,33.752,25.409z"/>
		</g>
	</g>
</g>
<g id="Layer_1">
</g>
</svg>
