<?xml version="1.0" encoding="iso-8859-1"?>
<!-- Generator: Adobe Illustrator 18.0.0, SVG Export Plug-In . SVG Version: 6.00 Build 0)  -->
<!DOCTYPE svg PUBLIC "-//W3C//DTD SVG 1.1//EN" "http://www.w3.org/Graphics/SVG/1.1/DTD/svg11.dtd">
<svg version="1.1" xmlns="http://www.w3.org/2000/svg" xmlns:xlink="http://www.w3.org/1999/xlink" x="0px" y="0px"
	 viewBox="0 0 48 48" style="enable-background:new 0 0 48 48;" xml:space="preserve">
<g id="Layer_161">
	<g>
		<path style="fill:#4F6EAA;" d="M21.854,0.903c1.197-1.158,3.16-1.158,4.357,0l1.887,1.824c1.197,1.158,3.529,1.914,5.18,1.682
			l2.598-0.367c1.652-0.234,3.238,0.918,3.525,2.559l0.453,2.584c0.289,1.641,1.73,3.621,3.203,4.402l2.318,1.23
			c1.473,0.779,2.078,2.643,1.346,4.139l-1.152,2.357c-0.734,1.498-0.734,3.945,0,5.441l1.152,2.357
			c0.732,1.496,0.127,3.359-1.346,4.141l-2.318,1.229c-1.473,0.781-2.914,2.764-3.203,4.404l-0.453,2.584
			c-0.287,1.641-1.873,2.791-3.525,2.559l-2.598-0.367c-1.65-0.232-3.982,0.521-5.18,1.682l-1.887,1.822
			c-1.197,1.16-3.16,1.16-4.357,0l-1.887-1.822c-1.199-1.16-3.529-1.914-5.18-1.682l-2.6,0.367
			c-1.652,0.233-3.238-0.918-3.525-2.559l-0.455-2.584c-0.287-1.641-1.728-3.623-3.201-4.404l-2.318-1.229
			c-1.473-0.781-2.078-2.644-1.346-4.141l1.152-2.357c0.734-1.496,0.734-3.943,0-5.441l-1.152-2.357
			c-0.732-1.496-0.127-3.359,1.346-4.139l2.318-1.23c1.473-0.781,2.914-2.762,3.201-4.402L8.663,6.6
			c0.287-1.641,1.873-2.793,3.525-2.559l2.6,0.367c1.65,0.232,3.98-0.523,5.18-1.682L21.854,0.903z"/>
		<g>
			<ellipse style="fill:#FFFFFF;" cx="18.397" cy="11.469" rx="2.353" ry="2.495"/>
			<path style="fill:#FFFFFF;" d="M29.611,8.974c-1.304,0-2.353,1.117-2.353,2.496c0,1.377,1.05,2.494,2.353,2.494
				c1.298,0,2.351-1.117,2.351-2.494C31.962,10.091,30.909,8.974,29.611,8.974z"/>
			<path style="fill:#FFFFFF;" d="M27.672,38.776c0.922,0.439,4.29,0,4.29,0c-0.041-5.678,0-22.414,0-22.414
				c-8.03,9.103-15.918,0-15.918,0c-0.184,6.949,0,22.414,0,22.414c1.291,0.344,4.104-0.049,4.104-0.049
				c0.188-4.846,0-16.004,0-16.004c4.154,2.105,7.614,0,7.614,0C27.534,30.261,27.672,38.776,27.672,38.776z"/>
		</g>
	</g>
</g>
<g id="Layer_1">
</g>
</svg>
