<?xml version="1.0" encoding="iso-8859-1"?>
<!-- Generator: Adobe Illustrator 18.0.0, SVG Export Plug-In . SVG Version: 6.00 Build 0)  -->
<!DOCTYPE svg PUBLIC "-//W3C//DTD SVG 1.1//EN" "http://www.w3.org/Graphics/SVG/1.1/DTD/svg11.dtd">
<svg version="1.1" xmlns="http://www.w3.org/2000/svg" xmlns:xlink="http://www.w3.org/1999/xlink" x="0px" y="0px"
	 viewBox="0 0 48 48" style="enable-background:new 0 0 48 48;" xml:space="preserve">
<g id="Layer_195">
	<g>
		<path style="fill:#B685BF;" d="M21.853,0.903c1.197-1.158,3.16-1.158,4.357,0l1.887,1.824c1.198,1.158,3.529,1.914,5.18,1.682
			l2.598-0.367c1.652-0.234,3.238,0.918,3.526,2.559l0.453,2.584c0.289,1.641,1.729,3.621,3.202,4.402l2.318,1.23
			c1.473,0.779,2.079,2.643,1.347,4.139l-1.153,2.357c-0.733,1.498-0.733,3.945,0,5.441l1.153,2.357
			c0.732,1.496,0.126,3.359-1.347,4.141l-2.318,1.229c-1.473,0.781-2.913,2.764-3.202,4.404l-0.453,2.584
			c-0.288,1.641-1.874,2.791-3.526,2.559l-2.598-0.367c-1.65-0.232-3.981,0.521-5.18,1.682l-1.887,1.822
			c-1.197,1.16-3.16,1.16-4.357,0l-1.887-1.822c-1.198-1.16-3.529-1.914-5.18-1.682l-2.598,0.367
			c-1.652,0.232-3.238-0.918-3.526-2.559l-0.454-2.584c-0.288-1.641-1.728-3.623-3.201-4.404l-2.318-1.229
			c-1.473-0.781-2.079-2.644-1.347-4.141l1.153-2.357c0.733-1.496,0.733-3.943,0-5.441l-1.153-2.357
			c-0.732-1.496-0.126-3.359,1.347-4.139l2.318-1.23c1.473-0.781,2.913-2.762,3.201-4.402l0.454-2.584
			c0.288-1.641,1.874-2.793,3.526-2.559l2.598,0.367c1.65,0.232,3.981-0.523,5.18-1.682L21.853,0.903z"/>
		<g>
			<path style="fill:#FFFFFF;" d="M18.723,9.955c0.398,0.36,10.912,9.924,11.424,10.39c0-0.691,0-9.811,0-10.024
				c-1.959-0.89-4.038-1.348-6.186-1.348C22.172,8.973,20.415,9.319,18.723,9.955z"/>
			<path style="fill:#FFFFFF;" d="M16.241,36.843c0-0.587,0-12.232,0-12.924c-0.501,0.456-6.025,5.486-6.198,5.644
				C11.246,32.585,13.439,35.145,16.241,36.843z"/>
			<path style="fill:#FFFFFF;" d="M22.803,15.803c-0.253-0.229-5.505-5.006-5.678-5.163c-5.035,2.589-8.163,7.697-8.163,13.367
				c0,1.288,0.193,2.601,0.546,3.904C9.913,27.539,22.543,16.042,22.803,15.803z"/>
			<path style="fill:#FFFFFF;" d="M17.817,37.71c1.523,0.687,3.121,1.11,4.762,1.262h2.751c5.183-0.483,9.808-3.685,12.107-8.435
				c-0.542,0-19.298,0-19.62,0C17.817,30.851,17.817,37.495,17.817,37.71z"/>
			<path style="fill:#FFFFFF;" d="M38.962,24.007c0-5.225-2.771-10.102-7.234-12.823c0,0.595,0,17.451,0,17.77
				c0.308,0,6.145,0,6.384,0C38.668,27.352,38.962,25.688,38.962,24.007z"/>
		</g>
	</g>
</g>
<g id="Layer_1">
</g>
</svg>
