<?xml version="1.0" encoding="iso-8859-1"?>
<!-- Generator: Adobe Illustrator 18.0.0, SVG Export Plug-In . SVG Version: 6.00 Build 0)  -->
<!DOCTYPE svg PUBLIC "-//W3C//DTD SVG 1.1//EN" "http://www.w3.org/Graphics/SVG/1.1/DTD/svg11.dtd">
<svg version="1.1" xmlns="http://www.w3.org/2000/svg" xmlns:xlink="http://www.w3.org/1999/xlink" x="0px" y="0px"
	 viewBox="0 0 48 48" style="enable-background:new 0 0 48 48;" xml:space="preserve">
<g id="Layer_172">
	<g>
		<path style="fill:#0072C4;" d="M21.853,0.905c1.197-1.16,3.16-1.16,4.357,0l1.887,1.822c1.198,1.158,3.529,1.914,5.179,1.682
			l2.598-0.367c1.652-0.232,3.238,0.918,3.526,2.559l0.453,2.584c0.289,1.641,1.729,3.623,3.202,4.404l2.318,1.228
			c1.473,0.779,2.079,2.644,1.347,4.141l-1.153,2.357c-0.733,1.496-0.733,3.943,0,5.439l1.153,2.359
			c0.732,1.496,0.126,3.359-1.347,4.139l-2.318,1.23c-1.473,0.781-2.913,2.762-3.202,4.402l-0.453,2.584
			c-0.288,1.641-1.874,2.793-3.526,2.559l-2.598-0.367c-1.65-0.232-3.981,0.523-5.179,1.682l-1.887,1.824
			c-1.197,1.158-3.16,1.158-4.357,0l-1.887-1.824c-1.198-1.158-3.529-1.914-5.18-1.682l-2.598,0.367
			c-1.652,0.234-3.238-0.918-3.526-2.559l-0.454-2.584c-0.288-1.641-1.728-3.621-3.201-4.402l-2.318-1.23
			c-1.473-0.779-2.079-2.643-1.347-4.139l1.153-2.359c0.733-1.496,0.733-3.943,0-5.439l-1.153-2.357
			c-0.732-1.496-0.126-3.361,1.347-4.141l2.318-1.228c1.473-0.781,2.913-2.764,3.201-4.404L8.663,6.6
			c0.288-1.641,1.874-2.791,3.526-2.559l2.598,0.367c1.65,0.232,3.981-0.523,5.18-1.682L21.853,0.905z"/>
		<g>
			<path style="fill:#FFFFFF;" d="M9.962,33.004c0,3.287,6.29,5.969,14.001,5.969c7.713,0,14-2.682,14-5.969
				c0-1.697-1.685-3.226-4.365-4.314c0.083-0.449,0.142-0.896,0.144-1.348c0.024-5.639-3.043-7.84-6.289-9.717
				c0.94,4.937-2.099,7.988-5.876,6.92c5.52-9.029-2.513-9.051-0.059-15.572c-3.775,2.68-7.562,10.187-7.551,15.664
				c0.002,1.447,0.149,2.793,0.418,4.023C11.667,29.75,9.962,31.293,9.962,33.004z M18.605,21.521
				c-1.045,4.707,1.755,8.215,4.45,8.25c3.043,0.021,4.846-2.818,5.704-6.543c1.615,1.23,2.449,2.951,2.558,4.705
				c-0.004-0.002-0.008-0.002-0.012-0.004c0.123,1.986-0.689,4.016-2.376,5.434c-0.007,0.008-0.017,0.016-0.026,0.023
				c-0.361,0.303-0.765,0.576-1.207,0.814c-0.039,0.021-0.082,0.041-0.121,0.063c-0.177,0.092-0.359,0.178-0.55,0.258
				c-0.055,0.023-0.107,0.047-0.164,0.07c-0.463,0.186-0.961,0.336-1.495,0.449c-0.074,0.014-0.151,0.027-0.226,0.041
				c-0.201,0.037-0.407,0.068-0.618,0.094c-0.083,0.012-0.165,0.021-0.248,0.029c-0.287,0.029-0.579,0.051-0.882,0.055
				c-0.213,0.004-0.422-0.004-0.63-0.018c-0.055-0.002-0.108-0.008-0.163-0.014c-0.176-0.016-0.351-0.037-0.522-0.066
				c-0.034-0.006-0.066-0.01-0.099-0.016c-0.208-0.037-0.413-0.082-0.615-0.139c-0.024-0.008-0.05-0.016-0.073-0.021
				c-0.188-0.053-0.375-0.115-0.558-0.186c-0.02-0.006-0.038-0.014-0.058-0.02c-2.501-0.984-4.319-3.42-4.223-6.807
				c-0.005,0-0.008,0.002-0.014,0.004C16.493,26.092,17.14,23.912,18.605,21.521z"/>
		</g>
	</g>
</g>
<g id="Layer_1">
</g>
</svg>
