<?xml version="1.0" encoding="iso-8859-1"?>
<!-- Generator: Adobe Illustrator 18.0.0, SVG Export Plug-In . SVG Version: 6.00 Build 0)  -->
<!DOCTYPE svg PUBLIC "-//W3C//DTD SVG 1.1//EN" "http://www.w3.org/Graphics/SVG/1.1/DTD/svg11.dtd">
<svg version="1.1" xmlns="http://www.w3.org/2000/svg" xmlns:xlink="http://www.w3.org/1999/xlink" x="0px" y="0px"
	 viewBox="0 0 48 48" style="enable-background:new 0 0 48 48;" xml:space="preserve">
<g id="Layer_147">
	<g>
		<path style="fill:#FE7A15;" d="M21.853,0.903c1.197-1.158,3.16-1.158,4.357,0l1.887,1.824c1.198,1.158,3.529,1.914,5.18,1.682
			l2.598-0.367c1.652-0.234,3.238,0.918,3.526,2.559l0.453,2.584c0.289,1.641,1.729,3.621,3.202,4.402l2.318,1.23
			c1.473,0.779,2.079,2.643,1.347,4.139l-1.153,2.357c-0.733,1.498-0.733,3.945,0,5.441l1.153,2.357
			c0.732,1.496,0.126,3.359-1.347,4.141l-2.318,1.229c-1.473,0.781-2.913,2.764-3.202,4.404l-0.453,2.584
			c-0.288,1.641-1.874,2.791-3.526,2.559l-2.598-0.367c-1.65-0.232-3.981,0.521-5.18,1.682l-1.887,1.822
			c-1.197,1.16-3.16,1.16-4.357,0l-1.887-1.822c-1.198-1.16-3.529-1.914-5.18-1.682l-2.598,0.367
			c-1.652,0.233-3.238-0.918-3.526-2.559l-0.454-2.584c-0.288-1.641-1.729-3.623-3.201-4.404l-2.318-1.229
			c-1.473-0.781-2.079-2.644-1.347-4.141l1.153-2.357c0.733-1.496,0.733-3.943,0-5.441l-1.153-2.357
			c-0.732-1.496-0.126-3.359,1.347-4.139l2.318-1.23c1.473-0.781,2.913-2.762,3.201-4.402L8.663,6.6
			c0.288-1.641,1.874-2.793,3.526-2.559l2.598,0.367c1.65,0.232,3.981-0.523,5.18-1.682L21.853,0.903z"/>
		<g>
			<path style="fill:#FFFFFF;" d="M29.641,11.76c1.214,0.119,2.366,0.446,3.384,0.964c0.363,0.186,0.788,0.199,1.165,0.04
				c0.374-0.159,0.659-0.477,0.774-0.865c0.2-0.662-0.127-1.355-0.741-1.636c-1.678-0.844-3.621-1.29-5.621-1.29
				c-2.741,0-5.331,0.829-7.294,2.333c-0.806,0.618-1.47,1.32-1.982,2.084c2.11-1.244,4.66-1.919,7.333-1.919
				C27.673,11.471,28.673,11.568,29.641,11.76z"/>
			<path style="fill:#FFFFFF;" d="M26.677,14.739c1.865,0,3.661,0.414,5.192,1.196c0.021,0.011,0.043,0.021,0.065,0.03
				c1.049,0.551,1.784,1.312,2.104,2.142c1.118,0.99,1.9,2.185,2.268,3.48c0.431-0.802,0.657-1.667,0.657-2.555
				c0-2.236-1.435-4.305-3.839-5.533c-0.026-0.013-0.051-0.024-0.075-0.036c-1.902-0.955-4.104-1.459-6.372-1.459
				c-3.106,0-6.043,0.938-8.264,2.642c-0.988,0.756-1.786,1.625-2.378,2.57c2.359-1.426,5.225-2.211,8.237-2.242
				C25.046,14.82,25.853,14.739,26.677,14.739z"/>
			<path style="fill:#FFFFFF;" d="M35.898,29.413c-0.62-0.435-1.476-0.287-1.914,0.33c-0.586,0.828-1.208,1.457-1.904,1.924
				c-0.839,0.563-2.166,1.432-2.18,1.44c-0.386,0.252-0.62,0.682-0.62,1.143l0.002,1.285L25.906,34.1
				c-0.196-0.082-0.406-0.119-0.616-0.107c-0.271,0.015-0.543,0.022-0.814,0.022c-3.996,0-7.639-1.636-9.503-4.268
				c-0.043-0.06-0.092-0.11-0.141-0.161c-0.743-1.095-1.125-2.271-1.125-3.501c0-4.353,4.806-7.895,10.713-7.895
				c2.153,0,4.231,0.473,6.007,1.369c0.02,0.01,0.039,0.019,0.059,0.027c1.763,0.901,2.812,2.299,2.812,3.75
				c0,1.174-0.672,2.308-1.894,3.191c-1.355,0.979-3.178,1.52-5.135,1.52c-0.496,0-0.992-0.035-1.472-0.105
				c-0.004-0.002-0.008-0.002-0.014-0.002c-1.376-0.209-2.692-0.662-3.806-1.309l-0.002-0.002c-2.18-1.286-3.431-3.179-3.431-5.205
				c0-0.296,0.029-0.59,0.082-0.88c-1.121,0.727-2.02,1.632-2.614,2.652c0.561,2.316,2.202,4.416,4.627,5.826
				c0.02,0.012,0.041,0.016,0.061,0.025c1.392,0.792,3.01,1.346,4.692,1.6c0.01,0.001,0.018,0.002,0.027,0.004
				c0.606,0.087,1.227,0.131,1.849,0.131c2.531,0,4.927-0.725,6.747-2.041c1.953-1.412,3.027-3.331,3.027-5.404
				c0-2.521-1.637-4.847-4.378-6.221c-0.02-0.01-0.041-0.02-0.061-0.029c-2.145-1.067-4.629-1.631-7.184-1.631
				c-3.529,0-6.862,1.064-9.384,2.996c-2.627,2.014-4.074,4.725-4.074,7.633c0,1.826,0.592,3.625,1.71,5.203
				c0.057,0.079,0.122,0.146,0.19,0.209c2.404,3.244,6.827,5.253,11.615,5.253c0.212,0,0.425-0.004,0.639-0.012l4.996,2.126
				c0.172,0.073,0.357,0.109,0.539,0.109c0.265,0,0.527-0.076,0.755-0.226c0.386-0.253,0.618-0.682,0.618-1.141l0.002-2.619
				c0.467-0.306,1.106-0.727,1.588-1.052c0.965-0.647,1.843-1.527,2.616-2.617C36.666,30.702,36.517,29.849,35.898,29.413z"/>
			<path style="fill:#FFFFFF;" d="M26.645,25.559l0.01,0.002c0.533,0.077,1.082,0.115,1.631,0.115c1.449,0,2.845-0.272,4.08-0.772
				c0.323-0.502,0.496-1.038,0.496-1.58c0-0.517-0.159-1.028-0.453-1.51c-1.102,0.712-2.578,1.128-4.123,1.128
				c-0.418,0-0.835-0.029-1.235-0.087c-2.806-0.418-5.011-1.921-5.845-3.825c-0.925,0.225-1.79,0.543-2.576,0.937
				C19.803,22.793,22.818,24.988,26.645,25.559z"/>
		</g>
	</g>
</g>
<g id="Layer_1">
</g>
</svg>
