<?xml version="1.0" encoding="iso-8859-1"?>
<!-- Generator: Adobe Illustrator 18.0.0, SVG Export Plug-In . SVG Version: 6.00 Build 0)  -->
<!DOCTYPE svg PUBLIC "-//W3C//DTD SVG 1.1//EN" "http://www.w3.org/Graphics/SVG/1.1/DTD/svg11.dtd">
<svg version="1.1" xmlns="http://www.w3.org/2000/svg" xmlns:xlink="http://www.w3.org/1999/xlink" x="0px" y="0px"
	 viewBox="0 0 48 48" style="enable-background:new 0 0 48 48;" xml:space="preserve">
<g id="Layer_150">
	<g>
		<path style="fill:#2BB673;" d="M21.854,0.903c1.197-1.158,3.16-1.158,4.357,0l1.887,1.824c1.197,1.158,3.529,1.914,5.18,1.682
			l2.598-0.367c1.652-0.234,3.238,0.918,3.525,2.559l0.453,2.584c0.289,1.641,1.73,3.621,3.203,4.402l2.318,1.23
			c1.473,0.779,2.078,2.643,1.346,4.139l-1.152,2.357c-0.734,1.498-0.734,3.945,0,5.441l1.152,2.357
			c0.732,1.496,0.127,3.359-1.346,4.141l-2.318,1.229c-1.473,0.781-2.914,2.764-3.203,4.404l-0.453,2.584
			c-0.287,1.641-1.873,2.791-3.525,2.559l-2.598-0.367c-1.65-0.232-3.982,0.521-5.18,1.682l-1.887,1.822
			c-1.197,1.16-3.16,1.16-4.357,0l-1.887-1.822c-1.199-1.16-3.529-1.914-5.18-1.682l-2.598,0.367
			c-1.652,0.233-3.238-0.918-3.527-2.559L8.21,38.886c-0.289-1.641-1.728-3.623-3.201-4.404L2.69,33.253
			c-1.473-0.781-2.08-2.644-1.348-4.141l1.154-2.357c0.732-1.496,0.732-3.943,0-5.441l-1.154-2.357
			C0.61,17.46,1.218,15.597,2.69,14.817l2.318-1.23c1.473-0.781,2.912-2.762,3.201-4.402L8.663,6.6
			c0.289-1.641,1.875-2.793,3.527-2.559l2.598,0.367c1.65,0.232,3.98-0.523,5.18-1.682L21.854,0.903z"/>
		<g>
			
				<rect x="15.734" y="32.433" transform="matrix(-1 4.805644e-004 -4.805644e-004 -1 43.5566 67.384)" style="fill:#FFFFFF;" width="12.072" height="2.529"/>
			<polygon style="fill:#FFFFFF;" points="31.359,9.405 33.422,21.071 35.962,20.638 33.9,8.973 			"/>
			<polygon style="fill:#FFFFFF;" points="28.096,29.187 16.078,28.102 15.843,30.62 27.861,31.706 			"/>
			<polygon style="fill:#FFFFFF;" points="28.89,25.888 17.235,22.813 16.566,25.256 28.219,28.33 			"/>
			<polygon style="fill:#FFFFFF;" points="30.411,22.995 20.016,16.981 18.704,19.157 29.103,25.173 			"/>
			<polygon style="fill:#FFFFFF;" points="24.03,12.866 30.831,22.648 32.962,21.224 26.16,11.44 			"/>
			<path style="fill:#FFFFFF;" d="M29.856,36.979H14.025V26.64h-2.063v12.322h0.022c0,0.011,0.601,0.011,0.601,0.011h19.313v-0.011
				c0.02,0,0.02-0.59,0.02-0.59V26.64h-2.063V36.979z"/>
		</g>
	</g>
</g>
<g id="Layer_1">
</g>
</svg>
