<?xml version="1.0" encoding="iso-8859-1"?>
<!-- Generator: Adobe Illustrator 18.0.0, SVG Export Plug-In . SVG Version: 6.00 Build 0)  -->
<!DOCTYPE svg PUBLIC "-//W3C//DTD SVG 1.1//EN" "http://www.w3.org/Graphics/SVG/1.1/DTD/svg11.dtd">
<svg version="1.1" xmlns="http://www.w3.org/2000/svg" xmlns:xlink="http://www.w3.org/1999/xlink" x="0px" y="0px"
	 viewBox="0 0 48 48" style="enable-background:new 0 0 48 48;" xml:space="preserve">
<g id="Layer_214">
	<g>
		<path style="fill:#2DAAE1;" d="M21.855,0.905c1.197-1.16,3.16-1.16,4.357,0l1.887,1.822c1.197,1.158,3.529,1.914,5.18,1.682
			l2.598-0.367c1.652-0.232,3.238,0.918,3.525,2.559l0.453,2.584c0.289,1.641,1.73,3.623,3.203,4.404l2.318,1.229
			c1.473,0.779,2.078,2.644,1.346,4.141l-1.152,2.357c-0.734,1.496-0.734,3.943,0,5.439l1.152,2.359
			c0.732,1.496,0.127,3.359-1.346,4.139l-2.318,1.23c-1.473,0.781-2.914,2.762-3.203,4.402l-0.453,2.584
			c-0.287,1.641-1.873,2.793-3.525,2.559l-2.598-0.367c-1.65-0.232-3.982,0.523-5.18,1.682l-1.887,1.824
			c-1.197,1.158-3.16,1.158-4.357,0l-1.887-1.824c-1.199-1.158-3.529-1.914-5.18-1.682l-2.599,0.367
			c-1.653,0.234-3.239-0.918-3.527-2.559l-0.454-2.584c-0.288-1.641-1.728-3.621-3.201-4.402l-2.319-1.23
			c-1.473-0.779-2.079-2.643-1.347-4.139l1.153-2.359c0.733-1.496,0.733-3.943,0-5.439l-1.153-2.357
			c-0.732-1.496-0.126-3.361,1.347-4.141l2.319-1.229c1.473-0.781,2.913-2.764,3.201-4.404L8.663,6.6
			c0.288-1.641,1.874-2.791,3.527-2.559l2.599,0.367c1.65,0.232,3.98-0.523,5.18-1.682L21.855,0.905z"/>
		<g>
			<path style="fill:#FFFFFF;" d="M38.136,12.415c-1.189,0.695-2.508,1.2-3.91,1.472c-1.121-1.178-2.721-1.914-4.492-1.914
				c-3.398,0-6.154,2.713-6.154,6.059c0,0.475,0.055,0.936,0.158,1.38c-5.115-0.253-9.65-2.665-12.686-6.33
				c-0.529,0.894-0.834,1.935-0.834,3.046c0,2.101,1.089,3.956,2.739,5.042c-1.008-0.032-1.958-0.304-2.788-0.757
				c0,0.025,0,0.051,0,0.076c0,2.935,2.122,5.384,4.938,5.942c-0.517,0.138-1.06,0.212-1.623,0.212
				c-0.396,0-0.781-0.038-1.158-0.109c0.785,2.406,3.057,4.159,5.75,4.208c-2.107,1.625-4.76,2.594-7.645,2.594
				c-0.498,0-0.986-0.029-1.469-0.085c2.726,1.719,5.962,2.721,9.437,2.721c11.322,0,17.512-9.231,17.512-17.238
				c0-0.262-0.004-0.525-0.016-0.784c1.201-0.854,2.246-1.921,3.07-3.137c-1.103,0.483-2.289,0.807-3.535,0.954
				C36.7,15.018,37.675,13.831,38.136,12.415z"/>
		</g>
	</g>
</g>
<g id="Layer_1">
</g>
</svg>
