<?xml version="1.0" encoding="iso-8859-1"?>
<!-- Generator: Adobe Illustrator 18.0.0, SVG Export Plug-In . SVG Version: 6.00 Build 0)  -->
<!DOCTYPE svg PUBLIC "-//W3C//DTD SVG 1.1//EN" "http://www.w3.org/Graphics/SVG/1.1/DTD/svg11.dtd">
<svg version="1.1" xmlns="http://www.w3.org/2000/svg" xmlns:xlink="http://www.w3.org/1999/xlink" x="0px" y="0px"
	 viewBox="0 0 48 48" style="enable-background:new 0 0 48 48;" xml:space="preserve">
<g id="Layer_205">
	<g>
		<path style="fill:#7C0097;" d="M21.854,0.903c1.197-1.158,3.16-1.158,4.357,0l1.887,1.824c1.197,1.158,3.529,1.914,5.18,1.682
			l2.598-0.367c1.652-0.234,3.238,0.918,3.525,2.559l0.453,2.584c0.289,1.641,1.73,3.621,3.203,4.402l2.318,1.23
			c1.473,0.779,2.078,2.642,1.346,4.139l-1.152,2.357c-0.734,1.498-0.734,3.945,0,5.441l1.152,2.357
			c0.732,1.496,0.127,3.359-1.346,4.141l-2.318,1.228c-1.473,0.781-2.914,2.764-3.203,4.404l-0.453,2.584
			c-0.287,1.641-1.873,2.791-3.525,2.559l-2.598-0.367c-1.65-0.232-3.982,0.521-5.18,1.682l-1.887,1.822
			c-1.197,1.16-3.16,1.16-4.357,0l-1.887-1.822c-1.199-1.16-3.529-1.914-5.18-1.682l-2.598,0.367
			c-1.652,0.232-3.238-0.918-3.527-2.559L8.21,38.886c-0.289-1.641-1.728-3.623-3.201-4.404L2.69,33.253
			c-1.473-0.781-2.08-2.644-1.348-4.141l1.154-2.357c0.732-1.496,0.732-3.943,0-5.441l-1.154-2.357
			C0.61,17.46,1.217,15.597,2.69,14.817l2.318-1.23c1.473-0.781,2.912-2.762,3.201-4.402l0.453-2.584
			c0.289-1.641,1.875-2.793,3.527-2.559l2.598,0.367c1.65,0.232,3.98-0.523,5.18-1.682L21.854,0.903z"/>
		<g>
			<path style="fill:#FFFFFF;" d="M20.595,26.144c0.1,0.689,0.188,4.755-0.1,5.064c-0.578,0.614-3.217,0.451-3.855,0.496
				l-0.219,1.26c1.162,0.035,4.945-0.094,6.121-0.094c2.318,0,6.379-0.011,6.953,0.032l0.07-1.321
				c-0.586-0.099-3.783-0.012-4.225-0.113c-0.098-0.64-0.205-4.921-0.108-5.364c0.441-1.278,7.158-6.485,7.895-6.685
				c0.166-0.032,0.412-0.088,0.691-0.149h2.164l0.338-0.499c0.006-0.004,0.02-0.005,0.025-0.005l0.838-1.214
				c-0.012,0-0.031-0.003-0.041-0.003l0.088-0.131H25.505l0.451,1.852h3.201l-5.385,4.879c-1.1-1.523-3.676-4.697-5.473-7.323h4.031
				v-1.41l0.047-0.311c-0.012-0.003-0.035-0.006-0.047-0.006v-0.126H8.962v1.853h3.965C14.466,18.033,20.351,25.409,20.595,26.144z"
				/>
			<path style="fill:#FFFFFF;" d="M35.025,21.175l0.049,8.363l1.797,0.144l2.092-8.113C38.613,21.557,35.437,21.255,35.025,21.175z"
				/>
			<polygon style="fill:#FFFFFF;" points="36.666,32.973 36.953,31.033 35.917,30.982 34.763,30.839 34.773,32.82 35.683,32.899 			
				"/>
		</g>
	</g>
</g>
<g id="Layer_1">
</g>
</svg>
