<?xml version="1.0" encoding="iso-8859-1"?>
<!-- Generator: Adobe Illustrator 18.0.0, SVG Export Plug-In . SVG Version: 6.00 Build 0)  -->
<!DOCTYPE svg PUBLIC "-//W3C//DTD SVG 1.1//EN" "http://www.w3.org/Graphics/SVG/1.1/DTD/svg11.dtd">
<svg version="1.1" xmlns="http://www.w3.org/2000/svg" xmlns:xlink="http://www.w3.org/1999/xlink" x="0px" y="0px"
	 viewBox="0 0 48 48" style="enable-background:new 0 0 48 48;" xml:space="preserve">
<g id="Layer_196">
	<g>
		<path style="fill:#FF6600;" d="M21.854,0.903c1.197-1.158,3.16-1.158,4.357,0l1.887,1.824c1.197,1.158,3.529,1.914,5.18,1.682
			l2.598-0.367c1.652-0.234,3.238,0.918,3.525,2.559l0.453,2.584c0.289,1.641,1.73,3.621,3.203,4.402l2.318,1.23
			c1.473,0.779,2.078,2.643,1.346,4.139l-1.152,2.357c-0.734,1.498-0.734,3.945,0,5.441l1.152,2.357
			c0.732,1.496,0.127,3.359-1.346,4.141l-2.318,1.229c-1.473,0.781-2.914,2.764-3.203,4.404l-0.453,2.584
			c-0.287,1.641-1.873,2.791-3.525,2.559l-2.598-0.367c-1.65-0.232-3.982,0.521-5.18,1.682l-1.887,1.822
			c-1.197,1.16-3.16,1.16-4.357,0l-1.887-1.822c-1.199-1.16-3.529-1.914-5.18-1.682l-2.598,0.367
			c-1.652,0.232-3.238-0.918-3.527-2.559L8.21,38.886c-0.289-1.641-1.728-3.623-3.201-4.404L2.69,33.253
			c-1.473-0.781-2.08-2.644-1.348-4.141l1.154-2.357c0.732-1.496,0.732-3.943,0-5.441l-1.154-2.357
			C0.61,17.46,1.218,15.597,2.69,14.817l2.318-1.23c1.473-0.781,2.912-2.762,3.201-4.402l0.453-2.584
			c0.289-1.641,1.875-2.793,3.527-2.559l2.598,0.367c1.65,0.232,3.98-0.523,5.18-1.682L21.854,0.903z"/>
		<g>
			<path style="fill:#FFFFFF;" d="M18.469,38.973h10.926c5.231,0,9.481-4.262,9.51-9.463l0.057-7.658l-0.086-0.418l-0.255-0.521
				l-0.421-0.33c-0.553-0.432-3.351,0.027-4.103-0.654c-0.535-0.49-0.618-1.373-0.778-2.564c-0.3-2.318-0.492-2.437-0.853-3.219
				c-1.317-2.787-4.892-4.881-7.346-5.172h-6.65c-5.231,0-9.507,4.27-9.507,9.48V29.51C8.962,34.711,13.238,38.973,18.469,38.973z
				 M18.591,16.719h5.272c1.006,0,1.821,0.814,1.821,1.809c0,0.99-0.816,1.812-1.821,1.812h-5.272c-1.006,0-1.821-0.822-1.821-1.812
				C16.769,17.533,17.585,16.719,18.591,16.719z M18.591,27.566h10.712c1.002,0,1.812,0.811,1.812,1.805
				c0,0.98-0.81,1.805-1.812,1.805H18.591c-1.006,0-1.821-0.824-1.821-1.805C16.769,28.377,17.585,27.566,18.591,27.566z"/>
		</g>
	</g>
</g>
<g id="Layer_1">
</g>
</svg>
