<?xml version="1.0" encoding="iso-8859-1"?>
<!-- Generator: Adobe Illustrator 18.0.0, SVG Export Plug-In . SVG Version: 6.00 Build 0)  -->
<!DOCTYPE svg PUBLIC "-//W3C//DTD SVG 1.1//EN" "http://www.w3.org/Graphics/SVG/1.1/DTD/svg11.dtd">
<svg version="1.1" xmlns="http://www.w3.org/2000/svg" xmlns:xlink="http://www.w3.org/1999/xlink" x="0px" y="0px"
	 viewBox="0 0 48 48" style="enable-background:new 0 0 48 48;" xml:space="preserve">
<g id="Layer_167">
	<g>
		<path style="fill:#7197BF;" d="M21.854,0.905c1.197-1.16,3.16-1.16,4.357,0l1.887,1.822c1.197,1.158,3.529,1.914,5.18,1.682
			l2.598-0.367c1.652-0.232,3.238,0.918,3.525,2.559l0.453,2.584c0.289,1.641,1.73,3.623,3.203,4.404l2.318,1.228
			c1.472,0.779,2.077,2.644,1.345,4.141l-1.151,2.357c-0.734,1.496-0.734,3.943,0,5.439l1.151,2.359
			c0.732,1.496,0.127,3.359-1.345,4.139l-2.318,1.23c-1.473,0.781-2.914,2.762-3.203,4.402l-0.453,2.584
			c-0.287,1.641-1.873,2.793-3.525,2.559l-2.598-0.367c-1.65-0.232-3.982,0.523-5.18,1.682l-1.887,1.824
			c-1.197,1.158-3.16,1.158-4.357,0l-1.887-1.824c-1.199-1.158-3.529-1.914-5.18-1.682l-2.6,0.367
			c-1.652,0.234-3.238-0.918-3.525-2.559l-0.455-2.584c-0.287-1.641-1.728-3.621-3.201-4.402l-2.317-1.23
			c-1.473-0.779-2.078-2.643-1.346-4.139l1.152-2.359c0.734-1.496,0.734-3.943,0-5.439l-1.152-2.357
			c-0.732-1.496-0.127-3.361,1.346-4.141l2.317-1.228c1.473-0.781,2.914-2.764,3.201-4.404L8.663,6.6
			c0.287-1.641,1.873-2.791,3.525-2.559l2.6,0.367c1.65,0.232,3.98-0.523,5.18-1.682L21.854,0.905z"/>
		<g>
			<path style="fill:#FFFFFF;" d="M14.232,38.973h5.267v-13.64h2.637h2.635h2.633v13.64h5.27v-13.64h5.271V19.88h-5.271v-2.725
				c0-1.609,0.963-2.791,1.826-2.791h4.463V8.973h-4.463c-3.912,0-7.096,3.67-7.096,8.183v2.725h-2.633h-2.635h-2.637v-2.725
				c0-1.609,0.963-2.791,1.828-2.791h4.461V8.973h-4.461c-3.914,0-7.096,3.67-7.096,8.183v2.725h-5.27v5.452h5.27V38.973z"/>
		</g>
	</g>
</g>
<g id="Layer_1">
</g>
</svg>
