<?xml version="1.0" encoding="iso-8859-1"?>
<!-- Generator: Adobe Illustrator 18.0.0, SVG Export Plug-In . SVG Version: 6.00 Build 0)  -->
<!DOCTYPE svg PUBLIC "-//W3C//DTD SVG 1.1//EN" "http://www.w3.org/Graphics/SVG/1.1/DTD/svg11.dtd">
<svg version="1.1" xmlns="http://www.w3.org/2000/svg" xmlns:xlink="http://www.w3.org/1999/xlink" x="0px" y="0px"
	 viewBox="0 0 48 48" style="enable-background:new 0 0 48 48;" xml:space="preserve">
<g id="Layer_204">
	<g>
		<path style="fill:#2A445F;" d="M21.854,0.903c1.197-1.158,3.16-1.158,4.357,0l1.887,1.824c1.197,1.158,3.529,1.914,5.18,1.682
			l2.598-0.367c1.652-0.234,3.238,0.918,3.525,2.559l0.453,2.584c0.289,1.641,1.73,3.621,3.203,4.402l2.318,1.23
			c1.473,0.779,2.078,2.642,1.346,4.139l-1.152,2.357c-0.734,1.498-0.734,3.945,0,5.441l1.152,2.357
			c0.732,1.496,0.127,3.359-1.346,4.141l-2.318,1.228c-1.473,0.781-2.914,2.764-3.203,4.404l-0.453,2.584
			c-0.287,1.641-1.873,2.791-3.525,2.559l-2.598-0.367c-1.65-0.232-3.982,0.521-5.18,1.682l-1.887,1.822
			c-1.197,1.16-3.16,1.16-4.357,0l-1.887-1.822c-1.199-1.16-3.529-1.914-5.18-1.682l-2.598,0.367
			c-1.652,0.232-3.238-0.918-3.527-2.559L8.21,38.886c-0.289-1.641-1.728-3.623-3.201-4.404L2.69,33.253
			c-1.473-0.781-2.08-2.644-1.348-4.141l1.154-2.357c0.732-1.496,0.732-3.943,0-5.441l-1.154-2.357
			C0.61,17.46,1.217,15.597,2.69,14.817l2.318-1.23c1.473-0.781,2.912-2.762,3.201-4.402l0.453-2.584
			c0.289-1.641,1.875-2.793,3.527-2.559l2.598,0.367c1.65,0.232,3.98-0.523,5.18-1.682L21.854,0.903z"/>
		<g>
			<path style="fill:#FFFFFF;" d="M19.27,34.928c0.274,0.722,0.765,1.403,1.48,2.045c0.709,0.637,1.568,1.133,2.575,1.481
				c1.006,0.344,1.779,0.518,3.091,0.518c1.153,0,2.226-0.124,3.219-0.366c0.995-0.242,2.105-0.667,3.327-1.27v-4.729
				c-1.435,0.987-2.88,1.48-4.33,1.48c-0.817,0-1.54-0.2-2.176-0.599c-0.478-0.294-0.918-0.804-1.092-1.294
				c-0.175-0.492-0.155-1.496-0.155-3.236v-7.692h6.627v-5.356H25.21V8.973h-4.076c-0.183,1.546-0.519,2.822-1.006,3.822
				c-0.485,1.002-1.129,1.859-1.933,2.576c-0.801,0.715-2.107,1.264-3.232,1.645v4.249h3.895v10.52
				C18.857,33.157,18.993,34.205,19.27,34.928z"/>
		</g>
	</g>
</g>
<g id="Layer_1">
</g>
</svg>
