<?xml version="1.0" encoding="iso-8859-1"?>
<!-- Generator: Adobe Illustrator 18.0.0, SVG Export Plug-In . SVG Version: 6.00 Build 0)  -->
<!DOCTYPE svg PUBLIC "-//W3C//DTD SVG 1.1//EN" "http://www.w3.org/Graphics/SVG/1.1/DTD/svg11.dtd">
<svg version="1.1" xmlns="http://www.w3.org/2000/svg" xmlns:xlink="http://www.w3.org/1999/xlink" x="0px" y="0px"
	 viewBox="0 0 48 48" style="enable-background:new 0 0 48 48;" xml:space="preserve">
<g id="Layer_152">
	<g>
		<path style="fill:#669C41;" d="M21.854,0.903c1.197-1.158,3.16-1.158,4.357,0l1.887,1.824c1.197,1.158,3.529,1.914,5.18,1.682
			l2.598-0.367c1.652-0.234,3.238,0.918,3.525,2.559l0.453,2.584c0.289,1.641,1.73,3.621,3.203,4.402l2.318,1.23
			c1.473,0.779,2.078,2.643,1.346,4.139l-1.152,2.357c-0.734,1.498-0.734,3.945,0,5.441l1.152,2.357
			c0.732,1.496,0.127,3.359-1.346,4.141l-2.318,1.229c-1.473,0.781-2.914,2.764-3.203,4.404l-0.453,2.584
			c-0.287,1.641-1.873,2.791-3.525,2.559l-2.598-0.367c-1.65-0.232-3.982,0.521-5.18,1.682l-1.887,1.822
			c-1.197,1.16-3.16,1.16-4.357,0l-1.887-1.822c-1.199-1.16-3.529-1.914-5.18-1.682l-2.598,0.367
			c-1.652,0.233-3.238-0.918-3.527-2.559L8.21,38.886c-0.289-1.641-1.728-3.623-3.201-4.404L2.69,33.253
			c-1.473-0.781-2.08-2.644-1.348-4.141l1.154-2.357c0.732-1.496,0.732-3.943,0-5.441l-1.154-2.357
			C0.61,17.46,1.217,15.597,2.69,14.817l2.318-1.23c1.473-0.781,2.912-2.762,3.201-4.402L8.663,6.6
			c0.289-1.641,1.875-2.793,3.527-2.559l2.598,0.367c1.65,0.232,3.98-0.523,5.18-1.682L21.854,0.903z"/>
		<g>
			<path style="fill:#FFFFFF;" d="M37.003,19.071c-0.047-0.038-0.09-0.054-0.133-0.072v-7.505c0-0.219-0.176-0.397-0.387-0.397
				h-9.578c-0.025-0.028-0.043-0.056-0.08-0.086l-2.369-1.875c-0.273-0.217-0.719-0.217-0.992,0l-2.367,1.875
				c-0.039,0.03-0.057,0.058-0.08,0.086h-9.56c-0.211,0-0.385,0.178-0.385,0.397v7.497c-0.049,0.016-0.098,0.038-0.152,0.08
				l-1.463,1.158c-0.271,0.216-0.494,0.682-0.494,1.035V38.33c0,0.353,0.281,0.643,0.623,0.643h28.75
				c0.346,0,0.627-0.289,0.627-0.643V21.264c0-0.353-0.223-0.819-0.496-1.035L37.003,19.071z M34.808,23.812
				c0,0.219-0.152,0.482-0.34,0.584l-10.16,5.62c-0.186,0.102-0.492,0.102-0.678,0l-10.158-5.62
				c-0.186-0.102-0.338-0.365-0.338-0.584V13.198c0-0.219,0.172-0.397,0.383-0.397h20.904c0.211,0,0.387,0.178,0.387,0.397V23.812z"
				/>
			<rect x="15.435" y="16.198" style="fill:#FFFFFF;" width="6" height="6.167"/>
			<rect x="23.171" y="16.198" style="fill:#FFFFFF;" width="10.158" height="1.137"/>
			<rect x="23.171" y="18.51" style="fill:#FFFFFF;" width="10.158" height="1.136"/>
			<rect x="23.171" y="20.822" style="fill:#FFFFFF;" width="4.148" height="1.138"/>
		</g>
	</g>
</g>
<g id="Layer_1">
</g>
</svg>
