<?xml version="1.0" encoding="iso-8859-1"?>
<!-- Generator: Adobe Illustrator 18.0.0, SVG Export Plug-In . SVG Version: 6.00 Build 0)  -->
<!DOCTYPE svg PUBLIC "-//W3C//DTD SVG 1.1//EN" "http://www.w3.org/Graphics/SVG/1.1/DTD/svg11.dtd">
<svg version="1.1" xmlns="http://www.w3.org/2000/svg" xmlns:xlink="http://www.w3.org/1999/xlink" x="0px" y="0px"
	 viewBox="0 0 48 48" style="enable-background:new 0 0 48 48;" xml:space="preserve">
<g id="Layer_157">
	<g>
		<path style="fill:#D20C0C;" d="M21.853,0.903c1.197-1.158,3.16-1.158,4.357,0l1.887,1.824c1.198,1.158,3.529,1.914,5.18,1.682
			l2.598-0.367c1.652-0.234,3.238,0.918,3.526,2.559l0.453,2.584c0.289,1.641,1.729,3.621,3.202,4.402l2.318,1.23
			c1.473,0.779,2.079,2.643,1.347,4.139l-1.153,2.357c-0.733,1.498-0.733,3.945,0,5.441l1.153,2.357
			c0.732,1.496,0.126,3.359-1.347,4.141l-2.318,1.229c-1.473,0.781-2.913,2.764-3.202,4.404l-0.453,2.584
			c-0.288,1.641-1.874,2.791-3.526,2.559l-2.598-0.367c-1.65-0.232-3.981,0.521-5.18,1.682l-1.887,1.822
			c-1.197,1.16-3.16,1.16-4.357,0l-1.887-1.822c-1.198-1.16-3.529-1.914-5.18-1.682l-2.598,0.367
			c-1.652,0.233-3.238-0.918-3.526-2.559l-0.454-2.584c-0.288-1.641-1.728-3.623-3.201-4.404l-2.318-1.229
			c-1.473-0.781-2.079-2.644-1.347-4.141l1.153-2.357c0.733-1.496,0.733-3.943,0-5.441l-1.153-2.357
			c-0.732-1.496-0.126-3.359,1.347-4.139l2.318-1.23c1.473-0.781,2.913-2.762,3.201-4.402L8.663,6.6
			c0.288-1.641,1.874-2.793,3.526-2.559l2.598,0.367c1.65,0.232,3.981-0.523,5.18-1.682L21.853,0.903z"/>
		<g>
			<path style="fill:#FFFFFF;" d="M25.965,23.225c0.558,0,0.836,0.036,1.046,0.107l0.313,0.071l0.244-0.249l0.767-0.818l0.627-0.677
				l-0.906-0.249c-0.453-0.143-0.871-0.285-1.985-0.214c-1.952,0.071-3.728,1.281-4.042,2.707c-0.244,1.14,0.069,1.922,1.289,3.312
				c1.289,1.387,1.602,1.994,1.429,2.812c-0.104,0.534-0.976,1.211-1.986,1.353c-0.523,0.071-0.872,0.071-1.186,0l-0.348-0.108
				l-0.209,0.285l-0.836,1.033l-0.593,0.712l0.906,0.215c0.558,0.142,1.393,0.142,2.3-0.036c2.019-0.32,4.425-1.816,4.843-3.668
				c0.384-1.71-0.313-2.777-1.777-4.272c-1.149-1.176-1.08-1.461-1.011-1.675C24.885,23.616,25.338,23.261,25.965,23.225z"/>
			<polygon style="fill:#FFFFFF;" points="37.324,20.519 35.688,20.804 35.513,20.804 35.373,20.946 33.353,23.189 35.653,12.114 
				32.726,11.973 28.579,31.557 28.405,32.377 29.206,32.27 30.983,31.985 31.367,31.949 31.472,31.557 32.099,28.709 
				32.794,31.237 32.934,31.735 33.421,31.664 35.269,31.38 35.931,31.308 34.189,25.505 38.962,20.234 			"/>
			<path style="fill:#FFFFFF;" d="M18.683,16.138l-1.916,0.32L8.962,35.973l1.011-0.213l1.637-0.285l0.314-0.072l0.104-0.284
				l1.254-3.275l2.438-0.356v2.564l-0.034,0.676l0.661-0.107l1.917-0.32l0.488-0.071l-0.035-0.499L18.683,16.138z M15.652,28.887
				L14.048,29.1l1.986-5.983L15.652,28.887z"/>
		</g>
	</g>
</g>
<g id="Layer_1">
</g>
</svg>
