<?xml version="1.0" encoding="iso-8859-1"?>
<!-- Generator: Adobe Illustrator 18.0.0, SVG Export Plug-In . SVG Version: 6.00 Build 0)  -->
<!DOCTYPE svg PUBLIC "-//W3C//DTD SVG 1.1//EN" "http://www.w3.org/Graphics/SVG/1.1/DTD/svg11.dtd">
<svg version="1.1" xmlns="http://www.w3.org/2000/svg" xmlns:xlink="http://www.w3.org/1999/xlink" x="0px" y="0px"
	 viewBox="0 0 48 48" style="enable-background:new 0 0 48 48;" xml:space="preserve">
<g id="nyt_x5F_exporter_x5F_info" style="display:none;">
</g>
<g>
</g>
<g>
</g>
<g>
</g>
<g>
</g>
<g>
</g>
<g>
</g>
<g>
</g>
<g>
</g>
<g>
</g>
<g>
</g>
<g>
</g>
<g>
</g>
<g>
</g>
<g>
</g>
<g>
</g>
<g>
</g>
<g>
</g>
<g>
</g>
<g>
</g>
<g>
</g>
<g>
</g>
<g>
</g>
<g>
</g>
<g>
</g>
<g>
</g>
<g>
</g>
<g>
</g>
<g>
</g>
<g>
</g>
<g>
</g>
<g>
</g>
<g>
</g>
<g>
</g>
<g>
</g>
<g>
</g>
<g>
</g>
<g>
</g>
<g>
</g>
<g>
</g>
<g>
</g>
<g>
</g>
<g>
</g>
<g>
</g>
<g>
</g>
<g>
</g>
<g>
</g>
<g>
</g>
<g>
</g>
<g>
</g>
<g>
</g>
<g>
</g>
<g>
</g>
<g>
</g>
<g>
</g>
<g>
</g>
<g>
</g>
<g>
</g>
<g>
</g>
<g>
</g>
<g>
</g>
<g>
</g>
<g>
</g>
<g>
</g>
<g>
</g>
<g>
</g>
<g>
</g>
<g>
</g>
<g>
</g>
<g>
</g>
<g>
</g>
<g>
</g>
<g>
</g>
<g>
</g>
<g>
</g>
<g>
</g>
<g>
</g>
<g>
</g>
<g>
	<g>
		<path style="fill:#62A14A;" d="M21.821,0.868c1.197-1.158,3.16-1.158,4.357,0l1.887,1.824c1.198,1.158,3.529,1.914,5.18,1.682
			l2.598-0.367c1.652-0.234,3.238,0.918,3.526,2.559l0.453,2.584c0.289,1.641,1.729,3.621,3.202,4.402l2.318,1.23
			c1.473,0.779,2.079,2.643,1.347,4.139l-1.153,2.357c-0.733,1.498-0.733,3.945,0,5.441l1.153,2.357
			c0.732,1.496,0.126,3.359-1.347,4.141l-2.318,1.229c-1.473,0.781-2.913,2.764-3.202,4.404l-0.453,2.584
			c-0.288,1.641-1.874,2.791-3.526,2.559l-2.598-0.367c-1.65-0.232-3.981,0.522-5.18,1.682l-1.887,1.822
			c-1.197,1.16-3.16,1.16-4.357,0l-1.887-1.822c-1.198-1.16-3.529-1.914-5.18-1.682l-2.598,0.367
			c-1.652,0.232-3.238-0.918-3.526-2.559l-0.454-2.584c-0.288-1.641-1.729-3.623-3.201-4.404l-2.318-1.229
			c-1.473-0.781-2.079-2.644-1.347-4.141l1.153-2.357c0.733-1.496,0.733-3.943,0-5.441l-1.153-2.357
			c-0.732-1.496-0.126-3.359,1.347-4.139l2.318-1.23c1.473-0.781,2.913-2.762,3.201-4.402l0.454-2.584
			c0.288-1.641,1.874-2.793,3.526-2.559l2.598,0.367c1.65,0.232,3.981-0.523,5.18-1.682L21.821,0.868z"/>
		<path id="Bird_10_" style="fill:#FFFFFF;" d="M24,14.999c-4,0-7.001,1.002-10.001,4.002H9c0,0,0.001,1.501,2.001,2.001
			C10.105,22.233,9,24.362,9,26.001c0,4.125,2.875,7,7,7c2.34,0,4.63-1.315,5.999-3.001L24,33l2.001-3.001
			C27.37,31.685,29.66,33,32,33c4.124,0,7-2.875,7-7c0-1.639-1.105-3.767-2.001-4.999c2-0.5,2.001-2.001,2.001-2.001h-4.999
			C31.001,16.001,28,14.999,24,14.999z M24,16c5,0,8,3.001,8,3.001c-4,0-8,5.001-8,10.001c0-5-4-10.001-8-10.001
			C16,19.001,19,16,24,16L24,16z M16,21.002c2.761,0,4.999,2.238,4.999,4.999C20.999,28.763,18.761,31,16,31
			s-4.999-2.237-4.999-4.999C11.001,23.239,13.239,21.002,16,21.002z M32,21.002c2.762,0,4.999,2.238,4.999,4.999
			C36.999,28.763,34.762,31,32,31c-2.762,0-4.999-2.237-4.999-4.999C27.001,23.239,29.238,21.002,32,21.002z M16,22.999
			c-1.657,0-3.001,1.344-3.001,3.001c0,1.658,1.344,3.001,3.001,3.001c1.657,0,3.001-1.343,3.001-3.001
			C19.001,24.344,17.657,22.999,16,22.999z M32,22.999c-1.656,0-3.001,1.345-3.001,3.001c0,1.658,1.345,3.001,3.001,3.001
			c1.656,0,3.001-1.343,3.001-3.001C35.001,24.345,33.656,22.999,32,22.999L32,22.999z M16,24c1.104,0,2.001,0.897,2.001,2.001
			c0,1.105-0.897,2.001-2.001,2.001c-1.104,0-2.001-0.896-2.001-2.001C13.999,24.897,14.896,24,16,24z M32,24
			c1.104,0,2.001,0.897,2.001,2.001c0,1.105-0.897,2.001-2.001,2.001c-1.104,0-2.001-0.896-2.001-2.001
			C29.999,24.897,30.896,24,32,24z M16,25c-0.552,0-1,0.448-1,1c0,0.552,0.448,1,1,1c0.552,0,1-0.448,1-1C17,25.448,16.552,25,16,25
			z M32,25c-0.552,0-1,0.448-1,1c0,0.552,0.448,1,1,1c0.552,0,1-0.448,1-1C33.001,25.448,32.552,25,32,25z"/>
	</g>
</g>
<g>
</g>
<g>
</g>
<g>
</g>
<g>
</g>
<g>
</g>
<g>
</g>
<g>
</g>
<g>
</g>
<g>
</g>
<g>
</g>
<g>
</g>
<g>
</g>
</svg>
