<?xml version="1.0" encoding="iso-8859-1"?>
<!-- Generator: Adobe Illustrator 18.0.0, SVG Export Plug-In . SVG Version: 6.00 Build 0)  -->
<!DOCTYPE svg PUBLIC "-//W3C//DTD SVG 1.1//EN" "http://www.w3.org/Graphics/SVG/1.1/DTD/svg11.dtd">
<svg version="1.1" xmlns="http://www.w3.org/2000/svg" xmlns:xlink="http://www.w3.org/1999/xlink" x="0px" y="0px"
	 viewBox="0 0 48 48" style="enable-background:new 0 0 48 48;" xml:space="preserve">
<g id="Layer_173">
	<g>
		<path style="fill:#343434;" d="M21.854,0.905c1.197-1.16,3.16-1.16,4.357,0l1.887,1.822c1.197,1.158,3.529,1.914,5.18,1.682
			l2.598-0.367c1.652-0.232,3.238,0.918,3.525,2.559l0.453,2.584c0.289,1.641,1.73,3.623,3.203,4.404l2.318,1.228
			c1.473,0.779,2.078,2.644,1.346,4.141l-1.152,2.357c-0.734,1.496-0.734,3.943,0,5.439l1.152,2.359
			c0.732,1.496,0.127,3.359-1.346,4.139l-2.318,1.23c-1.473,0.781-2.914,2.762-3.203,4.402l-0.453,2.584
			c-0.287,1.641-1.873,2.793-3.525,2.559l-2.598-0.367c-1.65-0.232-3.982,0.523-5.18,1.682l-1.887,1.824
			c-1.197,1.158-3.16,1.158-4.357,0l-1.887-1.824c-1.199-1.158-3.529-1.914-5.18-1.682l-2.598,0.367
			c-1.652,0.234-3.238-0.918-3.527-2.559L8.21,38.885c-0.289-1.641-1.728-3.621-3.201-4.402l-2.318-1.23
			c-1.473-0.779-2.08-2.643-1.348-4.139l1.154-2.359c0.732-1.496,0.732-3.943,0-5.439l-1.154-2.357
			c-0.732-1.496-0.125-3.361,1.348-4.141l2.318-1.228c1.473-0.781,2.912-2.764,3.201-4.404L8.663,6.6
			c0.289-1.641,1.875-2.791,3.527-2.559l2.598,0.367c1.65,0.232,3.98-0.523,5.18-1.682L21.854,0.905z"/>
		<g>
			<path style="fill:#FFFFFF;" d="M9.371,16.258c0.711,0.042,1.187,0.16,1.41,0.36c0.223,0.199,0.465,0.707,0.777,1.495
				c1.697,4.289,5.303,11.941,7.057,16.299c0.504,1.188,1.141,1.374,1.912-0.037c0.793-1.549,2.391-4.986,3.557-7.524
				c1.094,2.532,2.578,5.955,3.297,7.507c0.57,1.241,1.221,1.364,1.883,0.037c1.725-4.041,6.773-16.206,6.773-16.206
				c0.217-0.598,0.521-1.057,0.914-1.392c0.389-0.33,0.969-0.516,1.783-0.554c0.164,0,0.229-0.079,0.229-0.232v-0.571l-0.021-0.073
				c0,0-4.656,0-6.201,0l-0.443,0.073v0.571c0,0.067,0.211,0.123,0.27,0.164c0.055,0.047,0.207,0.071,0.271,0.071l0.562,0.026
				c0.635,0.028,0.83,0.161,1.078,0.385c0.244,0.231,0.283,0.625,0.094,1.177l-5.48,13.713l-0.211-0.061l-3.482-7.505
				c0.051-0.113,0.08-0.176,0.08-0.176l2.852-5.615c0.332-0.592,0.652-1.122,0.816-1.368c0.297-0.451,0.443-0.535,1.254-0.575
				c0.164,0,0.228-0.078,0.228-0.236v-0.568l-0.041-0.061c0,0-3.408-0.012-4.961,0l0.002,0.06v0.568
				c0,0.068-0.039,0.124,0.016,0.166c0.059,0.047,0.082,0.069,0.147,0.069l0.232,0.028c0.635,0.028,0.918,0.202,1.004,0.313
				c0.152,0.196,0.223,0.406-0.142,1.248l-2.197,4.607l-1.982-4.273c-0.65-1.366-0.812-1.788,0.168-1.867l0.264-0.059
				c0.191,0,0.158-0.071,0.158-0.207v-0.596l-0.018-0.05c0,0-3.635,0-5.293,0.002l-0.021,0.058v0.598
				c0,0.134,0.139,0.169,0.394,0.205c0.918,0.127,0.904,0.228,1.811,2.123c0.137,0.285,0.535,1.142,0.535,1.142l2.068,4.276
				c0,0,0.234,0.549,0.602,1.402l-3.004,6.314l-0.17-0.047c0,0-4.664-10.355-6.016-13.82c-0.143-0.356-0.203-0.624-0.203-0.789
				c0-0.352,0.301-0.543,0.904-0.568l0.916-0.032c0.189,0,0.496-0.075,0.496-0.232v-0.569l-0.275-0.058c0,0-5.715-0.006-6.869,0
				l-0.189,0.058v0.6C8.962,16.162,9.113,16.23,9.371,16.258z"/>
		</g>
	</g>
</g>
<g id="Layer_1">
</g>
</svg>
