<?xml version="1.0" encoding="iso-8859-1"?>
<!-- Generator: Adobe Illustrator 18.0.0, SVG Export Plug-In . SVG Version: 6.00 Build 0)  -->
<!DOCTYPE svg PUBLIC "-//W3C//DTD SVG 1.1//EN" "http://www.w3.org/Graphics/SVG/1.1/DTD/svg11.dtd">
<svg version="1.1" xmlns="http://www.w3.org/2000/svg" xmlns:xlink="http://www.w3.org/1999/xlink" x="0px" y="0px"
	 viewBox="0 0 48 48" style="enable-background:new 0 0 48 48;" xml:space="preserve">
<g id="Layer_182">
	<g>
		<path style="fill:#004B86;" d="M21.853,0.903c1.197-1.158,3.16-1.158,4.357,0l1.887,1.824c1.199,1.158,3.529,1.914,5.18,1.682
			l2.598-0.367c1.652-0.234,3.238,0.918,3.527,2.559l0.453,2.584c0.289,1.641,1.729,3.621,3.201,4.402l2.318,1.23
			c1.473,0.779,2.08,2.643,1.348,4.139l-1.154,2.357c-0.732,1.498-0.732,3.945,0,5.441l1.154,2.357
			c0.732,1.496,0.125,3.359-1.348,4.141l-2.318,1.229c-1.473,0.781-2.912,2.764-3.201,4.404l-0.453,2.584
			c-0.289,1.641-1.875,2.791-3.527,2.559l-2.598-0.367c-1.65-0.232-3.98,0.521-5.18,1.682l-1.887,1.822
			c-1.197,1.16-3.16,1.16-4.357,0l-1.887-1.822c-1.197-1.16-3.529-1.914-5.18-1.682l-2.598,0.367
			c-1.652,0.232-3.238-0.918-3.525-2.559l-0.455-2.584c-0.287-1.641-1.729-3.623-3.201-4.404l-2.318-1.229
			c-1.473-0.781-2.078-2.644-1.346-4.141l1.152-2.357c0.734-1.496,0.734-3.943,0-5.441l-1.152-2.357
			c-0.732-1.496-0.127-3.359,1.346-4.139l2.318-1.23c1.473-0.781,2.914-2.762,3.201-4.402l0.455-2.584
			c0.287-1.641,1.873-2.793,3.525-2.559l2.598,0.367c1.65,0.232,3.982-0.523,5.18-1.682L21.853,0.903z"/>
		<g>
			<path style="fill:#FFFFFF;" d="M33.492,29.847c-1.121-0.342-2.339,0.441-2.725,1.748c-0.386,1.305,0.209,2.641,1.33,2.979
				c1.121,0.342,2.341-0.443,2.725-1.748C35.208,31.519,34.614,30.185,33.492,29.847z"/>
			<path style="fill:#FFFFFF;" d="M35.795,26.3c-1.204-1.063-2.351-1.117-4.636-1.748c-0.973-2.666,1.314-3.586,1.324-5.908
				c0.008-2.059-1.753-3.605-2.915-4.297c-1.32-0.789-3.105-0.787-4.238-1.613c-0.793-0.576-0.863-1.689-1.193-2.685
				c-0.729,4.004,2.662,3.633,4.505,5.103c0.755,0.601,1.619,1.582,1.59,2.82c-0.023,0.865-0.604,1.396-1.06,2.014
				c-0.473,0.639-0.826,1.324-1.326,1.613c-0.625-3.23-2.725-5.387-5.034-6.717c-0.959-0.551-2.175-0.773-3.046-1.477
				c-1.295-1.045-1.652-2.57-1.988-4.434c-0.239,3.568,0.809,5.271,2.384,6.717c2.113,1.935,5.512,2.543,4.505,6.984
				c-1.334-0.1-2.293-0.447-3.181-0.807c-0.774-0.316-1.816-0.637-2.517-1.476c-1.552-1.863-1.177-5.437-2.912-6.717
				c-1.293-0.949-4.738-0.754-6.095,0.404c1.955-0.379,3.88-0.354,5.036,0.67c1.521,1.35,1.34,5.06,2.384,7.119
				c0.596,1.176,1.882,2.406,2.781,3.09c0.753,0.568,1.828,0.795,2.517,1.744c-1.187-0.023-2.059,0.375-3.312,0.539
				c-1.094,0.145-2.692,0.428-3.577-0.135c-1.793-1.146-0.149-5.262-1.193-7.389c-0.484-0.994-1.403-1.24-2.515-1.475
				c2.615,1.201,0.73,4.775,0.795,7.387c0.071,2.844,1.739,4.555,3.972,4.834c2.438,0.303,4.96-1,6.889-0.268
				c1.104,0.416,0.753,1.662,1.06,3.357c0.49,2.705,2.534,5.057,5.3,5.373C37.051,39.716,40.506,30.443,35.795,26.3z M36.451,33.379
				c-0.903,3.061-3.762,4.896-6.387,4.098c-2.625-0.795-4.022-3.922-3.117-6.982c0.901-3.057,3.762-4.891,6.387-4.096
				C35.959,27.193,37.354,30.32,36.451,33.379z"/>
		</g>
	</g>
</g>
<g id="Layer_1">
</g>
</svg>
