<?xml version="1.0" encoding="iso-8859-1"?>
<!-- Generator: Adobe Illustrator 18.0.0, SVG Export Plug-In . SVG Version: 6.00 Build 0)  -->
<!DOCTYPE svg PUBLIC "-//W3C//DTD SVG 1.1//EN" "http://www.w3.org/Graphics/SVG/1.1/DTD/svg11.dtd">
<svg version="1.1" xmlns="http://www.w3.org/2000/svg" xmlns:xlink="http://www.w3.org/1999/xlink" x="0px" y="0px"
	 viewBox="0 0 48 48" style="enable-background:new 0 0 48 48;" xml:space="preserve">
<g id="nyt_x5F_exporter_x5F_info" style="display:none;">
</g>
<g>
</g>
<g>
</g>
<g>
</g>
<g>
</g>
<g>
</g>
<g>
</g>
<g>
</g>
<g>
</g>
<g>
</g>
<g>
</g>
<g>
</g>
<g>
</g>
<g>
</g>
<g>
</g>
<g>
</g>
<g>
</g>
<g>
</g>
<g>
</g>
<g>
</g>
<g>
</g>
<g>
</g>
<g>
</g>
<g>
</g>
<g>
</g>
<g>
</g>
<g>
</g>
<g>
</g>
<g>
</g>
<g>
</g>
<g>
</g>
<g>
</g>
<g>
</g>
<g>
</g>
<g>
</g>
<g>
</g>
<g>
</g>
<g>
</g>
<g>
</g>
<g>
</g>
<g>
</g>
<g>
</g>
<g>
</g>
<g>
</g>
<g>
</g>
<g>
</g>
<g>
</g>
<g>
</g>
<g>
</g>
<g>
</g>
<g>
</g>
<g>
</g>
<g>
</g>
<g>
</g>
<g>
</g>
<g>
</g>
<g>
</g>
<g>
</g>
<g>
</g>
<g>
</g>
<g>
</g>
<g>
</g>
<g>
</g>
<g>
</g>
<g>
</g>
<g>
</g>
<g>
</g>
<g>
</g>
<g>
</g>
<g>
</g>
<g>
</g>
<g>
</g>
<g>
</g>
<g>
</g>
<g>
</g>
<g>
</g>
<g>
</g>
<g>
</g>
<g>
</g>
<g>
</g>
<g>
</g>
<g>
</g>
<g>
</g>
<g>
</g>
<g>
</g>
<g>
</g>
<g>
</g>
<g>
</g>
<g>
	<g>
		<path style="fill:#82BF00;" d="M21.821,0.868c1.197-1.158,3.16-1.158,4.357,0l1.887,1.824c1.199,1.158,3.529,1.914,5.18,1.682
			l2.598-0.367c1.652-0.234,3.238,0.918,3.527,2.559l0.453,2.584c0.289,1.641,1.729,3.621,3.201,4.402l2.318,1.23
			c1.473,0.779,2.08,2.643,1.348,4.139l-1.154,2.357c-0.732,1.498-0.732,3.945,0,5.441l1.154,2.357
			c0.732,1.496,0.125,3.359-1.348,4.141l-2.318,1.229c-1.473,0.781-2.912,2.764-3.201,4.404l-0.453,2.584
			c-0.289,1.641-1.875,2.791-3.527,2.559l-2.598-0.367c-1.65-0.232-3.981,0.522-5.18,1.682l-1.887,1.822
			c-1.197,1.16-3.16,1.16-4.357,0l-1.887-1.822c-1.197-1.16-3.529-1.914-5.18-1.682l-2.598,0.367
			c-1.652,0.232-3.238-0.918-3.525-2.559l-0.455-2.584c-0.287-1.641-1.729-3.623-3.201-4.404l-2.318-1.229
			c-1.473-0.781-2.078-2.644-1.346-4.141l1.152-2.357c0.734-1.496,0.734-3.943,0-5.441l-1.152-2.357
			c-0.732-1.496-0.127-3.359,1.346-4.139l2.318-1.23c1.473-0.781,2.914-2.762,3.201-4.402l0.455-2.584
			c0.287-1.641,1.873-2.793,3.525-2.559l2.598,0.367c1.65,0.232,3.982-0.523,5.18-1.682L21.821,0.868z"/>
		<path id="path3797_9_" style="fill:#FFFFFF;" d="M24.304,9.002c-1.666-0.026-3.354,0.216-4.914,0.728
			c-1.363,0.447-2.546,0.931-2.632,1.075c-0.087,0.143,0.824,0.529,2.029,0.862c1.205,0.333,2.818,0.991,3.587,1.455
			c1.753,1.059,1.684,1.055,3.06,0.19c1.568-0.985,5.474-2.204,6.373-1.981c0.403,0.1-0.268-0.314-1.492-0.929
			C28.545,9.512,26.446,9.035,24.304,9.002z M33.759,12.438l-1.283,0.705c-0.71,0.388-2.086,1.449-3.049,2.351l-1.744,1.634
			l1.952,2.485c4.041,5.128,6.267,9.525,6.307,12.436l0.022,1.388l1.02-1.556c1.573-2.399,2.136-4.856,1.996-8.664
			c-0.104-2.839-0.273-3.621-1.24-5.619c-0.617-1.275-1.759-2.957-2.545-3.739L33.759,12.438z M14.586,12.662
			c-0.274-0.01-0.513,0.115-0.91,0.381c-1.101,0.736-3.124,3.875-3.982,6.179c-1.385,3.72-0.633,9.448,1.689,12.929
			c0.915,1.372,1.12,1.514,0.823,0.56c-0.588-1.891,2.447-8.119,6.395-13.108l1.974-2.474l-1.843-1.679
			c-1.009-0.922-2.366-1.971-3.016-2.328C15.168,12.82,14.86,12.672,14.586,12.662z M23.997,20.464l-2.479,2.194
			c-4.418,3.89-8.457,9.156-8.457,11.037c0,1.405,3.974,4.007,7.535,4.936c3.794,0.99,9.119-0.073,12.372-2.463
			c2.698-1.981,2.779-2.676,0.746-5.809c-1.253-1.931-6.848-7.856-8.599-9.1L23.997,20.464z"/>
	</g>
</g>
<g>
</g>
<g>
</g>
</svg>
