<?xml version="1.0" encoding="iso-8859-1"?>
<!-- Generator: Adobe Illustrator 18.0.0, SVG Export Plug-In . SVG Version: 6.00 Build 0)  -->
<!DOCTYPE svg PUBLIC "-//W3C//DTD SVG 1.1//EN" "http://www.w3.org/Graphics/SVG/1.1/DTD/svg11.dtd">
<svg version="1.1" xmlns="http://www.w3.org/2000/svg" xmlns:xlink="http://www.w3.org/1999/xlink" x="0px" y="0px"
	 viewBox="0 0 48 48" style="enable-background:new 0 0 48 48;" xml:space="preserve">
<g id="nyt_x5F_exporter_x5F_info" style="display:none;">
</g>
<g>
</g>
<g>
</g>
<g>
</g>
<g>
</g>
<g>
</g>
<g>
</g>
<g>
</g>
<g>
</g>
<g>
</g>
<g>
</g>
<g>
</g>
<g>
</g>
<g>
</g>
<g>
</g>
<g>
</g>
<g>
</g>
<g>
</g>
<g>
</g>
<g>
</g>
<g>
</g>
<g>
</g>
<g>
</g>
<g>
</g>
<g>
</g>
<g>
</g>
<g>
</g>
<g>
</g>
<g>
</g>
<g>
</g>
<g>
</g>
<g>
</g>
<g>
</g>
<g>
</g>
<g>
</g>
<g>
</g>
<g>
</g>
<g>
</g>
<g>
</g>
<g>
</g>
<g>
</g>
<g>
</g>
<g>
</g>
<g>
</g>
<g>
</g>
<g>
</g>
<g>
</g>
<g>
</g>
<g>
</g>
<g>
</g>
<g>
</g>
<g>
</g>
<g>
</g>
<g>
</g>
<g>
</g>
<g>
</g>
<g>
</g>
<g>
</g>
<g>
</g>
<g>
</g>
<g>
</g>
<g>
</g>
<g>
</g>
<g>
</g>
<g>
</g>
<g>
</g>
<g>
</g>
<g>
</g>
<g>
</g>
<g>
</g>
<g>
</g>
<g>
</g>
<g>
</g>
<g>
</g>
<g>
</g>
<g>
</g>
<g>
</g>
<g>
</g>
<g>
</g>
<g>
</g>
<g>
</g>
<g>
</g>
<g>
	<g>
		<path style="fill:#EB4755;" d="M21.82,0.868c1.197-1.158,3.16-1.158,4.358,0l1.887,1.824c1.199,1.158,3.529,1.914,5.18,1.682
			l2.598-0.367c1.652-0.234,3.238,0.918,3.527,2.559l0.453,2.584c0.289,1.641,1.728,3.621,3.201,4.402l2.318,1.23
			c1.473,0.779,2.08,2.643,1.348,4.139l-1.154,2.357c-0.732,1.498-0.732,3.945,0,5.441l1.154,2.357
			c0.732,1.496,0.125,3.359-1.348,4.141l-2.318,1.229c-1.473,0.781-2.912,2.764-3.201,4.404l-0.453,2.584
			c-0.289,1.641-1.875,2.791-3.527,2.559l-2.598-0.367c-1.65-0.232-3.98,0.522-5.18,1.682l-1.887,1.822
			c-1.197,1.16-3.16,1.16-4.358,0l-1.887-1.822c-1.197-1.16-3.529-1.914-5.18-1.682l-2.598,0.367
			c-1.652,0.232-3.238-0.918-3.525-2.559l-0.455-2.584c-0.287-1.641-1.729-3.623-3.201-4.404l-2.318-1.229
			c-1.473-0.781-2.078-2.644-1.346-4.141l1.152-2.357c0.734-1.496,0.734-3.943,0-5.441l-1.152-2.357
			c-0.732-1.496-0.127-3.359,1.346-4.139l2.318-1.23c1.473-0.781,2.914-2.762,3.201-4.402l0.455-2.584
			c0.287-1.641,1.873-2.793,3.525-2.559l2.598,0.367c1.65,0.232,3.983-0.523,5.18-1.682L21.82,0.868z"/>
		<path id="path9-6_9_" style="fill:#FFFFFF;" d="M35.063,11.786H12.937C10.763,11.786,9,13.572,9,15.774v11.048
			c0,0.205,0.015,0.406,0.045,0.603C9.015,27.72,9,28.017,9,28.318c0,6.333,6.715,11.469,15,11.469c8.284,0,15-5.136,15-11.469
			c0-0.301-0.016-0.598-0.045-0.892C38.984,27.229,39,27.027,39,26.822V15.774C39,13.572,37.235,11.786,35.063,11.786L35.063,11.786
			z M33.198,22.893l-7.748,7.787c-0.393,0.396-0.911,0.59-1.427,0.586c-0.532,0.018-1.07-0.177-1.477-0.586l-7.746-7.787
			c-0.778-0.782-0.776-2.05,0-2.831c0.777-0.782,2.037-0.783,2.816,0L24,26.477l6.382-6.415c0.776-0.782,2.04-0.78,2.816,0
			C33.977,20.844,33.977,22.11,33.198,22.893L33.198,22.893z"/>
	</g>
</g>
<g>
</g>
<g>
</g>
<g>
</g>
<g>
</g>
<g>
</g>
<g>
</g>
<g>
</g>
<g>
</g>
</svg>
