<?xml version="1.0" encoding="iso-8859-1"?>
<!-- Generator: Adobe Illustrator 18.0.0, SVG Export Plug-In . SVG Version: 6.00 Build 0)  -->
<!DOCTYPE svg PUBLIC "-//W3C//DTD SVG 1.1//EN" "http://www.w3.org/Graphics/SVG/1.1/DTD/svg11.dtd">
<svg version="1.1" xmlns="http://www.w3.org/2000/svg" xmlns:xlink="http://www.w3.org/1999/xlink" x="0px" y="0px"
	 viewBox="0 0 48 48" style="enable-background:new 0 0 48 48;" xml:space="preserve">
<g id="nyt_x5F_exporter_x5F_info" style="display:none;">
</g>
<g>
</g>
<g>
</g>
<g>
</g>
<g>
</g>
<g>
</g>
<g>
</g>
<g>
</g>
<g>
</g>
<g>
</g>
<g>
</g>
<g>
</g>
<g>
</g>
<g>
</g>
<g>
</g>
<g>
</g>
<g>
</g>
<g>
</g>
<g>
</g>
<g>
</g>
<g>
</g>
<g>
</g>
<g>
</g>
<g>
</g>
<g>
</g>
<g>
</g>
<g>
</g>
<g>
</g>
<g>
</g>
<g>
</g>
<g>
</g>
<g>
</g>
<g>
</g>
<g>
</g>
<g>
</g>
<g>
</g>
<g>
</g>
<g>
</g>
<g>
</g>
<g>
</g>
<g>
</g>
<g>
</g>
<g>
</g>
<g>
</g>
<g>
</g>
<g>
</g>
<g>
</g>
<g>
</g>
<g>
</g>
<g>
</g>
<g>
</g>
<g>
</g>
<g>
</g>
<g>
</g>
<g>
</g>
<g>
</g>
<g>
</g>
<g>
</g>
<g>
</g>
<g>
</g>
<g>
</g>
<g>
</g>
<g>
</g>
<g>
</g>
<g>
</g>
<g>
</g>
<g>
</g>
<g>
</g>
<g>
</g>
<g>
</g>
<g>
</g>
<g>
</g>
<g>
</g>
<g>
</g>
<g>
</g>
<g>
</g>
<g>
</g>
<g>
</g>
<g>
</g>
<g>
</g>
<g>
</g>
<g>
</g>
<g>
</g>
<g>
</g>
<g>
	<g>
		<path style="fill:#3E5EA1;" d="M21.822,0.868c1.197-1.158,3.16-1.158,4.357,0l1.887,1.824c1.197,1.158,3.529,1.914,5.18,1.682
			l2.597-0.367c1.652-0.234,3.238,0.918,3.525,2.559l0.453,2.584c0.289,1.641,1.73,3.621,3.203,4.402l2.318,1.23
			c1.473,0.779,2.078,2.643,1.346,4.139l-1.152,2.357c-0.734,1.498-0.734,3.945,0,5.441l1.152,2.357
			c0.732,1.496,0.127,3.359-1.346,4.141l-2.318,1.229c-1.473,0.781-2.914,2.764-3.203,4.404l-0.453,2.584
			c-0.287,1.641-1.873,2.791-3.525,2.559l-2.597-0.367c-1.65-0.232-3.982,0.522-5.18,1.682l-1.887,1.822
			c-1.197,1.16-3.16,1.16-4.357,0l-1.887-1.822c-1.199-1.16-3.529-1.914-5.18-1.682l-2.597,0.367
			c-1.652,0.232-3.238-0.918-3.527-2.559l-0.453-2.584c-0.289-1.641-1.728-3.623-3.201-4.404l-2.318-1.229
			c-1.473-0.781-2.08-2.644-1.348-4.141l1.154-2.357c0.732-1.496,0.732-3.943,0-5.441l-1.154-2.357
			c-0.733-1.496-0.125-3.359,1.348-4.139l2.318-1.23c1.473-0.781,2.912-2.762,3.201-4.402l0.453-2.584
			c0.289-1.641,1.875-2.793,3.527-2.559l2.597,0.367c1.65,0.232,3.981-0.523,5.18-1.682L21.822,0.868z"/>
		<path id="Photobucket_9_" style="fill:#FFFFFF;" d="M37.636,14.375h-8.361C27.713,13.5,25.915,13,24,13
			c-1.915,0-3.713,0.5-5.276,1.375h-2.906c0-0.756-0.614-1.375-1.364-1.375h-2.728c-0.749,0-1.363,0.618-1.363,1.375l0,0
			C9.614,14.375,9,14.994,9,15.749V32.25c0,0.755,0.614,1.375,1.364,1.375h8.36C20.287,34.499,22.085,35,24,35
			c1.915,0,3.713-0.501,5.276-1.375h8.361c0.75,0,1.364-0.619,1.364-1.375v-16.5C39,14.994,38.386,14.375,37.636,14.375
			L37.636,14.375z M10.364,32.25V15.749h1.363h2.728h2.347c-2.269,2.016-3.71,4.96-3.71,8.25c0,3.29,1.441,6.235,3.71,8.25H10.364z
			 M28.898,32.25c-0.703,0.425-1.465,0.763-2.269,0.996c-0.048,0.014-0.096,0.024-0.143,0.038c-0.326,0.09-0.661,0.159-1.001,0.212
			c-0.093,0.016-0.186,0.032-0.281,0.044c-0.394,0.051-0.795,0.085-1.203,0.085c-0.409,0-0.81-0.034-1.204-0.085
			c-0.094-0.012-0.188-0.028-0.281-0.044c-0.34-0.053-0.675-0.122-1.001-0.212c-0.047-0.014-0.095-0.024-0.143-0.038
			c-0.804-0.233-1.566-0.571-2.269-0.996c-2.78-1.682-4.647-4.743-4.647-8.25c0-3.507,1.867-6.569,4.648-8.25
			c0.703-0.425,1.465-0.763,2.269-0.996c0.048-0.014,0.096-0.024,0.143-0.038c0.326-0.089,0.66-0.159,1-0.212
			c0.094-0.016,0.189-0.032,0.284-0.044c0.394-0.051,0.795-0.085,1.202-0.085c0.407,0,0.809,0.034,1.202,0.085
			c0.095,0.012,0.189,0.028,0.284,0.044c0.34,0.054,0.674,0.123,1,0.212c0.047,0.013,0.094,0.024,0.143,0.038
			c0.804,0.233,1.566,0.571,2.269,0.996c2.78,1.682,4.648,4.743,4.648,8.25C33.546,27.507,31.678,30.568,28.898,32.25L28.898,32.25z
			 M37.636,32.25h-6.437c2.269-2.016,3.71-4.961,3.71-8.25c0-3.29-1.441-6.235-3.71-8.25h6.438L37.636,32.25L37.636,32.25z
			 M31.501,24h-1.154c0-3.529-2.847-6.4-6.347-6.4v-1.164C28.136,16.436,31.501,19.829,31.501,24z"/>
	</g>
</g>
<g>
</g>
<g>
</g>
<g>
</g>
<g>
</g>
<g>
</g>
<g>
</g>
</svg>
