<?xml version="1.0" encoding="iso-8859-1"?>
<!-- Generator: Adobe Illustrator 18.0.0, SVG Export Plug-In . SVG Version: 6.00 Build 0)  -->
<!DOCTYPE svg PUBLIC "-//W3C//DTD SVG 1.1//EN" "http://www.w3.org/Graphics/SVG/1.1/DTD/svg11.dtd">
<svg version="1.1" xmlns="http://www.w3.org/2000/svg" xmlns:xlink="http://www.w3.org/1999/xlink" x="0px" y="0px"
	 viewBox="0 0 48 48" style="enable-background:new 0 0 48 48;" xml:space="preserve">
<g id="Layer_193">
	<g>
		<path style="fill:#CB2027;" d="M21.853,0.903c1.197-1.158,3.16-1.158,4.357,0l1.887,1.824c1.198,1.158,3.529,1.914,5.18,1.682
			l2.598-0.367c1.652-0.234,3.238,0.918,3.526,2.559l0.453,2.584c0.289,1.641,1.729,3.621,3.202,4.402l2.318,1.23
			c1.473,0.779,2.079,2.643,1.347,4.139l-1.153,2.357c-0.733,1.498-0.733,3.945,0,5.441l1.153,2.357
			c0.732,1.496,0.126,3.359-1.347,4.141l-2.318,1.229c-1.473,0.781-2.913,2.764-3.202,4.404l-0.453,2.584
			c-0.288,1.641-1.874,2.791-3.526,2.559l-2.598-0.367c-1.65-0.232-3.981,0.521-5.18,1.682l-1.887,1.822
			c-1.197,1.16-3.16,1.16-4.357,0l-1.887-1.822c-1.198-1.16-3.529-1.914-5.18-1.682l-2.598,0.367
			c-1.652,0.232-3.238-0.918-3.526-2.559l-0.454-2.584c-0.288-1.641-1.729-3.623-3.201-4.404l-2.318-1.229
			c-1.473-0.781-2.079-2.644-1.347-4.141l1.153-2.357c0.733-1.496,0.733-3.943,0-5.441l-1.153-2.357
			c-0.732-1.496-0.126-3.359,1.347-4.139l2.318-1.23c1.473-0.781,2.913-2.762,3.201-4.402l0.454-2.584
			c0.288-1.641,1.874-2.793,3.526-2.559l2.598,0.367c1.65,0.232,3.981-0.523,5.18-1.682L21.853,0.903z"/>
		<g>
			<path style="fill:#FFFFFF;" d="M17.113,38.782c0.028,0.205,0.301,0.254,0.424,0.1c0.176-0.221,2.444-2.932,3.215-5.639
				c0.218-0.768,1.251-4.736,1.251-4.736c0.62,1.143,2.428,2.146,4.351,2.146c5.724,0,9.607-5.049,9.607-11.809
				c0-5.111-4.475-9.871-11.274-9.871c-8.459,0-12.725,5.869-12.725,10.764c0,2.963,1.16,5.6,3.645,6.584
				c0.41,0.16,0.775,0.006,0.892-0.432c0.083-0.303,0.277-1.064,0.365-1.385c0.117-0.432,0.073-0.582-0.256-0.959
				c-0.719-0.818-1.177-1.879-1.177-3.379c0-4.355,3.369-8.254,8.768-8.254c4.781,0,7.409,2.828,7.409,6.603
				c0,4.969-2.273,9.162-5.643,9.162c-1.865,0-3.26-1.49-2.814-3.318c0.537-2.184,1.574-4.539,1.574-6.115
				c0-1.41-0.783-2.586-2.402-2.586c-1.905,0-3.435,1.906-3.435,4.459c0,1.627,0.569,2.728,0.569,2.728s-1.95,7.988-2.291,9.389
				C16.487,35.022,17.065,38.438,17.113,38.782z"/>
		</g>
	</g>
</g>
<g id="Layer_1">
</g>
</svg>
