<?xml version="1.0" encoding="iso-8859-1"?>
<!-- Generator: Adobe Illustrator 18.0.0, SVG Export Plug-In . SVG Version: 6.00 Build 0)  -->
<!DOCTYPE svg PUBLIC "-//W3C//DTD SVG 1.1//EN" "http://www.w3.org/Graphics/SVG/1.1/DTD/svg11.dtd">
<svg version="1.1" xmlns="http://www.w3.org/2000/svg" xmlns:xlink="http://www.w3.org/1999/xlink" x="0px" y="0px"
	 viewBox="0 0 48 48" style="enable-background:new 0 0 48 48;" xml:space="preserve">
<g id="Layer_165">
	<g>
		<path style="fill:#FFA616;" d="M21.853,0.905c1.197-1.16,3.16-1.16,4.357,0l1.887,1.822c1.199,1.158,3.529,1.914,5.18,1.682
			l2.598-0.367c1.652-0.232,3.238,0.918,3.527,2.559l0.453,2.584c0.289,1.641,1.728,3.623,3.201,4.404l2.318,1.228
			c1.473,0.779,2.08,2.644,1.348,4.141l-1.154,2.357c-0.732,1.496-0.732,3.943,0,5.439l1.154,2.359
			c0.732,1.496,0.125,3.359-1.348,4.139l-2.318,1.23c-1.473,0.781-2.912,2.762-3.201,4.402l-0.453,2.584
			c-0.289,1.641-1.875,2.793-3.527,2.559l-2.598-0.367c-1.65-0.232-3.98,0.523-5.18,1.682l-1.887,1.824
			c-1.197,1.158-3.16,1.158-4.357,0l-1.887-1.824c-1.197-1.158-3.529-1.914-5.18-1.682l-2.598,0.367
			c-1.652,0.234-3.238-0.918-3.525-2.559l-0.455-2.584c-0.287-1.641-1.728-3.621-3.201-4.402l-2.318-1.23
			c-1.473-0.779-2.078-2.643-1.346-4.139l1.152-2.359c0.734-1.496,0.734-3.943,0-5.439l-1.152-2.357
			c-0.732-1.496-0.127-3.361,1.346-4.141l2.318-1.228c1.473-0.781,2.914-2.764,3.201-4.404L8.663,6.6
			c0.287-1.641,1.873-2.791,3.525-2.559l2.598,0.367c1.65,0.232,3.982-0.523,5.18-1.682L21.853,0.905z"/>
		<g>
			<path style="fill:#FFFFFF;" d="M23.962,35.973c8.283,0,15-4.368,15-9.753s-6.717-9.751-15-9.751
				c-4.176,0-7.955,1.11-10.674,2.901v-7.397H8.962v14.239v0.008v0.01v0.038h0.002C9.002,31.63,15.703,35.973,23.962,35.973z
				 M23.962,18.863c5.789,0,10.482,3.294,10.482,7.357s-4.693,7.359-10.482,7.359c-5.789,0-10.482-3.295-10.482-7.359
				S18.173,18.863,23.962,18.863z"/>
		</g>
	</g>
</g>
<g id="Layer_1">
</g>
</svg>
