<?xml version="1.0" encoding="iso-8859-1"?>
<!-- Generator: Adobe Illustrator 18.0.0, SVG Export Plug-In . SVG Version: 6.00 Build 0)  -->
<!DOCTYPE svg PUBLIC "-//W3C//DTD SVG 1.1//EN" "http://www.w3.org/Graphics/SVG/1.1/DTD/svg11.dtd">
<svg version="1.1" xmlns="http://www.w3.org/2000/svg" xmlns:xlink="http://www.w3.org/1999/xlink" x="0px" y="0px"
	 viewBox="0 0 48 48" style="enable-background:new 0 0 48 48;" xml:space="preserve">
<g id="Layer_201">
	<g>
		<path style="fill:#0CB3EE;" d="M21.853,0.903c1.197-1.158,3.16-1.158,4.357,0l1.887,1.824c1.199,1.158,3.529,1.914,5.18,1.682
			l2.598-0.367c1.652-0.234,3.238,0.918,3.527,2.559l0.453,2.584c0.289,1.641,1.728,3.621,3.201,4.402l2.318,1.23
			c1.473,0.779,2.08,2.642,1.348,4.139l-1.154,2.357c-0.732,1.498-0.732,3.945,0,5.441l1.154,2.357
			c0.732,1.496,0.125,3.359-1.348,4.141l-2.318,1.228c-1.473,0.781-2.912,2.764-3.201,4.404l-0.453,2.584
			c-0.289,1.641-1.875,2.791-3.527,2.559l-2.598-0.367c-1.65-0.232-3.98,0.521-5.18,1.682l-1.887,1.822
			c-1.197,1.16-3.16,1.16-4.357,0l-1.887-1.822c-1.197-1.16-3.529-1.914-5.18-1.682l-2.598,0.367
			c-1.652,0.232-3.238-0.918-3.525-2.559l-0.455-2.584c-0.287-1.641-1.728-3.623-3.201-4.404l-2.318-1.228
			c-1.473-0.781-2.078-2.644-1.346-4.141l1.152-2.357c0.734-1.496,0.734-3.943,0-5.441l-1.152-2.357
			c-0.732-1.496-0.127-3.359,1.346-4.139l2.318-1.23c1.473-0.781,2.914-2.762,3.201-4.402l0.455-2.584
			c0.287-1.641,1.873-2.793,3.525-2.559l2.598,0.367c1.65,0.232,3.982-0.523,5.18-1.682L21.853,0.903z"/>
		<g>
			<path style="fill:#FFFFFF;" d="M8.963,33.284c2.098-0.828,3.793-1.16,5.219-1.16c2.35,0,3.978,0.889,5.516,1.891
				c0.568-1.893,2.506-8.368,2.873-9.602c-0.416-0.253-0.834-0.506-1.277-0.739c-1.033-0.52-2.475-1.06-4.053-1.06
				c-0.18,0-0.357,0.006-0.537,0.02c-1.584,0.129-3.025,0.526-4.039,0.875c-0.299,0.106-0.607,0.22-0.924,0.347L8.963,33.284z"/>
			<path style="fill:#FFFFFF;" d="M35.474,26.539c-2.023,0.71-3.768,0.978-5.242,0.978c-3.209,0-5.16-1.253-6.002-1.912l-2.77,9.415
				c-0.004-0.004,3.236,1.953,5.668,1.953c1.539,0,3.379-0.369,5.678-1.299L35.474,26.539z"/>
			<path style="fill:#FFFFFF;" d="M25.915,12.736c0,0-1.988-1.167-3.373-1.513c-0.66-0.153-1.408-0.25-2.234-0.25
				c-0.012,0-0.021,0-0.031,0c-1.408,0.027-3.094,0.361-5.168,1.189l-2.734,9.407c2.131-0.851,3.857-1.228,5.308-1.228
				c0.027,0,0.051,0,0.074,0c2.252,0.023,3.848,0.904,5.332,1.868c0.568-1.887,2.256-7.555,2.826-9.467V12.736z"/>
			<path style="fill:#FFFFFF;" d="M27.665,13.956l-2.805,9.508c0.008,0.009,0.02,0.014,0.029,0.02
				c1.543,1.01,3.549,1.828,5.969,1.828c1.6,0,3.377-0.357,5.32-1.254c0-0.003,0-0.01,0-0.012c0.004,0,0.01-0.004,0.018-0.006
				l2.766-9.335c-2.043,0.873-3.832,1.195-5.361,1.195C30.56,15.9,28.552,14.631,27.665,13.956z"/>
		</g>
	</g>
</g>
<g id="Layer_1">
</g>
</svg>
