<?xml version="1.0" encoding="iso-8859-1"?>
<!-- Generator: Adobe Illustrator 18.0.0, SVG Export Plug-In . SVG Version: 6.00 Build 0)  -->
<!DOCTYPE svg PUBLIC "-//W3C//DTD SVG 1.1//EN" "http://www.w3.org/Graphics/SVG/1.1/DTD/svg11.dtd">
<svg version="1.1" xmlns="http://www.w3.org/2000/svg" xmlns:xlink="http://www.w3.org/1999/xlink" x="0px" y="0px"
	 viewBox="0 0 48 48" style="enable-background:new 0 0 48 48;" xml:space="preserve">
<g id="Layer_183">
	<g>
		<path style="fill:#517FA4;" d="M21.854,0.903c1.197-1.158,3.16-1.158,4.357,0l1.887,1.824c1.197,1.158,3.529,1.914,5.18,1.682
			l2.598-0.367c1.652-0.234,3.238,0.918,3.525,2.559l0.453,2.584c0.289,1.641,1.73,3.621,3.203,4.402l2.318,1.23
			c1.472,0.779,2.077,2.643,1.345,4.139l-1.151,2.357c-0.734,1.498-0.734,3.945,0,5.441l1.151,2.357
			c0.732,1.496,0.127,3.359-1.345,4.141l-2.318,1.229c-1.473,0.781-2.914,2.764-3.203,4.404l-0.453,2.584
			c-0.287,1.641-1.873,2.791-3.525,2.559l-2.598-0.367c-1.65-0.232-3.982,0.521-5.18,1.682l-1.887,1.822
			c-1.197,1.16-3.16,1.16-4.357,0l-1.887-1.822c-1.199-1.16-3.529-1.914-5.18-1.682l-2.6,0.367
			c-1.652,0.232-3.238-0.918-3.525-2.559l-0.455-2.584c-0.287-1.641-1.728-3.623-3.201-4.404l-2.317-1.229
			c-1.473-0.781-2.078-2.644-1.346-4.141l1.152-2.357c0.734-1.496,0.734-3.943,0-5.441l-1.152-2.357
			c-0.732-1.496-0.127-3.359,1.346-4.139l2.317-1.23c1.473-0.781,2.914-2.762,3.201-4.402l0.455-2.584
			c0.287-1.641,1.873-2.793,3.525-2.559l2.6,0.367c1.65,0.232,3.98-0.523,5.18-1.682L21.854,0.903z"/>
		<g>
			<path style="fill:#FFFFFF;" d="M33.164,8.973H14.759c-3.197,0-5.797,2.6-5.797,5.797v6.125v12.281c0,3.197,2.6,5.797,5.797,5.797
				h18.404c3.197,0,5.799-2.6,5.799-5.797V20.895V14.77C38.962,11.572,36.361,8.973,33.164,8.973z M34.828,12.432l0.662-0.004v0.662
				v4.422l-5.066,0.017l-0.018-5.084L34.828,12.432z M19.681,20.895c0.961-1.33,2.519-2.201,4.281-2.201
				c1.762,0,3.32,0.871,4.281,2.201c0.625,0.867,1,1.93,1,3.078c0,2.91-2.371,5.279-5.281,5.279c-2.912,0-5.281-2.369-5.281-5.279
				C18.681,22.824,19.056,21.762,19.681,20.895z M36.04,33.176c0,1.586-1.291,2.875-2.877,2.875H14.759
				c-1.586,0-2.875-1.289-2.875-2.875V20.895h4.478c-0.387,0.951-0.603,1.99-0.603,3.078c0,4.523,3.68,8.203,8.203,8.203
				c4.523,0,8.203-3.68,8.203-8.203c0-1.088-0.219-2.127-0.605-3.078h4.48V33.176z"/>
		</g>
	</g>
</g>
<g id="Layer_1">
</g>
</svg>
