<?xml version="1.0" encoding="iso-8859-1"?>
<!-- Generator: Adobe Illustrator 18.0.0, SVG Export Plug-In . SVG Version: 6.00 Build 0)  -->
<!DOCTYPE svg PUBLIC "-//W3C//DTD SVG 1.1//EN" "http://www.w3.org/Graphics/SVG/1.1/DTD/svg11.dtd">
<svg version="1.1" xmlns="http://www.w3.org/2000/svg" xmlns:xlink="http://www.w3.org/1999/xlink" x="0px" y="0px"
	 viewBox="0 0 48 48" style="enable-background:new 0 0 48 48;" xml:space="preserve">
<g id="nyt_x5F_exporter_x5F_info" style="display:none;">
</g>
<g>
</g>
<g>
</g>
<g>
</g>
<g>
</g>
<g>
</g>
<g>
</g>
<g>
</g>
<g>
</g>
<g>
</g>
<g>
</g>
<g>
</g>
<g>
</g>
<g>
</g>
<g>
</g>
<g>
</g>
<g>
</g>
<g>
</g>
<g>
</g>
<g>
</g>
<g>
</g>
<g>
</g>
<g>
</g>
<g>
</g>
<g>
</g>
<g>
</g>
<g>
</g>
<g>
</g>
<g>
</g>
<g>
</g>
<g>
</g>
<g>
</g>
<g>
</g>
<g>
</g>
<g>
</g>
<g>
</g>
<g>
</g>
<g>
</g>
<g>
</g>
<g>
</g>
<g>
</g>
<g>
</g>
<g>
</g>
<g>
</g>
<g>
</g>
<g>
</g>
<g>
</g>
<g>
</g>
<g>
</g>
<g>
</g>
<g>
</g>
<g>
</g>
<g>
</g>
<g>
</g>
<g>
</g>
<g>
</g>
<g>
</g>
<g>
</g>
<g>
</g>
<g>
</g>
<g>
</g>
<g>
</g>
<g>
</g>
<g>
</g>
<g>
</g>
<g>
</g>
<g>
</g>
<g>
</g>
<g>
</g>
<g>
</g>
<g>
</g>
<g>
</g>
<g>
</g>
<g>
</g>
<g>
</g>
<g>
</g>
<g>
</g>
<g>
</g>
<g>
</g>
<g>
</g>
<g>
</g>
<g>
</g>
<g>
</g>
<g>
</g>
<g>
</g>
<g>
	<g>
		<path style="fill:#00AAF0;" d="M21.822,0.868c1.197-1.158,3.16-1.158,4.357,0l1.887,1.824c1.197,1.158,3.529,1.914,5.18,1.682
			l2.598-0.367c1.652-0.234,3.238,0.918,3.525,2.559l0.453,2.584c0.289,1.641,1.731,3.621,3.203,4.402l2.318,1.23
			c1.473,0.779,2.078,2.643,1.346,4.139l-1.152,2.357c-0.734,1.498-0.734,3.945,0,5.441l1.152,2.357
			c0.732,1.496,0.127,3.359-1.346,4.141l-2.318,1.229c-1.473,0.781-2.914,2.764-3.203,4.404l-0.453,2.584
			c-0.287,1.641-1.873,2.791-3.525,2.559l-2.598-0.367c-1.65-0.232-3.982,0.522-5.18,1.682l-1.887,1.822
			c-1.197,1.16-3.16,1.16-4.357,0l-1.887-1.822c-1.199-1.16-3.529-1.914-5.18-1.682l-2.598,0.367
			c-1.652,0.232-3.238-0.918-3.527-2.559l-0.453-2.584c-0.289-1.641-1.729-3.623-3.201-4.404l-2.318-1.229
			c-1.473-0.781-2.08-2.644-1.348-4.141l1.154-2.357c0.732-1.496,0.732-3.943,0-5.441L1.31,18.921
			c-0.732-1.496-0.125-3.359,1.348-4.139l2.318-1.23c1.473-0.781,2.912-2.762,3.201-4.402l0.453-2.584
			c0.289-1.641,1.875-2.793,3.527-2.559l2.598,0.367c1.65,0.232,3.981-0.523,5.18-1.682L21.822,0.868z"/>
		<path id="MSN_Messenger_9_" style="fill:#FFFFFF;" d="M9.001,26.604c0.497-4.516,4.347-6.113,4.91-6.323
			c-0.957-0.738-1.569-1.868-1.569-3.134c0-2.224,1.886-4.026,4.214-4.026c2.327,0,4.214,1.802,4.214,4.026
			c0,1.254-0.601,2.375-1.543,3.114c0.788,0.271,1.562,0.676,2.255,1.205c-1.832,0.893-5.864,3.466-6.476,9.02
			c0,0.047,0,0.092,0,0.138c-3.543-0.217-3.905-1.153-3.905-1.153V29.47c-0.225-0.213-0.4-0.474-0.507-0.802
			c-0.516-0.116-0.841-0.419-0.841-0.419S8.961,27.962,9.001,26.604L9.001,26.604z M23.773,21.608
			c-0.836,0.312-6.538,2.678-7.276,9.369c-0.06,2.012,1.113,2.437,1.113,2.437v0.001c0,0,0.482,0.448,1.248,0.62
			c0.158,0.484,0.416,0.872,0.751,1.188v0.001c0,0,0.562,1.462,6.209,1.732c0.084,0.014,0.166,0.027,0.248,0.042
			c0.468,0,0.936,0,1.404,0c0.176,0,0.356,0.001,0.54,0c0.539,0,1.076,0,1.614,0c0.139-0.025,0.28-0.047,0.422-0.07
			c5.803-0.376,6.414-2.144,6.414-2.144v-0.002c0.154-0.221,0.282-0.468,0.374-0.749c2.641-0.509,2.432-3.573,1.642-5.927
			c-1.099-3.269-3.894-5.521-6.825-6.53c1.395-1.094,2.286-2.754,2.286-4.613c0-3.295-2.796-5.965-6.244-5.965
			s-6.244,2.671-6.244,5.965C21.448,18.842,22.355,20.514,23.773,21.608L23.773,21.608z"/>
	</g>
</g>
<g>
</g>
<g>
</g>
<g>
</g>
<g>
</g>
<g>
</g>
</svg>
