<?xml version="1.0" encoding="iso-8859-1"?>
<!-- Generator: Adobe Illustrator 18.0.0, SVG Export Plug-In . SVG Version: 6.00 Build 0)  -->
<!DOCTYPE svg PUBLIC "-//W3C//DTD SVG 1.1//EN" "http://www.w3.org/Graphics/SVG/1.1/DTD/svg11.dtd">
<svg version="1.1" xmlns="http://www.w3.org/2000/svg" xmlns:xlink="http://www.w3.org/1999/xlink" x="0px" y="0px"
	 viewBox="0 0 48 48" style="enable-background:new 0 0 48 48;" xml:space="preserve">
<g id="Layer_151">
	<g>
		<path style="fill:#FCA82E;" d="M21.853,0.903c1.197-1.158,3.16-1.158,4.357,0l1.887,1.824c1.198,1.158,3.529,1.914,5.18,1.682
			l2.598-0.367c1.652-0.234,3.238,0.918,3.526,2.559l0.453,2.584c0.289,1.641,1.729,3.621,3.202,4.402l2.318,1.23
			c1.473,0.779,2.079,2.643,1.347,4.139l-1.153,2.357c-0.733,1.498-0.733,3.945,0,5.441l1.153,2.357
			c0.732,1.496,0.126,3.359-1.347,4.141l-2.318,1.229c-1.473,0.781-2.913,2.764-3.202,4.404l-0.453,2.584
			c-0.288,1.641-1.874,2.791-3.526,2.559l-2.598-0.367c-1.65-0.232-3.981,0.521-5.18,1.682l-1.887,1.822
			c-1.197,1.16-3.16,1.16-4.357,0l-1.887-1.822c-1.198-1.16-3.529-1.914-5.18-1.682l-2.598,0.367
			c-1.652,0.233-3.238-0.918-3.526-2.559l-0.454-2.584c-0.288-1.641-1.728-3.623-3.201-4.404l-2.318-1.229
			c-1.473-0.781-2.079-2.644-1.347-4.141l1.153-2.357c0.733-1.496,0.733-3.943,0-5.441l-1.153-2.357
			c-0.732-1.496-0.126-3.359,1.347-4.139l2.318-1.23c1.473-0.781,2.913-2.762,3.201-4.402L8.663,6.6
			c0.288-1.641,1.874-2.793,3.526-2.559l2.598,0.367c1.65,0.232,3.981-0.523,5.18-1.682L21.853,0.903z"/>
		<g>
			<path style="fill:#FFFFFF;" d="M18.644,24.69c0.445-2.609,0.645-4.717-1.893-3.114s-3.562,2.84-3.562,2.84
				s-0.867,0.372-0.645-0.569c0.223-0.941,1.514-8.314,1.625-9.527c0.111-1.213,0.236-1.213-0.193-1.306
				c-0.43-0.091-0.719,0-0.719,0s-1.402,0.115-1.647,2.497c-0.245,2.38-2.493,15.865-2.493,15.865s-0.579,1.785,0.512,1.832
				c1.091,0.045,1.736,0.458,2.738-3.32c1.002-3.778,2.27-5.861,3.429-5.861c1.157,0,0.867,1.283,0.557,3.159
				c-0.312,1.878-1.403,5.564-1.069,6.25c0.334,0.687,0.267,0.732,1.536,0.732c1.269,0,2.493-0.229,2.093-1.374
				C18.511,31.649,18.199,27.3,18.644,24.69z"/>
			<path style="fill:#FFFFFF;" d="M24.289,20.869c-0.544-0.171-1.089,0.004-1.089,0.004s-0.476-0.141-0.986,1.119
				c-0.51,1.259-1.667,6.333-1.633,8.502c0.033,2.169,0.033,2.974,0.681,2.765c0.646-0.211,2.585-0.141,2.347-2.344
				c-0.237-2.204,0.137-5.283,0.477-7.068C24.426,22.063,24.833,21.038,24.289,20.869z"/>
			<path style="fill:#FFFFFF;" d="M35.449,20.207c-1.497-0.035-3.846,1.049-4.491,1.365c-0.646,0.315-2.28,0.858-1.701-0.779
				c0.578-1.634,1.531-3.454,1.531-3.454s0.203-0.63,1.667-0.7c1.463-0.07,4.898,0.98,5.613,0.141
				c0.715-0.84,0.511-1.61,0.545-2.623c0.033-1.016,0-1.174-0.512-1.183c-0.51-0.008-3.742,0.623-5.034,0.623
				c-1.294,0-2.688-0.106-3.232,1.259c-0.544,1.364-2.96,8.046-2.96,8.046s-0.238,2.169,1.634,1.191
				c1.87-0.981,6.565-2.38,6.769,1.013s-1.19,8.153-4.899,8.012c-3.708-0.14-2.994-1.504-2.382-2.73
				c0.612-1.224,0.409-2.098-0.68-2.132c-1.089-0.036-3.198,1.328-2.042,3.602c1.157,2.275,2.144,3.079,5.478,3.114
				c3.334,0.034,8.028-4.199,8.199-9.621C39.123,19.929,36.946,20.243,35.449,20.207z"/>
			<path style="fill:#FFFFFF;" d="M26.33,17.097c-0.205-0.526-1.028-0.187-1.4-0.481c0.005,0.005-0.489-1.404-0.933-1.344
				c-0.301,0.042-0.357,0.699-0.561,0.961c-0.382,0.492-1.577,0.19-1.68,0.864c-0.032,0.213,0.579,0.727,0.653,0.863
				c0.305,0.557-0.367,1.241,0,1.728c0.242,0.32,1.028-0.306,1.493-0.288c0.098,0.003,0.184,0.017,0.261,0.035
				c0.396,0.211,1.006,0.699,1.211,0.489c0.263-0.266,0.011-0.941-0.033-1.326C25.661,17.892,26.508,17.557,26.33,17.097z"/>
		</g>
	</g>
</g>
<g id="Layer_1">
</g>
</svg>
