<?xml version="1.0" encoding="iso-8859-1"?>
<!-- Generator: Adobe Illustrator 18.0.0, SVG Export Plug-In . SVG Version: 6.00 Build 0)  -->
<!DOCTYPE svg PUBLIC "-//W3C//DTD SVG 1.1//EN" "http://www.w3.org/Graphics/SVG/1.1/DTD/svg11.dtd">
<svg version="1.1" xmlns="http://www.w3.org/2000/svg" xmlns:xlink="http://www.w3.org/1999/xlink" x="0px" y="0px"
	 viewBox="0 0 48 48" style="enable-background:new 0 0 48 48;" xml:space="preserve">
<g id="Layer_188">
	<g>
		<path style="fill:#83D1ED;" d="M21.853,0.903c1.197-1.158,3.16-1.158,4.357,0l1.887,1.824c1.199,1.158,3.529,1.914,5.18,1.682
			l2.598-0.367c1.652-0.234,3.238,0.918,3.527,2.559l0.453,2.584c0.289,1.641,1.728,3.621,3.201,4.402l2.318,1.23
			c1.473,0.779,2.08,2.643,1.348,4.139l-1.154,2.357c-0.732,1.498-0.732,3.945,0,5.441l1.154,2.357
			c0.732,1.496,0.125,3.359-1.348,4.141l-2.318,1.229c-1.473,0.781-2.912,2.764-3.201,4.404l-0.453,2.584
			c-0.289,1.641-1.875,2.791-3.527,2.559l-2.598-0.367c-1.65-0.232-3.98,0.521-5.18,1.682l-1.887,1.822
			c-1.197,1.16-3.16,1.16-4.357,0l-1.887-1.822c-1.197-1.16-3.529-1.914-5.18-1.682l-2.598,0.367
			c-1.652,0.232-3.238-0.918-3.525-2.559l-0.455-2.584c-0.287-1.641-1.728-3.623-3.201-4.404l-2.318-1.229
			c-1.473-0.781-2.078-2.644-1.346-4.141l1.152-2.357c0.734-1.496,0.734-3.943,0-5.441l-1.152-2.357
			c-0.732-1.496-0.127-3.359,1.346-4.139l2.318-1.23c1.473-0.781,2.914-2.762,3.201-4.402l0.455-2.584
			c0.287-1.641,1.873-2.793,3.525-2.559l2.598,0.367c1.65,0.232,3.982-0.523,5.18-1.682L21.853,0.903z"/>
		<g>
			<polygon style="fill:#FFFFFF;" points="8.962,25.561 17.787,31.342 23.962,26.171 15.064,20.657 			"/>
			<polygon style="fill:#FFFFFF;" points="17.787,9.973 8.962,15.752 15.064,20.657 23.962,15.144 			"/>
			<polygon style="fill:#FFFFFF;" points="30.136,9.973 23.962,15.144 32.861,20.657 38.962,15.752 			"/>
			<polygon style="fill:#FFFFFF;" points="30.136,31.342 38.962,25.561 32.861,20.657 23.962,26.171 			"/>
			<polygon style="fill:#FFFFFF;" points="32.824,32.652 32.824,30.703 30.173,32.441 23.982,27.283 17.787,32.441 15.136,30.703 
				15.136,32.652 23.982,37.973 			"/>
		</g>
	</g>
</g>
<g id="Layer_1">
</g>
</svg>
