<?xml version="1.0" encoding="iso-8859-1"?>
<!-- Generator: Adobe Illustrator 18.0.0, SVG Export Plug-In . SVG Version: 6.00 Build 0)  -->
<!DOCTYPE svg PUBLIC "-//W3C//DTD SVG 1.1//EN" "http://www.w3.org/Graphics/SVG/1.1/DTD/svg11.dtd">
<svg version="1.1" xmlns="http://www.w3.org/2000/svg" xmlns:xlink="http://www.w3.org/1999/xlink" x="0px" y="0px"
	 viewBox="0 0 48 48" style="enable-background:new 0 0 48 48;" xml:space="preserve">
<g id="Layer_187">
	<g>
		<path style="fill:#A8C46A;" d="M21.854,0.903c1.197-1.158,3.16-1.158,4.357,0l1.887,1.824c1.197,1.158,3.529,1.914,5.18,1.682
			l2.598-0.367c1.652-0.234,3.238,0.918,3.525,2.559l0.453,2.584c0.289,1.641,1.73,3.621,3.203,4.402l2.318,1.23
			c1.473,0.779,2.078,2.643,1.346,4.139l-1.152,2.357c-0.734,1.498-0.734,3.945,0,5.441l1.152,2.357
			c0.732,1.496,0.127,3.359-1.346,4.141l-2.318,1.229c-1.473,0.781-2.914,2.764-3.203,4.404l-0.453,2.584
			c-0.287,1.641-1.873,2.791-3.525,2.559l-2.598-0.367c-1.65-0.232-3.982,0.521-5.18,1.682l-1.887,1.822
			c-1.197,1.16-3.16,1.16-4.357,0l-1.887-1.822c-1.199-1.16-3.529-1.914-5.18-1.682l-2.598,0.367
			c-1.652,0.232-3.238-0.918-3.527-2.559L8.21,38.886c-0.289-1.641-1.728-3.623-3.201-4.404L2.69,33.253
			c-1.473-0.781-2.08-2.644-1.348-4.141l1.154-2.357c0.732-1.496,0.732-3.943,0-5.441l-1.154-2.357
			C0.61,17.46,1.217,15.597,2.69,14.817l2.318-1.23c1.473-0.781,2.912-2.762,3.201-4.402l0.453-2.584
			c0.289-1.641,1.875-2.793,3.527-2.559l2.598,0.367c1.65,0.232,3.98-0.523,5.18-1.682L21.854,0.903z"/>
		<g>
			<polygon style="fill:#FFFFFF;" points="8.962,34.629 21.068,36.381 21.068,24.801 8.962,24.801 			"/>
			<polygon style="fill:#FFFFFF;" points="22.722,36.621 38.962,38.973 38.962,24.801 22.722,24.801 			"/>
			<polygon style="fill:#FFFFFF;" points="22.722,23.146 38.962,23.146 38.962,8.973 22.722,11.324 			"/>
			<polygon style="fill:#FFFFFF;" points="21.068,11.565 8.962,13.318 8.962,23.146 21.068,23.146 			"/>
		</g>
	</g>
</g>
<g id="Layer_1">
</g>
</svg>
