<?xml version="1.0" encoding="iso-8859-1"?>
<!-- Generator: Adobe Illustrator 18.0.0, SVG Export Plug-In . SVG Version: 6.00 Build 0)  -->
<!DOCTYPE svg PUBLIC "-//W3C//DTD SVG 1.1//EN" "http://www.w3.org/Graphics/SVG/1.1/DTD/svg11.dtd">
<svg version="1.1" xmlns="http://www.w3.org/2000/svg" xmlns:xlink="http://www.w3.org/1999/xlink" x="0px" y="0px"
	 viewBox="0 0 48 48" style="enable-background:new 0 0 48 48;" xml:space="preserve">
<g id="Layer_216">
	<g>
		<path style="fill:#F872A3;" d="M21.853,0.903c1.197-1.158,3.16-1.158,4.357,0l1.887,1.824c1.198,1.158,3.529,1.914,5.18,1.682
			l2.598-0.367c1.652-0.234,3.238,0.918,3.526,2.559l0.453,2.584c0.289,1.641,1.729,3.621,3.202,4.402l2.318,1.23
			c1.473,0.779,2.079,2.642,1.347,4.139l-1.153,2.357c-0.733,1.498-0.733,3.945,0,5.441l1.153,2.357
			c0.732,1.496,0.126,3.359-1.347,4.141l-2.318,1.228c-1.473,0.781-2.913,2.764-3.202,4.404l-0.453,2.584
			c-0.288,1.641-1.874,2.791-3.526,2.559l-2.598-0.367c-1.65-0.232-3.981,0.521-5.18,1.682l-1.887,1.822
			c-1.197,1.16-3.16,1.16-4.357,0l-1.887-1.822c-1.198-1.16-3.529-1.914-5.18-1.682l-2.598,0.367
			c-1.652,0.232-3.238-0.918-3.526-2.559l-0.454-2.584c-0.288-1.641-1.728-3.623-3.201-4.404l-2.318-1.228
			c-1.473-0.781-2.079-2.644-1.347-4.141l1.153-2.357c0.733-1.496,0.733-3.943,0-5.441l-1.153-2.357
			c-0.732-1.496-0.126-3.359,1.347-4.139l2.318-1.23c1.473-0.781,2.913-2.762,3.201-4.402l0.454-2.584
			c0.288-1.641,1.874-2.793,3.526-2.559l2.598,0.367c1.65,0.232,3.981-0.523,5.18-1.682L21.853,0.903z"/>
		<g>
			<path style="fill:#FFFFFF;" d="M37.782,18.134c-0.376-0.89-0.842-1.747-1.384-2.548c-0.535-0.794-1.151-1.541-1.829-2.219
				c-0.679-0.679-1.426-1.295-2.219-1.831c-0.802-0.543-1.66-1.007-2.549-1.384c-0.906-0.382-1.855-0.678-2.819-0.874
				c-0.987-0.202-2.003-0.306-3.019-0.306c-1.016,0-2.033,0.104-3.021,0.306c-0.964,0.196-1.912,0.492-2.817,0.874
				c-0.89,0.377-1.747,0.841-2.549,1.384c-0.795,0.536-1.541,1.152-2.22,1.831c-0.677,0.678-1.293,1.425-1.83,2.219
				c-0.542,0.801-1.008,1.658-1.382,2.548c-0.384,0.906-0.679,1.855-0.877,2.819c-0.201,0.986-0.304,2.003-0.304,3.018
				c0,1.018,0.103,2.034,0.304,3.022c0.198,0.964,0.493,1.912,0.877,2.817c0.374,0.89,0.84,1.748,1.382,2.55
				c0.537,0.793,1.153,1.539,1.83,2.219c0.679,0.678,1.425,1.293,2.22,1.83c0.802,0.541,1.659,1.007,2.549,1.383
				c0.905,0.384,1.854,0.677,2.817,0.875c0.988,0.203,2.006,0.305,3.021,0.305c1.017,0,2.032-0.101,3.019-0.305
				c0.964-0.198,1.913-0.491,2.819-0.875c0.889-0.376,1.747-0.842,2.549-1.383c0.793-0.537,1.54-1.152,2.219-1.83
				c0.678-0.68,1.294-1.426,1.829-2.219c0.542-0.802,1.008-1.66,1.384-2.55c0.384-0.905,0.678-1.853,0.875-2.817
				c0.202-0.988,0.305-2.005,0.305-3.022c0-1.016-0.103-2.032-0.305-3.018C38.46,19.989,38.166,19.04,37.782,18.134z M23.963,11.163
				c3.243,0,6.203,1.209,8.461,3.196c-0.032,0.05-1.856,2.827-6.692,4.639c-2.189-4.023-4.595-7.22-4.788-7.474
				C21.912,11.29,22.922,11.163,23.963,11.163z M20.895,11.535c-0.001,0.001-0.003,0.002-0.003,0.002s-0.015,0.004-0.039,0.009
				C20.867,11.542,20.882,11.54,20.895,11.535z M18.497,12.387c0.17,0.229,2.54,3.44,4.757,7.381
				c-6.15,1.635-11.488,1.571-11.827,1.565C12.26,17.364,14.924,14.074,18.497,12.387z M14.436,32.533
				c-2.04-2.27-3.282-5.27-3.282-8.562c0-0.136,0.005-0.271,0.011-0.404c0.226,0.005,6.555,0.148,13.15-1.825
				c0.367,0.719,0.719,1.448,1.039,2.177c-0.169,0.048-0.337,0.099-0.505,0.153c-6.912,2.234-10.418,8.454-10.418,8.454
				S14.435,32.531,14.436,32.533z M23.963,36.783c-2.97,0-5.697-1.02-7.871-2.716l-0.001,0.004c0,0-0.119-0.088-0.288-0.224
				c0.094,0.077,0.193,0.145,0.289,0.22c0.023-0.05,2.489-5.364,10.051-7.998c0.028-0.011,0.057-0.019,0.085-0.027
				c1.803,4.683,2.547,8.606,2.736,9.726C27.428,36.421,25.736,36.783,23.963,36.783z M31.121,34.598
				c-0.131-0.774-0.813-4.533-2.494-9.15c4.136-0.661,7.72,0.473,7.983,0.559C36.04,29.576,33.996,32.655,31.121,34.598z
				 M27.847,23.426c-0.091-0.22-0.182-0.439-0.276-0.662c-0.267-0.626-0.554-1.248-0.851-1.857c5.059-2.064,7.112-5.035,7.138-5.07
				c1.795,2.182,2.882,4.97,2.911,8.009C36.583,23.805,32.248,22.872,27.847,23.426z"/>
		</g>
	</g>
</g>
<g id="Layer_1">
</g>
</svg>
