<?xml version="1.0" encoding="iso-8859-1"?>
<!-- Generator: Adobe Illustrator 18.0.0, SVG Export Plug-In . SVG Version: 6.00 Build 0)  -->
<!DOCTYPE svg PUBLIC "-//W3C//DTD SVG 1.1//EN" "http://www.w3.org/Graphics/SVG/1.1/DTD/svg11.dtd">
<svg version="1.1" xmlns="http://www.w3.org/2000/svg" xmlns:xlink="http://www.w3.org/1999/xlink" x="0px" y="0px"
	 viewBox="0 0 48 48" style="enable-background:new 0 0 48 48;" xml:space="preserve">
<g id="Layer_186">
	<g>
		<path style="fill:#F75E0E;" d="M21.854,0.903c1.197-1.158,3.16-1.158,4.357,0l1.887,1.824c1.197,1.158,3.529,1.914,5.18,1.682
			l2.598-0.367c1.652-0.234,3.237,0.918,3.524,2.559l0.453,2.584c0.289,1.641,1.73,3.621,3.203,4.402l2.318,1.23
			c1.473,0.779,2.078,2.643,1.346,4.139l-1.152,2.357c-0.734,1.498-0.734,3.945,0,5.441l1.152,2.357
			c0.732,1.496,0.127,3.359-1.346,4.141l-2.318,1.229c-1.473,0.781-2.914,2.764-3.203,4.404L39.4,41.47
			c-0.287,1.641-1.872,2.791-3.524,2.559l-2.598-0.367c-1.65-0.232-3.982,0.521-5.18,1.682l-1.887,1.822
			c-1.197,1.16-3.16,1.16-4.357,0l-1.887-1.822c-1.199-1.16-3.529-1.914-5.18-1.682l-2.598,0.367
			c-1.652,0.232-3.237-0.918-3.526-2.559l-0.453-2.584c-0.289-1.641-1.728-3.623-3.201-4.404l-2.318-1.229
			c-1.473-0.781-2.08-2.644-1.348-4.141l1.154-2.357c0.732-1.496,0.732-3.943,0-5.441l-1.154-2.357
			c-0.732-1.496-0.125-3.359,1.348-4.139l2.318-1.23c1.473-0.781,2.912-2.762,3.201-4.402l0.453-2.584
			c0.289-1.641,1.874-2.793,3.526-2.559l2.598,0.367c1.65,0.232,3.98-0.523,5.18-1.682L21.854,0.903z"/>
		<g>
			<path style="fill:#FFFFFF;" d="M35.273,23.043c-0.506,0-0.99,0.109-1.428,0.306c-0.295-3.575-3.082-6.377-6.482-6.377
				c-0.834,0-1.646,0.176-2.361,0.474c-0.279,0.116-0.352,0.235-0.355,0.466v12.585c0.004,0.243,0.178,0.447,0.398,0.47
				c0.01,0.002,10.162,0.004,10.228,0.004c2.037,0,3.689-1.774,3.689-3.963C38.962,24.819,37.31,23.043,35.273,23.043z"/>
			<path style="fill:#FFFFFF;" d="M15.675,27.266l-0.266-5.327c-0.006-0.136-0.105-0.241-0.227-0.241
				c-0.121,0-0.221,0.105-0.226,0.241l-0.234,5.327l0.234,3.444c0.006,0.134,0.105,0.241,0.226,0.241
				c0.121,0,0.221-0.107,0.227-0.243v0.002L15.675,27.266z"/>
			<path style="fill:#FFFFFF;" d="M14.46,27.266l-0.283-3.276c-0.008-0.122-0.094-0.214-0.201-0.214s-0.195,0.094-0.201,0.216
				l-0.25,3.274l0.25,3.442c0.006,0.122,0.094,0.212,0.201,0.212s0.193-0.09,0.201-0.212l0,0L14.46,27.266z"/>
			<path style="fill:#FFFFFF;" d="M16.902,27.268l-0.248-6.547c-0.008-0.151-0.119-0.269-0.254-0.269
				c-0.135,0-0.246,0.118-0.252,0.269l-0.219,6.547l0.219,3.421c0.006,0.149,0.117,0.267,0.252,0.267
				c0.135,0,0.246-0.118,0.254-0.269v0.002L16.902,27.268z"/>
			<path style="fill:#FFFFFF;" d="M10.412,30.225c0.063,0,0.115-0.052,0.123-0.13l0.336-2.831l-0.334-2.897
				c-0.01-0.076-0.063-0.13-0.125-0.13c-0.064,0-0.117,0.055-0.125,0.13L9.99,27.264l0.297,2.831
				C10.295,30.171,10.347,30.225,10.412,30.225z"/>
			<path style="fill:#FFFFFF;" d="M11.589,30.733c0.078,0,0.141-0.067,0.15-0.157l0.318-3.312l-0.318-3.436
				c-0.01-0.09-0.072-0.157-0.15-0.157c-0.078,0-0.143,0.067-0.15,0.157l-0.279,3.436l0.279,3.312
				C11.447,30.666,11.511,30.733,11.589,30.733z"/>
			<path style="fill:#FFFFFF;" d="M19.167,19.939c-0.006-0.183-0.137-0.325-0.303-0.325c-0.166,0-0.299,0.143-0.305,0.325
				l-0.189,7.329l0.189,3.365c0.006,0.181,0.139,0.323,0.305,0.323c0.166,0,0.297-0.143,0.303-0.323l0,0l0.215-3.365L19.167,19.939z
				"/>
			<path style="fill:#FFFFFF;" d="M12.779,30.866c0.092,0,0.166-0.08,0.176-0.187l0.299-3.413l-0.299-3.53
				c-0.01-0.107-0.084-0.187-0.176-0.187c-0.094,0-0.17,0.08-0.176,0.187l-0.266,3.53l0.266,3.413
				C12.609,30.786,12.685,30.866,12.779,30.866z"/>
			<path style="fill:#FFFFFF;" d="M18.136,27.268l-0.231-7.092c-0.006-0.166-0.129-0.298-0.277-0.298
				c-0.152,0-0.273,0.132-0.279,0.298l-0.205,7.092l0.205,3.386c0.006,0.166,0.127,0.296,0.279,0.296
				c0.149,0,0.271-0.13,0.277-0.298v0.004L18.136,27.268z"/>
			<path style="fill:#FFFFFF;" d="M20.634,27.268l-0.195-7.145c-0.004-0.195-0.148-0.351-0.33-0.351
				c-0.18,0-0.324,0.155-0.328,0.351l-0.174,7.145l0.174,3.333c0.004,0.195,0.148,0.353,0.328,0.353c0.182,0,0.326-0.157,0.33-0.353
				l0,0L20.634,27.268z"/>
			<path style="fill:#FFFFFF;" d="M9.302,25.347c-0.063,0-0.111,0.052-0.121,0.126l-0.219,1.79l0.219,1.761
				c0.01,0.073,0.059,0.126,0.121,0.126c0.061,0,0.109-0.052,0.119-0.126l0.26-1.761l-0.26-1.79
				C9.412,25.4,9.363,25.347,9.302,25.347z"/>
			<path style="fill:#FFFFFF;" d="M23.173,27.27l-0.16-8.192c-0.004-0.222-0.176-0.405-0.381-0.405
				c-0.209,0-0.379,0.183-0.381,0.405l-0.144,8.19l0.144,3.291c0.002,0.222,0.172,0.407,0.381,0.407
				c0.205,0,0.377-0.185,0.381-0.409v0.004L23.173,27.27z"/>
			<path style="fill:#FFFFFF;" d="M23.892,17.903c-0.221,0-0.404,0.195-0.408,0.434l-0.166,8.933l0.166,3.243
				c0.004,0.237,0.187,0.432,0.408,0.432c0.219,0,0.402-0.195,0.406-0.434v0.002l0.182-3.243l-0.182-8.933
				C24.294,18.098,24.111,17.903,23.892,17.903z"/>
			<path style="fill:#FFFFFF;" d="M21.9,27.268l-0.18-6.882c-0.004-0.212-0.16-0.38-0.354-0.38c-0.197,0-0.351,0.168-0.355,0.38
				l-0.158,6.882l0.158,3.314c0.004,0.208,0.158,0.376,0.355,0.376c0.193,0,0.35-0.168,0.354-0.378v0.002L21.9,27.268z"/>
		</g>
	</g>
</g>
<g id="Layer_1">
</g>
</svg>
