<?xml version="1.0" encoding="iso-8859-1"?>
<!-- Generator: Adobe Illustrator 18.0.0, SVG Export Plug-In . SVG Version: 6.00 Build 0)  -->
<!DOCTYPE svg PUBLIC "-//W3C//DTD SVG 1.1//EN" "http://www.w3.org/Graphics/SVG/1.1/DTD/svg11.dtd">
<svg version="1.1" xmlns="http://www.w3.org/2000/svg" xmlns:xlink="http://www.w3.org/1999/xlink" x="0px" y="0px"
	 viewBox="0 0 48 48" style="enable-background:new 0 0 48 48;" xml:space="preserve">
<g id="Layer_191">
	<g>
		<path style="fill:#1CB4EE;" d="M21.854,0.905c1.197-1.16,3.16-1.16,4.357,0l1.887,1.822c1.198,1.158,3.529,1.914,5.18,1.682
			l2.598-0.367c1.652-0.232,3.238,0.918,3.526,2.559l0.453,2.584c0.289,1.641,1.729,3.623,3.202,4.404l2.317,1.228
			c1.473,0.779,2.079,2.645,1.347,4.141l-1.153,2.357c-0.732,1.496-0.732,3.943,0,5.439l1.153,2.359
			c0.732,1.496,0.126,3.359-1.347,4.139l-2.317,1.23c-1.473,0.781-2.913,2.762-3.202,4.402l-0.453,2.584
			c-0.288,1.641-1.874,2.793-3.526,2.559l-2.598-0.367c-1.65-0.232-3.981,0.523-5.18,1.682l-1.887,1.824
			c-1.197,1.158-3.16,1.158-4.357,0l-1.887-1.824c-1.198-1.158-3.529-1.914-5.18-1.682l-2.598,0.367
			c-1.652,0.234-3.238-0.918-3.526-2.559l-0.454-2.584c-0.288-1.641-1.729-3.621-3.201-4.402l-2.317-1.23
			c-1.473-0.779-2.079-2.643-1.348-4.139l1.154-2.359c0.732-1.496,0.732-3.943,0-5.439l-1.154-2.357
			c-0.731-1.496-0.125-3.361,1.348-4.141l2.317-1.228c1.473-0.781,2.913-2.764,3.201-4.404L8.663,6.6
			c0.288-1.641,1.874-2.791,3.526-2.559l2.598,0.367c1.65,0.232,3.981-0.523,5.18-1.682L21.854,0.905z"/>
		<g>
			<path style="fill:#FFFFFF;" d="M20.83,17.307l-2.771,4.821l-3.051,5.313l-2.549,4.435c-0.191,0.33-0.074,0.755,0.258,0.945
				l1.805,1.038c0.332,0.189,0.758,0.074,0.949-0.256l3.539-6.162l2.289-3.984l2.541-4.423c0.189-0.33,0.074-0.755-0.256-0.949
				l-1.809-1.033C21.447,16.862,21.019,16.977,20.83,17.307z"/>
			<path style="fill:#FFFFFF;" d="M38.335,22.128h-6.1c0.717,1.345,2.685,4.661,2.73,4.844h3.369c0.346,0,0.627-0.654,0.627-1
				v-3.218C38.962,22.41,38.681,22.128,38.335,22.128z"/>
			<path style="fill:#FFFFFF;" d="M23.509,22.128l-3.053,4.844h8.281c-0.6-1.187-1.396-2.414-2.467-4.844H23.509z"/>
			<path style="fill:#FFFFFF;" d="M9.591,26.973h3.969l3.053-4.844H9.591c-0.348,0-0.629,0.281-0.629,0.627v3.218
				C8.962,26.318,9.244,26.973,9.591,26.973z"/>
			<path style="fill:#FFFFFF;" d="M11.626,36.981l2.334-1.591c0.314-0.213,0.303-0.547-0.029-0.736l-1.807-1.036
				c-0.33-0.191-0.637-0.035-0.68,0.344l-0.312,2.719C11.087,37.059,11.31,37.194,11.626,36.981z"/>
			<path style="fill:#FFFFFF;" d="M33.623,27.442c-0.17-0.31-0.59-1.118-1.143-2.167c-0.006-0.014-0.012-0.027-0.02-0.041
				c-0.041-0.08-0.086-0.162-0.129-0.244c-0.031-0.06-0.062-0.121-0.096-0.181c-0.027-0.053-0.055-0.105-0.082-0.158
				c-0.049-0.092-0.098-0.185-0.148-0.281c-0.018-0.029-0.031-0.059-0.047-0.088c-0.057-0.107-0.113-0.215-0.17-0.324
				c-0.018-0.031-0.035-0.062-0.053-0.094c-1.271-2.405-2.871-5.366-3.855-6.922c-1.728-2.729-4.033-7.277-4.676-6.953
				c-0.902,0.449,1.887,6.221,2.813,8.39c0.922,2.169,4.527,10.48,5.25,10.843c0.723,0.361,1.002,0.16,1.484-0.039
				c0.484-0.201,1.35-0.869,0.906-1.675C33.648,27.491,33.634,27.465,33.623,27.442z"/>
			<path style="fill:#FFFFFF;" d="M35.718,31.793l-0.859-1.651c-0.195-0.373-0.654-0.525-1.019-0.34l-1.037,0.535
				c-0.365,0.187-0.48,0.63-0.256,0.988l1.088,1.718c0.227,0.355,0.701,0.472,1.053,0.26l0.74-0.445
				C35.783,32.644,35.914,32.165,35.718,31.793z"/>
			<path style="fill:#FFFFFF;" d="M35.453,34.182c-0.271,0.26-0.914,0.822-0.135,1.917c0.777,1.097,2.514,1.146,2.742,1.874
				C38.06,37.973,38.607,32.404,35.453,34.182z"/>
		</g>
	</g>
</g>
<g id="Layer_1">
</g>
</svg>
