<?xml version="1.0" encoding="iso-8859-1"?>
<!-- Generator: Adobe Illustrator 18.0.0, SVG Export Plug-In . SVG Version: 6.00 Build 0)  -->
<!DOCTYPE svg PUBLIC "-//W3C//DTD SVG 1.1//EN" "http://www.w3.org/Graphics/SVG/1.1/DTD/svg11.dtd">
<svg version="1.1" xmlns="http://www.w3.org/2000/svg" xmlns:xlink="http://www.w3.org/1999/xlink" x="0px" y="0px"
	 viewBox="0 0 48 48" style="enable-background:new 0 0 48 48;" xml:space="preserve">
<g id="Layer_202">
	<g>
		<path style="fill:#A7A9AC;" d="M21.854,0.903c1.197-1.158,3.16-1.158,4.357,0l1.887,1.824c1.197,1.158,3.529,1.914,5.18,1.682
			l2.598-0.367c1.652-0.234,3.238,0.918,3.525,2.559l0.453,2.584c0.289,1.641,1.73,3.621,3.203,4.402l2.318,1.23
			c1.472,0.779,2.077,2.642,1.345,4.139l-1.151,2.357c-0.734,1.498-0.734,3.945,0,5.441l1.151,2.357
			c0.732,1.496,0.127,3.359-1.345,4.141l-2.318,1.228c-1.473,0.781-2.914,2.764-3.203,4.404l-0.453,2.584
			c-0.287,1.641-1.873,2.791-3.525,2.559l-2.598-0.367c-1.65-0.232-3.982,0.521-5.18,1.682l-1.887,1.822
			c-1.197,1.16-3.16,1.16-4.357,0l-1.887-1.822c-1.199-1.16-3.529-1.914-5.18-1.682l-2.6,0.367C10.536,44.26,8.95,43.11,8.663,41.47
			l-0.455-2.584c-0.287-1.641-1.728-3.623-3.201-4.404l-2.317-1.228c-1.473-0.781-2.078-2.644-1.346-4.141l1.152-2.357
			c0.734-1.496,0.734-3.943,0-5.441l-1.152-2.357c-0.732-1.496-0.127-3.359,1.346-4.139l2.317-1.23
			c1.473-0.781,2.914-2.762,3.201-4.402l0.455-2.584c0.287-1.641,1.873-2.793,3.525-2.559l2.6,0.367
			c1.65,0.232,3.98-0.523,5.18-1.682L21.854,0.903z"/>
		<g>
			<path style="fill:#FFFFFF;" d="M19.716,38.971c1.869-0.076,2.573-1.229,4.83-1.229c2.258,0,2.892,1.229,4.866,1.191
				c2.007-0.038,3.281-1.856,4.509-3.685c1.422-2.115,2.007-4.163,2.042-4.267c-0.044-0.021-3.914-1.53-3.955-6.068
				c-0.036-3.8,3.045-5.622,3.183-5.714c-1.733-2.577-4.431-2.932-5.392-2.972c-2.295-0.237-4.477,1.376-5.641,1.376
				c-1.163,0-2.961-1.342-4.864-1.307c-2.502,0.038-4.809,1.481-6.098,3.762c-2.598,4.59-0.664,11.392,1.869,15.117
				C16.302,36.997,17.778,39.045,19.716,38.971z"/>
			<path style="fill:#FFFFFF;" d="M25.487,11.243c-0.952,1.126-1.786,2.918-1.564,4.643c1.656,0.132,3.343-0.856,4.373-2.123
				c1.027-1.27,1.723-3.034,1.533-4.79C28.348,9.033,26.552,9.976,25.487,11.243z"/>
		</g>
	</g>
</g>
<g id="Layer_1">
</g>
</svg>
