<?xml version="1.0" encoding="iso-8859-1"?>
<!-- Generator: Adobe Illustrator 18.0.0, SVG Export Plug-In . SVG Version: 6.00 Build 0)  -->
<!DOCTYPE svg PUBLIC "-//W3C//DTD SVG 1.1//EN" "http://www.w3.org/Graphics/SVG/1.1/DTD/svg11.dtd">
<svg version="1.1" xmlns="http://www.w3.org/2000/svg" xmlns:xlink="http://www.w3.org/1999/xlink" x="0px" y="0px"
	 viewBox="0 0 48 48" style="enable-background:new 0 0 48 48;" xml:space="preserve">
<g id="Layer_184">
	<g>
		<path style="fill:#98BF24;" d="M21.854,0.903c1.197-1.158,3.16-1.158,4.357,0l1.887,1.824c1.197,1.158,3.529,1.914,5.18,1.682
			l2.598-0.367c1.652-0.234,3.238,0.918,3.525,2.559l0.453,2.584c0.289,1.641,1.73,3.621,3.203,4.402l2.318,1.23
			c1.473,0.779,2.078,2.643,1.346,4.139l-1.152,2.357c-0.734,1.498-0.734,3.945,0,5.441l1.152,2.357
			c0.732,1.496,0.127,3.359-1.346,4.141l-2.318,1.229c-1.473,0.781-2.914,2.764-3.203,4.404l-0.453,2.584
			c-0.287,1.641-1.873,2.791-3.525,2.559l-2.598-0.367c-1.65-0.232-3.982,0.521-5.18,1.682l-1.887,1.822
			c-1.197,1.16-3.16,1.16-4.357,0l-1.887-1.822c-1.199-1.16-3.529-1.914-5.18-1.682l-2.598,0.367
			c-1.652,0.232-3.238-0.918-3.527-2.559L8.21,38.886c-0.289-1.641-1.728-3.623-3.201-4.404L2.69,33.253
			c-1.473-0.781-2.08-2.644-1.348-4.141l1.154-2.357c0.732-1.496,0.732-3.943,0-5.441l-1.154-2.357
			C0.61,17.46,1.217,15.597,2.69,14.817l2.318-1.23c1.473-0.781,2.912-2.762,3.201-4.402l0.453-2.584
			c0.289-1.641,1.875-2.793,3.527-2.559l2.598,0.367c1.65,0.232,3.98-0.523,5.18-1.682L21.854,0.903z"/>
		<g>
			<path style="fill:#FFFFFF;" d="M28.031,11.486l0.332-0.492l0.328-0.482l0.737-1.086c0.089-0.135,0.054-0.314-0.082-0.404
				c-0.137-0.088-0.32-0.053-0.409,0.082l-0.791,1.164l-0.332,0.49l-0.338,0.496c-1.065-0.408-2.258-0.635-3.514-0.635
				s-2.447,0.226-3.514,0.635l-0.338-0.496l-0.33-0.49l-0.791-1.164c-0.091-0.133-0.274-0.17-0.411-0.082
				c-0.133,0.09-0.171,0.269-0.079,0.404l0.735,1.086l0.328,0.482l0.334,0.492c-2.509,1.146-4.206,3.32-4.206,5.81h16.546
				C32.235,14.806,30.538,12.633,28.031,11.486z M20.418,14.974c-0.491,0-0.887-0.391-0.887-0.871c0-0.482,0.396-0.871,0.887-0.871
				c0.489,0,0.885,0.389,0.885,0.871C21.303,14.584,20.907,14.974,20.418,14.974z M27.509,14.974c-0.491,0-0.887-0.391-0.887-0.871
				c0-0.482,0.396-0.871,0.887-0.871c0.489,0,0.887,0.389,0.887,0.871C28.395,14.584,27.998,14.974,27.509,14.974z"/>
			<path style="fill:#FFFFFF;" d="M32.235,31.232V21.088v-1.182v-1.449h-0.127h-16.29h-0.129v1.449v1.182v10.145
				c0,1.014,0.839,1.84,1.872,1.84h1.35c-0.044,0.152-0.072,0.314-0.072,0.482v0.096v0.582v3c0,0.961,0.795,1.74,1.775,1.74
				c0.978,0,1.773-0.779,1.773-1.74v-3V33.65v-0.096c0-0.168-0.026-0.33-0.072-0.482h3.292c-0.044,0.152-0.07,0.314-0.07,0.482
				v0.096v0.582v3c0,0.961,0.795,1.74,1.773,1.74c0.978,0,1.773-0.779,1.773-1.74v-3V33.65v-0.096c0-0.168-0.026-0.33-0.072-0.482
				h1.352C31.397,33.072,32.235,32.246,32.235,31.232z"/>
			<path style="fill:#FFFFFF;" d="M10.962,20.199v7.453c0,0.961,0.793,1.74,1.773,1.74c0.978,0,1.773-0.779,1.773-1.74v-7.453
				c0-0.963-0.795-1.742-1.773-1.742C11.756,18.457,10.962,19.236,10.962,20.199z"/>
			<path style="fill:#FFFFFF;" d="M33.418,20.199v7.453c0,0.961,0.793,1.74,1.771,1.74c0.98,0,1.773-0.779,1.773-1.74v-7.453
				c0-0.963-0.793-1.742-1.773-1.742C34.211,18.457,33.418,19.236,33.418,20.199z"/>
		</g>
	</g>
</g>
<g id="Layer_1">
</g>
</svg>
