<?xml version="1.0" encoding="iso-8859-1"?>
<!-- Generator: Adobe Illustrator 18.0.0, SVG Export Plug-In . SVG Version: 6.00 Build 0)  -->
<!DOCTYPE svg PUBLIC "-//W3C//DTD SVG 1.1//EN" "http://www.w3.org/Graphics/SVG/1.1/DTD/svg11.dtd">
<svg version="1.1" xmlns="http://www.w3.org/2000/svg" xmlns:xlink="http://www.w3.org/1999/xlink" x="0px" y="0px"
	 viewBox="0 0 48 48" style="enable-background:new 0 0 48 48;" xml:space="preserve">
<g id="Layer_156">
	<g>
		<path style="fill:#E6501B;" d="M21.853,0.903c1.197-1.158,3.16-1.158,4.357,0l1.887,1.824c1.199,1.158,3.529,1.914,5.18,1.682
			l2.598-0.367c1.652-0.234,3.238,0.918,3.527,2.559l0.453,2.584c0.289,1.641,1.728,3.621,3.201,4.402l2.318,1.23
			c1.473,0.779,2.08,2.643,1.348,4.139l-1.154,2.357c-0.732,1.498-0.732,3.945,0,5.441l1.154,2.357
			c0.732,1.496,0.125,3.359-1.348,4.141l-2.318,1.229c-1.473,0.781-2.912,2.764-3.201,4.404l-0.453,2.584
			c-0.289,1.641-1.875,2.791-3.527,2.559l-2.598-0.367c-1.65-0.232-3.98,0.521-5.18,1.682l-1.887,1.822
			c-1.197,1.16-3.16,1.16-4.357,0l-1.887-1.822c-1.197-1.16-3.529-1.914-5.18-1.682l-2.598,0.367
			c-1.652,0.233-3.238-0.918-3.525-2.559l-0.455-2.584c-0.287-1.641-1.728-3.623-3.201-4.404l-2.318-1.229
			c-1.473-0.781-2.078-2.644-1.346-4.141l1.152-2.357c0.734-1.496,0.734-3.943,0-5.441l-1.152-2.357
			c-0.732-1.496-0.127-3.359,1.346-4.139l2.318-1.23c1.473-0.781,2.914-2.762,3.201-4.402L8.663,6.6
			c0.287-1.641,1.873-2.793,3.525-2.559l2.598,0.367c1.65,0.232,3.982-0.523,5.18-1.682L21.853,0.903z"/>
		<g>
			<path style="fill:#FFFFFF;" d="M24.458,14.975c-3.313,0-6.313,1.344-8.484,3.516c-0.18,0.182-0.355,0.369-0.525,0.561v-8.584
				c0-0.824-0.668-1.494-1.494-1.494c-0.824,0-1.494,0.67-1.494,1.494v15.699c0,0.07,0.006,0.141,0.014,0.207
				c-0.01,0.199-0.014,0.398-0.014,0.602c0,3.31,1.344,6.31,3.514,8.482c2.172,2.172,5.172,3.516,8.484,3.516
				c3.312,0,6.312-1.344,8.484-3.516c2.172-2.172,3.514-5.172,3.514-8.482c0-3.314-1.342-6.314-3.514-8.484
				C30.77,16.318,27.77,14.975,24.458,14.975z M30.829,33.344c-1.631,1.631-3.883,2.641-6.371,2.641c-2.488,0-4.74-1.01-6.371-2.641
				c-1.631-1.629-2.639-3.883-2.639-6.369c0-2.488,1.008-4.742,2.639-6.373c1.631-1.631,3.885-2.639,6.371-2.639
				c2.488,0,4.74,1.008,6.371,2.639c1.631,1.631,2.639,3.885,2.639,6.373C33.467,29.461,32.46,31.715,30.829,33.344z"/>
			<circle style="fill:#FFFFFF;" cx="20.026" cy="27.436" r="2.656"/>
		</g>
	</g>
</g>
<g id="Layer_1">
</g>
</svg>
