<?xml version="1.0" encoding="iso-8859-1"?>
<!-- Generator: Adobe Illustrator 18.0.0, SVG Export Plug-In . SVG Version: 6.00 Build 0)  -->
<!DOCTYPE svg PUBLIC "-//W3C//DTD SVG 1.1//EN" "http://www.w3.org/Graphics/SVG/1.1/DTD/svg11.dtd">
<svg version="1.1" xmlns="http://www.w3.org/2000/svg" xmlns:xlink="http://www.w3.org/1999/xlink" x="0px" y="0px"
	 viewBox="0 0 48 48" style="enable-background:new 0 0 48 48;" xml:space="preserve">
<g id="nyt_x5F_exporter_x5F_info" style="display:none;">
</g>
<g>
</g>
<g>
</g>
<g>
</g>
<g>
</g>
<g>
</g>
<g>
</g>
<g>
</g>
<g>
</g>
<g>
</g>
<g>
</g>
<g>
</g>
<g>
</g>
<g>
</g>
<g>
</g>
<g>
</g>
<g>
</g>
<g>
</g>
<g>
</g>
<g>
</g>
<g>
</g>
<g>
</g>
<g>
</g>
<g>
</g>
<g>
</g>
<g>
</g>
<g>
</g>
<g>
</g>
<g>
</g>
<g>
</g>
<g>
</g>
<g>
</g>
<g>
</g>
<g>
</g>
<g>
</g>
<g>
</g>
<g>
</g>
<g>
</g>
<g>
</g>
<g>
</g>
<g>
</g>
<g>
</g>
<g>
</g>
<g>
</g>
<g>
</g>
<g>
</g>
<g>
</g>
<g>
</g>
<g>
</g>
<g>
</g>
<g>
</g>
<g>
</g>
<g>
</g>
<g>
</g>
<g>
</g>
<g>
</g>
<g>
</g>
<g>
</g>
<g>
</g>
<g>
</g>
<g>
</g>
<g>
</g>
<g>
</g>
<g>
</g>
<g>
</g>
<g>
</g>
<g>
</g>
<g>
</g>
<g>
</g>
<g>
</g>
<g>
</g>
<g>
</g>
<g>
</g>
<g>
</g>
<g>
</g>
<g>
</g>
<g>
</g>
<g>
</g>
<g>
</g>
<g>
</g>
<g>
</g>
<g>
</g>
<g>
</g>
<g>
</g>
<g>
</g>
<g>
</g>
<g>
</g>
<g>
</g>
<g>
</g>
<g>
	<g>
		<path style="fill:#D65A02;" d="M21.822,0.868c1.197-1.158,3.16-1.158,4.358,0l1.887,1.824c1.197,1.158,3.529,1.914,5.18,1.682
			l2.598-0.367c1.652-0.234,3.238,0.918,3.525,2.559l0.453,2.584c0.289,1.641,1.73,3.621,3.203,4.402l2.318,1.23
			c1.472,0.779,2.077,2.643,1.345,4.139l-1.152,2.357c-0.733,1.498-0.733,3.945,0,5.441l1.152,2.357
			c0.733,1.496,0.127,3.359-1.345,4.141l-2.318,1.229c-1.473,0.781-2.914,2.764-3.203,4.404l-0.453,2.584
			c-0.287,1.641-1.873,2.791-3.525,2.559l-2.598-0.367c-1.65-0.232-3.983,0.522-5.18,1.682L26.18,47.13
			c-1.197,1.16-3.16,1.16-4.358,0l-1.887-1.822c-1.199-1.16-3.529-1.914-5.18-1.682l-2.6,0.367
			c-1.652,0.232-3.238-0.918-3.525-2.559l-0.455-2.584c-0.287-1.641-1.729-3.623-3.201-4.404l-2.317-1.229
			c-1.473-0.781-2.078-2.644-1.346-4.141l1.152-2.357c0.734-1.496,0.734-3.943,0-5.441l-1.152-2.357
			c-0.732-1.496-0.127-3.359,1.346-4.139l2.317-1.23c1.473-0.781,2.914-2.762,3.201-4.402l0.455-2.584
			c0.287-1.641,1.873-2.793,3.525-2.559l2.6,0.367c1.65,0.232,3.981-0.523,5.18-1.682L21.822,0.868z"/>
		<path id="Etsy_9_" style="fill:#FFFFFF;" d="M15.201,38.63c2.527-0.11,5.596,0,8.589,0c3.089,0,6.251-0.205,8.742,0
			c1.006,0.083,1.932,0.685,2.761,0.152c0.64-0.824,0.165-1.931,0.307-3.04c0.269-2.105,2.21-4.63-0.614-5.167
			c-1.203,1.096-0.392,2.137-1.073,3.495c-0.825,1.644-3.781,2.213-6.595,2.431c-2.415,0.188-6.649,0.43-7.516-1.215
			c-0.732-1.388-0.307-3.542-0.307-5.319c0-2.01-0.216-3.934,0.307-5.471c3.068,0.224,7.036-1.023,9.202,0.304
			c1.449,0.888,0.625,2.626,2.301,3.191c1.153-0.31,0.538-1.8,0.46-3.191c-0.049-0.896-0.046-2.156,0-3.191
			c0.062-1.397,0.601-3.018-0.921-3.039c-1.195,0.929-0.297,2.477-1.534,3.343c-0.395,0.277-1.254,0.394-1.839,0.457
			c-2.299,0.243-5.904,0.045-7.823-0.304c-0.264-2.801-0.242-6.617,0-9.422c1.042-1.035,3.438-1.071,5.062-1.064
			c2.845,0.011,7.282,0.248,8.129,1.672c0.461,0.775,0.096,2.396,0.921,2.583c1.66,0.379,0.853-2.582,0.921-3.951
			c0.05-1.026,0.504-1.687,0.306-2.432c-0.537-0.734-1.337-0.366-1.84-0.304C27.926,9.792,20,9.451,14.434,9.451
			c-0.665,0-1.826-0.331-2.3,0.456c-0.321,1.755,2.075,1.03,2.914,1.976c0.273,0.308,0.676,1.667,0.767,2.584
			c0.243,2.436,0,6.156,0,9.726c0,3.773,0.286,7.579,0,9.878c-0.1,0.803-0.584,2.096-0.767,2.28
			c-1.045,1.044-3.807-0.112-3.528,2.128C12.49,39.131,13.896,38.687,15.201,38.63L15.201,38.63z"/>
	</g>
</g>
<g>
</g>
</svg>
