<?xml version="1.0" encoding="iso-8859-1"?>
<!-- Generator: Adobe Illustrator 18.0.0, SVG Export Plug-In . SVG Version: 6.00 Build 0)  -->
<!DOCTYPE svg PUBLIC "-//W3C//DTD SVG 1.1//EN" "http://www.w3.org/Graphics/SVG/1.1/DTD/svg11.dtd">
<svg version="1.1" xmlns="http://www.w3.org/2000/svg" xmlns:xlink="http://www.w3.org/1999/xlink" x="0px" y="0px"
	 viewBox="0 0 48 48" style="enable-background:new 0 0 48 48;" xml:space="preserve">
<g id="nyt_x5F_exporter_x5F_info" style="display:none;">
</g>
<g>
</g>
<g>
</g>
<g>
</g>
<g>
</g>
<g>
</g>
<g>
</g>
<g>
</g>
<g>
</g>
<g>
</g>
<g>
</g>
<g>
</g>
<g>
</g>
<g>
</g>
<g>
</g>
<g>
</g>
<g>
</g>
<g>
</g>
<g>
</g>
<g>
</g>
<g>
</g>
<g>
</g>
<g>
</g>
<g>
</g>
<g>
</g>
<g>
</g>
<g>
</g>
<g>
</g>
<g>
</g>
<g>
</g>
<g>
</g>
<g>
</g>
<g>
</g>
<g>
</g>
<g>
</g>
<g>
</g>
<g>
</g>
<g>
</g>
<g>
</g>
<g>
</g>
<g>
</g>
<g>
</g>
<g>
</g>
<g>
</g>
<g>
</g>
<g>
</g>
<g>
</g>
<g>
</g>
<g>
</g>
<g>
</g>
<g>
</g>
<g>
</g>
<g>
</g>
<g>
</g>
<g>
</g>
<g>
</g>
<g>
</g>
<g>
</g>
<g>
</g>
<g>
</g>
<g>
</g>
<g>
</g>
<g>
</g>
<g>
</g>
<g>
</g>
<g>
</g>
<g>
</g>
<g>
</g>
<g>
</g>
<g>
</g>
<g>
</g>
<g>
</g>
<g>
</g>
<g>
</g>
<g>
</g>
<g>
</g>
<g>
</g>
<g>
</g>
<g>
</g>
<g>
</g>
<g>
</g>
<g>
</g>
<g>
</g>
<g>
</g>
<g>
</g>
<g>
</g>
<g>
	<g>
		<path style="fill:#2E2E2E;" d="M21.822,0.868c1.197-1.158,3.16-1.158,4.357,0l1.887,1.824c1.197,1.158,3.529,1.914,5.18,1.682
			l2.598-0.367c1.652-0.234,3.238,0.918,3.525,2.559l0.453,2.584c0.289,1.641,1.73,3.621,3.203,4.402l2.318,1.23
			c1.473,0.779,2.078,2.643,1.346,4.139l-1.152,2.357c-0.734,1.498-0.734,3.945,0,5.441l1.152,2.357
			c0.732,1.496,0.127,3.359-1.346,4.141l-2.318,1.229c-1.473,0.781-2.914,2.764-3.203,4.404l-0.453,2.584
			c-0.287,1.641-1.873,2.791-3.525,2.559l-2.598-0.367c-1.65-0.232-3.983,0.522-5.18,1.682l-1.887,1.822
			c-1.197,1.16-3.16,1.16-4.357,0l-1.887-1.822c-1.199-1.16-3.529-1.914-5.18-1.682l-2.598,0.367
			c-1.652,0.232-3.238-0.918-3.527-2.559l-0.453-2.584c-0.289-1.641-1.728-3.623-3.201-4.404l-2.318-1.229
			c-1.473-0.781-2.08-2.644-1.348-4.141l1.154-2.357c0.732-1.496,0.732-3.943,0-5.441L1.31,18.921
			c-0.732-1.496-0.125-3.359,1.348-4.139l2.318-1.23c1.473-0.781,2.912-2.762,3.201-4.402l0.453-2.584
			c0.289-1.641,1.875-2.793,3.527-2.559l2.598,0.367c1.65,0.232,3.981-0.523,5.18-1.682L21.822,0.868z"/>
		<g id="g24732_9_" transform="matrix(2.3244229,0,0,2.3244229,-1572.0456,-1430.0838)">
			<path id="path24730_9_" style="fill:#FFFFFF;" d="M691.538,620.575c0,0.807-0.653,1.461-1.458,1.461s-1.458-0.654-1.458-1.461
				s0.653-1.461,1.458-1.461S691.538,619.768,691.538,620.575z"/>
			<path id="path24702_9_" style="fill:#FFFFFF;" d="M680.744,632.011c-0.008-0.021-0.013-0.527-0.012-1.104l0.003-1.072h0.578
				h0.573c-0.011-1.535,0.011-3.093,0-4.628l-0.626-0.004l-0.599-0.004l-0.021-1.102l-0.021-1.102h0.629h0.638v-0.656
				c0-1.537,0.916-2.467,2.501-2.864c0.972-0.199,1.498-0.139,2.488-0.117l0.021,1.181l0.021,1.181h-0.657
				c-1.014,0-1.31,0.246-1.312,0.956v0.319c2.221,0,4.387,0,6.608,0c0,2.275,0,4.566,0,6.841h1.104c0,0-0.003-0.007,0,0.153
				c0.017,0.85-0.008,1.006,0,2.023c-0.024,0.024-1.224-0.004-2.643,0h-2.579v-1.081v-1.095c0.374,0,0.749,0,1.123,0
				c0-1.546,0-3.09,0-4.635c-1.044,0.012-2.682,0.006-3.613,0c-0.071,1.753-0.041,2.543,0,4.635c0.418,0.016,0.836-0.014,1.254,0
				l0.021,1.109l0.021,1.067H683.5C681.992,632.011,680.752,632.031,680.744,632.011z"/>
		</g>
	</g>
</g>
<g>
</g>
<g>
</g>
<g>
</g>
<g>
</g>
</svg>
