<?xml version="1.0" encoding="iso-8859-1"?>
<!-- Generator: Adobe Illustrator 18.0.0, SVG Export Plug-In . SVG Version: 6.00 Build 0)  -->
<!DOCTYPE svg PUBLIC "-//W3C//DTD SVG 1.1//EN" "http://www.w3.org/Graphics/SVG/1.1/DTD/svg11.dtd">
<svg version="1.1" xmlns="http://www.w3.org/2000/svg" xmlns:xlink="http://www.w3.org/1999/xlink" x="0px" y="0px"
	 viewBox="0 0 48 48" style="enable-background:new 0 0 48 48;" xml:space="preserve">
<g id="nyt_x5F_exporter_x5F_info" style="display:none;">
</g>
<g>
</g>
<g>
</g>
<g>
</g>
<g>
</g>
<g>
</g>
<g>
</g>
<g>
</g>
<g>
</g>
<g>
</g>
<g>
</g>
<g>
</g>
<g>
</g>
<g>
</g>
<g>
</g>
<g>
</g>
<g>
</g>
<g>
</g>
<g>
</g>
<g>
</g>
<g>
</g>
<g>
</g>
<g>
</g>
<g>
</g>
<g>
</g>
<g>
</g>
<g>
</g>
<g>
</g>
<g>
</g>
<g>
</g>
<g>
</g>
<g>
</g>
<g>
</g>
<g>
</g>
<g>
</g>
<g>
</g>
<g>
</g>
<g>
</g>
<g>
</g>
<g>
</g>
<g>
</g>
<g>
</g>
<g>
</g>
<g>
</g>
<g>
</g>
<g>
</g>
<g>
</g>
<g>
</g>
<g>
</g>
<g>
</g>
<g>
</g>
<g>
</g>
<g>
</g>
<g>
</g>
<g>
</g>
<g>
</g>
<g>
</g>
<g>
</g>
<g>
</g>
<g>
</g>
<g>
</g>
<g>
</g>
<g>
</g>
<g>
</g>
<g>
</g>
<g>
</g>
<g>
</g>
<g>
</g>
<g>
</g>
<g>
</g>
<g>
</g>
<g>
</g>
<g>
</g>
<g>
</g>
<g>
</g>
<g>
	<g>
		<path style="fill:#6BC45A;" d="M21.822,0.868c1.197-1.158,3.16-1.158,4.357,0l1.887,1.824c1.197,1.158,3.529,1.914,5.18,1.682
			l2.598-0.367c1.652-0.234,3.238,0.918,3.525,2.559l0.453,2.584c0.289,1.641,1.73,3.621,3.203,4.402l2.318,1.23
			c1.473,0.779,2.078,2.643,1.346,4.139l-1.152,2.357c-0.734,1.498-0.734,3.945,0,5.441l1.152,2.357
			c0.732,1.496,0.127,3.359-1.346,4.141l-2.318,1.229c-1.473,0.781-2.914,2.764-3.203,4.404l-0.453,2.584
			c-0.287,1.641-1.873,2.791-3.525,2.559l-2.598-0.367c-1.65-0.232-3.982,0.522-5.18,1.682L26.18,47.13
			c-1.197,1.16-3.16,1.16-4.357,0l-1.887-1.822c-1.199-1.16-3.529-1.914-5.18-1.682l-2.599,0.367
			c-1.652,0.232-3.237-0.918-3.525-2.559l-0.454-2.584c-0.288-1.641-1.729-3.623-3.201-4.404l-2.319-1.229
			c-1.473-0.781-2.079-2.644-1.347-4.141l1.153-2.357c0.733-1.496,0.733-3.943,0-5.441L1.31,18.921
			c-0.733-1.496-0.126-3.359,1.347-4.139l2.319-1.23c1.473-0.781,2.913-2.762,3.201-4.402l0.454-2.584
			c0.288-1.641,1.873-2.793,3.525-2.559l2.599,0.367c1.65,0.232,3.98-0.523,5.18-1.682L21.822,0.868z"/>
		<path id="WhatsApp_10_" style="fill:#FFFFFF;" d="M39,23.614c0,8.071-6.593,14.613-14.727,14.613c-2.582,0-5.008-0.66-7.119-1.818
			L9,39l2.658-7.841c-1.341-2.202-2.113-4.785-2.113-7.545C9.545,15.542,16.138,9,24.273,9C32.407,9,39,15.543,39,23.614z
			 M24.273,11.327c-6.828,0-12.382,5.512-12.382,12.287c0,2.688,0.876,5.178,2.358,7.203l-1.547,4.562l4.758-1.512
			c1.955,1.283,4.297,2.032,6.812,2.032c6.827,0,12.382-5.511,12.382-12.286C36.655,16.839,31.1,11.327,24.273,11.327z
			 M31.709,26.979c-0.091-0.149-0.331-0.239-0.692-0.418c-0.361-0.179-2.137-1.046-2.467-1.165c-0.331-0.119-0.572-0.18-0.813,0.179
			c-0.24,0.359-0.932,1.165-1.143,1.404c-0.211,0.239-0.421,0.269-0.782,0.09c-0.361-0.179-1.524-0.557-2.903-1.778
			c-1.073-0.949-1.798-2.121-2.008-2.48c-0.211-0.358-0.022-0.552,0.158-0.731c0.163-0.161,0.361-0.419,0.542-0.627
			c0.181-0.21,0.241-0.359,0.361-0.598c0.121-0.239,0.06-0.448-0.03-0.628c-0.09-0.179-0.813-1.942-1.113-2.659
			c-0.301-0.717-0.601-0.598-0.812-0.598c-0.211,0-0.451-0.03-0.692-0.03c-0.241,0-0.632,0.09-0.963,0.448
			c-0.331,0.359-1.263,1.225-1.263,2.987c0,1.763,1.293,3.466,1.474,3.705c0.18,0.238,2.497,3.973,6.166,5.408
			c3.671,1.434,3.671,0.956,4.333,0.895c0.661-0.059,2.135-0.866,2.437-1.703C31.799,27.846,31.799,27.128,31.709,26.979
			L31.709,26.979z"/>
	</g>
</g>
<g>
</g>
<g>
</g>
<g>
</g>
<g>
</g>
<g>
</g>
<g>
</g>
<g>
</g>
<g>
</g>
<g>
</g>
<g>
</g>
<g>
</g>
<g>
</g>
<g>
</g>
<g>
</g>
<g>
</g>
</svg>
