<?xml version="1.0" encoding="iso-8859-1"?>
<!-- Generator: Adobe Illustrator 18.0.0, SVG Export Plug-In . SVG Version: 6.00 Build 0)  -->
<!DOCTYPE svg PUBLIC "-//W3C//DTD SVG 1.1//EN" "http://www.w3.org/Graphics/SVG/1.1/DTD/svg11.dtd">
<svg version="1.1" xmlns="http://www.w3.org/2000/svg" xmlns:xlink="http://www.w3.org/1999/xlink" x="0px" y="0px"
	 viewBox="0 0 48 48" style="enable-background:new 0 0 48 48;" xml:space="preserve">
<g id="Layer_199">
	<g>
		<path style="fill:#E14E42;" d="M21.854,0.903c1.197-1.158,3.16-1.158,4.357,0l1.887,1.824c1.197,1.158,3.529,1.914,5.18,1.682
			l2.598-0.367c1.652-0.234,3.238,0.918,3.525,2.559l0.453,2.584c0.289,1.641,1.73,3.621,3.203,4.402l2.318,1.23
			c1.472,0.779,2.077,2.642,1.345,4.139l-1.152,2.357c-0.733,1.498-0.733,3.945,0,5.441l1.152,2.357
			c0.732,1.496,0.127,3.359-1.345,4.141l-2.318,1.228c-1.473,0.781-2.914,2.764-3.203,4.404l-0.453,2.584
			c-0.287,1.641-1.873,2.791-3.525,2.559l-2.598-0.367c-1.65-0.232-3.982,0.521-5.18,1.682l-1.887,1.822
			c-1.197,1.16-3.16,1.16-4.357,0l-1.887-1.822c-1.199-1.16-3.529-1.914-5.18-1.682l-2.6,0.367C10.536,44.26,8.95,43.11,8.663,41.47
			l-0.455-2.584c-0.287-1.641-1.729-3.623-3.201-4.404l-2.317-1.228c-1.473-0.781-2.078-2.644-1.346-4.141l1.152-2.357
			c0.734-1.496,0.734-3.943,0-5.441l-1.152-2.357c-0.732-1.496-0.127-3.359,1.346-4.139l2.317-1.23
			c1.473-0.781,2.914-2.762,3.201-4.402l0.455-2.584c0.287-1.641,1.873-2.793,3.525-2.559l2.6,0.367
			c1.65,0.232,3.98-0.523,5.18-1.682L21.854,0.903z"/>
		<g>
			<path style="fill:#FFFFFF;" d="M31.986,29.162c-0.24,0-0.414,0.071-0.518,0.215c-0.107,0.137-0.158,0.37-0.158,0.696v0.785h1.342
				v-0.785c0-0.325-0.055-0.559-0.16-0.696C32.39,29.233,32.218,29.162,31.986,29.162z"/>
			<g>
				<path style="fill:#FFFFFF;" d="M26.753,29.136c-0.108,0-0.217,0.024-0.322,0.075c-0.105,0.05-0.209,0.131-0.312,0.238v4.836
					c0.123,0.125,0.242,0.221,0.359,0.277c0.117,0.053,0.238,0.083,0.367,0.083c0.185,0,0.322-0.055,0.41-0.166
					c0.086-0.11,0.131-0.287,0.131-0.535v-4.008c0-0.264-0.053-0.461-0.158-0.597C27.117,29.204,26.958,29.136,26.753,29.136z"/>
				<g>
					<path style="fill:#FFFFFF;" d="M33.482,22.973H14.443c-3.027,0-5.48,2.8-5.48,5.894v4.503c0,3.094,2.453,5.603,5.48,5.603
						h19.039c3.027,0,5.48-2.509,5.48-5.603v-4.503C38.962,25.773,36.509,22.973,33.482,22.973z M18.443,26.768h-1.769v8.992h-1.711
						v-8.992h-1.767v-1.53h5.248V26.768z M23.443,35.76h-1.518v-0.851c-0.281,0.314-0.57,0.555-0.875,0.717
						c-0.303,0.169-0.596,0.249-0.883,0.249c-0.351,0-0.613-0.115-0.791-0.347c-0.176-0.232-0.268-0.575-0.268-1.04v-6.49h1.518
						v5.955c0,0.184,0.033,0.316,0.094,0.397c0.066,0.085,0.17,0.124,0.312,0.124c0.109,0,0.252-0.054,0.424-0.163
						c0.17-0.11,0.328-0.249,0.469-0.417v-5.897h1.518V35.76z M28.951,34.157c0,0.548-0.119,0.97-0.357,1.264
						c-0.236,0.294-0.582,0.438-1.031,0.438c-0.299,0-0.563-0.055-0.795-0.169c-0.23-0.112-0.449-0.286-0.648-0.525v0.594h-1.533
						V25.239h1.533v3.389c0.207-0.236,0.424-0.416,0.65-0.538c0.232-0.126,0.465-0.186,0.701-0.186c0.48,0,0.848,0.164,1.1,0.495
						c0.254,0.331,0.381,0.815,0.381,1.451V34.157z M34.212,32.066H31.31v1.463c0,0.408,0.049,0.692,0.148,0.851
						c0.1,0.159,0.271,0.236,0.516,0.236c0.252,0,0.426-0.067,0.527-0.201c0.098-0.136,0.15-0.429,0.15-0.886v-0.353h1.56v0.398
						c0,0.796-0.188,1.395-0.572,1.799c-0.377,0.4-0.945,0.6-1.701,0.6c-0.682,0-1.219-0.213-1.607-0.64
						c-0.389-0.423-0.586-1.011-0.586-1.759v-3.487c0-0.671,0.215-1.223,0.646-1.646c0.428-0.423,0.979-0.635,1.66-0.635
						c0.695,0,1.228,0.197,1.602,0.589c0.373,0.393,0.558,0.957,0.558,1.692V32.066z"/>
					<polygon style="fill:#FFFFFF;" points="14.646,8.973 16.935,15.974 16.935,20.565 18.859,20.565 18.859,15.756 21.099,8.973 
						19.142,8.973 17.953,13.607 17.832,13.607 16.582,8.973 					"/>
					<path style="fill:#FFFFFF;" d="M21.925,12.386c-0.457,0.392-0.687,0.918-0.687,1.583v4.432c0,0.727,0.225,1.303,0.67,1.734
						c0.451,0.429,1.049,0.646,1.797,0.646c0.775,0,1.385-0.209,1.83-0.625c0.439-0.418,0.662-0.989,0.662-1.721v-4.417
						c0-0.651-0.226-1.187-0.676-1.6c-0.453-0.412-1.031-0.62-1.74-0.62C23.005,11.798,22.386,11.995,21.925,12.386z M24.457,13.904
						v4.66c0,0.229-0.07,0.409-0.205,0.541c-0.137,0.131-0.322,0.196-0.553,0.196c-0.227,0-0.4-0.062-0.521-0.194
						c-0.121-0.129-0.182-0.309-0.182-0.543v-4.66c0-0.186,0.066-0.335,0.193-0.453c0.133-0.115,0.301-0.171,0.51-0.171
						c0.226,0,0.408,0.056,0.547,0.171C24.386,13.568,24.457,13.718,24.457,13.904z"/>
					<path style="fill:#FFFFFF;" d="M32.458,20.565v-8.55H30.75v6.491c-0.158,0.186-0.334,0.338-0.525,0.46
						c-0.195,0.12-0.354,0.18-0.479,0.18c-0.16,0-0.277-0.045-0.348-0.138c-0.07-0.09-0.109-0.236-0.109-0.437v-6.555h-1.707v7.147
						c0,0.51,0.102,0.891,0.301,1.143c0.201,0.256,0.496,0.385,0.892,0.385c0.322,0,0.65-0.093,0.99-0.274
						c0.344-0.183,0.672-0.449,0.984-0.798v0.946H32.458z"/>
				</g>
			</g>
		</g>
	</g>
</g>
<g id="Layer_1">
</g>
</svg>
