<?xml version="1.0" encoding="iso-8859-1"?>
<!-- Generator: Adobe Illustrator 18.0.0, SVG Export Plug-In . SVG Version: 6.00 Build 0)  -->
<!DOCTYPE svg PUBLIC "-//W3C//DTD SVG 1.1//EN" "http://www.w3.org/Graphics/SVG/1.1/DTD/svg11.dtd">
<svg version="1.1" xmlns="http://www.w3.org/2000/svg" xmlns:xlink="http://www.w3.org/1999/xlink" x="0px" y="0px"
	 viewBox="0 0 48 48" style="enable-background:new 0 0 48 48;" xml:space="preserve">
<g id="Layer_171">
	<g>
		<path style="fill:#376534;" d="M21.853,0.905c1.197-1.16,3.16-1.16,4.357,0l1.887,1.822c1.199,1.158,3.529,1.914,5.18,1.682
			l2.598-0.367c1.652-0.232,3.238,0.918,3.527,2.559l0.453,2.584c0.289,1.641,1.729,3.623,3.201,4.404l2.318,1.228
			c1.473,0.779,2.08,2.644,1.348,4.141l-1.154,2.357c-0.732,1.496-0.732,3.943,0,5.439l1.154,2.359
			c0.732,1.496,0.125,3.359-1.348,4.139l-2.318,1.23c-1.473,0.781-2.912,2.762-3.201,4.402l-0.453,2.584
			c-0.289,1.641-1.875,2.793-3.527,2.559l-2.598-0.367c-1.65-0.232-3.98,0.523-5.18,1.682l-1.887,1.824
			c-1.197,1.158-3.16,1.158-4.357,0l-1.887-1.824c-1.197-1.158-3.529-1.914-5.18-1.682l-2.598,0.367
			c-1.652,0.234-3.238-0.918-3.525-2.559l-0.455-2.584c-0.287-1.641-1.729-3.621-3.201-4.402l-2.318-1.23
			c-1.473-0.779-2.078-2.643-1.346-4.139l1.152-2.359c0.734-1.496,0.734-3.943,0-5.439l-1.152-2.357
			c-0.732-1.496-0.127-3.361,1.346-4.141l2.318-1.228c1.473-0.781,2.914-2.764,3.201-4.404L8.663,6.6
			c0.287-1.641,1.873-2.791,3.525-2.559l2.598,0.367c1.65,0.232,3.982-0.523,5.18-1.682L21.853,0.905z"/>
		<g>
			<path style="fill:#FFFFFF;" d="M28.688,17.563c0.329,0.198,0.708,0.313,1.12,0.313c1.189,0,2.155-0.951,2.155-2.124
				c0-1.172-0.965-2.126-2.155-2.126c-1.191,0-2.157,0.954-2.157,2.126c0,0.099,0.008,0.198,0.022,0.294l-2.66,1.898V8.973h-2.099
				v4.734l-2.68-1.907c0.026-0.126,0.04-0.256,0.04-0.392c0-1.172-0.967-2.124-2.157-2.124c-1.191,0-2.155,0.952-2.155,2.124
				c0,1.174,0.963,2.127,2.155,2.127c0.375,0,0.729-0.097,1.037-0.262l3.76,2.679v5.915l-2.674-1.908
				c0.022-0.115,0.034-0.236,0.034-0.355c0-1.178-0.967-2.128-2.157-2.128c-1.191,0-2.155,0.95-2.155,2.128
				c0,1.171,0.963,2.121,2.155,2.121c0.387,0,0.751-0.1,1.064-0.276l3.732,2.661v6.305l-2.67-1.904
				c0.018-0.113,0.03-0.229,0.03-0.348c0-1.176-0.967-2.126-2.157-2.126c-1.191,0-2.155,0.95-2.155,2.126
				c0,1.172,0.963,2.123,2.155,2.123c0.391,0,0.755-0.105,1.072-0.282l3.725,2.655v6.315h0.172h1.843h0.083v-2.08l3.639-2.597
				c0.333,0.207,0.727,0.332,1.156,0.332c1.189,0,2.155-0.951,2.155-2.125c0-1.174-0.965-2.125-2.155-2.125
				c-1.191,0-2.157,0.951-2.157,2.125c0,0.084,0.008,0.17,0.014,0.253l-2.652,1.894v-6.305l3.645-2.603
				c0.335,0.206,0.726,0.328,1.15,0.328c1.189,0,2.155-0.951,2.155-2.125c0-1.174-0.965-2.127-2.155-2.127
				c-1.191,0-2.157,0.953-2.157,2.127c0,0.088,0.008,0.174,0.018,0.263l-2.656,1.893v-5.912L28.688,17.563z"/>
		</g>
	</g>
</g>
<g id="Layer_1">
</g>
</svg>
