<?xml version="1.0" encoding="iso-8859-1"?>
<!-- Generator: Adobe Illustrator 18.0.0, SVG Export Plug-In . SVG Version: 6.00 Build 0)  -->
<!DOCTYPE svg PUBLIC "-//W3C//DTD SVG 1.1//EN" "http://www.w3.org/Graphics/SVG/1.1/DTD/svg11.dtd">
<svg version="1.1" xmlns="http://www.w3.org/2000/svg" xmlns:xlink="http://www.w3.org/1999/xlink" x="0px" y="0px"
	 viewBox="0 0 48 48" style="enable-background:new 0 0 48 48;" xml:space="preserve">
<g id="nyt_x5F_exporter_x5F_info" style="display:none;">
</g>
<g>
</g>
<g>
</g>
<g>
</g>
<g>
</g>
<g>
</g>
<g>
</g>
<g>
</g>
<g>
</g>
<g>
</g>
<g>
</g>
<g>
</g>
<g>
</g>
<g>
</g>
<g>
</g>
<g>
</g>
<g>
</g>
<g>
</g>
<g>
</g>
<g>
</g>
<g>
</g>
<g>
</g>
<g>
</g>
<g>
</g>
<g>
</g>
<g>
</g>
<g>
</g>
<g>
</g>
<g>
</g>
<g>
</g>
<g>
</g>
<g>
</g>
<g>
</g>
<g>
</g>
<g>
</g>
<g>
</g>
<g>
</g>
<g>
</g>
<g>
</g>
<g>
</g>
<g>
</g>
<g>
</g>
<g>
</g>
<g>
</g>
<g>
</g>
<g>
</g>
<g>
</g>
<g>
</g>
<g>
</g>
<g>
</g>
<g>
</g>
<g>
</g>
<g>
</g>
<g>
</g>
<g>
</g>
<g>
</g>
<g>
</g>
<g>
</g>
<g>
</g>
<g>
</g>
<g>
</g>
<g>
</g>
<g>
</g>
<g>
</g>
<g>
</g>
<g>
</g>
<g>
</g>
<g>
</g>
<g>
</g>
<g>
</g>
<g>
</g>
<g>
</g>
<g>
</g>
<g>
</g>
<g>
</g>
<g>
</g>
<g>
</g>
<g>
</g>
<g>
</g>
<g>
	<g>
		<path style="fill:#303030;" d="M21.822,0.868c1.197-1.158,3.16-1.158,4.357,0l1.887,1.824c1.197,1.158,3.529,1.914,5.18,1.682
			l2.598-0.367c1.652-0.234,3.238,0.918,3.525,2.559l0.453,2.584c0.289,1.641,1.73,3.621,3.203,4.402l2.318,1.23
			c1.473,0.779,2.078,2.643,1.346,4.139l-1.152,2.357c-0.734,1.498-0.734,3.945,0,5.441l1.152,2.357
			c0.732,1.496,0.127,3.359-1.346,4.141l-2.318,1.229c-1.473,0.781-2.914,2.764-3.203,4.404l-0.453,2.584
			c-0.287,1.641-1.873,2.791-3.525,2.559l-2.598-0.367c-1.65-0.232-3.982,0.522-5.18,1.682L26.18,47.13
			c-1.197,1.16-3.16,1.16-4.357,0l-1.887-1.822c-1.199-1.16-3.529-1.914-5.18-1.682l-2.6,0.367
			c-1.652,0.232-3.238-0.918-3.525-2.559l-0.455-2.584c-0.287-1.641-1.728-3.623-3.201-4.404l-2.318-1.229
			c-1.473-0.781-2.078-2.644-1.346-4.141l1.152-2.357c0.734-1.496,0.734-3.943,0-5.441l-1.152-2.357
			c-0.732-1.496-0.127-3.359,1.346-4.139l2.318-1.23c1.473-0.781,2.914-2.762,3.201-4.402l0.455-2.584
			c0.287-1.641,1.873-2.793,3.525-2.559l2.6,0.367c1.65,0.232,3.98-0.523,5.18-1.682L21.822,0.868z"/>
		<path id="Steam_9_" style="fill:#FFFFFF;" d="M36.755,20.108c0,1.556-1.243,2.818-2.776,2.818c-1.535,0-2.777-1.262-2.777-2.818
			c0-1.556,1.242-2.818,2.777-2.818C35.512,17.29,36.755,18.552,36.755,20.108z M35.637,24.869l-3.362,2.919
			c0.036,0.233,0.061,0.47,0.061,0.712c0,2.485-1.985,4.499-4.432,4.499c-2.111,0-3.874-1.499-4.321-3.505l-8.31-2.862
			c-0.657,0.506-1.473,0.81-2.361,0.81c-2.16,0-3.911-1.778-3.911-3.971c0-2.192,1.751-3.969,3.911-3.969
			c1.857,0,3.409,1.314,3.809,3.075l8.028,2.765c0.782-0.804,1.86-1.309,3.055-1.336l1.202-3.71
			c-0.003-0.074-0.011-0.146-0.011-0.221c0-2.804,2.24-5.076,5.002-5.076C36.76,15,39,17.273,39,20.076
			C39,22.297,37.593,24.18,35.637,24.869L35.637,24.869z M15.371,22.113c-0.467-0.854-1.364-1.432-2.395-1.432
			c-1.513,0-2.739,1.245-2.739,2.78c0,1.535,1.226,2.779,2.739,2.779c0.28,0,0.549-0.043,0.803-0.122l-1.301-0.448
			c-1.049-0.57-1.443-1.895-0.882-2.959c0.562-1.064,1.867-1.464,2.915-0.894L15.371,22.113z M30.096,20.088
			c0,2.178,1.739,3.943,3.885,3.943c2.146,0,3.886-1.765,3.886-3.943c0-2.179-1.741-3.944-3.886-3.944
			C31.835,16.144,30.096,17.91,30.096,20.088z M30.173,28.887c0-1.658-1.324-3.002-2.958-3.002c-0.229,0-0.45,0.029-0.664,0.079
			l1.653,0.569c1.048,0.57,1.442,1.895,0.88,2.958c-0.562,1.065-1.867,1.465-2.915,0.895l-1.781-0.614
			c0.372,1.226,1.497,2.117,2.827,2.117C28.848,31.889,30.173,30.544,30.173,28.887L30.173,28.887z"/>
	</g>
</g>
<g>
</g>
<g>
</g>
<g>
</g>
<g>
</g>
<g>
</g>
<g>
</g>
<g>
</g>
<g>
</g>
<g>
</g>
<g>
</g>
<g>
</g>
</svg>
