<?xml version="1.0" encoding="iso-8859-1"?>
<!-- Generator: Adobe Illustrator 18.0.0, SVG Export Plug-In . SVG Version: 6.00 Build 0)  -->
<!DOCTYPE svg PUBLIC "-//W3C//DTD SVG 1.1//EN" "http://www.w3.org/Graphics/SVG/1.1/DTD/svg11.dtd">
<svg version="1.1" xmlns="http://www.w3.org/2000/svg" xmlns:xlink="http://www.w3.org/1999/xlink" x="0px" y="0px"
	 viewBox="0 0 48 48" style="enable-background:new 0 0 48 48;" xml:space="preserve">
<g id="Layer_206">
	<g>
		<path style="fill:#DA001C;" d="M21.854,0.903c1.197-1.158,3.16-1.158,4.357,0l1.887,1.824c1.197,1.158,3.529,1.914,5.18,1.682
			l2.598-0.367c1.652-0.234,3.238,0.918,3.525,2.559l0.453,2.584c0.289,1.641,1.73,3.621,3.203,4.402l2.318,1.23
			c1.473,0.779,2.078,2.642,1.346,4.139l-1.152,2.357c-0.734,1.498-0.734,3.945,0,5.441l1.152,2.357
			c0.732,1.496,0.127,3.359-1.346,4.141l-2.318,1.228c-1.473,0.781-2.914,2.764-3.203,4.404l-0.453,2.584
			c-0.287,1.641-1.873,2.791-3.525,2.559l-2.598-0.367c-1.65-0.232-3.982,0.521-5.18,1.682l-1.887,1.822
			c-1.197,1.16-3.16,1.16-4.357,0l-1.887-1.822c-1.199-1.16-3.529-1.914-5.18-1.682l-2.598,0.367
			c-1.652,0.232-3.238-0.918-3.526-2.559l-0.454-2.584c-0.288-1.641-1.728-3.623-3.201-4.404L2.69,33.253
			c-1.473-0.781-2.079-2.644-1.347-4.141l1.153-2.357c0.733-1.496,0.733-3.943,0-5.441l-1.153-2.357
			c-0.732-1.496-0.126-3.359,1.347-4.139l2.318-1.23c1.473-0.781,2.913-2.762,3.201-4.402l0.454-2.584
			c0.288-1.641,1.874-2.793,3.526-2.559l2.598,0.367c1.65,0.232,3.98-0.523,5.18-1.682L21.854,0.903z"/>
		<g>
			<path style="fill:#FFFFFF;" d="M32.712,30.148c-2.08-0.07-2.713-1.171-3.506-2.973c-1.342-3.053-2.869-6.619-2.883-6.653
				c-1.533-3.528-4.572-5.549-8.338-5.549c-4.977,0-9.023,4.038-9.023,9.001c0,4.961,4.047,8.999,9.023,8.999
				c2.713,0,5.256-1.2,6.977-3.293c0.051-0.061,0.063-0.143,0.031-0.215l-1.137-2.618c-0.033-0.073-0.106-0.122-0.186-0.125
				c-0.082-0.004-0.156,0.041-0.193,0.111c-1.072,2.047-3.178,3.318-5.492,3.318c-3.414,0-6.191-2.771-6.191-6.178
				s2.777-6.177,6.191-6.177c2.484,0,4.762,1.471,5.668,3.666l2.812,6.4l0.324,0.719c1.273,2.955,3.141,4.279,6.068,4.29
				c3.48,0,6.103-2.3,6.103-5.349c0-3.063-1.697-4.211-4.627-5.165c-0.264-0.086-0.518-0.166-0.762-0.243
				c-1.869-0.585-2.994-0.939-2.994-2.389c0-1.175,0.908-2.028,2.162-2.028c0.961,0,1.676,0.398,2.318,1.294
				c0.061,0.083,0.172,0.113,0.266,0.064l1.887-0.959c0.049-0.025,0.088-0.071,0.104-0.126c0.018-0.055,0.01-0.113-0.018-0.164
				c-1.01-1.788-2.465-2.658-4.451-2.658c-3.021,0-4.975,1.822-4.975,4.643c0,2.885,1.889,4.052,5.373,5.195
				c2.019,0.672,2.912,1.027,2.912,2.46C36.158,29.058,34.701,30.217,32.712,30.148z"/>
		</g>
	</g>
</g>
<g id="Layer_1">
</g>
</svg>
