<?xml version="1.0" encoding="iso-8859-1"?>
<!-- Generator: Adobe Illustrator 18.0.0, SVG Export Plug-In . SVG Version: 6.00 Build 0)  -->
<!DOCTYPE svg PUBLIC "-//W3C//DTD SVG 1.1//EN" "http://www.w3.org/Graphics/SVG/1.1/DTD/svg11.dtd">
<svg version="1.1" xmlns="http://www.w3.org/2000/svg" xmlns:xlink="http://www.w3.org/1999/xlink" x="0px" y="0px"
	 viewBox="0 0 48 48" style="enable-background:new 0 0 48 48;" xml:space="preserve">
<g id="Layer_180">
	<g>
		<path style="fill:#546B9F;" d="M21.853,0.905c1.197-1.16,3.16-1.16,4.357,0l1.887,1.822c1.199,1.158,3.529,1.914,5.18,1.682
			l2.598-0.367c1.652-0.232,3.238,0.918,3.527,2.559l0.453,2.584c0.289,1.641,1.728,3.623,3.201,4.404l2.318,1.228
			c1.472,0.779,2.079,2.644,1.347,4.141l-1.153,2.357c-0.732,1.496-0.732,3.943,0,5.439l1.153,2.359
			c0.732,1.496,0.125,3.359-1.347,4.139l-2.318,1.23c-1.473,0.781-2.912,2.762-3.201,4.402l-0.453,2.584
			c-0.289,1.641-1.875,2.793-3.527,2.559l-2.598-0.367c-1.65-0.232-3.98,0.523-5.18,1.682l-1.887,1.824
			c-1.197,1.158-3.16,1.158-4.357,0l-1.887-1.824c-1.197-1.158-3.529-1.914-5.18-1.682l-2.598,0.367
			c-1.652,0.234-3.238-0.918-3.525-2.559l-0.455-2.584c-0.287-1.641-1.728-3.621-3.201-4.402l-2.318-1.23
			c-1.473-0.779-2.077-2.643-1.346-4.139l1.152-2.359c0.734-1.496,0.734-3.943,0-5.439l-1.152-2.357
			c-0.731-1.496-0.127-3.361,1.346-4.141l2.318-1.228c1.473-0.781,2.914-2.764,3.201-4.404L8.663,6.6
			c0.287-1.641,1.873-2.791,3.525-2.559l2.598,0.367c1.65,0.232,3.982-0.523,5.18-1.682L21.853,0.905z"/>
		<g>
			<path style="fill:#FFFFFF;" d="M16.41,14.973h-2.934v4.187H8.962v9.587h7.447V14.973z M13.476,26.169h-1.529v-4.356h1.529V26.169
				z"/>
			<path style="fill:#FFFFFF;" d="M29.968,32.973V19.198h-7.447v9.585h4.518v1.499H22.47v2.69h6.203H29.968z M27.039,26.132h-1.531
				v-4.358h1.531V26.132z"/>
			<path style="fill:#FFFFFF;" d="M31.517,28.784h4.512v1.499h-4.564v2.69h6.203h1.295V19.198h-7.445V28.784z M34.503,21.774h1.525
				v4.358h-1.525V21.774z"/>
			<rect x="17.921" y="19.141" style="fill:#FFFFFF;" width="3.037" height="9.643"/>
			<rect x="17.921" y="15.141" style="fill:#FFFFFF;" width="3.037" height="2.615"/>
		</g>
	</g>
</g>
<g id="Layer_1">
</g>
</svg>
