<?xml version="1.0" encoding="iso-8859-1"?>
<!-- Generator: Adobe Illustrator 18.0.0, SVG Export Plug-In . SVG Version: 6.00 Build 0)  -->
<!DOCTYPE svg PUBLIC "-//W3C//DTD SVG 1.1//EN" "http://www.w3.org/Graphics/SVG/1.1/DTD/svg11.dtd">
<svg version="1.1" xmlns="http://www.w3.org/2000/svg" xmlns:xlink="http://www.w3.org/1999/xlink" x="0px" y="0px"
	 viewBox="0 0 48 48" style="enable-background:new 0 0 48 48;" xml:space="preserve">
<g id="Layer_179">
	<g>
		<path style="fill:#464442;" d="M21.853,0.905c1.197-1.16,3.16-1.16,4.357,0l1.887,1.822c1.198,1.158,3.529,1.914,5.18,1.682
			l2.598-0.367c1.652-0.232,3.238,0.918,3.526,2.559l0.453,2.584c0.289,1.641,1.729,3.623,3.202,4.404l2.318,1.228
			c1.473,0.779,2.079,2.644,1.347,4.141l-1.153,2.357c-0.733,1.496-0.733,3.943,0,5.439l1.153,2.359
			c0.732,1.496,0.126,3.359-1.347,4.139l-2.318,1.23c-1.473,0.781-2.913,2.762-3.202,4.402l-0.453,2.584
			c-0.288,1.641-1.874,2.793-3.526,2.559l-2.598-0.367c-1.65-0.232-3.981,0.523-5.18,1.682l-1.887,1.824
			c-1.197,1.158-3.16,1.158-4.357,0l-1.887-1.824c-1.198-1.158-3.529-1.914-5.18-1.682l-2.598,0.367
			c-1.652,0.234-3.238-0.918-3.526-2.559l-0.454-2.584c-0.288-1.641-1.728-3.621-3.201-4.402l-2.318-1.23
			c-1.473-0.779-2.079-2.643-1.347-4.139l1.153-2.359c0.733-1.496,0.733-3.943,0-5.439l-1.153-2.357
			c-0.732-1.496-0.126-3.361,1.347-4.141l2.318-1.228c1.473-0.781,2.913-2.764,3.201-4.404L8.663,6.6
			c0.288-1.641,1.874-2.791,3.526-2.559l2.598,0.367c1.65,0.232,3.981-0.523,5.18-1.682L21.853,0.905z"/>
		<g>
			<path style="fill:#FFFFFF;" d="M30.592,9.942c-1.736-0.902-3.604-1.385-5.559-1.514c-0.098-0.007-0.195-0.037-0.291-0.059
				c-0.519,0-1.039,0-1.559,0c-0.473,0.061-0.951,0.106-1.422,0.184c-5.049,0.842-8.766,3.545-11.162,8.053
				c-0.941,1.774-1.445,3.687-1.578,5.693c-0.008,0.099-0.039,0.195-0.059,0.29c0,0.52,0,1.039,0,1.561
				c0.059,0.463,0.104,0.929,0.18,1.388c0.844,5.111,3.584,8.856,8.162,11.249c1.744,0.909,3.621,1.395,5.588,1.525
				c0.098,0.006,0.193,0.039,0.291,0.058c0.519,0,1.039,0,1.559,0c0.463-0.059,0.93-0.102,1.389-0.181
				c5.086-0.837,8.822-3.559,11.221-8.108c0.926-1.759,1.42-3.654,1.551-5.642c0.008-0.097,0.041-0.193,0.059-0.289
				c0-0.521,0-1.041,0-1.561c-0.059-0.462-0.102-0.929-0.178-1.389C37.936,16.078,35.188,12.329,30.592,9.942z M17.997,35.483
				c-2.955-1.502-5.144-3.753-6.443-6.817c-1.514-3.574-1.447-7.163,0.043-10.727c0.027,0,0.055,0.002,0.084,0.002
				c2.129,5.832,4.258,11.665,6.385,17.496C18.043,35.452,18.02,35.468,17.997,35.483z M20.137,36.315
				c1.348-3.914,2.686-7.799,4.021-11.685c0.027-0.003,0.055-0.003,0.082-0.003c1.391,3.81,2.781,7.616,4.191,11.479
				C25.69,37.049,22.952,37.118,20.137,36.315z M30.684,31.551c-1.637-4.872-3.252-9.668-4.877-14.507
				c0.408-0.035,0.781-0.067,1.154-0.103c0.139-0.011,0.279-0.022,0.416-0.049c0.324-0.059,0.5-0.282,0.475-0.582
				c-0.029-0.312-0.252-0.506-0.602-0.488c-0.779,0.04-1.559,0.129-2.336,0.125c-1.467-0.006-2.936-0.063-4.402-0.101
				c-0.139-0.004-0.279-0.028-0.418-0.024c-0.307,0.008-0.502,0.2-0.529,0.503c-0.027,0.305,0.129,0.52,0.445,0.563
				c0.375,0.052,0.754,0.095,1.131,0.11c0.229,0.011,0.354,0.075,0.436,0.309c0.627,1.746,1.271,3.487,1.9,5.231
				c0.049,0.131,0.078,0.303,0.035,0.427c-0.935,2.833-1.881,5.661-2.826,8.491c-0.012,0.038-0.027,0.071-0.111,0.126
				c-1.625-4.828-3.248-9.659-4.889-14.542c0.422-0.035,0.785-0.067,1.152-0.1c0.119-0.009,0.238-0.017,0.357-0.037
				c0.395-0.066,0.561-0.265,0.524-0.625c-0.035-0.315-0.258-0.478-0.652-0.455c-0.797,0.043-1.596,0.107-2.394,0.138
				c-0.635,0.022-1.271,0.004-1.998,0.004c1.963-2.873,4.541-4.803,7.855-5.641c4.67-1.181,8.822-0.081,12.557,3.062
				c-0.217,0.026-0.346,0.038-0.477,0.059c-1.262,0.21-2.121,1.395-1.951,2.661c0.084,0.617,0.312,1.175,0.617,1.707
				c0.322,0.563,0.666,1.113,0.978,1.684c0.891,1.636,1.053,3.352,0.525,5.132c-0.668,2.247-1.348,4.49-2.023,6.736
				C30.749,31.4,30.731,31.432,30.684,31.551z M37.321,25.269c-0.639,4.249-2.869,7.46-6.476,9.728
				c-0.029-0.015-0.057-0.027-0.084-0.042c0.068-0.205,0.137-0.412,0.207-0.615c1.281-3.705,2.553-7.412,3.85-11.112
				c0.371-1.064,0.748-2.126,0.922-3.246c0.152-0.983,0.17-1.967,0.1-2.96C37.239,19.607,37.758,22.366,37.321,25.269z"/>
		</g>
	</g>
</g>
<g id="Layer_1">
</g>
</svg>
