<?xml version="1.0" encoding="iso-8859-1"?>
<!-- Generator: Adobe Illustrator 18.0.0, SVG Export Plug-In . SVG Version: 6.00 Build 0)  -->
<!DOCTYPE svg PUBLIC "-//W3C//DTD SVG 1.1//EN" "http://www.w3.org/Graphics/SVG/1.1/DTD/svg11.dtd">
<svg version="1.1" xmlns="http://www.w3.org/2000/svg" xmlns:xlink="http://www.w3.org/1999/xlink" x="0px" y="0px"
	 viewBox="0 0 48 48" style="enable-background:new 0 0 48 48;" xml:space="preserve">
<g id="Layer_164">
	<g>
		<path style="fill:#E3AC3C;" d="M21.854,0.905c1.197-1.16,3.16-1.16,4.357,0l1.887,1.822c1.197,1.158,3.529,1.914,5.18,1.682
			l2.598-0.367c1.652-0.232,3.238,0.918,3.525,2.559l0.453,2.584c0.289,1.641,1.73,3.623,3.203,4.404l2.318,1.228
			c1.473,0.779,2.078,2.644,1.346,4.141l-1.152,2.357c-0.734,1.496-0.734,3.943,0,5.439l1.152,2.359
			c0.732,1.496,0.127,3.359-1.346,4.139l-2.318,1.23c-1.473,0.781-2.914,2.762-3.203,4.402l-0.453,2.584
			c-0.287,1.641-1.873,2.793-3.525,2.559l-2.598-0.367c-1.65-0.232-3.982,0.523-5.18,1.682l-1.887,1.824
			c-1.197,1.158-3.16,1.158-4.357,0l-1.887-1.824c-1.199-1.158-3.529-1.914-5.18-1.682l-2.598,0.367
			c-1.652,0.234-3.238-0.918-3.527-2.559L8.21,38.885c-0.289-1.641-1.728-3.621-3.201-4.402l-2.318-1.23
			c-1.473-0.779-2.08-2.643-1.348-4.139l1.154-2.359c0.732-1.496,0.732-3.943,0-5.439l-1.154-2.357
			c-0.732-1.496-0.125-3.361,1.348-4.141l2.318-1.228c1.473-0.781,2.912-2.764,3.201-4.404L8.663,6.6
			c0.289-1.641,1.875-2.791,3.527-2.559l2.598,0.367c1.65,0.232,3.98-0.523,5.18-1.682L21.854,0.905z"/>
		<g>
			<rect x="8.963" y="17.973" style="fill:#FFFFFF;" width="2.914" height="12"/>
			<polygon style="fill:#FFFFFF;" points="15.961,23.237 17.197,29.973 18.998,29.973 20.201,23.237 20.201,29.973 22.689,29.973 
				22.689,17.973 18.738,17.973 18.062,23.633 17.086,17.973 13.336,17.973 13.336,29.973 15.961,29.973 			"/>
			<path style="fill:#FFFFFF;" d="M27.488,17.973h-3.26v12h3.277c1.863,0,2.488-0.207,3.006-0.623
				c0.519-0.416,0.779-0.998,0.779-1.745v-7.263c0-0.804-0.277-1.4-0.832-1.787C29.902,18.167,29.431,17.973,27.488,17.973z
				 M28.162,27.455c0,0.567-0.629,0.491-1.127,0.491v-8.059c0.498,0,1.127-0.054,1.127,0.531V27.455z"/>
			<path style="fill:#FFFFFF;" d="M37.158,19.887c-0.813-0.038-1.65,0.492-1.951,0.832v-2.747h-2.982v12h2.408
				c0,0,0.184-0.715,0.387-0.625c0.205,0.089,1.238,0.529,1.951,0.529c0.713,0,1.006-0.047,1.348-0.196
				c0.426-0.286,0.641-0.673,0.641-1.163v-6.979C39.033,20.53,37.97,19.925,37.158,19.887z M36.025,27.9
				c0,0.295-0.135,0.501-0.404,0.501c-0.277,0-0.416-0.206-0.416-0.501l0.002-6.062c0-0.284,0.139-0.426,0.414-0.426
				c0.271,0,0.408,0.148,0.408,0.444L36.025,27.9z"/>
		</g>
	</g>
</g>
<g id="Layer_1">
</g>
</svg>
