<?xml version="1.0" encoding="iso-8859-1"?>
<!-- Generator: Adobe Illustrator 18.0.0, SVG Export Plug-In . SVG Version: 6.00 Build 0)  -->
<!DOCTYPE svg PUBLIC "-//W3C//DTD SVG 1.1//EN" "http://www.w3.org/Graphics/SVG/1.1/DTD/svg11.dtd">
<svg version="1.1" xmlns="http://www.w3.org/2000/svg" xmlns:xlink="http://www.w3.org/1999/xlink" x="0px" y="0px"
	 viewBox="0 0 48 48" style="enable-background:new 0 0 48 48;" xml:space="preserve">
<g id="Layer_174">
	<g>
		<path style="fill:#A82400;" d="M21.853,0.905c1.197-1.16,3.16-1.16,4.357,0l1.887,1.822c1.198,1.158,3.529,1.914,5.18,1.682
			l2.598-0.367c1.652-0.232,3.238,0.918,3.526,2.559l0.453,2.584c0.289,1.641,1.729,3.623,3.202,4.404l2.318,1.228
			c1.473,0.779,2.079,2.644,1.347,4.141l-1.153,2.357c-0.733,1.496-0.733,3.943,0,5.439l1.153,2.359
			c0.732,1.496,0.126,3.359-1.347,4.139l-2.318,1.23c-1.473,0.781-2.913,2.762-3.202,4.402l-0.453,2.584
			c-0.288,1.641-1.874,2.793-3.526,2.559l-2.598-0.367c-1.65-0.232-3.981,0.523-5.18,1.682l-1.887,1.824
			c-1.197,1.158-3.16,1.158-4.357,0l-1.887-1.824c-1.198-1.158-3.529-1.914-5.18-1.682l-2.598,0.367
			c-1.652,0.234-3.238-0.918-3.526-2.559l-0.454-2.584c-0.288-1.641-1.728-3.621-3.201-4.402l-2.318-1.23
			c-1.473-0.779-2.079-2.643-1.347-4.139l1.153-2.359c0.733-1.496,0.733-3.943,0-5.439l-1.153-2.357
			c-0.732-1.496-0.126-3.361,1.347-4.141l2.318-1.228c1.473-0.781,2.913-2.764,3.201-4.404L8.663,6.6
			c0.288-1.641,1.874-2.791,3.526-2.559l2.598,0.367c1.65,0.232,3.981-0.523,5.18-1.682L21.853,0.905z"/>
		<g>
			<path style="fill:#FFFFFF;" d="M10.962,22.488c0,7.467,5.819,13.516,13,13.516c1.055,0,2.081-0.135,3.063-0.383
				c1.234,2.303,3.115,3.934,7.106,3.154v-2.291c0,0-2.561-0.66-3.339-2.498c3.703-2.381,6.17-6.641,6.17-11.498
				c0-7.465-5.822-13.516-13-13.516C16.781,8.973,10.962,15.024,10.962,22.488z M17.42,20.793c0-4.656,2.974-8.43,6.641-8.43
				s6.639,3.773,6.639,8.43c0,0.598,0,2.887,0,3.482c0,2.258-0.7,4.305-1.838,5.818c-1.428-1.56-3.668-2.844-6.509-2.68v0.275v2.381
				c0,0,1.927,0.08,3.247,2.404c-0.495,0.148-1.009,0.228-1.54,0.228c-3.668,0-6.641-3.771-6.641-8.428
				C17.42,23.68,17.42,21.391,17.42,20.793z"/>
		</g>
	</g>
</g>
<g id="Layer_1">
</g>
</svg>
