<?xml version="1.0" encoding="iso-8859-1"?>
<!-- Generator: Adobe Illustrator 18.0.0, SVG Export Plug-In . SVG Version: 6.00 Build 0)  -->
<!DOCTYPE svg PUBLIC "-//W3C//DTD SVG 1.1//EN" "http://www.w3.org/Graphics/SVG/1.1/DTD/svg11.dtd">
<svg version="1.1" xmlns="http://www.w3.org/2000/svg" xmlns:xlink="http://www.w3.org/1999/xlink" x="0px" y="0px"
	 viewBox="0 0 48 48" style="enable-background:new 0 0 48 48;" xml:space="preserve">
<g id="Layer_213">
	<g>
		<path style="fill:#FF0084;" d="M21.853,0.903c1.197-1.158,3.16-1.158,4.357,0l1.887,1.824c1.198,1.158,3.529,1.914,5.18,1.682
			l2.598-0.367c1.652-0.234,3.238,0.918,3.526,2.559l0.453,2.584c0.289,1.641,1.729,3.621,3.202,4.402l2.318,1.23
			c1.473,0.779,2.079,2.642,1.347,4.139l-1.153,2.357c-0.733,1.498-0.733,3.945,0,5.441l1.153,2.357
			c0.732,1.496,0.126,3.359-1.347,4.141l-2.318,1.228c-1.473,0.781-2.913,2.764-3.202,4.404l-0.453,2.584
			c-0.288,1.641-1.874,2.791-3.526,2.559l-2.598-0.367c-1.65-0.232-3.981,0.521-5.18,1.682l-1.887,1.822
			c-1.197,1.16-3.16,1.16-4.357,0l-1.887-1.822c-1.198-1.16-3.529-1.914-5.18-1.682l-2.598,0.367
			c-1.652,0.232-3.238-0.918-3.526-2.559l-0.454-2.584c-0.288-1.641-1.729-3.623-3.201-4.404l-2.318-1.228
			c-1.473-0.781-2.079-2.644-1.347-4.141l1.153-2.357c0.733-1.496,0.733-3.943,0-5.441l-1.153-2.357
			c-0.732-1.496-0.126-3.359,1.347-4.139l2.318-1.23c1.473-0.781,2.913-2.762,3.201-4.402l0.454-2.584
			c0.288-1.641,1.874-2.793,3.526-2.559l2.598,0.367c1.65,0.232,3.981-0.523,5.18-1.682L21.853,0.903z"/>
		<g>
			<ellipse style="fill:#FFFFFF;" cx="15.06" cy="23.973" rx="7.098" ry="7"/>
			<ellipse style="fill:#FFFFFF;" cx="32.867" cy="23.973" rx="7.096" ry="7"/>
		</g>
	</g>
</g>
<g id="Layer_1">
</g>
</svg>
