<?xml version="1.0" encoding="iso-8859-1"?>
<!-- Generator: Adobe Illustrator 18.0.0, SVG Export Plug-In . SVG Version: 6.00 Build 0)  -->
<!DOCTYPE svg PUBLIC "-//W3C//DTD SVG 1.1//EN" "http://www.w3.org/Graphics/SVG/1.1/DTD/svg11.dtd">
<svg version="1.1" xmlns="http://www.w3.org/2000/svg" xmlns:xlink="http://www.w3.org/1999/xlink" x="0px" y="0px"
	 viewBox="0 0 48 48" style="enable-background:new 0 0 48 48;" xml:space="preserve">
<g id="Layer_192">
	<g>
		<path style="fill:#F63D27;" d="M21.854,0.903c1.197-1.158,3.16-1.158,4.357,0l1.887,1.824c1.197,1.158,3.529,1.914,5.18,1.682
			l2.598-0.367c1.652-0.234,3.238,0.918,3.525,2.559l0.453,2.584c0.289,1.641,1.73,3.621,3.203,4.402l2.318,1.23
			c1.473,0.779,2.078,2.643,1.346,4.139l-1.152,2.357c-0.734,1.498-0.734,3.945,0,5.441l1.152,2.357
			c0.732,1.496,0.127,3.359-1.346,4.141l-2.318,1.229c-1.473,0.781-2.914,2.764-3.203,4.404l-0.453,2.584
			c-0.287,1.641-1.873,2.791-3.525,2.559l-2.598-0.367c-1.65-0.232-3.982,0.521-5.18,1.682l-1.887,1.822
			c-1.197,1.16-3.16,1.16-4.357,0l-1.887-1.822c-1.199-1.16-3.529-1.914-5.18-1.682l-2.598,0.367
			c-1.652,0.232-3.238-0.918-3.527-2.559L8.21,38.886c-0.289-1.641-1.728-3.623-3.201-4.404L2.69,33.253
			c-1.473-0.781-2.08-2.644-1.348-4.141l1.154-2.357c0.732-1.496,0.732-3.943,0-5.441l-1.154-2.357
			C0.61,17.46,1.217,15.597,2.69,14.817l2.318-1.23c1.473-0.781,2.912-2.762,3.201-4.402l0.453-2.584
			c0.289-1.641,1.875-2.793,3.527-2.559l2.598,0.367c1.65,0.232,3.98-0.523,5.18-1.682L21.854,0.903z"/>
		<g>
			<path style="fill:#FFFFFF;" d="M31.9,29.139h1.289c0.346,0,0.625-0.28,0.625-0.626v-4.532h4.523c0.344,0,0.625-0.282,0.625-0.628
				v-1.29c0-0.346-0.281-0.628-0.625-0.628h-4.523v-4.532c0-0.344-0.279-0.626-0.625-0.626H31.9c-0.346,0-0.627,0.282-0.627,0.626
				v4.532h-4.523c-0.344,0-0.625,0.282-0.625,0.628v1.29c0,0.346,0.281,0.628,0.625,0.628h4.523v4.532
				C31.273,28.859,31.554,29.139,31.9,29.139z"/>
			<path style="fill:#FFFFFF;" d="M14.082,37.032c1.144,0.292,2.375,0.44,3.652,0.44c1.148,0,2.242-0.151,3.254-0.444
				c3.154-0.916,5.193-3.242,5.193-5.929c0-2.577-0.826-4.119-3.045-5.692c-0.951-0.675-1.817-1.663-1.832-1.969
				c0-0.554,0.049-0.818,1.289-1.787c1.603-1.256,2.486-2.91,2.486-4.657c0-1.583-0.482-2.99-1.307-3.978h0.639
				c0.133,0,0.262-0.041,0.367-0.117l1.779-1.291c0.221-0.159,0.314-0.442,0.228-0.701c-0.084-0.258-0.324-0.434-0.596-0.434h-7.957
				c-0.871,0-1.756,0.153-2.623,0.452c-2.9,1.002-4.928,3.477-4.928,6.021c0,3.599,2.783,6.328,6.506,6.414
				c-0.072,0.286-0.109,0.567-0.109,0.843c0,0.554,0.141,1.08,0.43,1.587c-0.035,0.002-0.066,0.002-0.104,0.002
				c-3.547,0-6.75,1.744-7.965,4.34c-0.318,0.673-0.478,1.356-0.478,2.029c0,0.656,0.168,1.286,0.496,1.879
				C10.224,35.41,11.865,36.473,14.082,37.032z M14.791,16.848c-0.172-1.319,0.103-2.503,0.76-3.252
				c0.424-0.485,0.978-0.74,1.6-0.74l0.072,0.002c1.758,0.051,3.439,2.014,3.75,4.375c0.174,1.323-0.119,2.565-0.783,3.325
				c-0.424,0.485-0.971,0.74-1.619,0.74c0,0,0,0-0.002,0h-0.027C16.818,21.247,15.099,19.206,14.791,16.848z M18.171,27.786
				l0.072,0.002c0.59,0.006,1.164,0.094,1.707,0.26c0.186,0.127,0.365,0.25,0.539,0.368c1.254,0.857,2.082,1.423,2.314,2.331
				c0.053,0.227,0.08,0.456,0.08,0.677c0,2.334-1.738,3.518-5.166,3.518c-2.6,0-4.633-1.597-4.633-3.636
				C13.085,29.432,15.462,27.786,18.171,27.786z"/>
		</g>
	</g>
</g>
<g id="Layer_1">
</g>
</svg>
