<?xml version="1.0" encoding="iso-8859-1"?>
<!-- Generator: Adobe Illustrator 18.0.0, SVG Export Plug-In . SVG Version: 6.00 Build 0)  -->
<!DOCTYPE svg PUBLIC "-//W3C//DTD SVG 1.1//EN" "http://www.w3.org/Graphics/SVG/1.1/DTD/svg11.dtd">
<svg version="1.1" xmlns="http://www.w3.org/2000/svg" xmlns:xlink="http://www.w3.org/1999/xlink" x="0px" y="0px"
	 viewBox="0 0 48 48" style="enable-background:new 0 0 48 48;" xml:space="preserve">
<g id="nyt_x5F_exporter_x5F_info" style="display:none;">
</g>
<g>
</g>
<g>
</g>
<g>
</g>
<g>
</g>
<g>
</g>
<g>
</g>
<g>
</g>
<g>
</g>
<g>
</g>
<g>
</g>
<g>
</g>
<g>
</g>
<g>
</g>
<g>
</g>
<g>
</g>
<g>
</g>
<g>
</g>
<g>
</g>
<g>
</g>
<g>
</g>
<g>
</g>
<g>
</g>
<g>
</g>
<g>
</g>
<g>
</g>
<g>
</g>
<g>
</g>
<g>
</g>
<g>
</g>
<g>
</g>
<g>
</g>
<g>
</g>
<g>
</g>
<g>
</g>
<g>
</g>
<g>
</g>
<g>
</g>
<g>
</g>
<g>
</g>
<g>
</g>
<g>
</g>
<g>
</g>
<g>
</g>
<g>
</g>
<g>
</g>
<g>
</g>
<g>
</g>
<g>
</g>
<g>
</g>
<g>
</g>
<g>
</g>
<g>
</g>
<g>
</g>
<g>
</g>
<g>
</g>
<g>
</g>
<g>
</g>
<g>
</g>
<g>
</g>
<g>
</g>
<g>
</g>
<g>
</g>
<g>
</g>
<g>
</g>
<g>
</g>
<g>
</g>
<g>
</g>
<g>
</g>
<g>
</g>
<g>
</g>
<g>
</g>
<g>
</g>
<g>
</g>
<g>
</g>
<g>
</g>
<g>
	<g>
		<path style="fill:#E61110;" d="M21.821,0.868c1.197-1.158,3.16-1.158,4.357,0l1.887,1.824c1.198,1.158,3.529,1.914,5.18,1.682
			l2.598-0.367c1.652-0.234,3.238,0.918,3.526,2.559l0.453,2.584c0.289,1.641,1.729,3.621,3.202,4.402l2.318,1.23
			c1.473,0.779,2.079,2.643,1.347,4.139l-1.153,2.357c-0.733,1.498-0.733,3.945,0,5.441l1.153,2.357
			c0.732,1.496,0.126,3.359-1.347,4.141l-2.318,1.229c-1.473,0.781-2.913,2.764-3.202,4.404l-0.453,2.584
			c-0.288,1.641-1.874,2.791-3.526,2.559l-2.598-0.367c-1.65-0.232-3.981,0.522-5.18,1.682l-1.887,1.822
			c-1.197,1.16-3.16,1.16-4.357,0l-1.887-1.822c-1.198-1.16-3.529-1.914-5.18-1.682l-2.598,0.367
			c-1.652,0.232-3.238-0.918-3.526-2.559l-0.454-2.584c-0.288-1.641-1.729-3.623-3.201-4.404l-2.318-1.229
			c-1.473-0.781-2.079-2.644-1.347-4.141l1.153-2.357c0.733-1.496,0.733-3.943,0-5.441L1.31,18.921
			c-0.732-1.496-0.126-3.359,1.347-4.139l2.318-1.23c1.473-0.781,2.913-2.762,3.201-4.402l0.454-2.584
			c0.288-1.641,1.874-2.793,3.526-2.559l2.598,0.367c1.65,0.232,3.981-0.523,5.18-1.682L21.821,0.868z"/>
		<path id="Zynga_9_" style="fill:#FFFFFF;" d="M31.362,10.903c0,0,2.066-0.196,3.684,0.868c0.587-0.028,1.061,0.225,1.368,0.785
			c0.308,0.56,0.865,1.904,0.419,2.717c-0.139,0.168-0.447-0.505-0.447-0.505s-0.223,0.813-0.642,1.12
			c0.056,1.68-0.614,2.856-0.809,3.249c-0.084,0.224-0.028,0.421,0.055,0.645c0.084,0.224,1.201,4.173,1.145,5.489
			c-0.056,1.316-0.726,2.885-1.256,3.417c0.111,1.092-0.391,2.017-0.642,2.465c-0.251,0.448-0.809,2.128-0.949,2.912
			c-0.14,0.785-0.195,1.625-0.028,1.877c0.168,0.252,0.921,1.036,0.865,1.428c-0.056,0.392-0.865,0.84-1.256,0.84
			c-0.391,0-1.201-0.252-1.396-0.785c-0.195-0.532-0.223-1.456-0.083-1.988c0.139-0.533,1.089-4.425,0.531-6.722
			c-1.368,0.616-3.657,0.589-3.657,0.589s-0.391,2.044-0.865,3.22c-0.167,0.28-0.14,2.185-0.14,3.389
			c0,1.204,0.419,3.081,0.419,3.081s0.586,0.421,0.503,0.952c-0.083,0.532-0.754,0.84-1.34,0.84c-0.586,0-1.367-0.448-1.367-1.176
			c0-0.728,0.111-2.38,0.055-3.585c-0.055-1.204-0.027-1.988-0.223-2.745c-0.196-0.756-0.754-2.745-0.81-4.285
			c-0.195,0-0.391-0.14-0.391-0.14s-0.921,1.064-1.563,1.68c0.084,0.42,0.307,1.176,0.307,1.344c0,0.168,0.168,0.308,0.447,0.42
			c0.279,0.113,1.144,0.589,1.116,1.064c-0.028,0.476-1.117,0.56-2.066,0.14c-0.223-0.112-1.033-2.828-1.144-3.193
			c-0.112-0.364-0.196-0.56-0.056-0.868c0.139-0.307,0.53-1.316,0.475-1.904c-0.056-0.588-1.145-1.512-1.87-1.512
			c-0.558,0-1.411,0.856-2.038,1.344c-0.754,0.589-1.619,1.484-1.842,1.624c-0.224,0.141-1.982,3.333-2.317,4.257
			c-0.139,0.364-0.418,2.185-1.897,2.128c-0.67-0.056-1.284-0.784,0.614-2.1c0.482-1.113,1.152-2.269,1.193-2.5
			c0.042-0.231,0.544-3.109,1.382-5.839c0.837-2.73,2.073-4.033,2.302-4.222c0.189-0.146,0.293-0.231,0.105-0.336
			c-0.188-0.105-2.177-1.807-1.8-5.419c0.063-0.42,0.251-0.315,0.377,0.651c0.126,0.966,0.9,3.235,2.617,3.949
			c0.167,0.063,1.403-0.882,7.704-1.344c0.042-1.113,0.21-2.29,0.21-2.29s-0.44-0.336-0.503-1.008
			c-0.209,0.337-0.335,0.421-0.607,0.378c-0.272-0.042-0.251-1.344-0.188-2.268c0.063-0.924,1.131-1.324,1.529-1.365
			c0.523-0.273,1.088-0.231,1.088-0.231S28.64,10.455,31.362,10.903L31.362,10.903z"/>
	</g>
</g>
<g>
</g>
<g>
</g>
<g>
</g>
<g>
</g>
<g>
</g>
<g>
</g>
<g>
</g>
<g>
</g>
<g>
</g>
<g>
</g>
<g>
</g>
<g>
</g>
<g>
</g>
<g>
</g>
</svg>
