<?xml version="1.0" encoding="iso-8859-1"?>
<!-- Generator: Adobe Illustrator 18.0.0, SVG Export Plug-In . SVG Version: 6.00 Build 0)  -->
<!DOCTYPE svg PUBLIC "-//W3C//DTD SVG 1.1//EN" "http://www.w3.org/Graphics/SVG/1.1/DTD/svg11.dtd">
<svg version="1.1" xmlns="http://www.w3.org/2000/svg" xmlns:xlink="http://www.w3.org/1999/xlink" x="0px" y="0px"
	 viewBox="0 0 48 48" style="enable-background:new 0 0 48 48;" xml:space="preserve">
<g id="Layer_208">
	<g>
		<path style="fill:#F16529;" d="M21.853,0.903c1.197-1.158,3.16-1.158,4.357,0l1.887,1.824c1.198,1.158,3.529,1.914,5.18,1.682
			l2.598-0.367c1.652-0.234,3.238,0.918,3.526,2.559l0.453,2.584c0.289,1.641,1.729,3.621,3.202,4.402l2.318,1.23
			c1.473,0.779,2.079,2.642,1.347,4.139l-1.153,2.357c-0.733,1.498-0.733,3.945,0,5.441l1.153,2.357
			c0.732,1.496,0.126,3.359-1.347,4.141l-2.318,1.228c-1.473,0.781-2.913,2.764-3.202,4.404l-0.453,2.584
			c-0.288,1.641-1.874,2.791-3.526,2.559l-2.598-0.367c-1.65-0.232-3.981,0.521-5.18,1.682l-1.887,1.822
			c-1.197,1.16-3.16,1.16-4.357,0l-1.887-1.822c-1.198-1.16-3.529-1.914-5.18-1.682l-2.598,0.367
			c-1.652,0.232-3.238-0.918-3.526-2.559l-0.454-2.584c-0.288-1.641-1.728-3.623-3.201-4.404l-2.318-1.228
			c-1.473-0.781-2.079-2.644-1.347-4.141l1.153-2.357c0.733-1.496,0.733-3.943,0-5.441l-1.153-2.357
			c-0.732-1.496-0.126-3.359,1.347-4.139l2.318-1.23c1.473-0.781,2.913-2.762,3.201-4.402l0.454-2.584
			c0.288-1.641,1.874-2.793,3.526-2.559l2.598,0.367c1.65,0.232,3.981-0.523,5.18-1.682L21.853,0.903z"/>
		<g>
			<polygon style="fill:#FFFFFF;enable-background:new    ;" points="16.382,11.671 17.663,11.671 17.663,13.029 19.064,13.029 
				19.064,8.973 17.663,8.973 17.663,10.313 16.382,10.313 16.382,8.973 14.982,8.973 14.982,13.029 16.382,13.029 			"/>
			<polygon style="fill:#FFFFFF;enable-background:new    ;" points="20.906,13.029 22.306,13.029 22.306,10.319 23.539,10.319 
				23.539,8.973 19.673,8.973 19.673,10.319 20.906,10.319 			"/>
			<polygon style="fill:#FFFFFF;enable-background:new    ;" points="25.522,11.02 26.486,12.462 26.511,12.462 27.473,11.02 
				27.473,13.029 28.869,13.029 28.869,8.973 27.408,8.973 26.511,10.401 25.613,8.973 24.152,8.973 24.152,13.029 25.522,13.029 
							"/>
			<polygon style="fill:#FFFFFF;enable-background:new    ;" points="32.935,11.69 30.965,11.69 30.965,8.973 29.565,8.973 
				29.565,13.029 32.935,13.029 			"/>
			<path style="fill:#FFFFFF;enable-background:new    ;" d="M12.962,14.81l2.004,21.747l8.992,2.416l8.999-2.414l2.005-21.749
				H12.962z M30.616,21.921h-6.654h-3.89l0.252,2.731h3.638h6.404l-0.755,8.191l-5.649,1.515l-0.004,0.001l-5.645-1.516L17.92,28.56
				h2.766l0.204,2.222l3.069,0.804l0.004-0.001l0,0l3.073-0.804l0.321-3.459h-3.394l0,0h-6.158l-0.742-8.066h6.9h6.902
				L30.616,21.921z"/>
		</g>
	</g>
</g>
<g id="Layer_1">
</g>
</svg>
