<?xml version="1.0" encoding="iso-8859-1"?>
<!-- Generator: Adobe Illustrator 18.0.0, SVG Export Plug-In . SVG Version: 6.00 Build 0)  -->
<!DOCTYPE svg PUBLIC "-//W3C//DTD SVG 1.1//EN" "http://www.w3.org/Graphics/SVG/1.1/DTD/svg11.dtd">
<svg version="1.1" xmlns="http://www.w3.org/2000/svg" xmlns:xlink="http://www.w3.org/1999/xlink" x="0px" y="0px"
	 viewBox="0 0 48 48" style="enable-background:new 0 0 48 48;" xml:space="preserve">
<g id="Layer_170">
	<g>
		<path style="fill:#4CB249;" d="M21.853,0.905c1.197-1.16,3.16-1.16,4.357,0l1.887,1.822c1.199,1.158,3.529,1.914,5.18,1.682
			l2.598-0.367c1.652-0.232,3.238,0.918,3.527,2.559l0.453,2.584c0.289,1.641,1.728,3.623,3.201,4.404l2.318,1.228
			c1.473,0.779,2.08,2.644,1.348,4.141l-1.154,2.357c-0.732,1.496-0.732,3.943,0,5.439l1.154,2.359
			c0.732,1.496,0.125,3.359-1.348,4.139l-2.318,1.23c-1.473,0.781-2.912,2.762-3.201,4.402l-0.453,2.584
			c-0.289,1.641-1.875,2.793-3.527,2.559l-2.598-0.367c-1.65-0.232-3.98,0.523-5.18,1.682l-1.887,1.824
			c-1.197,1.158-3.16,1.158-4.357,0l-1.887-1.824c-1.197-1.158-3.529-1.914-5.18-1.682l-2.598,0.367
			c-1.652,0.234-3.238-0.918-3.525-2.559l-0.455-2.584c-0.287-1.641-1.728-3.621-3.201-4.402l-2.318-1.23
			c-1.473-0.779-2.078-2.643-1.346-4.139l1.152-2.359c0.734-1.496,0.734-3.943,0-5.439l-1.152-2.357
			c-0.732-1.496-0.127-3.361,1.346-4.141l2.318-1.228c1.473-0.781,2.914-2.764,3.201-4.404L8.663,6.6
			c0.287-1.641,1.873-2.791,3.525-2.559l2.598,0.367c1.65,0.232,3.982-0.523,5.18-1.682L21.853,0.905z"/>
		<g>
			<path style="fill:#FFFFFF;" d="M12.454,29.264c1.301,0,2.477-0.486,3.398-1.265l10.75,5.375
				c-0.008,0.102-0.031,0.196-0.031,0.302c0,2.927,2.367,5.297,5.295,5.297c2.924,0,5.295-2.37,5.295-5.297
				c0-2.925-2.371-5.294-5.295-5.294c-1.301,0-2.478,0.486-3.398,1.266l-10.748-5.375c0.004-0.102,0.027-0.197,0.027-0.3
				c0-0.105-0.024-0.202-0.027-0.305l10.748-5.378c0.92,0.779,2.096,1.269,3.398,1.269c2.924,0,5.295-2.369,5.295-5.296
				c0-2.923-2.371-5.291-5.295-5.291c-2.928,0-5.295,2.368-5.295,5.291c0,0.105,0.023,0.202,0.031,0.304l-10.75,5.374
				c-0.922-0.778-2.098-1.267-3.398-1.267c-2.924,0-5.293,2.371-5.293,5.298C7.161,26.896,9.53,29.264,12.454,29.264z"/>
		</g>
	</g>
</g>
<g id="Layer_1">
</g>
</svg>
