<?xml version="1.0" encoding="iso-8859-1"?>
<!-- Generator: Adobe Illustrator 18.0.0, SVG Export Plug-In . SVG Version: 6.00 Build 0)  -->
<!DOCTYPE svg PUBLIC "-//W3C//DTD SVG 1.1//EN" "http://www.w3.org/Graphics/SVG/1.1/DTD/svg11.dtd">
<svg version="1.1" xmlns="http://www.w3.org/2000/svg" xmlns:xlink="http://www.w3.org/1999/xlink" x="0px" y="0px"
	 viewBox="0 0 48 48" style="enable-background:new 0 0 48 48;" xml:space="preserve">
<g id="Layer_176">
	<g>
		<path style="fill:#FF001A;" d="M21.853,0.905c1.197-1.16,3.16-1.16,4.357,0l1.887,1.822c1.198,1.158,3.529,1.914,5.18,1.682
			l2.598-0.367c1.652-0.232,3.238,0.918,3.526,2.559l0.453,2.584c0.289,1.641,1.729,3.623,3.202,4.404l2.318,1.228
			c1.473,0.779,2.079,2.644,1.347,4.141l-1.153,2.357c-0.733,1.496-0.733,3.943,0,5.439l1.153,2.359
			c0.732,1.496,0.126,3.359-1.347,4.139l-2.318,1.23c-1.473,0.781-2.913,2.762-3.202,4.402l-0.453,2.584
			c-0.288,1.641-1.874,2.793-3.526,2.559l-2.598-0.367c-1.65-0.232-3.981,0.523-5.18,1.682l-1.887,1.824
			c-1.197,1.158-3.16,1.158-4.357,0l-1.887-1.824c-1.198-1.158-3.529-1.914-5.18-1.682l-2.598,0.367
			c-1.652,0.234-3.238-0.918-3.526-2.559l-0.454-2.584c-0.288-1.641-1.729-3.621-3.201-4.402l-2.318-1.23
			c-1.473-0.779-2.079-2.643-1.347-4.139l1.153-2.359c0.733-1.496,0.733-3.943,0-5.439l-1.153-2.357
			c-0.732-1.496-0.126-3.361,1.347-4.141l2.318-1.228c1.473-0.781,2.913-2.764,3.201-4.404L8.663,6.6
			c0.288-1.641,1.874-2.791,3.526-2.559l2.598,0.367c1.65,0.232,3.981-0.523,5.18-1.682L21.853,0.905z"/>
		<g>
			<path style="fill:#FFFFFF;" d="M13.871,8.973c-1.722,0-3.113,1.342-3.113,3v14.999c0,6.615,5.582,12.001,12.444,12.001h3.113
				c6.86,0,12.442-5.049,12.442-11.249c0-6.205-4.185-11.25-9.331-11.25h-6.224c-1.72,0-3.111,1.341-3.111,3
				c0,1.655,1.391,3,3.111,3h6.224c1.436,0,3.109,2.291,3.109,5.25c0,2.893-2.791,5.249-6.22,5.249h-3.113
				c-3.429,0-6.22-2.693-6.22-6.001V11.973C16.983,10.315,15.587,8.973,13.871,8.973z"/>
		</g>
	</g>
</g>
<g id="Layer_1">
</g>
</svg>
