<?xml version="1.0" encoding="iso-8859-1"?>
<!-- Generator: Adobe Illustrator 18.0.0, SVG Export Plug-In . SVG Version: 6.00 Build 0)  -->
<!DOCTYPE svg PUBLIC "-//W3C//DTD SVG 1.1//EN" "http://www.w3.org/Graphics/SVG/1.1/DTD/svg11.dtd">
<svg version="1.1" xmlns="http://www.w3.org/2000/svg" xmlns:xlink="http://www.w3.org/1999/xlink" x="0px" y="0px"
	 viewBox="0 0 48 48" style="enable-background:new 0 0 48 48;" xml:space="preserve">
<g id="Layer_209">
	<g>
		<path style="fill:#2BB673;" d="M21.853,0.903c1.197-1.158,3.16-1.158,4.357,0l1.887,1.824c1.199,1.158,3.529,1.914,5.18,1.682
			l2.598-0.367c1.652-0.234,3.238,0.918,3.527,2.559l0.453,2.584c0.289,1.641,1.728,3.621,3.201,4.402l2.318,1.23
			c1.472,0.779,2.079,2.642,1.347,4.139l-1.153,2.357c-0.732,1.498-0.732,3.945,0,5.441l1.153,2.357
			c0.732,1.496,0.125,3.359-1.347,4.141l-2.318,1.228c-1.473,0.781-2.912,2.764-3.201,4.404l-0.453,2.584
			c-0.289,1.641-1.875,2.791-3.527,2.559l-2.598-0.367c-1.65-0.232-3.98,0.521-5.18,1.682l-1.887,1.822
			c-1.197,1.16-3.16,1.16-4.357,0l-1.887-1.822c-1.197-1.16-3.529-1.914-5.18-1.682l-2.598,0.367
			c-1.652,0.232-3.238-0.918-3.525-2.559l-0.455-2.584c-0.287-1.641-1.728-3.623-3.201-4.404l-2.318-1.228
			c-1.473-0.781-2.077-2.644-1.346-4.141l1.152-2.357c0.734-1.496,0.734-3.943,0-5.441l-1.152-2.357
			c-0.731-1.496-0.127-3.359,1.346-4.139l2.318-1.23c1.473-0.781,2.914-2.762,3.201-4.402l0.455-2.584
			c0.287-1.641,1.873-2.793,3.525-2.559l2.598,0.367c1.65,0.232,3.982-0.523,5.18-1.682L21.853,0.903z"/>
		<g>
			<path style="fill:#FFFFFF;" d="M26.917,29.95l6.322-0.184v5.365c0,0.761,0.01,0.884-1.273,1.289
				c-1.802,0.464-3.839,0.555-5.701,0.4C19.953,36.308,15.142,31.425,14,25.336c-1.08-5.778,1.704-11.244,6.41-13.5
				c2.299-1.1,5.057-1.618,8.046-0.68c1.876,0.585,3.576,1.642,5.059,3.102l-1.032,1.837l1.942-0.538l2.995-2.991
				c-5.085-4.121-13.809-4.662-19.588-1.801c-5.027,2.487-8.682,7.429-8.862,12.947c-0.188,5.809,3.263,10.401,6.759,12.711
				c5.779,3.814,15.797,2.964,21.831-0.016l-0.002-0.554h0.002v-6.087l1.403-1.61h-8.79L26.917,29.95z"/>
		</g>
	</g>
</g>
<g id="Layer_1">
</g>
</svg>
