<?xml version="1.0" encoding="iso-8859-1"?>
<!-- Generator: Adobe Illustrator 18.0.0, SVG Export Plug-In . SVG Version: 6.00 Build 0)  -->
<!DOCTYPE svg PUBLIC "-//W3C//DTD SVG 1.1//EN" "http://www.w3.org/Graphics/SVG/1.1/DTD/svg11.dtd">
<svg version="1.1" xmlns="http://www.w3.org/2000/svg" xmlns:xlink="http://www.w3.org/1999/xlink" x="0px" y="0px"
	 viewBox="0 0 48 48" style="enable-background:new 0 0 48 48;" xml:space="preserve">
<g id="Layer_160">
	<g>
		<path style="fill:#CA3C27;" d="M21.853,0.903c1.197-1.158,3.16-1.158,4.357,0l1.887,1.824c1.198,1.158,3.529,1.914,5.18,1.682
			l2.598-0.367c1.652-0.234,3.238,0.918,3.526,2.559l0.453,2.584c0.289,1.641,1.729,3.621,3.202,4.402l2.318,1.23
			c1.473,0.779,2.079,2.643,1.347,4.139l-1.153,2.357c-0.733,1.498-0.733,3.945,0,5.441l1.153,2.357
			c0.732,1.496,0.126,3.359-1.347,4.141l-2.318,1.229c-1.473,0.781-2.913,2.764-3.202,4.404l-0.453,2.584
			c-0.288,1.641-1.874,2.791-3.526,2.559l-2.598-0.367c-1.65-0.232-3.981,0.521-5.18,1.682l-1.887,1.822
			c-1.197,1.16-3.16,1.16-4.357,0l-1.887-1.822c-1.198-1.16-3.529-1.914-5.18-1.682l-2.598,0.367
			c-1.652,0.233-3.238-0.918-3.526-2.559l-0.454-2.584c-0.288-1.641-1.728-3.623-3.201-4.404l-2.318-1.229
			c-1.473-0.781-2.079-2.644-1.347-4.141l1.153-2.357c0.733-1.496,0.733-3.943,0-5.441l-1.153-2.357
			c-0.732-1.496-0.126-3.359,1.347-4.139l2.318-1.23c1.473-0.781,2.913-2.762,3.201-4.402L8.663,6.6
			c0.288-1.641,1.874-2.793,3.526-2.559l2.598,0.367c1.65,0.232,3.981-0.523,5.18-1.682L21.853,0.903z"/>
		<g>
			<path style="fill:#FFFFFF;" d="M32.246,36.759c0.583,0,1.16-0.446,1.16-0.446l3.224-4.307c0,0,0.326-0.544,0.332-1.02
				c0.013-0.677-1.079-0.863-1.079-0.863l-7.637-2.291c0,0-0.748-0.184-1.246,0.284c-0.542,0.512-0.084,1.44-0.084,1.44l4.081,6.363
				C30.998,35.92,31.667,36.759,32.246,36.759z"/>
			<path style="fill:#FFFFFF;" d="M28.081,25.348l7.621-2.08c0,0,1.037-0.394,1.185-0.92c0.144-0.525-0.171-1.161-0.171-1.161
				l-3.642-4.007c0,0-0.314-0.507-0.97-0.557c-0.721-0.059-1.165,0.758-1.165,0.758l-4.305,6.329c0,0-0.381,0.63-0.021,1.2
				C27.004,25.529,28.081,25.348,28.081,25.348z"/>
			<path style="fill:#FFFFFF;" d="M23.013,22.442c0.897-0.206,1.041-1.424,1.041-1.424l-0.063-10.132c0,0-0.134-1.25-0.736-1.59
				c-0.943-0.534-1.221-0.255-1.493-0.218l-6.326,2.195c0,0-0.619,0.192-0.941,0.676c-0.46,0.684,0.468,1.685,0.468,1.685
				l6.575,8.373C21.539,22.007,22.187,22.632,23.013,22.442z"/>
			<path style="fill:#FFFFFF;" d="M12.152,21.966c-0.374,0.206-0.707,0.581-0.74,0.912l-0.441,5.092c0,0-0.067,0.882,0.178,1.283
				c0.347,0.57,1.487,0.173,1.487,0.173l7.938-1.638c0.307-0.194,0.849-0.212,0.878-1.245c0.023-0.782-1.004-1.251-1.004-1.251
				l-6.799-3.209C13.649,22.084,12.641,21.695,12.152,21.966z"/>
			<path style="fill:#FFFFFF;" d="M16.915,37.345l5.335,1.573c0,0,0.648,0.126,1.139-0.007c0.694-0.188,0.565-1.206,0.565-1.206
				l0.121-7.4c0,0-0.027-0.712-0.65-1.014c-0.682-0.326-1.497,0.351-1.497,0.351l-5.312,5.465c0,0-0.665,0.837-0.496,1.35
				C16.279,36.938,16.54,37.177,16.915,37.345z"/>
		</g>
	</g>
</g>
<g id="Layer_1">
</g>
</svg>
