<?xml version="1.0" encoding="iso-8859-1"?>
<!-- Generator: Adobe Illustrator 18.0.0, SVG Export Plug-In . SVG Version: 6.00 Build 0)  -->
<!DOCTYPE svg PUBLIC "-//W3C//DTD SVG 1.1//EN" "http://www.w3.org/Graphics/SVG/1.1/DTD/svg11.dtd">
<svg version="1.1" xmlns="http://www.w3.org/2000/svg" xmlns:xlink="http://www.w3.org/1999/xlink" x="0px" y="0px"
	 viewBox="0 0 48 48" style="enable-background:new 0 0 48 48;" xml:space="preserve">
<g id="Layer_169">
	<g>
		<path style="fill:#F2D040;" d="M21.854,0.905c1.197-1.16,3.16-1.16,4.357,0l1.887,1.822c1.197,1.158,3.529,1.914,5.18,1.682
			l2.598-0.367c1.652-0.232,3.238,0.918,3.525,2.559l0.453,2.584c0.289,1.641,1.73,3.623,3.203,4.404l2.318,1.228
			c1.472,0.779,2.077,2.644,1.345,4.141l-1.152,2.357c-0.733,1.496-0.733,3.943,0,5.439l1.152,2.359
			c0.732,1.496,0.127,3.359-1.345,4.139l-2.318,1.23c-1.473,0.781-2.914,2.762-3.203,4.402l-0.453,2.584
			c-0.287,1.641-1.873,2.793-3.525,2.559l-2.598-0.367c-1.65-0.232-3.982,0.523-5.18,1.682l-1.887,1.824
			c-1.197,1.158-3.16,1.158-4.357,0l-1.887-1.824c-1.199-1.158-3.529-1.914-5.18-1.682l-2.6,0.367
			c-1.652,0.234-3.238-0.918-3.525-2.559l-0.455-2.584c-0.287-1.641-1.729-3.621-3.201-4.402l-2.317-1.23
			c-1.473-0.779-2.078-2.643-1.346-4.139l1.152-2.359c0.734-1.496,0.734-3.943,0-5.439l-1.152-2.357
			c-0.732-1.496-0.127-3.361,1.346-4.141l2.317-1.228c1.473-0.781,2.914-2.764,3.201-4.404L8.663,6.6
			c0.287-1.641,1.873-2.791,3.525-2.559l2.6,0.367c1.65,0.232,3.98-0.523,5.18-1.682L21.854,0.905z"/>
		<g>
			<path style="fill:#FFFFFF;" d="M35.961,24.054c0,0-0.977-1.838-2.215-3.74c-2.018,1.831-4.107,1.523-4.996,1.328
				c-1.172-0.258-1.49-0.758-1.395-1.199c-0.682-0.217-3.082-1.646-4.531-2.123c-2.789,1.713-3.908,5.99-3.775,10.342
				c-1.871,3.585-3.264,4.793-7.086,5.682c0.717,1.7,1.008,2.338,2.074,4.592c4.781-1.304,7.836-4.133,9.715-6.551
				c3.199,0.82,5.537,2.871,7.469,6.589c2.006-1.686,2.226-1.858,3.934-3.241c-1.33-3.211-4.598-5.988-7.707-7.502
				c0.029-0.759,0.051-0.949,0.084-1.545C32.1,27.888,35.961,24.054,35.961,24.054z"/>
			<path style="fill:#FFFFFF;" d="M23.702,13.239c0,2.355,1.953,4.268,4.289,4.268c2.334,0,4.316-1.912,4.316-4.268
				c0-2.356-1.982-4.267-4.316-4.267C25.655,8.973,23.702,10.883,23.702,13.239z"/>
		</g>
	</g>
</g>
<g id="Layer_1">
</g>
</svg>
