<?xml version="1.0" encoding="iso-8859-1"?>
<!-- Generator: Adobe Illustrator 18.0.0, SVG Export Plug-In . SVG Version: 6.00 Build 0)  -->
<!DOCTYPE svg PUBLIC "-//W3C//DTD SVG 1.1//EN" "http://www.w3.org/Graphics/SVG/1.1/DTD/svg11.dtd">
<svg version="1.1" xmlns="http://www.w3.org/2000/svg" xmlns:xlink="http://www.w3.org/1999/xlink" x="0px" y="0px"
	 viewBox="0 0 48 48" style="enable-background:new 0 0 48 48;" xml:space="preserve">
<g id="Layer_189">
	<g>
		<path style="fill:#333230;" d="M21.854,0.905c1.197-1.16,3.16-1.16,4.357,0l1.887,1.822c1.197,1.158,3.529,1.914,5.18,1.682
			l2.598-0.367c1.652-0.232,3.238,0.918,3.525,2.559l0.453,2.584c0.289,1.641,1.73,3.623,3.203,4.404l2.318,1.228
			c1.473,0.779,2.078,2.645,1.346,4.141l-1.152,2.357c-0.734,1.496-0.734,3.943,0,5.439l1.152,2.359
			c0.732,1.496,0.127,3.359-1.346,4.139l-2.318,1.23c-1.473,0.781-2.914,2.762-3.203,4.402l-0.453,2.584
			c-0.287,1.641-1.873,2.793-3.525,2.559l-2.598-0.367c-1.65-0.232-3.982,0.523-5.18,1.682l-1.887,1.824
			c-1.197,1.158-3.16,1.158-4.357,0l-1.887-1.824c-1.199-1.158-3.529-1.914-5.18-1.682l-2.598,0.367
			c-1.652,0.234-3.238-0.918-3.527-2.559L8.21,38.885c-0.289-1.641-1.728-3.621-3.201-4.402l-2.318-1.23
			c-1.473-0.779-2.08-2.643-1.348-4.139l1.154-2.359c0.732-1.496,0.732-3.943,0-5.439l-1.154-2.357
			c-0.732-1.496-0.125-3.361,1.348-4.141l2.318-1.228c1.473-0.781,2.912-2.764,3.201-4.404L8.663,6.6
			c0.289-1.641,1.875-2.791,3.527-2.559l2.598,0.367c1.65,0.232,3.98-0.523,5.18-1.682L21.854,0.905z"/>
		<g>
			<polygon style="fill:#FFFFFF;" points="35.621,19.973 35.621,24.263 12.302,24.263 12.302,19.973 8.962,19.973 8.962,27.973 
				38.962,27.973 38.962,19.973 			"/>
		</g>
	</g>
</g>
<g id="Layer_1">
</g>
</svg>
