<?xml version="1.0" encoding="iso-8859-1"?>
<!-- Generator: Adobe Illustrator 18.0.0, SVG Export Plug-In . SVG Version: 6.00 Build 0)  -->
<!DOCTYPE svg PUBLIC "-//W3C//DTD SVG 1.1//EN" "http://www.w3.org/Graphics/SVG/1.1/DTD/svg11.dtd">
<svg version="1.1" xmlns="http://www.w3.org/2000/svg" xmlns:xlink="http://www.w3.org/1999/xlink" x="0px" y="0px"
	 viewBox="0 0 48 48" style="enable-background:new 0 0 48 48;" xml:space="preserve">
<g id="Layer_198">
	<g>
		<path style="fill:#69BC1B;" d="M21.854,0.903c1.197-1.158,3.16-1.158,4.357,0l1.887,1.824c1.197,1.158,3.529,1.914,5.18,1.682
			l2.598-0.367c1.652-0.234,3.238,0.918,3.525,2.559l0.453,2.584c0.289,1.641,1.73,3.621,3.203,4.402l2.318,1.23
			c1.473,0.779,2.078,2.643,1.346,4.139l-1.152,2.357c-0.734,1.498-0.734,3.945,0,5.441l1.152,2.357
			c0.732,1.496,0.127,3.359-1.346,4.141l-2.318,1.229c-1.473,0.781-2.914,2.764-3.203,4.404l-0.453,2.584
			c-0.287,1.641-1.873,2.791-3.525,2.559l-2.598-0.367c-1.65-0.232-3.982,0.521-5.18,1.682l-1.887,1.822
			c-1.197,1.16-3.16,1.16-4.357,0l-1.887-1.822c-1.199-1.16-3.529-1.914-5.18-1.682l-2.599,0.367
			c-1.652,0.232-3.237-0.918-3.525-2.559L8.21,38.886c-0.288-1.641-1.729-3.623-3.201-4.404l-2.319-1.229
			c-1.473-0.781-2.079-2.644-1.347-4.141l1.153-2.357c0.733-1.496,0.733-3.943,0-5.441l-1.153-2.357
			c-0.732-1.496-0.126-3.359,1.347-4.139l2.319-1.23c1.473-0.781,2.913-2.762,3.201-4.402l0.454-2.584
			c0.288-1.641,1.873-2.793,3.525-2.559l2.599,0.367c1.65,0.232,3.98-0.523,5.18-1.682L21.854,0.903z"/>
		<g>
			<path style="fill:#FFFFFF;" d="M13.589,29.96l-0.875,9.013l8.107-5.012c1.629,0.451,3.363,0.702,5.166,0.702
				c5.211,0,9.853-2.061,12.977-5.281V15.317c0-3.498-2.762-6.344-6.154-6.344H14.356c-3.306,2.713-5.395,6.543-5.395,10.816
				C8.961,23.73,10.727,27.299,13.589,29.96z M25.987,11.151c5.949,0,10.977,3.957,10.977,8.639c0,4.686-5.027,8.639-10.977,8.639
				s-10.977-3.953-10.977-8.639C15.011,15.108,20.038,11.151,25.987,11.151z"/>
		</g>
	</g>
</g>
<g id="Layer_1">
</g>
</svg>
