<?xml version="1.0" encoding="iso-8859-1"?>
<!-- Generator: Adobe Illustrator 18.0.0, SVG Export Plug-In . SVG Version: 6.00 Build 0)  -->
<!DOCTYPE svg PUBLIC "-//W3C//DTD SVG 1.1//EN" "http://www.w3.org/Graphics/SVG/1.1/DTD/svg11.dtd">
<svg version="1.1" xmlns="http://www.w3.org/2000/svg" xmlns:xlink="http://www.w3.org/1999/xlink" x="0px" y="0px"
	 viewBox="0 0 48 48" style="enable-background:new 0 0 48 48;" xml:space="preserve">
<g id="Layer_168">
	<g>
		<path style="fill:#003399;" d="M21.854,0.905c1.197-1.16,3.16-1.16,4.357,0l1.887,1.822c1.197,1.158,3.529,1.914,5.18,1.682
			l2.597-0.367C37.527,3.809,39.113,4.959,39.4,6.6l0.453,2.584c0.289,1.641,1.73,3.623,3.203,4.404l2.318,1.228
			c1.473,0.779,2.078,2.644,1.346,4.141l-1.152,2.357c-0.734,1.496-0.734,3.943,0,5.439l1.152,2.359
			c0.732,1.496,0.127,3.359-1.346,4.139l-2.318,1.23c-1.473,0.781-2.914,2.762-3.203,4.402L39.4,41.469
			c-0.287,1.641-1.873,2.793-3.525,2.559l-2.597-0.367c-1.65-0.232-3.982,0.523-5.18,1.682l-1.887,1.824
			c-1.197,1.158-3.16,1.158-4.357,0l-1.887-1.824c-1.199-1.158-3.529-1.914-5.18-1.682l-2.597,0.367
			c-1.652,0.234-3.238-0.918-3.527-2.559l-0.453-2.584c-0.289-1.641-1.728-3.621-3.201-4.402l-2.318-1.23
			c-1.473-0.779-2.08-2.643-1.348-4.139l1.154-2.359c0.732-1.496,0.732-3.943,0-5.439l-1.154-2.357
			c-0.732-1.496-0.125-3.361,1.348-4.141l2.318-1.228c1.473-0.781,2.912-2.764,3.201-4.404L8.664,6.6
			c0.289-1.641,1.875-2.791,3.527-2.559l2.597,0.367c1.65,0.232,3.98-0.523,5.18-1.682L21.854,0.905z"/>
		<g>
			<ellipse style="fill:#FFFFFF;" cx="33.444" cy="19.042" rx="4.774" ry="4.673"/>
			<ellipse style="fill:#FFFFFF;" cx="22.691" cy="20.375" rx="4.299" ry="4.205"/>
			<ellipse style="fill:#FFFFFF;" cx="12.941" cy="21.574" rx="3.867" ry="3.783"/>
			<path style="fill:#FFFFFF;" d="M16.802,32.37c0.215,0,0.389-0.171,0.389-0.378V30.52c0-2.183-1.799-4.298-4.25-4.298
				s-4.248,2.115-4.248,4.298v1.472c0,0.207,0.172,0.378,0.385,0.378h0.139h7.451H16.802z"/>
			<path style="fill:#FFFFFF;" d="M26.984,32.37c0.236,0,0.43-0.19,0.43-0.422v-1.633c0-2.427-1.996-4.776-4.723-4.776
				c-2.723,0-4.721,2.349-4.721,4.776v1.633c0,0.232,0.191,0.422,0.43,0.422h0.152h8.281H26.984z"/>
			<path style="fill:#FFFFFF;" d="M33.445,24.779c-3.027,0-5.246,2.609-5.246,5.308v1.814c0,0.257,0.213,0.468,0.477,0.468h0.168
				h9.201h0.168c0.264,0,0.48-0.211,0.48-0.468v-1.814C38.693,27.389,36.472,24.779,33.445,24.779z"/>
		</g>
	</g>
</g>
<g id="Layer_1">
</g>
</svg>
