<?xml version="1.0" encoding="iso-8859-1"?>
<!-- Generator: Adobe Illustrator 18.0.0, SVG Export Plug-In . SVG Version: 6.00 Build 0)  -->
<!DOCTYPE svg PUBLIC "-//W3C//DTD SVG 1.1//EN" "http://www.w3.org/Graphics/SVG/1.1/DTD/svg11.dtd">
<svg version="1.1" xmlns="http://www.w3.org/2000/svg" xmlns:xlink="http://www.w3.org/1999/xlink" x="0px" y="0px"
	 viewBox="0 0 48 48" style="enable-background:new 0 0 48 48;" xml:space="preserve">
<g id="Layer_175">
	<g>
		<path style="fill:#709931;" d="M21.853,0.905c1.197-1.16,3.16-1.16,4.357,0l1.887,1.822c1.198,1.158,3.529,1.914,5.18,1.682
			l2.598-0.367c1.652-0.232,3.238,0.918,3.526,2.559l0.453,2.584c0.289,1.641,1.729,3.623,3.202,4.404l2.318,1.228
			c1.473,0.779,2.079,2.644,1.347,4.141l-1.153,2.357c-0.733,1.496-0.733,3.943,0,5.439l1.153,2.359
			c0.732,1.496,0.126,3.359-1.347,4.139l-2.318,1.23c-1.473,0.781-2.913,2.762-3.202,4.402l-0.453,2.584
			c-0.288,1.641-1.874,2.793-3.526,2.559l-2.598-0.367c-1.65-0.232-3.981,0.523-5.18,1.682l-1.887,1.824
			c-1.197,1.158-3.16,1.158-4.357,0l-1.887-1.824c-1.198-1.158-3.529-1.914-5.18-1.682l-2.598,0.367
			c-1.652,0.234-3.238-0.918-3.526-2.559l-0.454-2.584c-0.288-1.641-1.729-3.621-3.201-4.402l-2.318-1.23
			c-1.473-0.779-2.079-2.643-1.347-4.139l1.153-2.359c0.733-1.496,0.733-3.943,0-5.439l-1.153-2.357
			c-0.732-1.496-0.126-3.361,1.347-4.141l2.318-1.228c1.473-0.781,2.913-2.764,3.201-4.404L8.663,6.6
			c0.288-1.641,1.874-2.791,3.526-2.559l2.598,0.367c1.65,0.232,3.981-0.523,5.18-1.682L21.853,0.905z"/>
		<g>
			<path style="fill:#FFFFFF;" d="M13.224,28.627c-0.22,0.258-0.256,0.678-0.256,0.678c0,0.818,0,1.639,0,2.453
				c0,0.031-0.002,0.211-0.006,0.406c0.079,0.41,0.266,0.494,0.373,0.508c0.311,0,0.623,0,0.936,0c2.324,0,4.305,0.063,6.454,1.152
				c1.648,0.834,3.012,2.172,4.618,3.104c1.525,0.885,3.264,1.808,5.048,2.016c3.593,0.42,5.037-3.857,4.44-6.635
				c-1.602,1.271-3.833,1.238-5.879,0.688c-1.925-0.633-4.989-2.598-4.989-2.598c-1.374-0.844-2.988-1.545-4.608-1.473
				c0-0.721,0.02-0.748,0.466-1.258c0.613-0.697,1.225-1.396,1.836-2.096c1.925-2.199,3.851-4.396,5.778-6.596
				c1.638-1.871,3.276-3.74,4.914-5.611c0.159-0.182,0.738-0.639,0.765-0.887c0.097-0.85,0.198-1.701,0.299-2.549
				c0.067-0.59-0.551-0.449-0.551-0.449l-0.002-0.002c-2.659,0.533-5.39,0.811-8.096,0.687c-1.509-0.068-3.093-0.209-4.509-0.766
				c-0.05-0.018-0.349-0.168-0.631-0.318c-0.408-0.209-0.682-0.074-0.827,0.045c-0.113,0.139-0.234,0.273-0.341,0.42
				c-0.714,0.957-1.376,2.082-1.497,3.283c-0.026,0.269-0.059,0.834,0.089,1.174c0,0,0.016,0.043,0.062,0.109
				c0.008,0.01,0.014,0.019,0.022,0.029c0.339,0.463,1.9,1.85,7.997,0.646c-3.97,4.613-7.938,9.225-11.901,13.838
				C13.224,28.627,13.224,28.627,13.224,28.627z"/>
		</g>
	</g>
</g>
<g id="Layer_1">
</g>
</svg>
