<?xml version="1.0" encoding="iso-8859-1"?>
<!-- Generator: Adobe Illustrator 18.0.0, SVG Export Plug-In . SVG Version: 6.00 Build 0)  -->
<!DOCTYPE svg PUBLIC "-//W3C//DTD SVG 1.1//EN" "http://www.w3.org/Graphics/SVG/1.1/DTD/svg11.dtd">
<svg version="1.1" xmlns="http://www.w3.org/2000/svg" xmlns:xlink="http://www.w3.org/1999/xlink" x="0px" y="0px"
	 viewBox="0 0 48 48" style="enable-background:new 0 0 48 48;" xml:space="preserve">
<g id="Layer_158">
	<g>
		<path style="fill:#3777E3;" d="M21.854,0.903c1.197-1.158,3.16-1.158,4.357,0l1.887,1.824c1.197,1.158,3.529,1.914,5.18,1.682
			l2.598-0.367c1.652-0.234,3.238,0.918,3.525,2.559l0.453,2.584c0.289,1.641,1.73,3.621,3.203,4.402l2.318,1.23
			c1.472,0.779,2.077,2.643,1.345,4.139l-1.151,2.357c-0.734,1.498-0.734,3.945,0,5.441l1.151,2.357
			c0.732,1.496,0.127,3.359-1.345,4.141l-2.318,1.229c-1.473,0.781-2.914,2.764-3.203,4.404l-0.453,2.584
			c-0.287,1.641-1.873,2.791-3.525,2.559l-2.598-0.367c-1.65-0.232-3.982,0.521-5.18,1.682l-1.887,1.822
			c-1.197,1.16-3.16,1.16-4.357,0l-1.887-1.822c-1.199-1.16-3.529-1.914-5.18-1.682l-2.6,0.367
			c-1.652,0.233-3.238-0.918-3.525-2.559l-0.455-2.584c-0.287-1.641-1.728-3.623-3.201-4.404l-2.317-1.229
			c-1.473-0.781-2.078-2.644-1.346-4.141l1.152-2.357c0.734-1.496,0.734-3.943,0-5.441l-1.152-2.357
			c-0.732-1.496-0.127-3.359,1.346-4.139l2.317-1.23c1.473-0.781,2.914-2.762,3.201-4.402L8.663,6.6
			c0.287-1.641,1.873-2.793,3.525-2.559l2.6,0.367c1.65,0.232,3.98-0.523,5.18-1.682L21.854,0.903z"/>
		<g>
			<polygon style="fill:#FFFFFF;" points="19.347,29.973 15.201,36.606 14.955,36.973 15.449,36.973 34.402,36.973 34.57,36.973 
				34.652,36.851 38.962,29.973 			"/>
			<polygon style="fill:#FFFFFF;" points="29.24,11.115 29.156,10.973 28.99,10.975 20.804,11.005 20.31,11.009 20.556,11.431 
				30.035,27.625 30.119,27.768 30.285,27.768 38.468,27.733 38.962,27.731 38.714,27.309 			"/>
			<polygon style="fill:#FFFFFF;" points="23.226,19.391 23.14,19.249 19.019,12.273 18.769,11.853 18.523,12.275 9.046,28.469 
				8.962,28.612 9.048,28.752 13.169,35.73 13.417,36.152 13.665,35.73 23.142,19.534 			"/>
		</g>
	</g>
</g>
<g id="Layer_1">
</g>
</svg>
