<?xml version="1.0" encoding="iso-8859-1"?>
<!-- Generator: Adobe Illustrator 18.0.0, SVG Export Plug-In . SVG Version: 6.00 Build 0)  -->
<!DOCTYPE svg PUBLIC "-//W3C//DTD SVG 1.1//EN" "http://www.w3.org/Graphics/SVG/1.1/DTD/svg11.dtd">
<svg version="1.1" xmlns="http://www.w3.org/2000/svg" xmlns:xlink="http://www.w3.org/1999/xlink" x="0px" y="0px"
	 viewBox="0 0 48 48" style="enable-background:new 0 0 48 48;" xml:space="preserve">
<g id="Layer_177">
	<g>
		<path style="fill:#9AC24F;" d="M21.854,0.905c1.197-1.16,3.16-1.16,4.357,0l1.887,1.822c1.197,1.158,3.529,1.914,5.18,1.682
			l2.598-0.367c1.652-0.232,3.238,0.918,3.525,2.559l0.453,2.584c0.289,1.641,1.73,3.623,3.203,4.404l2.318,1.228
			c1.473,0.779,2.078,2.644,1.346,4.141l-1.152,2.357c-0.734,1.496-0.734,3.943,0,5.439l1.152,2.359
			c0.732,1.496,0.127,3.359-1.346,4.139l-2.318,1.23c-1.473,0.781-2.914,2.762-3.203,4.402l-0.453,2.584
			c-0.287,1.641-1.873,2.793-3.525,2.559l-2.598-0.367c-1.65-0.232-3.982,0.523-5.18,1.682l-1.887,1.824
			c-1.197,1.158-3.16,1.158-4.357,0l-1.887-1.824c-1.199-1.158-3.529-1.914-5.18-1.682l-2.599,0.367
			c-1.652,0.234-3.237-0.918-3.525-2.559L8.21,38.885c-0.288-1.641-1.729-3.621-3.201-4.402l-2.319-1.23
			c-1.473-0.779-2.079-2.643-1.347-4.139l1.153-2.359c0.733-1.496,0.733-3.943,0-5.439l-1.153-2.357
			c-0.732-1.496-0.126-3.361,1.347-4.141l2.319-1.228c1.473-0.781,2.913-2.764,3.201-4.404L8.664,6.6
			c0.288-1.641,1.873-2.791,3.525-2.559l2.599,0.367c1.65,0.232,3.98-0.523,5.18-1.682L21.854,0.905z"/>
		<g>
			<path style="fill:#FFFFFF;" d="M26.893,33.045c0.6,0,1.09,0.07,1.09,0.07v-2.35c0,0-4.828-0.032-4.828,3.618
				c0,3.651,2.525,4.589,4.551,4.589c2.024,0,3.3,0,3.3,0s5.956-0.757,5.956-12.375c0-11.619-1.862-12.7-2.386-13.595
				c-0.524-0.894-3.273-1.922-4.699-1.922c-1.421,0-3.67,0-3.67,0s-1.181-2.108-3.953-2.108c-2.776,0-2.588,1.223-2.588,2.264v4.215
				l-1.258,1.311H12.6c0,0-1.637,1.068-1.637,3.377c0,2.31,0.727,10.356,5.602,11.101c5.766,0.882,6.751-1.764,6.751-2.083
				c0-1.339,0.036-3.37,0.036-3.37s1.688,3.186,4.238,3.186c2.55,0,4.034,1.446,4.034,2.935c0,1.49,0,2.756,0,2.756
				s-0.095,1.724-1.595,1.724c-1.5,0-3.199,0-3.199,0s-1.051-0.807-1.051-1.923C25.779,33.348,26.292,33.045,26.893,33.045z
				 M28.654,23.417c0,0,0.289-1.915,1.413-1.915c1.126,0,2.671,2.559,2.671,2.559S29.212,23.417,28.654,23.417z"/>
			<polygon style="fill:#FFFFFF;" points="17.127,15.438 18.375,14.246 18.373,9.303 12.202,15.433 			"/>
		</g>
	</g>
</g>
<g id="Layer_1">
</g>
</svg>
