<?xml version="1.0" encoding="iso-8859-1"?>
<!-- Generator: Adobe Illustrator 18.0.0, SVG Export Plug-In . SVG Version: 6.00 Build 0)  -->
<!DOCTYPE svg PUBLIC "-//W3C//DTD SVG 1.1//EN" "http://www.w3.org/Graphics/SVG/1.1/DTD/svg11.dtd">
<svg version="1.1" xmlns="http://www.w3.org/2000/svg" xmlns:xlink="http://www.w3.org/1999/xlink" x="0px" y="0px"
	 viewBox="0 0 48 48" style="enable-background:new 0 0 48 48;" xml:space="preserve">
<g id="Layer_146">
	<g>
		<path style="fill:#E04D2B;" d="M21.854,0.903c1.197-1.158,3.16-1.158,4.357,0l1.887,1.824c1.197,1.158,3.529,1.914,5.18,1.682
			l2.597-0.367C37.527,3.808,39.113,4.96,39.4,6.6l0.453,2.584c0.289,1.641,1.73,3.621,3.203,4.402l2.318,1.23
			c1.473,0.779,2.078,2.643,1.346,4.139l-1.152,2.357c-0.734,1.498-0.734,3.945,0,5.441l1.152,2.357
			c0.732,1.496,0.127,3.359-1.346,4.141l-2.318,1.229c-1.473,0.781-2.914,2.764-3.203,4.404L39.4,41.469
			c-0.287,1.641-1.873,2.791-3.525,2.559l-2.597-0.367c-1.65-0.232-3.982,0.521-5.18,1.682l-1.887,1.822
			c-1.197,1.16-3.16,1.16-4.357,0l-1.887-1.822c-1.199-1.16-3.529-1.914-5.18-1.682l-2.597,0.367
			c-1.652,0.233-3.238-0.918-3.527-2.559l-0.453-2.584c-0.289-1.641-1.728-3.623-3.201-4.404l-2.318-1.229
			c-1.473-0.781-2.08-2.644-1.348-4.141l1.154-2.357c0.732-1.496,0.732-3.943,0-5.441l-1.154-2.357
			c-0.732-1.496-0.125-3.359,1.348-4.139l2.318-1.23c1.473-0.781,2.912-2.762,3.201-4.402L8.664,6.6
			c0.289-1.641,1.875-2.793,3.527-2.559l2.597,0.367c1.65,0.232,3.98-0.523,5.18-1.682L21.854,0.903z"/>
		<path style="fill-rule:evenodd;clip-rule:evenodd;fill:#FFFFFF;" d="M23.962,38.973c-0.34,0-0.68-0.012-1.016-0.033l6.275-10.871
			c0.881-1.133,1.406-2.557,1.406-4.103c0-2.502-1.375-4.684-3.412-5.832h10.568c0.758,1.795,1.178,3.77,1.178,5.84
			C38.962,32.258,32.247,38.973,23.962,38.973z M23.933,17.272c-3.674,0-6.656,2.961-6.691,6.627l-5.207-9.018
			c2.74-3.592,7.064-5.908,11.928-5.908c5.869,0,10.947,3.369,13.412,8.279H23.933V17.272z M23.999,29.603
			c-3.102,0-5.615-2.514-5.615-5.615s2.514-5.615,5.615-5.615s5.617,2.514,5.617,5.615S27.101,29.603,23.999,29.603z M23.933,30.66
			c1.187,0,2.301-0.309,3.268-0.852l-5.217,9.035c-7.348-0.969-13.021-7.258-13.021-14.871c0-3.07,0.926-5.928,2.51-8.305
			l6.289,10.893C18.775,28.969,21.158,30.66,23.933,30.66z"/>
	</g>
</g>
<g id="Layer_1">
</g>
</svg>
