<?xml version="1.0" encoding="iso-8859-1"?>
<!-- Generator: Adobe Illustrator 18.0.0, SVG Export Plug-In . SVG Version: 6.00 Build 0)  -->
<!DOCTYPE svg PUBLIC "-//W3C//DTD SVG 1.1//EN" "http://www.w3.org/Graphics/SVG/1.1/DTD/svg11.dtd">
<svg version="1.1" xmlns="http://www.w3.org/2000/svg" xmlns:xlink="http://www.w3.org/1999/xlink" x="0px" y="0px"
	 viewBox="0 0 48 48" style="enable-background:new 0 0 48 48;" xml:space="preserve">
<g id="Layer_190">
	<g>
		<path style="fill:#2D9AD2;" d="M21.853,0.903c1.197-1.158,3.16-1.158,4.357,0l1.887,1.824c1.198,1.158,3.529,1.914,5.18,1.682
			l2.598-0.367c1.652-0.234,3.238,0.918,3.526,2.559l0.453,2.584c0.289,1.641,1.729,3.621,3.202,4.402l2.318,1.23
			c1.473,0.779,2.079,2.643,1.347,4.139l-1.153,2.357c-0.733,1.498-0.733,3.945,0,5.441l1.153,2.357
			c0.732,1.496,0.126,3.359-1.347,4.141l-2.318,1.229c-1.473,0.781-2.913,2.764-3.202,4.404l-0.453,2.584
			c-0.288,1.641-1.874,2.791-3.526,2.559l-2.598-0.367c-1.65-0.232-3.981,0.521-5.18,1.682l-1.887,1.822
			c-1.197,1.16-3.16,1.16-4.357,0l-1.887-1.822c-1.198-1.16-3.529-1.914-5.18-1.682l-2.598,0.367
			c-1.652,0.232-3.238-0.918-3.526-2.559l-0.454-2.584c-0.288-1.641-1.728-3.623-3.201-4.404l-2.318-1.229
			c-1.473-0.781-2.079-2.644-1.347-4.141l1.153-2.357c0.733-1.496,0.733-3.943,0-5.441l-1.153-2.357
			c-0.732-1.496-0.126-3.359,1.347-4.139l2.318-1.23c1.473-0.781,2.913-2.762,3.201-4.402l0.454-2.584
			c0.288-1.641,1.874-2.793,3.526-2.559l2.598,0.367c1.65,0.232,3.981-0.523,5.18-1.682L21.853,0.903z"/>
		<g>
			<path style="fill:#FFFFFF;" d="M13.111,33.973h5.416c0,0,5.91-0.219,5.91-6.195c0,0,0.258-4.864-3.484-4.864
				c0,0,2.838-0.222,2.838-3.725c0-3.505-2.322-5.216-5.264-5.216h-5.416h-0.16H9.08v20h3.871H13.111z M13.111,17.455h4.719h0.697
				c0,0,1.314,0,1.314,2.035c0,2.037-0.773,2.333-1.65,2.333h-5.08V17.455z M13.111,24.844h5.416c0,0,1.959-0.029,1.959,2.689
				c0,2.29-1.463,2.527-2.232,2.545c-0.145,0.002-0.266,0-0.348,0h-4.795V24.844z"/>
			<path style="fill:#FFFFFF;" d="M32.32,18.956c-7.154,0-7.148,7.524-7.148,7.524s-0.492,7.487,7.148,7.487
				c0,0,6.367,0.382,6.367-5.209h-3.275c0,0,0.109,2.107-2.982,2.107c0,0-3.275,0.23-3.275-3.408h9.641
				C38.795,27.456,39.849,18.956,32.32,18.956z M29.117,24.844c0,0,0.4-3.02,3.275-3.02s2.836,3.02,2.836,3.02H29.117z"/>
			<rect x="28.316" y="15.126" style="fill:#FFFFFF;" width="7.676" height="1.847"/>
		</g>
	</g>
</g>
<g id="Layer_1">
</g>
</svg>
