<?xml version="1.0" encoding="iso-8859-1"?>
<!-- Generator: Adobe Illustrator 18.0.0, SVG Export Plug-In . SVG Version: 6.00 Build 0)  -->
<!DOCTYPE svg PUBLIC "-//W3C//DTD SVG 1.1//EN" "http://www.w3.org/Graphics/SVG/1.1/DTD/svg11.dtd">
<svg version="1.1" xmlns="http://www.w3.org/2000/svg" xmlns:xlink="http://www.w3.org/1999/xlink" x="0px" y="0px"
	 viewBox="0 0 48 48" style="enable-background:new 0 0 48 48;" xml:space="preserve">
<g id="Layer_178">
	<g>
		<path style="fill:#EB4721;" d="M21.854,0.905c1.197-1.16,3.16-1.16,4.357,0l1.887,1.822c1.197,1.158,3.529,1.914,5.18,1.682
			l2.598-0.367c1.652-0.232,3.238,0.918,3.525,2.559l0.453,2.584c0.289,1.641,1.73,3.623,3.203,4.404l2.318,1.228
			c1.473,0.779,2.078,2.644,1.346,4.141l-1.152,2.357c-0.734,1.496-0.734,3.943,0,5.439l1.152,2.359
			c0.732,1.496,0.127,3.359-1.346,4.139l-2.318,1.23c-1.473,0.781-2.914,2.762-3.203,4.402l-0.453,2.584
			c-0.287,1.641-1.873,2.793-3.525,2.559l-2.598-0.367c-1.65-0.232-3.982,0.523-5.18,1.682l-1.887,1.824
			c-1.197,1.158-3.16,1.158-4.357,0l-1.887-1.824c-1.199-1.158-3.529-1.914-5.18-1.682l-2.6,0.367
			c-1.652,0.234-3.238-0.918-3.525-2.559l-0.455-2.584c-0.287-1.641-1.728-3.621-3.201-4.402l-2.318-1.23
			c-1.473-0.779-2.078-2.643-1.346-4.139l1.152-2.359c0.734-1.496,0.734-3.943,0-5.439l-1.152-2.357
			c-0.732-1.496-0.127-3.361,1.346-4.141l2.318-1.228c1.473-0.781,2.914-2.764,3.201-4.404L8.663,6.6
			c0.287-1.641,1.873-2.791,3.525-2.559l2.6,0.367c1.65,0.232,3.98-0.523,5.18-1.682L21.854,0.905z"/>
		<g>
			<path style="fill:#FFFFFF;" d="M22.121,28.511v-9.074c0-0.838,0.291-1.833,1.842-1.833c1.549,0,1.93,0.995,1.93,1.833v1.73
				l1.807,0.978l2.846-0.978v-1.73c0-3.563-2.879-6.464-6.582-6.464c-3.701,0-6.562,2.901-6.562,6.464v9.074
				c0,0.836-0.543,1.885-1.885,1.885c-1.342,0-1.893-1.048-1.893-1.885v-3.565h-4.66v3.565c0,3.561,3.01,6.462,6.711,6.462
				C19.376,34.973,22.121,32.074,22.121,28.511z"/>
			<path style="fill:#FFFFFF;" d="M34.343,28.511c0,0.836-0.517,1.866-1.912,1.866c-1.398,0-1.914-1.029-1.914-1.866V24.9
				l-2.787,0.974L25.898,24.9v3.735c0,3.563,2.65,6.338,6.352,6.338c3.703,0,6.713-2.899,6.713-6.462V24.9h-4.619V28.511z"/>
		</g>
	</g>
</g>
<g id="Layer_1">
</g>
</svg>
