<?xml version="1.0" encoding="iso-8859-1"?>
<!-- Generator: Adobe Illustrator 18.0.0, SVG Export Plug-In . SVG Version: 6.00 Build 0)  -->
<!DOCTYPE svg PUBLIC "-//W3C//DTD SVG 1.1//EN" "http://www.w3.org/Graphics/SVG/1.1/DTD/svg11.dtd">
<svg version="1.1" xmlns="http://www.w3.org/2000/svg" xmlns:xlink="http://www.w3.org/1999/xlink" x="0px" y="0px"
	 viewBox="0 0 48 48" style="enable-background:new 0 0 48 48;" xml:space="preserve">
<g id="Layer_185">
	<g>
		<path style="fill:#FE3432;" d="M21.855,0.903c1.197-1.158,3.16-1.158,4.357,0l1.887,1.824c1.197,1.158,3.529,1.914,5.18,1.682
			l2.598-0.367c1.652-0.234,3.238,0.918,3.525,2.559l0.453,2.584c0.289,1.641,1.73,3.621,3.203,4.402l2.318,1.231
			c1.472,0.779,2.077,2.643,1.345,4.139l-1.152,2.357c-0.733,1.498-0.734,3.945,0,5.441l1.152,2.357
			c0.732,1.496,0.127,3.359-1.345,4.141l-2.318,1.229c-1.473,0.781-2.914,2.763-3.203,4.404L39.4,41.47
			c-0.287,1.641-1.873,2.791-3.525,2.558l-2.598-0.367c-1.65-0.232-3.983,0.521-5.18,1.681l-1.887,1.822
			c-1.197,1.16-3.16,1.16-4.357,0l-1.887-1.822c-1.199-1.16-3.529-1.914-5.18-1.682l-2.6,0.367
			c-1.652,0.232-3.238-0.918-3.525-2.559l-0.455-2.584c-0.287-1.641-1.728-3.623-3.201-4.404l-2.317-1.229
			c-1.473-0.781-2.078-2.645-1.346-4.141l1.152-2.357c0.734-1.496,0.735-3.943,0-5.441l-1.152-2.357
			c-0.732-1.496-0.127-3.359,1.346-4.139l2.317-1.23c1.473-0.781,2.914-2.762,3.201-4.402L8.664,6.6
			c0.287-1.641,1.873-2.793,3.525-2.558l2.6,0.367c1.65,0.232,3.981-0.523,5.18-1.681L21.855,0.903z"/>
		<g>
			<g id="Lozenge_41_">
				<g>
					<path style="fill:#FFFFFF;" d="M38.662,17.718c0,0-0.293-2.157-1.191-3.106c-1.141-1.244-2.42-1.252-3.004-1.324
						c-4.201-0.316-10.496-0.316-10.496-0.316h-0.014c0,0-6.299,0-10.496,0.315c-0.586,0.071-1.863,0.079-3.006,1.324
						c-0.899,0.949-1.192,3.106-1.192,3.106s-0.301,2.531-0.301,5.063l0,2.372c0,2.533,0.301,5.065,0.301,5.065
						s0.293,2.155,1.191,3.104c1.143,1.246,2.643,1.206,3.309,1.336c2.4,0.24,10.199,0.316,10.199,0.316s6.303-0.012,10.504-0.325
						c0.584-0.073,1.863-0.079,3.004-1.326c0.898-0.949,1.192-3.104,1.192-3.104s0.301-2.531,0.301-5.065l0-2.372
						C38.962,20.25,38.662,17.718,38.662,17.718z M20.867,28.03l-0.002-8.789l8.105,4.411L20.867,28.03z"/>
				</g>
			</g>
		</g>
	</g>
</g>
<g id="Layer_1">
</g>
</svg>
