<?xml version="1.0" encoding="iso-8859-1"?>
<!-- Generator: Adobe Illustrator 18.0.0, SVG Export Plug-In . SVG Version: 6.00 Build 0)  -->
<!DOCTYPE svg PUBLIC "-//W3C//DTD SVG 1.1//EN" "http://www.w3.org/Graphics/SVG/1.1/DTD/svg11.dtd">
<svg version="1.1" xmlns="http://www.w3.org/2000/svg" xmlns:xlink="http://www.w3.org/1999/xlink" x="0px" y="0px"
	 viewBox="0 0 48 48" style="enable-background:new 0 0 48 48;" xml:space="preserve">
<g id="Layer_145">
	<g>
		<path style="fill:#95A2AD;" d="M21.853,0.903c1.197-1.158,3.16-1.158,4.357,0l1.887,1.824c1.199,1.158,3.529,1.914,5.18,1.682
			l2.598-0.367c1.652-0.234,3.238,0.918,3.527,2.559l0.453,2.584c0.289,1.641,1.728,3.621,3.201,4.402l2.318,1.23
			c1.473,0.779,2.08,2.643,1.348,4.139l-1.154,2.357c-0.732,1.498-0.732,3.945,0,5.441l1.154,2.357
			c0.732,1.496,0.125,3.359-1.348,4.141l-2.318,1.229c-1.473,0.781-2.912,2.764-3.201,4.404l-0.453,2.584
			c-0.289,1.641-1.875,2.791-3.527,2.559l-2.598-0.367c-1.65-0.232-3.98,0.521-5.18,1.682l-1.887,1.822
			c-1.197,1.16-3.16,1.16-4.357,0l-1.887-1.822c-1.197-1.16-3.529-1.914-5.18-1.682l-2.598,0.367
			c-1.652,0.233-3.238-0.918-3.525-2.559l-0.455-2.584c-0.287-1.641-1.728-3.623-3.201-4.404l-2.318-1.229
			c-1.473-0.781-2.078-2.644-1.346-4.141l1.152-2.357c0.734-1.496,0.734-3.943,0-5.441l-1.152-2.357
			c-0.732-1.496-0.127-3.359,1.346-4.139l2.318-1.23c1.473-0.781,2.914-2.762,3.201-4.402L8.663,6.6
			c0.287-1.641,1.873-2.793,3.525-2.559l2.598,0.367c1.65,0.232,3.982-0.523,5.18-1.682L21.853,0.903z"/>
		<path style="fill-rule:evenodd;clip-rule:evenodd;fill:#FFFFFF;" d="M19.983,28.112c-1.098-0.714-1.523-1.713-1.481-2.95
			c0.038-1.169,0.193-2.278,1.37-2.937c-0.205-0.102-0.383-0.182-0.553-0.278c-1.134-0.653-1.854-1.686-2.395-2.847
			c-2.058-4.419,0.698-9.47,5.473-10.062c1.586-0.196,3.093,0.058,4.528,0.789c0.235,0.118,0.53,0.177,0.79,0.163
			c1.343-0.067,2.625-0.43,3.887-0.887c0.082-0.03,0.164-0.064,0.249-0.093c0.019-0.008,0.044,0.001,0.088,0.005
			c0.006,0.096,0.017,0.196,0.017,0.296c0,1.271-0.006,2.543,0.006,3.813c0.002,0.246-0.065,0.368-0.306,0.426
			c-0.453,0.109-0.899,0.247-1.354,0.373c-0.002,0.035-0.013,0.068-0.006,0.097c1.142,3.348-0.935,8.4-5.641,9.062
			c-1.079,0.151-1.628,0.819-1.603,1.823c0.013,0.575,0.363,0.958,0.742,1.315c0.608,0.573,1.372,0.756,2.162,0.887
			c1.177,0.193,2.322,0.504,3.382,1.085c1.802,0.989,2.586,2.537,2.433,4.603c-0.069,0.944-0.228,1.864-0.635,2.729
			c-0.717,1.522-1.93,2.452-3.48,2.897c-2.72,0.782-5.446,0.758-8.123-0.226c-1.381-0.507-2.556-1.348-3.103-2.799
			c-0.748-1.979-0.673-3.899,0.763-5.579c0.673-0.787,1.576-1.239,2.525-1.595C19.78,28.199,19.84,28.172,19.983,28.112z
			 M26.151,16.22c-0.038-0.352-0.052-0.647-0.1-0.936c-0.237-1.39-1.071-2.2-2.365-2.31c-1.364-0.117-2.355,0.603-2.672,1.964
			c-0.176,0.759-0.184,1.531-0.021,2.294c0.199,0.93,0.723,1.593,1.657,1.796c0.459,0.099,0.955,0.126,1.42,0.069
			c1.069-0.13,1.691-0.743,1.93-1.821C26.08,16.912,26.107,16.538,26.151,16.22z M23.933,35.109
			c0.882,0.001,1.666-0.045,2.391-0.424c0.781-0.408,1.088-1.093,1.073-1.956c-0.015-0.839-0.419-1.448-1.173-1.726
			c-0.566-0.208-1.176-0.33-1.775-0.39c-0.92-0.092-1.844-0.043-2.722,0.309c-0.863,0.349-1.305,1.014-1.312,1.932
			c-0.006,0.881,0.444,1.521,1.322,1.883C22.47,35.04,23.243,35.092,23.933,35.109z"/>
	</g>
</g>
<g id="Layer_1">
</g>
</svg>
