<?xml version="1.0" encoding="iso-8859-1"?>
<!-- Generator: Adobe Illustrator 18.0.0, SVG Export Plug-In . SVG Version: 6.00 Build 0)  -->
<!DOCTYPE svg PUBLIC "-//W3C//DTD SVG 1.1//EN" "http://www.w3.org/Graphics/SVG/1.1/DTD/svg11.dtd">
<svg version="1.1" xmlns="http://www.w3.org/2000/svg" xmlns:xlink="http://www.w3.org/1999/xlink" x="0px" y="0px"
	 viewBox="0 0 48 48" style="enable-background:new 0 0 48 48;" xml:space="preserve">
<g id="Layer_36">
	<g>
		<g>
			<circle style="fill:#A82400;" cx="24" cy="23.998" r="24"/>
			<g>
				<path style="fill:#FFFFFF;" d="M11,22.516c0,7.467,5.819,13.516,13,13.516c1.055,0,2.081-0.135,3.063-0.383
					c1.234,2.303,3.115,3.934,7.106,3.154v-2.291c0,0-2.561-0.66-3.339-2.498C34.533,31.633,37,27.373,37,22.516
					C37,15.051,31.178,9,24,9C16.819,9,11,15.051,11,22.516z M17.458,20.82c0-4.656,2.974-8.43,6.641-8.43s6.639,3.773,6.639,8.43
					c0,0.598,0,2.887,0,3.482c0,2.258-0.7,4.305-1.838,5.818c-1.428-1.56-3.668-2.844-6.509-2.68v0.275v2.381
					c0,0,1.927,0.08,3.247,2.404c-0.495,0.148-1.009,0.228-1.54,0.228c-3.668,0-6.641-3.771-6.641-8.428
					C17.458,23.707,17.458,21.418,17.458,20.82z"/>
			</g>
		</g>
		<linearGradient id="SVGID_1_" gradientUnits="userSpaceOnUse" x1="24" y1="27.2184" x2="24" y2="7.160383e-005">
			<stop  offset="0" style="stop-color:#FFFFFF"/>
			<stop  offset="1" style="stop-color:#FFFFFF;stop-opacity:0"/>
		</linearGradient>
		<path style="opacity:0.4;fill:url(#SVGID_1_);" d="M24.06,0C11.797,0,1.69,9.197,0.244,21.07
			c1.955,4.213,7.658,10.24,23.816,2.174c16.889-8.432,18.823-5.572,23.696-3.057C45.928,8.744,36.016,0,24.06,0z"/>
	</g>
</g>
<g id="Layer_1">
</g>
</svg>
