<?xml version="1.0" encoding="iso-8859-1"?>
<!-- Generator: Adobe Illustrator 18.0.0, SVG Export Plug-In . SVG Version: 6.00 Build 0)  -->
<!DOCTYPE svg PUBLIC "-//W3C//DTD SVG 1.1//EN" "http://www.w3.org/Graphics/SVG/1.1/DTD/svg11.dtd">
<svg version="1.1" xmlns="http://www.w3.org/2000/svg" xmlns:xlink="http://www.w3.org/1999/xlink" x="0px" y="0px"
	 viewBox="0 0 48 48" style="enable-background:new 0 0 48 48;" xml:space="preserve">
<g id="nyt_x5F_exporter_x5F_info" style="display:none;">
</g>
<g>
</g>
<g>
</g>
<g>
</g>
<g>
</g>
<g>
</g>
<g>
</g>
<g>
</g>
<g>
</g>
<g>
</g>
<g>
</g>
<g>
</g>
<g>
</g>
<g>
</g>
<g>
</g>
<g>
</g>
<g>
</g>
<g>
</g>
<g>
</g>
<g>
</g>
<g>
</g>
<g>
</g>
<g>
</g>
<g>
</g>
<g>
</g>
<g>
</g>
<g>
</g>
<g>
</g>
<g>
</g>
<g>
</g>
<g>
</g>
<g>
</g>
<g>
</g>
<g>
</g>
<g>
</g>
<g>
</g>
<g>
</g>
<g>
</g>
<g>
</g>
<g>
</g>
<g>
</g>
<g>
</g>
<g>
</g>
<g>
</g>
<g>
</g>
<g>
</g>
<g>
</g>
<g>
</g>
<g>
</g>
<g>
</g>
<g>
</g>
<g>
</g>
<g>
</g>
<g>
</g>
<g>
</g>
<g>
</g>
<g>
</g>
<g>
</g>
<g>
</g>
<g>
</g>
<g>
</g>
<g>
</g>
<g>
</g>
<g>
</g>
<g>
</g>
<g>
</g>
<g>
</g>
<g>
</g>
<g>
</g>
<g>
</g>
<g>
</g>
<g>
</g>
<g>
</g>
<g>
</g>
<g>
</g>
<g>
</g>
<g>
</g>
<g>
</g>
<g>
</g>
<g>
</g>
<g>
</g>
<g>
</g>
<g>
</g>
<g>
</g>
<g>
</g>
<g>
</g>
<g>
</g>
<g>
	<g>
		<circle style="fill:#E61110;" cx="24" cy="24" r="24"/>
		<path id="Zynga_11_" style="fill:#FFFFFF;" d="M29.362,9.117c0,0,2.066-0.196,3.684,0.868c0.587-0.028,1.061,0.225,1.368,0.785
			c0.308,0.56,0.865,1.904,0.419,2.717c-0.139,0.168-0.447-0.505-0.447-0.505s-0.223,0.813-0.642,1.12
			c0.056,1.68-0.614,2.856-0.809,3.249c-0.084,0.224-0.028,0.421,0.055,0.645c0.084,0.224,1.201,4.173,1.145,5.489
			c-0.056,1.316-0.726,2.885-1.256,3.417c0.111,1.092-0.391,2.017-0.642,2.465c-0.251,0.448-0.809,2.128-0.949,2.912
			c-0.14,0.785-0.195,1.625-0.028,1.877c0.168,0.252,0.921,1.036,0.865,1.428c-0.056,0.392-0.865,0.84-1.256,0.84
			c-0.391,0-1.201-0.252-1.396-0.785c-0.195-0.532-0.223-1.456-0.083-1.988c0.139-0.533,1.089-4.425,0.531-6.722
			c-1.368,0.616-3.657,0.589-3.657,0.589s-0.391,2.044-0.865,3.22c-0.167,0.28-0.14,2.185-0.14,3.389
			c0,1.204,0.419,3.081,0.419,3.081s0.586,0.421,0.503,0.952C26.097,38.692,25.426,39,24.84,39c-0.586,0-1.367-0.448-1.367-1.176
			c0-0.728,0.111-2.38,0.055-3.585c-0.055-1.204-0.027-1.988-0.223-2.745c-0.196-0.756-0.754-2.745-0.81-4.285
			c-0.195,0-0.391-0.14-0.391-0.14s-0.921,1.064-1.563,1.68c0.084,0.42,0.307,1.176,0.307,1.344s0.168,0.308,0.447,0.42
			c0.279,0.113,1.144,0.589,1.116,1.064c-0.028,0.476-1.117,0.56-2.066,0.14c-0.223-0.112-1.033-2.828-1.144-3.193
			c-0.112-0.364-0.196-0.56-0.056-0.868c0.139-0.307,0.53-1.316,0.475-1.904c-0.056-0.588-1.145-1.512-1.87-1.512
			c-0.558,0-1.411,0.856-2.038,1.344c-0.754,0.589-1.619,1.484-1.842,1.624c-0.224,0.141-1.982,3.333-2.317,4.257
			c-0.139,0.364-0.418,2.185-1.897,2.128c-0.67-0.056-1.284-0.784,0.614-2.1c0.482-1.113,1.152-2.269,1.193-2.5
			c0.042-0.231,0.544-3.109,1.382-5.839c0.837-2.73,2.073-4.033,2.302-4.222c0.189-0.146,0.293-0.231,0.105-0.336
			c-0.188-0.105-2.177-1.807-1.8-5.419c0.063-0.42,0.251-0.315,0.377,0.651c0.126,0.966,0.9,3.235,2.617,3.949
			c0.167,0.063,1.403-0.882,7.704-1.344c0.042-1.113,0.21-2.29,0.21-2.29s-0.44-0.336-0.503-1.008
			c-0.209,0.337-0.335,0.421-0.607,0.378c-0.272-0.042-0.251-1.344-0.188-2.268c0.063-0.924,1.131-1.324,1.529-1.365
			c0.523-0.273,1.088-0.231,1.088-0.231S26.64,8.669,29.362,9.117L29.362,9.117z"/>
		<linearGradient id="SVGID_1_" gradientUnits="userSpaceOnUse" x1="24" y1="27.2184" x2="24" y2="-3.637979e-012">
			<stop  offset="0" style="stop-color:#FFFFFF"/>
			<stop  offset="1" style="stop-color:#FFFFFF;stop-opacity:0"/>
		</linearGradient>
		<path style="opacity:0.4;fill:url(#SVGID_1_);" d="M24.061,0C11.799,0,1.691,9.197,0.244,21.07
			c1.955,4.213,7.658,10.24,23.816,2.174c16.889-8.432,18.822-5.572,23.695-3.057C45.93,8.744,36.018,0,24.061,0z"/>
	</g>
</g>
<g>
</g>
<g>
</g>
<g>
</g>
</svg>
