<?xml version="1.0" encoding="iso-8859-1"?>
<!-- Generator: Adobe Illustrator 18.0.0, SVG Export Plug-In . SVG Version: 6.00 Build 0)  -->
<!DOCTYPE svg PUBLIC "-//W3C//DTD SVG 1.1//EN" "http://www.w3.org/Graphics/SVG/1.1/DTD/svg11.dtd">
<svg version="1.1" xmlns="http://www.w3.org/2000/svg" xmlns:xlink="http://www.w3.org/1999/xlink" x="0px" y="0px"
	 viewBox="0 0 48 48" style="enable-background:new 0 0 48 48;" xml:space="preserve">
<g id="Layer_44">
	<g>
		<g>
			<circle style="fill:#A8C46A;" cx="24" cy="24" r="24"/>
			<g>
				<polygon style="fill:#FFFFFF;" points="7,34.656 19.106,36.408 19.106,24.828 7,24.828 				"/>
				<polygon style="fill:#FFFFFF;" points="20.76,36.648 37,39 37,24.828 20.76,24.828 				"/>
				<polygon style="fill:#FFFFFF;" points="20.76,23.174 37,23.174 37,9 20.76,11.352 				"/>
				<polygon style="fill:#FFFFFF;" points="19.106,11.592 7,13.346 7,23.174 19.106,23.174 				"/>
			</g>
		</g>
		<linearGradient id="SVGID_1_" gradientUnits="userSpaceOnUse" x1="24" y1="27.2178" x2="24" y2="7.160383e-005">
			<stop  offset="0" style="stop-color:#FFFFFF"/>
			<stop  offset="1" style="stop-color:#FFFFFF;stop-opacity:0"/>
		</linearGradient>
		<path style="opacity:0.4;fill:url(#SVGID_1_);" d="M24.061,0C11.799,0,1.691,9.197,0.244,21.068
			c1.955,4.213,7.658,10.242,23.816,2.176c16.889-8.432,18.822-5.574,23.695-3.059C45.93,8.742,36.018,0,24.061,0z"/>
	</g>
</g>
<g id="Layer_1">
</g>
</svg>
