<?xml version="1.0" encoding="iso-8859-1"?>
<!-- Generator: Adobe Illustrator 18.0.0, SVG Export Plug-In . SVG Version: 6.00 Build 0)  -->
<!DOCTYPE svg PUBLIC "-//W3C//DTD SVG 1.1//EN" "http://www.w3.org/Graphics/SVG/1.1/DTD/svg11.dtd">
<svg version="1.1" xmlns="http://www.w3.org/2000/svg" xmlns:xlink="http://www.w3.org/1999/xlink" x="0px" y="0px"
	 viewBox="0 0 48 48" style="enable-background:new 0 0 48 48;" xml:space="preserve">
<g id="Layer_3">
	<g>
		<g>
			<circle style="fill:#95A2AD;" cx="24" cy="23.998" r="24"/>
			<path style="fill-rule:evenodd;clip-rule:evenodd;fill:#FFFFFF;" d="M20.021,28.139c-1.098-0.714-1.523-1.713-1.481-2.95
				c0.038-1.169,0.193-2.278,1.37-2.937c-0.205-0.102-0.383-0.182-0.553-0.278c-1.134-0.653-1.854-1.686-2.395-2.847
				c-2.058-4.419,0.698-9.47,5.473-10.062c1.586-0.196,3.093,0.058,4.528,0.789c0.235,0.118,0.53,0.177,0.79,0.163
				c1.343-0.067,2.625-0.43,3.887-0.887c0.082-0.03,0.164-0.064,0.249-0.093c0.019-0.008,0.044,0.001,0.088,0.005
				c0.006,0.096,0.017,0.196,0.017,0.296c0,1.271-0.006,2.543,0.006,3.813c0.002,0.246-0.065,0.368-0.306,0.426
				c-0.453,0.109-0.899,0.247-1.354,0.373c-0.002,0.035-0.013,0.068-0.006,0.097c1.142,3.348-0.935,8.4-5.641,9.062
				c-1.079,0.151-1.628,0.819-1.603,1.823c0.013,0.575,0.363,0.958,0.742,1.315c0.608,0.573,1.372,0.756,2.162,0.887
				c1.177,0.193,2.322,0.504,3.382,1.085c1.802,0.989,2.586,2.537,2.433,4.603c-0.069,0.944-0.228,1.864-0.635,2.729
				c-0.717,1.522-1.93,2.452-3.48,2.897c-2.72,0.782-5.446,0.758-8.123-0.226c-1.381-0.507-2.556-1.348-3.103-2.799
				c-0.748-1.979-0.673-3.899,0.763-5.579c0.673-0.787,1.576-1.239,2.525-1.595C19.818,28.226,19.877,28.2,20.021,28.139z
				 M26.188,16.247c-0.038-0.352-0.052-0.647-0.1-0.936c-0.237-1.39-1.071-2.2-2.365-2.31c-1.364-0.117-2.355,0.603-2.672,1.964
				c-0.176,0.759-0.184,1.531-0.021,2.294c0.199,0.93,0.723,1.593,1.657,1.796c0.459,0.099,0.955,0.126,1.42,0.069
				c1.069-0.13,1.691-0.743,1.93-1.821C26.117,16.94,26.144,16.566,26.188,16.247z M23.971,35.136
				c0.882,0.001,1.666-0.045,2.391-0.424c0.781-0.408,1.088-1.093,1.073-1.956c-0.015-0.839-0.419-1.448-1.173-1.726
				c-0.566-0.208-1.176-0.33-1.775-0.39c-0.92-0.092-1.844-0.043-2.722,0.309c-0.863,0.349-1.305,1.014-1.312,1.932
				c-0.006,0.881,0.444,1.521,1.322,1.883C22.508,35.068,23.28,35.119,23.971,35.136z"/>
		</g>
		<linearGradient id="SVGID_1_" gradientUnits="userSpaceOnUse" x1="24" y1="27.2184" x2="24" y2="7.160383e-005">
			<stop  offset="0" style="stop-color:#FFFFFF"/>
			<stop  offset="1" style="stop-color:#FFFFFF;stop-opacity:0"/>
		</linearGradient>
		<path style="opacity:0.4;fill:url(#SVGID_1_);" d="M24.061,0C11.799,0,1.691,9.197,0.244,21.07
			c1.955,4.213,7.658,10.24,23.816,2.174c16.889-8.432,18.822-5.572,23.695-3.057C45.93,8.744,36.018,0,24.061,0z"/>
	</g>
</g>
<g id="Layer_1">
</g>
</svg>
