<?xml version="1.0" encoding="iso-8859-1"?>
<!-- Generator: Adobe Illustrator 18.0.0, SVG Export Plug-In . SVG Version: 6.00 Build 0)  -->
<!DOCTYPE svg PUBLIC "-//W3C//DTD SVG 1.1//EN" "http://www.w3.org/Graphics/SVG/1.1/DTD/svg11.dtd">
<svg version="1.1" xmlns="http://www.w3.org/2000/svg" xmlns:xlink="http://www.w3.org/1999/xlink" x="0px" y="0px"
	 viewBox="0 0 48 48" style="enable-background:new 0 0 48 48;" xml:space="preserve">
<g id="Layer_2">
	<g>
		<g>
			<circle style="fill:#FF6C4C;" cx="24" cy="23.998" r="24"/>
			<polygon style="fill:#FFFFFF;" points="39,21 27,21 27,9 21,9 21,21 9,21 9,27 21,27 21,39 27,39 27,27 39,27 			"/>
		</g>
		<linearGradient id="SVGID_1_" gradientUnits="userSpaceOnUse" x1="24" y1="27.2184" x2="24" y2="7.160383e-005">
			<stop  offset="0" style="stop-color:#FFFFFF"/>
			<stop  offset="1" style="stop-color:#FFFFFF;stop-opacity:0"/>
		</linearGradient>
		<path style="opacity:0.4;fill:url(#SVGID_1_);" d="M24.06,0C11.799,0,1.691,9.197,0.244,21.07
			c1.955,4.213,7.658,10.24,23.816,2.174c16.889-8.432,18.822-5.572,23.695-3.057C45.93,8.744,36.018,0,24.06,0z"/>
	</g>
</g>
<g id="Layer_1">
</g>
</svg>
