<?xml version="1.0" encoding="iso-8859-1"?>
<!-- Generator: Adobe Illustrator 18.0.0, SVG Export Plug-In . SVG Version: 6.00 Build 0)  -->
<!DOCTYPE svg PUBLIC "-//W3C//DTD SVG 1.1//EN" "http://www.w3.org/Graphics/SVG/1.1/DTD/svg11.dtd">
<svg version="1.1" xmlns="http://www.w3.org/2000/svg" xmlns:xlink="http://www.w3.org/1999/xlink" x="0px" y="0px"
	 viewBox="0 0 48 48" style="enable-background:new 0 0 48 48;" xml:space="preserve">
<g id="nyt_x5F_exporter_x5F_info" style="display:none;">
</g>
<g>
</g>
<g>
</g>
<g>
</g>
<g>
</g>
<g>
</g>
<g>
</g>
<g>
</g>
<g>
</g>
<g>
</g>
<g>
</g>
<g>
</g>
<g>
</g>
<g>
</g>
<g>
</g>
<g>
</g>
<g>
</g>
<g>
</g>
<g>
</g>
<g>
</g>
<g>
</g>
<g>
</g>
<g>
</g>
<g>
</g>
<g>
</g>
<g>
</g>
<g>
</g>
<g>
</g>
<g>
</g>
<g>
</g>
<g>
</g>
<g>
</g>
<g>
</g>
<g>
</g>
<g>
</g>
<g>
</g>
<g>
</g>
<g>
</g>
<g>
</g>
<g>
</g>
<g>
</g>
<g>
</g>
<g>
</g>
<g>
</g>
<g>
</g>
<g>
</g>
<g>
</g>
<g>
</g>
<g>
</g>
<g>
</g>
<g>
</g>
<g>
</g>
<g>
</g>
<g>
</g>
<g>
</g>
<g>
</g>
<g>
</g>
<g>
</g>
<g>
</g>
<g>
</g>
<g>
</g>
<g>
</g>
<g>
</g>
<g>
</g>
<g>
</g>
<g>
</g>
<g>
</g>
<g>
</g>
<g>
</g>
<g>
</g>
<g>
</g>
<g>
</g>
<g>
</g>
<g>
</g>
<g>
</g>
<g>
</g>
<g>
</g>
<g>
</g>
<g>
</g>
<g>
</g>
<g>
</g>
<g>
</g>
<g>
</g>
<g>
</g>
<g>
</g>
<g>
</g>
<g>
</g>
<g>
</g>
<g>
</g>
<g>
	<g>
		<circle style="fill:#8256A6;" cx="24" cy="24" r="24"/>
		<g id="g15_11_" transform="matrix(1.452588,0,0,1.452588,-115.17955,-97.147891)">
			<path id="path17-6_11_" style="fill:#FFFFFF;" d="M104.553,88.02c-0.642-0.507-1.329-0.962-2.005-1.427
				c-1.348-0.928-2.58-1-3.586,0.493c-0.565,0.838-1.355,0.875-2.182,0.507c-2.279-1.013-4.039-2.574-5.069-4.845
				c-0.456-1.005-0.45-1.905,0.617-2.616c0.565-0.376,1.134-0.82,1.088-1.642c-0.059-1.071-2.711-4.649-3.758-5.026
				c-0.433-0.156-0.865-0.146-1.306-0.001c-2.455,0.809-3.472,2.789-2.498,5.133c2.905,6.993,8.019,11.862,15.057,14.833
				c0.401,0.169,0.847,0.237,1.073,0.298c1.602,0.016,3.48-1.498,4.022-3C106.529,89.283,105.425,88.709,104.553,88.02
				L104.553,88.02z"/>
			<path id="path19-1_11_" style="fill:#FFFFFF;" d="M96.661,74.182c5.146,0.776,7.519,3.175,8.174,8.256
				c0.061,0.469-0.118,1.176,0.565,1.189c0.714,0.013,0.542-0.682,0.548-1.152c0.06-4.785-4.196-9.222-9.139-9.385
				c-0.373,0.053-1.145-0.252-1.193,0.567C95.585,74.209,96.234,74.118,96.661,74.182L96.661,74.182z"/>
			<path id="path21-2_11_" style="fill:#FFFFFF;" d="M97.667,75.575c-0.495-0.058-1.148-0.287-1.264,0.386
				c-0.121,0.707,0.607,0.635,1.075,0.738c3.178,0.696,4.285,1.83,4.808,4.921c0.076,0.451-0.075,1.152,0.706,1.036
				c0.579-0.086,0.37-0.688,0.418-1.039C103.436,78.65,100.843,75.949,97.667,75.575L97.667,75.575z"/>
			<path id="path23_11_" style="fill:#FFFFFF;" d="M97.959,78.002c-0.33,0.008-0.655,0.043-0.776,0.389
				c-0.182,0.517,0.201,0.641,0.592,0.702c1.304,0.205,1.99,0.959,2.12,2.233c0.035,0.346,0.259,0.626,0.6,0.587
				c0.472-0.055,0.515-0.467,0.501-0.859C101.019,79.622,99.368,77.967,97.959,78.002L97.959,78.002z"/>
		</g>
		<linearGradient id="SVGID_1_" gradientUnits="userSpaceOnUse" x1="24" y1="27.2184" x2="24" y2="-3.637979e-012">
			<stop  offset="0" style="stop-color:#FFFFFF"/>
			<stop  offset="1" style="stop-color:#FFFFFF;stop-opacity:0"/>
		</linearGradient>
		<path style="opacity:0.4;fill:url(#SVGID_1_);" d="M24.06,0C11.798,0,1.69,9.197,0.244,21.07C2.2,25.283,7.902,31.31,24.06,23.244
			c16.89-8.432,18.823-5.572,23.696-3.057C45.929,8.744,36.017,0,24.06,0z"/>
	</g>
</g>
<g>
</g>
</svg>
