<?xml version="1.0" encoding="iso-8859-1"?>
<!-- Generator: Adobe Illustrator 18.0.0, SVG Export Plug-In . SVG Version: 6.00 Build 0)  -->
<!DOCTYPE svg PUBLIC "-//W3C//DTD SVG 1.1//EN" "http://www.w3.org/Graphics/SVG/1.1/DTD/svg11.dtd">
<svg version="1.1" xmlns="http://www.w3.org/2000/svg" xmlns:xlink="http://www.w3.org/1999/xlink" x="0px" y="0px"
	 viewBox="0 0 48 48" style="enable-background:new 0 0 48 48;" xml:space="preserve">
<g id="Layer_64">
	<g>
		<g>
			<circle style="fill:#F16529;" cx="24" cy="24" r="24.001"/>
			<g>
				<polygon style="fill:#FFFFFF;enable-background:new    ;" points="16.42,11.698 17.701,11.698 17.701,13.057 19.101,13.057 
					19.101,9 17.701,9 17.701,10.34 16.42,10.34 16.42,9 15.02,9 15.02,13.057 16.42,13.057 				"/>
				<polygon style="fill:#FFFFFF;enable-background:new    ;" points="20.943,13.057 22.344,13.057 22.344,10.347 23.576,10.347 
					23.576,9 19.711,9 19.711,10.347 20.943,10.347 				"/>
				<polygon style="fill:#FFFFFF;enable-background:new    ;" points="25.56,11.047 26.524,12.489 26.548,12.489 27.511,11.047 
					27.511,13.057 28.907,13.057 28.907,9 27.446,9 26.548,10.428 25.65,9 24.19,9 24.19,13.057 25.56,13.057 				"/>
				<polygon style="fill:#FFFFFF;enable-background:new    ;" points="32.972,11.717 31.003,11.717 31.003,9 29.603,9 
					29.603,13.057 32.972,13.057 				"/>
				<path style="fill:#FFFFFF;enable-background:new    ;" d="M13,14.837l2.004,21.747L23.996,39l8.999-2.414L35,14.837H13z
					 M30.654,21.948H24h-3.89l0.252,2.731H24h6.404l-0.755,8.191L24,34.386l-0.004,0.001l-5.645-1.516l-0.393-4.284h2.766
					l0.204,2.222l3.069,0.804L24,31.611l0,0l3.073-0.804l0.321-3.459H24l0,0h-6.158L17.1,19.282H24h6.902L30.654,21.948z"/>
			</g>
		</g>
		<linearGradient id="SVGID_1_" gradientUnits="userSpaceOnUse" x1="24" y1="27.2178" x2="24" y2="7.160383e-005">
			<stop  offset="0" style="stop-color:#FFFFFF"/>
			<stop  offset="1" style="stop-color:#FFFFFF;stop-opacity:0"/>
		</linearGradient>
		<path style="opacity:0.4;fill:url(#SVGID_1_);" d="M24.061,0C11.798,0,1.69,9.197,0.243,21.068
			C2.2,25.281,7.901,31.31,24.061,23.244c16.889-8.432,18.822-5.574,23.695-3.059C45.929,8.742,36.017,0,24.061,0z"/>
	</g>
</g>
<g id="Layer_1">
</g>
</svg>
