<?xml version="1.0" encoding="iso-8859-1"?>
<!-- Generator: Adobe Illustrator 18.0.0, SVG Export Plug-In . SVG Version: 6.00 Build 0)  -->
<!DOCTYPE svg PUBLIC "-//W3C//DTD SVG 1.1//EN" "http://www.w3.org/Graphics/SVG/1.1/DTD/svg11.dtd">
<svg version="1.1" xmlns="http://www.w3.org/2000/svg" xmlns:xlink="http://www.w3.org/1999/xlink" x="0px" y="0px"
	 viewBox="0 0 48 48" style="enable-background:new 0 0 48 48;" xml:space="preserve">
<g id="Layer_10">
	<g>
		<g>
			<circle style="fill:#CA3C27;" cx="24" cy="24" r="24"/>
			<g>
				<path style="fill:#FFFFFF;" d="M32.283,36.787c0.583,0,1.16-0.446,1.16-0.446l3.224-4.307c0,0,0.326-0.544,0.332-1.02
					c0.013-0.677-1.079-0.863-1.079-0.863l-7.637-2.291c0,0-0.748-0.184-1.246,0.284c-0.542,0.512-0.084,1.44-0.084,1.44
					l4.081,6.363C31.035,35.948,31.704,36.787,32.283,36.787z"/>
				<path style="fill:#FFFFFF;" d="M28.119,25.376l7.621-2.08c0,0,1.037-0.394,1.185-0.92c0.144-0.525-0.171-1.161-0.171-1.161
					l-3.642-4.007c0,0-0.314-0.507-0.97-0.557c-0.721-0.059-1.165,0.758-1.165,0.758l-4.305,6.329c0,0-0.381,0.63-0.021,1.2
					C27.042,25.556,28.119,25.376,28.119,25.376z"/>
				<path style="fill:#FFFFFF;" d="M23.051,22.469c0.897-0.206,1.041-1.424,1.041-1.424l-0.063-10.132c0,0-0.134-1.25-0.736-1.59
					c-0.943-0.534-1.221-0.255-1.493-0.218l-6.326,2.195c0,0-0.619,0.192-0.941,0.676c-0.46,0.684,0.468,1.685,0.468,1.685
					l6.575,8.373C21.577,22.035,22.225,22.66,23.051,22.469z"/>
				<path style="fill:#FFFFFF;" d="M12.19,21.994c-0.374,0.206-0.707,0.581-0.74,0.912l-0.441,5.092c0,0-0.067,0.882,0.178,1.283
					c0.347,0.57,1.487,0.173,1.487,0.173l7.938-1.638c0.307-0.194,0.849-0.212,0.878-1.245c0.023-0.782-1.004-1.251-1.004-1.251
					l-6.799-3.209C13.687,22.111,12.679,21.722,12.19,21.994z"/>
				<path style="fill:#FFFFFF;" d="M16.952,37.373l5.335,1.573c0,0,0.648,0.126,1.139-0.007c0.694-0.188,0.565-1.206,0.565-1.206
					l0.121-7.4c0,0-0.027-0.712-0.65-1.014c-0.682-0.326-1.497,0.351-1.497,0.351l-5.312,5.465c0,0-0.665,0.837-0.496,1.35
					C16.317,36.965,16.578,37.205,16.952,37.373z"/>
			</g>
		</g>
		<linearGradient id="SVGID_1_" gradientUnits="userSpaceOnUse" x1="24" y1="27.2184" x2="24" y2="7.160383e-005">
			<stop  offset="0" style="stop-color:#FFFFFF"/>
			<stop  offset="1" style="stop-color:#FFFFFF;stop-opacity:0"/>
		</linearGradient>
		<path style="opacity:0.4;fill:url(#SVGID_1_);" d="M24.061,0C11.799,0,1.691,9.197,0.244,21.07
			c1.955,4.213,7.658,10.24,23.816,2.174c16.889-8.432,18.822-5.572,23.695-3.057C45.93,8.744,36.018,0,24.061,0z"/>
	</g>
</g>
<g id="Layer_1">
</g>
</svg>
