<?xml version="1.0" encoding="iso-8859-1"?>
<!-- Generator: Adobe Illustrator 18.0.0, SVG Export Plug-In . SVG Version: 6.00 Build 0)  -->
<!DOCTYPE svg PUBLIC "-//W3C//DTD SVG 1.1//EN" "http://www.w3.org/Graphics/SVG/1.1/DTD/svg11.dtd">
<svg version="1.1" xmlns="http://www.w3.org/2000/svg" xmlns:xlink="http://www.w3.org/1999/xlink" x="0px" y="0px"
	 viewBox="0 0 48 48" style="enable-background:new 0 0 48 48;" xml:space="preserve">
<g id="nyt_x5F_exporter_x5F_info" style="display:none;">
</g>
<g>
</g>
<g>
</g>
<g>
</g>
<g>
</g>
<g>
</g>
<g>
</g>
<g>
</g>
<g>
</g>
<g>
</g>
<g>
</g>
<g>
</g>
<g>
</g>
<g>
</g>
<g>
</g>
<g>
</g>
<g>
</g>
<g>
</g>
<g>
</g>
<g>
</g>
<g>
</g>
<g>
</g>
<g>
</g>
<g>
</g>
<g>
</g>
<g>
</g>
<g>
</g>
<g>
</g>
<g>
</g>
<g>
</g>
<g>
</g>
<g>
</g>
<g>
</g>
<g>
</g>
<g>
</g>
<g>
</g>
<g>
</g>
<g>
</g>
<g>
</g>
<g>
</g>
<g>
</g>
<g>
</g>
<g>
</g>
<g>
</g>
<g>
</g>
<g>
</g>
<g>
</g>
<g>
</g>
<g>
</g>
<g>
</g>
<g>
</g>
<g>
</g>
<g>
</g>
<g>
</g>
<g>
</g>
<g>
</g>
<g>
</g>
<g>
</g>
<g>
</g>
<g>
</g>
<g>
</g>
<g>
</g>
<g>
</g>
<g>
</g>
<g>
</g>
<g>
</g>
<g>
</g>
<g>
</g>
<g>
</g>
<g>
</g>
<g>
</g>
<g>
</g>
<g>
</g>
<g>
</g>
<g>
</g>
<g>
</g>
<g>
	<g>
		<circle style="fill:#00A2F2;" cx="24" cy="23.998" r="24"/>
		<g id="g18086_11_" transform="matrix(4.6798804,0,0,4.6798804,-14628.123,-100339.87)">
			<g id="bag_12_" transform="translate(2886.7719,21269.267)">
				<g id="handles_12_">
					<path id="path205_11_" style="fill:#FFFFFF;" d="M244,173.934c-0.281,0.097-0.486,0.18-0.486,0.708v0.254l0.168-0.033v-0.22
						c-0.004-0.358,0.09-0.433,0.336-0.538C244.017,174.038,244.011,173.981,244,173.934L244,173.934z"/>
					<path id="path207_11_" style="fill:#FFFFFF;" d="M244.49,173.821c0.011,0.051,0.02,0.107,0.026,0.167
						c0.44-0.062,0.431,0.116,0.431,0.489v0.138l0.166-0.034v-0.104C245.113,173.898,245.021,173.743,244.49,173.821z"/>
					<path id="path209_11_" style="fill:#FFFFFF;" d="M242.756,175.046v-0.762c-0.005-0.472,0.242-0.616,0.699-0.722
						c0.688-0.159,0.732,0.278,0.732,0.556v0.646l0.169-0.034v-0.598c-0.002-0.526-0.168-0.92-0.934-0.749
						c-0.413,0.092-0.834,0.196-0.834,0.885v0.81L242.756,175.046L242.756,175.046z"/>
				</g>
				<path id="path211_11_" style="fill:#FFFFFF;" d="M245.956,174.616l-4.63,0.911v3.315l4.63,0.911l0.925-0.331v-4.475
					L245.956,174.616L245.956,174.616z M243.348,178.157l-1.027-0.143v-0.84h1.027V178.157z M243.348,177.047h-1.027v-0.772
					l1.027-0.143V177.047z M244.772,178.351l-1.295-0.186v-0.99h1.295V178.351z M244.772,177.047h-1.295v-0.923l1.295-0.187V177.047
					z"/>
			</g>
		</g>
		<linearGradient id="SVGID_1_" gradientUnits="userSpaceOnUse" x1="24" y1="27.2184" x2="24" y2="-1.818989e-012">
			<stop  offset="0" style="stop-color:#FFFFFF"/>
			<stop  offset="1" style="stop-color:#FFFFFF;stop-opacity:0"/>
		</linearGradient>
		<path style="opacity:0.4;fill:url(#SVGID_1_);" d="M24.062,0C11.798,0,1.69,9.197,0.243,21.07
			c1.957,4.213,7.658,10.24,23.818,2.174c16.889-8.432,18.822-5.572,23.695-3.057C45.929,8.744,36.017,0,24.062,0z"/>
	</g>
</g>
<g>
</g>
<g>
</g>
<g>
</g>
<g>
</g>
<g>
</g>
<g>
</g>
<g>
</g>
<g>
</g>
<g>
</g>
<g>
</g>
<g>
</g>
<g>
</g>
<g>
</g>
<g>
</g>
</svg>
