<?xml version="1.0" encoding="iso-8859-1"?>
<!-- Generator: Adobe Illustrator 18.0.0, SVG Export Plug-In . SVG Version: 6.00 Build 0)  -->
<!DOCTYPE svg PUBLIC "-//W3C//DTD SVG 1.1//EN" "http://www.w3.org/Graphics/SVG/1.1/DTD/svg11.dtd">
<svg version="1.1" xmlns="http://www.w3.org/2000/svg" xmlns:xlink="http://www.w3.org/1999/xlink" x="0px" y="0px"
	 viewBox="0 0 48 48" style="enable-background:new 0 0 48 48;" xml:space="preserve">
<g id="Layer_59">
	<g>
		<g>
			<circle style="fill:#2A445F;" cx="24" cy="24" r="24.001"/>
			<g>
				<path style="fill:#FFFFFF;" d="M19.307,34.955c0.274,0.722,0.765,1.403,1.48,2.045c0.709,0.637,1.568,1.133,2.575,1.481
					C24.369,38.825,25.141,39,26.453,39c1.153,0,2.226-0.124,3.219-0.366c0.995-0.242,2.105-0.667,3.327-1.27v-4.729
					c-1.435,0.987-2.88,1.48-4.33,1.48c-0.817,0-1.54-0.2-2.176-0.599c-0.478-0.294-0.918-0.804-1.092-1.294
					c-0.175-0.492-0.155-1.496-0.155-3.236v-7.692h6.627v-5.356h-6.627V9h-4.076c-0.183,1.546-0.519,2.822-1.006,3.822
					c-0.485,1.002-1.129,1.859-1.933,2.576c-0.801,0.715-2.107,1.264-3.232,1.645v4.249h3.895v10.52
					C18.895,33.185,19.031,34.232,19.307,34.955z"/>
			</g>
		</g>
		<linearGradient id="SVGID_1_" gradientUnits="userSpaceOnUse" x1="24" y1="27.2178" x2="24" y2="7.160383e-005">
			<stop  offset="0" style="stop-color:#FFFFFF"/>
			<stop  offset="1" style="stop-color:#FFFFFF;stop-opacity:0"/>
		</linearGradient>
		<path style="opacity:0.4;fill:url(#SVGID_1_);" d="M24.061,0C11.799,0,1.691,9.197,0.244,21.068
			c1.955,4.213,7.658,10.242,23.816,2.176c16.889-8.432,18.822-5.574,23.695-3.059C45.93,8.742,36.018,0,24.061,0z"/>
	</g>
</g>
<g id="Layer_1">
</g>
</svg>
