<?xml version="1.0" encoding="iso-8859-1"?>
<!-- Generator: Adobe Illustrator 18.0.0, SVG Export Plug-In . SVG Version: 6.00 Build 0)  -->
<!DOCTYPE svg PUBLIC "-//W3C//DTD SVG 1.1//EN" "http://www.w3.org/Graphics/SVG/1.1/DTD/svg11.dtd">
<svg version="1.1" xmlns="http://www.w3.org/2000/svg" xmlns:xlink="http://www.w3.org/1999/xlink" x="0px" y="0px"
	 viewBox="0 0 48 48" style="enable-background:new 0 0 48 48;" xml:space="preserve">
<g id="Layer_45">
	<g>
		<g>
			<circle style="fill:#83D1ED;" cx="24" cy="24" r="24"/>
			<g>
				<polygon style="fill:#FFFFFF;" points="9,25.588 17.824,31.37 24,26.198 15.102,20.684 				"/>
				<polygon style="fill:#FFFFFF;" points="17.824,10 9,15.779 15.102,20.684 24,15.171 				"/>
				<polygon style="fill:#FFFFFF;" points="30.174,10 24,15.171 32.898,20.684 39,15.779 				"/>
				<polygon style="fill:#FFFFFF;" points="30.174,31.37 39,25.588 32.898,20.684 24,26.198 				"/>
				<polygon style="fill:#FFFFFF;" points="32.861,32.68 32.861,30.73 30.211,32.468 24.02,27.31 17.824,32.468 15.174,30.73 
					15.174,32.68 24.02,38 				"/>
			</g>
		</g>
		<linearGradient id="SVGID_1_" gradientUnits="userSpaceOnUse" x1="24" y1="27.2178" x2="24" y2="7.160383e-005">
			<stop  offset="0" style="stop-color:#FFFFFF"/>
			<stop  offset="1" style="stop-color:#FFFFFF;stop-opacity:0"/>
		</linearGradient>
		<path style="opacity:0.4;fill:url(#SVGID_1_);" d="M24.061,0C11.799,0,1.692,9.197,0.244,21.068
			c1.955,4.213,7.658,10.242,23.816,2.176c16.889-8.432,18.822-5.574,23.695-3.059C45.93,8.742,36.018,0,24.061,0z"/>
	</g>
</g>
<g id="Layer_1">
</g>
</svg>
