<?xml version="1.0" encoding="iso-8859-1"?>
<!-- Generator: Adobe Illustrator 18.0.0, SVG Export Plug-In . SVG Version: 6.00 Build 0)  -->
<!DOCTYPE svg PUBLIC "-//W3C//DTD SVG 1.1//EN" "http://www.w3.org/Graphics/SVG/1.1/DTD/svg11.dtd">
<svg version="1.1" xmlns="http://www.w3.org/2000/svg" xmlns:xlink="http://www.w3.org/1999/xlink" x="0px" y="0px"
	 viewBox="0 0 48 48" style="enable-background:new 0 0 48 48;" xml:space="preserve">
<g id="Layer_58">
	<g>
		<g>
			<circle style="fill:#A7A9AC;" cx="24" cy="23.998" r="24.001"/>
			<g>
				<path style="fill:#FFFFFF;" d="M19.753,38.998c1.869-0.076,2.573-1.229,4.83-1.229c2.258,0,2.892,1.229,4.866,1.191
					c2.007-0.038,3.281-1.856,4.509-3.685c1.422-2.115,2.007-4.163,2.042-4.267c-0.044-0.021-3.914-1.53-3.955-6.068
					c-0.036-3.8,3.045-5.622,3.183-5.714c-1.733-2.577-4.431-2.932-5.392-2.972c-2.295-0.237-4.477,1.376-5.641,1.376
					c-1.163,0-2.961-1.342-4.864-1.307c-2.502,0.038-4.809,1.481-6.098,3.762c-2.598,4.59-0.664,11.392,1.869,15.117
					C16.34,37.024,17.815,39.072,19.753,38.998z"/>
				<path style="fill:#FFFFFF;" d="M25.525,11.271c-0.952,1.126-1.786,2.918-1.564,4.643c1.656,0.132,3.343-0.856,4.373-2.123
					c1.027-1.27,1.723-3.034,1.533-4.79C28.386,9.061,26.59,10.003,25.525,11.271z"/>
			</g>
		</g>
		<linearGradient id="SVGID_1_" gradientUnits="userSpaceOnUse" x1="24" y1="27.2184" x2="24" y2="7.160383e-005">
			<stop  offset="0" style="stop-color:#FFFFFF"/>
			<stop  offset="1" style="stop-color:#FFFFFF;stop-opacity:0"/>
		</linearGradient>
		<path style="opacity:0.4;fill:url(#SVGID_1_);" d="M24.062,0C11.798,0,1.691,9.197,0.243,21.07
			c1.957,4.213,7.658,10.24,23.818,2.174c16.889-8.432,18.822-5.572,23.695-3.057C45.929,8.744,36.017,0,24.062,0z"/>
	</g>
</g>
<g id="Layer_1">
</g>
</svg>
