<?xml version="1.0" encoding="iso-8859-1"?>
<!-- Generator: Adobe Illustrator 18.0.0, SVG Export Plug-In . SVG Version: 6.00 Build 0)  -->
<!DOCTYPE svg PUBLIC "-//W3C//DTD SVG 1.1//EN" "http://www.w3.org/Graphics/SVG/1.1/DTD/svg11.dtd">
<svg version="1.1" xmlns="http://www.w3.org/2000/svg" xmlns:xlink="http://www.w3.org/1999/xlink" x="0px" y="0px"
	 viewBox="0 0 48 48" style="enable-background:new 0 0 48 48;" xml:space="preserve">
<g id="Layer_67">
	<g>
		<g>
			<path style="fill:#3C5B9B;" d="M48.001,24c0,13.254-10.746,24-23.998,24C10.745,48-0.001,37.254-0.001,24
				c0-13.256,10.746-24,24.004-24C37.255,0,48.001,10.744,48.001,24z"/>
			<g>
				<path style="fill:#FFFFFF;" d="M19.999,39h6c0,0,0-8.282,0-15h4.453l0.547-6h-4.768v-2.399c0-1.169,0.779-1.441,1.326-1.441
					c0.547,0,3.366,0,3.366,0V9.019L26.288,9c-5.145,0-6.314,3.834-6.314,6.288V18h-2.975v6h3C19.999,30.799,19.999,39,19.999,39z"
					/>
			</g>
		</g>
		<linearGradient id="SVGID_1_" gradientUnits="userSpaceOnUse" x1="24" y1="27.2178" x2="24" y2="7.160383e-005">
			<stop  offset="0" style="stop-color:#FFFFFF"/>
			<stop  offset="1" style="stop-color:#FFFFFF;stop-opacity:0"/>
		</linearGradient>
		<path style="opacity:0.4;fill:url(#SVGID_1_);" d="M24.062,0C11.798,0,1.691,9.197,0.243,21.068
			C2.2,25.281,7.901,31.31,24.062,23.244c16.889-8.432,18.822-5.574,23.695-3.059C45.929,8.742,36.017,0,24.062,0z"/>
	</g>
</g>
<g id="Layer_1">
</g>
</svg>
