<?xml version="1.0" encoding="iso-8859-1"?>
<!-- Generator: Adobe Illustrator 18.0.0, SVG Export Plug-In . SVG Version: 6.00 Build 0)  -->
<!DOCTYPE svg PUBLIC "-//W3C//DTD SVG 1.1//EN" "http://www.w3.org/Graphics/SVG/1.1/DTD/svg11.dtd">
<svg version="1.1" xmlns="http://www.w3.org/2000/svg" xmlns:xlink="http://www.w3.org/1999/xlink" x="0px" y="0px"
	 viewBox="0 0 48 48" style="enable-background:new 0 0 48 48;" xml:space="preserve">
<g id="Layer_6">
	<g>
		<g>
			<circle style="fill:#F08421;" cx="24" cy="23.998" r="24"/>
			<g>
				<ellipse style="fill:#FFFFFF;" cx="12.998" cy="34.982" rx="4" ry="3.982"/>
				<path style="fill:#FFFFFF;" d="M23.03,38.992h5.773c0-10.918-8.881-19.799-19.797-19.799v5.75c3.745,0,7.267,1.457,9.914,4.109
					C21.57,31.703,23.03,35.234,23.03,38.992z"/>
				<path style="fill:#FFFFFF;" d="M33.229,39H39C39,22.457,25.548,9,9.016,9v5.75C22.366,14.75,33.229,25.629,33.229,39z"/>
			</g>
		</g>
		<linearGradient id="SVGID_1_" gradientUnits="userSpaceOnUse" x1="24" y1="27.2184" x2="24" y2="7.160383e-005">
			<stop  offset="0" style="stop-color:#FFFFFF"/>
			<stop  offset="1" style="stop-color:#FFFFFF;stop-opacity:0"/>
		</linearGradient>
		<path style="opacity:0.4;fill:url(#SVGID_1_);" d="M24.06,0C11.799,0,1.691,9.197,0.244,21.07
			c1.955,4.213,7.658,10.24,23.816,2.174c16.889-8.432,18.822-5.572,23.695-3.057C45.93,8.744,36.018,0,24.06,0z"/>
	</g>
</g>
<g id="Layer_1">
</g>
</svg>
