<?xml version="1.0" encoding="iso-8859-1"?>
<!-- Generator: Adobe Illustrator 18.0.0, SVG Export Plug-In . SVG Version: 6.00 Build 0)  -->
<!DOCTYPE svg PUBLIC "-//W3C//DTD SVG 1.1//EN" "http://www.w3.org/Graphics/SVG/1.1/DTD/svg11.dtd">
<svg version="1.1" xmlns="http://www.w3.org/2000/svg" xmlns:xlink="http://www.w3.org/1999/xlink" x="0px" y="0px"
	 viewBox="0 0 48 48" style="enable-background:new 0 0 48 48;" xml:space="preserve">
<g id="Layer_7">
	<g>
		<g>
			<circle style="fill:#E04D2B;" cx="24" cy="23.998" r="24"/>
			<path style="fill-rule:evenodd;clip-rule:evenodd;fill:#FFFFFF;" d="M24,39c-0.34,0-0.68-0.012-1.016-0.033l6.275-10.871
				c0.881-1.133,1.406-2.557,1.406-4.103c0-2.502-1.375-4.684-3.412-5.832h10.568C38.58,19.955,39,21.93,39,24
				C39,32.285,32.285,39,24,39z M23.971,17.299c-3.674,0-6.656,2.961-6.691,6.627l-5.207-9.018C14.813,11.316,19.137,9,24,9
				c5.869,0,10.947,3.369,13.412,8.279H23.971V17.299z M24.037,29.631c-3.102,0-5.615-2.514-5.615-5.615s2.514-5.615,5.615-5.615
				s5.617,2.514,5.617,5.615S27.139,29.631,24.037,29.631z M23.971,30.687c1.187,0,2.301-0.309,3.268-0.852l-5.217,9.035
				C14.674,37.902,9,31.613,9,24c0-3.07,0.926-5.928,2.51-8.305l6.289,10.893C18.813,28.996,21.195,30.687,23.971,30.687z"/>
		</g>
		<linearGradient id="SVGID_1_" gradientUnits="userSpaceOnUse" x1="24" y1="27.2184" x2="24" y2="7.160383e-005">
			<stop  offset="0" style="stop-color:#FFFFFF"/>
			<stop  offset="1" style="stop-color:#FFFFFF;stop-opacity:0"/>
		</linearGradient>
		<path style="opacity:0.4;fill:url(#SVGID_1_);" d="M24.062,0C11.798,0,1.691,9.197,0.243,21.07
			c1.957,4.213,7.658,10.24,23.818,2.174c16.889-8.432,18.822-5.572,23.695-3.057C45.929,8.744,36.017,0,24.062,0z"/>
	</g>
</g>
<g id="Layer_1">
</g>
</svg>
