<?xml version="1.0" encoding="iso-8859-1"?>
<!-- Generator: Adobe Illustrator 18.0.0, SVG Export Plug-In . SVG Version: 6.00 Build 0)  -->
<!DOCTYPE svg PUBLIC "-//W3C//DTD SVG 1.1//EN" "http://www.w3.org/Graphics/SVG/1.1/DTD/svg11.dtd">
<svg version="1.1" xmlns="http://www.w3.org/2000/svg" xmlns:xlink="http://www.w3.org/1999/xlink" x="0px" y="0px"
	 viewBox="0 0 48 48" style="enable-background:new 0 0 48 48;" xml:space="preserve">
<g id="Layer_22">
	<g>
		<g>
			<circle style="fill:#7197BF;" cx="24" cy="23.998" r="24"/>
			<g>
				<path style="fill:#FFFFFF;" d="M14.27,39h5.267V25.36h2.637h2.635h2.633V39h5.27V25.36h5.271v-5.452h-5.271v-2.725
					c0-1.609,0.963-2.791,1.826-2.791H39V9h-4.463c-3.912,0-7.096,3.67-7.096,8.183v2.725h-2.633h-2.635h-2.637v-2.725
					c0-1.609,0.963-2.791,1.828-2.791h4.461V9h-4.461c-3.914,0-7.096,3.67-7.096,8.183v2.725H9v5.452h5.27V39z"/>
			</g>
		</g>
		<linearGradient id="SVGID_1_" gradientUnits="userSpaceOnUse" x1="24" y1="27.2178" x2="24" y2="7.160383e-005">
			<stop  offset="0" style="stop-color:#FFFFFF"/>
			<stop  offset="1" style="stop-color:#FFFFFF;stop-opacity:0"/>
		</linearGradient>
		<path style="opacity:0.4;fill:url(#SVGID_1_);" d="M24.062,0C11.798,0,1.69,9.197,0.243,21.068
			C2.2,25.281,7.901,31.31,24.062,23.244c16.889-8.432,18.822-5.574,23.695-3.059C45.929,8.742,36.017,0,24.062,0z"/>
	</g>
</g>
<g id="Layer_1">
</g>
</svg>
