<?xml version="1.0" encoding="iso-8859-1"?>
<!-- Generator: Adobe Illustrator 18.0.0, SVG Export Plug-In . SVG Version: 6.00 Build 0)  -->
<!DOCTYPE svg PUBLIC "-//W3C//DTD SVG 1.1//EN" "http://www.w3.org/Graphics/SVG/1.1/DTD/svg11.dtd">
<svg version="1.1" xmlns="http://www.w3.org/2000/svg" xmlns:xlink="http://www.w3.org/1999/xlink" x="0px" y="0px"
	 viewBox="0 0 48 48" style="enable-background:new 0 0 48 48;" xml:space="preserve">
<g id="Layer_21">
	<g>
		<g>
			<circle style="fill:#4CB249;" cx="24" cy="23.998" r="24"/>
			<g>
				<path style="fill:#FFFFFF;" d="M12.293,29.291c1.301,0,2.477-0.486,3.398-1.265l10.75,5.375
					c-0.008,0.102-0.031,0.196-0.031,0.302c0,2.927,2.367,5.297,5.295,5.297C34.629,39,37,36.63,37,33.703
					c0-2.925-2.371-5.294-5.295-5.294c-1.301,0-2.478,0.486-3.398,1.266L17.559,24.3c0.004-0.102,0.027-0.197,0.027-0.3
					c0-0.105-0.024-0.202-0.027-0.305l10.748-5.378c0.92,0.779,2.096,1.269,3.398,1.269c2.924,0,5.295-2.369,5.295-5.296
					C37,11.368,34.629,9,31.705,9c-2.928,0-5.295,2.368-5.295,5.291c0,0.105,0.023,0.202,0.031,0.304l-10.75,5.374
					c-0.922-0.778-2.098-1.267-3.398-1.267C9.369,18.702,7,21.073,7,24C7,26.923,9.369,29.291,12.293,29.291z"/>
			</g>
		</g>
		<linearGradient id="SVGID_1_" gradientUnits="userSpaceOnUse" x1="24" y1="27.2184" x2="24" y2="7.160383e-005">
			<stop  offset="0" style="stop-color:#FFFFFF"/>
			<stop  offset="1" style="stop-color:#FFFFFF;stop-opacity:0"/>
		</linearGradient>
		<path style="opacity:0.4;fill:url(#SVGID_1_);" d="M24.062,0C11.798,0,1.69,9.197,0.243,21.07
			c1.957,4.213,7.658,10.24,23.818,2.174c16.889-8.432,18.822-5.572,23.695-3.057C45.929,8.744,36.017,0,24.062,0z"/>
	</g>
</g>
<g id="Layer_1">
</g>
</svg>
