<?xml version="1.0" encoding="iso-8859-1"?>
<!-- Generator: Adobe Illustrator 18.0.0, SVG Export Plug-In . SVG Version: 6.00 Build 0)  -->
<!DOCTYPE svg PUBLIC "-//W3C//DTD SVG 1.1//EN" "http://www.w3.org/Graphics/SVG/1.1/DTD/svg11.dtd">
<svg version="1.1" xmlns="http://www.w3.org/2000/svg" xmlns:xlink="http://www.w3.org/1999/xlink" x="0px" y="0px"
	 viewBox="0 0 48 48" style="enable-background:new 0 0 48 48;" xml:space="preserve">
<g id="Layer_70">
	<g>
		<circle style="fill:#2DAAE1;" cx="24" cy="24" r="24.001"/>
		<g>
			<path style="fill:#FFFFFF;" d="M38.176,13.442c-1.189,0.695-2.508,1.2-3.91,1.472C33.145,13.736,31.545,13,29.774,13
				c-3.398,0-6.154,2.713-6.154,6.059c0,0.475,0.055,0.936,0.158,1.38c-5.115-0.253-9.65-2.665-12.686-6.33
				c-0.529,0.894-0.834,1.935-0.834,3.046c0,2.101,1.089,3.956,2.739,5.042c-1.008-0.032-1.958-0.304-2.788-0.757
				c0,0.025,0,0.051,0,0.076c0,2.935,2.122,5.384,4.938,5.942c-0.517,0.138-1.06,0.212-1.623,0.212
				c-0.396,0-0.781-0.038-1.158-0.109c0.785,2.406,3.057,4.159,5.75,4.208c-2.107,1.625-4.76,2.594-7.645,2.594
				c-0.498,0-0.986-0.029-1.469-0.085C11.727,35.997,14.964,37,18.438,37C29.76,37,35.95,27.769,35.95,19.762
				c0-0.262-0.004-0.525-0.016-0.784c1.201-0.854,2.246-1.921,3.07-3.137c-1.103,0.483-2.289,0.807-3.535,0.954
				C36.741,16.045,37.715,14.858,38.176,13.442z"/>
		</g>
		<linearGradient id="SVGID_1_" gradientUnits="userSpaceOnUse" x1="24.003" y1="27.2178" x2="24.003" y2="7.158142e-005">
			<stop  offset="0" style="stop-color:#FFFFFF"/>
			<stop  offset="1" style="stop-color:#FFFFFF;stop-opacity:0"/>
		</linearGradient>
		<path style="opacity:0.4;fill:url(#SVGID_1_);" d="M24.064,0C11.801,0,1.692,9.197,0.246,21.068
			c1.956,4.213,7.659,10.242,23.818,2.176c16.889-8.432,18.822-5.574,23.695-3.059C45.932,8.742,36.02,0,24.064,0z"/>
	</g>
</g>
<g id="Layer_1">
</g>
</svg>
