<?xml version="1.0" encoding="iso-8859-1"?>
<!-- Generator: Adobe Illustrator 18.0.0, SVG Export Plug-In . SVG Version: 6.00 Build 0)  -->
<!DOCTYPE svg PUBLIC "-//W3C//DTD SVG 1.1//EN" "http://www.w3.org/Graphics/SVG/1.1/DTD/svg11.dtd">
<svg version="1.1" xmlns="http://www.w3.org/2000/svg" xmlns:xlink="http://www.w3.org/1999/xlink" x="0px" y="0px"
	 viewBox="0 0 48 48" style="enable-background:new 0 0 48 48;" xml:space="preserve">
<g id="Layer_50">
	<g>
		<g>
			<circle style="fill:#FF6600;" cx="24" cy="24" r="24"/>
			<g>
				<path style="fill:#FFFFFF;" d="M18.507,39h10.926c5.231,0,9.481-4.262,9.51-9.463L39,21.879l-0.086-0.418l-0.255-0.521
					l-0.421-0.33c-0.553-0.432-3.351,0.027-4.103-0.654c-0.535-0.49-0.618-1.373-0.778-2.564c-0.3-2.318-0.492-2.437-0.853-3.219
					C31.185,11.385,27.611,9.291,25.157,9h-6.65C13.276,9,9,13.27,9,18.48v11.057C9,34.738,13.276,39,18.507,39z M18.628,16.746
					H23.9c1.006,0,1.821,0.814,1.821,1.809c0,0.99-0.816,1.812-1.821,1.812h-5.272c-1.006,0-1.821-0.822-1.821-1.812
					C16.807,17.561,17.622,16.746,18.628,16.746z M18.628,27.594H29.34c1.002,0,1.812,0.811,1.812,1.805
					c0,0.98-0.81,1.805-1.812,1.805H18.628c-1.006,0-1.821-0.824-1.821-1.805C16.807,28.404,17.622,27.594,18.628,27.594z"/>
			</g>
		</g>
		<linearGradient id="SVGID_1_" gradientUnits="userSpaceOnUse" x1="24" y1="27.2178" x2="24" y2="7.160383e-005">
			<stop  offset="0" style="stop-color:#FFFFFF"/>
			<stop  offset="1" style="stop-color:#FFFFFF;stop-opacity:0"/>
		</linearGradient>
		<path style="opacity:0.4;fill:url(#SVGID_1_);" d="M24.061,0C11.798,0,1.69,9.197,0.243,21.068
			C2.2,25.281,7.901,31.31,24.061,23.244c16.889-8.432,18.822-5.574,23.695-3.059C45.929,8.742,36.017,0,24.061,0z"/>
	</g>
</g>
<g id="Layer_1">
</g>
</svg>
