<?xml version="1.0" encoding="iso-8859-1"?>
<!-- Generator: Adobe Illustrator 18.0.0, SVG Export Plug-In . SVG Version: 6.00 Build 0)  -->
<!DOCTYPE svg PUBLIC "-//W3C//DTD SVG 1.1//EN" "http://www.w3.org/Graphics/SVG/1.1/DTD/svg11.dtd">
<svg version="1.1" xmlns="http://www.w3.org/2000/svg" xmlns:xlink="http://www.w3.org/1999/xlink" x="0px" y="0px"
	 viewBox="0 0 48 48" style="enable-background:new 0 0 48 48;" xml:space="preserve">
<g id="Layer_26">
	<g>
		<g>
			<circle style="fill:#C96F00;" cx="24" cy="23.998" r="24"/>
			<g>
				<polygon style="fill:#FFFFFF;" points="33.561,30.657 31.879,25.501 30.199,30.657 24.758,30.657 29.158,33.844 27.478,39 
					31.879,35.813 36.279,39 34.599,33.844 39,30.657 				"/>
				<path style="fill:#FFFFFF;" d="M27.896,34.253c-0.925-0.67-6.441-4.664-6.441-4.664s6.817,0,7.964,0
					c0.353-1.086,2.46-7.549,2.46-7.549s2.107,6.463,2.462,7.549c0.557,0,2.45,0,4.252,0L31.879,9l-5.4,16.565H9l17.565,12.771
					C27.127,36.612,27.723,34.786,27.896,34.253z"/>
			</g>
		</g>
		<linearGradient id="SVGID_1_" gradientUnits="userSpaceOnUse" x1="24" y1="27.2184" x2="24" y2="7.160383e-005">
			<stop  offset="0" style="stop-color:#FFFFFF"/>
			<stop  offset="1" style="stop-color:#FFFFFF;stop-opacity:0"/>
		</linearGradient>
		<path style="opacity:0.4;fill:url(#SVGID_1_);" d="M24.061,0C11.799,0,1.692,9.197,0.244,21.07
			c1.955,4.213,7.658,10.24,23.816,2.174c16.889-8.432,18.822-5.572,23.695-3.057C45.93,8.744,36.018,0,24.061,0z"/>
	</g>
</g>
<g id="Layer_1">
</g>
</svg>
