<?xml version="1.0" encoding="iso-8859-1"?>
<!-- Generator: Adobe Illustrator 18.0.0, SVG Export Plug-In . SVG Version: 6.00 Build 0)  -->
<!DOCTYPE svg PUBLIC "-//W3C//DTD SVG 1.1//EN" "http://www.w3.org/Graphics/SVG/1.1/DTD/svg11.dtd">
<svg version="1.1" xmlns="http://www.w3.org/2000/svg" xmlns:xlink="http://www.w3.org/1999/xlink" x="0px" y="0px"
	 viewBox="0 0 48 48" style="enable-background:new 0 0 48 48;" xml:space="preserve">
<g id="Layer_4">
	<g>
		<g>
			<circle style="fill:#3777E3;" cx="24" cy="23.998" r="24"/>
			<g>
				<polygon style="fill:#FFFFFF;" points="19.385,30 15.238,36.634 14.992,37 15.486,37 34.439,37 34.607,37 34.689,36.878 39,30 
									"/>
				<polygon style="fill:#FFFFFF;" points="29.277,11.143 29.193,11 29.027,11.002 20.842,11.033 20.348,11.037 20.594,11.459 
					30.072,27.652 30.156,27.795 30.322,27.795 38.506,27.76 39,27.758 38.752,27.336 				"/>
				<polygon style="fill:#FFFFFF;" points="23.264,19.419 23.178,19.276 19.057,12.301 18.807,11.881 18.561,12.303 9.084,28.497 
					9,28.639 9.086,28.78 13.207,35.757 13.455,36.179 13.703,35.757 23.18,19.561 				"/>
			</g>
		</g>
		<linearGradient id="SVGID_1_" gradientUnits="userSpaceOnUse" x1="24" y1="27.2184" x2="24" y2="7.160383e-005">
			<stop  offset="0" style="stop-color:#FFFFFF"/>
			<stop  offset="1" style="stop-color:#FFFFFF;stop-opacity:0"/>
		</linearGradient>
		<path style="opacity:0.4;fill:url(#SVGID_1_);" d="M24.062,0C11.798,0,1.69,9.197,0.243,21.07
			c1.957,4.213,7.658,10.24,23.818,2.174c16.889-8.432,18.822-5.572,23.695-3.057C45.929,8.744,36.017,0,24.062,0z"/>
	</g>
</g>
<g id="Layer_1">
</g>
</svg>
