<?xml version="1.0" encoding="iso-8859-1"?>
<!-- Generator: Adobe Illustrator 18.0.0, SVG Export Plug-In . SVG Version: 6.00 Build 0)  -->
<!DOCTYPE svg PUBLIC "-//W3C//DTD SVG 1.1//EN" "http://www.w3.org/Graphics/SVG/1.1/DTD/svg11.dtd">
<svg version="1.1" xmlns="http://www.w3.org/2000/svg" xmlns:xlink="http://www.w3.org/1999/xlink" x="0px" y="0px"
	 viewBox="0 0 48 48" style="enable-background:new 0 0 48 48;" xml:space="preserve">
<g id="Layer_68">
	<g>
		<g>
			<circle style="fill:#2DAAE1;" cx="24" cy="24" r="24.002"/>
			<g>
				<path style="fill:#FFFFFF;" d="M13.034,19.08c0.006,1.41,0.034,2.829,0.041,4.246c0.002,1.525,0.006,3.051,0.006,4.575
					c0,8.54,7.84,10.961,9.343,10.961c1.505,0,7.396,0.138,8.459,0.138C31.948,39,35,38.721,35,35.663
					c0-3.058-2.166-4.155-3.628-4.155h-5.849c-4.16,0-4.825-1.823-4.825-3.513c0-0.803,0.051-2.125,0.101-3.745h9.773
					c1.464,0,4.251-0.594,4.251-3.243c0-2.646-1.286-4.382-3.012-4.382H20.921C20.909,12.806,20.658,9,16.891,9
					c-1.558,0-2.823,0.634-3.356,2.208c-0.7,2.067-0.515,4.488-0.507,6.642C13.032,18.259,13.034,18.67,13.034,19.08z"/>
			</g>
		</g>
		<linearGradient id="SVGID_1_" gradientUnits="userSpaceOnUse" x1="24" y1="27.2178" x2="24" y2="7.160383e-005">
			<stop  offset="0" style="stop-color:#FFFFFF"/>
			<stop  offset="1" style="stop-color:#FFFFFF;stop-opacity:0"/>
		</linearGradient>
		<path style="opacity:0.4;fill:url(#SVGID_1_);" d="M24.06,0C11.799,0,1.691,9.197,0.244,21.068
			c1.955,4.213,7.658,10.242,23.816,2.176c16.889-8.432,18.822-5.574,23.695-3.059C45.93,8.742,36.018,0,24.06,0z"/>
	</g>
</g>
<g id="Layer_1">
</g>
</svg>
