<?xml version="1.0" encoding="iso-8859-1"?>
<!-- Generator: Adobe Illustrator 18.0.0, SVG Export Plug-In . SVG Version: 6.00 Build 0)  -->
<!DOCTYPE svg PUBLIC "-//W3C//DTD SVG 1.1//EN" "http://www.w3.org/Graphics/SVG/1.1/DTD/svg11.dtd">
<svg version="1.1" xmlns="http://www.w3.org/2000/svg" xmlns:xlink="http://www.w3.org/1999/xlink" x="0px" y="0px"
	 viewBox="0 0 48 48" style="enable-background:new 0 0 48 48;" xml:space="preserve">
<g id="Layer_38">
	<g>
		<g>
			<circle style="fill:#FE3432;" cx="24" cy="24" r="24"/>
			<g>
				<g id="Lozenge_16_">
					<g>
						<path style="fill:#FFFFFF;" d="M38.699,17.745c0,0-0.293-2.157-1.191-3.106c-1.141-1.244-2.42-1.252-3.004-1.324
							C30.303,13,24.008,13,24.008,13h-0.014c0,0-6.299,0-10.496,0.316c-0.586,0.071-1.863,0.079-3.006,1.324
							c-0.898,0.949-1.191,3.106-1.191,3.106S9,20.276,9,22.808v2.372c0,2.533,0.301,5.065,0.301,5.065s0.293,2.155,1.191,3.104
							c1.143,1.246,2.643,1.206,3.309,1.336C16.201,34.925,24,35,24,35s6.303-0.012,10.504-0.326
							c0.584-0.073,1.863-0.079,3.004-1.326c0.898-0.949,1.191-3.104,1.191-3.104S39,27.713,39,25.18v-2.372
							C39,20.276,38.699,17.745,38.699,17.745z M20.904,28.058l-0.002-8.789l8.105,4.411L20.904,28.058z"/>
					</g>
				</g>
			</g>
		</g>
		<linearGradient id="SVGID_1_" gradientUnits="userSpaceOnUse" x1="24" y1="27.2178" x2="24" y2="7.160383e-005">
			<stop  offset="0" style="stop-color:#FFFFFF"/>
			<stop  offset="1" style="stop-color:#FFFFFF;stop-opacity:0"/>
		</linearGradient>
		<path style="opacity:0.4;fill:url(#SVGID_1_);" d="M24.062,0C11.798,0,1.691,9.197,0.243,21.068
			C2.2,25.281,7.901,31.31,24.062,23.244c16.889-8.432,18.822-5.574,23.695-3.059C45.929,8.742,36.017,0,24.062,0z"/>
	</g>
</g>
<g id="Layer_1">
</g>
</svg>
