<?xml version="1.0" encoding="iso-8859-1"?>
<!-- Generator: Adobe Illustrator 18.0.0, SVG Export Plug-In . SVG Version: 6.00 Build 0)  -->
<!DOCTYPE svg PUBLIC "-//W3C//DTD SVG 1.1//EN" "http://www.w3.org/Graphics/SVG/1.1/DTD/svg11.dtd">
<svg version="1.1" xmlns="http://www.w3.org/2000/svg" xmlns:xlink="http://www.w3.org/1999/xlink" x="0px" y="0px"
	 viewBox="0 0 48 48" style="enable-background:new 0 0 48 48;" xml:space="preserve">
<g id="Layer_63">
	<g>
		<g>
			<circle style="fill:#0173B2;" cx="24" cy="24" r="24.001"/>
			<g>
				<rect x="9" y="19" style="fill:#FFFFFF;" width="7" height="20"/>
				<circle style="fill:#FFFFFF;" cx="12.5" cy="12.5" r="3.5"/>
				<path style="fill:#FFFFFF;" d="M39,28.009C39,22.612,37.836,19,31.545,19c-3.023,0-5.053,1.123-5.883,2.699h-0.086V19H20v20
					h5.828v-9.913c0-2.614,0.494-5.145,3.728-5.145c3.186,0,3.443,2.989,3.443,5.314V39h6V28.009z"/>
			</g>
		</g>
		<linearGradient id="SVGID_1_" gradientUnits="userSpaceOnUse" x1="24" y1="27.2178" x2="24" y2="7.160383e-005">
			<stop  offset="0" style="stop-color:#FFFFFF"/>
			<stop  offset="1" style="stop-color:#FFFFFF;stop-opacity:0"/>
		</linearGradient>
		<path style="opacity:0.4;fill:url(#SVGID_1_);" d="M24.061,0C11.799,0,1.692,9.197,0.244,21.068
			c1.955,4.213,7.658,10.242,23.816,2.176c16.889-8.432,18.822-5.574,23.695-3.059C45.93,8.742,36.018,0,24.061,0z"/>
	</g>
</g>
<g id="Layer_1">
</g>
</svg>
