<?xml version="1.0" encoding="iso-8859-1"?>
<!-- Generator: Adobe Illustrator 18.0.0, SVG Export Plug-In . SVG Version: 6.00 Build 0)  -->
<!DOCTYPE svg PUBLIC "-//W3C//DTD SVG 1.1//EN" "http://www.w3.org/Graphics/SVG/1.1/DTD/svg11.dtd">
<svg version="1.1" xmlns="http://www.w3.org/2000/svg" xmlns:xlink="http://www.w3.org/1999/xlink" x="0px" y="0px"
	 viewBox="0 0 48 48" style="enable-background:new 0 0 48 48;" xml:space="preserve">
<g id="Layer_30">
	<g>
		<g>
			<circle style="fill:#EB4721;" cx="24" cy="23.998" r="24"/>
			<g>
				<path style="fill:#FFFFFF;" d="M22.158,28.538v-9.074c0-0.838,0.291-1.833,1.842-1.833c1.549,0,1.93,0.995,1.93,1.833v1.73
					l1.807,0.978l2.846-0.978v-1.73C30.582,15.901,27.703,13,24,13c-3.701,0-6.562,2.901-6.562,6.464v9.074
					c0,0.836-0.543,1.885-1.885,1.885c-1.342,0-1.893-1.048-1.893-1.885v-3.565H9v3.565C9,32.099,12.01,35,15.711,35
					C19.414,35,22.158,32.101,22.158,28.538z"/>
				<path style="fill:#FFFFFF;" d="M34.381,28.538c0,0.836-0.517,1.866-1.912,1.866c-1.398,0-1.914-1.029-1.914-1.866v-3.611
					l-2.787,0.974l-1.832-0.974v3.735c0,3.563,2.65,6.338,6.352,6.338C35.99,35,39,32.101,39,28.538v-3.611h-4.619V28.538z"/>
			</g>
		</g>
		<linearGradient id="SVGID_1_" gradientUnits="userSpaceOnUse" x1="24" y1="27.2184" x2="24" y2="7.160383e-005">
			<stop  offset="0" style="stop-color:#FFFFFF"/>
			<stop  offset="1" style="stop-color:#FFFFFF;stop-opacity:0"/>
		</linearGradient>
		<path style="opacity:0.4;fill:url(#SVGID_1_);" d="M24.062,0C11.798,0,1.69,9.197,0.243,21.07
			c1.957,4.213,7.658,10.24,23.818,2.174c16.889-8.432,18.822-5.572,23.695-3.057C45.929,8.744,36.017,0,24.062,0z"/>
	</g>
</g>
<g id="Layer_1">
</g>
</svg>
