<?xml version="1.0" encoding="iso-8859-1"?>
<!-- Generator: Adobe Illustrator 18.0.0, SVG Export Plug-In . SVG Version: 6.00 Build 0)  -->
<!DOCTYPE svg PUBLIC "-//W3C//DTD SVG 1.1//EN" "http://www.w3.org/Graphics/SVG/1.1/DTD/svg11.dtd">
<svg version="1.1" xmlns="http://www.w3.org/2000/svg" xmlns:xlink="http://www.w3.org/1999/xlink" x="0px" y="0px"
	 viewBox="0 0 48 48" style="enable-background:new 0 0 48 48;" xml:space="preserve">
<g id="nyt_x5F_exporter_x5F_info" style="display:none;">
</g>
<g>
</g>
<g>
</g>
<g>
</g>
<g>
</g>
<g>
</g>
<g>
</g>
<g>
</g>
<g>
</g>
<g>
</g>
<g>
</g>
<g>
</g>
<g>
</g>
<g>
</g>
<g>
</g>
<g>
</g>
<g>
</g>
<g>
</g>
<g>
</g>
<g>
</g>
<g>
</g>
<g>
</g>
<g>
</g>
<g>
</g>
<g>
</g>
<g>
</g>
<g>
</g>
<g>
</g>
<g>
</g>
<g>
</g>
<g>
</g>
<g>
</g>
<g>
</g>
<g>
</g>
<g>
</g>
<g>
</g>
<g>
</g>
<g>
</g>
<g>
</g>
<g>
</g>
<g>
</g>
<g>
</g>
<g>
</g>
<g>
</g>
<g>
</g>
<g>
</g>
<g>
</g>
<g>
</g>
<g>
</g>
<g>
</g>
<g>
</g>
<g>
</g>
<g>
</g>
<g>
</g>
<g>
</g>
<g>
</g>
<g>
</g>
<g>
</g>
<g>
</g>
<g>
</g>
<g>
</g>
<g>
</g>
<g>
</g>
<g>
</g>
<g>
</g>
<g>
</g>
<g>
</g>
<g>
</g>
<g>
</g>
<g>
</g>
<g>
</g>
<g>
</g>
<g>
</g>
<g>
</g>
<g>
</g>
<g>
</g>
<g>
</g>
<g>
</g>
<g>
</g>
<g>
</g>
<g>
</g>
<g>
	<g>
		<rect style="fill:#602E7A;" width="48" height="48"/>
		<path id="Yahoo_x21__Messenger_8_" style="fill:#FFFFFF;" d="M23.691,38.914c8.285,0,15-6.716,15-15c0-8.285-6.715-15-15-15
			c-8.285,0-15,6.715-15,15C8.69,32.198,15.406,38.914,23.691,38.914z M27.519,15.711c1.079,0,1.954,0.874,1.954,1.953
			c0,1.078-0.875,1.952-1.954,1.952c-1.078,0-1.953-0.874-1.953-1.952C25.567,16.585,26.441,15.711,27.519,15.711z M20.097,15.711
			c1.079,0,1.954,0.874,1.954,1.953c0,1.078-0.875,1.952-1.954,1.952c-1.079,0-1.953-0.874-1.953-1.952
			C18.144,16.585,19.018,15.711,20.097,15.711L20.097,15.711z M13.144,21.96h21.093v3.908h-0.043
			c-0.438,5.421-4.968,9.686-10.504,9.686c-5.535,0-10.064-4.264-10.501-9.686h-0.045V21.96L13.144,21.96z M32.805,25.452H14.323
			v-2.405h18.481L32.805,25.452L32.805,25.452z"/>
	</g>
</g>
<g>
</g>
<g>
</g>
<g>
</g>
<g>
</g>
<g>
</g>
<g>
</g>
<g>
</g>
<g>
</g>
<g>
</g>
</svg>
