<?xml version="1.0" encoding="iso-8859-1"?>
<!-- Generator: Adobe Illustrator 18.0.0, SVG Export Plug-In . SVG Version: 6.00 Build 0)  -->
<!DOCTYPE svg PUBLIC "-//W3C//DTD SVG 1.1//EN" "http://www.w3.org/Graphics/SVG/1.1/DTD/svg11.dtd">
<svg version="1.1" xmlns="http://www.w3.org/2000/svg" xmlns:xlink="http://www.w3.org/1999/xlink" x="0px" y="0px"
	 viewBox="0 0 48 48" style="enable-background:new 0 0 48 48;" xml:space="preserve">
<g id="Layer_240">
	<g>
		<rect style="fill:#003399;" width="48" height="48"/>
		<g>
			<ellipse style="fill:#FFFFFF;" cx="33.769" cy="19.707" rx="4.774" ry="4.673"/>
			<ellipse style="fill:#FFFFFF;" cx="23.016" cy="21.04" rx="4.299" ry="4.205"/>
			<ellipse style="fill:#FFFFFF;" cx="13.266" cy="22.239" rx="3.867" ry="3.783"/>
			<path style="fill:#FFFFFF;" d="M17.128,33.035c0.215,0,0.389-0.171,0.389-0.378v-1.472c0-2.183-1.799-4.298-4.25-4.298
				s-4.248,2.115-4.248,4.298v1.472c0,0.207,0.172,0.378,0.385,0.378h0.139h7.451H17.128z"/>
			<path style="fill:#FFFFFF;" d="M27.309,33.035c0.236,0,0.43-0.19,0.43-0.422V30.98c0-2.427-1.996-4.776-4.723-4.776
				c-2.723,0-4.721,2.349-4.721,4.776v1.633c0,0.232,0.191,0.422,0.43,0.422h0.152h8.281H27.309z"/>
			<path style="fill:#FFFFFF;" d="M33.77,25.444c-3.027,0-5.246,2.609-5.246,5.308v1.814c0,0.257,0.213,0.468,0.477,0.468h0.168
				h9.201h0.168c0.264,0,0.48-0.211,0.48-0.468v-1.814C39.018,28.054,36.797,25.444,33.77,25.444z"/>
		</g>
	</g>
</g>
<g id="Layer_1">
</g>
</svg>
