<?xml version="1.0" encoding="iso-8859-1"?>
<!-- Generator: Adobe Illustrator 18.0.0, SVG Export Plug-In . SVG Version: 6.00 Build 0)  -->
<!DOCTYPE svg PUBLIC "-//W3C//DTD SVG 1.1//EN" "http://www.w3.org/Graphics/SVG/1.1/DTD/svg11.dtd">
<svg version="1.1" xmlns="http://www.w3.org/2000/svg" xmlns:xlink="http://www.w3.org/1999/xlink" x="0px" y="0px"
	 viewBox="0 0 48 48" style="enable-background:new 0 0 48 48;" xml:space="preserve">
<g id="Layer_233">
	<g>
		<rect style="fill:#4F6EAA;" width="48" height="48"/>
		<g>
			<ellipse style="fill:#FFFFFF;" cx="18.453" cy="11.531" rx="2.353" ry="2.495"/>
			<path style="fill:#FFFFFF;" d="M29.667,9.036c-1.304,0-2.353,1.117-2.353,2.496c0,1.377,1.05,2.494,2.353,2.494
				c1.298,0,2.351-1.117,2.351-2.494C32.018,10.153,30.965,9.036,29.667,9.036z"/>
			<path style="fill:#FFFFFF;" d="M27.728,38.838c0.922,0.439,4.29,0,4.29,0c-0.041-5.678,0-22.414,0-22.414
				c-8.03,9.103-15.918,0-15.918,0c-0.184,6.949,0,22.414,0,22.414c1.291,0.344,4.104-0.049,4.104-0.049
				c0.188-4.846,0-16.004,0-16.004c4.154,2.105,7.614,0,7.614,0C27.59,30.323,27.728,38.838,27.728,38.838z"/>
		</g>
	</g>
</g>
<g id="Layer_1">
</g>
</svg>
