<?xml version="1.0" encoding="iso-8859-1"?>
<!-- Generator: Adobe Illustrator 18.0.0, SVG Export Plug-In . SVG Version: 6.00 Build 0)  -->
<!DOCTYPE svg PUBLIC "-//W3C//DTD SVG 1.1//EN" "http://www.w3.org/Graphics/SVG/1.1/DTD/svg11.dtd">
<svg version="1.1" xmlns="http://www.w3.org/2000/svg" xmlns:xlink="http://www.w3.org/1999/xlink" x="0px" y="0px"
	 viewBox="0 0 48 48" style="enable-background:new 0 0 48 48;" xml:space="preserve">
<g id="nyt_x5F_exporter_x5F_info" style="display:none;">
</g>
<g>
</g>
<g>
</g>
<g>
</g>
<g>
</g>
<g>
</g>
<g>
</g>
<g>
</g>
<g>
</g>
<g>
</g>
<g>
</g>
<g>
</g>
<g>
</g>
<g>
</g>
<g>
</g>
<g>
</g>
<g>
</g>
<g>
</g>
<g>
</g>
<g>
</g>
<g>
</g>
<g>
</g>
<g>
</g>
<g>
</g>
<g>
</g>
<g>
</g>
<g>
</g>
<g>
</g>
<g>
</g>
<g>
</g>
<g>
</g>
<g>
</g>
<g>
</g>
<g>
</g>
<g>
</g>
<g>
</g>
<g>
</g>
<g>
</g>
<g>
</g>
<g>
</g>
<g>
</g>
<g>
</g>
<g>
</g>
<g>
</g>
<g>
</g>
<g>
</g>
<g>
</g>
<g>
</g>
<g>
</g>
<g>
</g>
<g>
</g>
<g>
</g>
<g>
</g>
<g>
</g>
<g>
</g>
<g>
</g>
<g>
</g>
<g>
</g>
<g>
</g>
<g>
</g>
<g>
</g>
<g>
</g>
<g>
</g>
<g>
</g>
<g>
</g>
<g>
</g>
<g>
</g>
<g>
</g>
<g>
</g>
<g>
</g>
<g>
</g>
<g>
</g>
<g>
</g>
<g>
</g>
<g>
</g>
<g>
</g>
<g>
</g>
<g>
</g>
<g>
	<g>
		<rect style="fill:#62A14A;" width="48" height="48"/>
		<path id="Bird_9_" style="fill:#FFFFFF;" d="M23.69,14.913c-4,0-7.001,1.002-10.001,4.002H8.69c0,0,0.001,1.501,2.001,2.001
			c-0.896,1.231-2.001,3.36-2.001,4.999c0,4.125,2.875,7,7,7c2.34,0,4.63-1.315,5.999-3.001l2.001,3.001l2.001-3.001
			c1.369,1.686,3.659,3.001,5.999,3.001c4.124,0,7-2.875,7-7c0-1.639-1.105-3.767-2.001-4.999c2-0.5,2.001-2.001,2.001-2.001h-4.999
			C30.691,15.915,27.691,14.913,23.69,14.913z M23.69,15.914c5,0,8,3.001,8,3.001c-4,0-8,5.001-8,10.001c0-5-4-10.001-8-10.001
			C15.69,18.915,18.69,15.914,23.69,15.914L23.69,15.914z M15.69,20.916c2.761,0,4.999,2.238,4.999,4.999
			c0,2.762-2.238,4.999-4.999,4.999s-4.999-2.237-4.999-4.999C10.691,23.154,12.929,20.916,15.69,20.916z M31.691,20.916
			c2.762,0,4.999,2.238,4.999,4.999c0,2.762-2.237,4.999-4.999,4.999s-4.999-2.237-4.999-4.999
			C26.692,23.154,28.929,20.916,31.691,20.916z M15.69,22.914c-1.657,0-3.001,1.344-3.001,3.001c0,1.658,1.344,3.001,3.001,3.001
			s3.001-1.343,3.001-3.001C18.691,24.258,17.347,22.914,15.69,22.914z M31.691,22.914c-1.656,0-3.001,1.345-3.001,3.001
			c0,1.658,1.345,3.001,3.001,3.001s3.001-1.343,3.001-3.001C34.692,24.259,33.347,22.914,31.691,22.914L31.691,22.914z
			 M15.69,23.914c1.104,0,2.001,0.897,2.001,2.001c0,1.105-0.897,2.001-2.001,2.001c-1.104,0-2.001-0.896-2.001-2.001
			C13.689,24.811,14.586,23.914,15.69,23.914z M31.691,23.914c1.104,0,2.001,0.897,2.001,2.001c0,1.105-0.897,2.001-2.001,2.001
			c-1.104,0-2.001-0.896-2.001-2.001C29.69,24.811,30.587,23.914,31.691,23.914z M15.69,24.914c-0.552,0-1,0.448-1,1
			c0,0.552,0.448,1.001,1,1.001s1-0.448,1-1.001C16.691,25.363,16.243,24.914,15.69,24.914z M31.691,24.914c-0.552,0-1,0.448-1,1
			c0,0.552,0.448,1.001,1,1.001s1-0.448,1-1.001C32.691,25.363,32.243,24.914,31.691,24.914z"/>
	</g>
</g>
<g>
</g>
<g>
</g>
<g>
</g>
<g>
</g>
<g>
</g>
<g>
</g>
<g>
</g>
<g>
</g>
<g>
</g>
<g>
</g>
<g>
</g>
<g>
</g>
</svg>
