<?xml version="1.0" encoding="iso-8859-1"?>
<!-- Generator: Adobe Illustrator 18.0.0, SVG Export Plug-In . SVG Version: 6.00 Build 0)  -->
<!DOCTYPE svg PUBLIC "-//W3C//DTD SVG 1.1//EN" "http://www.w3.org/Graphics/SVG/1.1/DTD/svg11.dtd">
<svg version="1.1" xmlns="http://www.w3.org/2000/svg" xmlns:xlink="http://www.w3.org/1999/xlink" x="0px" y="0px"
	 viewBox="0 0 48 48" style="enable-background:new 0 0 48 48;" xml:space="preserve">
<g id="Layer_252">
	<g>
		<rect style="fill:#546B9F;" width="48" height="48"/>
		<g>
			<path style="fill:#FFFFFF;" d="M16.465,15.035h-2.934v4.187H9.018v9.587h7.447V15.035z M13.532,26.232h-1.529v-4.356h1.529
				V26.232z"/>
			<path style="fill:#FFFFFF;" d="M30.024,33.035V19.261h-7.447v9.585h4.518v1.499h-4.568v2.69h6.203H30.024z M27.094,26.194h-1.531
				v-4.358h1.531V26.194z"/>
			<path style="fill:#FFFFFF;" d="M31.573,28.846h4.512v1.499H31.52v2.69h6.203h1.295V19.261h-7.445V28.846z M34.559,21.836h1.525
				v4.358h-1.525V21.836z"/>
			<rect x="17.977" y="19.203" style="fill:#FFFFFF;" width="3.037" height="9.643"/>
			<rect x="17.977" y="15.204" style="fill:#FFFFFF;" width="3.037" height="2.615"/>
		</g>
	</g>
</g>
<g id="Layer_1">
</g>
</svg>
