<?xml version="1.0" encoding="iso-8859-1"?>
<!-- Generator: Adobe Illustrator 18.0.0, SVG Export Plug-In . SVG Version: 6.00 Build 0)  -->
<!DOCTYPE svg PUBLIC "-//W3C//DTD SVG 1.1//EN" "http://www.w3.org/Graphics/SVG/1.1/DTD/svg11.dtd">
<svg version="1.1" xmlns="http://www.w3.org/2000/svg" xmlns:xlink="http://www.w3.org/1999/xlink" x="0px" y="0px"
	 viewBox="0 0 48 48" style="enable-background:new 0 0 48 48;" xml:space="preserve">
<g id="Layer_279">
	<g>
		<rect style="fill:#41B2DC;" width="48" height="48"/>
		<g>
			<path style="fill:#FFFFFF;" d="M25.542,27.488c-0.836,0-1.48-2.175-2.437-5.977c-0.99-3.932-0.984-11.013-5.102-10.211
				c-3.883,0.758-8.984,6.809-8.984,6.809l1.217,1.588c0,0,2.514-1.967,3.352-0.985c0.838,0.985,4.035,12.86,5.102,15.051
				c0.933,1.923,3.502,4.464,6.32,2.648c2.818-1.815,12.184-9.757,13.859-19.136c1.676-9.377-11.271-7.413-12.641,0.757
				c3.426-2.045,5.256,0.831,3.502,4.085C27.98,25.368,26.38,27.488,25.542,27.488z"/>
		</g>
	</g>
</g>
<g id="Layer_1">
</g>
</svg>
