<?xml version="1.0" encoding="iso-8859-1"?>
<!-- Generator: Adobe Illustrator 18.0.0, SVG Export Plug-In . SVG Version: 6.00 Build 0)  -->
<!DOCTYPE svg PUBLIC "-//W3C//DTD SVG 1.1//EN" "http://www.w3.org/Graphics/SVG/1.1/DTD/svg11.dtd">
<svg version="1.1" xmlns="http://www.w3.org/2000/svg" xmlns:xlink="http://www.w3.org/1999/xlink" x="0px" y="0px"
	 viewBox="0 0 48 48" style="enable-background:new 0 0 48 48;" xml:space="preserve">
<g id="nyt_x5F_exporter_x5F_info" style="display:none;">
</g>
<g>
</g>
<g>
</g>
<g>
</g>
<g>
</g>
<g>
</g>
<g>
</g>
<g>
</g>
<g>
</g>
<g>
</g>
<g>
</g>
<g>
</g>
<g>
</g>
<g>
</g>
<g>
</g>
<g>
</g>
<g>
</g>
<g>
</g>
<g>
</g>
<g>
</g>
<g>
</g>
<g>
</g>
<g>
</g>
<g>
</g>
<g>
</g>
<g>
</g>
<g>
</g>
<g>
</g>
<g>
</g>
<g>
</g>
<g>
</g>
<g>
</g>
<g>
</g>
<g>
</g>
<g>
</g>
<g>
</g>
<g>
</g>
<g>
</g>
<g>
</g>
<g>
</g>
<g>
</g>
<g>
</g>
<g>
</g>
<g>
</g>
<g>
</g>
<g>
</g>
<g>
</g>
<g>
</g>
<g>
</g>
<g>
</g>
<g>
</g>
<g>
</g>
<g>
</g>
<g>
</g>
<g>
</g>
<g>
</g>
<g>
</g>
<g>
</g>
<g>
</g>
<g>
</g>
<g>
</g>
<g>
</g>
<g>
</g>
<g>
</g>
<g>
</g>
<g>
</g>
<g>
</g>
<g>
</g>
<g>
</g>
<g>
</g>
<g>
</g>
<g>
</g>
<g>
</g>
<g>
</g>
<g>
</g>
<g>
</g>
<g>
</g>
<g>
	<g>
		<rect style="fill:#0A93CF;" width="48" height="48"/>
		<path id="Drupal_9_" style="fill:#FFFFFF;" d="M30.115,14.463c-1.521-0.949-2.957-1.318-4.391-2.267
			c-0.889-0.603-2.125-2.043-3.163-3.281c-0.191,1.996-0.789,2.809-1.475,3.391c-1.453,1.16-2.369,1.51-3.627,2.21
			c-1.056,0.554-6.798,4.045-6.768,11.505c0.03,7.458,6.267,12.923,13.165,12.894c6.902-0.028,12.865-5.112,12.834-12.772
			C36.659,18.482,31.033,15.037,30.115,14.463L30.115,14.463z M30.318,35.971c-0.144,0.144-1.457,1.075-3.002,1.227
			c-1.546,0.15-3.637,0.245-4.9-0.906c-0.201-0.202-0.146-0.489-0.002-0.605c0.142-0.118,0.256-0.206,0.429-0.207
			c0.173-0.001,0.141-0.001,0.229,0.057c0.575,0.461,1.434,0.832,3.265,0.824c1.834-0.008,3.122-0.531,3.691-0.969
			c0.257-0.203,0.372-0.03,0.402,0.086C30.459,35.594,30.518,35.769,30.318,35.971L30.318,35.971z M25.346,33.559
			c0.314-0.292,0.83-0.757,1.315-0.96c0.486-0.205,0.741-0.177,1.201-0.179c0.457-0.002,0.947,0.025,1.289,0.257
			c0.343,0.23,0.547,0.748,0.661,1.035c0.117,0.291,0.002,0.464-0.225,0.582c-0.199,0.115-0.229,0.058-0.431-0.316
			c-0.2-0.375-0.374-0.751-1.377-0.747c-1.001,0.004-1.316,0.354-1.801,0.76c-0.485,0.406-0.657,0.552-0.83,0.321
			C24.977,34.081,25.033,33.848,25.346,33.559L25.346,33.559z M35.659,28.005c0.003,0.896-0.276,2.515-0.96,3.53
			c-0.68,1.016-1.108,1.394-1.913,1.339c-1.032-0.084-3.105-3.312-4.422-3.366c-1.659-0.05-5.254,3.523-8.089,3.534
			c-1.719,0.007-2.233-0.251-2.807-0.626c-0.863-0.604-1.296-1.526-1.273-2.799c0.021-2.256,2.1-4.372,4.736-4.411
			c3.348-0.044,5.684,3.327,7.371,3.293c1.433-0.033,4.171-2.88,5.517-2.885C35.248,25.607,35.655,27.107,35.659,28.005
			L35.659,28.005z"/>
	</g>
</g>
<g>
</g>
<g>
</g>
<g>
</g>
<g>
</g>
<g>
</g>
<g>
</g>
<g>
</g>
<g>
</g>
<g>
</g>
<g>
</g>
<g>
</g>
<g>
</g>
<g>
</g>
</svg>
