<?xml version="1.0" encoding="iso-8859-1"?>
<!-- Generator: Adobe Illustrator 18.0.0, SVG Export Plug-In . SVG Version: 6.00 Build 0)  -->
<!DOCTYPE svg PUBLIC "-//W3C//DTD SVG 1.1//EN" "http://www.w3.org/Graphics/SVG/1.1/DTD/svg11.dtd">
<svg version="1.1" xmlns="http://www.w3.org/2000/svg" xmlns:xlink="http://www.w3.org/1999/xlink" x="0px" y="0px"
	 viewBox="0 0 48 48" style="enable-background:new 0 0 48 48;" xml:space="preserve">
<g id="Layer_250">
	<g>
		<rect style="fill:#EB4721;" width="48" height="48"/>
		<g>
			<path style="fill:#FFFFFF;" d="M22.176,28.573v-9.074c0-0.838,0.291-1.833,1.842-1.833c1.549,0,1.93,0.995,1.93,1.833v1.73
				l1.807,0.978l2.846-0.978v-1.73c0-3.563-2.879-6.464-6.582-6.464c-3.701,0-6.562,2.901-6.562,6.464v9.074
				c0,0.836-0.543,1.885-1.885,1.885c-1.342,0-1.893-1.048-1.893-1.885v-3.565h-4.66v3.565c0,3.561,3.01,6.462,6.711,6.462
				C19.432,35.035,22.176,32.136,22.176,28.573z"/>
			<path style="fill:#FFFFFF;" d="M34.399,28.573c0,0.836-0.517,1.866-1.912,1.866c-1.398,0-1.914-1.029-1.914-1.866v-3.611
				l-2.787,0.974l-1.832-0.974v3.735c0,3.563,2.65,6.338,6.352,6.338c3.703,0,6.713-2.899,6.713-6.462v-3.611h-4.619V28.573z"/>
		</g>
	</g>
</g>
<g id="Layer_1">
</g>
</svg>
