<?xml version="1.0" encoding="iso-8859-1"?>
<!-- Generator: Adobe Illustrator 18.0.0, SVG Export Plug-In . SVG Version: 6.00 Build 0)  -->
<!DOCTYPE svg PUBLIC "-//W3C//DTD SVG 1.1//EN" "http://www.w3.org/Graphics/SVG/1.1/DTD/svg11.dtd">
<svg version="1.1" xmlns="http://www.w3.org/2000/svg" xmlns:xlink="http://www.w3.org/1999/xlink" x="0px" y="0px"
	 viewBox="0 0 48 48" style="enable-background:new 0 0 48 48;" xml:space="preserve">
<g id="Layer_268">
	<g>
		<rect style="fill:#FF6600;" width="48" height="48"/>
		<g>
			<path style="fill:#FFFFFF;" d="M18.525,39.035h10.926c5.231,0,9.481-4.262,9.51-9.463l0.057-7.658l-0.086-0.418l-0.255-0.521
				l-0.421-0.33c-0.553-0.432-3.351,0.027-4.103-0.654c-0.535-0.49-0.618-1.373-0.778-2.564c-0.3-2.318-0.492-2.437-0.853-3.219
				c-1.317-2.787-4.892-4.881-7.346-5.172h-6.65c-5.231,0-9.507,4.27-9.507,9.48v11.057C9.018,34.773,13.294,39.035,18.525,39.035z
				 M18.646,16.781h5.272c1.006,0,1.821,0.814,1.821,1.809c0,0.99-0.816,1.812-1.821,1.812h-5.272c-1.006,0-1.821-0.822-1.821-1.812
				C16.825,17.595,17.641,16.781,18.646,16.781z M18.646,27.629h10.712c1.002,0,1.812,0.811,1.812,1.805
				c0,0.98-0.81,1.805-1.812,1.805H18.646c-1.006,0-1.821-0.824-1.821-1.805C16.825,28.439,17.641,27.629,18.646,27.629z"/>
		</g>
	</g>
</g>
<g id="Layer_1">
</g>
</svg>
