<?xml version="1.0" encoding="iso-8859-1"?>
<!-- Generator: Adobe Illustrator 18.0.0, SVG Export Plug-In . SVG Version: 6.00 Build 0)  -->
<!DOCTYPE svg PUBLIC "-//W3C//DTD SVG 1.1//EN" "http://www.w3.org/Graphics/SVG/1.1/DTD/svg11.dtd">
<svg version="1.1" xmlns="http://www.w3.org/2000/svg" xmlns:xlink="http://www.w3.org/1999/xlink" x="0px" y="0px"
	 viewBox="0 0 48 48" style="enable-background:new 0 0 48 48;" xml:space="preserve">
<g id="Layer_263">
	<g>
		<rect style="fill:#1CB4EE;" width="48" height="48"/>
		<g>
			<path style="fill:#FFFFFF;" d="M20.885,17.369l-2.771,4.821l-3.051,5.313l-2.549,4.435c-0.191,0.33-0.074,0.755,0.258,0.945
				l1.805,1.038c0.332,0.189,0.758,0.074,0.949-0.256l3.539-6.162l2.289-3.984l2.541-4.423c0.189-0.33,0.074-0.755-0.256-0.949
				l-1.809-1.033C21.503,16.924,21.075,17.039,20.885,17.369z"/>
			<path style="fill:#FFFFFF;" d="M38.391,22.19h-6.1c0.717,1.345,2.685,4.661,2.73,4.844h3.369c0.346,0,0.627-0.654,0.627-1v-3.218
				C39.018,22.472,38.737,22.19,38.391,22.19z"/>
			<path style="fill:#FFFFFF;" d="M23.565,22.19l-3.053,4.844h8.281c-0.6-1.187-1.396-2.414-2.467-4.844H23.565z"/>
			<path style="fill:#FFFFFF;" d="M9.647,27.035h3.969l3.053-4.844H9.647c-0.348,0-0.629,0.281-0.629,0.627v3.218
				C9.018,26.38,9.299,27.035,9.647,27.035z"/>
			<path style="fill:#FFFFFF;" d="M11.682,37.043l2.334-1.591c0.314-0.213,0.303-0.547-0.029-0.736L12.18,33.68
				c-0.33-0.191-0.637-0.035-0.68,0.344l-0.312,2.719C11.143,37.121,11.366,37.256,11.682,37.043z"/>
			<path style="fill:#FFFFFF;" d="M33.678,27.504c-0.17-0.31-0.59-1.118-1.143-2.167c-0.006-0.014-0.012-0.027-0.02-0.041
				c-0.041-0.08-0.086-0.162-0.129-0.244c-0.031-0.06-0.062-0.121-0.096-0.181c-0.027-0.053-0.055-0.105-0.082-0.158
				c-0.049-0.092-0.098-0.185-0.148-0.281c-0.018-0.029-0.031-0.059-0.047-0.088c-0.057-0.107-0.113-0.215-0.17-0.324
				c-0.018-0.031-0.035-0.062-0.053-0.094c-1.271-2.405-2.871-5.366-3.855-6.922c-1.728-2.729-4.033-7.277-4.676-6.953
				c-0.902,0.449,1.887,6.221,2.813,8.39c0.922,2.169,4.527,10.48,5.25,10.843c0.723,0.361,1.002,0.16,1.484-0.039
				c0.484-0.201,1.35-0.869,0.906-1.675C33.704,27.553,33.69,27.527,33.678,27.504z"/>
			<path style="fill:#FFFFFF;" d="M35.774,31.855l-0.859-1.651c-0.195-0.373-0.654-0.525-1.019-0.34l-1.037,0.535
				c-0.365,0.187-0.48,0.63-0.256,0.988l1.088,1.718c0.227,0.355,0.701,0.472,1.053,0.26l0.74-0.445
				C35.838,32.706,35.969,32.228,35.774,31.855z"/>
			<path style="fill:#FFFFFF;" d="M35.508,34.244c-0.271,0.26-0.914,0.822-0.135,1.917c0.777,1.097,2.514,1.146,2.742,1.874
				C38.116,38.035,38.663,32.466,35.508,34.244z"/>
		</g>
	</g>
</g>
<g id="Layer_1">
</g>
</svg>
