<?xml version="1.0" encoding="iso-8859-1"?>
<!-- Generator: Adobe Illustrator 18.0.0, SVG Export Plug-In . SVG Version: 6.00 Build 0)  -->
<!DOCTYPE svg PUBLIC "-//W3C//DTD SVG 1.1//EN" "http://www.w3.org/Graphics/SVG/1.1/DTD/svg11.dtd">
<svg version="1.1" xmlns="http://www.w3.org/2000/svg" xmlns:xlink="http://www.w3.org/1999/xlink" x="0px" y="0px"
	 viewBox="0 0 48 48" style="enable-background:new 0 0 48 48;" xml:space="preserve">
<g id="nyt_x5F_exporter_x5F_info" style="display:none;">
</g>
<g>
</g>
<g>
</g>
<g>
</g>
<g>
</g>
<g>
</g>
<g>
</g>
<g>
</g>
<g>
</g>
<g>
</g>
<g>
</g>
<g>
</g>
<g>
</g>
<g>
</g>
<g>
</g>
<g>
</g>
<g>
</g>
<g>
</g>
<g>
</g>
<g>
</g>
<g>
</g>
<g>
</g>
<g>
</g>
<g>
</g>
<g>
</g>
<g>
</g>
<g>
</g>
<g>
</g>
<g>
</g>
<g>
</g>
<g>
</g>
<g>
</g>
<g>
</g>
<g>
</g>
<g>
</g>
<g>
</g>
<g>
</g>
<g>
</g>
<g>
</g>
<g>
</g>
<g>
</g>
<g>
</g>
<g>
</g>
<g>
</g>
<g>
</g>
<g>
</g>
<g>
</g>
<g>
</g>
<g>
</g>
<g>
</g>
<g>
</g>
<g>
</g>
<g>
</g>
<g>
</g>
<g>
</g>
<g>
</g>
<g>
</g>
<g>
</g>
<g>
</g>
<g>
</g>
<g>
</g>
<g>
</g>
<g>
</g>
<g>
</g>
<g>
</g>
<g>
</g>
<g>
</g>
<g>
</g>
<g>
</g>
<g>
</g>
<g>
</g>
<g>
</g>
<g>
</g>
<g>
</g>
<g>
</g>
<g>
</g>
<g>
</g>
<g>
</g>
<g>
</g>
<g>
</g>
<g>
</g>
<g>
</g>
<g>
</g>
<g>
</g>
<g>
	<g>
		<rect style="fill:#3E5EA1;" width="48" height="48"/>
		<path id="Photobucket_8_" style="fill:#FFFFFF;" d="M37.327,14.289h-8.361c-1.563-0.875-3.361-1.375-5.276-1.375
			s-3.713,0.5-5.276,1.375h-2.906c0-0.756-0.614-1.375-1.364-1.375h-2.728c-0.749,0-1.363,0.618-1.363,1.375l0,0
			c-0.749,0-1.363,0.619-1.363,1.375v16.501c0,0.755,0.614,1.375,1.364,1.375h8.36c1.564,0.874,3.362,1.375,5.276,1.375
			s3.713-0.501,5.276-1.375h8.361c0.75,0,1.364-0.619,1.364-1.375v-16.5C38.69,14.908,38.076,14.289,37.327,14.289L37.327,14.289z
			 M10.054,32.164V15.664h1.363h2.728h2.347c-2.269,2.016-3.71,4.96-3.71,8.25s1.441,6.235,3.71,8.25H10.054z M28.588,32.164
			c-0.703,0.425-1.465,0.763-2.269,0.996c-0.048,0.014-0.096,0.024-0.143,0.038c-0.326,0.09-0.661,0.159-1.001,0.212
			c-0.093,0.016-0.186,0.032-0.281,0.044c-0.394,0.051-0.795,0.085-1.203,0.085c-0.409,0-0.81-0.034-1.204-0.085
			c-0.094-0.012-0.188-0.028-0.281-0.044c-0.34-0.054-0.675-0.122-1.001-0.212c-0.047-0.014-0.095-0.024-0.143-0.038
			c-0.804-0.233-1.566-0.571-2.269-0.996c-2.78-1.682-4.647-4.743-4.647-8.25s1.867-6.569,4.648-8.25
			c0.703-0.425,1.465-0.763,2.269-0.996c0.048-0.014,0.096-0.024,0.143-0.038c0.326-0.089,0.66-0.159,1-0.212
			c0.094-0.016,0.189-0.032,0.284-0.044c0.394-0.051,0.795-0.085,1.202-0.085c0.407,0,0.809,0.034,1.202,0.085
			c0.095,0.012,0.189,0.028,0.284,0.044c0.34,0.053,0.674,0.123,1,0.212c0.047,0.013,0.094,0.024,0.143,0.038
			c0.804,0.233,1.566,0.571,2.269,0.996c2.78,1.682,4.648,4.743,4.648,8.25S31.368,30.483,28.588,32.164L28.588,32.164z
			 M37.327,32.164h-6.437c2.269-2.016,3.71-4.961,3.71-8.25s-1.441-6.235-3.71-8.25h6.438L37.327,32.164L37.327,32.164z
			 M31.192,23.914h-1.154c0-3.529-2.847-6.4-6.347-6.4V16.35C27.826,16.35,31.192,19.744,31.192,23.914z"/>
	</g>
</g>
<g>
</g>
<g>
</g>
<g>
</g>
<g>
</g>
<g>
</g>
<g>
</g>
</svg>
