<?xml version="1.0" encoding="iso-8859-1"?>
<!-- Generator: Adobe Illustrator 18.0.0, SVG Export Plug-In . SVG Version: 6.00 Build 0)  -->
<!DOCTYPE svg PUBLIC "-//W3C//DTD SVG 1.1//EN" "http://www.w3.org/Graphics/SVG/1.1/DTD/svg11.dtd">
<svg version="1.1" xmlns="http://www.w3.org/2000/svg" xmlns:xlink="http://www.w3.org/1999/xlink" x="0px" y="0px"
	 viewBox="0 0 48 48" style="enable-background:new 0 0 48 48;" xml:space="preserve">
<g id="Layer_257">
	<g>
		<rect style="fill:#FE3432;" width="48" height="48"/>
		<g>
			<g id="Lozenge_35_">
				<g>
					<path style="fill:#FFFFFF;" d="M38.717,17.78c0,0-0.293-2.157-1.191-3.106c-1.141-1.244-2.42-1.252-3.004-1.324
						c-4.201-0.316-10.496-0.316-10.496-0.316h-0.014c0,0-6.299,0-10.496,0.316c-0.586,0.071-1.863,0.079-3.006,1.324
						c-0.898,0.949-1.191,3.106-1.191,3.106s-0.301,2.531-0.301,5.063v2.372c0,2.533,0.301,5.065,0.301,5.065
						s0.293,2.155,1.191,3.104c1.143,1.246,2.643,1.206,3.309,1.336c2.4,0.24,10.199,0.316,10.199,0.316s6.303-0.012,10.504-0.326
						c0.584-0.073,1.863-0.079,3.004-1.326c0.898-0.949,1.191-3.104,1.191-3.104s0.301-2.531,0.301-5.065v-2.372
						C39.018,20.311,38.717,17.78,38.717,17.78z M20.922,28.092l-0.002-8.789l8.105,4.411L20.922,28.092z"/>
				</g>
			</g>
		</g>
	</g>
</g>
<g id="Layer_1">
</g>
</svg>
