<?xml version="1.0" encoding="iso-8859-1"?>
<!-- Generator: Adobe Illustrator 18.0.0, SVG Export Plug-In . SVG Version: 6.00 Build 0)  -->
<!DOCTYPE svg PUBLIC "-//W3C//DTD SVG 1.1//EN" "http://www.w3.org/Graphics/SVG/1.1/DTD/svg11.dtd">
<svg version="1.1" xmlns="http://www.w3.org/2000/svg" xmlns:xlink="http://www.w3.org/1999/xlink" x="0px" y="0px"
	 viewBox="0 0 48 48" style="enable-background:new 0 0 48 48;" xml:space="preserve">
<g id="Layer_267">
	<g>
		<rect style="fill:#B685BF;" width="48" height="48"/>
		<g>
			<path style="fill:#FFFFFF;" d="M18.779,10.017c0.398,0.36,10.727,9.924,11.239,10.39c0-0.691,0-9.811,0-10.024
				c-1.959-0.89-3.853-1.348-6.001-1.348C22.228,9.035,20.471,9.381,18.779,10.017z"/>
			<path style="fill:#FFFFFF;" d="M16.018,36.905c0-0.587,0-12.232,0-12.924c-0.501,0.456-5.747,5.486-5.92,5.644
				C11.301,32.647,13.216,35.207,16.018,36.905z"/>
			<path style="fill:#FFFFFF;" d="M22.859,15.865c-0.253-0.229-5.505-5.006-5.678-5.163c-5.035,2.589-8.163,7.697-8.163,13.367
				c0,1.288,0.193,2.601,0.546,3.904C9.968,27.602,22.599,16.104,22.859,15.865z"/>
			<path style="fill:#FFFFFF;" d="M18.018,37.772c1.523,0.687,2.976,1.11,4.616,1.262h2.751c5.183-0.483,9.808-3.25,12.107-8
				c-0.542,0-19.152,0-19.475,0C18.018,31.348,18.018,37.557,18.018,37.772z"/>
			<path style="fill:#FFFFFF;" d="M39.018,24.069c0-5.225-2.537-10.102-7-12.823c0,0.595,0,17.451,0,17.77c0.308,0,5.911,0,6.149,0
				C38.724,27.414,39.018,25.75,39.018,24.069z"/>
		</g>
	</g>
</g>
<g id="Layer_1">
</g>
</svg>
