<?xml version="1.0" encoding="iso-8859-1"?>
<!-- Generator: Adobe Illustrator 18.0.0, SVG Export Plug-In . SVG Version: 6.00 Build 0)  -->
<!DOCTYPE svg PUBLIC "-//W3C//DTD SVG 1.1//EN" "http://www.w3.org/Graphics/SVG/1.1/DTD/svg11.dtd">
<svg version="1.1" xmlns="http://www.w3.org/2000/svg" xmlns:xlink="http://www.w3.org/1999/xlink" x="0px" y="0px"
	 viewBox="0 0 48 48" style="enable-background:new 0 0 48 48;" xml:space="preserve">
<g id="Layer_236">
	<g>
		<rect style="fill:#E3AC3C;" width="48" height="48"/>
		<g>
			<rect x="9.018" y="18.035" style="fill:#FFFFFF;" width="2.914" height="12"/>
			<polygon style="fill:#FFFFFF;" points="16.016,23.299 17.253,30.035 19.053,30.035 20.257,23.299 20.257,30.035 22.745,30.035 
				22.745,18.035 18.794,18.035 18.118,23.695 17.141,18.035 13.391,18.035 13.391,30.035 16.016,30.035 			"/>
			<path style="fill:#FFFFFF;" d="M27.544,18.035h-3.26v12h3.277c1.863,0,2.488-0.207,3.006-0.623
				c0.519-0.416,0.779-0.998,0.779-1.745v-7.263c0-0.804-0.277-1.4-0.832-1.787C29.958,18.229,29.487,18.035,27.544,18.035z
				 M28.218,27.517c0,0.567-0.629,0.491-1.127,0.491v-8.059c0.498,0,1.127-0.054,1.127,0.531V27.517z"/>
			<path style="fill:#FFFFFF;" d="M37.214,19.949c-0.812-0.038-1.65,0.492-1.951,0.832v-2.747H32.28v12h2.408
				c0,0,0.184-0.715,0.387-0.625c0.205,0.089,1.238,0.529,1.951,0.529c0.713,0,1.006-0.047,1.348-0.196
				c0.426-0.286,0.641-0.673,0.641-1.163V21.6C39.089,20.593,38.026,19.987,37.214,19.949z M36.081,27.962
				c0,0.295-0.135,0.501-0.404,0.501c-0.277,0-0.416-0.206-0.416-0.501l0.002-6.062c0-0.284,0.139-0.426,0.414-0.426
				c0.271,0,0.408,0.148,0.408,0.444L36.081,27.962z"/>
		</g>
	</g>
</g>
<g id="Layer_1">
</g>
</svg>
