<?xml version="1.0" encoding="iso-8859-1"?>
<!-- Generator: Adobe Illustrator 18.0.0, SVG Export Plug-In . SVG Version: 6.00 Build 0)  -->
<!DOCTYPE svg PUBLIC "-//W3C//DTD SVG 1.1//EN" "http://www.w3.org/Graphics/SVG/1.1/DTD/svg11.dtd">
<svg version="1.1" xmlns="http://www.w3.org/2000/svg" xmlns:xlink="http://www.w3.org/1999/xlink" x="0px" y="0px"
	 viewBox="0 0 48 48" style="enable-background:new 0 0 48 48;" xml:space="preserve">
<g id="Layer_270">
	<g>
		<rect style="fill:#69BC1B;" width="48" height="48"/>
		<g>
			<path style="fill:#FFFFFF;" d="M13.645,30.022l-0.875,9.013l8.107-5.012c1.629,0.451,3.363,0.702,5.166,0.702
				c5.211,0,9.853-2.061,12.977-5.281V15.379c0-3.498-2.762-6.344-6.154-6.344H14.412c-3.306,2.713-5.395,6.543-5.395,10.816
				C9.017,23.792,10.782,27.361,13.645,30.022z M26.043,11.213c5.949,0,10.977,3.957,10.977,8.639c0,4.686-5.027,8.639-10.977,8.639
				s-10.977-3.953-10.977-8.639C15.066,15.17,20.094,11.213,26.043,11.213z"/>
		</g>
	</g>
</g>
<g id="Layer_1">
</g>
</svg>
