<?xml version="1.0" encoding="iso-8859-1"?>
<!-- Generator: Adobe Illustrator 18.0.0, SVG Export Plug-In . SVG Version: 6.00 Build 0)  -->
<!DOCTYPE svg PUBLIC "-//W3C//DTD SVG 1.1//EN" "http://www.w3.org/Graphics/SVG/1.1/DTD/svg11.dtd">
<svg version="1.1" xmlns="http://www.w3.org/2000/svg" xmlns:xlink="http://www.w3.org/1999/xlink" x="0px" y="0px"
	 viewBox="0 0 48 48" style="enable-background:new 0 0 48 48;" xml:space="preserve">
<g id="Layer_277">
	<g>
		<rect style="fill:#7C0097;" width="48" height="48"/>
		<g>
			<path style="fill:#FFFFFF;" d="M20.651,26.206c0.1,0.689,0.188,4.755-0.1,5.064c-0.578,0.614-3.217,0.451-3.855,0.496
				l-0.219,1.26c1.162,0.035,4.945-0.094,6.121-0.094c2.318,0,6.379-0.011,6.953,0.032l0.07-1.321
				c-0.586-0.099-3.783-0.012-4.225-0.113c-0.098-0.64-0.205-4.921-0.108-5.364c0.441-1.278,7.158-6.485,7.895-6.685
				c0.166-0.032,0.412-0.088,0.691-0.149h2.164l0.338-0.499c0.006-0.004,0.02-0.005,0.025-0.005l0.838-1.214
				c-0.012,0-0.031-0.003-0.041-0.003l0.088-0.131H25.561l0.451,1.852h3.201l-5.385,4.879c-1.1-1.523-3.676-4.697-5.473-7.323h4.031
				v-1.41l0.047-0.311c-0.012-0.003-0.035-0.006-0.047-0.006v-0.126H9.018v1.853h3.965C14.522,18.095,20.407,25.471,20.651,26.206z"
				/>
			<path style="fill:#FFFFFF;" d="M35.081,21.237l0.049,8.363l1.797,0.144l2.092-8.113C38.668,21.619,35.493,21.317,35.081,21.237z"
				/>
			<polygon style="fill:#FFFFFF;" points="36.721,33.035 37.008,31.095 35.973,31.044 34.819,30.901 34.829,32.882 35.739,32.961 
							"/>
		</g>
	</g>
</g>
<g id="Layer_1">
</g>
</svg>
