<?xml version="1.0" encoding="iso-8859-1"?>
<!-- Generator: Adobe Illustrator 18.0.0, SVG Export Plug-In . SVG Version: 6.00 Build 0)  -->
<!DOCTYPE svg PUBLIC "-//W3C//DTD SVG 1.1//EN" "http://www.w3.org/Graphics/SVG/1.1/DTD/svg11.dtd">
<svg version="1.1" xmlns="http://www.w3.org/2000/svg" xmlns:xlink="http://www.w3.org/1999/xlink" x="0px" y="0px"
	 viewBox="0 0 48 48" style="enable-background:new 0 0 48 48;" xml:space="preserve">
<g id="nyt_x5F_exporter_x5F_info" style="display:none;">
</g>
<g>
</g>
<g>
</g>
<g>
</g>
<g>
</g>
<g>
</g>
<g>
</g>
<g>
</g>
<g>
</g>
<g>
</g>
<g>
</g>
<g>
</g>
<g>
</g>
<g>
</g>
<g>
</g>
<g>
</g>
<g>
</g>
<g>
</g>
<g>
</g>
<g>
</g>
<g>
</g>
<g>
</g>
<g>
</g>
<g>
</g>
<g>
</g>
<g>
</g>
<g>
</g>
<g>
</g>
<g>
</g>
<g>
</g>
<g>
</g>
<g>
</g>
<g>
</g>
<g>
</g>
<g>
</g>
<g>
</g>
<g>
</g>
<g>
</g>
<g>
</g>
<g>
</g>
<g>
</g>
<g>
</g>
<g>
</g>
<g>
</g>
<g>
</g>
<g>
</g>
<g>
</g>
<g>
</g>
<g>
</g>
<g>
</g>
<g>
</g>
<g>
</g>
<g>
</g>
<g>
</g>
<g>
</g>
<g>
</g>
<g>
</g>
<g>
</g>
<g>
</g>
<g>
</g>
<g>
</g>
<g>
</g>
<g>
</g>
<g>
</g>
<g>
</g>
<g>
</g>
<g>
</g>
<g>
</g>
<g>
</g>
<g>
</g>
<g>
</g>
<g>
</g>
<g>
</g>
<g>
</g>
<g>
</g>
<g>
</g>
<g>
</g>
<g>
</g>
<g>
</g>
<g>
</g>
<g>
</g>
<g>
</g>
<g>
	<g>
		<rect style="fill:#EB4755;" width="48" height="48"/>
		<path id="path9-6_8_" style="fill:#FFFFFF;" d="M34.753,9.914H12.628c-2.175,0-3.937,1.786-3.937,3.988V24.95
			c0,0.205,0.015,0.406,0.045,0.603c-0.031,0.294-0.045,0.592-0.045,0.892c0,6.333,6.715,11.469,15,11.469
			c8.284,0,15-5.136,15-11.469c0-0.3-0.016-0.598-0.046-0.892c0.03-0.197,0.046-0.398,0.046-0.603V13.902
			C38.69,11.7,36.926,9.914,34.753,9.914L34.753,9.914z M32.889,21.021l-7.747,7.787c-0.394,0.396-0.911,0.59-1.427,0.586
			c-0.532,0.018-1.069-0.177-1.477-0.586l-7.746-7.787c-0.778-0.782-0.776-2.05,0-2.831c0.777-0.782,2.037-0.783,2.816,0
			l6.382,6.415l6.382-6.415c0.776-0.782,2.04-0.78,2.816,0C33.667,18.972,33.667,20.238,32.889,21.021L32.889,21.021z"/>
	</g>
</g>
<g>
</g>
<g>
</g>
<g>
</g>
<g>
</g>
<g>
</g>
<g>
</g>
<g>
</g>
<g>
</g>
</svg>
