<?xml version="1.0" encoding="iso-8859-1"?>
<!-- Generator: Adobe Illustrator 18.0.0, SVG Export Plug-In . SVG Version: 6.00 Build 0)  -->
<!DOCTYPE svg PUBLIC "-//W3C//DTD SVG 1.1//EN" "http://www.w3.org/Graphics/SVG/1.1/DTD/svg11.dtd">
<svg version="1.1" xmlns="http://www.w3.org/2000/svg" xmlns:xlink="http://www.w3.org/1999/xlink" x="0px" y="0px"
	 viewBox="0 0 48 48" style="enable-background:new 0 0 48 48;" xml:space="preserve">
<g id="Layer_229">
	<g>
		<rect style="fill:#D20C0C;" width="48" height="48"/>
		<g>
			<path style="fill:#FFFFFF;" d="M26.021,23.287c0.558,0,0.836,0.036,1.046,0.107l0.313,0.071l0.244-0.249l0.767-0.818l0.627-0.677
				l-0.906-0.249c-0.453-0.143-0.871-0.285-1.985-0.214c-1.952,0.071-3.728,1.281-4.042,2.707c-0.244,1.14,0.069,1.922,1.289,3.312
				c1.289,1.387,1.602,1.994,1.429,2.812c-0.104,0.534-0.976,1.211-1.986,1.353c-0.523,0.071-0.872,0.071-1.186,0l-0.348-0.108
				l-0.209,0.285l-0.836,1.033l-0.593,0.712l0.906,0.215c0.558,0.142,1.393,0.142,2.3-0.036c2.019-0.32,4.425-1.816,4.843-3.668
				c0.384-1.71-0.313-2.777-1.777-4.272c-1.149-1.176-1.08-1.461-1.011-1.675C24.941,23.678,25.394,23.323,26.021,23.287z"/>
			<polygon style="fill:#FFFFFF;" points="37.379,20.581 35.744,20.866 35.569,20.866 35.428,21.008 33.409,23.251 35.708,12.176 
				32.782,12.035 28.634,31.62 28.461,32.439 29.262,32.332 31.039,32.047 31.422,32.011 31.528,31.62 32.155,28.771 32.85,31.299 
				32.99,31.797 33.477,31.726 35.325,31.442 35.987,31.37 34.245,25.567 39.018,20.296 			"/>
			<path style="fill:#FFFFFF;" d="M18.739,16.2l-1.916,0.32L9.018,36.035l1.011-0.213l1.637-0.285l0.314-0.072l0.104-0.284
				l1.254-3.275l2.438-0.356v2.564l-0.034,0.676l0.661-0.107l1.917-0.32l0.488-0.071l-0.035-0.499L18.739,16.2z M15.708,28.949
				l-1.604,0.214l1.986-5.983L15.708,28.949z"/>
		</g>
	</g>
</g>
<g id="Layer_1">
</g>
</svg>
