<?xml version="1.0" encoding="iso-8859-1"?>
<!-- Generator: Adobe Illustrator 18.0.0, SVG Export Plug-In . SVG Version: 6.00 Build 0)  -->
<!DOCTYPE svg PUBLIC "-//W3C//DTD SVG 1.1//EN" "http://www.w3.org/Graphics/SVG/1.1/DTD/svg11.dtd">
<svg version="1.1" xmlns="http://www.w3.org/2000/svg" xmlns:xlink="http://www.w3.org/1999/xlink" x="0px" y="0px"
	 viewBox="0 0 48 48" style="enable-background:new 0 0 48 48;" xml:space="preserve">
<g id="Layer_246">
	<g>
		<rect style="fill:#A82400;" width="48" height="48"/>
		<g>
			<path style="fill:#FFFFFF;" d="M11.018,22.55c0,7.467,5.819,13.516,13,13.516c1.055,0,2.081-0.135,3.063-0.383
				c1.234,2.303,3.115,3.934,7.106,3.154v-2.291c0,0-2.561-0.66-3.339-2.498c3.703-2.381,6.17-6.641,6.17-11.498
				c0-7.465-5.822-13.516-13-13.516C16.837,9.035,11.018,15.086,11.018,22.55z M17.476,20.855c0-4.656,2.974-8.43,6.641-8.43
				s6.639,3.773,6.639,8.43c0,0.598,0,2.887,0,3.482c0,2.258-0.7,4.305-1.838,5.818c-1.428-1.56-3.668-2.844-6.509-2.68v0.275v2.381
				c0,0,1.927,0.08,3.247,2.404c-0.495,0.148-1.009,0.229-1.54,0.229c-3.668,0-6.641-3.771-6.641-8.428
				C17.476,23.742,17.476,21.453,17.476,20.855z"/>
		</g>
	</g>
</g>
<g id="Layer_1">
</g>
</svg>
