<?xml version="1.0" encoding="iso-8859-1"?>
<!-- Generator: Adobe Illustrator 18.0.0, SVG Export Plug-In . SVG Version: 6.00 Build 0)  -->
<!DOCTYPE svg PUBLIC "-//W3C//DTD SVG 1.1//EN" "http://www.w3.org/Graphics/SVG/1.1/DTD/svg11.dtd">
<svg version="1.1" xmlns="http://www.w3.org/2000/svg" xmlns:xlink="http://www.w3.org/1999/xlink" x="0px" y="0px"
	 viewBox="0 0 48 48" style="enable-background:new 0 0 48 48;" xml:space="preserve">
<g id="Layer_280">
	<g>
		<rect style="fill:#F16529;" width="48" height="48"/>
		<g>
			<polygon style="fill:#FFFFFF;enable-background:new    ;" points="16.438,11.733 17.719,11.733 17.719,13.091 19.119,13.091 
				19.119,9.035 17.719,9.035 17.719,10.375 16.438,10.375 16.438,9.035 15.038,9.035 15.038,13.091 16.438,13.091 			"/>
			<polygon style="fill:#FFFFFF;enable-background:new    ;" points="20.961,13.091 22.362,13.091 22.362,10.382 23.594,10.382 
				23.594,9.035 19.729,9.035 19.729,10.382 20.961,10.382 			"/>
			<polygon style="fill:#FFFFFF;enable-background:new    ;" points="25.578,11.082 26.542,12.524 26.566,12.524 27.529,11.082 
				27.529,13.091 28.925,13.091 28.925,9.035 27.464,9.035 26.566,10.463 25.669,9.035 24.208,9.035 24.208,13.091 25.578,13.091 
							"/>
			<polygon style="fill:#FFFFFF;enable-background:new    ;" points="32.99,11.752 31.021,11.752 31.021,9.035 29.621,9.035 
				29.621,13.091 32.99,13.091 			"/>
			<path style="fill:#FFFFFF;enable-background:new    ;" d="M13.018,14.872l2.004,21.747l8.992,2.416l8.999-2.414l2.005-21.749
				H13.018z M30.672,21.983h-6.654h-3.89l0.252,2.731h3.638h6.404l-0.755,8.191l-5.649,1.515l-0.004,0.001l-5.645-1.516
				l-0.393-4.284h2.766l0.204,2.222l3.069,0.804l0.004-0.001l0,0l3.073-0.804l0.321-3.459h-3.394l0,0H17.86l-0.742-8.066h6.9h6.902
				L30.672,21.983z"/>
		</g>
	</g>
</g>
<g id="Layer_1">
</g>
</svg>
