<?xml version="1.0" encoding="iso-8859-1"?>
<!-- Generator: Adobe Illustrator 18.0.0, SVG Export Plug-In . SVG Version: 6.00 Build 0)  -->
<!DOCTYPE svg PUBLIC "-//W3C//DTD SVG 1.1//EN" "http://www.w3.org/Graphics/SVG/1.1/DTD/svg11.dtd">
<svg version="1.1" xmlns="http://www.w3.org/2000/svg" xmlns:xlink="http://www.w3.org/1999/xlink" x="0px" y="0px"
	 viewBox="0 0 48 48" style="enable-background:new 0 0 48 48;" xml:space="preserve">
<g id="Layer_231">
	<g>
		<rect style="fill:#FF5C06;" width="48" height="48"/>
		<g>
			<ellipse style="fill:#FFFFFF;" cx="20.857" cy="19.48" rx="1.557" ry="1.511"/>
			<ellipse style="fill:#FFFFFF;" cx="27.358" cy="19.481" rx="1.557" ry="1.511"/>
			<path style="fill:#FFFFFF;" d="M29.604,11.048c0,1.105,0.927,2.005,2.068,2.005c1.141,0,2.068-0.901,2.068-2.01
				c0-1.107-0.928-2.009-2.068-2.009c-0.867,0-1.608,0.52-1.918,1.255l-4.266-0.99l-1.771,4.888
				c-2.523,0.046-4.807,0.708-6.515,1.767c-0.463-0.387-1.036-0.608-1.652-0.608c-1.396,0-2.533,1.103-2.533,2.46
				c0,0.841,0.447,1.615,1.169,2.066c-0.044,0.245-0.072,0.493-0.072,0.746c0,2.414,2.052,4.519,5.078,5.622
				c-1.638,0.981-2.69,2.452-2.69,4.101c0,1.811,1.251,3.482,3.35,4.473l0.03-0.058c0.093,0.388,0.195,0.759,0.316,1.102h-0.841
				c-0.732,0-1.326,0.226-1.76,0.671c-0.801,0.821-0.745,2.085-0.742,2.14l0.02,0.366H31.04l0.012-0.374
				c0.002-0.055,0.038-1.356-0.773-2.172c-0.417-0.418-0.97-0.631-1.646-0.631h-0.853c0.139-0.386,0.254-0.806,0.358-1.242
				l0.058,0.106c1.98-0.997,3.165-2.636,3.165-4.382c0-1.607-0.998-3.046-2.567-4.026c0-0.024,0.002-0.048,0.002-0.071
				c3.03-1.102,5.086-3.209,5.086-5.625c0-0.246-0.026-0.487-0.066-0.726c0.74-0.447,1.201-1.233,1.201-2.087
				c0-1.356-1.139-2.46-2.535-2.46c-0.622,0-1.203,0.226-1.666,0.621c-1.648-1.026-3.837-1.681-6.26-1.77l1.445-3.983L29.604,11.048
				z M31.672,9.807c0.702,0,1.274,0.555,1.274,1.236c0,0.682-0.571,1.236-1.274,1.236c-0.704,0-1.274-0.555-1.274-1.236
				C30.398,10.362,30.968,9.807,31.672,9.807z M13.813,17.805c0-0.93,0.781-1.687,1.738-1.687c0.356,0,0.692,0.104,0.978,0.294
				c-1.002,0.754-1.732,1.658-2.113,2.656C14.042,18.751,13.813,18.297,13.813,17.805z M27.694,26.585
				c0.103,0.05,0.203,0.1,0.302,0.152c-0.046,7.105-0.775,11.481-3.976,11.481c-3.549,0-3.954-5.4-3.978-11.579
				c0.054-0.028,0.117-0.05,0.175-0.075c1.165,0.316,2.441,0.492,3.781,0.492C25.306,27.057,26.549,26.887,27.694,26.585z
				 M17.298,30.34c0-1.259,0.751-2.396,1.95-3.225c0.018,2.51,0.113,4.821,0.449,6.73C18.189,32.979,17.298,31.701,17.298,30.34z
				 M18.175,37.061c0.284-0.289,0.672-0.431,1.183-0.431h1.157c0.328,0.683,0.742,1.233,1.258,1.632H17.67
				C17.712,37.92,17.831,37.413,18.175,37.061z M28.634,36.63c0.457,0,0.807,0.128,1.072,0.393c0.356,0.355,0.481,0.884,0.525,1.238
				h-4.028c0.509-0.402,0.926-0.951,1.255-1.632H28.634z M30.565,30.34c0,1.307-0.833,2.553-2.245,3.417
				c0.346-1.908,0.451-4.171,0.471-6.511C29.887,28.061,30.565,29.145,30.565,30.34z M23.998,26.284
				c-5.012,0-9.087-2.542-9.087-5.666c0-3.125,4.074-5.667,9.087-5.667c5.012,0,9.088,2.542,9.088,5.667
				C33.087,23.742,29.01,26.284,23.998,26.284z M32.483,16.119c0.96,0,1.738,0.757,1.738,1.687c0,0.505-0.241,0.968-0.632,1.285
				c-0.374-0.999-1.103-1.907-2.103-2.664C31.777,16.228,32.121,16.119,32.483,16.119z"/>
			<path style="fill:#FFFFFF;" d="M27.097,23.032c-0.01,0.009-0.958,0.915-3.117,0.915c-2.123,0-2.972-0.874-2.994-0.898
				c-0.143-0.161-0.392-0.179-0.557-0.04c-0.169,0.138-0.187,0.383-0.044,0.545c0.042,0.047,1.058,1.166,3.596,1.166
				c2.525,0,3.644-1.103,3.69-1.15c0.151-0.154,0.145-0.394-0.012-0.543C27.501,22.877,27.25,22.88,27.097,23.032z"/>
		</g>
	</g>
</g>
<g id="Layer_1">
</g>
</svg>
