<?xml version="1.0" encoding="iso-8859-1"?>
<!-- Generator: Adobe Illustrator 18.0.0, SVG Export Plug-In . SVG Version: 6.00 Build 0)  -->
<!DOCTYPE svg PUBLIC "-//W3C//DTD SVG 1.1//EN" "http://www.w3.org/Graphics/SVG/1.1/DTD/svg11.dtd">
<svg version="1.1" xmlns="http://www.w3.org/2000/svg" xmlns:xlink="http://www.w3.org/1999/xlink" x="0px" y="0px"
	 viewBox="0 0 48 48" style="enable-background:new 0 0 48 48;" xml:space="preserve">
<g id="Layer_269">
	<g>
		<rect style="fill:#54675A;" width="48" height="48"/>
		<g>
			<path style="fill:#FFFFFF;" d="M23.671,28.47l-3.783-7.882c6.791-2.002,12.463,2.092,12.463,2.092l-4.675,1.294l-1.346-2.565
				c-1.268-0.238-2.711-0.315-4.245-0.05l3.183,6.634l13.75-4.061c0,0-4.986-8.034-19.86-5.44c-0.088,0.016-0.165,0.038-0.251,0.052
				l-1.444-3.009l-4.28,0.501l1.746,3.66c-9.026,3.823-5.027,12.839-5.027,12.839L23.671,28.47z M16.162,22.283l2.054,4.314
				l-4.588,1.268C13.627,27.865,12.3,24.859,16.162,22.283z"/>
		</g>
	</g>
</g>
<g id="Layer_1">
</g>
</svg>
