<?xml version="1.0" encoding="iso-8859-1"?>
<!-- Generator: Adobe Illustrator 18.0.0, SVG Export Plug-In . SVG Version: 6.00 Build 0)  -->
<!DOCTYPE svg PUBLIC "-//W3C//DTD SVG 1.1//EN" "http://www.w3.org/Graphics/SVG/1.1/DTD/svg11.dtd">
<svg version="1.1" xmlns="http://www.w3.org/2000/svg" xmlns:xlink="http://www.w3.org/1999/xlink" x="0px" y="0px"
	 viewBox="0 0 48 48" style="enable-background:new 0 0 48 48;" xml:space="preserve">
<g id="Layer_235">
	<g>
		<rect style="fill:#C96F00;" width="48" height="48"/>
		<g>
			<polygon style="fill:#FFFFFF;" points="33.579,30.692 31.897,25.536 30.217,30.692 24.776,30.692 29.176,33.878 27.496,39.035 
				31.897,35.848 36.297,39.035 34.618,33.878 39.018,30.692 			"/>
			<path style="fill:#FFFFFF;" d="M27.914,34.288c-0.925-0.67-6.441-4.664-6.441-4.664s6.817,0,7.964,0
				c0.353-1.086,2.46-7.549,2.46-7.549s2.107,6.463,2.462,7.549c0.557,0,2.45,0,4.252,0L31.897,9.035l-5.4,16.565H9.018
				l17.565,12.771C27.145,36.647,27.741,34.821,27.914,34.288z"/>
		</g>
	</g>
</g>
<g id="Layer_1">
</g>
</svg>
