<?xml version="1.0" encoding="iso-8859-1"?>
<!-- Generator: Adobe Illustrator 18.0.0, SVG Export Plug-In . SVG Version: 6.00 Build 0)  -->
<!DOCTYPE svg PUBLIC "-//W3C//DTD SVG 1.1//EN" "http://www.w3.org/Graphics/SVG/1.1/DTD/svg11.dtd">
<svg version="1.1" xmlns="http://www.w3.org/2000/svg" xmlns:xlink="http://www.w3.org/1999/xlink" x="0px" y="0px"
	 viewBox="0 0 48 48" style="enable-background:new 0 0 48 48;" xml:space="preserve">
<g id="Layer_249">
	<g>
		<rect style="fill:#9AC24F;" width="48" height="48"/>
		<g>
			<path style="fill:#FFFFFF;" d="M26.949,33.107c0.6,0,1.09,0.07,1.09,0.07v-2.35c0,0-4.828-0.032-4.828,3.618
				c0,3.651,2.525,4.589,4.551,4.589c2.024,0,3.3,0,3.3,0s5.956-0.757,5.956-12.375c0-11.619-1.862-12.7-2.386-13.595
				c-0.524-0.894-3.273-1.922-4.699-1.922c-1.421,0-3.67,0-3.67,0s-1.181-2.108-3.953-2.108c-2.776,0-2.588,1.223-2.588,2.264v4.215
				l-1.258,1.311h-5.807c0,0-1.637,1.068-1.637,3.377c0,2.31,0.727,10.356,5.602,11.101c5.766,0.882,6.751-1.764,6.751-2.083
				c0-1.339,0.036-3.37,0.036-3.37s1.688,3.186,4.238,3.186c2.55,0,4.034,1.446,4.034,2.935c0,1.49,0,2.756,0,2.756
				s-0.095,1.724-1.595,1.724c-1.5,0-3.199,0-3.199,0s-1.051-0.807-1.051-1.923C25.835,33.41,26.347,33.107,26.949,33.107z
				 M28.71,23.479c0,0,0.289-1.915,1.413-1.915c1.126,0,2.671,2.559,2.671,2.559S29.268,23.479,28.71,23.479z"/>
			<polygon style="fill:#FFFFFF;" points="17.182,15.501 18.431,14.308 18.429,9.365 12.258,15.495 			"/>
		</g>
	</g>
</g>
<g id="Layer_1">
</g>
</svg>
