<?xml version="1.0" encoding="iso-8859-1"?>
<!-- Generator: Adobe Illustrator 18.0.0, SVG Export Plug-In . SVG Version: 6.00 Build 0)  -->
<!DOCTYPE svg PUBLIC "-//W3C//DTD SVG 1.1//EN" "http://www.w3.org/Graphics/SVG/1.1/DTD/svg11.dtd">
<svg version="1.1" xmlns="http://www.w3.org/2000/svg" xmlns:xlink="http://www.w3.org/1999/xlink" x="0px" y="0px"
	 viewBox="0 0 48 48" style="enable-background:new 0 0 48 48;" xml:space="preserve">
<g id="Layer_518">
	<g>
		<circle style="fill:#3777E3;" cx="24" cy="23.998" r="24"/>
		<g>
			<polygon style="fill:#FFFFFF;" points="19.385,30 15.238,36.634 14.992,37 15.486,37 34.439,37 34.607,37 34.689,36.878 39,30 
							"/>
			<polygon style="fill:#FFFFFF;" points="29.277,11.143 29.193,11 29.027,11.002 20.842,11.033 20.348,11.037 20.594,11.459 
				30.072,27.652 30.156,27.795 30.322,27.795 38.506,27.76 39,27.758 38.752,27.336 			"/>
			<polygon style="fill:#FFFFFF;" points="23.264,19.419 23.178,19.276 19.057,12.301 18.807,11.881 18.561,12.303 9.084,28.497 
				9,28.639 9.086,28.78 13.207,35.757 13.455,36.179 13.703,35.757 23.18,19.561 			"/>
		</g>
		<circle style="fill:#3777E3;" cx="24" cy="23.998" r="24"/>
		<g>
			<polygon style="fill:#FFFFFF;" points="19.385,30 15.238,36.634 14.992,37 15.486,37 34.439,37 34.607,37 34.689,36.878 39,30 
							"/>
			<polygon style="fill:#FFFFFF;" points="29.277,11.143 29.193,11 29.027,11.002 20.842,11.033 20.348,11.037 20.594,11.459 
				30.072,27.652 30.156,27.795 30.322,27.795 38.506,27.76 39,27.758 38.752,27.336 			"/>
			<polygon style="fill:#FFFFFF;" points="23.264,19.419 23.178,19.276 19.057,12.301 18.807,11.881 18.561,12.303 9.084,28.497 
				9,28.639 9.086,28.78 13.207,35.757 13.455,36.179 13.703,35.757 23.18,19.561 			"/>
		</g>
		<circle style="fill:#3777E3;" cx="24" cy="23.998" r="24"/>
		<g>
			<polygon style="fill:#FFFFFF;" points="19.385,30 15.238,36.634 14.992,37 15.486,37 34.439,37 34.607,37 34.689,36.878 39,30 
							"/>
			<polygon style="fill:#FFFFFF;" points="29.277,11.143 29.193,11 29.027,11.002 20.842,11.033 20.348,11.037 20.594,11.459 
				30.072,27.652 30.156,27.795 30.322,27.795 38.506,27.76 39,27.758 38.752,27.336 			"/>
			<polygon style="fill:#FFFFFF;" points="23.264,19.419 23.178,19.276 19.057,12.301 18.807,11.881 18.561,12.303 9.084,28.497 
				9,28.639 9.086,28.78 13.207,35.757 13.455,36.179 13.703,35.757 23.18,19.561 			"/>
		</g>
	</g>
</g>
<g id="Layer_1">
</g>
</svg>
