<?xml version="1.0" encoding="iso-8859-1"?>
<!-- Generator: Adobe Illustrator 18.0.0, SVG Export Plug-In . SVG Version: 6.00 Build 0)  -->
<!DOCTYPE svg PUBLIC "-//W3C//DTD SVG 1.1//EN" "http://www.w3.org/Graphics/SVG/1.1/DTD/svg11.dtd">
<svg version="1.1" xmlns="http://www.w3.org/2000/svg" xmlns:xlink="http://www.w3.org/1999/xlink" x="0px" y="0px"
	 viewBox="0 0 48 48" style="enable-background:new 0 0 48 48;" xml:space="preserve">
<g id="Layer_555">
	<g>
		<circle style="fill:#B685BF;" cx="24" cy="24" r="24"/>
		<g>
			<path style="fill:#FFFFFF;" d="M18.761,9.983c0.398,0.36,10.912,9.924,11.424,10.39c0-0.691,0-9.811,0-10.024
				C28.226,9.458,26.146,9,23.999,9C22.21,9,20.453,9.346,18.761,9.983z"/>
			<path style="fill:#FFFFFF;" d="M16.278,36.871c0-0.587,0-12.232,0-12.924c-0.501,0.456-6.025,5.486-6.198,5.644
				C11.283,32.612,13.477,35.172,16.278,36.871z"/>
			<path style="fill:#FFFFFF;" d="M22.841,15.83c-0.253-0.229-5.505-5.006-5.678-5.163C12.128,13.257,9,18.365,9,24.034
				c0,1.288,0.193,2.601,0.546,3.904C9.95,27.567,22.581,16.069,22.841,15.83z"/>
			<path style="fill:#FFFFFF;" d="M17.855,37.738c1.523,0.687,3.121,1.11,4.762,1.262h2.751c5.183-0.483,9.808-3.685,12.107-8.435
				c-0.542,0-19.298,0-19.62,0C17.855,30.878,17.855,37.522,17.855,37.738z"/>
			<path style="fill:#FFFFFF;" d="M39,24.034c0-5.225-2.771-10.102-7.234-12.823c0,0.595,0,17.451,0,17.77c0.308,0,6.145,0,6.384,0
				C38.706,27.379,39,25.715,39,24.034z"/>
		</g>
		<circle style="fill:#B685BF;" cx="24" cy="24" r="24"/>
		<g>
			<path style="fill:#FFFFFF;" d="M18.761,9.983c0.398,0.36,10.912,9.924,11.424,10.39c0-0.691,0-9.811,0-10.024
				C28.226,9.458,26.146,9,23.999,9C22.21,9,20.453,9.346,18.761,9.983z"/>
			<path style="fill:#FFFFFF;" d="M16.278,36.871c0-0.587,0-12.232,0-12.924c-0.501,0.456-6.025,5.486-6.198,5.644
				C11.283,32.612,13.477,35.172,16.278,36.871z"/>
			<path style="fill:#FFFFFF;" d="M22.841,15.83c-0.253-0.229-5.505-5.006-5.678-5.163C12.128,13.257,9,18.365,9,24.034
				c0,1.288,0.193,2.601,0.546,3.904C9.95,27.567,22.581,16.069,22.841,15.83z"/>
			<path style="fill:#FFFFFF;" d="M17.855,37.738c1.523,0.687,3.121,1.11,4.762,1.262h2.751c5.183-0.483,9.808-3.685,12.107-8.435
				c-0.542,0-19.298,0-19.62,0C17.855,30.878,17.855,37.522,17.855,37.738z"/>
			<path style="fill:#FFFFFF;" d="M39,24.034c0-5.225-2.771-10.102-7.234-12.823c0,0.595,0,17.451,0,17.77c0.308,0,6.145,0,6.384,0
				C38.706,27.379,39,25.715,39,24.034z"/>
		</g>
		<circle style="fill:#B685BF;" cx="24" cy="24" r="24"/>
		<g>
			<path style="fill:#FFFFFF;" d="M18.761,9.983c0.398,0.36,10.912,9.924,11.424,10.39c0-0.691,0-9.811,0-10.024
				C28.226,9.458,26.146,9,23.999,9C22.21,9,20.453,9.346,18.761,9.983z"/>
			<path style="fill:#FFFFFF;" d="M16.278,36.871c0-0.587,0-12.232,0-12.924c-0.501,0.456-6.025,5.486-6.198,5.644
				C11.283,32.612,13.477,35.172,16.278,36.871z"/>
			<path style="fill:#FFFFFF;" d="M22.841,15.83c-0.253-0.229-5.505-5.006-5.678-5.163C12.128,13.257,9,18.365,9,24.034
				c0,1.288,0.193,2.601,0.546,3.904C9.95,27.567,22.581,16.069,22.841,15.83z"/>
			<path style="fill:#FFFFFF;" d="M17.855,37.738c1.523,0.687,3.121,1.11,4.762,1.262h2.751c5.183-0.483,9.808-3.685,12.107-8.435
				c-0.542,0-19.298,0-19.62,0C17.855,30.878,17.855,37.522,17.855,37.738z"/>
			<path style="fill:#FFFFFF;" d="M39,24.034c0-5.225-2.771-10.102-7.234-12.823c0,0.595,0,17.451,0,17.77c0.308,0,6.145,0,6.384,0
				C38.706,27.379,39,25.715,39,24.034z"/>
		</g>
	</g>
</g>
<g id="Layer_1">
</g>
</svg>
