<?xml version="1.0" encoding="iso-8859-1"?>
<!-- Generator: Adobe Illustrator 18.0.0, SVG Export Plug-In . SVG Version: 6.00 Build 0)  -->
<!DOCTYPE svg PUBLIC "-//W3C//DTD SVG 1.1//EN" "http://www.w3.org/Graphics/SVG/1.1/DTD/svg11.dtd">
<svg version="1.1" xmlns="http://www.w3.org/2000/svg" xmlns:xlink="http://www.w3.org/1999/xlink" x="0px" y="0px"
	 viewBox="0 0 48 48" style="enable-background:new 0 0 48 48;" xml:space="preserve">
<g id="Layer_525">
	<g>
		<circle style="fill:#FFA616;" cx="24" cy="23.998" r="24"/>
		<g>
			<path style="fill:#FFFFFF;" d="M24,36c8.283,0,15-4.368,15-9.753s-6.717-9.751-15-9.751c-4.176,0-7.955,1.11-10.674,2.901V12H9
				v14.239v0.008v0.01v0.038h0.002C9.039,31.658,15.74,36,24,36z M24,18.89c5.789,0,10.482,3.294,10.482,7.357
				S29.789,33.605,24,33.605c-5.789,0-10.482-3.295-10.482-7.359S18.211,18.89,24,18.89z"/>
		</g>
		<circle style="fill:#FFA616;" cx="24" cy="23.998" r="24"/>
		<g>
			<path style="fill:#FFFFFF;" d="M24,36c8.283,0,15-4.368,15-9.753s-6.717-9.751-15-9.751c-4.176,0-7.955,1.11-10.674,2.901V12H9
				v14.239v0.008v0.01v0.038h0.002C9.039,31.658,15.74,36,24,36z M24,18.89c5.789,0,10.482,3.294,10.482,7.357
				S29.789,33.605,24,33.605c-5.789,0-10.482-3.295-10.482-7.359S18.211,18.89,24,18.89z"/>
		</g>
		<circle style="fill:#FFA616;" cx="24" cy="23.998" r="24"/>
		<g>
			<path style="fill:#FFFFFF;" d="M24,36c8.283,0,15-4.368,15-9.753s-6.717-9.751-15-9.751c-4.176,0-7.955,1.11-10.674,2.901V12H9
				v14.239v0.008v0.01v0.038h0.002C9.039,31.658,15.74,36,24,36z M24,18.89c5.789,0,10.482,3.294,10.482,7.357
				S29.789,33.605,24,33.605c-5.789,0-10.482-3.295-10.482-7.359S18.211,18.89,24,18.89z"/>
		</g>
	</g>
</g>
<g id="Layer_1">
</g>
</svg>
