<?xml version="1.0" encoding="iso-8859-1"?>
<!-- Generator: Adobe Illustrator 18.0.0, SVG Export Plug-In . SVG Version: 6.00 Build 0)  -->
<!DOCTYPE svg PUBLIC "-//W3C//DTD SVG 1.1//EN" "http://www.w3.org/Graphics/SVG/1.1/DTD/svg11.dtd">
<svg version="1.1" xmlns="http://www.w3.org/2000/svg" xmlns:xlink="http://www.w3.org/1999/xlink" x="0px" y="0px"
	 viewBox="0 0 48 48" style="enable-background:new 0 0 48 48;" xml:space="preserve">
<g id="Layer_537">
	<g>
		<circle style="fill:#9AC24F;" cx="24" cy="23.998" r="24"/>
		<g>
			<path style="fill:#FFFFFF;" d="M26.931,33.072c0.6,0,1.09,0.07,1.09,0.07v-2.35c0,0-4.828-0.032-4.828,3.618
				c0,3.651,2.525,4.589,4.551,4.589c2.024,0,3.3,0,3.3,0S37,38.243,37,26.625c0-11.619-1.862-12.7-2.386-13.595
				c-0.524-0.894-3.273-1.922-4.699-1.922c-1.421,0-3.67,0-3.67,0S25.063,9,22.291,9c-2.776,0-2.588,1.223-2.588,2.264v4.215
				l-1.258,1.311h-5.807c0,0-1.637,1.068-1.637,3.377c0,2.31,0.727,10.356,5.602,11.101c5.766,0.882,6.751-1.764,6.751-2.083
				c0-1.339,0.036-3.37,0.036-3.37s1.688,3.186,4.238,3.186c2.55,0,4.034,1.446,4.034,2.935c0,1.49,0,2.756,0,2.756
				s-0.095,1.724-1.595,1.724c-1.5,0-3.199,0-3.199,0s-1.051-0.807-1.051-1.923C25.817,33.375,26.329,33.072,26.931,33.072z
				 M28.692,23.444c0,0,0.289-1.915,1.413-1.915c1.126,0,2.671,2.559,2.671,2.559S29.25,23.444,28.692,23.444z"/>
			<polygon style="fill:#FFFFFF;" points="17.164,15.466 18.413,14.273 18.411,9.33 12.24,15.46 			"/>
		</g>
		<circle style="fill:#9AC24F;" cx="24" cy="23.998" r="24"/>
		<g>
			<path style="fill:#FFFFFF;" d="M26.931,33.072c0.6,0,1.09,0.07,1.09,0.07v-2.35c0,0-4.828-0.032-4.828,3.618
				c0,3.651,2.525,4.589,4.551,4.589c2.024,0,3.3,0,3.3,0S37,38.243,37,26.625c0-11.619-1.862-12.7-2.386-13.595
				c-0.524-0.894-3.273-1.922-4.699-1.922c-1.421,0-3.67,0-3.67,0S25.063,9,22.291,9c-2.776,0-2.588,1.223-2.588,2.264v4.215
				l-1.258,1.311h-5.807c0,0-1.637,1.068-1.637,3.377c0,2.31,0.727,10.356,5.602,11.101c5.766,0.882,6.751-1.764,6.751-2.083
				c0-1.339,0.036-3.37,0.036-3.37s1.688,3.186,4.238,3.186c2.55,0,4.034,1.446,4.034,2.935c0,1.49,0,2.756,0,2.756
				s-0.095,1.724-1.595,1.724c-1.5,0-3.199,0-3.199,0s-1.051-0.807-1.051-1.923C25.817,33.375,26.329,33.072,26.931,33.072z
				 M28.692,23.444c0,0,0.289-1.915,1.413-1.915c1.126,0,2.671,2.559,2.671,2.559S29.25,23.444,28.692,23.444z"/>
			<polygon style="fill:#FFFFFF;" points="17.164,15.466 18.413,14.273 18.411,9.33 12.24,15.46 			"/>
		</g>
		<circle style="fill:#9AC24F;" cx="24" cy="23.998" r="24"/>
		<g>
			<path style="fill:#FFFFFF;" d="M26.931,33.072c0.6,0,1.09,0.07,1.09,0.07v-2.35c0,0-4.828-0.032-4.828,3.618
				c0,3.651,2.525,4.589,4.551,4.589c2.024,0,3.3,0,3.3,0S37,38.243,37,26.625c0-11.619-1.862-12.7-2.386-13.595
				c-0.524-0.894-3.273-1.922-4.699-1.922c-1.421,0-3.67,0-3.67,0S25.063,9,22.291,9c-2.776,0-2.588,1.223-2.588,2.264v4.215
				l-1.258,1.311h-5.807c0,0-1.637,1.068-1.637,3.377c0,2.31,0.727,10.356,5.602,11.101c5.766,0.882,6.751-1.764,6.751-2.083
				c0-1.339,0.036-3.37,0.036-3.37s1.688,3.186,4.238,3.186c2.55,0,4.034,1.446,4.034,2.935c0,1.49,0,2.756,0,2.756
				s-0.095,1.724-1.595,1.724c-1.5,0-3.199,0-3.199,0s-1.051-0.807-1.051-1.923C25.817,33.375,26.329,33.072,26.931,33.072z
				 M28.692,23.444c0,0,0.289-1.915,1.413-1.915c1.126,0,2.671,2.559,2.671,2.559S29.25,23.444,28.692,23.444z"/>
			<polygon style="fill:#FFFFFF;" points="17.164,15.466 18.413,14.273 18.411,9.33 12.24,15.46 			"/>
		</g>
	</g>
</g>
<g id="Layer_1">
</g>
</svg>
