<?xml version="1.0" encoding="iso-8859-1"?>
<!-- Generator: Adobe Illustrator 18.0.0, SVG Export Plug-In . SVG Version: 6.00 Build 0)  -->
<!DOCTYPE svg PUBLIC "-//W3C//DTD SVG 1.1//EN" "http://www.w3.org/Graphics/SVG/1.1/DTD/svg11.dtd">
<svg version="1.1" xmlns="http://www.w3.org/2000/svg" xmlns:xlink="http://www.w3.org/1999/xlink" x="0px" y="0px"
	 viewBox="0 0 48 48" style="enable-background:new 0 0 48 48;" xml:space="preserve">
<g id="Layer_508">
	<g>
		<circle style="fill:#FFC500;" cx="24" cy="23.998" r="24"/>
		<polygon style="fill:#FFFFFF;" points="24,10 27.937,20.159 39,20.695 30.369,27.51 33.269,38 24,32.052 14.729,38 17.629,27.51 
			9,20.695 20.063,20.159 		"/>
		<circle style="fill:#FFC500;" cx="24" cy="23.998" r="24"/>
		<polygon style="fill:#FFFFFF;" points="24,10 27.937,20.159 39,20.695 30.369,27.51 33.269,38 24,32.052 14.729,38 17.629,27.51 
			9,20.695 20.063,20.159 		"/>
		<circle style="fill:#FFC500;" cx="24" cy="23.998" r="24"/>
		<polygon style="fill:#FFFFFF;" points="24,10 27.937,20.159 39,20.695 30.369,27.51 33.269,38 24,32.052 14.729,38 17.629,27.51 
			9,20.695 20.063,20.159 		"/>
	</g>
</g>
<g id="Layer_1">
</g>
</svg>
