<?xml version="1.0" encoding="iso-8859-1"?>
<!-- Generator: Adobe Illustrator 18.0.0, SVG Export Plug-In . SVG Version: 6.00 Build 0)  -->
<!DOCTYPE svg PUBLIC "-//W3C//DTD SVG 1.1//EN" "http://www.w3.org/Graphics/SVG/1.1/DTD/svg11.dtd">
<svg version="1.1" xmlns="http://www.w3.org/2000/svg" xmlns:xlink="http://www.w3.org/1999/xlink" x="0px" y="0px"
	 viewBox="0 0 48 48" style="enable-background:new 0 0 48 48;" xml:space="preserve">
<g>
</g>
<g>
</g>
<g>
</g>
<g>
</g>
<g>
</g>
<g>
</g>
<g>
</g>
<g>
</g>
<g>
</g>
<g>
</g>
<g>
</g>
<g>
</g>
<g>
</g>
<g>
</g>
<g>
</g>
<g>
</g>
<g>
</g>
<g>
</g>
<g>
</g>
<g>
</g>
<g>
</g>
<g>
</g>
<g>
</g>
<g>
</g>
<g>
</g>
<g>
</g>
<g>
</g>
<g>
</g>
<g>
</g>
<g>
</g>
<g>
</g>
<g>
</g>
<g>
</g>
<g>
</g>
<g>
</g>
<g>
</g>
<g>
</g>
<g>
</g>
<g>
</g>
<g>
</g>
<g>
</g>
<g>
</g>
<g>
</g>
<g>
</g>
<g>
</g>
<g>
</g>
<g>
</g>
<g>
</g>
<g>
</g>
<g>
</g>
<g>
</g>
<g>
</g>
<g>
</g>
<g>
</g>
<g>
</g>
<g>
</g>
<g>
</g>
<g>
</g>
<g>
</g>
<g>
</g>
<g>
</g>
<g>
</g>
<g>
</g>
<g>
</g>
<g>
</g>
<g>
</g>
<g>
</g>
<g>
</g>
<g>
</g>
<g>
</g>
<g>
</g>
<g>
</g>
<g>
</g>
<g>
</g>
<g>
</g>
<g>
</g>
<g>
</g>
<g>
	<g>
		<path style="fill:#62A14A;" d="M48,24c0,13.254-10.746,24-23.997,24C10.746,48,0,37.254,0,24C0,10.744,10.746,0,24.003,0
			C37.254,0,48,10.744,48,24z"/>
		<path id="Bird_5_" style="fill:#FFFFFF;" d="M24,14.999c-4,0-7.001,1.002-10.001,4.002H9c0,0,0.001,1.501,2.001,2.001
			C10.105,22.233,9,24.362,9,26.001c0,4.125,2.875,7,7,7c2.34,0,4.63-1.315,5.999-3.001L24,33.001l2.001-3.001
			c1.369,1.686,3.659,3.001,5.999,3.001c4.124,0,7-2.875,7-7c0-1.639-1.105-3.767-2.001-4.999c2-0.5,2.001-2.001,2.001-2.001h-4.999
			C31.001,16.001,28,14.999,24,14.999z M24,16c5,0,8,3.001,8,3.001c-4,0-8,5.001-8,10.001c0-5-4-10.001-8-10.001
			C16,19.001,19,16,24,16L24,16z M16,21.002c2.761,0,4.999,2.238,4.999,4.999C20.999,28.763,18.761,31,16,31
			s-4.999-2.237-4.999-4.999C11.001,23.24,13.239,21.002,16,21.002z M32,21.002c2.762,0,4.999,2.238,4.999,4.999
			C36.999,28.763,34.762,31,32,31s-4.999-2.237-4.999-4.999C27.001,23.24,29.238,21.002,32,21.002z M16,23
			c-1.657,0-3.001,1.344-3.001,3.001c0,1.658,1.344,3.001,3.001,3.001s3.001-1.343,3.001-3.001C19.001,24.344,17.657,23,16,23z
			 M32,23c-1.656,0-3.001,1.345-3.001,3.001c0,1.658,1.345,3.001,3.001,3.001c1.656,0,3.001-1.343,3.001-3.001
			C35.001,24.345,33.656,23,32,23L32,23z M16,24c1.104,0,2.001,0.897,2.001,2.001c0,1.105-0.897,2.001-2.001,2.001
			c-1.104,0-2.001-0.896-2.001-2.001C13.999,24.897,14.896,24,16,24z M32,24c1.104,0,2.001,0.897,2.001,2.001
			c0,1.105-0.897,2.001-2.001,2.001c-1.104,0-2.001-0.896-2.001-2.001C29.999,24.897,30.896,24,32,24z M16,25c-0.552,0-1,0.448-1,1
			c0,0.552,0.448,1.001,1,1.001c0.552,0,1-0.448,1-1.001C17,25.448,16.552,25,16,25z M32,25c-0.552,0-1,0.448-1,1
			c0,0.552,0.448,1.001,1,1.001c0.552,0,1-0.448,1-1.001C33.001,25.448,32.552,25,32,25z"/>
	</g>
</g>
<g>
</g>
<g>
</g>
<g>
</g>
<g>
</g>
<g>
</g>
<g>
</g>
<g>
</g>
<g>
</g>
<g>
</g>
<g>
</g>
<g>
</g>
<g>
</g>
</svg>
