<?xml version="1.0" encoding="iso-8859-1"?>
<!-- Generator: Adobe Illustrator 18.0.0, SVG Export Plug-In . SVG Version: 6.00 Build 0)  -->
<!DOCTYPE svg PUBLIC "-//W3C//DTD SVG 1.1//EN" "http://www.w3.org/Graphics/SVG/1.1/DTD/svg11.dtd">
<svg version="1.1" xmlns="http://www.w3.org/2000/svg" xmlns:xlink="http://www.w3.org/1999/xlink" x="0px" y="0px"
	 viewBox="0 0 48 48" style="enable-background:new 0 0 48 48;" xml:space="preserve">
<g id="Layer_514">
	<g>
		<circle style="fill:#82B641;" cx="24" cy="24" r="24"/>
		<g>
			<path style="fill:#FFFFFF;" d="M12.898,33.362l9.012-20.261C11.511,17.43,8.637,24.227,12.898,33.362z"/>
			<path style="fill:#FFFFFF;" d="M31.779,11.2c-6.804,7.491-12.659,15.536-16.807,24.576c0.416,0.514,0.917,0.97,1.478,1.366
				c3.69,2.592,10.129,2.598,14.256-0.781c4.553-3.953,5.995-12.743,6.252-23.375c0.019-0.852,0.034-1.716,0.042-2.592
				C36.897,8.158,33.574,8.748,31.779,11.2z"/>
		</g>
		<circle style="fill:#82B641;" cx="24" cy="24" r="24"/>
		<g>
			<path style="fill:#FFFFFF;" d="M12.898,33.362l9.012-20.261C11.511,17.43,8.637,24.227,12.898,33.362z"/>
			<path style="fill:#FFFFFF;" d="M31.779,11.2c-6.804,7.491-12.659,15.536-16.807,24.576c0.416,0.514,0.917,0.97,1.478,1.366
				c3.69,2.592,10.129,2.598,14.256-0.781c4.553-3.953,5.995-12.743,6.252-23.375c0.019-0.852,0.034-1.716,0.042-2.592
				C36.897,8.158,33.574,8.748,31.779,11.2z"/>
		</g>
		<circle style="fill:#82B641;" cx="24" cy="24" r="24"/>
		<g>
			<path style="fill:#FFFFFF;" d="M12.898,33.362l9.012-20.261C11.511,17.43,8.637,24.227,12.898,33.362z"/>
			<path style="fill:#FFFFFF;" d="M31.779,11.2c-6.804,7.491-12.659,15.536-16.807,24.576c0.416,0.514,0.917,0.97,1.478,1.366
				c3.69,2.592,10.129,2.598,14.256-0.781c4.553-3.953,5.995-12.743,6.252-23.375c0.019-0.852,0.034-1.716,0.042-2.592
				C36.897,8.158,33.574,8.748,31.779,11.2z"/>
		</g>
	</g>
</g>
<g id="Layer_1">
</g>
</svg>
