<?xml version="1.0" encoding="iso-8859-1"?>
<!-- Generator: Adobe Illustrator 18.0.0, SVG Export Plug-In . SVG Version: 6.00 Build 0)  -->
<!DOCTYPE svg PUBLIC "-//W3C//DTD SVG 1.1//EN" "http://www.w3.org/Graphics/SVG/1.1/DTD/svg11.dtd">
<svg version="1.1" xmlns="http://www.w3.org/2000/svg" xmlns:xlink="http://www.w3.org/1999/xlink" x="0px" y="0px"
	 viewBox="0 0 48 48" style="enable-background:new 0 0 48 48;" xml:space="preserve">
<g id="Layer_531">
	<g>
		<circle style="fill:#376534;" cx="24" cy="23.998" r="24"/>
		<g>
			<path style="fill:#FFFFFF;" d="M28.725,17.591c0.329,0.198,0.708,0.313,1.12,0.313c1.189,0,2.155-0.951,2.155-2.124
				c0-1.172-0.965-2.126-2.155-2.126c-1.191,0-2.157,0.954-2.157,2.126c0,0.099,0.008,0.198,0.022,0.294l-2.66,1.898V9h-2.099v4.734
				l-2.68-1.907c0.026-0.126,0.04-0.256,0.04-0.392c0-1.172-0.967-2.124-2.157-2.124c-1.191,0-2.155,0.952-2.155,2.124
				c0,1.174,0.963,2.127,2.155,2.127c0.375,0,0.729-0.097,1.037-0.262l3.76,2.679v5.915l-2.674-1.908
				c0.022-0.115,0.034-0.236,0.034-0.355c0-1.178-0.967-2.128-2.157-2.128c-1.191,0-2.155,0.95-2.155,2.128
				c0,1.171,0.963,2.121,2.155,2.121c0.387,0,0.751-0.1,1.064-0.276l3.732,2.661v6.305l-2.67-1.904
				c0.018-0.113,0.03-0.229,0.03-0.348c0-1.176-0.967-2.126-2.157-2.126c-1.191,0-2.155,0.95-2.155,2.126
				c0,1.172,0.963,2.123,2.155,2.123c0.391,0,0.755-0.105,1.072-0.282l3.725,2.655V39h0.172h1.843h0.083v-2.08l3.639-2.597
				c0.333,0.207,0.727,0.332,1.156,0.332c1.189,0,2.155-0.951,2.155-2.125c0-1.174-0.965-2.125-2.155-2.125
				c-1.191,0-2.157,0.951-2.157,2.125c0,0.084,0.008,0.17,0.014,0.253l-2.652,1.894v-6.305l3.645-2.603
				c0.335,0.206,0.726,0.328,1.15,0.328c1.189,0,2.155-0.951,2.155-2.125c0-1.174-0.965-2.127-2.155-2.127
				c-1.191,0-2.157,0.953-2.157,2.127c0,0.088,0.008,0.174,0.018,0.263l-2.656,1.893v-5.912L28.725,17.591z"/>
		</g>
		<circle style="fill:#376534;" cx="24" cy="23.998" r="24"/>
		<g>
			<path style="fill:#FFFFFF;" d="M28.725,17.591c0.329,0.198,0.708,0.313,1.12,0.313c1.189,0,2.155-0.951,2.155-2.124
				c0-1.172-0.965-2.126-2.155-2.126c-1.191,0-2.157,0.954-2.157,2.126c0,0.099,0.008,0.198,0.022,0.294l-2.66,1.898V9h-2.099v4.734
				l-2.68-1.907c0.026-0.126,0.04-0.256,0.04-0.392c0-1.172-0.967-2.124-2.157-2.124c-1.191,0-2.155,0.952-2.155,2.124
				c0,1.174,0.963,2.127,2.155,2.127c0.375,0,0.729-0.097,1.037-0.262l3.76,2.679v5.915l-2.674-1.908
				c0.022-0.115,0.034-0.236,0.034-0.355c0-1.178-0.967-2.128-2.157-2.128c-1.191,0-2.155,0.95-2.155,2.128
				c0,1.171,0.963,2.121,2.155,2.121c0.387,0,0.751-0.1,1.064-0.276l3.732,2.661v6.305l-2.67-1.904
				c0.018-0.113,0.03-0.229,0.03-0.348c0-1.176-0.967-2.126-2.157-2.126c-1.191,0-2.155,0.95-2.155,2.126
				c0,1.172,0.963,2.123,2.155,2.123c0.391,0,0.755-0.105,1.072-0.282l3.725,2.655V39h0.172h1.843h0.083v-2.08l3.639-2.597
				c0.333,0.207,0.727,0.332,1.156,0.332c1.189,0,2.155-0.951,2.155-2.125c0-1.174-0.965-2.125-2.155-2.125
				c-1.191,0-2.157,0.951-2.157,2.125c0,0.084,0.008,0.17,0.014,0.253l-2.652,1.894v-6.305l3.645-2.603
				c0.335,0.206,0.726,0.328,1.15,0.328c1.189,0,2.155-0.951,2.155-2.125c0-1.174-0.965-2.127-2.155-2.127
				c-1.191,0-2.157,0.953-2.157,2.127c0,0.088,0.008,0.174,0.018,0.263l-2.656,1.893v-5.912L28.725,17.591z"/>
		</g>
		<circle style="fill:#376534;" cx="24" cy="23.998" r="24"/>
		<g>
			<path style="fill:#FFFFFF;" d="M28.725,17.591c0.329,0.198,0.708,0.313,1.12,0.313c1.189,0,2.155-0.951,2.155-2.124
				c0-1.172-0.965-2.126-2.155-2.126c-1.191,0-2.157,0.954-2.157,2.126c0,0.099,0.008,0.198,0.022,0.294l-2.66,1.898V9h-2.099v4.734
				l-2.68-1.907c0.026-0.126,0.04-0.256,0.04-0.392c0-1.172-0.967-2.124-2.157-2.124c-1.191,0-2.155,0.952-2.155,2.124
				c0,1.174,0.963,2.127,2.155,2.127c0.375,0,0.729-0.097,1.037-0.262l3.76,2.679v5.915l-2.674-1.908
				c0.022-0.115,0.034-0.236,0.034-0.355c0-1.178-0.967-2.128-2.157-2.128c-1.191,0-2.155,0.95-2.155,2.128
				c0,1.171,0.963,2.121,2.155,2.121c0.387,0,0.751-0.1,1.064-0.276l3.732,2.661v6.305l-2.67-1.904
				c0.018-0.113,0.03-0.229,0.03-0.348c0-1.176-0.967-2.126-2.157-2.126c-1.191,0-2.155,0.95-2.155,2.126
				c0,1.172,0.963,2.123,2.155,2.123c0.391,0,0.755-0.105,1.072-0.282l3.725,2.655V39h0.172h1.843h0.083v-2.08l3.639-2.597
				c0.333,0.207,0.727,0.332,1.156,0.332c1.189,0,2.155-0.951,2.155-2.125c0-1.174-0.965-2.125-2.155-2.125
				c-1.191,0-2.157,0.951-2.157,2.125c0,0.084,0.008,0.17,0.014,0.253l-2.652,1.894v-6.305l3.645-2.603
				c0.335,0.206,0.726,0.328,1.15,0.328c1.189,0,2.155-0.951,2.155-2.125c0-1.174-0.965-2.127-2.155-2.127
				c-1.191,0-2.157,0.953-2.157,2.127c0,0.088,0.008,0.174,0.018,0.263l-2.656,1.893v-5.912L28.725,17.591z"/>
		</g>
	</g>
</g>
<g id="Layer_1">
</g>
</svg>
