<?xml version="1.0" encoding="iso-8859-1"?>
<!-- Generator: Adobe Illustrator 18.0.0, SVG Export Plug-In . SVG Version: 6.00 Build 0)  -->
<!DOCTYPE svg PUBLIC "-//W3C//DTD SVG 1.1//EN" "http://www.w3.org/Graphics/SVG/1.1/DTD/svg11.dtd">
<svg version="1.1" xmlns="http://www.w3.org/2000/svg" xmlns:xlink="http://www.w3.org/1999/xlink" x="0px" y="0px"
	 viewBox="0 0 48 48" style="enable-background:new 0 0 48 48;" xml:space="preserve">
<g id="nyt_x5F_exporter_x5F_info" style="display:none;">
</g>
<g>
</g>
<g>
</g>
<g>
</g>
<g>
</g>
<g>
</g>
<g>
</g>
<g>
</g>
<g>
</g>
<g>
</g>
<g>
</g>
<g>
</g>
<g>
</g>
<g>
</g>
<g>
</g>
<g>
</g>
<g>
</g>
<g>
</g>
<g>
</g>
<g>
</g>
<g>
</g>
<g>
</g>
<g>
</g>
<g>
</g>
<g>
</g>
<g>
</g>
<g>
</g>
<g>
</g>
<g>
</g>
<g>
</g>
<g>
</g>
<g>
</g>
<g>
</g>
<g>
</g>
<g>
</g>
<g>
</g>
<g>
</g>
<g>
</g>
<g>
</g>
<g>
</g>
<g>
</g>
<g>
</g>
<g>
</g>
<g>
</g>
<g>
</g>
<g>
</g>
<g>
</g>
<g>
</g>
<g>
</g>
<g>
</g>
<g>
</g>
<g>
</g>
<g>
</g>
<g>
</g>
<g>
</g>
<g>
</g>
<g>
</g>
<g>
</g>
<g>
</g>
<g>
</g>
<g>
</g>
<g>
</g>
<g>
</g>
<g>
</g>
<g>
</g>
<g>
</g>
<g>
</g>
<g>
</g>
<g>
</g>
<g>
</g>
<g>
</g>
<g>
</g>
<g>
</g>
<g>
</g>
<g>
</g>
<g>
</g>
<g>
</g>
<g>
</g>
<g>
</g>
<g>
</g>
<g>
</g>
<g>
	<g>
		<circle style="fill:#58595B;" cx="24" cy="24" r="24"/>
		<path id="Yahoo_x21__Messenger_10_" style="fill:#FFFFFF;" d="M24,39c8.285,0,15-6.716,15-15c0-8.285-6.715-15-15-15
			C15.715,9,9,15.715,9,24C9,32.284,15.715,39,24,39z M27.829,15.797c1.079,0,1.954,0.874,1.954,1.953
			c0,1.078-0.875,1.952-1.954,1.952c-1.078,0-1.953-0.874-1.953-1.952C25.876,16.671,26.751,15.797,27.829,15.797z M20.407,15.797
			c1.079,0,1.954,0.874,1.954,1.953c0,1.078-0.875,1.952-1.954,1.952c-1.079,0-1.953-0.874-1.953-1.952
			C18.454,16.671,19.328,15.797,20.407,15.797L20.407,15.797z M13.453,22.046h21.093v3.908h-0.043
			c-0.438,5.421-4.968,9.686-10.504,9.686c-5.535,0-10.064-4.264-10.501-9.686h-0.045V22.046L13.453,22.046z M33.115,25.538H14.633
			v-2.405h18.481L33.115,25.538L33.115,25.538z"/>
	</g>
</g>
<g>
</g>
<g>
</g>
<g>
</g>
<g>
</g>
<g>
</g>
<g>
</g>
<g>
</g>
<g>
</g>
<g>
</g>
</svg>
