<?xml version="1.0" encoding="iso-8859-1"?>
<!-- Generator: Adobe Illustrator 18.0.0, SVG Export Plug-In . SVG Version: 6.00 Build 0)  -->
<!DOCTYPE svg PUBLIC "-//W3C//DTD SVG 1.1//EN" "http://www.w3.org/Graphics/SVG/1.1/DTD/svg11.dtd">
<svg version="1.1" xmlns="http://www.w3.org/2000/svg" xmlns:xlink="http://www.w3.org/1999/xlink" x="0px" y="0px"
	 viewBox="0 0 48 48" style="enable-background:new 0 0 48 48;" xml:space="preserve">
<g id="nyt_x5F_exporter_x5F_info" style="display:none;">
</g>
<g>
</g>
<g>
</g>
<g>
</g>
<g>
</g>
<g>
</g>
<g>
</g>
<g>
</g>
<g>
</g>
<g>
</g>
<g>
</g>
<g>
</g>
<g>
</g>
<g>
</g>
<g>
</g>
<g>
</g>
<g>
</g>
<g>
</g>
<g>
</g>
<g>
</g>
<g>
</g>
<g>
</g>
<g>
</g>
<g>
</g>
<g>
</g>
<g>
</g>
<g>
</g>
<g>
</g>
<g>
</g>
<g>
</g>
<g>
</g>
<g>
</g>
<g>
</g>
<g>
</g>
<g>
</g>
<g>
</g>
<g>
</g>
<g>
</g>
<g>
</g>
<g>
</g>
<g>
</g>
<g>
</g>
<g>
</g>
<g>
</g>
<g>
</g>
<g>
</g>
<g>
</g>
<g>
</g>
<g>
</g>
<g>
</g>
<g>
</g>
<g>
</g>
<g>
</g>
<g>
</g>
<g>
</g>
<g>
</g>
<g>
</g>
<g>
</g>
<g>
</g>
<g>
</g>
<g>
</g>
<g>
</g>
<g>
</g>
<g>
</g>
<g>
</g>
<g>
</g>
<g>
</g>
<g>
</g>
<g>
</g>
<g>
</g>
<g>
</g>
<g>
</g>
<g>
</g>
<g>
</g>
<g>
</g>
<g>
</g>
<g>
</g>
<g>
</g>
<g>
</g>
<g>
</g>
<g>
</g>
<g>
</g>
<g>
</g>
<g>
</g>
<g>
</g>
<g>
</g>
<g>
</g>
<g>
</g>
<g>
	<g>
		<circle style="fill:#58595B;" cx="24" cy="23.998" r="24"/>
		<path id="path3797_10_" style="fill:#FFFFFF;" d="M24.304,9.002c-1.666-0.026-3.354,0.216-4.914,0.728
			c-1.363,0.447-2.546,0.931-2.632,1.075c-0.087,0.143,0.825,0.529,2.029,0.862c1.205,0.333,2.818,0.991,3.587,1.455
			c1.753,1.059,1.684,1.055,3.06,0.19c1.568-0.985,5.474-2.204,6.373-1.981c0.404,0.1-0.268-0.314-1.492-0.929
			C28.545,9.512,26.446,9.035,24.304,9.002z M33.758,12.438l-1.283,0.705c-0.71,0.388-2.086,1.449-3.049,2.351l-1.744,1.634
			l1.952,2.485c4.041,5.128,6.268,9.526,6.307,12.436l0.022,1.388l1.02-1.556c1.574-2.399,2.136-4.856,1.996-8.664
			c-0.104-2.839-0.273-3.621-1.239-5.619c-0.617-1.275-1.759-2.957-2.545-3.739L33.758,12.438z M14.586,12.662
			c-0.274-0.01-0.513,0.115-0.91,0.38c-1.101,0.736-3.124,3.875-3.982,6.179c-1.385,3.72-0.633,9.448,1.689,12.929
			c0.915,1.372,1.119,1.514,0.823,0.56c-0.588-1.891,2.447-8.119,6.395-13.108l1.974-2.474l-1.843-1.679
			c-1.009-0.922-2.366-1.971-3.016-2.328C15.168,12.82,14.86,12.672,14.586,12.662z M23.997,20.464l-2.479,2.194
			c-4.418,3.89-8.457,9.156-8.457,11.037c0,1.405,3.974,4.007,7.535,4.936c3.794,0.99,9.119-0.073,12.372-2.463
			c2.698-1.981,2.779-2.676,0.746-5.809c-1.253-1.931-6.848-7.856-8.599-9.1L23.997,20.464z"/>
	</g>
</g>
<g>
</g>
<g>
</g>
</svg>
