<?xml version="1.0" encoding="iso-8859-1"?>
<!-- Generator: Adobe Illustrator 18.0.0, SVG Export Plug-In . SVG Version: 6.00 Build 0)  -->
<!DOCTYPE svg PUBLIC "-//W3C//DTD SVG 1.1//EN" "http://www.w3.org/Graphics/SVG/1.1/DTD/svg11.dtd">
<svg version="1.1" xmlns="http://www.w3.org/2000/svg" xmlns:xlink="http://www.w3.org/1999/xlink" x="0px" y="0px"
	 viewBox="0 0 48 48" style="enable-background:new 0 0 48 48;" xml:space="preserve">
<g id="nyt_x5F_exporter_x5F_info" style="display:none;">
</g>
<g>
</g>
<g>
</g>
<g>
</g>
<g>
</g>
<g>
</g>
<g>
</g>
<g>
</g>
<g>
</g>
<g>
</g>
<g>
</g>
<g>
</g>
<g>
</g>
<g>
</g>
<g>
</g>
<g>
</g>
<g>
</g>
<g>
</g>
<g>
</g>
<g>
</g>
<g>
</g>
<g>
</g>
<g>
</g>
<g>
</g>
<g>
</g>
<g>
</g>
<g>
</g>
<g>
</g>
<g>
</g>
<g>
</g>
<g>
</g>
<g>
</g>
<g>
</g>
<g>
</g>
<g>
</g>
<g>
</g>
<g>
</g>
<g>
</g>
<g>
</g>
<g>
</g>
<g>
</g>
<g>
</g>
<g>
</g>
<g>
</g>
<g>
</g>
<g>
</g>
<g>
</g>
<g>
</g>
<g>
</g>
<g>
</g>
<g>
</g>
<g>
</g>
<g>
</g>
<g>
</g>
<g>
</g>
<g>
</g>
<g>
</g>
<g>
</g>
<g>
</g>
<g>
</g>
<g>
</g>
<g>
</g>
<g>
</g>
<g>
</g>
<g>
</g>
<g>
</g>
<g>
</g>
<g>
</g>
<g>
</g>
<g>
</g>
<g>
</g>
<g>
</g>
<g>
</g>
<g>
</g>
<g>
</g>
<g>
</g>
<g>
</g>
<g>
</g>
<g>
</g>
<g>
</g>
<g>
</g>
<g>
</g>
<g>
</g>
<g>
</g>
<g>
</g>
<g>
	<g>
		<circle style="fill:#58595B;" cx="24" cy="23.998" r="24"/>
		<path id="MSN_Messenger_10_" style="fill:#FFFFFF;" d="M9,26.604c0.497-4.516,4.347-6.113,4.91-6.323
			c-0.957-0.738-1.569-1.868-1.569-3.134c0-2.224,1.886-4.026,4.214-4.026c2.327,0,4.214,1.802,4.214,4.026
			c0,1.254-0.601,2.375-1.543,3.114c0.788,0.271,1.562,0.676,2.255,1.205c-1.832,0.893-5.864,3.466-6.476,9.02
			c0,0.047,0,0.092,0,0.137c-3.543-0.217-3.905-1.153-3.905-1.153V29.47c-0.225-0.213-0.4-0.475-0.507-0.802
			c-0.516-0.116-0.841-0.419-0.841-0.419s-0.793-0.288-0.752-1.645H9z M23.773,21.608c-0.836,0.312-6.538,2.678-7.276,9.37
			c-0.06,2.012,1.113,2.437,1.113,2.437v0.001c0,0,0.482,0.448,1.248,0.62c0.158,0.484,0.416,0.872,0.751,1.188v0.001
			c0,0,0.562,1.462,6.209,1.732c0.084,0.014,0.166,0.027,0.248,0.042c0.468,0,0.936,0,1.404,0c0.176,0,0.356,0.001,0.54,0
			c0.539,0,1.076,0,1.614,0c0.139-0.025,0.28-0.047,0.422-0.07c5.803-0.376,6.414-2.144,6.414-2.144v-0.002
			c0.154-0.221,0.282-0.468,0.374-0.749c2.641-0.509,2.432-3.573,1.642-5.927c-1.099-3.268-3.894-5.52-6.825-6.53
			c1.395-1.094,2.286-2.754,2.286-4.613c0-3.295-2.796-5.965-6.244-5.965c-3.448,0-6.244,2.671-6.244,5.965
			c0,1.877,0.907,3.55,2.326,4.643L23.773,21.608z"/>
	</g>
</g>
<g>
</g>
<g>
</g>
<g>
</g>
<g>
</g>
<g>
</g>
</svg>
