<?xml version="1.0" encoding="iso-8859-1"?>
<!-- Generator: Adobe Illustrator 18.0.0, SVG Export Plug-In . SVG Version: 6.00 Build 0)  -->
<!DOCTYPE svg PUBLIC "-//W3C//DTD SVG 1.1//EN" "http://www.w3.org/Graphics/SVG/1.1/DTD/svg11.dtd">
<svg version="1.1" xmlns="http://www.w3.org/2000/svg" xmlns:xlink="http://www.w3.org/1999/xlink" x="0px" y="0px"
	 viewBox="0 0 48 48" style="enable-background:new 0 0 48 48;" xml:space="preserve">
<g id="Layer_109">
	<g>
		<circle style="fill:#58595B;" cx="24" cy="24" r="24"/>
		<g>
			<path style="fill:#FFFFFF;" d="M16.839,9c-0.735,0-1.362,0.537-1.475,1.266l-4.353,27.695C10.924,38.506,11.346,39,11.897,39
				h5.139c0.736,0,1.36-0.537,1.477-1.268l1.175-7.471c0.111-0.73,0.739-1.268,1.473-1.268h3.407
				c7.089,0,11.179-3.441,12.247-10.266c0.481-2.984,0.019-5.328-1.374-6.971C33.915,9.953,31.202,9,27.6,9H16.839z M28.842,19.115
				c-0.588,3.875-3.538,3.875-6.392,3.875h-1.623l1.14-7.238c0.066-0.437,0.444-0.76,0.885-0.76h0.743c1.942,0,3.777,0,4.723,1.113
				C28.884,16.768,29.058,17.754,28.842,19.115z"/>
		</g>
	</g>
</g>
<g id="Layer_1">
</g>
</svg>
