<?xml version="1.0" encoding="iso-8859-1"?>
<!-- Generator: Adobe Illustrator 18.0.0, SVG Export Plug-In . SVG Version: 6.00 Build 0)  -->
<!DOCTYPE svg PUBLIC "-//W3C//DTD SVG 1.1//EN" "http://www.w3.org/Graphics/SVG/1.1/DTD/svg11.dtd">
<svg version="1.1" xmlns="http://www.w3.org/2000/svg" xmlns:xlink="http://www.w3.org/1999/xlink" x="0px" y="0px"
	 viewBox="0 0 48 48" style="enable-background:new 0 0 48 48;" xml:space="preserve">
<g id="Layer_98">
	<g>
		<circle style="fill:#58595B;" cx="24" cy="23.998" r="24"/>
		<g>
			<path style="fill:#FFFFFF;" d="M13.293,30.291c1.301,0,2.477-0.486,3.398-1.265l10.75,5.375
				c-0.008,0.102-0.031,0.196-0.031,0.302c0,2.927,2.367,5.297,5.295,5.297C35.629,40,38,37.63,38,34.703
				c0-2.925-2.371-5.294-5.295-5.294c-1.301,0-2.478,0.486-3.398,1.266L18.559,25.3c0.004-0.102,0.027-0.197,0.027-0.3
				c0-0.105-0.023-0.202-0.027-0.305l10.748-5.378c0.92,0.779,2.096,1.269,3.398,1.269c2.924,0,5.295-2.369,5.295-5.296
				C38,12.368,35.629,10,32.705,10c-2.928,0-5.295,2.368-5.295,5.291c0,0.105,0.023,0.202,0.031,0.304l-10.75,5.374
				c-0.922-0.778-2.098-1.267-3.398-1.267C10.369,19.702,8,22.073,8,25C8,27.923,10.369,30.291,13.293,30.291z"/>
		</g>
	</g>
</g>
<g id="Layer_1">
</g>
</svg>
