<?xml version="1.0" encoding="iso-8859-1"?>
<!-- Generator: Adobe Illustrator 18.0.0, SVG Export Plug-In . SVG Version: 6.00 Build 0)  -->
<!DOCTYPE svg PUBLIC "-//W3C//DTD SVG 1.1//EN" "http://www.w3.org/Graphics/SVG/1.1/DTD/svg11.dtd">
<svg version="1.1" xmlns="http://www.w3.org/2000/svg" xmlns:xlink="http://www.w3.org/1999/xlink" x="0px" y="0px"
	 viewBox="0 0 48 48" style="enable-background:new 0 0 48 48;" xml:space="preserve">
<g id="Layer_132">
	<g>
		<circle style="fill:#58595B;" cx="24" cy="24" r="24.001"/>
		<g>
			<path style="fill:#FFFFFF;" d="M19.307,34.955c0.274,0.722,0.765,1.403,1.48,2.045c0.709,0.637,1.568,1.133,2.575,1.481
				C24.368,38.825,25.141,39,26.453,39c1.153,0,2.226-0.124,3.219-0.366c0.995-0.242,2.105-0.667,3.327-1.27v-4.729
				c-1.435,0.987-2.88,1.48-4.33,1.48c-0.817,0-1.54-0.2-2.176-0.599c-0.478-0.294-0.918-0.804-1.092-1.294
				C25.227,31.729,25,30.726,25,28.985V21h6.874v-5H25V9h-3.829c-0.183,1.546-0.519,2.822-1.006,3.822
				c-0.485,1.002-1.129,1.859-1.933,2.576c-0.801,0.715-2.106,1.264-3.231,1.645V21h4v10.813C19,33.185,19.031,34.232,19.307,34.955
				z"/>
		</g>
	</g>
</g>
<g id="Layer_1">
</g>
</svg>
