<?xml version="1.0" encoding="iso-8859-1"?>
<!-- Generator: Adobe Illustrator 18.0.0, SVG Export Plug-In . SVG Version: 6.00 Build 0)  -->
<!DOCTYPE svg PUBLIC "-//W3C//DTD SVG 1.1//EN" "http://www.w3.org/Graphics/SVG/1.1/DTD/svg11.dtd">
<svg version="1.1" xmlns="http://www.w3.org/2000/svg" xmlns:xlink="http://www.w3.org/1999/xlink" x="0px" y="0px"
	 viewBox="0 0 48 48" style="enable-background:new 0 0 48 48;" xml:space="preserve">
<g id="Layer_108">
	<g>
		<circle style="fill:#58595B;" cx="24" cy="23.998" r="24"/>
		<g>
			<path style="fill:#FFFFFF;" d="M16.447,15h-2.934v4.187H9v9.587h7.447V15z M13.514,26.197h-1.529V21.84h1.529V26.197z"/>
			<path style="fill:#FFFFFF;" d="M30.006,33V19.226h-7.447v9.585h4.518v1.499h-4.568V33h6.203H30.006z M27.076,26.16h-1.531v-4.358
				h1.531V26.16z"/>
			<path style="fill:#FFFFFF;" d="M31.555,28.811h4.512v1.499h-4.564V33h6.203H39V19.226h-7.445V28.811z M34.541,21.801h1.525v4.358
				h-1.525V21.801z"/>
			<rect x="17.959" y="19.168" style="fill:#FFFFFF;" width="3.037" height="9.643"/>
			<rect x="17.959" y="15.169" style="fill:#FFFFFF;" width="3.037" height="2.615"/>
		</g>
	</g>
</g>
<g id="Layer_1">
</g>
</svg>
